# vtk DataFile Version 2.0
pressure
ASCII
DATASET RECTILINEAR_GRID
DIMENSIONS 41 41 1
X_COORDINATES 41 double
0 0.0325168 0.0644289 0.0957562 0.126518 0.156734 0.186424 0.215604 0.244295 0.272513 0.300276 0.327602 0.354507 0.38101 0.407125 0.43287 0.45826 0.483312 0.50804 0.532462 0.556591 0.580442 0.604032 0.627374 0.650483 0.673374 0.696061 0.718557 0.740878 0.763037 0.785048 0.806924 0.82868 0.850328 0.871883 0.893358 0.914766 0.936121 0.957436 0.978725 1 
Y_COORDINATES 41 double
0 0.025 0.05 0.075 0.1 0.125 0.15 0.175 0.2 0.225 0.25 0.275 0.3 0.325 0.35 0.375 0.4 0.425 0.45 0.475 0.5 0.525 0.55 0.575 0.6 0.625 0.65 0.675 0.7 0.725 0.75 0.775 0.8 0.825 0.85 0.875 0.9 0.925 0.95 0.975 1 
Z_COORDINATES 1 double
0.0

CELL_DATA 1600
SCALARS pressure double 1
LOOKUP_TABLE default
0
-7.52918e-05
-0.000250783
-0.000504422
-0.000811099
-0.00115611
-0.00152994
-0.00192286
-0.0023216
-0.00270806
-0.00305973
-0.00335125
-0.00355713
-0.00365497
-0.00362915
-0.00347421
-0.00319736
-0.00281962
-0.0023751
-0.00190834
-0.00146982
-0.00111031
-0.000874643
-0.000796088
-0.000892109
-0.00116239
-0.00158941
-0.00214151
-0.00277772
-0.00345348
-0.00412604
-0.00475874
-0.00532348
-0.00580139
-0.00618191
-0.00646096
-0.00663923
-0.00672215
-0.00672343
-0.00667601
2.73078e-05
-4.71113e-05
-0.000205428
-0.000432156
-0.000707211
-0.00101934
-0.00136136
-0.00172577
-0.00210183
-0.00247431
-0.00282342
-0.00312592
-0.0033572
-0.00349431
-0.00351953
-0.00342403
-0.00321094
-0.002897
-0.00251246
-0.00209882
-0.00170455
-0.00137939
-0.00116797
-0.00110387
-0.001205
-0.00147142
-0.00188578
-0.00241653
-0.00302302
-0.00366153
-0.00429096
-0.00487712
-0.00539512
-0.0058297
-0.00617394
-0.00642702
-0.00659186
-0.0066733
-0.00667762
-0.00662508
0.000121388
3.28938e-05
-0.000120939
-0.00032899
-0.0005785
-0.000864016
-0.00118302
-0.00153213
-0.00190442
-0.00228777
-0.0026643
-0.0030108
-0.0033006
-0.00350672
-0.00360605
-0.00358392
-0.00343795
-0.00318047
-0.00283886
-0.00245345
-0.00207325
-0.00175001
-0.00153138
-0.00145436
-0.00154003
-0.00179071
-0.00218999
-0.00270582
-0.00329604
-0.00391499
-0.00452012
-0.00507691
-0.00556166
-0.00596172
-0.00627378
-0.00650083
-0.00664858
-0.006722
-0.00672213
-0.00666203
0.00027964
0.000163892
2.46187e-06
-0.000197889
-0.000434303
-0.000709312
-0.00102715
-0.00139033
-0.00179651
-0.00223609
-0.00269075
-0.00313373
-0.003532
-0.0038505
-0.00405766
-0.00413101
-0.0040619
-0.00385834
-0.00354548
-0.0031636
-0.00276378
-0.00240177
-0.00213086
-0.00199469
-0.00202104
-0.00221798
-0.00257294
-0.00305518
-0.0036213
-0.00422255
-0.00481247
-0.00535315
-0.005819
-0.00619744
-0.00648705
-0.0066938
-0.00682635
-0.00689134
-0.00688908
-0.00683048
0.000480744
0.000328662
0.000150864
-5.33415e-05
-0.000294299
-0.000584422
-0.000936311
-0.00135932
-0.00185546
-0.00241558
-0.00301746
-0.00362639
-0.00419882
-0.00468832
-0.00505248
-0.00525955
-0.0052935
-0.00515703
-0.00487213
-0.00447824
-0.00402818
-0.00358231
-0.00320132
-0.00293857
-0.00283304
-0.00290386
-0.00314779
-0.00354022
-0.00403979
-0.00459587
-0.00515726
-0.00568015
-0.00613357
-0.00650141
-0.00678097
-0.00697892
-0.00710588
-0.0071707
-0.00717559
-0.00713126
0.00069435
0.000501426
0.000300629
7.86266e-05
-0.00019144
-0.000533614
-0.00096979
-0.00151615
-0.0021773
-0.00294126
-0.00377751
-0.00463917
-0.00546864
-0.00620545
-0.00679438
-0.00719256
-0.00737462
-0.00733578
-0.0070925
-0.00668114
-0.00615453
-0.00557678
-0.00501665
-0.00453985
-0.0042012
-0.0040376
-0.00406306
-0.00426709
-0.0046172
-0.00506525
-0.00555665
-0.00604013
-0.0064757
-0.00683898
-0.00712129
-0.00732603
-0.00746292
-0.00754159
-0.00756613
-0.00754716
0.000881024
0.000646294
0.000416058
0.000158253
-0.000173614
-0.000616467
-0.00120184
-0.00195144
-0.00286946
-0.00393681
-0.00511027
-0.00632689
-0.00751207
-0.00858889
-0.00948718
-0.0101508
-0.0105427
-0.0106482
-0.0104754
-0.0100549
-0.00943662
-0.00868594
-0.00787834
-0.00709236
-0.00640178
-0.00586739
-0.00552948
-0.00540265
-0.00547427
-0.00570774
-0.0060504
-0.00644435
-0.00683747
-0.00719148
-0.00748517
-0.00771259
-0.0078776
-0.00798699
-0.00804439
-0.00805928
0.000992815
0.000717312
0.000449562
0.000132638
-0.000301821
-0.000904515
-0.00171601
-0.00276117
-0.00403974
-0.0055208
-0.00714399
-0.00882662
-0.010474
-0.0119904
-0.0132886
-0.0142978
-0.014968
-0.0152734
-0.0152125
-0.0148075
-0.0141023
-0.0131596
-0.0120575
-0.0108839
-0.00973033
-0.00868383
-0.007818
-0.00718399
-0.00680369
-0.00666699
-0.00673508
-0.00694971
-0.00724633
-0.00756724
-0.0078704
-0.0081318
-0.00834194
-0.008499
-0.00860201
-0.0086575
0.000975398
0.000660737
0.000344398
-6.03265e-05
-0.00064499
-0.0014741
-0.0025959
-0.00403492
-0.00578163
-0.00778805
-0.00997189
-0.0122265
-0.014434
-0.0164775
-0.0182522
-0.0196731
-0.0206792
-0.0212351
-0.0213306
-0.0209794
-0.0202168
-0.0190985
-0.017698
-0.0161051
-0.0144214
-0.0127556
-0.0112147
-0.00989327
-0.00886215
-0.00815719
-0.00777377
-0.00766907
-0.00777335
-0.00800732
-0.00829923
-0.00859558
-0.00886284
-0.00908235
-0.0092428
-0.00934527
0.000772086
0.000419352
4.00823e-05
-0.000485445
-0.00127179
-0.00239664
-0.00391333
-0.00584164
-0.00815694
-0.0107882
-0.0136254
-0.0165334
-0.0193679
-0.0219907
-0.0242814
-0.0261447
-0.0275136
-0.0283485
-0.0286345
-0.028379
-0.0276085
-0.0263678
-0.0247194
-0.0227441
-0.0205409
-0.0182267
-0.0159311
-0.0137889
-0.0119258
-0.0104411
-0.00939044
-0.00877395
-0.00853742
-0.0085878
-0.00881849
-0.0091335
-0.00946094
-0.00975372
-0.00998256
-0.0101394
0.000329299
-6.14004e-05
-0.000520554
-0.00120173
-0.00224106
-0.00372744
-0.00571577
-0.0082153
-0.0111794
-0.0145069
-0.0180538
-0.0216521
-0.0251303
-0.0283311
-0.0311238
-0.0334106
-0.0351261
-0.0362337
-0.0367205
-0.0365918
-0.0358679
-0.0345819
-0.0327806
-0.0305269
-0.0279031
-0.0250157
-0.0219968
-0.019003
-0.0162054
-0.0137715
-0.0118381
-0.010483
-0.00970419
-0.00942091
-0.00949896
-0.00979029
-0.0101674
-0.0105387
-0.010846
-0.0110666
-0.00039714
-0.000826579
-0.0013834
-0.00225371
-0.00359203
-0.00549549
-0.00801547
-0.0111439
-0.0148043
-0.0188578
-0.0231208
-0.0273907
-0.0314707
-0.0351905
-0.0384177
-0.0410607
-0.0430645
-0.0444032
-0.0450717
-0.0450791
-0.0444431
-0.0431881
-0.0413452
-0.0389552
-0.0360744
-0.0327821
-0.0291897
-0.0254474
-0.0217446
-0.0182997
-0.0153329
-0.0130254
-0.0114723
-0.0106528
-0.0104356
-0.0106244
-0.0110207
-0.0114676
-0.0118623
-0.0121581
-0.001436
-0.00190507
-0.00257594
-0.00366365
-0.00533668
-0.00769587
-0.0107831
-0.0145653
-0.0189283
-0.0236891
-0.028622
-0.033491
-0.0380803
-0.0422154
-0.0457718
-0.0486726
-0.0508801
-0.0523844
-0.0531928
-0.0533218
-0.0527912
-0.0516209
-0.0498305
-0.0474414
-0.0444823
-0.0409979
-0.0370618
-0.0327901
-0.0283549
-0.0239879
-0.0199667
-0.0165748
-0.0140373
-0.0124512
-0.0117459
-0.0117084
-0.0120655
-0.0125731
-0.0130613
-0.0134449
-0.00279584
-0.0033045
-0.00410175
-0.00542649
-0.0074552
-0.0102871
-0.0139477
-0.0183717
-0.0234011
-0.0288054
-0.0343176
-0.0396745
-0.0446503
-0.0490763
-0.0528441
-0.0558978
-0.0582203
-0.0598196
-0.0607168
-0.0609375
-0.0605061
-0.0594426
-0.057761
-0.0554704
-0.0525783
-0.0490978
-0.04506
-0.0405317
-0.0356371
-0.0305776
-0.0256396
-0.0211734
-0.0175323
-0.0149734
-0.0135602
-0.0131276
-0.0133522
-0.0138876
-0.01447
-0.0149538
-0.00446235
-0.00500842
-0.00593813
-0.00750805
-0.00989597
-0.0131932
-0.017403
-0.0224221
-0.0280451
-0.0339951
-0.0399692
-0.0456858
-0.0509197
-0.0555161
-0.0593887
-0.0625048
-0.0648682
-0.0665033
-0.0674432
-0.0677218
-0.067369
-0.0664075
-0.0648514
-0.0627053
-0.0599655
-0.0566243
-0.0526783
-0.0481451
-0.0430871
-0.0376429
-0.032056
-0.0266843
-0.0219653
-0.0183177
-0.0159969
-0.0149732
-0.0149353
-0.0154424
-0.0161102
-0.0167041
-0.00639829
-0.00697646
-0.00803679
-0.00984718
-0.0125795
-0.0163116
-0.0210191
-0.0265583
-0.0326772
-0.0390571
-0.045368
-0.0513204
-0.0566978
-0.061366
-0.0652624
-0.0683768
-0.0707307
-0.0723615
-0.0733111
-0.0736194
-0.0733207
-0.0724415
-0.0709991
-0.0690001
-0.0664395
-0.0633011
-0.0595618
-0.0552024
-0.0502286
-0.0447044
-0.0387948
-0.0328052
-0.0271869
-0.0224734
-0.0191242
-0.0173235
-0.0168669
-0.0172636
-0.0179951
-0.018704
-0.00854611
-0.00914723
-0.0103278
-0.0123609
-0.015406
-0.0195222
-0.0246553
-0.0306214
-0.0371265
-0.0438184
-0.0503499
-0.0564324
-0.061865
-0.0665357
-0.0704048
-0.0734808
-0.0757988
-0.0774048
-0.0783458
-0.0786648
-0.0783989
-0.0775781
-0.0762241
-0.0743492
-0.0719534
-0.069023
-0.0655299
-0.0614359
-0.056707
-0.051341
-0.0454142
-0.0391388
-0.0329103
-0.0272978
-0.0229223
-0.0202171
-0.0191841
-0.0193666
-0.0201247
-0.0209465
-0.0108327
-0.0114437
-0.0127256
-0.0149522
-0.0182643
-0.0226991
-0.0281725
-0.0344644
-0.0412463
-0.0481421
-0.0547967
-0.0609295
-0.0663575
-0.0709902
-0.074807
-0.0778307
-0.0801052
-0.081681
-0.0826068
-0.0829266
-0.0826785
-0.0818947
-0.0806015
-0.0788176
-0.0765518
-0.0737994
-0.0705384
-0.0667284
-0.0623161
-0.0572541
-0.0515408
-0.0452833
-0.0387733
-0.0325338
-0.0272655
-0.0236262
-0.0218917
-0.0217471
-0.0224803
-0.0234044
-0.0131759
-0.0137801
-0.0151371
-0.0175182
-0.0210414
-0.0257202
-0.031443
-0.0379602
-0.0449183
-0.0519266
-0.0586298
-0.0647588
-0.0701484
-0.074726
-0.0784853
-0.0814584
-0.0836938
-0.0852432
-0.086155
-0.0864721
-0.0862324
-0.0854694
-0.0842127
-0.0824875
-0.0803118
-0.077693
-0.0746216
-0.0710668
-0.0669742
-0.0622749
-0.0569128
-0.0509017
-0.0444117
-0.0378598
-0.0319338
-0.027442
-0.0249462
-0.0243719
-0.0250191
-0.0260266
-0.015491
-0.0160691
-0.0174691
-0.0199585
-0.0236304
-0.0284746
-0.0343566
-0.0410055
-0.0480522
-0.0551004
-0.0617998
-0.0678934
-0.0732308
-0.0777528
-0.081462
-0.0843952
-0.0866023
-0.088134
-0.0890368
-0.0893515
-0.089115
-0.0883611
-0.087122
-0.0854281
-0.0833061
-0.0807754
-0.0778419
-0.0744906
-0.070679
-0.0663364
-0.061379
-0.0557524
-0.049514
-0.0429465
-0.0366482
-0.0314808
-0.0282462
-0.0271713
-0.0276697
-0.0287349
-0.0176979
-0.0182291
-0.019636
-0.0221828
-0.0259377
-0.0308686
-0.0368237
-0.04352
-0.0505821
-0.0576153
-0.0642766
-0.07032
-0.0756058
-0.0800821
-0.0837558
-0.0866645
-0.0888569
-0.0903811
-0.0912809
-0.091595
-0.0913587
-0.0906058
-0.0893701
-0.0876859
-0.0855874
-0.0831047
-0.080259
-0.0770536
-0.0734648
-0.0694344
-0.064873
-0.0596873
-0.0538473
-0.0475019
-0.0411143
-0.0355063
-0.031635
-0.0300359
-0.0303314
-0.031425
-0.0197265
-0.0201902
-0.0215655
-0.0241158
-0.0278868
-0.0328278
-0.038776
-0.0454451
-0.0524622
-0.0594392
-0.0660417
-0.0720318
-0.077275
-0.0817216
-0.0853781
-0.0882795
-0.0904713
-0.0919985
-0.0929016
-0.0932172
-0.0929792
-0.0922208
-0.0909772
-0.0892859
-0.0871866
-0.0847189
-0.0819173
-0.0788035
-0.075375
-0.0715939
-0.0673818
-0.0626318
-0.0572572
-0.051295
-0.0450586
-0.0392608
-0.034914
-0.0328195
-0.0328756
-0.0339691
-0.0215212
-0.0218986
-0.0232033
-0.0257017
-0.0294217
-0.0342986
-0.0401656
-0.0467411
-0.0536624
-0.0605518
-0.0670834
-0.0730235
-0.078238
-0.082674
-0.086333
-0.0892451
-0.0914509
-0.0929912
-0.0939038
-0.094223
-0.0939814
-0.0932122
-0.0919513
-0.0902387
-0.0881187
-0.0856387
-0.0828447
-0.0797747
-0.0764471
-0.072848
-0.0689192
-0.0645594
-0.0596542
-0.0541595
-0.0482505
-0.0424926
-0.0378621
-0.0353482
-0.0351518
-0.0362212
-0.0230435
-0.0233194
-0.0245156
-0.0269058
-0.0305076
-0.0352484
-0.0409639
-0.0473852
-0.0541656
-0.0609412
-0.0673938
-0.0732904
-0.0784918
-0.0829372
-0.0866195
-0.0895608
-0.0917954
-0.0933597
-0.0942883
-0.0946135
-0.094367
-0.0935819
-0.092295
-0.0905486
-0.0883907
-0.0858751
-0.0830576
-0.0799901
-0.0767103
-0.073228
-0.0695098
-0.0654721
-0.0609959
-0.0559875
-0.0505109
-0.0449764
-0.0402557
-0.0374318
-0.0369942
-0.0380242
-0.0242729
-0.0244371
-0.0254898
-0.0277151
-0.0311308
-0.035664
-0.04116
-0.047369
-0.0539659
-0.0606032
-0.0669694
-0.0728287
-0.0780325
-0.0825074
-0.0862338
-0.0892236
-0.0915031
-0.0931035
-0.0940559
-0.0943907
-0.0941389
-0.0933337
-0.092013
-0.0902211
-0.0880096
-0.0854375
-0.0825689
-0.0794678
-0.0761885
-0.0727625
-0.0691822
-0.0653878
-0.0612712
-0.056717
-0.0517109
-0.046523
-0.0418826
-0.0388749
-0.0382296
-0.0392153
-0.0252066
-0.0252554
-0.0261335
-0.0281378
-0.0312975
-0.0355504
-0.0407586
-0.0466976
-0.0530682
-0.0595414
-0.0658117
-0.071638
-0.0768578
-0.0813814
-0.0851732
-0.0882319
-0.0905742
-0.0922247
-0.0932109
-0.0935611
-0.0933054
-0.0924776
-0.0911166
-0.0892687
-0.086989
-0.0843413
-0.0813966
-0.078229
-0.0749073
-0.071482
-0.0679691
-0.0643347
-0.0604908
-0.0563207
-0.0517641
-0.0469809
-0.0425494
-0.0394839
-0.038681
-0.0396297
-0.0258575
-0.025794
-0.0264721
-0.0282001
-0.0310318
-0.0349286
-0.0397788
-0.0453886
-0.0514884
-0.0577689
-0.0639306
-0.0697244
-0.0749714
-0.0795615
-0.0834397
-0.0865887
-0.0890136
-0.0907313
-0.0917644
-0.0921388
-0.0918839
-0.0910336
-0.0896282
-0.0877163
-0.0853558
-0.082615
-0.0795711
-0.0763069
-0.0729028
-0.0694255
-0.0659118
-0.0623523
-0.0586825
-0.0547978
-0.0506187
-0.0462312
-0.0420811
-0.0390665
-0.0381666
-0.0390964
-0.0262517
-0.0260856
-0.0265448
-0.0279428
-0.030372
-0.0338334
-0.0382525
-0.0434719
-0.0492542
-0.0553108
-0.0613474
-0.0671058
-0.0723878
-0.07706
-0.081045
-0.0843067
-0.0868363
-0.0886411
-0.0897378
-0.0901493
-0.0899039
-0.0890355
-0.0875857
-0.0856051
-0.0831545
-0.0803063
-0.077143
-0.0737542
-0.0702299
-0.0666498
-0.0630675
-0.0594948
-0.0558905
-0.0521684
-0.0482489
-0.0441797
-0.0403127
-0.0374213
-0.0364863
-0.037424
-0.0264245
-0.0261715
-0.0263996
-0.0274164
-0.0293663
-0.0323093
-0.0362218
-0.0409889
-0.0464066
-0.0522067
-0.0580997
-0.0638165
-0.0691382
-0.0739058
-0.0780168
-0.081414
-0.0840719
-0.0859866
-0.0871676
-0.0876337
-0.0874114
-0.0865348
-0.0850461
-0.0829978
-0.0804533
-0.0774882
-0.074189
-0.0706507
-0.0669704
-0.0632367
-0.0595162
-0.055837
-0.0521775
-0.0484704
-0.0446468
-0.0407451
-0.0370737
-0.0343147
-0.0333939
-0.0343664
-0.0264173
-0.0260974
-0.0260877
-0.0266746
-0.0280673
-0.0304072
-0.0337374
-0.0379921
-0.0430009
-0.0485142
-0.0542452
-0.0599132
-0.0652771
-0.0701511
-0.0744058
-0.0779605
-0.0807714
-0.0828211
-0.0841105
-0.0846535
-0.084474
-0.0836053
-0.0820903
-0.0799827
-0.0773477
-0.0742629
-0.0708176
-0.0671095
-0.0632392
-0.0593007
-0.0553677
-0.051479
-0.0476263
-0.0437573
-0.0398147
-0.0358455
-0.0321667
-0.0294447
-0.0285447
-0.0295583
-0.0262745
-0.0259095
-0.0256574
-0.0257672
-0.0265257
-0.0281792
-0.0308559
-0.0345449
-0.0391083
-0.0443112
-0.0498663
-0.0554799
-0.0608882
-0.065878
-0.0702922
-0.0740253
-0.0770135
-0.0792247
-0.0806497
-0.0812962
-0.0811849
-0.0803475
-0.0788269
-0.0766771
-0.0739642
-0.0707661
-0.067172
-0.0632793
-0.059188
-0.0549914
-0.0507643
-0.0465482
-0.0423399
-0.0380929
-0.0337548
-0.029383
-0.0253418
-0.0223911
-0.0214146
-0.0224094
-0.0260419
-0.025652
-0.0251489
-0.0247326
-0.0247828
-0.0256749
-0.0276382
-0.0307223
-0.0348178
-0.039699
-0.0450735
-0.0506326
-0.0560894
-0.0612038
-0.0657915
-0.0697218
-0.0729105
-0.0753097
-0.0768991
-0.0776793
-0.0776666
-0.0768908
-0.0753937
-0.0732286
-0.0704603
-0.067165
-0.0634283
-0.0593428
-0.0550017
-0.0504911
-0.0458777
-0.0411958
-0.0364355
-0.0315423
-0.0264536
-0.0212221
-0.0162688
-0.012561
-0.0111936
-0.011955
-0.025768
-0.0253662
-0.0245899
-0.0235914
-0.0228657
-0.0229377
-0.0241498
-0.0266123
-0.0302389
-0.034805
-0.0400079
-0.0455209
-0.0510347
-0.0562834
-0.0610569
-0.0652009
-0.0686107
-0.0712227
-0.0730052
-0.0739508
-0.0740711
-0.0733927
-0.0719553
-0.0698098
-0.0670179
-0.0636503
-0.0597851
-0.055504
-0.0508862
-0.046001
-0.0408959
-0.0355838
-0.030031
-0.0241556
-0.0178606
-0.0111632
-0.00450883
0.000857148
0.00332517
0.00331107
-0.0255124
-0.0250934
-0.0239938
-0.0223437
-0.0207852
-0.0200063
-0.0204631
-0.0223204
-0.0255052
-0.0297853
-0.034842
-0.0403285
-0.0459134
-0.0513076
-0.0562779
-0.0606484
-0.0642961
-0.0671422
-0.0691438
-0.0702855
-0.0705734
-0.0700302
-0.0686918
-0.0666052
-0.0638257
-0.0604154
-0.0564394
-0.0519618
-0.0470396
-0.0417134
-0.0359963
-0.0298606
-0.0232238
-0.015946
-0.00786223
0.00108965
0.0105123
0.0189144
0.0238245
0.0255629
-0.0253701
-0.0248848
-0.0233638
-0.0209738
-0.0185435
-0.0169232
-0.0166666
-0.017976
-0.0207788
-0.0248264
-0.0297791
-0.0352693
-0.0409448
-0.0464967
-0.0516722
-0.0562775
-0.0601734
-0.0632681
-0.065508
-0.0668701
-0.0673543
-0.0669786
-0.0657738
-0.0637805
-0.0610453
-0.0576175
-0.0535445
-0.0488664
-0.0436078
-0.0377676
-0.0313059
-0.0241269
-0.0160639
-0.00687339
0.00373111
0.0159478
0.0295223
0.0428896
0.0524859
0.0576957
-0.0255336
-0.0248316
-0.0227126
-0.0194721
-0.0161567
-0.0137542
-0.0128785
-0.0137416
-0.0162546
-0.0201449
-0.0250494
-0.0305802
-0.0363677
-0.042087
-0.0474702
-0.0523093
-0.0564523
-0.0597964
-0.0622791
-0.0638699
-0.0645627
-0.0643698
-0.0633158
-0.0614334
-0.0587583
-0.0553242
-0.0511567
-0.0462654
-0.0406335
-0.0342038
-0.0268606
-0.0184075
-0.00854496
0.00313997
0.0171388
0.0338781
0.0533558
0.0742236
0.0919897
0.10345
-0.0264509
-0.0251438
-0.0221225
-0.0178894
-0.0137006
-0.0106214
-0.0092669
-0.00982006
-0.0121575
-0.0159765
-0.0208909
-0.0264956
-0.0324079
-0.0382917
-0.0438688
-0.0489214
-0.0532885
-0.0568589
-0.0595629
-0.0613638
-0.06225
-0.0622279
-0.0613157
-0.0595374
-0.0569164
-0.0534694
-0.049197
-0.0440738
-0.0380333
-0.0309483
-0.0226053
-0.0126717
-0.00066129
0.0140913
0.0324051
0.0551066
0.082641
0.114253
0.145486
0.168173
-0.0292242
-0.0263256
-0.0218874
-0.0164512
-0.0113893
-0.00774547
-0.00605696
-0.00643271
-0.0086963
-0.0125111
-0.0174704
-0.0231567
-0.0291799
-0.035198
-0.0409278
-0.0461461
-0.0506867
-0.0544331
-0.0573107
-0.0592781
-0.0603189
-0.0604343
-0.0596362
-0.0579396
-0.0553558
-0.0518832
-0.0474966
-0.0421327
-0.0356705
-0.0279047
-0.0185099
-0.00699287
0.00736158
0.0255489
0.0488594
0.0788005
0.116737
0.163194
0.21596
0.261438
-0.0365564
-0.0290634
-0.0221945
-0.0152282
-0.00930946
-0.00523428
-0.00335073
-0.00365368
-0.00590601
-0.0097417
-0.0147413
-0.020483
-0.0265757
-0.0326771
-0.0385035
-0.0438302
-0.0484885
-0.0523589
-0.0553634
-0.0574567
-0.0586183
-0.0588445
-0.058141
-0.0565147
-0.0539649
-0.0504736
-0.0459913
-0.04042
-0.0335888
-0.0252201
-0.0148849
-0.00193877
0.0145566
0.0359441
0.0640745
0.101449
0.151195
0.217065
0.302848
0.403155
-0.0585775
-0.0311593
-0.0201372
-0.0125743
-0.00670625
-0.00278731
-0.00104551
-0.00145231
-0.00377426
-0.00765631
-0.0126906
-0.0184652
-0.024596
-0.0307457
-0.0366323
-0.0420316
-0.0467735
-0.0507365
-0.0538395
-0.0560341
-0.0572966
-0.0576191
-0.0570027
-0.0554482
-0.0529469
-0.0494697
-0.0449516
-0.0392724
-0.0322302
-0.0235034
-0.0125999
0.00121643
0.019026
0.042412
0.0736942
0.116429
0.176374
0.264425
0.403351
0.656734
