# vtk DataFile Version 2.0
u_velocity
ASCII
DATASET RECTILINEAR_GRID
DIMENSIONS 42 41 1
X_COORDINATES 42 double
0 0.0162584 0.0484728 0.0800925 0.111137 0.141626 0.171579 0.201014 0.229949 0.258404 0.286394 0.313939 0.341055 0.367758 0.394067 0.419997 0.445565 0.470786 0.495676 0.520251 0.544526 0.568516 0.592237 0.615703 0.638929 0.661929 0.684717 0.707309 0.729718 0.751958 0.774042 0.795986 0.817802 0.839504 0.861106 0.882621 0.904062 0.925444 0.946779 0.968081 0.989362 1 
Y_COORDINATES 41 double
0 0.025 0.05 0.075 0.1 0.125 0.15 0.175 0.2 0.225 0.25 0.275 0.3 0.325 0.35 0.375 0.4 0.425 0.45 0.475 0.5 0.525 0.55 0.575 0.6 0.625 0.65 0.675 0.7 0.725 0.75 0.775 0.8 0.825 0.85 0.875 0.9 0.925 0.95 0.975 1 
Z_COORDINATES 1 double
0.0

CELL_DATA 1640
SCALARS u_velocity double 1
LOOKUP_TABLE default
0
0.000476579
0.000962743
0.0011001
0.000824863
0.000162793
-0.000857414
-0.0022228
-0.00392785
-0.00595926
-0.00828242
-0.0108327
-0.0135123
-0.0161917
-0.018717
-0.0209206
-0.0226354
-0.023711
-0.0240297
-0.0235209
-0.0221713
-0.0200307
-0.0172109
-0.0138782
-0.0102391
-0.0065217
-0.00295333
0.000261164
0.00295836
0.00502921
0.00642427
0.0071509
0.00726369
0.00685098
0.00602101
0.004892
0.00359014
0.00225796
0.00107164
0.000251146
0
0
0.000653415
0.00102313
0.000504294
-0.00103667
-0.00358203
-0.00708816
-0.0115119
-0.0167938
-0.0228309
-0.0294545
-0.0364215
-0.04342
-0.0500887
-0.0560447
-0.0609174
-0.0643809
-0.0661829
-0.0661655
-0.0642777
-0.0605802
-0.0552407
-0.0485239
-0.0407739
-0.032392
-0.0238094
-0.0154573
-0.00773574
-0.000984304
0.00454157
0.00868614
0.0113982
0.0127251
0.0127981
0.0118126
0.0100111
0.00767186
0.00511029
0.00268814
0.000823761
0
0
0.000311453
-0.000236783
-0.00217316
-0.00561453
-0.0105508
-0.0169327
-0.0246748
-0.0336286
-0.0435536
-0.0541045
-0.0648399
-0.0752521
-0.0848103
-0.0930087
-0.0994084
-0.103668
-0.105562
-0.104988
-0.101962
-0.0966127
-0.089174
-0.0799694
-0.0694
-0.0579272
-0.0460513
-0.0342861
-0.0231291
-0.0130293
-0.00435694
0.0026219
0.00776172
0.0110423
0.0125617
0.0125211
0.0112052
0.00896522
0.0062094
0.00340557
0.00110267
0
0
-0.000387055
-0.00244369
-0.00638776
-0.0122346
-0.0199582
-0.0294907
-0.0406819
-0.0532622
-0.0668262
-0.080845
-0.0947068
-0.107775
-0.119449
-0.129213
-0.136661
-0.141514
-0.14361
-0.142897
-0.139423
-0.133323
-0.12482
-0.114214
-0.101887
-0.0882903
-0.0739379
-0.0593842
-0.0451977
-0.0319255
-0.0200549
-0.0099761
-0.00195286
0.00389493
0.00759409
0.00930809
0.00931824
0.00800261
0.00581988
0.00330643
0.00109842
0
0
-0.00134526
-0.00534023
-0.0117137
-0.0203126
-0.0310677
-0.0438694
-0.0584767
-0.0744792
-0.0913081
-0.108286
-0.124702
-0.139884
-0.153256
-0.164366
-0.172887
-0.178603
-0.181391
-0.181207
-0.178073
-0.172075
-0.163368
-0.152181
-0.138829
-0.123716
-0.107336
-0.0902658
-0.0731353
-0.0565959
-0.0412702
-0.0276999
-0.0162984
-0.00731626
-0.000826645
0.00327106
0.00523199
0.00544004
0.00438434
0.00264724
0.00091253
0
0
-0.00249606
-0.00871714
-0.0177728
-0.0292971
-0.0431548
-0.0591705
-0.076993
-0.0960722
-0.115709
-0.135144
-0.153647
-0.170591
-0.185476
-0.197934
-0.207707
-0.214618
-0.218553
-0.219446
-0.217271
-0.212045
-0.203833
-0.192766
-0.179056
-0.163019
-0.145086
-0.125812
-0.105864
-0.0859876
-0.0669542
-0.0494912
-0.034209
-0.0215395
-0.0116986
-0.0046799
-0.000273805
0.0018985
0.00234869
0.00169405
0.000644462
0
0
-0.00377502
-0.0123702
-0.0241926
-0.0386409
-0.0554972
-0.0745019
-0.0951882
-0.116889
-0.138827
-0.160226
-0.1804
-0.198796
-0.215001
-0.228717
-0.239736
-0.247913
-0.253148
-0.255366
-0.254513
-0.250547
-0.243447
-0.233229
-0.219969
-0.203837
-0.185135
-0.164322
-0.142029
-0.119048
-0.0962831
-0.0746696
-0.0550721
-0.0381796
-0.024428
-0.0139657
-0.00666568
-0.00217087
4.94174e-05
0.000648822
0.000366973
0
0
-0.00510717
-0.016082
-0.0305929
-0.047798
-0.0673861
-0.0890038
-0.112078
-0.135858
-0.159537
-0.182365
-0.203719
-0.223122
-0.24023
-0.254808
-0.26671
-0.275849
-0.282176
-0.285653
-0.286233
-0.28385
-0.278413
-0.26982
-0.257988
-0.242892
-0.224621
-0.203437
-0.179824
-0.15451
-0.128459
-0.10279
-0.0786575
-0.0570977
-0.038881
-0.0244191
-0.0137468
-0.00657002
-0.00234948
-0.000385408
0.000116927
0
0
-0.00640476
-0.0196222
-0.036593
-0.05624
-0.0781523
-0.101881
-0.126764
-0.151998
-0.176777
-0.200389
-0.222267
-0.241997
-0.259302
-0.274029
-0.286127
-0.295613
-0.302535
-0.306936
-0.308821
-0.308134
-0.304748
-0.298467
-0.289053
-0.276264
-0.259921
-0.239989
-0.216668
-0.19047
-0.16226
-0.133233
-0.1048
-0.0784003
-0.0552684
-0.0362399
-0.0216521
-0.0113652
-0.00486826
-0.00140973
-0.000104602
0
0
-0.00757226
-0.0227597
-0.0418305
-0.0634812
-0.0871968
-0.112437
-0.138467
-0.164452
-0.189594
-0.213216
-0.234799
-0.253989
-0.270599
-0.284592
-0.296049
-0.305123
-0.311992
-0.316803
-0.319642
-0.320501
-0.319258
-0.315675
-0.309402
-0.300013
-0.287062
-0.270168
-0.249137
-0.224093
-0.195593
-0.164694
-0.132911
-0.102036
-0.0738547
-0.0498045
-0.0307331
-0.0168197
-0.00767193
-0.00250765
-0.000324093
0
0
-0.00851513
-0.0252799
-0.0459836
-0.0691057
-0.0940217
-0.120106
-0.146564
-0.172542
-0.197252
-0.220045
-0.240454
-0.258213
-0.273254
-0.285684
-0.295737
-0.303709
-0.309899
-0.314562
-0.317868
-0.319878
-0.320517
-0.319565
-0.316643
-0.311226
-0.302672
-0.290295
-0.27348
-0.251846
-0.225438
-0.194899
-0.161558
-0.127359
-0.0945778
-0.0653805
-0.0413615
-0.0232664
-0.0109933
-0.00380456
-0.000581961
0
0
-0.00914981
-0.0270019
-0.048793
-0.0727917
-0.0982585
-0.124489
-0.150644
-0.175858
-0.199356
-0.220532
-0.238998
-0.254603
-0.267426
-0.27773
-0.285888
-0.292313
-0.297397
-0.301468
-0.304761
-0.307403
-0.309391
-0.310572
-0.310624
-0.309035
-0.305104
-0.297963
-0.286665
-0.270334
-0.248389
-0.220811
-0.188398
-0.15287
-0.116736
-0.0828446
-0.0537178
-0.0309659
-0.0150462
-0.00542345
-0.00091843
0
0
-0.00941274
-0.0277931
-0.0500776
-0.0743301
-0.0996897
-0.125383
-0.150543
-0.174305
-0.19593
-0.214882
-0.23088
-0.243919
-0.254233
-0.262221
-0.268363
-0.273141
-0.276985
-0.280252
-0.283204
-0.286007
-0.288723
-0.291292
-0.293506
-0.29497
-0.295061
-0.292913
-0.287429
-0.277385
-0.261623
-0.239361
-0.210572
-0.17632
-0.13889
-0.101512
-0.0676341
-0.0399953
-0.0199588
-0.00745222
-0.00136387
0
0
-0.00926715
-0.0275784
-0.0497449
-0.0736333
-0.0982576
-0.12279
-0.146356
-0.16812
-0.187407
-0.203782
-0.217104
-0.227519
-0.235399
-0.241244
-0.245588
-0.248927
-0.251682
-0.254185
-0.256682
-0.259347
-0.262278
-0.2655
-0.268931
-0.272344
-0.275303
-0.277102
-0.276712
-0.2728
-0.263839
-0.24838
-0.225471
-0.195183
-0.159046
-0.120134
-0.0825301
-0.0501903
-0.0257396
-0.00992937
-0.00193565
0
0
-0.00870657
-0.0263443
-0.0477918
-0.0707337
-0.0940578
-0.1169
-0.138409
-0.157809
-0.174521
-0.18824
-0.198971
-0.206999
-0.212798
-0.216918
-0.219898
-0.2222
-0.224192
-0.226147
-0.228265
-0.230693
-0.233538
-0.236874
-0.240724
-0.245025
-0.249565
-0.253888
-0.257207
-0.258321
-0.255627
-0.247272
-0.231519
-0.207337
-0.175095
-0.137087
-0.0974472
-0.061135
-0.0322692
-0.0128428
-0.00263929
0
0
-0.00775501
-0.0241369
-0.044299
-0.0657706
-0.0873169
-0.108059
-0.127198
-0.144053
-0.158165
-0.169369
-0.177807
-0.183868
-0.188078
-0.190991
-0.193104
-0.194814
-0.196412
-0.198101
-0.200016
-0.202262
-0.204927
-0.2081
-0.211867
-0.216287
-0.221341
-0.226842
-0.232318
-0.236876
-0.239103
-0.237075
-0.228582
-0.211652
-0.185357
-0.150711
-0.111187
-0.0721931
-0.0393043
-0.0161317
-0.00346996
0
0
-0.00646392
-0.0210556
-0.0394182
-0.0589696
-0.0783591
-0.096713
-0.113314
-0.127598
-0.139243
-0.148217
-0.154765
-0.159336
-0.16246
-0.164651
-0.166337
-0.167835
-0.169355
-0.171027
-0.17293
-0.175119
-0.177653
-0.180608
-0.184091
-0.188226
-0.193124
-0.198817
-0.205142
-0.21158
-0.21708
-0.219941
-0.217846
-0.208226
-0.189006
-0.159713
-0.122538
-0.0825874
-0.0464942
-0.0196888
-0.0044125
0
0
-0.00490682
-0.0172427
-0.0333565
-0.0506169
-0.0675687
-0.0833567
-0.0973662
-0.109168
-0.11857
-0.125651
-0.130723
-0.134243
-0.136705
-0.138553
-0.140132
-0.141677
-0.143328
-0.145156
-0.147194
-0.149457
-0.151972
-0.154792
-0.158009
-0.161763
-0.166229
-0.171577
-0.177884
-0.18498
-0.192244
-0.198377
-0.201278
-0.198172
-0.186188
-0.163455
-0.130547
-0.0915308
-0.0534186
-0.0233655
-0.00544086
0
0
-0.00317234
-0.0128721
-0.0263588
-0.0410349
-0.0553552
-0.0684894
-0.0799354
-0.0893992
-0.0968092
-0.102322
-0.106272
-0.109088
-0.111192
-0.112944
-0.114602
-0.116331
-0.118214
-0.120283
-0.122539
-0.124974
-0.127588
-0.130406
-0.133494
-0.136972
-0.141022
-0.145873
-0.15175
-0.158753
-0.166655
-0.174636
-0.181013
-0.18316
-0.177815
-0.162023
-0.134709
-0.098382
-0.0596512
-0.0269884
-0.00651942
0
0
-0.00135673
-0.00813761
-0.0186926
-0.0305608
-0.0421268
-0.0525827
-0.0615364
-0.0688224
-0.0744682
-0.0786759
-0.081768
-0.0841093
-0.0860368
-0.0878159
-0.0896277
-0.0915768
-0.0937093
-0.0960327
-0.0985339
-0.101193
-0.103995
-0.106943
-0.110073
-0.11347
-0.117285
-0.121747
-0.127141
-0.133733
-0.141606
-0.150389
-0.158914
-0.164945
-0.165213
-0.156076
-0.135021
-0.102769
-0.0648364
-0.0303847
-0.00760701
0
0
0.000443514
-0.00324191
-0.0106353
-0.0195313
-0.0282731
-0.0360645
-0.0426103
-0.0478584
-0.0519136
-0.0549963
-0.0573894
-0.0593772
-0.0612007
-0.063036
-0.0649946
-0.0671352
-0.0694792
-0.0720244
-0.0747556
-0.0776521
-0.0806947
-0.0838733
-0.0871985
-0.0907185
-0.0945407
-0.098854
-0.103937
-0.110129
-0.11771
-0.126674
-0.13636
-0.145055
-0.149774
-0.14659
-0.131891
-0.104631
-0.0687534
-0.0334132
-0.00866327
0
0
0.0021382
0.00161264
-0.0024648
-0.00827434
-0.0141575
-0.0193159
-0.0235289
-0.0268385
-0.0294073
-0.0314551
-0.0332101
-0.0348692
-0.0365783
-0.0384309
-0.0404785
-0.0427445
-0.0452352
-0.0479469
-0.0508701
-0.0539912
-0.0572943
-0.0607654
-0.0643998
-0.068216
-0.0722769
-0.0767171
-0.0817697
-0.0877692
-0.0950933
-0.103986
-0.114221
-0.12464
-0.132727
-0.134614
-0.125971
-0.104177
-0.0713475
-0.0359902
-0.00965584
0
0
0.00364893
0.00623176
0.00554583
0.0028944
-0.0001175
-0.00267709
-0.00461006
-0.00603085
-0.00714499
-0.0081622
-0.00925298
-0.01053
-0.0120511
-0.0138361
-0.015885
-0.0181926
-0.0207549
-0.0235708
-0.0266395
-0.0299584
-0.0335203
-0.0373148
-0.0413314
-0.0455701
-0.0500582
-0.0548777
-0.0601988
-0.0663071
-0.0735916
-0.0824351
-0.0929384
-0.104452
-0.115026
-0.121099
-0.117992
-0.101796
-0.0727195
-0.0381061
-0.0105671
0
0
0.00491319
0.0104356
0.0131322
0.0136699
0.013529
0.0135409
0.0138633
0.0143319
0.0147084
0.0147933
0.0144667
0.0136893
0.0124791
0.0108803
0.00893744
0.0066812
0.00412459
0.00126672
-0.00190055
-0.00538597
-0.00919391
-0.0133221
-0.0177625
-0.0225073
-0.0275613
-0.0329642
-0.038824
-0.045356
-0.0529044
-0.0618952
-0.072638
-0.084906
-0.0973221
-0.106806
-0.108641
-0.0979485
-0.0730855
-0.0398274
-0.0113998
0
0
0.00588693
0.0140644
0.0200405
0.0237544
0.0264751
0.0290425
0.0316236
0.034027
0.035988
0.0373104
0.03791
0.0378034
0.0370691
0.0358044
0.0340931
0.0319902
0.0295195
0.0266811
0.0234608
0.01984
0.0158029
0.0113411
0.00645479
0.0011508
-0.00456518
-0.0107046
-0.017324
-0.0245657
-0.0326988
-0.0421214
-0.0532446
-0.0661538
-0.0800002
-0.0922763
-0.0984839
-0.0930889
-0.0727241
-0.041289
-0.0121814
0
0
0.00654523
0.0169825
0.0260302
0.0328534
0.0384151
0.0435334
0.0484015
0.0528212
0.0565062
0.0592522
0.0609907
0.0617725
0.0617181
0.0609659
0.0596338
0.0578006
0.0555045
0.0527508
0.0495239
0.0457989
0.0415505
0.0367591
0.0314147
0.0255172
0.0190732
0.0120865
0.00453755
-0.00365154
-0.0126647
-0.0228281
-0.0345664
-0.0481646
-0.0632221
-0.0778372
-0.0879254
-0.0875959
-0.0719244
-0.0426792
-0.0129701
0
0
0.006881
0.0190824
0.0308764
0.0406725
0.0490355
0.0567088
0.0639121
0.0704563
0.0760368
0.0804291
0.0835585
0.0854854
0.086352
0.086324
0.0855463
0.0841214
0.0821047
0.079512
0.0763319
0.0725375
0.0680975
0.0629829
0.0571732
0.0506585
0.0434403
0.0355276
0.0269243
0.0176036
0.00746252
-0.00373074
-0.0163516
-0.0307831
-0.0469752
-0.063621
-0.0771967
-0.081733
-0.0709409
-0.0442225
-0.0138651
0
0
0.00690118
0.0202853
0.0343732
0.046917
0.0580088
0.0682438
0.0778459
0.0866401
0.0943066
0.10059
0.105388
0.108747
0.110808
0.111749
0.111733
0.110884
0.109275
0.106939
0.103873
0.100054
0.0954487
0.0900224
0.0837455
0.0765985
0.0685752
0.0596836
0.049941
0.039358
0.027902
0.0154395
0.0016836
-0.0137644
-0.0311046
-0.0495832
-0.0663463
-0.0756129
-0.0699501
-0.0461614
-0.0150237
0
0
0.00662009
0.0205377
0.0363364
0.0512936
0.0649913
0.0777883
0.0898633
0.101044
0.110995
0.119422
0.126177
0.131271
0.134823
0.137006
0.13799
0.137914
0.136873
0.134915
0.132052
0.12827
0.123539
0.117824
0.111089
0.103307
0.0944661
0.0845701
0.0736443
0.0617258
0.0488392
0.0349425
0.0198537
0.0032177
-0.015323
-0.0355055
-0.0552257
-0.0691598
-0.0690002
-0.0487293
-0.016688
0
0
0.00604865
0.0197986
0.0365995
0.0535133
0.0696255
0.0849676
0.0995961
0.113308
0.12574
0.136556
0.145551
0.152681
0.158028
0.161741
0.163986
0.16491
0.164624
0.163195
0.160651
0.156992
0.152199
0.146238
0.139076
0.130681
0.121039
0.110151
0.0980507
0.0847943
0.0704508
0.055055
0.038528
0.0205913
0.000807907
-0.0209755
-0.043457
-0.0620524
-0.0679359
-0.0520982
-0.0192105
0
0
0.0051765
0.0180132
0.0349996
0.0532922
0.071548
0.0893904
0.106654
0.123045
0.138152
0.151584
0.163078
0.172527
0.179958
0.185485
0.189259
0.191426
0.192105
0.191381
0.189302
0.185884
0.181121
0.174992
0.167468
0.158523
0.148145
0.136342
0.123154
0.108656
0.0929483
0.0761241
0.0581879
0.0389444
0.0179331
-0.00533293
-0.030372
-0.0536364
-0.0662783
-0.0562709
-0.0230526
0
0
0.00394096
0.0150611
0.0313414
0.0503435
0.0704007
0.0906664
0.110644
0.129864
0.147827
0.164081
0.178296
0.190303
0.200071
0.207671
0.213227
0.216874
0.218738
0.218914
0.217471
0.214443
0.209843
0.203668
0.195904
0.18654
0.175576
0.163035
0.148971
0.133474
0.116664
0.0986662
0.0795348
0.0591366
0.037015
0.0124347
-0.0149111
-0.0427974
-0.0630394
-0.0608765
-0.0287025
0
0
0.00217144
0.0106715
0.0253315
0.0443542
0.0658426
0.0884342
0.111195
0.13339
0.154378
0.173623
0.190736
0.205485
0.217787
0.227666
0.235215
0.240556
0.243811
0.245087
0.244469
0.242014
0.237761
0.231732
0.223941
0.214404
0.203146
0.190214
0.175679
0.159642
0.142227
0.123556
0.103685
0.0824964
0.0595282
0.0338741
0.00453794
-0.0277872
-0.0564619
-0.0648264
-0.0364376
0
0
-0.000506888
0.00429564
0.0164824
0.0349457
0.0575595
0.0823983
0.108008
0.133306
0.157458
0.179825
0.199953
0.217561
0.232518
0.244811
0.254505
0.261705
0.266532
0.269104
0.269526
0.267884
0.264252
0.258689
0.25125
0.241989
0.230968
0.218258
0.203948
0.188136
0.170921
0.152383
0.13252
0.11116
0.087789
0.0613772
0.0304043
-0.00599386
-0.043697
-0.0658147
-0.0458671
0
0
-0.00482471
-0.00504891
0.00401173
0.0216349
0.0452785
0.072379
0.100915
0.129415
0.156819
0.182371
0.205557
0.226055
0.243707
0.258475
0.270406
0.279602
0.286192
0.290312
0.292097
0.291673
0.289156
0.284653
0.278265
0.270086
0.26021
0.248727
0.235721
0.221265
0.205401
0.188118
0.1693
0.14864
0.125496
0.0987006
0.0663887
0.026394
-0.0204422
-0.0596842
-0.055246
0
0
-0.0120499
-0.0188561
-0.01316
0.00384817
0.0287836
0.0583296
0.0898995
0.121651
0.152317
0.181042
0.207267
0.230657
0.251051
0.26841
0.282792
0.29431
0.303115
0.30937
0.313244
0.314902
0.314497
0.312174
0.308062
0.302281
0.294931
0.286096
0.275831
0.264153
0.251019
0.236296
0.219706
0.20075
0.17857
0.151782
0.118252
0.0749894
0.0195134
-0.0396412
-0.0605457
0
0
-0.0239191
-0.0384792
-0.0355259
-0.018215
0.00870856
0.0411237
0.0759773
0.111167
0.145297
0.177459
0.207088
0.233861
0.25763
0.278374
0.296161
0.311117
0.323401
0.33319
0.340663
0.345995
0.349349
0.350874
0.3507
0.34894
0.345678
0.340969
0.334824
0.327196
0.317951
0.306833
0.293402
0.276945
0.256338
0.229883
0.195068
0.148425
0.0851562
0.00501941
-0.0538444
0
0
-0.0405971
-0.0596169
-0.0545089
-0.0327052
-0.000761179
0.0366412
0.0763555
0.116315
0.155178
0.192087
0.22651
0.258142
0.286842
0.312582
0.335413
0.355442
0.372808
0.387667
0.400182
0.410511
0.418807
0.425208
0.429838
0.432795
0.434154
0.433949
0.432165
0.428713
0.423403
0.415894
0.405622
0.391709
0.372787
0.346839
0.310846
0.260693
0.190502
0.0919137
-0.0187097
0
0
-0.0449833
-0.0373619
-0.00409718
0.0389384
0.0855453
0.133008
0.179875
0.225238
0.268483
0.309191
0.347084
0.382
0.413867
0.442687
0.468519
0.491466
0.51166
0.529252
0.544404
0.557279
0.568035
0.576822
0.583773
0.589001
0.592589
0.594578
0.594954
0.593626
0.590387
0.584871
0.576476
0.564268
0.546798
0.521921
0.486335
0.43527
0.361153
0.25352
0.0867163
0
0
0.159917
0.288561
0.379459
0.447178
0.500958
0.545964
0.585041
0.619746
0.65092
0.679024
0.704318
0.726969
0.747106
0.764854
0.780342
0.793713
0.805117
0.814709
0.822647
0.829082
0.834157
0.838004
0.840737
0.842447
0.8432
0.843022
0.841895
0.83973
0.836352
0.831453
0.824562
0.814929
0.801488
0.782541
0.755687
0.716612
0.658396
0.564029
0.395915
0
