# vtk DataFile Version 2.0
v_velocity
ASCII
DATASET RECTILINEAR_GRID
DIMENSIONS 41 42 1
X_COORDINATES 41 double
0 0.0325168 0.0644289 0.0957562 0.126518 0.156734 0.186424 0.215604 0.244295 0.272513 0.300276 0.327602 0.354507 0.38101 0.407125 0.43287 0.45826 0.483312 0.50804 0.532462 0.556591 0.580442 0.604032 0.627374 0.650483 0.673374 0.696061 0.718557 0.740878 0.763037 0.785048 0.806924 0.82868 0.850328 0.871883 0.893358 0.914766 0.936121 0.957436 0.978725 1 
Y_COORDINATES 42 double
0 0.0125 0.0375 0.0625 0.0875 0.1125 0.1375 0.1625 0.1875 0.2125 0.2375 0.2625 0.2875 0.3125 0.3375 0.3625 0.3875 0.4125 0.4375 0.4625 0.4875 0.5125 0.5375 0.5625 0.5875 0.6125 0.6375 0.6625 0.6875 0.7125 0.7375 0.7625 0.7875 0.8125 0.8375 0.8625 0.8875 0.9125 0.9375 0.9625 0.9875 1 
Z_COORDINATES 1 double
0.0

CELL_DATA 1640
SCALARS v_velocity double 1
LOOKUP_TABLE default
0
0
0
0
0
0
0
0
0
0
0
0
0
0
0
0
0
0
0
0
0
0
0
0
0
0
0
0
0
0
0
0
0
0
0
0
0
0
0
0
-0.000366516
-0.000380862
-0.000109611
0.000223678
0.000547778
0.000859075
0.00116978
0.00148574
0.00179974
0.00209193
0.00233323
0.00248975
0.00252754
0.00241746
0.00213983
0.00168844
0.00107339
0.00032224
-0.000520905
-0.00139832
-0.00224362
-0.00298835
-0.00356943
-0.00393681
-0.00405995
-0.00393225
-0.00357219
-0.00302095
-0.00233638
-0.00158453
-0.000830378
-0.000129617
0.000476602
0.000962627
0.00131433
0.00152028
0.00155956
0.00139141
0.000963543
0.000295117
-0.000868883
-0.000670499
0.000304435
0.001476
0.00265374
0.00381145
0.0049597
0.00608825
0.00714837
0.00805632
0.00870721
0.00899261
0.00881817
0.00811911
0.00687156
0.00509877
0.00287169
0.000304579
-0.00245338
-0.00522934
-0.0078401
-0.0101067
-0.0118699
-0.0130045
-0.0134334
-0.013136
-0.012153
-0.0105828
-0.00857079
-0.00629198
-0.00392969
-0.00165442
0.000392385
0.00210557
0.0034116
0.00425193
0.00455837
0.00423229
0.00315296
0.0012631
-0.00110834
-0.00024101
0.00184971
0.00427276
0.00673789
0.00918538
0.0115926
0.0138903
0.0159415
0.0175571
0.0185289
0.0186673
0.0178346
0.0159674
0.0130861
0.00929301
0.00476213
-0.000276118
-0.00555157
-0.0107713
-0.0156368
-0.0198617
-0.0231899
-0.0254161
-0.0264036
-0.0261009
-0.0245516
-0.0218949
-0.0183551
-0.0142186
-0.00980343
-0.00542418
-0.00136227
0.00215263
0.0049435
0.00686774
0.00778456
0.00752085
0.00585737
0.00255882
-0.000810758
0.00137016
0.00499718
0.00902443
0.0131282
0.0172123
0.0211805
0.0248524
0.0279587
0.0301806
0.0312108
0.0308101
0.0288471
0.0253136
0.020319
0.0140712
0.00685383
-0.000996433
-0.00910819
-0.017091
-0.0245499
-0.0311014
-0.0363928
-0.040125
-0.0420785
-0.0421386
-0.0403167
-0.0367602
-0.0317478
-0.0256663
-0.0189723
-0.012144
-0.0056341
0.000164695
0.00493168
0.0084041
0.0103398
0.0104688
0.00845032
0.00384956
0.000223521
0.00449984
0.0100834
0.0160126
0.0220266
0.0279922
0.033695
0.0387966
0.0428684
0.0454691
0.0462294
0.0449167
0.0414612
0.0359491
0.028593
0.0196991
0.00963661
-0.00118234
-0.0123167
-0.0233055
-0.0336763
-0.0429569
-0.0506932
-0.0564747
-0.0599671
-0.06095
-0.0593534
-0.0552849
-0.0490385
-0.0410796
-0.0320019
-0.0224656
-0.0131284
-0.00458792
0.00264887
0.00816114
0.0115757
0.0125062
0.0104875
0.00492185
0.00214257
0.00937345
0.0173101
0.0253783
0.0334921
0.0414783
0.0489641
0.0554217
0.0602661
0.0629695
0.0631579
0.0606598
0.0555027
0.0478757
0.0380831
0.0265038
0.0135636
-0.000279701
-0.0145432
-0.0287206
-0.0422833
-0.0546856
-0.0653765
-0.0738243
-0.0795526
-0.0821892
-0.0815212
-0.0775471
-0.0705124
-0.0609143
-0.0494662
-0.0370245
-0.0244928
-0.0127283
-0.00248048
0.00562439
0.0110487
0.013274
0.0117201
0.00567915
0.00504494
0.016107
0.0267446
0.0371202
0.0474385
0.0574814
0.0666868
0.0743314
0.0797025
0.0822386
0.0816142
0.0777529
0.0707889
0.0610059
0.0487833
0.0345555
0.0187875
0.00196336
-0.0154165
-0.0328298
-0.049725
-0.065515
-0.0795787
-0.0912756
-0.0999779
-0.105125
-0.106295
-0.103287
-0.0961965
-0.0854631
-0.071862
-0.0564362
-0.0403732
-0.0248628
-0.0109788
0.000375469
0.00844945
0.012571
0.012051
0.00611037
0.0089715
0.0247047
0.0383246
0.0511026
0.0636452
0.0756848
0.0864551
0.0950528
0.100681
0.102795
0.101151
0.0957815
0.0869268
0.0749619
0.0603408
0.043554
0.0251012
0.00547836
-0.014822
-0.0352989
-0.0554241
-0.0746215
-0.0922513
-0.107607
-0.119932
-0.128469
-0.132536
-0.131638
-0.125588
-0.114619
-0.0994401
-0.0812111
-0.0614101
-0.041636
-0.0234029
-0.00800542
0.00350852
0.0102674
0.0114611
0.00624777
0.0138957
0.0350593
0.0518678
0.0670695
0.0817748
0.0956661
0.107773
0.117041
0.122634
0.124056
0.121167
0.114114
0.103251
0.0890606
0.0720891
0.0528939
0.0320087
0.00992757
-0.0128923
-0.0360105
-0.0589735
-0.0812777
-0.102334
-0.121442
-0.137781
-0.150433
-0.158452
-0.160981
-0.157415
-0.147588
-0.131932
-0.111548
-0.0881231
-0.0637057
-0.0403852
-0.0200182
-0.0040974
0.00621097
0.00992846
0.00612485
0.0197175
0.0469571
0.0670868
0.0846648
0.101396
0.11692
0.130073
0.139684
0.144909
0.145327
0.140912
0.131945
0.118919
0.102456
0.0832147
0.0618292
0.0388627
0.0147916
-0.00998556
-0.0351207
-0.060276
-0.0850756
-0.109053
-0.131599
-0.151926
-0.169049
-0.181823
-0.189032
-0.189569
-0.182683
-0.168255
-0.147026
-0.120668
-0.0915996
-0.0625872
-0.0362659
-0.0148065
0.000153889
0.00736421
0.00574402
0.0262642
0.0600906
0.0836089
0.103456
0.122011
0.138884
0.152741
0.162321
0.1668
0.165852
0.159584
0.148445
0.133108
0.114356
0.092977
0.0696784
0.04504
0.0195054
-0.0066009
-0.0330386
-0.0596057
-0.0860848
-0.112182
-0.137459
-0.161268
-0.182689
-0.200509
-0.213262
-0.219363
-0.21737
-0.206356
-0.186326
-0.158524
-0.125463
-0.0905488
-0.0573969
-0.0291744
-0.00827761
0.00357977
0.00506017
0.0332989
0.074076
0.100999
0.122959
0.143082
0.160972
0.175149
0.184292
0.187619
0.184921
0.176478
0.162945
0.145204
0.124219
0.100899
0.0760049
0.0501133
0.0236204
-0.00322931
-0.030301
-0.0575225
-0.0848332
-0.112126
-0.139178
-0.165562
-0.190558
-0.213064
-0.231554
-0.244123
-0.248692
-0.243398
-0.227152
-0.200251
-0.164772
-0.124457
-0.0839659
-0.0478115
-0.0195639
-0.00171068
0.00398094
0.0405357
0.0884752
0.118782
0.142669
0.164064
0.182607
0.196704
0.204998
0.206778
0.201986
0.191115
0.17506
0.154933
0.131867
0.106864
0.0807087
0.0539502
0.0269229
-0.000207766
-0.0273968
-0.0546757
-0.0821101
-0.109755
-0.137595
-0.165462
-0.192926
-0.219158
-0.242803
-0.261906
-0.273978
-0.276298
-0.266511
-0.243475
-0.208125
-0.163895
-0.116242
-0.071268
-0.0342326
-0.0088605
0.00237828
0.0476606
0.10282
0.136472
0.162083
0.184437
0.203265
0.216893
0.223963
0.223865
0.216731
0.203303
0.184738
0.162366
0.137462
0.111082
0.0839969
0.0566997
0.0294529
0.00234883
-0.0246366
-0.0516029
-0.0786958
-0.10608
-0.133902
-0.16223
-0.190944
-0.219591
-0.247185
-0.272016
-0.291537
-0.302478
-0.301316
-0.285207
-0.253256
-0.207672
-0.154007
-0.0998921
-0.052776
-0.0182479
0.000103737
0.0543545
0.116638
0.153588
0.180727
0.203735
0.2225
0.23532
0.240868
0.238671
0.229084
0.213121
0.192198
0.167836
0.141407
0.113976
0.0862636
0.058687
0.0314294
0.00451737
-0.0221212
-0.0486209
-0.0751608
-0.101957
-0.129249
-0.157272
-0.186179
-0.215903
-0.245937
-0.275055
-0.301027
-0.32048
-0.329105
-0.32244
-0.297338
-0.253818
-0.196412
-0.133685
-0.0755609
-0.0302303
-0.00299763
0.0603168
0.129471
0.169677
0.198177
0.221561
0.239966
0.251717
0.255555
0.251173
0.239173
0.220841
0.197829
0.171808
0.144195
0.116027
0.0879474
0.0602823
0.033136
0.00647833
-0.0197946
-0.0458276
-0.0717978
-0.0979217
-0.124467
-0.151753
-0.180118
-0.209818
-0.240831
-0.272542
-0.303331
-0.330185
-0.34856
-0.352806
-0.33752
-0.299831
-0.241947
-0.172187
-0.102739
-0.0450996
-0.00707511
0.0652865
0.140902
0.184331
0.214066
0.237604
0.255421
0.26594
0.268002
0.26149
0.247253
0.226832
0.202076
0.174755
0.146293
0.117664
0.0894219
0.0617993
0.0348267
0.00842617
-0.0175265
-0.043172
-0.0686652
-0.0941913
-0.119994
-0.146404
-0.173844
-0.202789
-0.233621
-0.266336
-0.300082
-0.332579
-0.359614
-0.375002
-0.371495
-0.343108
-0.288601
-0.214441
-0.134179
-0.0630392
-0.0122601
0.0690591
0.150566
0.19719
0.228094
0.251629
0.268716
0.277942
0.278286
0.26982
0.253629
0.231472
0.205347
0.177077
0.148062
0.119197
0.0909429
0.0634469
0.0366753
0.0105117
-0.0151814
-0.0405358
-0.0656771
-0.0907457
-0.115933
-0.141526
-0.16795
-0.195781
-0.225673
-0.258141
-0.293116
-0.329264
-0.363183
-0.388842
-0.397861
-0.381418
-0.334162
-0.259059
-0.169428
-0.0840889
-0.0186536
0.0714981
0.158165
0.207953
0.240021
0.263477
0.279776
0.287748
0.286532
0.276385
0.258593
0.235087
0.207963
0.179063
0.149739
0.120808
0.0926449
0.0653265
0.0387673
0.0128214
-0.0126587
-0.0377961
-0.0626905
-0.0874384
-0.11217
-0.137103
-0.162604
-0.18925
-0.21783
-0.249225
-0.284052
-0.321976
-0.360716
-0.395014
-0.416177
-0.413216
-0.376583
-0.3044
-0.207737
-0.108126
-0.0263144
0.0725412
0.163477
0.216376
0.249666
0.273047
0.28858
0.295419
0.292881
0.281387
0.262382
0.237916
0.210138
0.180881
0.151442
0.122567
0.094564
0.0674545
0.0411163
0.0153818
-0.00990379
-0.0348591
-0.0595659
-0.0840862
-0.108496
-0.132936
-0.157687
-0.183256
-0.210446
-0.240342
-0.274077
-0.312233
-0.353786
-0.394705
-0.426774
-0.437728
-0.414246
-0.348808
-0.248145
-0.134875
-0.0352533
0.0722002
0.166365
0.222276
0.256896
0.280279
0.295141
0.301027
0.297454
0.284979
0.265157
0.240105
0.211985
0.182601
0.153199
0.124469
0.0966717
0.0697937
0.0436894
0.0181777
-0.00690271
-0.0316701
-0.0561973
-0.0805248
-0.104688
-0.128762
-0.152934
-0.177607
-0.203512
-0.231789
-0.263895
-0.301163
-0.343794
-0.389256
-0.430466
-0.454839
-0.44608
-0.390809
-0.289595
-0.16394
-0.0454333
0.0705562
0.166776
0.22553
0.261617
0.285147
0.299485
0.304636
0.300338
0.287255
0.267001
0.241711
0.213527
0.184213
0.154972
0.126458
0.0989029
0.0722792
0.0464309
0.0211702
-0.003669
-0.0282079
-0.0525186
-0.0766323
-0.100559
-0.124327
-0.148041
-0.171992
-0.196793
-0.223526
-0.253795
-0.289466
-0.331822
-0.379916
-0.428278
-0.464901
-0.47153
-0.429243
-0.331064
-0.194866
-0.0567797
0.0677508
0.164753
0.226078
0.263772
0.287639
0.30164
0.306292
0.301576
0.288242
0.267917
0.242709
0.214714
0.185648
0.156681
0.128447
0.101175
0.0748363
0.0492776
0.0243117
-0.000230366
-0.0244745
-0.0484973
-0.0723304
-0.0959739
-0.119425
-0.14273
-0.166079
-0.189951
-0.215307
-0.24375
-0.277463
-0.318591
-0.367706
-0.421234
-0.468518
-0.490444
-0.463282
-0.371662
-0.227206
-0.0691968
0.0639734
0.160427
0.223926
0.263335
0.287756
0.30163
0.306016
0.301168
0.287909
0.267841
0.243007
0.215436
0.18679
0.158211
0.130334
0.103397
0.0773876
0.0521668
0.027554
0.00338087
-0.0204833
-0.0441224
-0.0675745
-0.0908408
-0.113905
-0.136776
-0.159567
-0.182635
-0.206791
-0.233539
-0.265186
-0.304494
-0.353368
-0.410235
-0.466381
-0.50293
-0.492389
-0.41067
-0.26059
-0.0825925
0.0594473
0.15402
0.219157
0.260316
0.285505
0.299468
0.303805
0.299074
0.286171
0.26665
0.242459
0.215535
0.187483
0.159422
0.131996
0.105467
0.0798532
0.0550364
0.0308507
0.00713237
-0.0162519
-0.0393938
-0.0623412
-0.0851029
-0.107663
-0.130011
-0.152211
-0.174524
-0.197615
-0.222836
-0.252475
-0.28966
-0.337378
-0.395997
-0.459155
-0.509231
-0.516229
-0.447539
-0.294772
-0.0969065
0.0544151
0.145844
0.211936
0.254771
0.280903
0.295158
0.299634
0.295222
0.282907
0.264178
0.240868
0.214809
0.187534
0.160142
0.133289
0.107272
0.0821446
0.0578203
0.034154
0.0109918
-0.0117989
-0.0343159
-0.0566172
-0.0787228
-0.100625
-0.122312
-0.143822
-0.165352
-0.187446
-0.211293
-0.239061
-0.274033
-0.319989
-0.379046
-0.44741
-0.509615
-0.534576
-0.48184
-0.329661
-0.112147
0.0491248
0.136285
0.202524
0.24681
0.273984
0.288697
0.293463
0.28952
0.277963
0.260222
0.238005
0.213018
0.186716
0.160169
0.134044
0.108675
0.0841571
0.0604414
0.0374095
0.0149231
-0.00714514
-0.0288956
-0.0503949
-0.0716751
-0.0927416
-0.113592
-0.134262
-0.154912
-0.176005
-0.198579
-0.224638
-0.25745
-0.30129
-0.35974
-0.431606
-0.504318
-0.54721
-0.513178
-0.365311
-0.12844
0.0438189
0.1258
0.191282
0.236616
0.264807
0.280078
0.285237
0.281857
0.27117
0.254564
0.233615
0.209897
0.184772
0.159268
0.13406
0.109512
0.085762
0.0628031
0.0405482
0.0188801
-0.00231803
-0.0231448
-0.0436722
-0.0639433
-0.083979
-0.103794
-0.123435
-0.143059
-0.16308
-0.184424
-0.208917
-0.239698
-0.281266
-0.338308
-0.412092
-0.493497
-0.553839
-0.541079
-0.401878
-0.146094
0.0387292
0.114897
0.178674
0.22446
0.253474
0.269302
0.274892
0.272114
0.262354
0.246976
0.227435
0.205165
0.181421
0.157179
0.133104
0.109586
0.086801
0.0647827
0.0434792
0.0227988
0.00264042
-0.0170877
-0.0364589
-0.0555253
-0.0743231
-0.0928887
-0.111293
-0.12971
-0.148541
-0.16864
-0.191674
-0.220581
-0.259855
-0.3149
-0.389134
-0.477225
-0.554026
-0.564854
-0.439505
-0.165704
0.0340788
0.104125
0.165267
0.210715
0.240143
0.256383
0.262359
0.260166
0.251339
0.237237
0.219206
0.198539
0.176378
0.153625
0.130924
0.108675
0.0870865
0.0662281
0.0460833
0.0265892
0.0076647
-0.0107707
-0.0287876
-0.0464441
-0.0637917
-0.0808913
-0.0978461
-0.114862
-0.132358
-0.151154
-0.172787
-0.199969
-0.237009
-0.289635
-0.362962
-0.45551
-0.547138
-0.58343
-0.478127
-0.188278
0.0300989
0.0940688
0.151711
0.195849
0.225038
0.241359
0.247568
0.245884
0.237955
0.225141
0.20869
0.18976
0.169368
0.148334
0.127259
0.106542
0.0864086
0.06696
0.0482119
0.0301303
0.0126567
-0.00427475
-0.0207289
-0.0367677
-0.0524572
-0.0678847
-0.0831905
-0.0986239
-0.114637
-0.132044
-0.15229
-0.177856
-0.212744
-0.26265
-0.333813
-0.428342
-0.532338
-0.595167
-0.517136
-0.215366
0.027069
0.0853573
0.138719
0.180406
0.208444
0.224294
0.230453
0.229137
0.222041
0.210505
0.195684
0.178604
0.160153
0.141058
0.121864
0.102951
0.084549
0.0667812
0.0496899
0.0332674
0.0174777
0.00227001
-0.0124133
-0.0266376
-0.0404834
-0.054065
-0.0675612
-0.0812663
-0.0956724
-0.111602
-0.130427
-0.154416
-0.187198
-0.234141
-0.301979
-0.395777
-0.508641
-0.597704
-0.55492
-0.249094
0.0253995
0.0786983
0.12702
0.164946
0.190665
0.205271
0.210953
0.209797
0.203446
0.193175
0.180028
0.164899
0.148549
0.131601
0.114534
0.097692
0.0813008
0.0654908
0.0503231
0.0358105
0.0219353
0.00865969
-0.00406894
-0.01632
-0.0281887
-0.039814
-0.0514086
-0.0633046
-0.0760248
-0.0903944
-0.107719
-0.130067
-0.160674
-0.204387
-0.267827
-0.358029
-0.475072
-0.587894
-0.588258
-0.291911
0.0257892
0.074936
0.117295
0.149941
0.171955
0.184355
0.189012
0.187753
0.182049
0.173034
0.161614
0.148539
0.13444
0.119832
0.10512
0.0906027
0.0764835
0.0628905
0.0498917
0.0375113
0.0257425
0.0145552
0.00389856
-0.0063015
-0.0161518
-0.0258089
-0.035506
-0.045594
-0.0566034
-0.0693378
-0.0850205
-0.105521
-0.133686
-0.173754
-0.23177
-0.315524
-0.430934
-0.561952
-0.611683
-0.345808
0.0294986
0.0751116
0.110064
0.135619
0.152393
0.161535
0.164564
0.162919
0.15777
0.150025
0.140402
0.129492
0.117788
0.105695
0.0935343
0.0815478
0.0699077
0.0587255
0.0480645
0.0379505
0.0283803
0.0193268
0.0107406
0.00254635
-0.00536566
-0.0131546
-0.021053
-0.0294022
-0.0387054
-0.0497077
-0.0635154
-0.08178
-0.106959
-0.142676
-0.194154
-0.26882
-0.376103
-0.515926
-0.616895
-0.410727
0.038763
0.0804436
0.105518
0.121797
0.131762
0.136655
0.137517
0.135252
0.130601
0.124159
0.116409
0.107758
0.0985513
0.0890769
0.0795686
0.0702066
0.0611217
0.0524018
0.0440981
0.036233
0.0288043
0.0217892
0.015144
0.00880106
0.00266131
-0.00341862
-0.00964604
-0.0163226
-0.0238874
-0.0329844
-0.0445569
-0.059997
-0.0813456
-0.111607
-0.15512
-0.218299
-0.311158
-0.446545
-0.592346
-0.481873
0.0571527
0.09185
0.103162
0.107729
0.109486
0.10936
0.107656
0.104588
0.100364
0.0951979
0.0893018
0.0828815
0.0761296
0.0692187
0.0622961
0.0554808
0.0488628
0.0425053
0.0364477
0.0307086
0.025289
0.0201735
0.0153298
0.0107057
0.00622374
0.00177061
-0.00281733
-0.00777854
-0.013457
-0.0203572
-0.0292078
-0.0410862
-0.057548
-0.0809233
-0.11459
-0.163831
-0.23709
-0.352554
-0.52322
-0.545144
0.0883651
0.10675
0.0990853
0.090009
0.0830566
0.0778646
0.0736318
0.0697682
0.0659327
0.0619627
0.0578092
0.0534894
0.0490565
0.0445785
0.0401252
0.0357594
0.0315325
0.0274832
0.0236368
0.0200065
0.0165938
0.0133892
0.0103717
0.007506
0.00473996
0.00199638
-0.000834283
-0.00391294
-0.00746562
-0.0118285
-0.017469
-0.0250985
-0.0356962
-0.0508288
-0.0726892
-0.105263
-0.154919
-0.236922
-0.39331
-0.56713
0.12295
0.10078
0.0725392
0.0550345
0.0444955
0.0378978
0.0334792
0.0302403
0.0276194
0.025307
0.0231412
0.0210463
0.0189957
0.0169895
0.0150404
0.0131654
0.0113803
0.0096978
0.00812571
0.006667
0.00531973
0.00407696
0.00292667
0.0018503
0.000822095
-0.000195543
-0.00125291
-0.00242529
-0.00381092
-0.0055637
-0.00787532
-0.0110695
-0.0155221
-0.0219753
-0.0312618
-0.0456308
-0.068152
-0.110681
-0.197424
-0.465231
0
0
0
0
0
0
0
0
0
0
0
0
0
0
0
0
0
0
0
0
0
0
0
0
0
0
0
0
0
0
0
0
0
0
0
0
0
0
0
0
