# vtk DataFile Version 2.0
pressure
ASCII
DATASET RECTILINEAR_GRID
DIMENSIONS 41 41 1
X_COORDINATES 41 double
0 0.0325168 0.0644289 0.0957562 0.126518 0.156734 0.186424 0.215604 0.244295 0.272513 0.300276 0.327602 0.354507 0.38101 0.407125 0.43287 0.45826 0.483312 0.50804 0.532462 0.556591 0.580442 0.604032 0.627374 0.650483 0.673374 0.696061 0.718557 0.740878 0.763037 0.785048 0.806924 0.82868 0.850328 0.871883 0.893358 0.914766 0.936121 0.957436 0.978725 1 
Y_COORDINATES 41 double
0 0.025 0.05 0.075 0.1 0.125 0.15 0.175 0.2 0.225 0.25 0.275 0.3 0.325 0.35 0.375 0.4 0.425 0.45 0.475 0.5 0.525 0.55 0.575 0.6 0.625 0.65 0.675 0.7 0.725 0.75 0.775 0.8 0.825 0.85 0.875 0.9 0.925 0.95 0.975 1 
Z_COORDINATES 1 double
0.0

CELL_DATA 1600
SCALARS pressure double 1
LOOKUP_TABLE default
0
-0.000126981
-0.000354715
-0.000636818
-0.000936544
-0.0012351
-0.00152225
-0.00178965
-0.0020278
-0.00222538
-0.00237011
-0.00245019
-0.00245588
-0.00238116
-0.00222498
-0.00199227
-0.00169437
-0.00134886
-0.000978648
-0.000610491
-0.000272893
6.29605e-06
0.000202379
0.000296088
0.000275363
0.000136428
-0.000115984
-0.000469234
-0.000904109
-0.00139666
-0.00192027
-0.00244767
-0.00295267
-0.00341146
-0.00380348
-0.00411209
-0.00432555
-0.00443915
-0.00446021
-0.00442038
5.81339e-05
-6.25828e-05
-0.000261314
-0.000506661
-0.000770478
-0.00103765
-0.00129913
-0.00154718
-0.001773
-0.00196629
-0.00211585
-0.00221075
-0.00224172
-0.00220249
-0.00209113
-0.00191097
-0.00167118
-0.00138678
-0.0010779
-0.000768555
-0.000484669
-0.000251852
-9.29832e-05
-2.59869e-05
-6.207e-05
-0.000204651
-0.000449122
-0.000783452
-0.00118952
-0.00164495
-0.00212516
-0.00260539
-0.00306235
-0.00347546
-0.00382762
-0.0041056
-0.00430032
-0.00440737
-0.00442782
-0.0043822
0.000191179
5.18232e-05
-0.000138946
-0.000360518
-0.00059648
-0.000838267
-0.00108026
-0.00131649
-0.00153932
-0.00173918
-0.0019053
-0.00202665
-0.00209324
-0.00209744
-0.00203534
-0.00190789
-0.00172172
-0.00148934
-0.00122871
-0.000962107
-0.000714288
-0.000510236
-0.000372674
-0.000319714
-0.000362934
-0.000506175
-0.000745213
-0.00106834
-0.00145776
-0.00189153
-0.00234582
-0.00279699
-0.00322346
-0.00360687
-0.00393273
-0.00419041
-0.00437267
-0.00447476
-0.00449297
-0.00444197
0.000382085
0.000204891
3.03689e-06
-0.000209777
-0.000430196
-0.000658021
-0.000892509
-0.00113042
-0.00136541
-0.00158831
-0.00178782
-0.00195163
-0.00206767
-0.00212563
-0.00211851
-0.00204416
-0.00190635
-0.00171529
-0.00148744
-0.00124442
-0.00101121
-0.000813756
-0.000676302
-0.000618759
-0.000654496
-0.000788868
-0.00101869
-0.00133274
-0.00171321
-0.00213779
-0.00258222
-0.00302266
-0.00343777
-0.00381001
-0.00412623
-0.00437731
-0.00455721
-0.00466129
-0.00468428
-0.00463898
0.000598243
0.00037132
0.000146043
-6.98453e-05
-0.000287085
-0.000514591
-0.000757115
-0.00101435
-0.00128114
-0.0015481
-0.00180254
-0.00202966
-0.002214
-0.00234132
-0.00240053
-0.00238558
-0.00229695
-0.00214247
-0.00193731
-0.00170297
-0.00146547
-0.00125281
-0.00109209
-0.00100648
-0.00101269
-0.00111906
-0.00132472
-0.00161982
-0.00198698
-0.0024035
-0.00284414
-0.00328392
-0.00370052
-0.00407589
-0.00439692
-0.00465498
-0.00484468
-0.00496194
-0.00500184
-0.0049763
0.000804615
0.000521807
0.000265635
3.6949e-05
-0.000189875
-0.00043315
-0.000703002
-0.00100187
-0.00132532
-0.00166306
-0.00200001
-0.00231767
-0.00259597
-0.00281551
-0.00295998
-0.00301848
-0.00298744
-0.00287173
-0.00268486
-0.00244812
-0.00218885
-0.00193778
-0.00172593
-0.00158128
-0.00152574
-0.0015727
-0.00172559
-0.00197776
-0.00231357
-0.00271063
-0.00314277
-0.0035833
-0.00400788
-0.00439657
-0.00473481
-0.00501315
-0.00522591
-0.00536919
-0.00543869
-0.00544509
0.000964165
0.000623508
0.000332067
8.19334e-05
-0.000168225
-0.000445925
-0.000766331
-0.00113405
-0.00154478
-0.00198648
-0.00244067
-0.00288401
-0.00329056
-0.00363445
-0.00389287
-0.00404879
-0.00409332
-0.00402717
-0.00386114
-0.00361558
-0.00331876
-0.00300434
-0.00270817
-0.0024646
-0.00230298
-0.00224444
-0.0022997
-0.00246813
-0.00273821
-0.00308953
-0.00349579
-0.00392844
-0.00436013
-0.00476753
-0.00513283
-0.00544391
-0.00569319
-0.00587571
-0.0059869
-0.00603529
0.00103823
0.000640699
0.000311379
3.11489e-05
-0.000257497
-0.000591073
-0.000989135
-0.00145792
-0.00199252
-0.00257837
-0.00319257
-0.00380584
-0.00438506
-0.00489652
-0.00530932
-0.00559863
-0.0057484
-0.00575334
-0.00561979
-0.00536564
-0.00501907
-0.00461632
-0.00419848
-0.00380775
-0.00348328
-0.00325726
-0.00315156
-0.00317562
-0.00332586
-0.0035868
-0.00393383
-0.00433704
-0.00476541
-0.00519048
-0.00558893
-0.00594347
-0.00624225
-0.00647713
-0.00664158
-0.00674071
0.000987357
0.000536037
0.00016688
-0.000152765
-0.000496902
-0.000910519
-0.00141712
-0.00202393
-0.00272489
-0.00350212
-0.00432745
-0.00516449
-0.00597167
-0.00670586
-0.00732624
-0.00779809
-0.00809594
-0.00820608
-0.00812806
-0.00787514
-0.00747365
-0.00696123
-0.006384
-0.00579279
-0.00523873
-0.00476847
-0.00441961
-0.00421694
-0.00417016
-0.00427348
-0.00450745
-0.00484253
-0.00524389
-0.00567633
-0.00610821
-0.00651381
-0.00687371
-0.00717369
-0.0074028
-0.00756124
0.0007728
0.000272246
-0.000138662
-0.000508262
-0.00092672
-0.00144712
-0.00209636
-0.00288234
-0.00379731
-0.00481953
-0.00591465
-0.00703814
-0.00813856
-0.00916165
-0.0100547
-0.0107707
-0.0112723
-0.0115348
-0.0115483
-0.0113187
-0.0108683
-0.010234
-0.00946567
-0.00862242
-0.00776845
-0.00696764
-0.00627783
-0.00574519
-0.00539963
-0.00525197
-0.00529369
-0.00549943
-0.00583189
-0.00624793
-0.00670461
-0.00716367
-0.00759384
-0.0079709
-0.00827632
-0.00850332
0.000358534
-0.000185588
-0.000640563
-0.00107185
-0.00158515
-0.00224095
-0.00306931
-0.0040785
-0.00525884
-0.0065841
-0.00801304
-0.0094918
-0.0109576
-0.0123432
-0.013582
-0.0146126
-0.0153833
-0.0158561
-0.0160092
-0.0158388
-0.0153601
-0.0146068
-0.0136298
-0.0124947
-0.0112777
-0.0100611
-0.00892593
-0.00794554
-0.0071778
-0.00665909
-0.00640056
-0.00638799
-0.00658553
-0.00694259
-0.00740228
-0.00790912
-0.00841455
-0.00887923
-0.00927298
-0.00957919
-0.000286349
-0.000867568
-0.00136927
-0.001875
-0.00250455
-0.00332529
-0.00437007
-0.00564748
-0.0071456
-0.00883325
-0.0106613
-0.0125655
-0.0144699
-0.0162928
-0.0179516
-0.0193687
-0.0204767
-0.0212227
-0.0215714
-0.0215075
-0.0210369
-0.020187
-0.0190061
-0.0175623
-0.0159409
-0.0142399
-0.0125642
-0.0110175
-0.0096927
-0.00866169
-0.00796689
-0.00761619
-0.00758334
-0.00781408
-0.00823659
-0.00877361
-0.00935278
-0.00991312
-0.0104074
-0.0108051
-0.00118521
-0.00179631
-0.0023476
-0.00294073
-0.00370791
-0.00472237
-0.00601964
-0.0076084
-0.00947421
-0.0115802
-0.0138685
-0.0162625
-0.0186721
-0.0209991
-0.0231435
-0.0250109
-0.0265176
-0.0275955
-0.028196
-0.0282918
-0.0278782
-0.0269738
-0.0256206
-0.0238841
-0.0218522
-0.0196334
-0.017352
-0.015141
-0.0131319
-0.0114408
-0.0101541
-0.009317
-0.00892639
-0.00893353
-0.00925465
-0.00978769
-0.0104295
-0.0110894
-0.011696
-0.0121992
-0.00235157
-0.00298465
-0.00358796
-0.00428081
-0.00520531
-0.00643968
-0.00802155
-0.0099595
-0.0122359
-0.0148075
-0.0176058
-0.0205411
-0.0235067
-0.0263868
-0.0290638
-0.0314261
-0.0333748
-0.0348286
-0.035727
-0.0360321
-0.0357292
-0.0348272
-0.0333586
-0.031381
-0.0289776
-0.026258
-0.0233568
-0.0204294
-0.017643
-0.0151615
-0.0131267
-0.0116376
-0.0107337
-0.0103882
-0.0105151
-0.0109884
-0.0116685
-0.0124255
-0.0131547
-0.0137783
-0.00378733
-0.0044337
-0.00509046
-0.00589328
-0.00699155
-0.00846697
-0.0103587
-0.0126746
-0.015393
-0.0184627
-0.0218037
-0.0253107
-0.0288595
-0.032316
-0.0355448
-0.0384188
-0.0408261
-0.0426752
-0.0438974
-0.0444477
-0.0443036
-0.0434654
-0.041955
-0.039818
-0.0371256
-0.0339782
-0.0305081
-0.0268796
-0.0232849
-0.0199311
-0.0170197
-0.0147181
-0.0131305
-0.0122762
-0.0120857
-0.0124181
-0.0130947
-0.0139371
-0.014796
-0.0155552
-0.00548173
-0.00613185
-0.00684152
-0.00776131
-0.00904455
-0.010775
-0.0129921
-0.015702
-0.0188779
-0.0224594
-0.0263528
-0.0304362
-0.0345669
-0.0385921
-0.04236
-0.0457303
-0.0485815
-0.0508161
-0.0523619
-0.0531711
-0.053218
-0.052497
-0.0510208
-0.0488217
-0.0459542
-0.0425002
-0.0385759
-0.0343381
-0.0299856
-0.0257541
-0.0218981
-0.0186597
-0.0162271
-0.0146946
-0.0140382
-0.0141214
-0.0147319
-0.0156356
-0.0166263
-0.0175351
-0.00741122
-0.00805455
-0.00881401
-0.00985298
-0.0113256
-0.0133155
-0.0158613
-0.0189659
-0.0225963
-0.0266811
-0.0311118
-0.0357487
-0.0404302
-0.044986
-0.0492496
-0.0530705
-0.0563215
-0.0589038
-0.0607462
-0.0618033
-0.0620509
-0.0614821
-0.060104
-0.057937
-0.0550179
-0.051405
-0.0471881
-0.0424992
-0.0375228
-0.0324998
-0.0277187
-0.0234883
-0.0200905
-0.0177209
-0.0164372
-0.0161396
-0.0165992
-0.0175254
-0.0186425
-0.0197122
-0.00954033
-0.0101654
-0.0109681
-0.0121227
-0.0137807
-0.0160237
-0.0188876
-0.0223711
-0.026433
-0.0309902
-0.0359185
-0.0410602
-0.0462356
-0.0512583
-0.0559498
-0.0601526
-0.0637377
-0.0666086
-0.0686998
-0.0699722
-0.0704078
-0.0700028
-0.0687634
-0.0667028
-0.0638425
-0.0602175
-0.0558859
-0.0509435
-0.045541
-0.0398978
-0.0343079
-0.0291237
-0.0247134
-0.021389
-0.0193254
-0.0185024
-0.0187061
-0.0195993
-0.0208278
-0.0220655
-0.0118236
-0.0124181
-0.0132538
-0.0145138
-0.016344
-0.0188217
-0.0219789
-0.0258083
-0.03026
-0.0352383
-0.0406035
-0.0461808
-0.0517739
-0.0571828
-0.0622199
-0.0667235
-0.0705661
-0.0736564
-0.075937
-0.0773784
-0.0779716
-0.0777201
-0.0766337
-0.0747238
-0.0720025
-0.0684858
-0.0642019
-0.0592065
-0.0536036
-0.0475689
-0.0413697
-0.0353677
-0.0299911
-0.0256644
-0.0227042
-0.0212153
-0.0210447
-0.0218335
-0.0231481
-0.0245551
-0.0142081
-0.0147593
-0.0156139
-0.016962
-0.0189415
-0.021624
-0.0250356
-0.0291624
-0.0339455
-0.0392771
-0.045003
-0.050933
-0.056857
-0.0625641
-0.0678603
-0.0725825
-0.0766062
-0.0798469
-0.0822566
-0.0838164
-0.0845277
-0.0844038
-0.0834616
-0.0817159
-0.079176
-0.0758464
-0.0717326
-0.0668537
-0.0612642
-0.0550825
-0.0485224
-0.0419175
-0.0357158
-0.030428
-0.0265157
-0.0242462
-0.0235816
-0.0241822
-0.0255463
-0.0271176
-0.016637
-0.0171322
-0.0179879
-0.0193997
-0.0214963
-0.024342
-0.0279567
-0.0323194
-0.0373627
-0.042968
-0.0489689
-0.0551628
-0.0613286
-0.0672473
-0.072721
-0.0775868
-0.0817242
-0.0850555
-0.0875414
-0.089173
-0.0899623
-0.0899326
-0.0891103
-0.0875174
-0.0851663
-0.0820582
-0.0781853
-0.07354
-0.0681331
-0.0620233
-0.055356
-0.0484045
-0.0415928
-0.0354735
-0.0306313
-0.0275134
-0.0262484
-0.0265714
-0.0279389
-0.0296623
-0.0190532
-0.0194802
-0.0203161
-0.0217608
-0.0239332
-0.0268903
-0.030646
-0.0351729
-0.0403964
-0.0461894
-0.0523765
-0.0587457
-0.0650683
-0.07112
-0.0767008
-0.0816486
-0.0858464
-0.0892222
-0.0917438
-0.0934105
-0.0942431
-0.0942746
-0.093541
-0.0920735
-0.0898923
-0.0870021
-0.0833918
-0.0790383
-0.0739209
-0.0680465
-0.06149
-0.0544456
-0.0472752
-0.0405223
-0.0348507
-0.0308772
-0.0289342
-0.0288929
-0.030211
-0.0320681
-0.0214023
-0.0217506
-0.0225438
-0.0239847
-0.0261833
-0.0291913
-0.0330173
-0.0376295
-0.0429482
-0.0488412
-0.0551271
-0.0615885
-0.0679918
-0.0741098
-0.0797412
-0.0847247
-0.0889456
-0.0923352
-0.0948661
-0.096543
-0.0973935
-0.0974584
-0.0967824
-0.0954066
-0.093361
-0.090659
-0.0872934
-0.0832376
-0.0784529
-0.0729085
-0.0666176
-0.0596921
-0.0524075
-0.0452523
-0.0389133
-0.0341404
-0.0314814
-0.0310006
-0.0322133
-0.0341807
-0.0236369
-0.0238983
-0.0246244
-0.0260197
-0.0281881
-0.0311784
-0.0349975
-0.0396116
-0.0449394
-0.0508465
-0.0571493
-0.0636282
-0.0700475
-0.0761784
-0.0818186
-0.0868066
-0.091028
-0.0944151
-0.0969422
-0.0986166
-0.0994699
-0.0995482
-0.0989035
-0.097586
-0.095636
-0.0930778
-0.0899138
-0.0861222
-0.0816589
-0.0764714
-0.070527
-0.0638645
-0.0566656
-0.0493321
-0.0425193
-0.0370549
-0.0336849
-0.0327076
-0.0337598
-0.0358109
-0.0257182
-0.0258877
-0.0265224
-0.0278262
-0.0299012
-0.032799
-0.0365291
-0.0410599
-0.0463118
-0.052152
-0.0583978
-0.0648299
-0.0712124
-0.0773158
-0.0829364
-0.087911
-0.0921231
-0.0955034
-0.0980248
-0.0996943
-0.100545
-0.100625
-0.0999925
-0.0987045
-0.096811
-0.0943477
-0.091329
-0.087743
-0.0835502
-0.0786902
-0.0731022
-0.0667684
-0.0597851
-0.0524533
-0.0453548
-0.039335
-0.0352957
-0.0337854
-0.0346255
-0.0367321
-0.0276187
-0.0276952
-0.0282147
-0.0293778
-0.0312907
-0.0340152
-0.0375707
-0.0419328
-0.0470276
-0.0527268
-0.0588511
-0.0651833
-0.0714884
-0.077536
-0.0831201
-0.0880741
-0.0922772
-0.0956556
-0.0981781
-0.0998489
-0.100699
-0.100778
-0.100146
-0.098865
-0.0969939
-0.0945781
-0.0916442
-0.0881926
-0.0841938
-0.07959
-0.074308
-0.0682931
-0.0615728
-0.0543515
-0.0471147
-0.0406728
-0.0360263
-0.0339634
-0.0345438
-0.0366775
-0.029323
-0.02931
-0.0296917
-0.0306616
-0.0323379
-0.0348035
-0.0380964
-0.042206
-0.047068
-0.0525607
-0.0585097
-0.0647007
-0.0708993
-0.0768735
-0.082414
-0.0873488
-0.0915508
-0.0949392
-0.0974762
-0.0991606
-0.100019
-0.1001
-0.0994639
-0.0981757
-0.0962992
-0.0938884
-0.09098
-0.0875867
-0.0836911
-0.0792439
-0.0741709
-0.0683982
-0.0619053
-0.0548163
-0.0475176
-0.0407501
-0.0355554
-0.0329275
-0.033201
-0.035333
-0.0308288
-0.0307343
-0.0309566
-0.0316771
-0.0330367
-0.0351529
-0.0380941
-0.0418707
-0.0464314
-0.0516627
-0.0573946
-0.063415
-0.0694891
-0.0753824
-0.0808806
-0.0858046
-0.090019
-0.0934343
-0.096004
-0.0977193
-0.0986012
-0.0986935
-0.0980546
-0.0967505
-0.0948475
-0.0924045
-0.0894661
-0.0860545
-0.0821635
-0.0777542
-0.0727582
-0.0670953
-0.0607168
-0.0536883
-0.0463112
-0.0392455
-0.0335286
-0.0303136
-0.030227
-0.0323257
-0.0321469
-0.0319833
-0.0320244
-0.0324339
-0.0333899
-0.0350621
-0.037563
-0.0409316
-0.0451324
-0.0500594
-0.0555457
-0.0613788
-0.0673221
-0.0731364
-0.0786009
-0.0835282
-0.0877732
-0.0912361
-0.0938603
-0.0956276
-0.0965513
-0.096669
-0.0960347
-0.0947122
-0.0927672
-0.0902603
-0.0872398
-0.0837338
-0.0797439
-0.07524
-0.0701614
-0.064429
-0.0579811
-0.0508473
-0.0432674
-0.0358314
-0.0295522
-0.0256957
-0.0251771
-0.0272032
-0.0333022
-0.0330857
-0.0329198
-0.032948
-0.0334056
-0.0345363
-0.0365113
-0.0394056
-0.0432005
-0.047795
-0.0530217
-0.0586648
-0.0644823
-0.0702288
-0.0756755
-0.0806255
-0.0849231
-0.0884573
-0.0911605
-0.0930038
-0.0939913
-0.0941523
-0.0935341
-0.0921951
-0.0901971
-0.0875983
-0.0844459
-0.0807689
-0.0765714
-0.0718277
-0.066482
-0.0604585
-0.0536917
-0.046193
-0.0381672
-0.0301625
-0.0231766
-0.0185613
-0.0175026
-0.0193992
-0.0343361
-0.0340835
-0.0336753
-0.0332375
-0.0330925
-0.0335828
-0.0349538
-0.0373207
-0.04068
-0.0449314
-0.0499013
-0.055366
-0.0610749
-0.0667741
-0.0722255
-0.0772221
-0.0815975
-0.0852291
-0.0880376
-0.0899829
-0.0910582
-0.0912828
-0.0906948
-0.0893442
-0.0872848
-0.0845679
-0.0812342
-0.0773071
-0.0727864
-0.0676434
-0.061821
-0.0552432
-0.0478427
-0.0396245
-0.0307811
-0.0218548
-0.0138687
-0.00827127
-0.0065018
-0.00817622
-0.0353129
-0.0350357
-0.0343288
-0.0333178
-0.0324546
-0.0322091
-0.0329113
-0.034717
-0.0376322
-0.0415501
-0.0462841
-0.051597
-0.0572264
-0.0629074
-0.068392
-0.0734632
-0.0779436
-0.0816996
-0.0846402
-0.0867134
-0.0879006
-0.0882092
-0.0876659
-0.0863087
-0.0841798
-0.081318
-0.0777517
-0.0734911
-0.0685229
-0.0628056
-0.0562702
-0.0488311
-0.0404149
-0.0310226
-0.0208487
-0.0104622
-0.000975075
0.00599999
0.00875966
0.00747134
-0.0363367
-0.0360253
-0.0349228
-0.0331974
-0.0314897
-0.0304225
-0.0304133
-0.0316506
-0.0341392
-0.0377558
-0.0422932
-0.0474955
-0.0530848
-0.058784
-0.0643346
-0.0695098
-0.0741225
-0.0780283
-0.081125
-0.0833487
-0.0846681
-0.0850776
-0.0845898
-0.083228
-0.0810184
-0.0779823
-0.0741287
-0.0694464
-0.0638981
-0.0574164
-0.049906
-0.0412561
-0.0313731
-0.0202467
-0.00807328
0.00453454
0.0163117
0.0253462
0.0295763
0.0289839
-0.0375885
-0.0371763
-0.0355068
-0.0328776
-0.0301909
-0.0282361
-0.0275052
-0.0282003
-0.0303092
-0.0336799
-0.0380773
-0.0432216
-0.0488173
-0.0545743
-0.060224
-0.0655306
-0.0702981
-0.0743729
-0.0776421
-0.0800303
-0.0814933
-0.0820115
-0.0815819
-0.0802104
-0.0779033
-0.0746592
-0.0704605
-0.0652655
-0.0590005
-0.0515569
-0.0427929
-0.0325497
-0.020689
-0.00716501
0.00784353
0.0236968
0.0389496
0.0512117
0.0577964
0.0585211
-0.0394107
-0.0386908
-0.0361511
-0.0323638
-0.0285612
-0.0256839
-0.0242614
-0.024478
-0.0262825
-0.0294823
-0.0338072
-0.0389512
-0.0446001
-0.050451
-0.056226
-0.061682
-0.0666159
-0.0708659
-0.0743102
-0.0768625
-0.0784663
-0.0790877
-0.0787072
-0.0773111
-0.074883
-0.0713941
-0.0667935
-0.0609992
-0.0538888
-0.0452948
-0.0350061
-0.0227852
-0.00840951
0.00824838
0.0270808
0.0474911
0.067928
0.0854022
0.0960816
0.0994243
-0.0424926
-0.0409262
-0.0369823
-0.0316966
-0.0266438
-0.0228453
-0.0208016
-0.0206343
-0.022229
-0.0253409
-0.0296609
-0.0348558
-0.0405937
-0.0465607
-0.0524718
-0.0580783
-0.0631721
-0.0675855
-0.0711892
-0.0738878
-0.0756136
-0.0763188
-0.0759672
-0.0745246
-0.0719496
-0.0681822
-0.0631334
-0.056673
-0.0486187
-0.0387282
-0.0266979
-0.0121762
0.00519664
0.0257068
0.0494239
0.0759495
0.103886
0.129834
0.148145
0.156903
-0.0482746
-0.0445201
-0.0382309
-0.0309825
-0.0245383
-0.0198464
-0.0172774
-0.0168348
-0.0183159
-0.0214146
-0.0257819
-0.0310597
-0.0369017
-0.0429856
-0.0490223
-0.0547606
-0.0599895
-0.0645377
-0.0682708
-0.071086
-0.0729057
-0.0736693
-0.0733242
-0.0718161
-0.0690777
-0.0650167
-0.0595034
-0.052356
-0.043327
-0.0320901
-0.0182323
-0.00125728
0.0193895
0.0442575
0.0737695
0.108008
0.146253
0.185619
0.218641
0.239
-0.0598115
-0.0503863
-0.0400308
-0.0301654
-0.0221929
-0.0166844
-0.0137266
-0.0131382
-0.014605
-0.0177569
-0.022209
-0.0275845
-0.0335284
-0.0397152
-0.0458555
-0.0516984
-0.0570329
-0.0616863
-0.0655208
-0.0684278
-0.0703215
-0.0711297
-0.0707854
-0.069215
-0.0663276
-0.0620011
-0.0560683
-0.0482999
-0.0383876
-0.0259254
-0.0103914
0.00886589
0.0326345
0.0618275
0.0974437
0.14048
0.191741
0.250879
0.311738
0.35824
-0.0835041
-0.0582581
-0.0406561
-0.0276908
-0.0185286
-0.012669
-0.00970787
-0.00924638
-0.0108769
-0.014191
-0.0187907
-0.0242972
-0.030358
-0.0366525
-0.042896
-0.0488413
-0.0542795
-0.0590382
-0.0629774
-0.0659843
-0.0679664
-0.0688427
-0.0685343
-0.0669533
-0.0639909
-0.0595032
-0.0532961
-0.0451073
-0.034586
-0.0212694
-0.00455461
0.0163368
0.042407
0.0749551
0.115702
0.167012
0.232341
0.316799
0.425397
0.536079
-0.142315
-0.0644472
-0.0356717
-0.0214968
-0.0128413
-0.00766743
-0.00528768
-0.00527631
-0.00724929
-0.0108268
-0.0156348
-0.021313
-0.0275229
-0.033954
-0.0403286
-0.0464044
-0.0519748
-0.0568678
-0.0609422
-0.0640824
-0.066192
-0.0671847
-0.0669756
-0.0654697
-0.0625498
-0.058063
-0.0518045
-0.0434995
-0.0327819
-0.0191675
-0.00202007
0.0194996
0.0465162
0.0805961
0.124071
0.180768
0.257789
0.370123
0.554278
0.847791
