# vtk DataFile Version 2.0
u_velocity
ASCII
DATASET RECTILINEAR_GRID
DIMENSIONS 42 41 1
X_COORDINATES 42 double
0 0.0162584 0.0484728 0.0800925 0.111137 0.141626 0.171579 0.201014 0.229949 0.258404 0.286394 0.313939 0.341055 0.367758 0.394067 0.419997 0.445565 0.470786 0.495676 0.520251 0.544526 0.568516 0.592237 0.615703 0.638929 0.661929 0.684717 0.707309 0.729718 0.751958 0.774042 0.795986 0.817802 0.839504 0.861106 0.882621 0.904062 0.925444 0.946779 0.968081 0.989362 1 
Y_COORDINATES 41 double
0 0.025 0.05 0.075 0.1 0.125 0.15 0.175 0.2 0.225 0.25 0.275 0.3 0.325 0.35 0.375 0.4 0.425 0.45 0.475 0.5 0.525 0.55 0.575 0.6 0.625 0.65 0.675 0.7 0.725 0.75 0.775 0.8 0.825 0.85 0.875 0.9 0.925 0.95 0.975 1 
Z_COORDINATES 1 double
0.0

CELL_DATA 1640
SCALARS u_velocity double 1
LOOKUP_TABLE default
0
0.000250377
0.000329845
8.17615e-05
-0.000463422
-0.00123842
-0.00218822
-0.00327616
-0.00447625
-0.00576378
-0.00710879
-0.00847286
-0.0098087
-0.0110618
-0.0121735
-0.0130848
-0.0137407
-0.0140949
-0.0141141
-0.013781
-0.0130977
-0.0120859
-0.0107867
-0.00925844
-0.0075731
-0.00581112
-0.00405596
-0.0023883
-0.000880601
0.000407325
0.00143147
0.00216532
0.00260016
0.00274446
0.00262293
0.00227629
0.00176258
0.00116105
0.000577838
0.000147093
0
0
0.000186767
-0.000155349
-0.00126212
-0.00307279
-0.00545425
-0.00828424
-0.0114661
-0.0149177
-0.0185548
-0.0222804
-0.0259798
-0.0295217
-0.032764
-0.0355623
-0.0377793
-0.0392953
-0.0400167
-0.0398846
-0.0388798
-0.0370256
-0.0343883
-0.0310735
-0.0272213
-0.0229971
-0.018583
-0.0141662
-0.00992795
-0.00603341
-0.00262238
0.000197756
0.00235667
0.00382346
0.00460709
0.00475583
0.00435666
0.00353568
0.00245985
0.00133865
0.000422551
0
0
-0.000169251
-0.00133428
-0.00361572
-0.00688984
-0.0109753
-0.0157047
-0.0209343
-0.0265293
-0.0323459
-0.0382203
-0.0439667
-0.0493821
-0.0542566
-0.0583861
-0.0615861
-0.0637034
-0.0646273
-0.0642969
-0.0627056
-0.0599022
-0.0559889
-0.0511168
-0.0454779
-0.0392956
-0.0328135
-0.0262827
-0.0199489
-0.0140395
-0.00875236
-0.00424533
-0.000629296
0.00203694
0.00374896
0.0045572
0.00456614
0.00393318
0.00286777
0.00163153
0.000542852
0
0
-0.000679168
-0.00292694
-0.00662315
-0.0115321
-0.0174172
-0.0240735
-0.0313194
-0.0389737
-0.046838
-0.0546884
-0.0622779
-0.0693469
-0.0756367
-0.080906
-0.0849447
-0.0875867
-0.0887186
-0.0882854
-0.0862927
-0.0828062
-0.0779491
-0.0718962
-0.0648675
-0.0571188
-0.0489305
-0.040596
-0.0324073
-0.0246413
-0.017546
-0.0113278
-0.00614102
-0.00208012
0.000824881
0.00261032
0.00337835
0.003295
0.00258824
0.00154816
0.000534371
0
0
-0.00127412
-0.00476643
-0.0100386
-0.0167022
-0.0244524
-0.0330483
-0.042276
-0.0519153
-0.0617213
-0.0714203
-0.0807182
-0.0893149
-0.0969214
-0.103276
-0.108159
-0.111398
-0.112883
-0.112558
-0.110431
-0.106569
-0.101097
-0.0941916
-0.0860813
-0.0770349
-0.0673548
-0.0573652
-0.0473981
-0.0377782
-0.0288059
-0.0207423
-0.0137938
-0.00810158
-0.00373355
-0.000680741
0.00114293
0.00189843
0.00181878
0.00120804
0.000445683
0
0
-0.00191585
-0.00674221
-0.0136779
-0.0221557
-0.0317927
-0.0423118
-0.0534715
-0.0650203
-0.0766768
-0.0881307
-0.099056
-0.109129
-0.118045
-0.125535
-0.131374
-0.13539
-0.137465
-0.137535
-0.135594
-0.131692
-0.125935
-0.118484
-0.109556
-0.099419
-0.0883848
-0.0768019
-0.0650405
-0.0534761
-0.0424698
-0.0323486
-0.0233853
-0.0157825
-0.00966088
-0.00505225
-0.00189848
-5.37464e-05
0.000711064
0.000704311
0.000312152
0
0
-0.00257733
-0.00876832
-0.0173879
-0.0276781
-0.0391739
-0.0515629
-0.0645809
-0.0779527
-0.091372
-0.104506
-0.117011
-0.128554
-0.138827
-0.14756
-0.154526
-0.159546
-0.162488
-0.163268
-0.161851
-0.158254
-0.152547
-0.144859
-0.135378
-0.124355
-0.112099
-0.0989748
-0.085386
-0.0717617
-0.0585325
-0.0461053
-0.0348372
-0.025012
-0.0168223
-0.0103577
-0.00560189
-0.00243428
-0.000637107
9.66115e-05
0.00015513
0
0
-0.00323394
-0.0107671
-0.0210287
-0.0330703
-0.0463457
-0.06051
-0.0752813
-0.0903692
-0.105453
-0.12019
-0.134233
-0.14725
-0.158936
-0.169023
-0.177281
-0.183519
-0.187586
-0.18937
-0.188797
-0.185842
-0.180528
-0.172934
-0.163205
-0.151556
-0.138276
-0.123728
-0.10834
-0.0925903
-0.076982
-0.0620153
-0.0481512
-0.0357791
-0.0251888
-0.0165516
-0.00991129
-0.00518643
-0.0021786
-0.000585473
-1.49608e-05
0
0
-0.00386013
-0.0126622
-0.0244657
-0.0381411
-0.0530661
-0.068867
-0.0852493
-0.101915
-0.118538
-0.134777
-0.15029
-0.164751
-0.177863
-0.18936
-0.19901
-0.206609
-0.211985
-0.214999
-0.21554
-0.213536
-0.208957
-0.201824
-0.192221
-0.180307
-0.166324
-0.150608
-0.133587
-0.115771
-0.0977327
-0.080069
-0.0633635
-0.0481385
-0.0348133
-0.0236722
-0.0148472
-0.00831579
-0.00391059
-0.00133751
-0.000196116
0
0
-0.00442888
-0.014377
-0.0275674
-0.0427058
-0.0591008
-0.0763534
-0.0941607
-0.112222
-0.130216
-0.147805
-0.164659
-0.180462
-0.194926
-0.207788
-0.218814
-0.227795
-0.234547
-0.238911
-0.24075
-0.239952
-0.236437
-0.230162
-0.221136
-0.209436
-0.19523
-0.178789
-0.160503
-0.140882
-0.120541
-0.10017
-0.0804846
-0.0621644
-0.0457958
-0.0318182
-0.0204903
-0.0118788
-0.00586659
-0.00217531
-0.000392841
0
0
-0.00491249
-0.0158361
-0.0302073
-0.0465884
-0.064226
-0.0826986
-0.101697
-0.120921
-0.140056
-0.158775
-0.176758
-0.1937
-0.209321
-0.223366
-0.235607
-0.245842
-0.25389
-0.259591
-0.262799
-0.263378
-0.261208
-0.256184
-0.248233
-0.237333
-0.223541
-0.207023
-0.18808
-0.167169
-0.144906
-0.122042
-0.0994157
-0.0778829
-0.0582339
-0.0411127
-0.0269567
-0.0159664
-0.00810625
-0.00312948
-0.000614394
0
0
-0.00528429
-0.0169688
-0.0322682
-0.0496268
-0.0682356
-0.0876503
-0.107555
-0.127653
-0.147633
-0.167181
-0.185983
-0.203747
-0.220204
-0.235111
-0.248259
-0.259468
-0.26858
-0.275458
-0.279969
-0.281979
-0.281343
-0.277907
-0.27152
-0.262051
-0.249422
-0.23365
-0.214891
-0.193485
-0.169977
-0.145124
-0.119852
-0.0951893
-0.0721563
-0.0516545
-0.0343645
-0.0206825
-0.0107027
-0.00423923
-0.000872935
0
0
-0.00552056
-0.0177127
-0.0336479
-0.05168
-0.070949
-0.0909859
-0.111466
-0.132092
-0.152558
-0.172555
-0.191781
-0.209951
-0.226811
-0.242141
-0.255764
-0.267537
-0.27735
-0.285109
-0.290719
-0.294071
-0.295022
-0.293394
-0.288971
-0.281519
-0.270818
-0.256706
-0.239144
-0.21828
-0.194507
-0.168497
-0.141195
-0.113761
-0.0874495
-0.0634623
-0.0427949
-0.0261191
-0.0137279
-0.0055455
-0.0011816
0
0
-0.00560256
-0.0180183
-0.0342648
-0.0526352
-0.0722218
-0.0925266
-0.113211
-0.133975
-0.154515
-0.174527
-0.193714
-0.211805
-0.228568
-0.243813
-0.257406
-0.269259
-0.279322
-0.287563
-0.293948
-0.298415
-0.300851
-0.30108
-0.298853
-0.293858
-0.285744
-0.274168
-0.258863
-0.239725
-0.216903
-0.190878
-0.162507
-0.132995
-0.103793
-0.0764197
-0.052252
-0.0323299
-0.0172383
-0.00708433
-0.00155268
0
0
-0.00551839
-0.0178527
-0.0340638
-0.0524155
-0.0719552
-0.0921508
-0.112645
-0.13313
-0.153303
-0.172863
-0.191526
-0.209036
-0.225186
-0.23983
-0.252884
-0.264321
-0.274162
-0.282447
-0.289211
-0.294458
-0.298128
-0.300077
-0.300061
-0.297729
-0.292638
-0.284288
-0.272185
-0.255941
-0.23539
-0.210712
-0.182539
-0.151991
-0.12062
-0.0902338
-0.0626287
-0.0393079
-0.021262
-0.00888118
-0.00199622
0
0
-0.00526437
-0.0172033
-0.0330209
-0.0509861
-0.0701048
-0.089805
-0.109706
-0.129489
-0.148854
-0.167507
-0.185177
-0.201633
-0.216702
-0.230284
-0.242351
-0.252939
-0.262136
-0.270053
-0.276796
-0.28244
-0.286991
-0.290364
-0.292354
-0.292621
-0.290684
-0.285938
-0.277707
-0.265327
-0.248284
-0.226368
-0.199851
-0.169605
-0.137129
-0.104419
-0.0736858
-0.0469687
-0.0257886
-0.0109467
-0.00251893
0
0
-0.00484594
-0.016079
-0.0311463
-0.0483582
-0.0666851
-0.0855107
-0.104426
-0.123106
-0.14125
-0.15858
-0.174848
-0.189852
-0.203464
-0.21563
-0.226375
-0.235796
-0.244036
-0.251265
-0.25765
-0.263329
-0.268378
-0.272781
-0.276403
-0.278957
-0.279987
-0.278857
-0.274777
-0.26687
-0.25429
-0.236404
-0.213014
-0.184575
-0.152336
-0.118315
-0.0850488
-0.0551424
-0.0307638
-0.013274
-0.00312365
0
0
-0.00427772
-0.0145117
-0.0284856
-0.0445908
-0.0617712
-0.079365
-0.0969342
-0.114145
-0.130709
-0.14637
-0.16091
-0.17417
-0.186066
-0.196592
-0.205824
-0.213902
-0.221011
-0.227361
-0.233162
-0.238597
-0.2438
-0.248826
-0.253621
-0.257985
-0.261538
-0.263689
-0.263626
-0.260351
-0.252763
-0.239832
-0.220845
-0.195703
-0.165199
-0.131143
-0.0962276
-0.063577
-0.0360878
-0.0158375
-0.00380891
0
0
-0.00358298
-0.0125549
-0.025119
-0.0397891
-0.0554964
-0.0715357
-0.0874404
-0.102874
-0.117565
-0.13129
-0.143875
-0.155207
-0.165251
-0.174047
-0.181709
-0.188406
-0.194349
-0.199766
-0.204883
-0.20991
-0.215018
-0.22032
-0.22584
-0.231478
-0.236965
-0.241816
-0.245287
-0.246368
-0.243819
-0.236301
-0.222617
-0.20205
-0.174758
-0.142094
-0.10666
-0.0719542
-0.04162
-0.0185937
-0.00456898
0
0
-0.00279228
-0.0102823
-0.0211586
-0.0341005
-0.0480459
-0.0622518
-0.0762265
-0.0896353
-0.102234
-0.113842
-0.124334
-0.133653
-0.141812
-0.148892
-0.155034
-0.160424
-0.165276
-0.169814
-0.174264
-0.178836
-0.183717
-0.189054
-0.194936
-0.201356
-0.208169
-0.215032
-0.221339
-0.226168
-0.22827
-0.226134
-0.218178
-0.203086
-0.180285
-0.150441
-0.115774
-0.0799185
-0.0471894
-0.0214845
-0.00539426
0
0
-0.0019417
-0.00778351
-0.0167442
-0.0277095
-0.0396484
-0.0517912
-0.0636259
-0.0748255
-0.0851804
-0.0945599
-0.102899
-0.110195
-0.116508
-0.121955
-0.126693
-0.13091
-0.13481
-0.138597
-0.142476
-0.146638
-0.151264
-0.156516
-0.162521
-0.169347
-0.176965
-0.18518
-0.193562
-0.201355
-0.207417
-0.210214
-0.207932
-0.19876
-0.181387
-0.155637
-0.123061
-0.0871164
-0.0526122
-0.0244427
-0.00627242
0
0
-0.00107064
-0.00516086
-0.0120376
-0.0208301
-0.030567
-0.040467
-0.050005
-0.0588674
-0.0668842
-0.0739816
-0.0801562
-0.0854632
-0.0900071
-0.0939305
-0.097401
-0.100598
-0.103703
-0.106891
-0.11033
-0.114184
-0.118608
-0.123757
-0.129774
-0.136776
-0.144822
-0.153853
-0.163619
-0.173572
-0.182763
-0.189769
-0.192715
-0.189458
-0.178039
-0.157384
-0.128136
-0.0932375
-0.0577132
-0.0274008
-0.0071903
0
0
-0.000219678
-0.00252443
-0.00721728
-0.0136995
-0.0210899
-0.0286155
-0.0357479
-0.0421912
-0.0478188
-0.0526164
-0.0566437
-0.0600115
-0.0628649
-0.0653684
-0.0676918
-0.0700001
-0.0724466
-0.075171
-0.0783021
-0.0819631
-0.0862782
-0.0913782
-0.0974013
-0.104485
-0.112745
-0.122229
-0.132844
-0.144255
-0.155752
-0.166127
-0.173597
-0.175884
-0.17054
-0.155639
-0.130776
-0.0980477
-0.0623461
-0.0303011
-0.00813664
0
0
0.000571506
1.21082e-05
-0.00247248
-0.00657064
-0.0115224
-0.0165863
-0.0212432
-0.0252201
-0.0284353
-0.0309337
-0.0328367
-0.0343081
-0.0355299
-0.0366842
-0.0379397
-0.0394445
-0.0413228
-0.0436781
-0.0465994
-0.0501693
-0.0544747
-0.0596143
-0.0657053
-0.0728825
-0.081286
-0.0910305
-0.102146
-0.114484
-0.127582
-0.140502
-0.151686
-0.158897
-0.159409
-0.150582
-0.13092
-0.101406
-0.0664096
-0.0331053
-0.00910517
0
0
0.0012655
0.00233497
0.00200156
0.000292437
-0.00218061
-0.00473467
-0.00687639
-0.00836194
-0.0091551
-0.00935809
-0.00915088
-0.00874667
-0.00836115
-0.00819182
-0.00840573
-0.00913462
-0.0104765
-0.0125021
-0.0152638
-0.0188072
-0.0231816
-0.0284506
-0.0347009
-0.0420462
-0.0506244
-0.0605797
-0.0720207
-0.0849437
-0.0991085
-0.113866
-0.127958
-0.139354
-0.145262
-0.142529
-0.128632
-0.103255
-0.0698519
-0.0358013
-0.0100977
0
0
0.00182775
0.00433233
0.00600686
0.00661908
0.00661256
0.00658222
0.00697467
0.00799453
0.00963102
0.0117273
0.0140489
0.016337
0.0183448
0.0198598
0.0207154
0.0207923
0.0200138
0.0183363
0.0157372
0.0122032
0.0077185
0.00225405
-0.00424201
-0.0118517
-0.0206902
-0.0308996
-0.0426244
-0.0559567
-0.0708341
-0.0868768
-0.103164
-0.117985
-0.128688
-0.131841
-0.124044
-0.103598
-0.0726624
-0.0384058
-0.011127
0
0
0.00222577
0.0058939
0.0093434
0.0121334
0.0145295
0.0170079
0.0199412
0.0234796
0.0275608
0.0319749
0.0364373
0.0406473
0.0443288
0.047254
0.0492537
0.0502162
0.0500797
0.0488201
0.0464382
0.0429461
0.0383561
0.0326707
0.0258727
0.0179174
0.00872489
-0.00182171
-0.0138673
-0.0275524
-0.0429392
-0.0598749
-0.0777721
-0.0953128
-0.110151
-0.118826
-0.117283
-0.102444
-0.0748495
-0.0409609
-0.0122188
0
0
0.00242627
0.00690658
0.0118059
0.0165534
0.0212384
0.026187
0.0316638
0.0377418
0.0442972
0.0510667
0.0577187
0.0639143
0.0693501
0.0737823
0.0770356
0.0790008
0.0796242
0.0788946
0.0768286
0.0734576
0.0688166
0.0629352
0.055829
0.047491
0.0378829
0.0269269
0.0145029
0.000461038
-0.0153345
-0.0329037
-0.0519596
-0.0716022
-0.0899208
-0.103664
-0.108391
-0.0997549
-0.0764051
-0.0435255
-0.0134144
0
0
0.00238903
0.00724405
0.0131747
0.0195851
0.0264014
0.0337657
0.0417927
0.0504466
0.059526
0.0687094
0.0776201
0.0858846
0.0931746
0.0992302
0.103868
0.106976
0.108503
0.108446
0.106831
0.103702
0.0991143
0.0931195
0.0857629
0.0770736
0.0670551
0.055674
0.0428487
0.0284462
0.0122992
-0.00573096
-0.0256066
-0.0468342
-0.0680193
-0.0863346
-0.0972569
-0.0953761
-0.0772577
-0.046159
-0.0147732
0
0
0.00205503
0.00674669
0.0131975
0.0209127
0.0296714
0.0393929
0.0499903
0.0612787
0.0729558
0.0846329
0.0958883
0.106317
0.115571
0.123373
0.129533
0.133934
0.136524
0.137302
0.136301
0.133577
0.129198
0.123238
0.115769
0.10685
0.0965238
0.0847989
0.0716345
0.056926
0.0405013
0.0221491
0.00171428
-0.0206752
-0.0441746
-0.0665559
-0.0835415
-0.0889614
-0.0772117
-0.0488987
-0.0163802
0
0
0.00132501
0.00518696
0.0115595
0.0201816
0.0306881
0.0427232
0.0559371
0.0699474
0.0843217
0.0985922
0.112291
0.124986
0.136311
0.145982
0.1538
0.159644
0.163462
0.165255
0.165061
0.162947
0.158997
0.153301
0.145955
0.137045
0.126643
0.114789
0.101477
0.0866262
0.0700701
0.0515536
0.0307811
0.00757355
-0.0177614
-0.0437203
-0.0666
-0.079885
-0.0758663
-0.0517246
-0.0183604
0
0
2.1453e-05
0.00221408
0.0078393
0.0169757
0.0290745
0.0434258
0.0593446
0.0761988
0.0933957
0.110376
0.126623
0.141686
0.155187
0.166841
0.176448
0.183888
0.189113
0.192128
0.192982
0.191752
0.188536
0.183442
0.176584
0.168066
0.157978
0.146378
0.133272
0.11859
0.102164
0.0837036
0.0628117
0.0390656
0.0122888
-0.016801
-0.045383
-0.0671253
-0.072498
-0.0544982
-0.0209041
0
0
-0.0021745
-0.0027237
0.00145827
0.0108021
0.0244461
0.041207
0.0599831
0.0798446
0.100015
0.119835
0.138746
0.156281
0.172068
0.185829
0.197374
0.206595
0.213454
0.217969
0.2202
0.220239
0.218196
0.214194
0.208353
0.200786
0.191583
0.180797
0.168425
0.154385
0.138482
0.120386
0.0996136
0.0755546
0.0476288
0.0157822
-0.0182968
-0.0490958
-0.0658704
-0.0568378
-0.0242971
0
0
-0.00581717
-0.0104584
-0.00833432
0.00112995
0.0164836
0.0359013
0.057785
0.0808776
0.104213
0.127039
0.148764
0.168924
0.187164
0.203229
0.216954
0.228253
0.237105
0.243546
0.24765
0.24952
0.249274
0.247035
0.242923
0.237038
0.229453
0.220194
0.209225
0.196422
0.181541
0.164191
0.143797
0.1196
0.0907023
0.0563655
0.017006
-0.0233833
-0.0539002
-0.0578425
-0.0289111
0
0
-0.0118001
-0.0220735
-0.0222649
-0.0122986
0.00531722
0.0279159
0.053352
0.0800485
0.106874
0.133008
0.157851
0.180958
0.202009
0.220785
0.237154
0.251058
0.262497
0.27152
0.27821
0.282671
0.285017
0.28536
0.283799
0.28041
0.275229
0.26824
0.259356
0.24839
0.235031
0.218803
0.199033
0.174817
0.145011
0.108331
0.0639401
0.0136653
-0.0330554
-0.0554665
-0.0350106
0
0
-0.0213371
-0.0383523
-0.0399841
-0.0280508
-0.00676895
0.0201822
0.0501248
0.081226
0.112251
0.142359
0.170972
0.197688
0.222231
0.244426
0.264175
0.281444
0.296248
0.308642
0.318706
0.326532
0.33222
0.335859
0.337519
0.337242
0.335026
0.330807
0.324444
0.315688
0.304153
0.289276
0.270275
0.246103
0.215404
0.176482
0.127447
0.0675816
0.00271829
-0.0451319
-0.0419793
0
0
-0.0352505
-0.0572521
-0.0559998
-0.0378005
-0.0093383
0.0246605
0.0611541
0.0982375
0.134717
0.169836
0.203102
0.234196
0.262914
0.289134
0.312798
0.333897
0.352461
0.368546
0.382228
0.393591
0.402716
0.409676
0.414519
0.417262
0.417874
0.41626
0.412241
0.405523
0.395667
0.382045
0.363785
0.339717
0.308293
0.267495
0.214677
0.146752
0.0638387
-0.016735
-0.0459557
0
0
-0.0499622
-0.0641532
-0.0461896
-0.0111331
0.0316499
0.0771683
0.122821
0.167238
0.209683
0.249754
0.287223
0.321969
0.353929
0.383086
0.409455
0.433079
0.45402
0.472357
0.488179
0.501577
0.512636
0.521428
0.528002
0.53237
0.534498
0.534284
0.53154
0.525964
0.517106
0.504324
0.486725
0.463091
0.431766
0.390501
0.336164
0.264094
0.168138
0.0517121
-0.033011
0
0
-0.0349457
0.00506993
0.0695554
0.136068
0.198402
0.255414
0.307325
0.354631
0.397798
0.437199
0.473118
0.505772
0.535331
0.561936
0.585714
0.606785
0.625268
0.641281
0.654943
0.666365
0.675649
0.68288
0.688117
0.691385
0.692658
0.691851
0.688799
0.683232
0.67475
0.662783
0.646538
0.624916
0.59639
0.558778
0.508812
0.441246
0.346477
0.207619
0.0422765
0
0
0.215715
0.38373
0.49427
0.570022
0.625308
0.668045
0.702632
0.731587
0.756395
0.77796
0.796851
0.813439
0.827979
0.840658
0.851625
0.861004
0.868908
0.875441
0.880699
0.884769
0.887729
0.889637
0.890535
0.890435
0.889319
0.887126
0.883745
0.879004
0.872651
0.864339
0.853594
0.839763
0.821917
0.798663
0.767695
0.724757
0.660811
0.553916
0.338545
0
