# vtk DataFile Version 2.0
v_velocity
ASCII
DATASET RECTILINEAR_GRID
DIMENSIONS 41 42 1
X_COORDINATES 41 double
0 0.0325168 0.0644289 0.0957562 0.126518 0.156734 0.186424 0.215604 0.244295 0.272513 0.300276 0.327602 0.354507 0.38101 0.407125 0.43287 0.45826 0.483312 0.50804 0.532462 0.556591 0.580442 0.604032 0.627374 0.650483 0.673374 0.696061 0.718557 0.740878 0.763037 0.785048 0.806924 0.82868 0.850328 0.871883 0.893358 0.914766 0.936121 0.957436 0.978725 1 
Y_COORDINATES 42 double
0 0.0125 0.0375 0.0625 0.0875 0.1125 0.1375 0.1625 0.1875 0.2125 0.2375 0.2625 0.2875 0.3125 0.3375 0.3625 0.3875 0.4125 0.4375 0.4625 0.4875 0.5125 0.5375 0.5625 0.5875 0.6125 0.6375 0.6625 0.6875 0.7125 0.7375 0.7625 0.7875 0.8125 0.8375 0.8625 0.8875 0.9125 0.9375 0.9625 0.9875 1 
Z_COORDINATES 1 double
0.0

CELL_DATA 1640
SCALARS v_velocity double 1
LOOKUP_TABLE default
0
0
0
0
0
0
0
0
0
0
0
0
0
0
0
0
0
0
0
0
0
0
0
0
0
0
0
0
0
0
0
0
0
0
0
0
0
0
0
0
-0.000192579
-6.22554e-05
0.000197977
0.000443064
0.000641213
0.000799783
0.00093208
0.00104572
0.0011407
0.00121115
0.00124796
0.00124123
0.00118209
0.00106422
0.000884906
0.000645826
0.000353509
1.93357e-05
-0.000340913
-0.00070799
-0.00106056
-0.00137689
-0.00163675
-0.00182323
-0.00192434
-0.00193413
-0.00185323
-0.00168867
-0.00145307
-0.00116324
-0.000838634
-0.000499686
-0.000166634
0.000140947
0.000403547
0.000599899
0.000704196
0.000684038
0.000505844
0.000172846
-0.000336172
0.000205759
0.00108121
0.00191457
0.00261157
0.0031828
0.00365813
0.00405328
0.00436304
0.00456599
0.00463246
0.00453224
0.00424063
0.003743
0.00303782
0.00213845
0.00107346
-0.000114205
-0.00136958
-0.00262908
-0.00382485
-0.00488978
-0.00576265
-0.00639298
-0.00674515
-0.00680138
-0.0065631
-0.00605069
-0.00530147
-0.00436639
-0.00330582
-0.00218521
-0.00107158
-3.15717e-05
0.000868242
0.00155862
0.00196366
0.00199906
0.00158166
0.000669377
-0.000206046
0.00111844
0.00290186
0.00457541
0.00599175
0.00716524
0.00813855
0.00892861
0.00951627
0.00985572
0.00988972
0.00956406
0.00883883
0.00769622
0.00614519
0.00422322
0.00199549
-0.000448216
-0.00299863
-0.00553372
-0.00792645
-0.0100532
-0.0118021
-0.0130811
-0.0138245
-0.0139981
-0.0136017
-0.0126693
-0.0112666
-0.00948553
-0.00743818
-0.00524905
-0.00304865
-0.000968984
0.000857835
0.00229776
0.00321092
0.00344903
0.00286015
0.00130727
0.000316121
0.00287935
0.00585153
0.00856489
0.0108609
0.0127703
0.0143463
0.0155984
0.0164837
0.0169247
0.0168333
0.0161323
0.0147721
0.0127404
0.0100671
0.00682464
0.00312509
-0.000886181
-0.0050386
-0.00914603
-0.0130174
-0.0164679
-0.01933
-0.0214639
-0.0227673
-0.0231825
-0.0227017
-0.0213675
-0.0192716
-0.0165482
-0.0133656
-0.00991554
-0.00640338
-0.00303978
-3.62618e-05
0.00239509
0.00403832
0.00466891
0.00405069
0.0019352
0.00129571
0.00561524
0.0100588
0.0139803
0.0172731
0.0200086
0.022252
0.0239979
0.0251714
0.0256584
0.0253397
0.0241201
0.0219475
0.0188238
0.0148082
0.0100148
0.00460621
-0.00121469
-0.00721584
-0.0131473
-0.0187534
-0.0237858
-0.0280163
-0.0312504
-0.0333393
-0.0341908
-0.0337778
-0.0321422
-0.0293943
-0.025707
-0.0213062
-0.0164566
-0.0114476
-0.0065805
-0.00215928
0.00151284
0.00413157
0.00538524
0.00494596
0.00245891
0.00276868
0.00939622
0.0155937
0.0208701
0.0252465
0.0288663
0.0318129
0.0340612
0.0354986
0.0359723
0.0353351
0.0334793
0.0303581
0.0259939
0.0204788
0.0139692
0.00667639
-0.00114387
-0.00920269
-0.0171902
-0.0247878
-0.0316819
-0.0375781
-0.0422171
-0.0453901
-0.0469548
-0.046848
-0.0450948
-0.0418117
-0.0372029
-0.0315494
-0.0251932
-0.018517
-0.0119257
-0.00583073
-0.000641398
0.00323622
0.00539316
0.00540649
0.00282571
0.00475022
0.0142463
0.0224723
0.0292329
0.0347578
0.0392986
0.0429659
0.0457131
0.0473876
0.0477988
0.0467757
0.0442047
0.0400488
0.0343538
0.0272436
0.0189121
0.00961218
-0.000355456
-0.0106531
-0.0209171
-0.0307692
-0.0398297
-0.0477323
-0.0541421
-0.0587749
-0.0614177
-0.061949
-0.0603545
-0.0567371
-0.0513178
-0.0444265
-0.0364836
-0.0279746
-0.0194234
-0.0113672
-0.00434045
0.00113229
0.00453259
0.00533776
0.003008
0.00723658
0.0201477
0.0306613
0.0390189
0.0457415
0.0512257
0.055621
0.0588603
0.0607514
0.0610691
0.0596235
0.0562993
0.0510723
0.0440097
0.0352626
0.0250547
0.013671
0.00144741
-0.0112391
-0.0239789
-0.0363396
-0.0478776
-0.0581522
-0.0667441
-0.0732781
-0.077449
-0.0790493
-0.0779952
-0.0743467
-0.0683172
-0.0602703
-0.0507006
-0.0402044
-0.0294411
-0.0190975
-0.00985801
-0.00238894
0.00266405
0.00466779
0.00299042
0.0102044
0.0270433
0.0400809
0.0501328
0.05809
0.064531
0.0696562
0.073382
0.0754791
0.0756918
0.0738155
0.0697361
0.0634413
0.0550163
0.0446329
0.0325369
0.0190367
0.00449373
-0.0106854
-0.0260553
-0.0411391
-0.0554367
-0.0684367
-0.0796333
-0.0885495
-0.0947676
-0.0979644
-0.0979492
-0.0946984
-0.0883799
-0.0793611
-0.0681961
-0.0555925
-0.0423628
-0.029371
-0.0174853
-0.00754605
-0.000353858
0.0033274
0.00275997
0.0136094
0.0348366
0.0506072
0.0624356
0.0716547
0.0790588
0.0849123
0.0891204
0.0914206
0.0915307
0.0892347
0.0844202
0.077085
0.0673289
0.0553396
0.0413798
0.0257752
0.00890542
-0.00880302
-0.0268816
-0.0448233
-0.0620871
-0.078104
-0.0922898
-0.104065
-0.112885
-0.118285
-0.119925
-0.117647
-0.111517
-0.101858
-0.0892484
-0.0744951
-0.0585744
-0.0425584
-0.0275416
-0.0145845
-0.00468329
0.00123417
0.00229835
0.0173863
0.0433942
0.0620757
0.0757483
0.0862476
0.0946138
0.101189
0.105872
0.108373
0.108387
0.105686
0.100162
0.0918205
0.0807743
0.0672269
0.0514573
0.0338069
0.0146688
-0.00551958
-0.0262809
-0.0470979
-0.0674115
-0.0866199
-0.104081
-0.119127
-0.131088
-0.139336
-0.143346
-0.142764
-0.137487
-0.127715
-0.113992
-0.097186
-0.078432
-0.0590381
-0.0403757
-0.0237862
-0.0105204
-0.00171941
0.00157639
0.0214491
0.0525479
0.0742851
0.0898554
0.101644
0.110962
0.118242
0.123385
0.126076
0.125988
0.122889
0.116668
0.107344
0.0950451
0.0799947
0.0624932
0.0429006
0.0216223
-0.000901291
-0.0241987
-0.0477649
-0.0710524
-0.0934605
-0.114325
-0.13292
-0.148469
-0.160182
-0.167322
-0.169286
-0.165715
-0.156595
-0.142333
-0.123785
-0.102211
-0.0791662
-0.0563531
-0.0354695
-0.0181013
-0.0056726
0.000550624
0.0256935
0.0620993
0.0870018
0.10451
0.117587
0.127834
0.135788
0.141357
0.144208
0.143995
0.140478
0.133551
0.123248
0.109721
0.0932234
0.0740854
0.0526931
0.0294658
0.00484206
-0.0207259
-0.0467673
-0.0727779
-0.0981976
-0.122387
-0.144608
-0.16402
-0.179698
-0.19069
-0.196108
-0.195258
-0.187795
-0.173859
-0.15417
-0.130031
-0.103226
-0.0758268
-0.0499757
-0.0276982
-0.0107973
-0.000837845
0.0300009
0.0718257
0.099967
0.119439
0.133792
0.144932
0.153509
0.159451
0.162406
0.162015
0.158031
0.150362
0.139061
0.124316
0.106423
0.0857561
0.0627349
0.0377974
0.0113785
-0.0160981
-0.0442137
-0.0725352
-0.100583
-0.127791
-0.15347
-0.176776
-0.196706
-0.212125
-0.221856
-0.224817
-0.220217
-0.207772
-0.187893
-0.161779
-0.131361
-0.0990913
-0.0676432
-0.0396076
-0.0172934
-0.00266237
0.0342436
0.0814885
0.112904
0.134353
0.149959
0.161938
0.171067
0.177301
0.180278
0.179628
0.175105
0.166631
0.154296
0.138334
0.119099
0.0970179
0.0725553
0.0461729
0.0183032
-0.0106621
-0.0403673
-0.0704692
-0.1006
-0.130313
-0.15903
-0.185979
-0.210155
-0.230319
-0.245043
-0.252847
-0.252413
-0.242875
-0.22412
-0.197023
-0.163497
-0.126325
-0.0887693
-0.0541287
-0.0253787
-0.00500808
0.038291
0.0908415
0.125527
0.148953
0.165777
0.178527
0.188117
0.19454
0.197435
0.196425
0.191271
0.181922
0.168511
0.151336
0.130816
0.107443
0.0817333
0.0541766
0.0252069
-0.00481495
-0.0355972
-0.0668946
-0.0984678
-0.130024
-0.161146
-0.191208
-0.219303
-0.244184
-0.264272
-0.277738
-0.282716
-0.277632
-0.261625
-0.23496
-0.199276
-0.157524
-0.113564
-0.0715365
-0.0352758
-0.00796802
0.0420168
0.0996415
0.137551
0.162941
0.18094
0.194379
0.204322
0.210816
0.21351
0.21203
0.206153
0.195864
0.181351
0.162982
0.141251
0.116719
0.0899561
0.0614849
0.031744
0.00106913
-0.0303057
-0.0622282
-0.0945887
-0.127261
-0.160022
-0.192454
-0.223836
-0.253041
-0.278465
-0.298053
-0.309446
-0.310312
-0.298854
-0.274418
-0.238003
-0.192448
-0.142104
-0.09205
-0.0471958
-0.0116386
0.0453056
0.107659
0.148702
0.17603
0.195155
0.209194
0.219375
0.225813
0.228185
0.226132
0.219456
0.208185
0.192573
0.17306
0.150216
0.124672
0.0970504
0.0679049
0.0376822
0.00670052
-0.0248521
-0.0569014
-0.0894532
-0.122539
-0.156141
-0.190084
-0.223906
-0.256709
-0.287026
-0.31274
-0.331144
-0.339202
-0.334081
-0.313917
-0.278649
-0.230577
-0.174285
-0.115801
-0.0613214
-0.0161143
0.0480603
0.114687
0.158729
0.187952
0.20815
0.2227
0.233001
0.239262
0.241201
0.238491
0.230969
0.218715
0.202047
0.18148
0.157656
0.131267
0.102981
0.0733806
0.0429207
0.0119091
-0.0194976
-0.0512824
-0.0835413
-0.11644
-0.150149
-0.184739
-0.220048
-0.255499
-0.289902
-0.321279
-0.346782
-0.362837
-0.365598
-0.351802
-0.319899
-0.271105
-0.209797
-0.142808
-0.0777914
-0.0214832
0.0502071
0.120555
0.167409
0.19847
0.219688
0.234662
0.244973
0.250946
0.252364
0.248943
0.240568
0.227374
0.209744
0.188258
0.16362
0.136574
0.107823
0.077969
0.0474759
0.016646
-0.0143821
-0.0456259
-0.0772419
-0.109495
-0.142707
-0.177176
-0.213039
-0.25009
-0.287531
-0.323705
-0.355875
-0.380179
-0.391929
-0.386416
-0.360257
-0.312976
-0.248113
-0.172957
-0.0966869
-0.0278219
0.0517
0.125132
0.174559
0.207381
0.229566
0.244887
0.255112
0.260705
0.261538
0.257389
0.248197
0.234153
0.215699
0.193471
0.168221
0.140727
0.111714
0.0817983
0.0514461
0.0209584
-0.00953291
-0.0400602
-0.0708108
-0.10211
-0.134388
-0.168123
-0.203725
-0.241362
-0.280691
-0.320527
-0.358483
-0.390719
-0.411992
-0.416281
-0.39818
-0.354951
-0.288506
-0.205996
-0.118025
-0.0351925
0.0525231
0.128336
0.180047
0.214527
0.237622
0.253224
0.263284
0.268427
0.26864
0.26378
0.253846
0.239084
0.219986
0.197227
0.171591
0.143875
0.114812
0.0850212
0.0549672
0.0249506
-0.00489566
-0.0346036
-0.0643665
-0.0945343
-0.125601
-0.15817
-0.192872
-0.230215
-0.270322
-0.312569
-0.355118
-0.394461
-0.425178
-0.440238
-0.432229
-0.395705
-0.330094
-0.241549
-0.141759
-0.0436417
0.052692
0.130141
0.183792
0.219795
0.243737
0.259561
0.269395
0.274042
0.273626
0.2681
0.257531
0.242214
0.222677
0.199624
0.173848
0.146148
0.117254
0.0877755
0.0581725
0.0287438
-0.000372819
-0.0291987
-0.0579156
-0.0868706
-0.11658
-0.147719
-0.181076
-0.217434
-0.257351
-0.300785
-0.34658
-0.391834
-0.43135
-0.45752
-0.461173
-0.433924
-0.371889
-0.279134
-0.167788
-0.0532029
0.0522526
0.13058
0.185775
0.223125
0.247834
0.263825
0.273384
0.277507
0.276475
0.27035
0.259272
0.243581
0.22383
0.200729
0.175067
0.147629
0.119128
0.0901567
0.061163
0.0324426
0.00413975
-0.0237518
-0.051392
-0.0791062
-0.107402
-0.136981
-0.168724
-0.203616
-0.242574
-0.28611
-0.3338
-0.383547
-0.430758
-0.467757
-0.484063
-0.46839
-0.412859
-0.318196
-0.195972
-0.0639022
0.0512797
0.129742
0.186041
0.224514
0.24988
0.265975
0.275219
0.278801
0.277177
0.270532
0.259082
0.243205
0.223466
0.200567
0.175275
0.148347
0.120467
0.0922045
0.0639902
0.036114
0.00872469
-0.0181678
-0.0446978
-0.0711599
-0.0980335
-0.126011
-0.156009
-0.189141
-0.226592
-0.269348
-0.317695
-0.370452
-0.423935
-0.470927
-0.500242
-0.498024
-0.451964
-0.358133
-0.226157
-0.0757678
0.0498744
0.12778
0.184705
0.224017
0.249885
0.266001
0.274883
0.277913
0.275727
0.268645
0.256958
0.241079
0.221572
0.199116
0.174444
0.148271
0.121244
0.0939004
0.0666509
0.0397755
0.0134253
-0.0123766
-0.0377404
-0.0629276
-0.0883806
-0.11476
-0.14298
-0.174209
-0.209808
-0.251126
-0.299083
-0.35342
-0.411575
-0.467271
-0.509319
-0.5219
-0.488179
-0.398312
-0.258192
-0.0888429
0.0481632
0.124906
0.181952
0.221749
0.247903
0.263914
0.27237
0.274829
0.272112
0.26467
0.252875
0.237167
0.218099
0.196316
0.172502
0.147323
0.12138
0.0951738
0.0690893
0.0433937
0.0182362
-0.00635123
-0.0304596
-0.0543214
-0.0783411
-0.103138
-0.129594
-0.158881
-0.192448
-0.23189
-0.27863
-0.333263
-0.39444
-0.457209
-0.511116
-0.539229
-0.520484
-0.438059
-0.291945
-0.103201
0.0462978
0.121396
0.178042
0.217891
0.244027
0.259747
0.267678
0.269533
0.266304
0.258574
0.24679
0.231411
0.212972
0.192073
0.169343
0.145389
0.120758
0.0959113
0.0712043
0.0468864
0.0231005
-0.000118201
-0.0228487
-0.0453012
-0.0678477
-0.0910651
-0.115787
-0.143154
-0.174627
-0.211935
-0.256853
-0.310691
-0.373286
-0.441268
-0.505614
-0.549314
-0.547819
-0.476623
-0.327306
-0.118964
0.044461
0.117593
0.173309
0.212681
0.238387
0.253546
0.260801
0.261993
0.25826
0.250305
0.238637
0.223732
0.206095
0.186276
0.164839
0.142328
0.119234
0.0959693
0.072858
0.0501277
0.0279094
0.00623498
-0.0149696
-0.0359009
-0.0569061
-0.0785234
-0.101535
-0.127022
-0.156409
-0.191456
-0.23414
-0.286298
-0.348821
-0.420026
-0.492899
-0.55151
-0.56903
-0.513098
-0.364164
-0.136324
0.0428811
0.113917
0.168161
0.206411
0.23114
0.24536
0.251722
0.252156
0.247914
0.23979
0.22834
0.214041
0.197366
0.178806
0.158857
0.137995
0.116649
0.095183
0.073883
0.0529503
0.0324988
0.0125511
-0.00696918
-0.0262525
-0.0456286
-0.0656029
-0.0869056
-0.110548
-0.137879
-0.170612
-0.210787
-0.26057
-0.321683
-0.394068
-0.473125
-0.545181
-0.582785
-0.546306
-0.402351
-0.155572
0.0418623
0.110892
0.163076
0.199404
0.222448
0.235225
0.240401
0.239948
0.235179
0.22694
0.215807
0.202245
0.186683
0.169548
0.151266
0.132241
0.112839
0.0933708
0.0740811
0.0551401
0.0366394
0.0185871
0.000899352
-0.0166134
-0.0342681
-0.0525411
-0.0721117
-0.0939149
-0.1192
-0.14958
-0.187048
-0.233901
-0.292426
-0.36396
-0.44649
-0.529667
-0.58749
-0.574621
-0.441533
-0.177146
0.0418458
0.109174
0.158587
0.191979
0.212438
0.223141
0.226763
0.225261
0.219944
0.21165
0.200943
0.18825
0.173947
0.158392
0.141937
0.124915
0.107625
0.0903225
0.0732073
0.0564145
0.0400102
0.0239847
0.0082449
-0.00739874
-0.0232507
-0.0397579
-0.0575467
-0.077471
-0.100667
-0.128613
-0.163173
-0.206614
-0.261504
-0.330221
-0.413216
-0.504277
-0.5812
-0.595733
-0.480984
-0.20171
0.0435177
0.109604
0.15525
0.184385
0.201149
0.209027
0.210677
0.207955
0.202074
0.193802
0.183642
0.171957
0.159054
0.145219
0.130726
0.115835
0.10078
0.0857583
0.0709235
0.0563744
0.0421509
0.0282263
0.0145004
0.000787589
-0.0131993
-0.027872
-0.0437986
-0.061745
-0.0827254
-0.10806
-0.139435
-0.178967
-0.229255
-0.293284
-0.373543
-0.468311
-0.561562
-0.606327
-0.519198
-0.230261
0.0479901
0.11324
0.153554
0.176694
0.188446
0.192676
0.191928
0.187832
0.1814
0.173248
0.163766
0.153225
0.141848
0.12984
0.117398
0.10471
0.0919452
0.0792466
0.0667222
0.0544374
0.042409
0.0305985
0.0189048
0.00715402
-0.00491485
-0.0176692
-0.0316096
-0.047405
-0.0659367
-0.0883522
-0.11613
-0.151162
-0.195884
-0.25346
-0.327723
-0.421145
-0.525837
-0.601703
-0.553173
-0.264234
0.0570624
0.121289
0.153707
0.168594
0.173871
0.173647
0.170136
0.16457
0.157634
0.149715
0.141037
0.131754
0.12199
0.111866
0.101503
0.0910206
0.0805299
0.0701244
0.0598735
0.0498152
0.0399501
0.030235
0.0205764
0.010821
0.000743759
-0.009968
-0.0217367
-0.0351234
-0.0508646
-0.0699203
-0.0935364
-0.123334
-0.161464
-0.210917
-0.276046
-0.362435
-0.471141
-0.575418
-0.577195
-0.305374
0.0734671
0.134618
0.155009
0.158896
0.156263
0.150952
0.144483
0.137469
0.130148
0.122603
0.11486
0.106931
0.0988377
0.0906186
0.0823251
0.0740174
0.065756
0.0575944
0.0495716
0.0417058
0.0339886
0.0263791
0.0187982
0.0111203
0.00316434
-0.00531933
-0.0146655
-0.0253162
-0.0378502
-0.0530228
-0.0718223
-0.0955575
-0.126013
-0.165774
-0.218961
-0.292526
-0.395207
-0.519295
-0.580898
-0.354703
0.100569
0.151854
0.15401
0.144106
0.132714
0.122323
0.113218
0.105155
0.097828
0.0909802
0.0844252
0.0780387
0.0717477
0.0655184
0.0593457
0.0532425
0.0472306
0.0413325
0.0355651
0.0299331
0.024424
0.0190037
0.0136112
0.00815282
0.00249566
-0.00354136
-0.0101988
-0.0177917
-0.0267305
-0.0375501
-0.0509558
-0.0678998
-0.0897245
-0.118455
-0.157474
-0.213205
-0.298141
-0.424792
-0.546582
-0.408705
0.138981
0.162972
0.139675
0.115616
0.0973168
0.0839941
0.074106
0.0664516
0.060223
0.0548981
0.0501446
0.0457541
0.0415991
0.0376067
0.0337394
0.0299821
0.0263327
0.0227939
0.019368
0.0160518
0.0128327
0.00968592
0.00657056
0.00342679
0.000171722
-0.00330536
-0.00714909
-0.0115461
-0.0167368
-0.0230323
-0.0308447
-0.0407405
-0.0535498
-0.0705954
-0.094218
-0.129043
-0.185807
-0.288239
-0.447088
-0.447495
0.165849
0.131623
0.0882137
0.0615625
0.0457428
0.0359868
0.029632
0.0252306
0.021979
0.0194187
0.0172826
0.0154128
0.0137159
0.012138
0.0106494
0.00923503
0.00788779
0.00660448
0.0053825
0.0042175
0.00310172
0.00202254
0.000961345
-0.000107697
-0.0012189
-0.00241658
-0.00375699
-0.00531089
-0.00716739
-0.00944016
-0.0122792
-0.0158946
-0.0206083
-0.0269711
-0.0360504
-0.0501417
-0.0748617
-0.125374
-0.25292
-0.397817
0
0
0
0
0
0
0
0
0
0
0
0
0
0
0
0
0
0
0
0
0
0
0
0
0
0
0
0
0
0
0
0
0
0
0
0
0
0
0
0
