# vtk DataFile Version 2.0
v_velocity
ASCII
DATASET RECTILINEAR_GRID
DIMENSIONS 41 42 1
X_COORDINATES 41 double
0 0.0325168 0.0644289 0.0957562 0.126518 0.156734 0.186424 0.215604 0.244295 0.272513 0.300276 0.327602 0.354507 0.38101 0.407125 0.43287 0.45826 0.483312 0.50804 0.532462 0.556591 0.580442 0.604032 0.627374 0.650483 0.673374 0.696061 0.718557 0.740878 0.763037 0.785048 0.806924 0.82868 0.850328 0.871883 0.893358 0.914766 0.936121 0.957436 0.978725 1 
Y_COORDINATES 42 double
0 0.0125 0.0375 0.0625 0.0875 0.1125 0.1375 0.1625 0.1875 0.2125 0.2375 0.2625 0.2875 0.3125 0.3375 0.3625 0.3875 0.4125 0.4375 0.4625 0.4875 0.5125 0.5375 0.5625 0.5875 0.6125 0.6375 0.6625 0.6875 0.7125 0.7375 0.7625 0.7875 0.8125 0.8375 0.8625 0.8875 0.9125 0.9375 0.9625 0.9875 1 
Z_COORDINATES 1 double
0.0

CELL_DATA 1640
SCALARS v_velocity double 1
LOOKUP_TABLE default
0
0
0
0
0
0
0
0
0
0
0
0
0
0
0
0
0
0
0
0
0
0
0
0
0
0
0
0
0
0
0
0
0
0
0
0
0
0
0
0
-0.000249474
-0.000156766
0.000111472
0.000385096
0.000623729
0.00083365
0.00102751
0.0012104
0.00137785
0.00151819
0.00161564
0.00165327
0.0016154
0.00148991
0.00127012
0.000956421
0.000557303
8.95906e-05
-0.000422174
-0.000947294
-0.00145133
-0.00189916
-0.00225839
-0.0025027
-0.0026147
-0.00258786
-0.00242719
-0.00214849
-0.00177631
-0.00134093
-0.000874854
-0.000409539
2.6911e-05
0.000410498
0.000720017
0.00093354
0.00102328
0.000951668
0.000678906
0.000217931
-0.000499511
-3.82869e-05
0.000883912
0.00182747
0.00267834
0.00344228
0.00414257
0.00478166
0.00533527
0.00575944
0.0060009
0.00600682
0.00573335
0.00515242
0.0042569
0.00306376
0.00161484
-2.47062e-05
-0.0017703
-0.00352374
-0.00518052
-0.00663805
-0.00780416
-0.00860505
-0.00899205
-0.00894616
-0.00847994
-0.00763613
-0.00648319
-0.00510821
-0.00360828
-0.00208193
-0.000622293
0.000686251
0.00176683
0.00254408
0.00293531
0.002845
0.00217663
0.000890823
-0.000463882
0.000777321
0.00268864
0.00460486
0.00635345
0.00793839
0.00938204
0.0106667
0.0117286
0.0124736
0.0127976
0.0126062
0.0118302
0.0104366
0.00843577
0.00588323
0.00287739
-0.000446294
-0.00392409
-0.00737467
-0.010611
-0.0134531
-0.0157402
-0.0173431
-0.0181741
-0.0181951
-0.0174209
-0.015919
-0.0138042
-0.0112279
-0.00836549
-0.00540177
-0.00251846
0.000113697
0.00233642
0.0039982
0.00494389
0.00500554
0.00400499
0.00177949
2.82221e-05
0.0025815
0.00581109
0.00894541
0.0118073
0.01441
0.016763
0.0188076
0.0204214
0.0214467
0.0217252
0.0211265
0.0195697
0.0170359
0.0135725
0.00929129
0.00436045
-0.00100644
-0.00656324
-0.0120451
-0.017183
-0.0217184
-0.0254184
-0.0280909
-0.0295988
-0.0298716
-0.0289134
-0.0268054
-0.0237008
-0.0198143
-0.0154045
-0.010754
-0.00615034
-0.00187088
0.00182337
0.00468505
0.00646943
0.00691985
0.00575622
0.00267004
0.00108523
0.00557066
0.0104494
0.0150071
0.0191425
0.0229
0.0262662
0.0291229
0.0312735
0.0324921
0.0325715
0.0313599
0.0287832
0.0248543
0.0196717
0.0134102
0.00630774
-0.00134938
-0.0092407
-0.017026
-0.0243597
-0.0309053
-0.0363528
-0.0404359
-0.0429513
-0.0437758
-0.0428812
-0.0403425
-0.0363371
-0.0311349
-0.025079
-0.0185589
-0.0119838
-0.00575793
-0.000266414
0.00412702
0.00707007
0.00820288
0.00713543
0.00342532
0.00277697
0.00986513
0.0167177
0.0228706
0.0283948
0.0333942
0.0378269
0.0415008
0.0441372
0.0454455
0.0451828
0.0431935
0.0394273
0.0339405
0.0268858
0.0184965
0.00907006
-0.00104784
-0.0114762
-0.0218109
-0.0316366
-0.0405404
-0.0481291
-0.0540486
-0.0580082
-0.0598056
-0.0593501
-0.0566811
-0.0519758
-0.0455442
-0.0378093
-0.0292756
-0.0204909
-0.0120101
-0.00436836
0.00192971
0.00640413
0.00857877
0.00795275
0.00397188
0.00514205
0.0155178
0.0246509
0.0325386
0.0395291
0.0458175
0.051331
0.0557955
0.058851
0.060152
0.0594368
0.056562
0.051512
0.0443888
0.0353942
0.0248091
0.0129759
0.000284512
-0.0128383
-0.0259373
-0.0385375
-0.0501545
-0.0603101
-0.0685522
-0.0744828
-0.0777902
-0.078284
-0.0759268
-0.0708573
-0.0633959
-0.0540308
-0.0433833
-0.0321578
-0.0210888
-0.0108956
-0.0022561
0.00419563
0.00785097
0.00809554
0.00427937
0.00818767
0.0225172
0.0342083
0.0439393
0.0524413
0.060033
0.0666122
0.0718217
0.0752265
0.0764408
0.075199
0.0713812
0.0650099
0.05623
0.0452841
0.0324905
0.0182248
0.00290824
-0.0130008
-0.0290116
-0.0446052
-0.0592398
-0.0723609
-0.0834187
-0.0918955
-0.0973432
-0.09943
-0.0979896
-0.0930648
-0.0849354
-0.0741193
-0.0613414
-0.0474754
-0.033468
-0.0202673
-0.00877034
0.000195975
0.00586405
0.00749373
0.00434055
0.0118869
0.030789
0.045279
0.0569315
0.0669618
0.0758435
0.0834501
0.0893454
0.09303
0.0940913
0.0922709
0.0874781
0.0797738
0.0693423
0.0564638
0.0414893
0.0248226
0.00690752
-0.0117799
-0.030733
-0.0494129
-0.0672464
-0.0836271
-0.0979238
-0.109502
-0.117763
-0.122196
-0.122446
-0.118385
-0.110173
-0.0982889
-0.0835211
-0.0669053
-0.0496303
-0.0329269
-0.0179756
-0.00585493
0.0024635
0.00608503
0.00415345
0.0161766
0.0401976
0.0576872
0.0713112
0.0828604
0.0929937
0.101568
0.108076
0.111963
0.112803
0.110349
0.104545
0.0954892
0.08341
0.068629
0.0515353
0.0325621
0.0121702
-0.0091603
-0.0309296
-0.0526105
-0.0736357
-0.0933863
-0.111186
-0.126311
-0.138016
-0.145591
-0.148439
-0.146178
-0.138741
-0.12646
-0.110098
-0.0908092
-0.0700329
-0.0493394
-0.030276
-0.0142598
-0.00253905
0.00378483
0.00370656
0.0209568
0.0505506
0.071199
0.0868191
0.0998537
0.111175
0.120634
0.127659
0.131654
0.13218
0.129013
0.12213
0.111678
0.0979386
0.0812897
0.0621697
0.0410472
0.0183975
-0.00530815
-0.0296002
-0.0539965
-0.0779792
-0.100968
-0.122295
-0.141197
-0.15682
-0.168264
-0.174663
-0.175305
-0.169778
-0.158117
-0.140914
-0.119336
-0.0950336
-0.0699559
-0.0461125
-0.0253784
-0.00938816
0.000465584
0.00296877
0.0260939
0.061605
0.0855318
0.10315
0.117613
0.130032
0.140265
0.147685
0.15166
0.151747
0.147745
0.139677
0.127752
0.112324
0.0938452
0.0728197
0.0497581
0.0251491
-0.000554826
-0.0269338
-0.05358
-0.0800653
-0.1059
-0.13049
-0.153102
-0.172842
-0.188672
-0.199473
-0.204164
-0.201881
-0.192199
-0.175335
-0.152279
-0.124778
-0.0951402
-0.0659268
-0.0396175
-0.0183891
-0.00405159
0.00188472
0.0314258
0.0730765
0.100364
0.119963
0.135776
0.149176
0.160042
0.167704
0.171496
0.17098
0.165986
0.156595
0.1431
0.12595
0.105691
0.0829043
0.0581484
0.0319252
0.00466175
-0.023283
-0.0515944
-0.0799629
-0.108033
-0.135343
-0.161267
-0.184964
-0.205351
-0.221126
-0.230863
-0.233197
-0.227093
-0.212162
-0.188949
-0.159063
-0.125062
-0.0900923
-0.0573957
-0.0298932
-0.00999247
0.000375613
0.0367703
0.0846517
0.115347
0.136896
0.153961
0.168201
0.179533
0.187253
0.190674
0.189364
0.183201
0.172344
0.157188
0.138298
0.116328
0.0919431
0.0657523
0.038268
0.00989014
-0.0190867
-0.0484461
-0.0780079
-0.107573
-0.136856
-0.165407
-0.192532
-0.217221
-0.238114
-0.253542
-0.261668
-0.260772
-0.249653
-0.228094
-0.197219
-0.159576
-0.118823
-0.0790854
-0.0442668
-0.017615
-0.00165613
0.0419353
0.096001
0.130119
0.153577
0.171782
0.186701
0.198312
0.205892
0.20874
0.206447
0.198949
0.186505
0.169631
0.14902
0.12544
0.0996379
0.0722693
0.0438537
0.0147631
-0.0147675
-0.0446118
-0.0747112
-0.105022
-0.13545
-0.165763
-0.195491
-0.223817
-0.24948
-0.270728
-0.285386
-0.291085
-0.285698
-0.267949
-0.238051
-0.198119
-0.152073
-0.104942
-0.0618486
-0.0271876
-0.00432004
0.0467307
0.106793
0.144316
0.169637
0.188866
0.204295
0.215991
0.223232
0.225318
0.221877
0.212921
0.198823
0.180233
0.157975
0.132924
0.105903
0.0776013
0.0485406
0.019065
-0.0106411
-0.0405243
-0.0706252
-0.101033
-0.131829
-0.163005
-0.19436
-0.225361
-0.254994
-0.281625
-0.302955
-0.31613
-0.318124
-0.306415
-0.279885
-0.239661
-0.189454
-0.135029
-0.0829019
-0.0389643
-0.00773003
0.0509802
0.116711
0.157588
0.184728
0.204867
0.220639
0.232234
0.238958
0.24013
0.235427
0.224956
0.209212
0.188981
0.16521
0.13887
0.110841
0.081834
0.0523638
0.0227477
-0.00687042
-0.0364897
-0.0662194
-0.0962447
-0.126785
-0.15803
-0.190046
-0.222633
-0.255134
-0.286225
-0.313732
-0.334587
-0.345055
-0.341358
-0.320736
-0.282736
-0.230188
-0.169157
-0.107567
-0.0531594
-0.0119967
0.0545317
0.125462
0.169609
0.198529
0.219478
0.235442
0.246774
0.252838
0.252995
0.246988
0.235025
0.217726
0.196003
0.170912
0.143499
0.114681
0.0851779
0.0554872
0.0258999
-0.00347123
-0.0326577
-0.0618071
-0.0911595
-0.121023
-0.151737
-0.183596
-0.216726
-0.250887
-0.285202
-0.317864
-0.345909
-0.365212
-0.370933
-0.358568
-0.325582
-0.273127
-0.206846
-0.135823
-0.069923
-0.0172199
0.0572669
0.132799
0.18009
0.210757
0.232438
0.248471
0.259411
0.264722
0.263826
0.256547
0.243195
0.224506
0.201505
0.175334
0.147088
0.117705
0.0878959
0.0581359
0.0286897
-0.000352777
-0.0290397
-0.0575311
-0.0860852
-0.115051
-0.144854
-0.17596
-0.208772
-0.243459
-0.279665
-0.316133
-0.350303
-0.378056
-0.39385
-0.391581
-0.366345
-0.316844
-0.247333
-0.167464
-0.0893225
-0.0234814
0.059108
0.138521
0.188784
0.221172
0.243534
0.259547
0.270011
0.274526
0.272604
0.264154
0.249585
0.229736
0.205719
0.178735
0.14991
0.12018
0.0902385
0.0605341
0.0313062
0.00262804
-0.0255537
-0.0533936
-0.0811401
-0.109142
-0.137857
-0.167848
-0.199725
-0.23401
-0.270866
-0.309685
-0.348555
-0.383746
-0.409483
-0.418429
-0.403311
-0.359779
-0.289621
-0.202102
-0.111332
-0.0308398
0.0600208
0.142489
0.195498
0.229579
0.252601
0.268546
0.278492
0.282218
0.27935
0.269887
0.254328
0.23359
0.208846
0.181332
0.152181
0.122315
0.0924016
0.0628625
0.0339146
0.00561927
-0.0220748
-0.0493062
-0.0762968
-0.103367
-0.130963
-0.159679
-0.190251
-0.223467
-0.259951
-0.299756
-0.341766
-0.382965
-0.417833
-0.438327
-0.435086
-0.400406
-0.33257
-0.239192
-0.135838
-0.0393276
0.0600161
0.144633
0.200097
0.235834
0.259521
0.275386
0.284812
0.287799
0.284106
0.273828
0.257534
0.2362
0.21103
0.183269
0.154039
0.124238
0.0945057
0.065237
0.036631
0.00874194
-0.0184756
-0.0451402
-0.0714398
-0.0976514
-0.12418
-0.151604
-0.180707
-0.212448
-0.247811
-0.287458
-0.331112
-0.376695
-0.419384
-0.451024
-0.460697
-0.43737
-0.374995
-0.278081
-0.162649
-0.0489542
0.0591472
0.14495
0.202509
0.239842
0.264214
0.28002
0.28896
0.291284
0.286913
0.276034
0.259276
0.237642
0.212343
0.184611
0.15554
0.125997
0.0965942
0.0677048
0.0395145
0.0120745
-0.0146527
-0.0407653
-0.0664173
-0.091839
-0.11738
-0.14357
-0.171183
-0.201258
-0.235028
-0.273651
-0.317651
-0.365998
-0.414907
-0.456704
-0.479592
-0.469576
-0.415764
-0.318068
-0.191534
-0.0597122
0.0575056
0.143511
0.20273
0.241558
0.266637
0.282427
0.290936
0.292692
0.287797
0.276535
0.259575
0.237928
0.212785
0.185342
0.156658
0.127563
0.0986419
0.0702517
0.0425701
0.0156493
-0.0105387
-0.0360739
-0.0610807
-0.0857464
-0.110364
-0.135401
-0.161582
-0.189953
-0.221885
-0.258904
-0.302225
-0.351865
-0.405294
-0.455839
-0.49158
-0.496206
-0.453851
-0.358452
-0.222252
-0.0715907
0.0552151
0.140461
0.200832
0.240993
0.266781
0.282606
0.290749
0.292035
0.286764
0.275321
0.258404
0.237009
0.212286
0.185382
0.157304
0.128846
0.100568
0.0728126
0.0457565
0.0194565
-0.00610537
-0.0309931
-0.0553078
-0.0792019
-0.102919
-0.126864
-0.151693
-0.178411
-0.208435
-0.24352
-0.285424
-0.33512
-0.391421
-0.449056
-0.496735
-0.516692
-0.488362
-0.398567
-0.254589
-0.0845915
0.0524252
0.136011
0.196961
0.238216
0.264673
0.280568
0.288408
0.289314
0.283799
0.272351
0.255693
0.234787
0.210727
0.184593
0.157337
0.12971
0.102247
0.0752832
0.0489959
0.0234498
-0.00136162
-0.0254889
-0.0490156
-0.0720693
-0.0948566
-0.117727
-0.141268
-0.166417
-0.194568
-0.227585
-0.267602
-0.316389
-0.374069
-0.437029
-0.495297
-0.530652
-0.518504
-0.437785
-0.288391
-0.0987492
0.0493049
0.130438
0.191343
0.233358
0.260372
0.276338
0.283919
0.284516
0.278861
0.267554
0.251336
0.231126
0.207947
0.182802
0.156578
0.129982
0.103523
0.0775288
0.0521802
0.0275521
0.0036497
-0.0195655
-0.0421649
-0.0642604
-0.0860344
-0.107797
-0.130076
-0.153733
-0.180098
-0.211048
-0.248929
-0.296112
-0.35389
-0.420414
-0.487595
-0.537827
-0.543541
-0.475484
-0.323574
-0.114154
0.0460393
0.12408
0.184286
0.22662
0.253979
0.26995
0.277279
0.277611
0.271892
0.260838
0.245206
0.225867
0.203762
0.179811
0.154828
0.129469
0.104218
0.0793918
0.0551772
0.031659
0.00885425
-0.0132652
-0.0347627
-0.0557423
-0.0763745
-0.0969462
-0.117941
-0.140154
-0.16483
-0.193789
-0.229452
-0.274576
-0.331407
-0.39981
-0.473987
-0.53801
-0.562726
-0.51098
-0.360114
-0.130981
0.0428294
0.117335
0.176178
0.218271
0.245634
0.26145
0.268476
0.268551
0.262816
0.252097
0.237164
0.21884
0.19798
0.175413
0.151874
0.127965
0.104138
0.0806981
0.0578345
0.0356413
0.0141466
-0.00666925
-0.026865
-0.0465435
-0.0658736
-0.0851337
-0.104782
-0.125558
-0.148622
-0.175695
-0.209163
-0.251965
-0.307032
-0.375756
-0.454835
-0.531005
-0.575217
-0.543419
-0.397998
-0.149522
0.0399015
0.11066
0.167484
0.20865
0.235518
0.250895
0.257489
0.257271
0.251539
0.24121
0.227069
0.209882
0.190418
0.16941
0.147513
0.125267
0.103086
0.0812633
0.0599827
0.0393457
0.0193885
9.74658e-05
-0.0185849
-0.0367653
-0.054619
-0.072427
-0.0906358
-0.109948
-0.131442
-0.156726
-0.188066
-0.228415
-0.281099
-0.348733
-0.430498
-0.516599
-0.580013
-0.571638
-0.437126
-0.170244
0.0375306
0.104588
0.158738
0.198146
0.223837
0.238343
0.244282
0.243686
0.23795
0.228055
0.214781
0.198838
0.180906
0.161621
0.141555
0.121181
0.100873
0.0808994
0.0614388
0.042593
0.0244024
0.00685532
-0.010108
-0.026602
-0.0428129
-0.0590304
-0.0756988
-0.0934924
-0.113421
-0.136969
-0.166241
-0.204063
-0.253891
-0.319176
-0.401327
-0.494556
-0.575881
-0.593974
-0.477115
-0.193867
0.0360905
0.0997504
0.150529
0.187166
0.210801
0.223841
0.228801
0.227691
0.221929
0.212505
0.200174
0.185577
0.169305
0.151899
0.133841
0.115539
0.097318
0.0794179
0.0620028
0.045169
0.0289544
0.0133452
-0.00172433
-0.0163777
-0.0308125
-0.0453274
-0.0603648
-0.0765734
-0.094898
-0.116699
-0.143894
-0.179096
-0.225665
-0.28747
-0.367678
-0.464631
-0.561317
-0.608034
-0.516968
-0.221465
0.0361514
0.096923
0.143465
0.176078
0.196565
0.207396
0.210964
0.209165
0.203345
0.194439
0.183135
0.169994
0.15551
0.140128
0.124243
0.108193
0.0922484
0.0766152
0.0614347
0.0467901
0.032711
0.019177
0.00611562
-0.00660426
-0.0191865
-0.0319313
-0.0452706
-0.0598204
-0.0764553
-0.0964091
-0.121403
-0.153785
-0.196662
-0.253938
-0.329894
-0.426617
-0.534558
-0.610446
-0.55455
-0.254545
0.0386535
0.0970781
0.138108
0.16511
0.181156
0.188928
0.190644
0.18797
0.182071
0.173748
0.163576
0.152009
0.139439
0.126211
0.112635
0.0989745
0.0854438
0.0722071
0.0593773
0.0470189
0.0351496
0.0237415
0.012718
0.00194725
-0.00877055
-0.0197231
-0.0313163
-0.0441174
-0.058917
-0.0768128
-0.0993185
-0.128496
-0.167109
-0.218805
-0.28827
-0.380398
-0.493689
-0.596632
-0.585789
-0.294957
0.045187
0.101395
0.134838
0.154209
0.164376
0.16822
0.167646
0.163944
0.157976
0.15032
0.14139
0.131509
0.120951
0.109964
0.0987689
0.0875562
0.0764836
0.0656717
0.0552032
0.045123
0.035438
0.0261163
0.0170843
0.00821971
-0.000659474
-0.00981189
-0.0195981
-0.0305166
-0.0432538
-0.0587529
-0.0783053
-0.103667
-0.137213
-0.182158
-0.242993
-0.326033
-0.436955
-0.560777
-0.603573
-0.344291
0.0583408
0.111035
0.133514
0.142796
0.145638
0.144797
0.141601
0.136781
0.130773
0.123862
0.116252
0.108112
0.0995956
0.0908497
0.0820116
0.0732046
0.0645329
0.0560779
0.0478953
0.0400142
0.0324352
0.0251288
0.0180317
0.011041
0.00400472
-0.00329225
-0.0111481
-0.0199725
-0.0303257
-0.0429725
-0.058956
-0.0796968
-0.107139
-0.143972
-0.194114
-0.263856
-0.363388
-0.496311
-0.596362
-0.402045
0.0817156
0.125897
0.1323
0.128865
0.123251
0.117326
0.111436
0.105556
0.0996067
0.093527
0.0872924
0.0809115
0.0744199
0.0678716
0.06133
0.0548599
0.0485203
0.0423596
0.0364116
0.0306932
0.0252022
0.0199146
0.0147819
0.00972573
0.00463092
-0.000664645
-0.0063846
-0.012834
-0.0204274
-0.0297262
-0.0414943
-0.0567744
-0.0770192
-0.104296
-0.141767
-0.194702
-0.273928
-0.397688
-0.546773
-0.460979
0.11743
0.139326
0.123135
0.105722
0.0923094
0.0823784
0.0747783
0.0686129
0.0632917
0.05845
0.0538728
0.0494421
0.0451026
0.0408383
0.0366568
0.0325775
0.0286237
0.0248166
0.0211713
0.017694
0.0143796
0.0112101
0.00815182
0.00515258
0.00213708
-0.000999017
-0.00439771
-0.00824994
-0.0128121
-0.0184267
-0.0255584
-0.0348371
-0.0471678
-0.0638619
-0.087136
-0.120763
-0.173222
-0.265145
-0.431674
-0.495285
0.148146
0.11928
0.0824132
0.0596322
0.0459516
0.0373886
0.0316988
0.0276462
0.0245396
0.0219858
0.0197602
0.0177357
0.0158433
0.0140487
0.0123378
0.0107078
0.0091609
0.0077004
0.0063282
0.00504303
0.00383925
0.00270593
0.00162583
0.000574196
-0.000482923
-0.00159091
-0.00280983
-0.0042182
-0.00591954
-0.00804801
-0.0107857
-0.0143706
-0.0191689
-0.0256882
-0.0350059
-0.0487976
-0.0726254
-0.115564
-0.232466
-0.426136
0
0
0
0
0
0
0
0
0
0
0
0
0
0
0
0
0
0
0
0
0
0
0
0
0
0
0
0
0
0
0
0
0
0
0
0
0
0
0
0
