# vtk DataFile Version 2.0
pressure
ASCII
DATASET RECTILINEAR_GRID
DIMENSIONS 51 51 1
X_COORDINATES 51 double
0 0.02 0.04 0.06 0.08 0.1 0.12 0.14 0.16 0.18 0.2 0.22 0.24 0.26 0.28 0.3 0.32 0.34 0.36 0.38 0.4 0.42 0.44 0.46 0.48 0.5 0.52 0.54 0.56 0.58 0.6 0.62 0.64 0.66 0.68 0.7 0.72 0.74 0.76 0.78 0.8 0.82 0.84 0.86 0.88 0.9 0.92 0.94 0.96 0.98 1 
Y_COORDINATES 51 double
0 0.02 0.04 0.06 0.08 0.1 0.12 0.14 0.16 0.18 0.2 0.22 0.24 0.26 0.28 0.3 0.32 0.34 0.36 0.38 0.4 0.42 0.44 0.46 0.48 0.5 0.52 0.54 0.56 0.58 0.6 0.62 0.64 0.66 0.68 0.7 0.72 0.74 0.76 0.78 0.8 0.82 0.84 0.86 0.88 0.9 0.92 0.94 0.96 0.98 1 
Z_COORDINATES 1 double
0.0

CELL_DATA 2500
SCALARS pressure double 1
LOOKUP_TABLE default
0
-7.89456e-05
-0.000264405
-0.000530812
-0.000839388
-0.00115796
-0.00146223
-0.00173482
-0.00196382
-0.00214137
-0.00226247
-0.0023241
-0.00232448
-0.00226264
-0.00213814
-0.00195095
-0.00170143
-0.00139043
-0.00101944
-0.000590754
-0.000107699
0.000425204
0.00100207
0.00161554
0.00225675
0.00291534
0.00357959
0.00423665
0.00487284
0.00547403
0.00602618
0.00651582
0.00693067
0.0072602
0.00749623
0.00763339
0.00766958
0.00760623
0.0074485
0.00720534
0.00688936
0.00651664
0.00610645
0.0056809
0.00526452
0.00488368
0.00456563
0.00433633
0.00421529
0.00419529
8.06079e-05
2.02286e-07
-0.000161696
-0.000388561
-0.000650297
-0.00092135
-0.00118157
-0.00141588
-0.00161346
-0.00176679
-0.00187086
-0.00192234
-0.00191917
-0.00186005
-0.00174428
-0.00157161
-0.00134225
-0.00105691
-0.000716918
-0.000324407
0.000117547
0.000604762
0.00113181
0.00169193
0.00227699
0.00287754
0.00348289
0.00408136
0.00466053
0.00520762
0.00570994
0.00615538
0.00653291
0.00683318
0.00704895
0.00717562
0.00721155
0.00715832
0.00702091
0.0068077
0.0065303
0.00620339
0.00584434
0.00547284
0.00511033
0.00477939
0.00450279
0.00430192
0.00419443
0.00417532
0.000268546
0.000161035
-3.53518e-06
-0.000212801
-0.000445396
-0.00068249
-0.000908588
-0.00111162
-0.00128255
-0.00141489
-0.00150406
-0.00154691
-0.0015413
-0.00148582
-0.00137957
-0.00122212
-0.00101344
-0.000754011
-0.000444917
-8.7977e-05
0.000314107
0.000757598
0.00123762
0.00174804
0.0022815
0.00282938
0.00338194
0.00392849
0.00445767
0.00495778
0.00541718
0.00582478
0.00617051
0.00644581
0.00664416
0.00676142
0.00679625
0.00675027
0.00662824
0.00643796
0.00619019
0.00589834
0.00557809
0.00524693
0.00492358
0.00462733
0.00437722
0.00419116
0.00408506
0.00405567
0.00054238
0.000388903
0.000199268
-1.41164e-05
-0.000237097
-0.000456707
-0.000661936
-0.000843959
-0.000996009
-0.00111306
-0.00119148
-0.00122864
-0.00122265
-0.00117216
-0.0010762
-0.000934127
-0.000745699
-0.00051108
-0.000230988
9.31835e-05
0.000459206
0.000863893
0.00130296
0.00177094
0.00226117
0.00276577
0.00327576
0.00378122
0.00427153
0.00473571
0.00516277
0.00554222
0.0058645
0.00612147
0.00630689
0.00641683
0.00644998
0.00640786
0.00629495
0.00611859
0.0058888
0.00561798
0.00532049
0.00501208
0.00470937
0.00442915
0.00418778
0.00400052
0.00388132
0.00382838
0.000865133
0.000654374
0.000425397
0.000192965
-3.46418e-05
-0.000249498
-0.0004447
-0.000614631
-0.000754926
-0.0008623
-0.000934297
-0.000969071
-0.000965171
-0.000921426
-0.000836858
-0.000710696
-0.000542401
-0.000331784
-7.91122e-05
0.000214722
0.000548067
0.000918332
0.00132188
0.00175391
0.0022084
0.00267812
0.00315469
0.00362876
0.00409019
0.0045284
0.00493274
0.00529293
0.00559957
0.00584456
0.00602165
0.00612679
0.00615851
0.00611809
0.00600966
0.0058401
0.00561886
0.00535755
0.00506952
0.00476924
0.00447177
0.00419204
0.00394439
0.003742
0.00359663
0.00350832
0.00120393
0.000930337
0.000653762
0.000392602
0.000150406
-6.91808e-05
-0.000262933
-0.000428243
-0.000563126
-0.000666092
-0.000736
-0.000771879
-0.000772831
-0.000737938
-0.000666267
-0.000556887
-0.000408977
-0.000221921
4.50938e-06
0.000270015
0.000573559
0.000913228
0.00128604
0.00168786
0.00211329
0.00255565
0.00300705
0.00345852
0.00390019
0.00432163
0.00471224
0.00506164
0.00536025
0.00559972
0.00577345
0.00587704
0.00590862
0.00586908
0.00576211
0.00559416
0.00537416
0.00511315
0.00482373
0.00451952
0.00421445
0.00392224
0.00365574
0.00342657
0.00324469
0.00311264
0.00153086
0.00119256
0.00086425
0.000568533
0.000305115
7.39782e-05
-0.000124904
-0.000291695
-0.000426654
-0.000530059
-0.000602066
-0.000642629
-0.000651412
-0.000627789
-0.000570856
-0.000479532
-0.000352654
-0.000189161
1.17549e-05
0.000250418
0.000526497
0.000838766
0.00118496
0.0015616
0.00196387
0.00238561
0.00281931
0.00325623
0.00368663
0.00409999
0.00448551
0.00483246
0.00513077
0.00537154
0.00554757
0.00565381
0.00568778
0.00564975
0.00554292
0.00537323
0.00514917
0.00488134
0.00458188
0.00426385
0.00394057
0.00362501
0.00332919
0.00306371
0.00283743
0.00265602
0.00182216
0.0014195
0.00103799
0.000704616
0.000415831
0.00016844
-4.04973e-05
-0.000213651
-0.000353374
-0.000461585
-0.000539696
-0.000588525
-0.000608293
-0.00059862
-0.000558629
-0.000487028
-0.000382299
-0.000242853
-6.7282e-05
0.000145456
0.00039575
0.000683153
0.00100612
0.00136184
0.00174611
0.00215323
0.00257601
0.00300587
0.00343299
0.00384666
0.00423563
0.0045886
0.00489474
0.00514431
0.0053292
0.00544346
0.00548371
0.00544945
0.00534316
0.00517026
0.00493876
0.00465896
0.00434272
0.00400291
0.00365264
0.00330464
0.00297067
0.00266103
0.00238416
0.00214943
0.00205718
0.0015918
0.00115736
0.000785104
0.000468627
0.000201876
-2.07103e-05
-0.000204104
-0.000352558
-0.000469517
-0.000557524
-0.000618203
-0.000652242
-0.000659479
-0.000638983
-0.000589229
-0.000508259
-0.000393937
-0.00024415
-5.71247e-05
0.000168357
0.000432635
0.000734966
0.00107325
0.00144389
0.00184166
0.00225966
0.00268938
0.0031209
0.00354311
0.00394417
0.00431196
0.00463467
0.00490143
0.00510291
0.00523194
0.00528398
0.00525747
0.005154
0.00497828
0.00473788
0.0044428
0.00410485
0.00373697
0.00335248
0.00296438
0.00258474
0.00222418
0.00189148
0.00160011
0.00221752
0.00169186
0.00120587
0.000794797
0.000449585
0.000161561
-7.72679e-05
-0.000273971
-0.000434554
-0.000563828
-0.000665368
-0.000741473
-0.00079324
-0.000820618
-0.000822582
-0.000797278
-0.000742278
-0.000654792
-0.000531986
-0.000371232
-0.000170464
7.15657e-05
0.000354941
0.000678366
0.00103889
0.00143179
0.00185047
0.00228651
0.00272977
0.00316871
0.0035907
0.00398265
0.00433148
0.00462492
0.0048521
0.0050043
0.00507544
0.00506261
0.00496622
0.00479012
0.00454129
0.00422949
0.0038666
0.00346591
0.00304131
0.00260657
0.00217461
0.00175701
0.00136354
0.00101216
0.00228644
0.00170349
0.00116808
0.000719112
0.000345025
3.46504e-05
-0.000222268
-0.000434765
-0.000610434
-0.000755336
-0.000873926
-0.000969101
-0.00104223
-0.00109332
-0.00112115
-0.00112347
-0.0010973
-0.00103915
-0.000945347
-0.000812377
-0.00063719
-0.00041759
-0.00015252
0.000157568
0.000510504
0.000902126
0.00132623
0.00177446
0.00223651
0.0027003
0.00315238
0.00357842
0.00396391
0.00429483
0.00455844
0.00474405
0.00484369
0.00485264
0.00476986
0.00459799
0.00434332
0.00401528
0.00362595
0.00318916
0.00271978
0.00223274
0.00174243
0.00126192
0.000802567
0.000387248
0.00224851
0.00161166
0.00102949
0.000544155
0.000141661
-0.000191553
-0.00046791
-0.000698266
-0.000891699
-0.00105537
-0.00119452
-0.00131251
-0.00141091
-0.00148965
-0.00154726
-0.00158103
-0.00158732
-0.00156186
-0.00150008
-0.00139746
-0.0012499
-0.00105408
-0.000807929
-0.000510844
-0.000164147
0.000228747
0.000662073
0.00112771
0.00161518
0.00211188
0.00260343
0.00307419
0.00350793
0.0038886
0.00420118
0.0044326
0.00457246
0.00461384
0.0045537
0.00439321
0.0041376
0.00379595
0.00338048
0.00290583
0.00238809
0.00184391
0.00128955
0.000740209
0.000209344
-0.000274752
0.00208944
0.00140243
0.000776534
0.000256783
-0.000173231
-0.0005294
-0.000826207
-0.00107625
-0.00128995
-0.00147549
-0.00163876
-0.0017835
-0.00191137
-0.00202219
-0.00211408
-0.00218382
-0.00222706
-0.00223865
-0.00221302
-0.00214456
-0.00202796
-0.00185873
-0.0016335
-0.00135056
-0.00101011
-0.000614709
-0.000169435
0.000317907
0.000836832
0.00137425
0.00191487
0.00244158
0.00293627
0.00338051
0.00375663
0.0040486
0.00424311
0.00433038
0.00430489
0.00416573
0.00391682
0.00356655
0.00312733
0.00261465
0.00204621
0.0014407
0.000816878
0.000192541
-0.000416217
-0.00097505
0.00179595
0.00106288
0.000396637
-0.000155281
-0.000611665
-0.000990664
-0.00130876
-0.00158018
-0.00181662
-0.00202715
-0.00221825
-0.00239392
-0.00255586
-0.00270364
-0.00283498
-0.00294603
-0.00303165
-0.00308574
-0.00310166
-0.00307253
-0.00299177
-0.00285346
-0.00265288
-0.00238686
-0.00205436
-0.00165676
-0.00119826
-0.000686068
-0.000130537
0.000454952
0.00105417
0.00164858
0.00221793
0.00274117
0.00319748
0.00356739
0.00383394
0.00398384
0.00400831
0.00390382
0.00367235
0.00332131
0.00286308
0.00231412
0.00169392
0.00102371
0.000325186
-0.00038065
-0.00107457
-0.00171535
0.00135591
0.000581184
-0.000121733
-0.000703347
-0.00118477
-0.00158635
-0.00192648
-0.00222095
-0.00248261
-0.00272137
-0.0029442
-0.0031553
-0.0033563
-0.00354651
-0.00372315
-0.00388171
-0.00401616
-0.00411941
-0.00418357
-0.00420049
-0.00416208
-0.00406089
-0.0038905
-0.00364618
-0.00332525
-0.00292768
-0.00245642
-0.00191781
-0.00132173
-0.000681704
-1.46553e-05
0.000659375
0.00131797
0.00193713
0.00249246
0.00296041
0.00331968
0.00355256
0.00364621
0.00359356
0.00339399
0.00305336
0.00258373
0.00200247
0.00133108
0.000593679
-0.000184504
-0.000978714
-0.001766
-0.00249728
0.000758357
-5.32721e-05
-0.000788938
-0.0013976
-0.00190262
-0.00232648
-0.00268938
-0.00300857
-0.00329804
-0.00356841
-0.00382708
-0.00407841
-0.00432391
-0.00456257
-0.0047911
-0.00500421
-0.00519502
-0.00535528
-0.00547587
-0.00554714
-0.00555942
-0.00550343
-0.00537096
-0.00515528
-0.00485184
-0.00445875
-0.00397737
-0.00341273
-0.0027739
-0.00207412
-0.00133087
-0.000565445
0.000197454
0.000930727
0.00160595
0.00219487
0.00267098
0.00301122
0.00319757
0.00321843
0.00306954
0.00275451
0.00228455
0.00167774
0.00095769
0.000151827
-0.000710576
-0.00160033
-0.00249014
-0.00332182
-6.32215e-06
-0.000849778
-0.00161403
-0.00224695
-0.00277406
-0.00321986
-0.00360627
-0.00395194
-0.00427187
-0.00457737
-0.00487622
-0.00517288
-0.00546872
-0.0057624
-0.00605004
-0.00632564
-0.00658131
-0.00680771
-0.00699431
-0.00712992
-0.00720304
-0.00720249
-0.00711786
-0.00694023
-0.0066627
-0.00628117
-0.00579488
-0.00520708
-0.0045255
-0.0037627
-0.0029362
-0.00206842
-0.00118613
-0.00031973
0.000498027
0.00123351
0.00185415
0.00233039
0.00263779
0.00275885
0.00268452
0.00241501
0.00195996
0.00133775
0.000574122
-0.00029992
-0.00125042
-0.00224304
-0.00324544
-0.00418876
-0.00094622
-0.00181613
-0.00260459
-0.00325886
-0.00380651
-0.00427389
-0.00468458
-0.0050585
-0.0054116
-0.00575585
-0.00609937
-0.00644667
-0.00679904
-0.00715472
-0.00750931
-0.00785604
-0.00818608
-0.00848884
-0.00875244
-0.00896394
-0.00910998
-0.00917715
-0.00915269
-0.00902504
-0.00878464
-0.00842462
-0.00794163
-0.00733648
-0.00661499
-0.00578838
-0.00487376
-0.00389411
-0.0028781
-0.00185932
-0.000875167
3.48415e-05
0.000831093
0.00147636
0.00193829
0.00219193
0.00222178
0.00202329
0.00160342
0.000980186
0.000181213
-0.000758599
-0.00180004
-0.0029028
-0.00402861
-0.0050961
-0.00206774
-0.00295847
-0.00376659
-0.00443922
-0.00500578
-0.00549436
-0.00593005
-0.00633397
-0.00672296
-0.00710958
-0.00750227
-0.00790566
-0.00832087
-0.00874584
-0.00917563
-0.00960273
-0.0100173
-0.0104077
-0.0107605
-0.0110609
-0.0112936
-0.0114429
-0.0114932
-0.0114301
-0.0112409
-0.0109155
-0.0104473
-0.00983405
-0.00907885
-0.00819092
-0.00718614
-0.00608752
-0.00492505
-0.00373535
-0.00256045
-0.00144629
-0.000440307
0.00041125
0.00106652
0.00149117
0.00166132
0.00156579
0.00120733
0.000602542
-0.000219495
-0.00121991
-0.00235361
-0.00357339
-0.00483402
-0.00603943
-0.00337541
-0.00428115
-0.00510426
-0.00579218
-0.00637596
-0.00688529
-0.00734661
-0.00778215
-0.00820958
-0.00864203
-0.00908829
-0.00955307
-0.0100374
-0.010539
-0.0110524
-0.0115694
-0.0120793
-0.0125692
-0.0130242
-0.0134278
-0.0137625
-0.0140099
-0.0141518
-0.0141703
-0.0140493
-0.0137748
-0.0133364
-0.012728
-0.0119492
-0.0110063
-0.00991312
-0.00869171
-0.00737279
-0.00599537
-0.00460605
-0.00325732
-0.00200527
-0.000906358
-1.37729e-05
0.000626647
0.000980243
0.00102688
0.000763005
0.000202301
-0.000625571
-0.00167784
-0.00290297
-0.00424583
-0.00565306
-0.00701119
-0.00487177
-0.00578661
-0.00661998
-0.00732004
-0.00791928
-0.00844876
-0.00893612
-0.00940462
-0.00987272
-0.0103541
-0.0108579
-0.0113891
-0.0119485
-0.0125338
-0.013139
-0.0137554
-0.0143714
-0.014973
-0.0155439
-0.0160657
-0.0165186
-0.0168818
-0.0171338
-0.0172532
-0.0172199
-0.0170157
-0.0166256
-0.0160389
-0.0152509
-0.0142639
-0.0130885
-0.0117449
-0.0102633
-0.00868455
-0.00705909
-0.00544601
-0.00391043
-0.00252024
-0.00134168
-0.000434534
0.000153039
0.000388981
0.000260799
-0.00022296
-0.00103336
-0.00212418
-0.00343701
-0.00490769
-0.0064733
-0.00799989
-0.00655723
-0.0074753
-0.00831421
-0.00902325
-0.00963605
-0.0101848
-0.0106983
-0.0112006
-0.0117111
-0.0122439
-0.0128085
-0.0134102
-0.0140501
-0.0147253
-0.01543
-0.0161548
-0.0168874
-0.0176127
-0.018313
-0.0189683
-0.0195564
-0.0200537
-0.0204356
-0.0206769
-0.0207531
-0.0206412
-0.0203212
-0.019777
-0.0189985
-0.017983
-0.0167368
-0.0152767
-0.0136314
-0.0118421
-0.00996242
-0.00805738
-0.00620136
-0.00447444
-0.00295766
-0.00172715
-0.000847783
-0.000366955
-0.000309602
-0.000675181
-0.00143758
-0.00254803
-0.00394102
-0.00554227
-0.00727767
-0.00898911
-0.00843006
-0.00934566
-0.0101855
-0.0109003
-0.0115246
-0.0120915
-0.0126306
-0.013167
-0.0137205
-0.0143062
-0.014934
-0.0156094
-0.0163337
-0.0171043
-0.0179149
-0.018756
-0.0196147
-0.0204749
-0.0213176
-0.022121
-0.022861
-0.023511
-0.0240431
-0.0244281
-0.0246371
-0.0246417
-0.0244163
-0.0239387
-0.0231927
-0.0221692
-0.020869
-0.0193042
-0.0175002
-0.0154972
-0.0133504
-0.01113
-0.00891913
-0.00681043
-0.00490111
-0.00328612
-0.00205035
-0.00126062
-0.000958481
-0.00115532
-0.00183072
-0.00293503
-0.00439582
-0.00612762
-0.00804333
-0.00995642
-0.0104864
-0.0113942
-0.0122306
-0.0129481
-0.0135815
-0.0141648
-0.0147283
-0.0152979
-0.0158942
-0.0165329
-0.0172246
-0.0179751
-0.0187863
-0.0196558
-0.0205773
-0.021541
-0.0225336
-0.0235383
-0.024535
-0.0255003
-0.0264078
-0.0272284
-0.0279306
-0.0284813
-0.0288468
-0.0289932
-0.0288888
-0.0285048
-0.0278176
-0.0268113
-0.0254794
-0.0238278
-0.021877
-0.0196641
-0.0172444
-0.0146914
-0.012096
-0.00956316
-0.00720716
-0.00514381
-0.00348148
-0.00231082
-0.00169507
-0.0016624
-0.00220222
-0.00326651
-0.00477675
-0.00663539
-0.00874044
-0.010872
-0.0127203
-0.0136155
-0.0144445
-0.0151615
-0.0158016
-0.0163989
-0.0169846
-0.0175852
-0.0182223
-0.0189123
-0.0196666
-0.0204918
-0.0213901
-0.0223597
-0.0233946
-0.024485
-0.0256172
-0.026774
-0.0279342
-0.0290729
-0.0301617
-0.0311689
-0.0320598
-0.0327971
-0.0333422
-0.0336559
-0.0336996
-0.0334375
-0.0328384
-0.0318779
-0.0305414
-0.0288271
-0.0267485
-0.0243377
-0.0216474
-0.0187527
-0.0157502
-0.0127563
-0.00990234
-0.00732651
-0.00516378
-0.00353335
-0.00252585
-0.00219232
-0.00253732
-0.00351834
-0.00505239
-0.00702949
-0.00933068
-0.0116972
-0.0151241
-0.0160028
-0.016821
-0.0175345
-0.0181782
-0.0187863
-0.0193906
-0.0200184
-0.0206923
-0.0214296
-0.0222427
-0.0231392
-0.0241222
-0.0251904
-0.0263384
-0.0275566
-0.0288312
-0.0301446
-0.0314748
-0.0327957
-0.0340769
-0.0352843
-0.0363799
-0.0373225
-0.0380687
-0.0385735
-0.0387919
-0.0386804
-0.0381995
-0.037316
-0.036006
-0.0342581
-0.0320774
-0.0294885
-0.0265394
-0.0233034
-0.0198807
-0.0163969
-0.0129996
-0.00984986
-0.0071119
-0.00493793
-0.00345228
-0.00273594
-0.00281554
-0.0036594
-0.00518309
-0.00726439
-0.00976553
-0.0123824
-0.0176884
-0.0185479
-0.0193526
-0.0200598
-0.0207036
-0.0213183
-0.021936
-0.022585
-0.023289
-0.0240666
-0.0249317
-0.0258931
-0.0269549
-0.0281168
-0.0293741
-0.0307177
-0.0321341
-0.0336052
-0.0351085
-0.0366166
-0.0380978
-0.0395153
-0.0408282
-0.0419915
-0.0429571
-0.0436743
-0.0440915
-0.0441577
-0.0438249
-0.0430502
-0.0417996
-0.0400513
-0.0377998
-0.0350603
-0.0318729
-0.0283065
-0.0244614
-0.0204696
-0.0164924
-0.0127136
-0.0093278
-0.0065244
-0.00446766
-0.00327671
-0.00300863
-0.00364986
-0.00511912
-0.00728329
-0.00998418
-0.0128655
-0.020403
-0.021242
-0.0220315
-0.0227298
-0.0233697
-0.0239852
-0.024609
-0.0252705
-0.0259949
-0.0268026
-0.0277092
-0.028725
-0.0298559
-0.0311026
-0.0324616
-0.0339243
-0.0354776
-0.0371035
-0.0387789
-0.0404755
-0.0421598
-0.0437931
-0.0453316
-0.0467267
-0.0479257
-0.0488724
-0.049509
-0.0497769
-0.0496193
-0.0489839
-0.0478258
-0.0461118
-0.0438246
-0.0409676
-0.0375707
-0.0336949
-0.0294368
-0.0249309
-0.0203492
-0.0158956
-0.0117955
-0.00827791
-0.00555334
-0.00378751
-0.00307806
-0.00343883
-0.00479846
-0.00701578
-0.00991126
-0.0130688
-0.023257
-0.0240761
-0.02485
-0.025537
-0.0261682
-0.0267771
-0.0273972
-0.0280592
-0.0287906
-0.029614
-0.0305471
-0.0316027
-0.0327885
-0.0341069
-0.0355555
-0.0371268
-0.0388081
-0.0405815
-0.0424236
-0.0443052
-0.0461914
-0.0480415
-0.0498089
-0.0514417
-0.0528828
-0.0540711
-0.0549424
-0.055431
-0.0554716
-0.0550023
-0.0539673
-0.0523214
-0.0500343
-0.0470965
-0.0435249
-0.0393694
-0.0347189
-0.0297059
-0.0245083
-0.0193467
-0.0144751
-0.0101637
-0.00667395
-0.00422687
-0.00297179
-0.00296163
-0.00414419
-0.00637525
-0.00945405
-0.0128966
-0.0262397
-0.0270418
-0.0278014
-0.028475
-0.0290917
-0.0296845
-0.0302878
-0.0309346
-0.0316549
-0.0324747
-0.0334148
-0.0344906
-0.0357123
-0.0370845
-0.0386063
-0.0402712
-0.0420672
-0.0439766
-0.0459756
-0.0480343
-0.0501163
-0.0521791
-0.0541735
-0.0560444
-0.0577307
-0.0591665
-0.0602816
-0.0610036
-0.0612592
-0.060977
-0.0600907
-0.0585428
-0.0562899
-0.0533079
-0.049599
-0.0451993
-0.0401861
-0.0346847
-0.0288738
-0.0229851
-0.0172976
-0.0121216
-0.0077724
-0.00453441
-0.00262054
-0.00213646
-0.00306141
-0.00525578
-0.00849941
-0.0122322
-0.0293415
-0.0301328
-0.030881
-0.0315396
-0.0321347
-0.032699
-0.0332685
-0.0338793
-0.0345655
-0.0353571
-0.0362789
-0.0373501
-0.0385838
-0.0399872
-0.041561
-0.0433003
-0.0451936
-0.0472233
-0.0493653
-0.0515888
-0.0538561
-0.0561228
-0.0583371
-0.0604409
-0.0623694
-0.064052
-0.0654132
-0.0663741
-0.0668538
-0.0667723
-0.0660529
-0.0646265
-0.062436
-0.0594427
-0.0556329
-0.0510264
-0.0456853
-0.0397234
-0.0333139
-0.0266933
-0.0201599
-0.0140602
-0.00876433
-0.00462594
-0.00193337
-0.000860586
-0.00143364
-0.00352863
-0.0069101
-0.0109337
-0.0325551
-0.0333454
-0.0340878
-0.0347297
-0.0352942
-0.035814
-0.0363278
-0.0368763
-0.037499
-0.0382315
-0.0391039
-0.04014
-0.0413567
-0.042764
-0.0443647
-0.0461551
-0.0481245
-0.0502553
-0.0525227
-0.0548951
-0.0573333
-0.0597907
-0.0622132
-0.0645396
-0.0667014
-0.0686236
-0.070226
-0.0714234
-0.0721282
-0.072252
-0.0717085
-0.0704176
-0.0683092
-0.06533
-0.0614497
-0.0566706
-0.0510371
-0.044647
-0.0376623
-0.0303175
-0.0229221
-0.0158533
-0.00953311
-0.00438819
-0.000792863
0.000994138
0.000881365
-0.00103802
-0.00452068
-0.00883028
-0.0358774
-0.0366811
-0.0374258
-0.0380493
-0.0385715
-0.039026
-0.039456
-0.0399088
-0.0404313
-0.0410669
-0.0418524
-0.0428172
-0.0439828
-0.0453623
-0.046961
-0.0487761
-0.0507976
-0.0530074
-0.0553801
-0.0578827
-0.0604741
-0.0631057
-0.0657207
-0.0682548
-0.0706358
-0.0727848
-0.0746165
-0.0760404
-0.0769623
-0.0772863
-0.0769174
-0.075765
-0.073747
-0.0707959
-0.0668654
-0.0619395
-0.0560435
-0.049256
-0.0417227
-0.0336688
-0.0254069
-0.0173363
-0.00992552
-0.00367391
0.000949994
0.00358616
0.00405646
0.00240367
-0.00113248
-0.00571727
-0.0393109
-0.0401483
-0.0409064
-0.0415092
-0.0419733
-0.0423353
-0.0426453
-0.0429603
-0.0433378
-0.0438308
-0.044485
-0.0453368
-0.0464125
-0.0477291
-0.0492938
-0.0511051
-0.0531526
-0.0554178
-0.057874
-0.0604863
-0.0632115
-0.0659984
-0.0687874
-0.0715108
-0.0740928
-0.0764504
-0.0784936
-0.0801267
-0.0812495
-0.081759
-0.0815523
-0.0805292
-0.0785966
-0.0756737
-0.071699
-0.0666388
-0.0604986
-0.0533359
-0.0452764
-0.0365295
-0.0274026
-0.0183071
-0.00974934
-0.00229759
0.00348085
0.00710964
0.0083006
0.0070217
0.00349225
-0.00135003
-0.0428676
-0.043766
-0.044552
-0.0451298
-0.0455141
-0.0457473
-0.0458908
-0.0460154
-0.046193
-0.0464895
-0.0469611
-0.0476524
-0.0485958
-0.0498115
-0.0513088
-0.0530864
-0.0551335
-0.0574302
-0.0599478
-0.0626489
-0.0654878
-0.06841
-0.0713528
-0.0742448
-0.0770064
-0.0795505
-0.0817824
-0.0836012
-0.084901
-0.0855724
-0.0855047
-0.0845894
-0.0827229
-0.0798127
-0.075783
-0.0705834
-0.0642
-0.056669
-0.0480933
-0.038662
-0.0286694
-0.0185287
-0.0087734
-3.29039e-05
0.00702658
0.0118001
0.0138653
0.013086
0.00963777
0.0045633
-0.046573
-0.0475684
-0.0484
-0.0489446
-0.049218
-0.0492736
-0.0491905
-0.0490592
-0.0489706
-0.0490072
-0.0492381
-0.0497171
-0.0504826
-0.0515582
-0.0529542
-0.054669
-0.0566902
-0.0589955
-0.0615535
-0.0643235
-0.0672564
-0.0702941
-0.07337
-0.0764089
-0.079327
-0.0820327
-0.0844266
-0.0864027
-0.0878494
-0.0886509
-0.0886898
-0.0878489
-0.0860157
-0.0830865
-0.0789726
-0.0736084
-0.0669617
-0.0590476
-0.0499457
-0.0398216
-0.0289502
-0.0177372
-0.00673136
0.00338753
0.0118586
0.0179401
0.0210519
0.0209197
0.0176444
0.0123716
-0.0504728
-0.0516121
-0.0525089
-0.0530047
-0.0531218
-0.0529336
-0.0525457
-0.0520767
-0.0516427
-0.0513463
-0.0512718
-0.051483
-0.0520238
-0.0529203
-0.0541827
-0.0558077
-0.05778
-0.0600739
-0.0626537
-0.065475
-0.068484
-0.0716186
-0.0748077
-0.0779717
-0.0810223
-0.0838631
-0.0863899
-0.0884912
-0.0900498
-0.0909437
-0.0910482
-0.0902386
-0.0883934
-0.0853986
-0.0811537
-0.0755788
-0.0686252
-0.0602878
-0.0506233
-0.0397723
-0.0279858
-0.0156542
-0.00333021
0.00826835
0.0182941
0.0258647
0.0302205
0.030911
0.0279216
0.0224941
-0.054644
-0.0559865
-0.0569681
-0.0573853
-0.0572786
-0.0567552
-0.0559608
-0.0550525
-0.0541787
-0.0534664
-0.0530164
-0.0529021
-0.0531721
-0.0538529
-0.054953
-0.0564652
-0.0583699
-0.0606361
-0.0632231
-0.066081
-0.0691511
-0.0723661
-0.07565
-0.0789182
-0.0820775
-0.0850265
-0.0876555
-0.0898479
-0.0914801
-0.0924239
-0.0925475
-0.0917182
-0.0898059
-0.0866865
-0.0822482
-0.0763978
-0.0690707
-0.0602432
-0.0499497
-0.0383049
-0.0255338
-0.0120051
0.00173484
0.0149423
0.0266934
0.0359655
0.0417998
0.0435273
0.0409661
0.0354407
-0.0592118
-0.0608302
-0.0619104
-0.0621948
-0.0617623
-0.0607767
-0.0594425
-0.057969
-0.0565444
-0.0553235
-0.0544238
-0.0539267
-0.0538826
-0.054316
-0.0552305
-0.0566129
-0.0584368
-0.0606644
-0.0632485
-0.0661327
-0.0692522
-0.0725339
-0.0758962
-0.0792492
-0.0824944
-0.0855248
-0.0882254
-0.0904734
-0.0921394
-0.0930882
-0.0931807
-0.0922761
-0.0902351
-0.0869237
-0.0822183
-0.0760126
-0.0682266
-0.0588181
-0.0477992
-0.0352588
-0.021393
-0.00654369
0.00875739
0.0237523
0.0374512
0.0486921
0.0562988
0.0593369
0.0573899
0.0518416
-0.0643773
-0.0663572
-0.0675326
-0.0675863
-0.0666727
-0.0650466
-0.0629979
-0.0608034
-0.058699
-0.0568683
-0.055443
-0.0545089
-0.0541136
-0.0542752
-0.0549886
-0.0562318
-0.0579689
-0.0601535
-0.06273
-0.0656346
-0.0687955
-0.0721332
-0.07556
-0.0789802
-0.0822897
-0.0853757
-0.0881175
-0.0903863
-0.0920461
-0.0929547
-0.0929652
-0.0919283
-0.0896951
-0.0861207
-0.0810694
-0.0744207
-0.0660782
-0.0559802
-0.0441154
-0.0305447
-0.0154318
0.000914355
0.017986
0.0350222
0.0509763
0.064547
0.0743191
0.0790374
0.0779613
0.0724973
-0.0704651
-0.0728978
-0.074124
-0.0737732
-0.0721394
-0.0696214
-0.0666287
-0.0635226
-0.0605907
-0.0580427
-0.0560183
-0.0545999
-0.0538259
-0.0537016
-0.054209
-0.0553127
-0.0569652
-0.0591092
-0.0616793
-0.0646032
-0.0678014
-0.0711875
-0.0746673
-0.0781392
-0.0814929
-0.0846104
-0.0873646
-0.0896208
-0.0912362
-0.0920615
-0.0919416
-0.0907184
-0.0882324
-0.0843272
-0.0788535
-0.0716751
-0.0626767
-0.0517746
-0.0389304
-0.0241717
-0.00762304
0.0104498
0.0295767
0.0490089
0.067654
0.0840677
0.0965647
0.103495
0.103672
0.0984603
-0.0780052
-0.0809654
-0.082109
-0.0810462
-0.0783218
-0.0745566
-0.07032
-0.0660715
-0.0621475
-0.0587733
-0.0560839
-0.0541468
-0.0529805
-0.0525704
-0.0528792
-0.0538545
-0.0554339
-0.0575473
-0.0601184
-0.0630654
-0.0663007
-0.0697305
-0.0732544
-0.0767645
-0.080145
-0.0832718
-0.0860124
-0.0882258
-0.0897628
-0.0904666
-0.0901742
-0.088718
-0.0859279
-0.0816347
-0.0756739
-0.0678913
-0.0581497
-0.0463384
-0.0323854
-0.0162764
0.00191607
0.021987
0.0435279
0.0658304
0.087778
0.107782
0.12384
0.133801
0.135841
0.131178
-0.0878806
-0.0913653
-0.0921037
-0.0897856
-0.0853947
-0.0798804
-0.0740128
-0.0683497
-0.0632586
-0.0589572
-0.0555543
-0.0530843
-0.051533
-0.0508557
-0.0509896
-0.0518608
-0.0533893
-0.0554905
-0.0580764
-0.0610554
-0.0643316
-0.0678041
-0.0713661
-0.074904
-0.0782966
-0.0814145
-0.0841198
-0.0862658
-0.0876971
-0.0882501
-0.0877538
-0.0860315
-0.0829019
-0.0781825
-0.0716923
-0.0632566
-0.0527125
-0.0399161
-0.024753
-0.00715391
0.0128798
0.0352322
0.0595976
0.0853608
0.111436
0.136113
0.157018
0.171329
0.176286
0.172748
-0.101606
-0.105374
-0.104984
-0.100448
-0.0934954
-0.0855324
-0.0775479
-0.0701663
-0.0637404
-0.0584374
-0.054306
-0.0513229
-0.0494239
-0.0485238
-0.048527
-0.0493347
-0.0508471
-0.0529643
-0.0555864
-0.058612
-0.0619377
-0.0654558
-0.0690541
-0.0726137
-0.0760089
-0.0791056
-0.0817611
-0.083824
-0.0851333
-0.0855195
-0.0848043
-0.0828023
-0.0793217
-0.0741665
-0.0671385
-0.0580406
-0.0466804
-0.0328747
-0.0164569
0.00271345
0.0247309
0.0496083
0.0772045
0.107091
0.13833
0.169191
0.196919
0.217788
0.227594
0.226387
-0.121873
-0.125024
-0.121928
-0.113469
-0.102581
-0.0912265
-0.0805558
-0.0711589
-0.0632803
-0.0569655
-0.0521535
-0.0487317
-0.0465675
-0.0455239
-0.045468
-0.0462732
-0.0478195
-0.0499925
-0.052681
-0.0557753
-0.0591653
-0.0627383
-0.0663771
-0.0699594
-0.0733555
-0.076428
-0.0790306
-0.0810081
-0.0821954
-0.0824179
-0.0814917
-0.0792236
-0.0754125
-0.0698497
-0.0623203
-0.0526042
-0.0404775
-0.0257132
-0.00808329
0.012639
0.036671
0.0642004
0.0953314
0.12996
0.167516
0.206518
0.244007
0.275162
0.293511
0.297311
-0.153686
-0.153529
-0.144305
-0.128938
-0.112089
-0.0961816
-0.0822692
-0.0706746
-0.0613664
-0.0541615
-0.0488268
-0.045127
-0.0428443
-0.0417843
-0.0417749
-0.0426633
-0.0443119
-0.046594
-0.04939
-0.0525844
-0.0560625
-0.0597082
-0.0634017
-0.0670182
-0.070426
-0.0734858
-0.0760491
-0.0779583
-0.0790458
-0.0791337
-0.0780338
-0.0755476
-0.0714661
-0.0655702
-0.0576299
-0.0474038
-0.034637
-0.0190579
-0.000373123
0.0217401
0.0476426
0.0777385
0.112462
0.152202
0.197082
0.246416
0.297705
0.345301
0.379438
0.394373
-0.20681
-0.195707
-0.172997
-0.145718
-0.120242
-0.0986722
-0.0812744
-0.0676529
-0.0572446
-0.0495082
-0.0439807
-0.0402838
-0.0381123
-0.0372189
-0.0373999
-0.0384839
-0.0403222
-0.0427817
-0.0457391
-0.0490766
-0.0526783
-0.0564274
-0.0602037
-0.063882
-0.0673304
-0.0704092
-0.0729697
-0.0748537
-0.0758926
-0.0759072
-0.0747071
-0.0720908
-0.0678442
-0.0617405
-0.0535385
-0.042979
-0.029781
-0.013633
0.00581928
0.028992
0.0563924
0.0886591
0.126611
0.17128
0.223852
0.285275
0.355039
0.42849
0.49259
0.533062
-0.301278
-0.257429
-0.205915
-0.1594
-0.122872
-0.0955192
-0.0753792
-0.0606633
-0.0500111
-0.0424451
-0.0372711
-0.0339919
-0.0322431
-0.03175
-0.0322977
-0.0337115
-0.0358434
-0.0385625
-0.0417483
-0.045286
-0.0490621
-0.0529624
-0.0568687
-0.0606579
-0.0641997
-0.0673559
-0.0699792
-0.0719125
-0.0729883
-0.0730278
-0.0718408
-0.0692249
-0.0649643
-0.0588283
-0.050569
-0.0399165
-0.0265716
-0.0101947
0.00961346
0.0333421
0.0616186
0.095286
0.135527
0.184049
0.243336
0.316821
0.408414
0.519559
0.639925
0.740701
-0.479541
-0.338869
-0.230633
-0.158667
-0.112392
-0.082225
-0.0620789
-0.0483611
-0.0389596
-0.0326045
-0.0285048
-0.0261453
-0.025174
-0.0253366
-0.0264395
-0.0283264
-0.0308649
-0.0339365
-0.0374309
-0.0412412
-0.045261
-0.0493812
-0.0534885
-0.0574637
-0.06118
-0.0645026
-0.0672869
-0.0693786
-0.0706125
-0.0708122
-0.0697896
-0.0673438
-0.06326
-0.057308
-0.0492388
-0.0387794
-0.0256251
-0.00942532
0.010238
0.0338865
0.0622061
0.09615
0.137121
0.187301
0.250263
0.332077
0.44307
0.599247
0.816059
1.06508
-0.885631
-0.441426
-0.235238
-0.138941
-0.0890415
-0.0608351
-0.0437542
-0.0329132
-0.0259012
-0.0214531
-0.0188604
-0.0176967
-0.0176845
-0.0186275
-0.0203755
-0.0228047
-0.0258067
-0.0292813
-0.0331322
-0.0372633
-0.0415769
-0.0459711
-0.0503384
-0.0545648
-0.058528
-0.0620969
-0.065131
-0.0674791
-0.0689793
-0.0694585
-0.0687315
-0.0666005
-0.0628539
-0.0572649
-0.049588
-0.0395547
-0.0268652
-0.0111758
0.00792261
0.0309398
0.0585464
0.091681
0.131751
0.181037
0.243573
0.327212
0.448805
0.647338
1.01294
1.67244
