# vtk DataFile Version 2.0
u_velocity
ASCII
DATASET RECTILINEAR_GRID
DIMENSIONS 52 51 1
X_COORDINATES 52 double
0 0.01 0.03 0.05 0.07 0.09 0.11 0.13 0.15 0.17 0.19 0.21 0.23 0.25 0.27 0.29 0.31 0.33 0.35 0.37 0.39 0.41 0.43 0.45 0.47 0.49 0.51 0.53 0.55 0.57 0.59 0.61 0.63 0.65 0.67 0.69 0.71 0.73 0.75 0.77 0.79 0.81 0.83 0.85 0.87 0.89 0.91 0.93 0.95 0.97 0.99 1 
Y_COORDINATES 51 double
0 0.02 0.04 0.06 0.08 0.1 0.12 0.14 0.16 0.18 0.2 0.22 0.24 0.26 0.28 0.3 0.32 0.34 0.36 0.38 0.4 0.42 0.44 0.46 0.48 0.5 0.52 0.54 0.56 0.58 0.6 0.62 0.64 0.66 0.68 0.7 0.72 0.74 0.76 0.78 0.8 0.82 0.84 0.86 0.88 0.9 0.92 0.94 0.96 0.98 1 
Z_COORDINATES 1 double
0.0

CELL_DATA 2550
SCALARS u_velocity double 1
LOOKUP_TABLE default
0
6.07415e-05
0.000114993
0.000102782
3.97806e-06
-0.000181979
-0.000446791
-0.000778719
-0.00116525
-0.00159436
-0.00205503
-0.0025374
-0.00303267
-0.00353295
-0.00403097
-0.00451993
-0.00499324
-0.00544439
-0.00586686
-0.00625405
-0.00659932
-0.00689606
-0.00713783
-0.00731856
-0.00743272
-0.00747563
-0.00744369
-0.00733462
-0.00714778
-0.0068843
-0.00654731
-0.00614198
-0.00567563
-0.00515757
-0.004599
-0.00401275
-0.00341292
-0.00281446
-0.0022327
-0.00168282
-0.0011793
-0.000735343
-0.000362332
-6.92423e-05
0.000138026
0.000257505
0.000292457
0.000253567
0.000162658
5.83475e-05
0
0
5.48972e-05
4.05285e-05
-0.000137886
-0.000518101
-0.00110429
-0.00188188
-0.00282682
-0.00391125
-0.00510667
-0.00638565
-0.00772257
-0.00909378
-0.0104774
-0.0118529
-0.013201
-0.0145027
-0.0157397
-0.0168937
-0.0179466
-0.0188802
-0.0196772
-0.0203207
-0.0207952
-0.021087
-0.0211846
-0.0210797
-0.0207676
-0.0202477
-0.0195242
-0.0186061
-0.0175079
-0.0162491
-0.0148543
-0.0133528
-0.0117776
-0.010165
-0.00855334
-0.00698158
-0.00548831
-0.00411017
-0.00288039
-0.00182733
-0.000972905
-0.000330833
9.53877e-05
0.000315113
0.000354103
0.000259285
0.00010474
0
0
-1.16752e-05
-0.000193701
-0.000630551
-0.0013577
-0.00237706
-0.00366916
-0.00520216
-0.00693814
-0.00883716
-0.0108597
-0.0129677
-0.0151254
-0.0172991
-0.0194567
-0.0215675
-0.0236018
-0.0255305
-0.0273251
-0.0289572
-0.0303992
-0.0316246
-0.0326083
-0.0333272
-0.0337616
-0.0338952
-0.0337165
-0.0332195
-0.0324047
-0.0312792
-0.0298576
-0.0281622
-0.0262228
-0.0240764
-0.0217666
-0.0193427
-0.0168583
-0.01437
-0.0119353
-0.00961101
-0.00745112
-0.00550443
-0.00381248
-0.00240722
-0.00130859
-0.000521853
-3.45982e-05
0.000186684
0.000200609
9.58624e-05
0
0
-0.000103024
-0.00050225
-0.00125141
-0.00236986
-0.00384985
-0.00566442
-0.0077744
-0.0101339
-0.0126944
-0.015407
-0.018224
-0.0211
-0.023991
-0.0268555
-0.0296529
-0.0323441
-0.0348908
-0.0372552
-0.0394005
-0.0412911
-0.0428927
-0.0441735
-0.0451045
-0.0456612
-0.0458236
-0.0455781
-0.0449183
-0.0438454
-0.0423695
-0.0405099
-0.0382953
-0.0357639
-0.0329625
-0.0299463
-0.0267775
-0.0235236
-0.0202557
-0.0170463
-0.0139669
-0.0110855
-0.00846373
-0.00615432
-0.00419802
-0.00262096
-0.00143168
-0.000618279
-0.00014548
4.83275e-05
5.45485e-05
0
0
-0.000202025
-0.000839987
-0.00192921
-0.00346482
-0.0054234
-0.00776705
-0.010448
-0.0134128
-0.0166053
-0.019969
-0.0234487
-0.0269907
-0.0305432
-0.0340562
-0.0374813
-0.040771
-0.0438793
-0.0467607
-0.0493711
-0.0516679
-0.0536106
-0.0551616
-0.0562872
-0.0569587
-0.0571535
-0.056856
-0.0560593
-0.0547653
-0.0529864
-0.0507454
-0.0480762
-0.0450233
-0.0416415
-0.0379953
-0.034157
-0.0302055
-0.0262241
-0.0222975
-0.01851
-0.0149417
-0.0116657
-0.00874503
-0.00622926
-0.00415159
-0.00252585
-0.00134386
-0.000573105
-0.000154838
-2.44798e-06
0
0
-0.000301193
-0.00118391
-0.00262387
-0.00458807
-0.00703348
-0.00990832
-0.0131546
-0.0167104
-0.0205126
-0.0244982
-0.0286051
-0.0327732
-0.0369441
-0.041061
-0.0450688
-0.0489135
-0.052542
-0.0559028
-0.0589453
-0.0616213
-0.0638848
-0.0656934
-0.0670092
-0.0677999
-0.0680401
-0.0677126
-0.0668094
-0.0653326
-0.0632959
-0.0607244
-0.0576555
-0.0541385
-0.0502344
-0.0460148
-0.0415606
-0.0369601
-0.0323069
-0.027697
-0.0232258
-0.0189849
-0.0150586
-0.0115205
-0.00842971
-0.00582795
-0.00373648
-0.00215364
-0.00105312
-0.000382959
-6.56729e-05
0
0
-0.000397467
-0.00152265
-0.00331322
-0.00570693
-0.008639
-0.0120417
-0.0158453
-0.019979
-0.0243723
-0.0289558
-0.033662
-0.038425
-0.0431812
-0.0478682
-0.0524254
-0.0567933
-0.0609134
-0.0647287
-0.0681836
-0.0712248
-0.0738017
-0.0758675
-0.0773805
-0.078305
-0.0786128
-0.0782843
-0.0773099
-0.075691
-0.0734412
-0.0705867
-0.0671668
-0.0632341
-0.0588539
-0.0541034
-0.0490706
-0.043852
-0.0385504
-0.0332723
-0.028124
-0.0232089
-0.0186227
-0.0144505
-0.0107625
-0.0076106
-0.00502573
-0.00301524
-0.0015616
-0.000622176
-0.000130514
0
0
-0.000489694
-0.00185065
-0.00398506
-0.00680177
-0.0102135
-0.0141356
-0.0184855
-0.0231828
-0.0281495
-0.0333104
-0.0385925
-0.0439255
-0.049241
-0.0544724
-0.0595546
-0.0644237
-0.0690169
-0.0732726
-0.077131
-0.0805344
-0.0834281
-0.0857615
-0.0874889
-0.0885711
-0.0889766
-0.0886828
-0.0876777
-0.0859607
-0.083544
-0.0804531
-0.0767278
-0.0724222
-0.0676044
-0.062356
-0.0567705
-0.0509518
-0.0450116
-0.0390664
-0.0332341
-0.0276301
-0.0223631
-0.0175309
-0.0132167
-0.00948479
-0.00637786
-0.00391451
-0.00208804
-0.000866619
-0.000195227
0
0
-0.000577481
-0.00216518
-0.00463243
-0.0078604
-0.0117395
-0.0161678
-0.0210494
-0.0262941
-0.0318164
-0.037535
-0.0433724
-0.0492541
-0.055108
-0.0608641
-0.0664537
-0.0718095
-0.0768652
-0.0815557
-0.0858174
-0.0895891
-0.0928122
-0.0954322
-0.0973998
-0.0986717
-0.0992125
-0.0989959
-0.0980061
-0.0962392
-0.0937043
-0.0904249
-0.0864393
-0.0818016
-0.0765809
-0.0708618
-0.0647424
-0.0583334
-0.0517548
-0.0451336
-0.0385998
-0.0322821
-0.0263037
-0.0207773
-0.0158011
-0.0114541
-0.0077931
-0.00485015
-0.00263101
-0.00111553
-0.000259722
0
0
-0.000660678
-0.00246465
-0.00525095
-0.00887459
-0.0132045
-0.0181217
-0.0235171
-0.0292906
-0.0353491
-0.0416058
-0.0479787
-0.05439
-0.0607644
-0.0670293
-0.0731134
-0.0789468
-0.0844603
-0.0895862
-0.0942579
-0.0984107
-0.101983
-0.104916
-0.107157
-0.108657
-0.109378
-0.109287
-0.108364
-0.1066
-0.104
-0.100583
-0.0963843
-0.0914559
-0.0858665
-0.0797021
-0.0730645
-0.0660702
-0.0588478
-0.051535
-0.0442747
-0.0372107
-0.0304823
-0.0242197
-0.0185385
-0.0135351
-0.0092831
-0.00582984
-0.00319518
-0.00137138
-0.00032486
0
0
-0.000739153
-0.00274793
-0.00583734
-0.00983805
-0.0145987
-0.0199838
-0.0258717
-0.0321524
-0.0387258
-0.0454997
-0.0523883
-0.0593105
-0.066189
-0.072949
-0.0795174
-0.0858224
-0.091793
-0.0973592
-0.102452
-0.107004
-0.11095
-0.114228
-0.11678
-0.118553
-0.119503
-0.119593
-0.118794
-0.117092
-0.114484
-0.110986
-0.106625
-0.101451
-0.0955298
-0.0889472
-0.0818075
-0.0742322
-0.0663582
-0.0583346
-0.0503182
-0.0424694
-0.034946
-0.0278982
-0.021462
-0.0157541
-0.0108674
-0.00686727
-0.00378921
-0.00163865
-0.00039205
0
0
-0.000812704
-0.00301384
-0.00638862
-0.0107452
-0.0159132
-0.021742
-0.0280977
-0.0348612
-0.0419257
-0.049194
-0.0565768
-0.0639908
-0.0713566
-0.0785984
-0.0856418
-0.0924139
-0.0988424
-0.104856
-0.110383
-0.115355
-0.119703
-0.12336
-0.126266
-0.128362
-0.129595
-0.129924
-0.129311
-0.127735
-0.125185
-0.121666
-0.117201
-0.111832
-0.105621
-0.0986524
-0.0910305
-0.0828813
-0.0743495
-0.0655955
-0.0567915
-0.0481158
-0.0397476
-0.0318595
-0.0246113
-0.0181433
-0.012571
-0.00798021
-0.00442431
-0.00192304
-0.000463016
0
0
-0.000881031
-0.00326107
-0.00690171
-0.0115905
-0.0171398
-0.0233846
-0.0301801
-0.0373988
-0.0449275
-0.0526647
-0.0605182
-0.0684027
-0.0762378
-0.0839468
-0.0914551
-0.0986892
-0.105576
-0.112044
-0.11802
-0.123433
-0.128211
-0.132285
-0.135587
-0.138056
-0.139631
-0.140261
-0.139902
-0.138521
-0.136097
-0.132627
-0.128123
-0.122619
-0.116169
-0.108854
-0.100777
-0.0920672
-0.0828761
-0.0733754
-0.0637532
-0.0542079
-0.0449418
-0.0361535
-0.02803
-0.0207391
-0.0144221
-0.00918897
-0.00511334
-0.00223105
-0.000539664
0
0
-0.000943739
-0.00348809
-0.00737326
-0.0123682
-0.0182696
-0.0248998
-0.0321039
-0.0397466
-0.0477093
-0.0558867
-0.0641841
-0.072515
-0.0807984
-0.0889576
-0.096918
-0.104606
-0.11195
-0.118877
-0.125313
-0.131186
-0.136421
-0.140947
-0.14469
-0.147582
-0.149557
-0.150553
-0.150518
-0.149406
-0.147187
-0.143842
-0.139372
-0.133801
-0.127174
-0.119563
-0.111069
-0.101822
-0.091979
-0.0817221
-0.0712558
-0.0607998
-0.0505822
-0.0408307
-0.0317633
-0.0235794
-0.016451
-0.0105154
-0.0058701
-0.00256959
-0.000624001
0
0
-0.00100036
-0.00369319
-0.00779969
-0.0130723
-0.019294
-0.0262756
-0.0338534
-0.0418855
-0.0502482
-0.0588332
-0.067544
-0.0762932
-0.0849999
-0.093588
-0.101984
-0.110115
-0.117909
-0.125295
-0.132199
-0.138546
-0.144262
-0.149271
-0.153495
-0.156859
-0.159291
-0.160719
-0.161079
-0.160315
-0.15838
-0.155244
-0.150893
-0.145335
-0.138604
-0.130762
-0.121904
-0.112157
-0.101681
-0.0906686
-0.0793404
-0.0679381
-0.0567177
-0.045939
-0.0358556
-0.0267029
-0.0186884
-0.0119819
-0.00670888
-0.00294584
-0.000718091
0
0
-0.00105036
-0.00387455
-0.00817725
-0.0136967
-0.0202039
-0.0274998
-0.0354131
-0.0437958
-0.0525206
-0.0614763
-0.0705654
-0.0797
-0.0888
-0.0977902
-0.106598
-0.115154
-0.123387
-0.131226
-0.138597
-0.145428
-0.15164
-0.157156
-0.161896
-0.165777
-0.168718
-0.170641
-0.171468
-0.171131
-0.169567
-0.166731
-0.162591
-0.157138
-0.150391
-0.142399
-0.133245
-0.123051
-0.111979
-0.100228
-0.0880328
-0.0756581
-0.0633892
-0.0515216
-0.0403484
-0.0301466
-0.0211648
-0.0136111
-0.00764416
-0.00336707
-0.00082403
0
0
-0.00109321
-0.00403029
-0.00850217
-0.0142352
-0.0209903
-0.0285603
-0.0367671
-0.0454582
-0.0545027
-0.0637876
-0.0732145
-0.082696
-0.0921531
-0.101512
-0.110703
-0.119658
-0.128308
-0.136584
-0.144415
-0.151727
-0.158443
-0.164483
-0.169763
-0.174196
-0.177694
-0.180169
-0.181532
-0.181699
-0.180596
-0.178154
-0.174326
-0.169083
-0.162424
-0.154379
-0.145019
-0.134454
-0.122843
-0.110388
-0.0973383
-0.0839789
-0.0706261
-0.0576135
-0.0452783
-0.0339449
-0.0239094
-0.0154251
-0.00869029
-0.00384058
-0.000943933
0
0
-0.00112838
-0.00415865
-0.00877089
-0.0146821
-0.0216449
-0.0294455
-0.0379007
-0.0468537
-0.0561711
-0.0657386
-0.0754574
-0.085241
-0.0950118
-0.104699
-0.114234
-0.123553
-0.132589
-0.141277
-0.149548
-0.157328
-0.164543
-0.17111
-0.176943
-0.181953
-0.186044
-0.18912
-0.19108
-0.191829
-0.191272
-0.189325
-0.185918
-0.180999
-0.174545
-0.166565
-0.157109
-0.146272
-0.134203
-0.121106
-0.107236
-0.0928992
-0.0784422
-0.0642389
-0.0506747
-0.0381277
-0.026949
-0.0174448
-0.00986128
-0.0043736
-0.00107993
0
0
-0.00115541
-0.00425807
-0.0089803
-0.0150321
-0.0221601
-0.0301453
-0.0388001
-0.0479647
-0.0575038
-0.067302
-0.0772608
-0.0872949
-0.0973286
-0.107294
-0.117125
-0.126763
-0.136144
-0.145205
-0.153882
-0.162104
-0.169797
-0.17688
-0.183266
-0.188863
-0.19357
-0.197283
-0.199893
-0.20129
-0.201363
-0.200009
-0.197135
-0.192666
-0.18655
-0.17877
-0.169351
-0.158367
-0.145952
-0.132301
-0.117674
-0.102392
-0.0868317
-0.0714075
-0.0565574
-0.0427191
-0.030307
-0.0196897
-0.0111705
-0.00497324
-0.00123414
0
0
-0.00117394
-0.00432735
-0.00912797
-0.0152814
-0.0225301
-0.0306512
-0.039454
-0.0487764
-0.0584813
-0.0684532
-0.078594
-0.0888198
-0.0990574
-0.109242
-0.119312
-0.129211
-0.138881
-0.148264
-0.157299
-0.165919
-0.174054
-0.181625
-0.188545
-0.194722
-0.200051
-0.204423
-0.207721
-0.209821
-0.2106
-0.209933
-0.207706
-0.203815
-0.198181
-0.190754
-0.18153
-0.170553
-0.157933
-0.143851
-0.128564
-0.112401
-0.0957647
-0.0791113
-0.0629335
-0.047735
-0.0340024
-0.022177
-0.0126306
-0.00564639
-0.0014087
0
0
-0.00118376
-0.0043658
-0.00921251
-0.0154276
-0.022751
-0.0309576
-0.0398542
-0.0492771
-0.0590881
-0.0691715
-0.0794301
-0.0897817
-0.100156
-0.110491
-0.12073
-0.130822
-0.140713
-0.150351
-0.15968
-0.168639
-0.177161
-0.185172
-0.192589
-0.199317
-0.205255
-0.210288
-0.214293
-0.217137
-0.218683
-0.218789
-0.217317
-0.214136
-0.209135
-0.20223
-0.193378
-0.182589
-0.169941
-0.155588
-0.139774
-0.122832
-0.105182
-0.0873202
-0.0697948
-0.0531815
-0.0380481
-0.0249208
-0.0142527
-0.0063996
-0.00160573
0
0
-0.00118485
-0.00437339
-0.00923383
-0.0154702
-0.0228219
-0.0310622
-0.0399966
-0.04946
-0.0593136
-0.0694416
-0.0797479
-0.0901523
-0.100587
-0.110995
-0.121324
-0.131526
-0.141557
-0.151368
-0.16091
-0.17013
-0.178966
-0.18735
-0.195202
-0.202433
-0.208943
-0.214616
-0.219327
-0.222935
-0.225293
-0.226243
-0.225624
-0.22328
-0.219067
-0.212861
-0.204578
-0.194185
-0.181716
-0.167291
-0.151129
-0.133552
-0.114993
-0.0959781
-0.0771142
-0.0590519
-0.0424498
-0.0279315
-0.0160467
-0.007239
-0.00182732
0
0
-0.00117744
-0.00435093
-0.00919347
-0.0154116
-0.0227452
-0.0309673
-0.0398824
-0.0493243
-0.0591538
-0.0692554
-0.0795339
-0.0899115
-0.100324
-0.110717
-0.121044
-0.131264
-0.141338
-0.151226
-0.160885
-0.17027
-0.179326
-0.187994
-0.1962
-0.203862
-0.210882
-0.217151
-0.22254
-0.226908
-0.230099
-0.231943
-0.232261
-0.230871
-0.227595
-0.22227
-0.214765
-0.204996
-0.192947
-0.178689
-0.162401
-0.144383
-0.125065
-0.104999
-0.0848421
-0.0653246
-0.0472037
-0.0312145
-0.01802
-0.00817008
-0.00207549
0
0
-0.00116204
-0.00430024
-0.00909498
-0.0152569
-0.0225277
-0.0306805
-0.039519
-0.0488764
-0.058613
-0.0686134
-0.078784
-0.089049
-0.0993473
-0.10963
-0.119855
-0.129989
-0.139998
-0.149851
-0.159514
-0.168951
-0.178116
-0.186958
-0.195414
-0.20341
-0.210856
-0.217648
-0.223662
-0.228759
-0.232778
-0.235542
-0.236856
-0.236517
-0.234315
-0.230048
-0.223536
-0.214637
-0.203274
-0.189458
-0.173313
-0.155099
-0.135227
-0.114261
-0.0929032
-0.0719598
-0.052295
-0.0347692
-0.0201777
-0.00919753
-0.00235219
0
0
-0.00113952
-0.00422434
-0.00894426
-0.0150152
-0.0221812
-0.0302156
-0.0389215
-0.0481313
-0.0577047
-0.0675268
-0.0775052
-0.0875665
-0.0976534
-0.107721
-0.117735
-0.127666
-0.137491
-0.147186
-0.156727
-0.166086
-0.175231
-0.18412
-0.192701
-0.200912
-0.208674
-0.215891
-0.222449
-0.228212
-0.233024
-0.236702
-0.239045
-0.239829
-0.238818
-0.235773
-0.230462
-0.222684
-0.212294
-0.199227
-0.183537
-0.165425
-0.145263
-0.123608
-0.101192
-0.0788967
-0.0576954
-0.0385876
-0.0225214
-0.0103249
-0.00265923
0
0
-0.00111115
-0.00412762
-0.00874993
-0.0146997
-0.0217232
-0.0295937
-0.0381135
-0.0471136
-0.0564534
-0.0660183
-0.0757172
-0.0854795
-0.0952517
-0.104994
-0.114679
-0.124285
-0.133795
-0.143197
-0.152476
-0.161617
-0.170597
-0.179388
-0.187951
-0.196238
-0.204181
-0.2117
-0.218692
-0.225032
-0.230568
-0.235123
-0.238491
-0.240438
-0.240705
-0.23902
-0.235105
-0.228696
-0.219571
-0.207584
-0.1927
-0.175039
-0.15491
-0.132839
-0.109572
-0.0860508
-0.0633612
-0.042653
-0.0250486
-0.0115546
-0.00299823
0
0
-0.00107867
-0.00401609
-0.00852379
-0.0143286
-0.0211779
-0.0288443
-0.0371282
-0.0458593
-0.0548959
-0.0641238
-0.0734538
-0.0828182
-0.0921681
-0.10147
-0.110701
-0.11985
-0.128909
-0.137874
-0.146743
-0.155512
-0.164171
-0.172706
-0.181093
-0.189298
-0.197271
-0.204946
-0.212236
-0.219031
-0.225192
-0.23055
-0.234903
-0.238013
-0.239609
-0.23939
-0.237035
-0.232223
-0.224655
-0.21409
-0.200391
-0.183574
-0.16386
-0.141715
-0.117869
-0.0933111
-0.069231
-0.0469386
-0.0277523
-0.0128873
-0.00337058
0
0
-0.00104435
-0.00389763
-0.00828133
-0.0139256
-0.0205773
-0.0280063
-0.0360101
-0.0444162
-0.0530818
-0.0618935
-0.0707638
-0.0796291
-0.0884455
-0.0971857
-0.105836
-0.114391
-0.122855
-0.131234
-0.139537
-0.147773
-0.155947
-0.164059
-0.1721
-0.180053
-0.187887
-0.195553
-0.202983
-0.210086
-0.216741
-0.222793
-0.228052
-0.232283
-0.235212
-0.23652
-0.235853
-0.232836
-0.227094
-0.218289
-0.20617
-0.190628
-0.171764
-0.149952
-0.125875
-0.100538
-0.0752238
-0.0514061
-0.0306198
-0.0143219
-0.0037774
0
0
-0.00101111
-0.00378233
-0.00804232
-0.0135212
-0.0199619
-0.027129
-0.0348155
-0.0428455
-0.0510753
-0.0593921
-0.0677117
-0.0759748
-0.0841438
-0.0921991
-0.100135
-0.107957
-0.115679
-0.123318
-0.130897
-0.138436
-0.145955
-0.15347
-0.160989
-0.168512
-0.176026
-0.183504
-0.190899
-0.198141
-0.205131
-0.211735
-0.217781
-0.223049
-0.227267
-0.230113
-0.23121
-0.230139
-0.226457
-0.219731
-0.209585
-0.195769
-0.178238
-0.157231
-0.133344
-0.107562
-0.0812375
-0.0560047
-0.0336326
-0.0158551
-0.00421952
0
0
-0.000982649
-0.00368294
-0.00783167
-0.0131534
-0.0193822
-0.0262739
-0.0336141
-0.0412229
-0.0489553
-0.0567001
-0.0643772
-0.0719337
-0.0793395
-0.086584
-0.0936715
-0.100618
-0.107449
-0.114194
-0.120887
-0.127564
-0.134259
-0.141003
-0.147821
-0.15473
-0.16174
-0.168842
-0.176013
-0.183208
-0.190352
-0.197338
-0.204017
-0.210192
-0.215607
-0.219946
-0.222824
-0.223793
-0.222355
-0.217986
-0.210188
-0.198556
-0.182869
-0.163195
-0.139993
-0.114182
-0.0871478
-0.0606701
-0.0367658
-0.017482
-0.0046975
0
0
-0.000963648
-0.00361549
-0.00768048
-0.0128694
-0.0189005
-0.0255155
-0.0324902
-0.0396389
-0.0468157
-0.0539126
-0.0608553
-0.067599
-0.0741237
-0.0804296
-0.0865325
-0.0924606
-0.0982512
-0.103948
-0.109597
-0.115249
-0.120952
-0.126752
-0.132691
-0.138807
-0.145124
-0.15166
-0.158414
-0.165364
-0.172465
-0.179639
-0.186767
-0.193681
-0.200152
-0.205883
-0.210496
-0.213533
-0.214456
-0.212667
-0.207552
-0.198544
-0.185227
-0.167459
-0.145509
-0.120169
-0.0928071
-0.0653239
-0.0399881
-0.0191952
-0.00521173
0
0
-0.000960043
-0.00360016
-0.00762751
-0.0127273
-0.0185924
-0.0249439
-0.0315436
-0.0381995
-0.0447656
-0.0511386
-0.0572532
-0.0630757
-0.0685988
-0.0738359
-0.0788166
-0.0835828
-0.0881853
-0.0926811
-0.0971312
-0.101598
-0.106146
-0.110836
-0.115726
-0.12087
-0.126314
-0.132095
-0.138235
-0.144739
-0.151591
-0.158744
-0.166113
-0.173564
-0.180907
-0.187875
-0.194114
-0.199174
-0.202501
-0.203443
-0.201285
-0.195305
-0.184879
-0.169619
-0.149547
-0.125261
-0.0980449
-0.0698738
-0.0432618
-0.0209861
-0.00576259
0
0
-0.000979459
-0.00366252
-0.00772119
-0.0127988
-0.0185496
-0.0246658
-0.0308912
-0.0370265
-0.0429273
-0.0484987
-0.0536878
-0.0584763
-0.0628729
-0.0669078
-0.0706266
-0.0740868
-0.0773542
-0.0805
-0.0835992
-0.0867286
-0.0899654
-0.0933856
-0.097063
-0.101068
-0.105463
-0.110306
-0.115642
-0.121501
-0.127894
-0.134807
-0.142193
-0.149957
-0.157952
-0.165953
-0.173649
-0.180616
-0.186308
-0.190048
-0.191046
-0.188439
-0.181395
-0.169254
-0.151737
-0.129169
-0.102667
-0.0742131
-0.0465436
-0.0228453
-0.00635087
0
0
-0.00103183
-0.0038353
-0.00802241
-0.0131718
-0.0188825
-0.0248069
-0.0306667
-0.0362556
-0.041434
-0.0461202
-0.0502792
-0.0539131
-0.0570517
-0.0597453
-0.0620588
-0.0640673
-0.0658529
-0.0675018
-0.0691033
-0.0707476
-0.072525
-0.0745254
-0.0768364
-0.0795428
-0.082725
-0.0864574
-0.0908059
-0.095825
-0.101553
-0.108009
-0.11518
-0.123017
-0.131418
-0.140213
-0.149143
-0.157833
-0.165772
-0.172289
-0.176549
-0.177583
-0.17436
-0.165937
-0.151687
-0.131577
-0.106455
-0.0782211
-0.0497859
-0.0247636
-0.00697829
0
0
-0.00113036
-0.00416091
-0.00860818
-0.0139551
-0.0197231
-0.025513
-0.0310202
-0.0360334
-0.0404236
-0.0441291
-0.0471405
-0.0494869
-0.0512247
-0.0524291
-0.0531875
-0.0535948
-0.0537508
-0.0537573
-0.0537175
-0.0537348
-0.0539119
-0.0543507
-0.0551513
-0.0564118
-0.0582269
-0.0606871
-0.063877
-0.0678725
-0.0727379
-0.0785214
-0.085248
-0.0929113
-0.10146
-0.110784
-0.120685
-0.130859
-0.140851
-0.150032
-0.157566
-0.162413
-0.163377
-0.159236
-0.148979
-0.132135
-0.109164
-0.0817618
-0.0529374
-0.0267345
-0.00764849
0
0
-0.00129285
-0.004695
-0.00957656
-0.0152823
-0.0212283
-0.0269498
-0.0321141
-0.0365098
-0.0400276
-0.0426361
-0.0443612
-0.0452675
-0.045445
-0.0449986
-0.0440416
-0.0426913
-0.0410659
-0.0392835
-0.0374608
-0.0357133
-0.034155
-0.0328982
-0.0320539
-0.0317311
-0.032037
-0.0330759
-0.0349483
-0.0377494
-0.0415665
-0.0464757
-0.0525364
-0.0597843
-0.0682197
-0.0777924
-0.0883788
-0.0997523
-0.111544
-0.123196
-0.133915
-0.142643
-0.148067
-0.148714
-0.143172
-0.13046
-0.110517
-0.0846818
-0.0559446
-0.028756
-0.00836848
0
0
-0.00154389
-0.00551149
-0.0110529
-0.0173173
-0.0235804
-0.029299
-0.0341133
-0.0378226
-0.040351
-0.0417122
-0.0419797
-0.0412642
-0.0396968
-0.0374176
-0.0345695
-0.0312938
-0.0277281
-0.0240064
-0.0202584
-0.0166104
-0.013186
-0.0101062
-0.00749076
-0.00545771
-0.00412408
-0.00360561
-0.00401634
-0.00546778
-0.00806745
-0.0119165
-0.0171058
-0.0237103
-0.0317801
-0.0413264
-0.0523012
-0.0645674
-0.077857
-0.0917162
-0.10544
-0.118011
-0.128062
-0.133921
-0.133789
-0.126118
-0.110193
-0.0868037
-0.0587519
-0.0308351
-0.00915097
0
0
-0.00191796
-0.0067095
-0.0131977
-0.0202579
-0.0269853
-0.0327468
-0.0371652
-0.0400691
-0.0414373
-0.0413478
-0.0399381
-0.037377
-0.0338448
-0.0295226
-0.0245857
-0.0192005
-0.0135246
-0.00770668
-0.00188812
0.00379558
0.00921339
0.0142374
0.0187417
0.0226014
0.0256919
0.0278888
0.0290669
0.0291012
0.0278671
0.0252416
0.0211058
0.015349
0.00787522
-0.00138582
-0.0124612
-0.0253074
-0.0397695
-0.0555219
-0.0719899
-0.0882576
-0.102984
-0.114376
-0.120297
-0.118607
-0.107806
-0.0879123
-0.0612991
-0.0329919
-0.010018
0
0
-0.00246443
-0.00842308
-0.0162144
-0.0243367
-0.031659
-0.0374575
-0.0413595
-0.0432545
-0.0432068
-0.0413847
-0.0380092
-0.0333201
-0.027556
-0.0209431
-0.0136911
-0.00599215
0.00197795
0.0100572
0.0180946
0.0259482
0.0334816
0.040563
0.0470624
0.0528507
0.0577986
0.0617749
0.0646466
0.0662776
0.0665293
0.0652603
0.0623277
0.0575893
0.0509079
0.0421592
0.0312451
0.0181168
0.0028112
-0.0144906
-0.0333785
-0.0530993
-0.0724254
-0.0895483
-0.102083
-0.107322
-0.102872
-0.0877282
-0.0635128
-0.0352649
-0.0110066
0
0
-0.00325535
-0.0108343
-0.0203573
-0.0298111
-0.0377968
-0.0435181
-0.0466523
-0.0471997
-0.0453534
-0.0414046
-0.0356799
-0.028504
-0.0201805
-0.0109838
-0.00115791
0.00908139
0.0195424
0.0300532
0.0404567
0.0506073
0.060367
0.0696028
0.0781838
0.0859796
0.0928584
0.0986855
0.103322
0.106625
0.108444
0.108622
0.106998
0.103403
0.0976627
0.0896068
0.079073
0.0659261
0.0500878
0.0315878
0.0106475
-0.0121951
-0.0359159
-0.0588181
-0.0784081
-0.0914954
-0.0947442
-0.0858586
-0.0652846
-0.037716
-0.0121782
0
0
-0.00439833
-0.0141903
-0.0259315
-0.0369305
-0.0455006
-0.0508303
-0.0527288
-0.0513827
-0.0471719
-0.0405493
-0.0319698
-0.0218544
-0.0105755
0.00154537
0.0142336
0.0272545
0.040406
0.0535114
0.0664126
0.0789653
0.0910339
0.102488
0.1132
0.12304
0.131878
0.139579
0.146002
0.150997
0.154408
0.156067
0.155796
0.153406
0.148694
0.14145
0.131457
0.118504
0.102407
0.0830466
0.0604461
0.0348893
0.00711284
-0.0214399
-0.0483535
-0.0701284
-0.0825206
-0.0817077
-0.0664216
-0.0404298
-0.0136332
0
0
-0.00605803
-0.0188234
-0.0332722
-0.0458522
-0.0546281
-0.0589037
-0.0587573
-0.0546698
-0.0472795
-0.0372419
-0.0251589
-0.0115523
0.00314045
0.0185586
0.0344065
0.0504403
0.0664569
0.0822831
0.0977674
0.112773
0.127173
0.140844
0.153666
0.165516
0.176268
0.185788
0.193938
0.200567
0.205514
0.208605
0.209651
0.208449
0.204773
0.198384
0.18902
0.17641
0.160276
0.140367
0.11651
0.0887151
0.0573646
0.0235065
-0.0107518
-0.0418761
-0.0648954
-0.0743193
-0.06654
-0.0434945
-0.0155337
0
0
-0.00849243
-0.0251644
-0.0426651
-0.0564405
-0.0644846
-0.0664713
-0.0629619
-0.0548736
-0.0431803
-0.0287719
-0.0124014
0.00531952
0.0239061
0.0429779
0.0622371
0.0814479
0.100421
0.118999
0.137048
0.154449
0.171089
0.18686
0.201654
0.21536
0.227859
0.239027
0.248729
0.256817
0.263133
0.267498
0.269721
0.269588
0.266862
0.261281
0.252556
0.240366
0.224365
0.204187
0.179484
0.149997
0.115715
0.0771653
0.0358957
-0.00490805
-0.039935
-0.0621044
-0.0648432
-0.04693
-0.0181372
0
0
-0.0121118
-0.0337156
-0.0541127
-0.0678135
-0.0732068
-0.0707869
-0.0618998
-0.048056
-0.0306219
-0.0107199
0.0107759
0.0332049
0.0560763
0.0790278
0.101792
0.124167
0.146001
0.167169
0.18757
0.207112
0.225707
0.243271
0.259715
0.274942
0.28885
0.301326
0.312243
0.321464
0.328834
0.33418
0.337311
0.338012
0.336042
0.331132
0.322973
0.311219
0.295473
0.275287
0.250171
0.219624
0.183241
0.140953
0.0935057
0.0432678
-0.00475982
-0.0423829
-0.0596715
-0.0504717
-0.0218283
0
0
-0.0175577
-0.0448556
-0.0666888
-0.0773255
-0.0765496
-0.0663789
-0.0492926
-0.0274985
-0.00272847
0.0237455
0.0510247
0.0784896
0.10572
0.132434
0.158442
0.183616
0.207866
0.231126
0.25334
0.274459
0.294431
0.313201
0.330705
0.346871
0.361614
0.374838
0.386432
0.39627
0.404208
0.410084
0.413715
0.414894
0.413387
0.408924
0.401199
0.389856
0.374474
0.354559
0.32952
0.29867
0.261257
0.216605
0.164497
0.105997
0.044881
-0.0106451
-0.0476079
-0.0529816
-0.0270907
0
0
-0.0257179
-0.0580363
-0.0768106
-0.0783168
-0.0655627
-0.0429521
-0.0142935
0.0176339
0.0509659
0.0845163
0.117562
0.149679
0.180636
0.210313
0.23866
0.265663
0.291326
0.31566
0.338673
0.360367
0.380733
0.399752
0.417391
0.433603
0.448327
0.461486
0.472989
0.482727
0.490571
0.496377
0.499977
0.50118
0.499768
0.495488
0.488049
0.477107
0.462247
0.442962
0.418621
0.388421
0.35136
0.306243
0.251873
0.187656
0.115106
0.0405577
-0.0217701
-0.050929
-0.0341508
0
0
-0.0371419
-0.068858
-0.0736715
-0.0552903
-0.0224338
0.0177486
0.0606304
0.103548
0.1451
0.184634
0.221907
0.256899
0.289691
0.320413
0.3492
0.376184
0.401481
0.425185
0.447372
0.468098
0.487397
0.505284
0.521758
0.536797
0.550363
0.562401
0.57284
0.581591
0.588547
0.593584
0.596558
0.597303
0.595627
0.591308
0.584088
0.573654
0.559628
0.541535
0.518756
0.490471
0.455561
0.412511
0.35934
0.293799
0.21436
0.123076
0.0312607
-0.0346275
-0.0412903
0
0
-0.0479275
-0.0588516
-0.0276803
0.0254807
0.0857214
0.145304
0.200954
0.251665
0.297458
0.338757
0.376096
0.409997
0.440922
0.469259
0.495329
0.519391
0.54165
0.562267
0.581368
0.599044
0.615359
0.630353
0.644045
0.656432
0.667497
0.677203
0.685498
0.692316
0.697573
0.701171
0.702996
0.702916
0.700776
0.696399
0.689574
0.680047
0.667504
0.651541
0.631623
0.607009
0.576639
0.538955
0.491641
0.431339
0.353659
0.254615
0.136361
0.0206706
-0.0381779
0
0
-0.0258813
0.0382679
0.134931
0.229532
0.311508
0.379892
0.436582
0.483915
0.523939
0.558266
0.588117
0.614405
0.637809
0.658837
0.67787
0.695198
0.711038
0.725555
0.738874
0.751084
0.76225
0.772413
0.781595
0.789802
0.797025
0.803244
0.808424
0.81252
0.815475
0.817225
0.817689
0.816778
0.814388
0.810398
0.804663
0.79701
0.787218
0.775003
0.759976
0.741587
0.71902
0.691015
0.655553
0.609308
0.546777
0.459283
0.335872
0.174337
0.0194644
0
0
0.224507
0.427816
0.564578
0.653774
0.713395
0.754917
0.785163
0.808166
0.826349
0.841203
0.853671
0.864366
0.8737
0.881957
0.889335
0.895979
0.901992
0.90745
0.912408
0.916906
0.92097
0.924617
0.927856
0.930687
0.933107
0.935105
0.936666
0.93777
0.938395
0.938512
0.93809
0.937092
0.935477
0.933197
0.930193
0.926396
0.921715
0.91603
0.909176
0.900909
0.890862
0.878441
0.862648
0.841694
0.812166
0.767136
0.691864
0.555729
0.311528
0
