# vtk DataFile Version 2.0
v_velocity
ASCII
DATASET RECTILINEAR_GRID
DIMENSIONS 51 52 1
X_COORDINATES 51 double
0 0.02 0.04 0.06 0.08 0.1 0.12 0.14 0.16 0.18 0.2 0.22 0.24 0.26 0.28 0.3 0.32 0.34 0.36 0.38 0.4 0.42 0.44 0.46 0.48 0.5 0.52 0.54 0.56 0.58 0.6 0.62 0.64 0.66 0.68 0.7 0.72 0.74 0.76 0.78 0.8 0.82 0.84 0.86 0.88 0.9 0.92 0.94 0.96 0.98 1 
Y_COORDINATES 52 double
0 0.01 0.03 0.05 0.07 0.09 0.11 0.13 0.15 0.17 0.19 0.21 0.23 0.25 0.27 0.29 0.31 0.33 0.35 0.37 0.39 0.41 0.43 0.45 0.47 0.49 0.51 0.53 0.55 0.57 0.59 0.61 0.63 0.65 0.67 0.69 0.71 0.73 0.75 0.77 0.79 0.81 0.83 0.85 0.87 0.89 0.91 0.93 0.95 0.97 0.99 1 
Z_COORDINATES 1 double
0.0

CELL_DATA 2550
SCALARS v_velocity double 1
LOOKUP_TABLE default
0
0
0
0
0
0
0
0
0
0
0
0
0
0
0
0
0
0
0
0
0
0
0
0
0
0
0
0
0
0
0
0
0
0
0
0
0
0
0
0
0
0
0
0
0
0
0
0
0
0
-6.15e-05
-5.42515e-05
1.22112e-05
9.88043e-05
0.000185958
0.000264812
0.000331928
0.00038653
0.000429107
0.000460671
0.000482371
0.000495277
0.000500274
0.000498023
0.000488958
0.000473309
0.000451155
0.000422471
0.00038719
0.000345268
0.00029674
0.000241774
0.000180725
0.000114163
4.29115e-05
-3.19457e-05
-0.000109061
-0.000186842
-0.000263478
-0.000336997
-0.000405321
-0.000466354
-0.000518061
-0.000558567
-0.000586251
-0.000599835
-0.000598461
-0.000581757
-0.000549876
-0.000503522
-0.000443957
-0.00037301
-0.00029309
-0.000207269
-0.000119478
-3.49525e-05
3.88906e-05
9.09096e-05
0.00010431
5.83477e-05
-0.000116397
-3.98826e-05
0.000190626
0.000479019
0.00077215
0.0010424
0.00127687
0.00147096
0.00162452
0.00173965
0.0018193
0.00186648
0.00188388
0.00187356
0.001837
0.00177506
0.00168818
0.00157648
0.00144001
0.00127894
0.00109371
0.000885276
0.000655226
0.000405912
0.000140536
-0.000136808
-0.000421154
-0.000706716
-0.000987018
-0.00125506
-0.00150355
-0.00172517
-0.00191284
-0.00206012
-0.00216142
-0.00221239
-0.00221015
-0.00215351
-0.00204314
-0.00188167
-0.00167374
-0.00142606
-0.00114751
-0.000849341
-0.000545699
-0.000254677
-9.95966e-08
0.000185728
0.000258856
0.000163088
-0.000104722
0.000142143
0.000627477
0.00120617
0.00179151
0.0023345
0.00280987
0.00320694
0.00352355
0.00376215
0.00392733
0.00402422
0.00405754
0.00403113
0.00394781
0.00380939
0.00361693
0.003371
0.00307209
0.00272098
0.00231911
0.00186893
0.00137422
0.000840268
0.000274103
-0.000315514
-0.000918092
-0.00152156
-0.00211253
-0.00267662
-0.00319893
-0.00366457
-0.00405925
-0.00436991
-0.00458534
-0.00469679
-0.00469852
-0.00458821
-0.00436738
-0.00404155
-0.00362043
-0.00311802
-0.00255277
-0.00194797
-0.00133244
-0.000741932
-0.000221381
0.000171802
0.000363603
0.000258951
-1.6979e-06
0.000541369
0.00137664
0.00232462
0.0032715
0.00414906
0.00491986
0.00556648
0.00608401
0.00647471
0.00674441
0.00690012
0.00694862
0.00689557
0.00674525
0.00650062
0.00616356
0.00573541
0.00521745
0.00461155
0.00392073
0.00314969
0.0023053
0.00139689
0.000436521
-0.000560949
-0.00157796
-0.00259448
-0.00358841
-0.0045362
-0.00541349
-0.00619605
-0.00686064
-0.00738606
-0.00775415
-0.00795071
-0.00796644
-0.00779763
-0.00744677
-0.00692296
-0.00624216
-0.00542743
-0.00450906
-0.00352503
-0.00252172
-0.00155533
-0.00069418
-2.20046e-05
0.000357382
0.000313499
0.000200327
0.00117933
0.00246586
0.00386023
0.00523007
0.00649272
0.00760084
0.00853125
0.00927649
0.00983847
0.0102241
0.0104421
0.0105011
0.0104086
0.0101703
0.0097904
0.0092718
0.0086168
0.00782785
0.00690833
0.00586341
0.0047007
0.00343094
0.00206842
0.000631282
-0.000858404
-0.00237475
-0.00388844
-0.00536731
-0.00677714
-0.00808271
-0.00924898
-0.0102424
-0.0110323
-0.0115924
-0.0119022
-0.0119479
-0.0117242
-0.0112343
-0.0104913
-0.00951815
-0.00834812
-0.00702484
-0.0056027
-0.00414746
-0.00273732
-0.00146493
-0.000440272
0.000204992
0.000311052
0.000501521
0.00206205
0.00390582
0.00582443
0.00767548
0.00936757
0.0108471
0.0120871
0.0130787
0.013824
0.014331
0.0146102
0.014672
0.0145256
0.0141781
0.013635
0.0129004
0.0119775
0.0108704
0.0095843
0.00812689
0.00650929
0.00474672
0.00285913
0.000871532
-0.0011859
-0.00327801
-0.00536518
-0.00740405
-0.00934865
-0.0111516
-0.012766
-0.0141465
-0.0152519
-0.0160466
-0.0165026
-0.0166011
-0.0163341
-0.0157055
-0.0147322
-0.0134444
-0.0118862
-0.0101156
-0.00820446
-0.00623893
-0.00432016
-0.00256545
-0.00111043
-0.000112294
0.000245379
0.000898988
0.00318724
0.00569639
0.00821814
0.0106075
0.0127703
0.0146506
0.0162208
0.017472
0.0184075
0.0190372
0.0193733
0.0194282
0.0192126
0.0187353
0.0180029
0.0170205
0.0157928
0.0143254
0.0126255
0.0107038
0.00857513
0.00625973
0.00378365
0.0011793
-0.00151442
-0.00425243
-0.00698403
-0.00965385
-0.0122032
-0.0145715
-0.0166987
-0.0185267
-0.0200023
-0.0210794
-0.0217213
-0.0219027
-0.0216123
-0.0208537
-0.0196473
-0.0180306
-0.0160584
-0.0138037
-0.0113563
-0.00882379
-0.00633065
-0.00401909
-0.00204986
-0.000603955
0.000114865
0.00138868
0.0045482
0.0078308
0.0110348
0.0140193
0.0166924
0.0190005
0.0209181
0.0224387
0.0235684
0.0243193
0.0247062
0.0247437
0.0244441
0.0238176
0.022872
0.0216136
0.0200485
0.0181837
0.0160289
0.0135975
0.0109085
0.00798713
0.00486585
0.00158478
-0.00180816
-0.00525753
-0.00870103
-0.0120706
-0.0152941
-0.0182968
-0.0210043
-0.0233445
-0.0252508
-0.0266649
-0.0275399
-0.0278429
-0.0275574
-0.026686
-0.0252514
-0.0232976
-0.0208906
-0.0181179
-0.0150882
-0.0119307
-0.008794
-0.00584556
-0.00327128
-0.00127535
-8.03612e-05
0.00196616
0.00613589
0.0102981
0.0142628
0.0178984
0.0211207
0.0238821
0.0261627
0.027961
0.029287
0.0301567
0.0305879
0.0305976
0.0302002
0.0294072
0.0282278
0.0266693
0.024739
0.0224455
0.0198005
0.0168206
0.0135285
0.00995468
0.00613776
0.00212561
-0.00202474
-0.00624733
-0.010468
-0.0146055
-0.0185735
-0.0222823
-0.0256421
-0.0285651
-0.0309699
-0.0327843
-0.033949
-0.0344215
-0.0341786
-0.0332198
-0.0315691
-0.029276
-0.026417
-0.0230942
-0.0194352
-0.0155917
-0.011737
-0.0080647
-0.00478675
-0.00213116
-0.000340083
0.00262684
0.00793987
0.0130843
0.0178865
0.0222284
0.0260378
0.0292776
0.0319362
0.0340195
0.0355437
0.0365297
0.0369991
0.036972
0.036465
0.0354913
0.0340611
0.0321829
0.0298649
0.0271171
0.0239534
0.0203927
0.0164617
0.0121953
0.0076383
0.00284604
-0.0021156
-0.00717024
-0.0122318
-0.0172056
-0.0219904
-0.026481
-0.0305705
-0.0341545
-0.0371343
-0.0394219
-0.0409433
-0.0416439
-0.0414914
-0.0404801
-0.0386331
-0.0360044
-0.0326796
-0.0287754
-0.0244386
-0.0198437
-0.0151902
-0.0106994
-0.00661055
-0.00317768
-0.000664942
0.00336599
0.00994864
0.0161738
0.0218872
0.026989
0.0314229
0.0351655
0.0382169
0.0405929
0.0423176
0.0434182
0.0439214
0.0438505
0.043225
0.0420597
0.0403661
0.0381535
0.035431
0.0322099
0.0285053
0.0243387
0.0197396
0.0147473
0.00941205
0.003796
-0.00202653
-0.00796911
-0.0139338
-0.0198127
-0.0254892
-0.0308414
-0.0357447
-0.0400757
-0.0437169
-0.0465616
-0.0485186
-0.0495178
-0.0495151
-0.0484965
-0.0464819
-0.0435277
-0.0397274
-0.0352116
-0.0301465
-0.0247304
-0.0191904
-0.0137774
-0.00876111
-0.00442428
-0.00105699
0.0041787
0.0121498
0.0195485
0.0262437
0.0321571
0.0372516
0.0415212
0.0449805
0.0476574
0.0495859
0.050801
0.0513353
0.0512164
0.0504668
0.0491031
0.0471382
0.0445821
0.0414445
0.0377374
0.033477
0.0286863
0.0233973
0.0176528
0.0115076
0.00502988
-0.00169846
-0.00858154
-0.0155102
-0.0223629
-0.0290081
-0.0353062
-0.0411136
-0.0462864
-0.0506858
-0.0541836
-0.0566678
-0.0580496
-0.0582691
-0.0573005
-0.0551575
-0.0518959
-0.0476155
-0.0424599
-0.0366144
-0.0303027
-0.0237812
-0.0173333
-0.0112624
-0.0058843
-0.00152001
0.00505973
0.0145298
0.0231892
0.0309325
0.0377064
0.0434965
0.0483167
0.0521992
0.0551861
0.0573231
0.0586545
0.0592197
0.0590516
0.0581758
0.0566114
0.0543723
0.0514692
0.0479122
0.0437134
0.0388895
0.0334643
0.0274713
0.0209557
0.0139759
0.00660497
-0.00106864
-0.00894062
-0.0168912
-0.0247861
-0.0324782
-0.0398102
-0.0466182
-0.0527361
-0.0580011
-0.0622603
-0.0653775
-0.0672408
-0.0677697
-0.0669227
-0.0647028
-0.061162
-0.0564038
-0.0505834
-0.0439054
-0.0366196
-0.0290144
-0.021409
-0.0141447
-0.00757569
-0.00205967
0.00600347
0.0170742
0.0270743
0.0359275
0.0436078
0.0501267
0.0555208
0.0598419
0.0631488
0.0655005
0.066952
0.0675506
0.067335
0.0663349
0.0645718
0.0620608
0.0588132
0.0548389
0.0501497
0.044762
0.0386997
0.0319967
0.0246992
0.016868
0.00857967
-7.21711e-05
-0.00897606
-0.0180028
-0.0270058
-0.0358232
-0.0442795
-0.0521896
-0.0593634
-0.0656118
-0.0707539
-0.0746246
-0.0770841
-0.0780266
-0.0773891
-0.0751588
-0.0713796
-0.0661553
-0.0596507
-0.0520893
-0.0437481
-0.03495
-0.0260542
-0.0174452
-0.00952128
-0.00268367
0.00700383
0.019767
0.0311808
0.0412001
0.0498294
0.0571083
0.0630986
0.0678739
0.0715115
0.0740855
0.0756628
0.0762998
0.0760418
0.0749229
0.0729675
0.0701919
0.0666078
0.0622247
0.0570535
0.0511095
0.0444156
0.0370048
0.0289234
0.0202327
0.0110112
0.00135598
-0.00861585
-0.0187671
-0.0289404
-0.0389593
-0.0486306
-0.0577476
-0.0660946
-0.0734536
-0.0796121
-0.084372
-0.08756
-0.0890387
-0.0887173
-0.0865611
-0.0826001
-0.076934
-0.0697342
-0.0612419
-0.0517626
-0.0416565
-0.0313272
-0.0212082
-0.011749
-0.00340176
0.00805418
0.0225912
0.0354835
0.0467196
0.0563366
0.0644042
0.0710118
0.0762567
0.0802363
0.0830413
0.0847518
0.0854344
0.0851418
0.0839131
0.0817757
0.0787476
0.0748405
0.0700633
0.0644253
0.05794
0.0506282
0.0425209
0.0336626
0.0241138
0.0139528
0.00327856
-0.00778842
-0.0191047
-0.0305037
-0.0417959
-0.0527709
-0.0632001
-0.0728415
-0.0814459
-0.088766
-0.0945655
-0.0986322
-0.10079
-0.100912
-0.0989358
-0.094869
-0.0888015
-0.0809074
-0.0714437
-0.0607444
-0.0492102
-0.0372941
-0.0254853
-0.0142921
-0.00422579
0.00914739
0.0255283
0.0399554
0.0524527
0.0630916
0.0719742
0.0792186
0.0849478
0.0892807
0.0923262
0.0941787
0.0949159
0.0945988
0.0932722
0.0909668
0.0877023
0.0834906
0.0783395
0.0722565
0.0652522
0.0573443
0.0485605
0.0389422
0.0285469
0.0174511
0.00575307
-0.00642535
-0.0189369
-0.0316076
-0.0442371
-0.0565988
-0.0684431
-0.0795009
-0.0894907
-0.0981266
-0.10513
-0.110243
-0.113244
-0.113962
-0.112295
-0.108222
-0.101814
-0.0932427
-0.0827771
-0.0707799
-0.0576946
-0.0440289
-0.030335
-0.0171887
-0.00516973
0.0102758
0.0285585
0.0445677
0.0583638
0.0700544
0.0797749
0.0876738
0.0939008
0.0985981
0.101894
0.103898
0.1047
0.10437
0.102959
0.100502
0.0970209
0.0925272
0.0870276
0.080527
0.0730328
0.0645586
0.0551274
0.0447758
0.0335567
0.0215425
0.00882849
-0.00446469
-0.0181885
-0.0321647
-0.0461839
-0.060006
-0.0733614
-0.0859548
-0.0974708
-0.107583
-0.115967
-0.122312
-0.126342
-0.127832
-0.126632
-0.122679
-0.116017
-0.106807
-0.0953241
-0.0819586
-0.0671987
-0.0516124
-0.0358227
-0.0204824
-0.00624965
0.0114312
0.0316612
0.0492899
0.0644156
0.0771824
0.0877601
0.0963285
0.103065
0.108137
0.111692
0.113856
0.114734
0.114403
0.112924
0.110334
0.106658
0.101908
0.0960892
0.0892037
0.0812549
0.0722513
0.0622104
0.0511622
0.0391533
0.0262498
0.0125417
-0.00185454
-0.0167922
-0.0320915
-0.0475378
-0.0628799
-0.077831
-0.0920707
-0.105251
-0.117002
-0.12695
-0.134727
-0.139993
-0.14246
-0.141913
-0.13824
-0.131442
-0.121657
-0.109162
-0.0943707
-0.077816
-0.0601316
-0.04202
-0.0242215
-0.00748379
0.0126051
0.0348146
0.0540905
0.0705691
0.0844311
0.0958812
0.105131
0.112388
0.117842
0.121664
0.123997
0.124959
0.124641
0.123108
0.120404
0.116557
0.111578
0.105472
0.0982385
0.0898755
0.0803861
0.0697811
0.0580828
0.0453295
0.0315793
0.0169139
0.001443
-0.0146918
-0.031313
-0.0482043
-0.0651075
-0.0817218
-0.097705
-0.112677
-0.126227
-0.137927
-0.147346
-0.154075
-0.157748
-0.158076
-0.154876
-0.148095
-0.137835
-0.124361
-0.108103
-0.0896414
-0.069678
-0.0490042
-0.0284592
-0.00889249
0.0137889
0.0379967
0.0589372
0.0767841
0.0917546
0.104088
0.114028
0.121811
0.127653
0.131747
0.134256
0.135311
0.135015
0.133443
0.130644
0.126648
0.121469
0.11511
0.107567
0.0988346
0.0889085
0.077792
0.0654991
0.0520581
0.0375169
0.0219469
0.00544785
-0.0118472
-0.0297671
-0.0480981
-0.0665799
-0.0849026
-0.102706
-0.119582
-0.135079
-0.148716
-0.159995
-0.168427
-0.173562
-0.175018
-0.172525
-0.165957
-0.15536
-0.140974
-0.123237
-0.102769
-0.0803462
-0.0568573
-0.033253
-0.0104982
0.0149737
0.0411852
0.0637977
0.0830205
0.0991063
0.112328
0.122962
0.131274
0.137507
0.141875
0.144562
0.145715
0.14545
0.14385
0.140973
0.136851
0.1315
0.124922
0.11711
0.108054
0.0977445
0.0861755
0.0733513
0.0592896
0.0440263
0.0276201
0.0101583
-0.00823845
-0.0274094
-0.0471485
-0.0671984
-0.0872462
-0.10692
-0.125787
-0.143362
-0.15911
-0.172464
-0.182852
-0.189724
-0.192594
-0.191085
-0.184972
-0.174224
-0.159037
-0.139839
-0.117287
-0.092231
-0.065665
-0.0386647
-0.0123255
0.0161512
0.0443587
0.0686402
0.0892386
0.10644
0.12055
0.131877
0.140716
0.147336
0.151977
0.154841
0.156093
0.155862
0.154243
0.1513
0.147071
0.141574
0.134809
0.126769
0.117439
0.106801
0.0948427
0.0815575
0.0669514
0.0510469
0.0338884
0.0155476
-0.00386991
-0.0242184
-0.0453045
-0.0668804
-0.0886365
-0.110196
-0.131112
-0.150867
-0.168878
-0.184513
-0.19711
-0.206012
-0.210612
-0.210403
-0.205038
-0.194381
-0.178554
-0.15796
-0.133276
-0.105426
-0.0755149
-0.0447593
-0.014401
0.0173132
0.0474969
0.0734349
0.0954005
0.113711
0.128703
0.140716
0.150073
0.157073
0.161977
0.165011
0.166358
0.166161
0.164526
0.161526
0.157205
0.151583
0.144662
0.136433
0.126875
0.115966
0.103685
0.0900138
0.0749471
0.0584931
0.04068
0.0215623
0.00122681
-0.0201993
-0.0425409
-0.0655658
-0.0889758
-0.112398
-0.135379
-0.157379
-0.177777
-0.195876
-0.210926
-0.222158
-0.228826
-0.230275
-0.226004
-0.215739
-0.199497
-0.177624
-0.150802
-0.120017
-0.0864951
-0.0516046
-0.0167532
0.0184527
0.0505817
0.0781549
0.101471
0.120877
0.136737
0.149422
0.159283
0.166646
0.171799
0.17499
0.176419
0.176248
0.174594
0.17154
0.167136
0.161407
0.154357
0.145974
0.136235
0.125111
0.112573
0.0985954
0.0831579
0.0662546
0.047897
0.0281203
0.00699056
-0.0153877
-0.0388624
-0.0632233
-0.0881918
-0.113409
-0.138425
-0.16269
-0.185555
-0.206267
-0.223993
-0.237847
-0.246938
-0.250437
-0.247659
-0.238154
-0.221793
-0.198826
-0.16991
-0.136083
-0.0986915
-0.0592704
-0.0194125
0.0195639
0.0535982
0.0827772
0.107421
0.1279
0.144608
0.157942
0.168283
0.175986
0.181364
0.184688
0.186181
0.18602
0.184336
0.181224
0.176742
0.170918
0.163759
0.155253
0.145375
0.134091
0.121364
0.107159
0.0914441
0.0741984
0.055416
0.0351122
0.01333
-0.00985137
-0.0343071
-0.0598555
-0.0862452
-0.113141
-0.14011
-0.166606
-0.191964
-0.215391
-0.23598
-0.252731
-0.2646
-0.270566
-0.26973
-0.261422
-0.245314
-0.221515
-0.190618
-0.153688
-0.112186
-0.0678268
-0.0224107
0.0206426
0.0565356
0.0872849
0.113226
0.13475
0.152274
0.166226
0.177014
0.185023
0.190592
0.194018
0.195546
0.19537
0.193638
0.190456
0.18589
0.179977
0.172725
0.164122
0.154143
0.14275
0.1299
0.115547
0.0996489
0.0821714
0.063091
0.0424024
0.0201247
-0.00369038
-0.0289489
-0.0555026
-0.0831351
-0.111545
-0.140329
-0.168961
-0.196776
-0.222959
-0.246545
-0.26643
-0.281416
-0.29028
-0.291875
-0.285267
-0.269873
-0.245596
-0.21291
-0.172874
-0.12705
-0.0773435
-0.0257813
0.0216869
0.0593889
0.0916686
0.11887
0.141401
0.159703
0.174229
0.18542
0.193688
0.199404
0.202889
0.204411
0.204186
0.202378
0.199106
0.194446
0.18844
0.181104
0.172426
0.162379
0.150924
0.138011
0.123588
0.107602
0.0900049
0.070757
0.0498329
0.0272276
0.0029642
-0.0228966
-0.0502442
-0.0789034
-0.108616
-0.139021
-0.169627
-0.199793
-0.228702
-0.25535
-0.27855
-0.296958
-0.309143
-0.313687
-0.309344
-0.29521
-0.27091
-0.236728
-0.19366
-0.143348
-0.087888
-0.0295587
0.022698
0.0621601
0.0959286
0.124349
0.147842
0.166871
0.181916
0.19345
0.201918
0.207721
0.211208
0.212674
0.212355
0.210433
0.207042
0.202268
0.196162
0.188743
0.180005
0.169919
0.158443
0.145526
0.131107
0.115125
0.0975192
0.078235
0.057228
0.0344695
0.00995394
-0.0162921
-0.0441984
-0.0736359
-0.104398
-0.136175
-0.168531
-0.200864
-0.232384
-0.262076
-0.288695
-0.310774
-0.326674
-0.334694
-0.333231
-0.320992
-0.297234
-0.26196
-0.216033
-0.161126
-0.0995236
-0.0337782
0.0236807
0.0648604
0.100077
0.129671
0.154071
0.173762
0.189256
0.201059
0.20965
0.215466
0.218885
0.220231
0.219761
0.217678
0.214129
0.209214
0.202992
0.195488
0.186698
0.176596
0.165138
0.152269
0.137925
0.122035
0.104528
0.0853373
0.0643994
0.041664
0.017098
-0.00930612
-0.0375192
-0.0674613
-0.0989822
-0.131836
-0.165653
-0.199895
-0.233822
-0.266445
-0.296493
-0.322406
-0.342362
-0.354368
-0.356432
-0.346803
-0.324268
-0.288438
-0.239937
-0.18041
-0.112308
-0.0384757
0.0246443
0.0675123
0.104142
0.13486
0.160102
0.180377
0.196231
0.208208
0.216827
0.222562
0.225828
0.226974
0.226286
0.223984
0.220232
0.215142
0.208783
0.201185
0.192348
0.182248
0.170841
0.158069
0.143864
0.12815
0.110846
0.0918731
0.0711527
0.0486143
0.0241993
-0.00213218
-0.0303913
-0.0605477
-0.092511
-0.126106
-0.161039
-0.196858
-0.232899
-0.268233
-0.301609
-0.331414
-0.355679
-0.372136
-0.378383
-0.372144
-0.351629
-0.315921
-0.265273
-0.201203
-0.126291
-0.0436874
0.0256043
0.0701524
0.10817
0.13996
0.165967
0.186729
0.202831
0.214864
0.223393
0.228935
0.231943
0.232797
0.231809
0.229221
0.225213
0.219909
0.213386
0.205681
0.196798
0.186715
0.175389
0.162759
0.148755
0.133294
0.116291
0.0976538
0.0772926
0.0551189
0.0310513
0.00502039
-0.0230228
-0.0530959
-0.0851683
-0.119138
-0.154799
-0.191798
-0.229573
-0.267291
-0.303767
-0.337394
-0.366105
-0.387396
-0.398455
-0.39643
-0.378845
-0.344093
-0.291885
-0.223478
-0.141515
-0.04945
0.0265838
0.0728354
0.112228
0.145037
0.171718
0.192845
0.209056
0.220999
0.229294
0.234507
0.237132
0.237585
0.236206
0.233256
0.228931
0.223369
0.216653
0.208826
0.199897
0.189844
0.178625
0.166179
0.152432
0.137299
0.120686
0.102497
0.0826281
0.0609777
0.0374446
0.0119338
-0.0156375
-0.0453312
-0.0771738
-0.111137
-0.147104
-0.184831
-0.223881
-0.263551
-0.302769
-0.34
-0.373149
-0.399537
-0.415971
-0.418998
-0.405347
-0.372546
-0.319554
-0.247177
-0.158009
-0.0558009
0.0276156
0.0756389
0.116415
0.150187
0.177428
0.198769
0.214916
0.226588
0.234473
0.239193
0.241291
0.241219
0.239344
0.235949
0.231245
0.225377
0.218438
0.210475
0.201498
0.191489
0.180403
0.16818
0.154743
0.140005
0.123869
0.106229
0.0869767
0.0659968
0.0431729
0.018389
-0.00846653
-0.0374942
-0.0687724
-0.102341
-0.138174
-0.17614
-0.215942
-0.257034
-0.298509
-0.338966
-0.376373
-0.407959
-0.430222
-0.439108
-0.430469
-0.40078
-0.347989
-0.272199
-0.175795
-0.0627792
0.028746
0.0786694
0.120863
0.155534
0.183196
0.204559
0.220423
0.231601
0.238863
0.242899
0.244302
0.243566
0.241082
0.237154
0.232003
0.225785
0.218594
0.210482
0.201459
0.191506
0.18058
0.168618
0.155544
0.141266
0.125684
0.108689
0.0901665
0.0699922
0.0480384
0.0241725
-0.00173991
-0.0298309
-0.0602233
-0.0930178
-0.128272
-0.165967
-0.20595
-0.247853
-0.290975
-0.33412
-0.375409
-0.4121
-0.440479
-0.455951
-0.45344
-0.428183
-0.376814
-0.298402
-0.194881
-0.0704276
0.0300389
0.0820716
0.125744
0.161239
0.189142
0.210281
0.225587
0.235997
0.24238
0.245507
0.246027
0.244472
0.241259
0.236707
0.231046
0.224434
0.216969
0.208699
0.199636
0.189758
0.179022
0.167362
0.154699
0.140943
0.12599
0.109728
0.0920389
0.0727933
0.0518555
0.0290816
0.00432084
-0.022583
-0.0517878
-0.0834452
-0.117686
-0.154594
-0.194158
-0.236201
-0.280256
-0.325391
-0.369985
-0.411453
-0.446022
-0.468664
-0.473383
-0.454018
-0.405551
-0.32559
-0.215268
-0.0787961
0.0315827
0.0860392
0.131286
0.167504
0.195406
0.215999
0.230401
0.239706
0.244909
0.246868
0.246295
0.243756
0.239692
0.234428
0.228198
0.221159
0.213403
0.204978
0.195888
0.18611
0.175597
0.164282
0.152084
0.13891
0.124656
0.10921
0.0924497
0.0742448
0.0544552
0.0329306
0.00951015
-0.0159785
-0.0437181
-0.0738989
-0.106711
-0.142327
-0.180869
-0.222342
-0.266531
-0.312821
-0.359934
-0.405594
-0.446154
-0.476335
-0.489309
-0.477406
-0.433603
-0.353507
-0.236952
-0.0879471
0.0335007
0.0908307
0.137774
0.174564
0.202133
0.221761
0.23482
0.24261
0.246277
0.246779
0.244885
0.241195
0.23616
0.230106
0.223261
0.215773
0.207727
0.19916
0.190069
0.180427
0.170179
0.159258
0.14758
0.13505
0.121565
0.107013
0.0912715
0.0742104
0.0556893
0.0355561
0.0136459
-0.0102217
-0.0362443
-0.0646379
-0.0956358
-0.129481
-0.166407
-0.20659
-0.250063
-0.296553
-0.345207
-0.394202
-0.440233
-0.478025
-0.50011
-0.4973
-0.460216
-0.381814
-0.259926
-0.0979651
0.0359651
0.0967894
0.145565
0.182686
0.209455
0.227559
0.238722
0.244505
0.246229
0.244957
0.24151
0.236506
0.230396
0.223493
0.216009
0.208074
0.199757
0.191081
0.182032
0.172573
0.162646
0.152177
0.14108
0.129262
0.116618
0.103037
0.0883999
0.0725794
0.0554376
0.0368251
0.0165785
-0.00548325
-0.0295629
-0.0558892
-0.0847218
-0.116353
-0.151101
-0.189288
-0.231176
-0.276832
-0.325881
-0.377079
-0.427698
-0.472786
-0.504559
-0.512444
-0.484432
-0.410062
-0.284184
-0.108972
0.0392205
0.104368
0.155088
0.19214
0.217441
0.233281
0.241856
0.245052
0.244383
0.241008
0.235785
0.22933
0.222072
0.214296
0.206183
0.197835
0.189296
0.18057
0.171628
0.162423
0.152886
0.142941
0.132499
0.121466
0.109739
0.0972096
0.0837632
0.0692768
0.0536188
0.0366464
0.0182026
-0.00188754
-0.023823
-0.0478333
-0.074188
-0.103206
-0.135263
-0.170788
-0.210235
-0.253989
-0.30216
-0.354177
-0.408108
-0.459699
-0.501311
-0.52133
-0.505006
-0.437631
-0.309722
-0.12115
0.0436188
0.11416
0.166829
0.203139
0.226011
0.23861
0.243754
0.243706
0.240172
0.234385
0.227205
0.219215
0.210793
0.202176
0.193495
0.184814
0.176145
0.167464
0.158727
0.14987
0.140817
0.131487
0.121788
0.111625
0.1009
0.0895087
0.0773408
0.0642816
0.050208
0.0349872
0.0184733
0.000502874
-0.0191114
-0.0405892
-0.064195
-0.0902529
-0.119165
-0.151428
-0.187635
-0.228433
-0.274384
-0.325624
-0.381194
-0.437924
-0.488918
-0.522143
-0.520292
-0.463623
-0.336519
-0.134783
0.0496768
0.126926
0.181278
0.215719
0.234787
0.242886
0.243608
0.239619
0.232782
0.224348
0.215122
0.205608
0.196101
0.186757
0.177647
0.16878
0.160128
0.151638
0.143243
0.134864
0.126418
0.117815
0.108966
0.0997755
0.0901491
0.0799881
0.0691913
0.0576528
0.045261
0.031896
0.0174266
0.00170572
-0.015436
-0.0341997
-0.0548317
-0.0776423
-0.103031
-0.131519
-0.163777
-0.200638
-0.243033
-0.291766
-0.346936
-0.4068
-0.465899
-0.512719
-0.528071
-0.486668
-0.36448
-0.150317
0.0581693
0.143598
0.198779
0.229495
0.242831
0.244873
0.240099
0.23153
0.221089
0.209939
0.198752
0.187887
0.177514
0.167686
0.158388
0.14957
0.141155
0.13306
0.125194
0.117464
0.109778
0.102044
0.0941714
0.08607
0.0776496
0.06882
0.0594896
0.0495643
0.0389459
0.0275302
0.0152036
0.00183906
-0.01271
-0.0286191
-0.0461064
-0.0654526
-0.0870296
-0.111341
-0.139075
-0.171151
-0.208751
-0.253216
-0.305666
-0.365996
-0.430872
-0.490549
-0.525332
-0.504581
-0.393272
-0.168454
0.0702811
0.165201
0.219176
0.243195
0.248224
0.242453
0.231212
0.217686
0.203655
0.190037
0.177256
0.165458
0.154643
0.144734
0.135624
0.127194
0.119322
0.111891
0.104793
0.0979222
0.091182
0.0844799
0.0777283
0.0708427
0.0637415
0.0563444
0.0485719
0.0403434
0.0315764
0.0221841
0.0120727
0.001138
-0.0107406
-0.0237085
-0.037948
-0.0536983
-0.0712835
-0.0911561
-0.113958
-0.140604
-0.172368
-0.210928
-0.258219
-0.315758
-0.382844
-0.452926
-0.508043
-0.513781
-0.421916
-0.190282
0.0878388
0.192499
0.241009
0.253832
0.247448
0.232282
0.214125
0.195892
0.178885
0.163563
0.149977
0.137993
0.127412
0.11802
0.109616
0.10202
0.0950715
0.0886318
0.0825785
0.0768033
0.0712097
0.0657101
0.0602241
0.054677
0.0489983
0.0431205
0.036978
0.0305059
0.0236384
0.0163078
0.00844139
-4.12076e-05
-0.00923285
-0.019246
-0.0302233
-0.0423545
-0.055902
-0.0712406
-0.0889196
-0.109754
-0.134955
-0.166276
-0.206111
-0.257258
-0.321729
-0.3974
-0.471081
-0.508408
-0.447807
-0.217373
0.113557
0.224818
0.259784
0.255338
0.234694
0.209672
0.185467
0.163965
0.145553
0.130013
0.116932
0.105876
0.0964556
0.0883432
0.0812696
0.075017
0.069408
0.0642976
0.0595653
0.0551096
0.0508436
0.0466913
0.0425854
0.0384651
0.0342743
0.0299608
0.0254749
0.0207685
0.0157938
0.0105019
0.00484145
-0.00124417
-0.00782028
-0.0149664
-0.0227845
-0.0314119
-0.041042
-0.0519564
-0.0645779
-0.0795545
-0.0978932
-0.12116
-0.15174
-0.193042
-0.249179
-0.322852
-0.408753
-0.479249
-0.464585
-0.251524
0.150699
0.256534
0.264597
0.236957
0.201838
0.169489
0.142585
0.121048
0.104
0.0904793
0.079658
0.0708844
0.063663
0.0576219
0.0524822
0.0480326
0.0441116
0.0405933
0.0373778
0.0343839
0.0315449
0.0288038
0.026112
0.0234263
0.0207082
0.0179223
0.0150359
0.0120178
0.00883753
0.0054647
0.00186751
-0.00198877
-0.00614421
-0.0106479
-0.0155636
-0.0209783
-0.0270165
-0.0338627
-0.0417992
-0.051269
-0.0629842
-0.0781099
-0.0985694
-0.1275
-0.16974
-0.231568
-0.316938
-0.413361
-0.457922
-0.292814
0.198626
0.267458
0.233426
0.183796
0.141597
0.109906
0.0869353
0.0703367
0.0582069
0.0491807
0.042319
0.0369832
0.0327383
0.0292845
0.0264121
0.0239712
0.0218528
0.0199755
0.0182769
0.0167081
0.0152299
0.0138098
0.0124206
0.0110387
0.00964346
0.00821639
0.0067406
0.00520032
0.0035805
0.00186624
4.22061e-05
-0.00190832
-0.00400468
-0.00627083
-0.00873835
-0.0114511
-0.014473
-0.0178999
-0.0218811
-0.0266551
-0.0326145
-0.0404257
-0.0512552
-0.0671985
-0.092059
-0.132525
-0.198683
-0.29767
-0.399074
-0.330992
0.224507
0.203309
0.136762
0.0891953
0.0596212
0.0415222
0.0302455
0.023003
0.0181833
0.014854
0.0124676
0.0106952
0.00933431
0.00825672
0.00737864
0.00664374
0.00601285
0.00545792
0.00495815
0.00449768
0.00406405
0.00364719
0.00323874
0.00283164
0.00241979
0.0019978
0.00156085
0.00110451
0.000624629
0.000117143
-0.000422104
-0.000997656
-0.00161485
-0.00228046
-0.00300363
-0.00379742
-0.00468118
-0.00568459
-0.00685436
-0.00826631
-0.0100476
-0.0124206
-0.0157929
-0.0209543
-0.0295277
-0.0450301
-0.0752718
-0.136136
-0.244201
-0.311528
0
0
0
0
0
0
0
0
0
0
0
0
0
0
0
0
0
0
0
0
0
0
0
0
0
0
0
0
0
0
0
0
0
0
0
0
0
0
0
0
0
0
0
0
0
0
0
0
0
0
