# vtk DataFile Version 2.0
pressure
ASCII
DATASET RECTILINEAR_GRID
DIMENSIONS 41 41 1
X_COORDINATES 41 double
0 0.0325168 0.0644289 0.0957562 0.126518 0.156734 0.186424 0.215604 0.244295 0.272513 0.300276 0.327602 0.354507 0.38101 0.407125 0.43287 0.45826 0.483312 0.50804 0.532462 0.556591 0.580442 0.604032 0.627374 0.650483 0.673374 0.696061 0.718557 0.740878 0.763037 0.785048 0.806924 0.82868 0.850328 0.871883 0.893358 0.914766 0.936121 0.957436 0.978725 1 
Y_COORDINATES 41 double
0 0.025 0.05 0.075 0.1 0.125 0.15 0.175 0.2 0.225 0.25 0.275 0.3 0.325 0.35 0.375 0.4 0.425 0.45 0.475 0.5 0.525 0.55 0.575 0.6 0.625 0.65 0.675 0.7 0.725 0.75 0.775 0.8 0.825 0.85 0.875 0.9 0.925 0.95 0.975 1 
Z_COORDINATES 1 double
0.0

CELL_DATA 1600
SCALARS pressure double 1
LOOKUP_TABLE default
0
-8.76479e-05
-0.000275537
-0.000536681
-0.000844168
-0.00118254
-0.00154144
-0.00191031
-0.0022756
-0.00262007
-0.00292345
-0.00316406
-0.00332114
-0.00337759
-0.00332274
-0.00315491
-0.00288313
-0.00252775
-0.00211954
-0.00169738
-0.00130456
-0.000984152
-0.000774203
-0.000703217
-0.000786851
-0.00102625
-0.00140834
-0.00190791
-0.00249124
-0.00312036
-0.00375735
-0.00436796
-0.00492393
-0.0054041
-0.00579415
-0.00608573
-0.00627569
-0.00636674
-0.00637154
-0.00632398
3.47664e-05
-5.08018e-05
-0.000218812
-0.000450845
-0.000725841
-0.00103177
-0.00136033
-0.0017028
-0.00204775
-0.0023803
-0.00268243
-0.00293418
-0.00311559
-0.00320914
-0.00320255
-0.00309146
-0.00288148
-0.00258928
-0.00224207
-0.00187566
-0.00153097
-0.00124952
-0.00106845
-0.0010159
-0.00110752
-0.00134461
-0.00171437
-0.00219207
-0.00274473
-0.00333564
-0.00392875
-0.00449231
-0.00500114
-0.00543748
-0.00579056
-0.00605533
-0.00623092
-0.00631965
-0.00632679
-0.00627365
0.000138177
3.74525e-05
-0.000125028
-0.000337017
-0.000585969
-0.000865807
-0.00117237
-0.00150025
-0.00184091
-0.0021818
-0.00250633
-0.00279461
-0.00302519
-0.00317758
-0.00323543
-0.00318975
-0.0030417
-0.0028041
-0.00250147
-0.00216823
-0.00184523
-0.00157509
-0.00139685
-0.00134093
-0.00142511
-0.00165225
-0.00201023
-0.00247417
-0.00301025
-0.00358079
-0.00414909
-0.00468363
-0.00516054
-0.0055645
-0.00588795
-0.00612916
-0.00628972
-0.00637176
-0.00637522
-0.00631444
0.000303795
0.000173357
2.87772e-06
-0.000200707
-0.0004358
-0.000704202
-0.00100761
-0.00134513
-0.00171152
-0.00209593
-0.00248146
-0.00284567
-0.00316251
-0.00340547
-0.00355164
-0.00358577
-0.00350377
-0.00331474
-0.00304123
-0.00271751
-0.00238609
-0.00209275
-0.00188091
-0.00178593
-0.00183045
-0.00202136
-0.00234913
-0.00278964
-0.00330818
-0.00386487
-0.00442044
-0.00494115
-0.00540206
-0.00578821
-0.00609372
-0.00631936
-0.00646906
-0.00654602
-0.00654905
-0.00649039
0.000506863
0.000336874
0.000148898
-5.75903e-05
-0.00029453
-0.000573101
-0.000901821
-0.00128488
-0.00172004
-0.00219683
-0.0026956
-0.00318833
-0.00364123
-0.00401905
-0.00429016
-0.00443161
-0.00443304
-0.00429913
-0.00405
-0.00371963
-0.00335247
-0.00299847
-0.00270718
-0.00252162
-0.00247273
-0.00257525
-0.00282603
-0.00320484
-0.00367808
-0.00420433
-0.00474093
-0.00525007
-0.00570321
-0.00608305
-0.00638305
-0.00660469
-0.00675343
-0.00683418
-0.00684711
-0.00680405
0.000715055
0.000500452
0.00028824
6.65602e-05
-0.000192706
-0.000511069
-0.000904391
-0.00138176
-0.00194293
-0.00257566
-0.00325473
-0.00394335
-0.00459713
-0.00516963
-0.00561854
-0.00591135
-0.00602973
-0.00597213
-0.00575451
-0.00540908
-0.0049813
-0.00452525
-0.00409781
-0.00375228
-0.0035319
-0.00346453
-0.00355912
-0.00380492
-0.0041739
-0.00462582
-0.00511534
-0.00559934
-0.00604304
-0.00642346
-0.00672995
-0.00696174
-0.00712376
-0.00722159
-0.00725692
-0.00724115
0.000888886
0.000628271
0.000386218
0.000134616
-0.000173007
-0.000569246
-0.00107724
-0.0017103
-0.00246836
-0.00333481
-0.00427579
-0.00524284
-0.00617829
-0.00702219
-0.00771932
-0.00822535
-0.00851149
-0.00856742
-0.00840231
-0.00804417
-0.0075374
-0.00693899
-0.0063132
-0.00572529
-0.00523459
-0.00488779
-0.00471331
-0.00471799
-0.0048869
-0.0051868
-0.00557275
-0.00599646
-0.00641448
-0.00679408
-0.00711578
-0.0073721
-0.00756371
-0.00769407
-0.0077646
-0.00778526
0.000982455
0.000676817
0.00039877
9.9089e-05
-0.000288796
-0.000808819
-0.00149115
-0.00235197
-0.00338924
-0.00457905
-0.00587587
-0.00721668
-0.00852795
-0.00973372
-0.0107634
-0.0115584
-0.0120771
-0.0122979
-0.0122206
-0.0118663
-0.0112757
-0.0105059
-0.0096267
-0.00871478
-0.00784722
-0.00709398
-0.00651039
-0.00613066
-0.00596387
-0.00599375
-0.00618298
-0.00648126
-0.00683541
-0.00719864
-0.00753654
-0.00782858
-0.00806547
-0.0082441
-0.00836224
-0.00842674
0.000945404
0.000596887
0.000275032
-9.4805e-05
-0.000600026
-0.00129604
-0.00221928
-0.00338727
-0.00479329
-0.00640306
-0.00815615
-0.00997192
-0.011758
-0.0134199
-0.0148695
-0.0160321
-0.0168521
-0.0172957
-0.0173521
-0.0170335
-0.0163739
-0.0154272
-0.0142641
-0.012969
-0.0116341
-0.0103531
-0.00921279
-0.00828372
-0.00761172
-0.00721201
-0.00706802
-0.00713631
-0.00735686
-0.00766585
-0.00800707
-0.00833847
-0.00863288
-0.00887415
-0.00905172
-0.00916708
0.000726193
0.00033724
-3.85009e-05
-0.000503934
-0.00116727
-0.00209491
-0.00332869
-0.00488527
-0.00675027
-0.00887543
-0.0111817
-0.0135671
-0.0159174
-0.018117
-0.0200592
-0.0216538
-0.0228324
-0.0235502
-0.0237872
-0.0235467
-0.0228543
-0.0217565
-0.0203196
-0.0186277
-0.016781
-0.0148906
-0.0130727
-0.0114379
-0.0100793
-0.00906038
-0.0084045
-0.00809246
-0.00806814
-0.00825272
-0.00856253
-0.00892403
-0.00928153
-0.009597
-0.0098453
-0.0100194
0.000276529
-0.000150683
-0.000592314
-0.00118092
-0.00204421
-0.00325885
-0.00487042
-0.00689217
-0.00929823
-0.012022
-0.0149612
-0.0179884
-0.0209645
-0.0237519
-0.0262262
-0.0282847
-0.0298502
-0.0308719
-0.0313242
-0.0312041
-0.0305293
-0.0293364
-0.0276812
-0.0256392
-0.0233062
-0.0207986
-0.0182503
-0.0158061
-0.0136086
-0.0117818
-0.0104108
-0.00952623
-0.00909845
-0.00904618
-0.00925852
-0.00962119
-0.0100369
-0.0104338
-0.0107636
-0.0110059
-0.00044369
-0.000907261
-0.00142785
-0.00216709
-0.00327006
-0.00482198
-0.00687012
-0.00942065
-0.0124317
-0.0158129
-0.0194337
-0.0231374
-0.026758
-0.0301371
-0.0331364
-0.0356461
-0.037587
-0.038909
-0.039587
-0.0396165
-0.0390097
-0.0377938
-0.0360109
-0.03372
-0.031001
-0.0279589
-0.024727
-0.0214662
-0.0183574
-0.0155848
-0.0133101
-0.0116422
-0.0106116
-0.0101628
-0.0101711
-0.0104782
-0.0109319
-0.011411
-0.0118321
-0.0121541
-0.00146149
-0.00195951
-0.00257154
-0.00348628
-0.00486265
-0.0067922
-0.00932065
-0.0124428
-0.0160952
-0.0201583
-0.0244683
-0.0288366
-0.0330711
-0.0369957
-0.0404645
-0.0433682
-0.0456332
-0.0472172
-0.0481023
-0.0482876
-0.0477847
-0.0466139
-0.0448041
-0.0423951
-0.0394427
-0.0360266
-0.0322589
-0.0282916
-0.0243184
-0.0205658
-0.0172693
-0.014634
-0.0127873
-0.0117431
-0.0113958
-0.0115552
-0.0120052
-0.0125577
-0.0130777
-0.0134923
-0.00278684
-0.0033167
-0.00403032
-0.00513988
-0.00681389
-0.00914678
-0.0121789
-0.0158886
-0.0201854
-0.0249154
-0.0298787
-0.0348543
-0.0396271
-0.0440098
-0.0478561
-0.0510646
-0.0535745
-0.0553571
-0.0564064
-0.0567302
-0.0563436
-0.0552646
-0.0535128
-0.0511108
-0.0480896
-0.0444965
-0.0404079
-0.035943
-0.0312764
-0.0266434
-0.0223277
-0.0186252
-0.0157837
-0.013934
-0.0130427
-0.0129226
-0.0132996
-0.0139028
-0.0145252
-0.0150451
-0.00441017
-0.00496781
-0.00578888
-0.00710467
-0.00908792
-0.011832
-0.0153674
-0.0196511
-0.0245609
-0.0299055
-0.0354481
-0.0409385
-0.0461444
-0.0508742
-0.0549889
-0.0584012
-0.0610674
-0.0629758
-0.0641351
-0.0645639
-0.0642838
-0.0633149
-0.0616727
-0.0593691
-0.0564151
-0.0528283
-0.048645
-0.0439375
-0.0388349
-0.0335427
-0.0283499
-0.0236105
-0.0196865
-0.0168572
-0.0152224
-0.0146575
-0.0148608
-0.0154734
-0.0161942
-0.0168307
-0.00630188
-0.00688093
-0.00780956
-0.0093331
-0.0116229
-0.0147666
-0.0187805
-0.0235965
-0.0290578
-0.0349351
-0.0409576
-0.0468513
-0.0523738
-0.0573369
-0.0616141
-0.0651363
-0.0678787
-0.069847
-0.0710638
-0.0715589
-0.0713616
-0.0704966
-0.0689804
-0.0668211
-0.0640189
-0.0605703
-0.0564781
-0.0517668
-0.0465074
-0.040846
-0.0350318
-0.0294244
-0.0244612
-0.0205673
-0.0180202
-0.0168318
-0.0167323
-0.0172915
-0.0180963
-0.0188567
-0.00841383
-0.0090052
-0.0100346
-0.0117567
-0.0143355
-0.0178486
-0.0222944
-0.0275775
-0.0335065
-0.0398169
-0.0462089
-0.052392
-0.058121
-0.0632166
-0.0675688
-0.0711272
-0.0738853
-0.0758637
-0.0770972
-0.0776244
-0.0774819
-0.0766999
-0.0752995
-0.0732905
-0.070671
-0.0674285
-0.0635444
-0.0590063
-0.0538293
-0.0480889
-0.0419615
-0.0357593
-0.029934
-0.0250147
-0.0214644
-0.0194942
-0.0189475
-0.0193691
-0.0202306
-0.0211163
-0.0106829
-0.0112745
-0.0123909
-0.0142916
-0.0171282
-0.0209639
-0.0257777
-0.0314463
-0.0377468
-0.0443845
-0.051038
-0.0574073
-0.0632506
-0.068401
-0.0727657
-0.0763118
-0.0790478
-0.0810061
-0.0822299
-0.0827647
-0.0826521
-0.0819278
-0.0806181
-0.078739
-0.0762931
-0.0732686
-0.0696398
-0.0653728
-0.0604416
-0.0548563
-0.0487089
-0.0422267
-0.0358131
-0.0300335
-0.0254991
-0.0226475
-0.0215167
-0.0217018
-0.0225792
-0.0235842
-0.013036
-0.0136129
-0.0147955
-0.0168451
-0.0198965
-0.0239959
-0.0291015
-0.0350653
-0.0416377
-0.0485009
-0.0553193
-0.0617901
-0.0676786
-0.0728315
-0.0771715
-0.08068
-0.0833766
-0.0853017
-0.0865037
-0.0870315
-0.0869305
-0.0862401
-0.0849926
-0.0832108
-0.0809061
-0.0780745
-0.0746942
-0.0707259
-0.0661208
-0.0608416
-0.0549031
-0.0484334
-0.0417427
-0.0353599
-0.0299746
-0.0262296
-0.0244131
-0.0242605
-0.0251019
-0.0262127
-0.0153955
-0.0159407
-0.017163
-0.0193236
-0.0225376
-0.0268328
-0.0321479
-0.0383143
-0.0450625
-0.0520595
-0.0589628
-0.0654712
-0.0713588
-0.0764848
-0.080784
-0.0842481
-0.0869036
-0.0887951
-0.0899733
-0.0904884
-0.0903872
-0.0897121
-0.0885
-0.0867813
-0.0845768
-0.0818945
-0.0787237
-0.0750319
-0.0707651
-0.0658598
-0.0602737
-0.0540431
-0.0473648
-0.0406752
-0.0346603
-0.0301064
-0.0275618
-0.0269846
-0.0277323
-0.0289279
-0.0176854
-0.0181809
-0.0194118
-0.021639
-0.024957
-0.0293752
-0.0348154
-0.0410943
-0.04793
-0.0549822
-0.0619073
-0.0684088
-0.0742691
-0.0793567
-0.0836148
-0.0870404
-0.0896632
-0.0915289
-0.0926879
-0.0931901
-0.0930826
-0.0924093
-0.091211
-0.0895243
-0.08738
-0.0847987
-0.0817845
-0.0783193
-0.0743571
-0.0698279
-0.0646561
-0.0588074
-0.0523691
-0.0456547
-0.0392766
-0.0340797
-0.0308357
-0.029777
-0.030375
-0.0316295
-0.0198368
-0.0202647
-0.0214701
-0.0237146
-0.0270738
-0.0315398
-0.0370219
-0.0433281
-0.0501724
-0.0572142
-0.0641132
-0.0705789
-0.0764001
-0.0814508
-0.0856774
-0.0890784
-0.0916828
-0.0935348
-0.094683
-0.0951758
-0.0950596
-0.094379
-0.0931776
-0.0914976
-0.0893785
-0.0868528
-0.0839407
-0.0806416
-0.076926
-0.0727318
-0.0679721
-0.062568
-0.0565177
-0.0500081
-0.0435313
-0.0379076
-0.0340599
-0.0325038
-0.0329054
-0.0341914
-0.0217919
-0.022136
-0.0232807
-0.0254901
-0.0288246
-0.0332628
-0.0387058
-0.0449601
-0.051743
-0.0587197
-0.0655565
-0.0719688
-0.0777489
-0.0827718
-0.0869827
-0.090377
-0.0929803
-0.094833
-0.0959807
-0.0964695
-0.0963445
-0.0956507
-0.0944338
-0.0927404
-0.0906174
-0.0881084
-0.0852483
-0.082055
-0.0785191
-0.0745956
-0.070203
-0.065242
-0.0596495
-0.0535014
-0.0471521
-0.0413307
-0.0370243
-0.0349984
-0.0351731
-0.0364648
-0.0235076
-0.0237548
-0.0248039
-0.0269237
-0.0301657
-0.0345001
-0.0398258
-0.0459543
-0.0526129
-0.0594779
-0.0662244
-0.0725726
-0.0783151
-0.0833236
-0.0875373
-0.090945
-0.0935659
-0.0954349
-0.0965934
-0.0970847
-0.0969525
-0.096242
-0.0950003
-0.0932778
-0.0911276
-0.0886027
-0.0857513
-0.0826087
-0.0791861
-0.0754601
-0.0713651
-0.066801
-0.0616701
-0.0559644
-0.0499065
-0.0440956
-0.0394999
-0.0370691
-0.0370054
-0.0382822
-0.0249566
-0.0250984
-0.0260189
-0.0279937
-0.0310735
-0.0352279
-0.0403598
-0.0462926
-0.0527691
-0.0594809
-0.0661133
-0.0723901
-0.078101
-0.0831098
-0.0873459
-0.0907878
-0.0934456
-0.0953473
-0.0965289
-0.0970306
-0.0968945
-0.0961656
-0.0948925
-0.0931287
-0.0909325
-0.0883649
-0.0854856
-0.0823451
-0.0789743
-0.0753719
-0.0714938
-0.0672518
-0.0625367
-0.0572854
-0.0516112
-0.0459722
-0.0412533
-0.0385076
-0.0382126
-0.0394616
-0.0261282
-0.0261613
-0.0269238
-0.028698
-0.0315439
-0.0354406
-0.0403033
-0.0459727
-0.0522126
-0.0587325
-0.0652291
-0.071428
-0.0771131
-0.0821367
-0.0864145
-0.0899115
-0.0926263
-0.0945779
-0.0957965
-0.0963183
-0.0961836
-0.095437
-0.0941285
-0.0923143
-0.0900571
-0.0874248
-0.0844864
-0.0813058
-0.0779309
-0.0743813
-0.0706357
-0.0666249
-0.0622439
-0.0574015
-0.0521311
-0.0467616
-0.0420577
-0.0390953
-0.0385905
-0.0398073
-0.0270269
-0.0269541
-0.0275337
-0.0290521
-0.0315903
-0.0351497
-0.039667
-0.045007
-0.0509578
-0.057249
-0.0635883
-0.0697023
-0.0753662
-0.0804178
-0.0847555
-0.0883282
-0.0911206
-0.0931412
-0.0944126
-0.0949666
-0.0948412
-0.0940808
-0.092736
-0.0908657
-0.0885363
-0.0858212
-0.0827974
-0.0795395
-0.0761096
-0.0725456
-0.0688474
-0.0649672
-0.0608139
-0.0562878
-0.0513733
-0.0462967
-0.0416957
-0.0386043
-0.0379188
-0.0391069
-0.0276705
-0.0275005
-0.0278776
-0.0290861
-0.0312404
-0.03438
-0.0384753
-0.0434209
-0.0490321
-0.0550592
-0.0612206
-0.0672418
-0.0728876
-0.0779785
-0.0823935
-0.0860622
-0.0889535
-0.0910633
-0.0924059
-0.0930074
-0.0929032
-0.0921366
-0.090759
-0.0888311
-0.0864224
-0.0836108
-0.0804795
-0.0771111
-0.073579
-0.0699357
-0.066199
-0.0623414
-0.0582891
-0.0539476
-0.049277
-0.044436
-0.0399551
-0.0367908
-0.0359512
-0.037119
-0.0280878
-0.0278345
-0.0279943
-0.0288399
-0.030532
-0.0331671
-0.0367629
-0.0412514
-0.0464762
-0.0522072
-0.0581717
-0.0640927
-0.0697226
-0.0748628
-0.0793708
-0.0831554
-0.0861674
-0.0883887
-0.0898236
-0.0904917
-0.0904249
-0.0896647
-0.088263
-0.0862814
-0.0837917
-0.0808749
-0.0776181
-0.0741097
-0.0704304
-0.066643
-0.0627787
-0.0588265
-0.0547294
-0.0504032
-0.0458022
-0.0410513
-0.0366149
-0.0333759
-0.0323927
-0.0335464
-0.0283154
-0.0279967
-0.0279274
-0.0283574
-0.0295074
-0.0315521
-0.0345733
-0.0385466
-0.0433444
-0.0487533
-0.0545066
-0.0603225
-0.0659393
-0.0711384
-0.0757544
-0.0796741
-0.0828288
-0.0851853
-0.0867362
-0.087494
-0.0874856
-0.0867505
-0.0853397
-0.0833151
-0.0807493
-0.0777244
-0.0743293
-0.0706543
-0.0667836
-0.0627849
-0.0586972
-0.0545198
-0.050208
-0.0456877
-0.0409158
-0.0360104
-0.031423
-0.0280126
-0.0268569
-0.0279853
-0.0283963
-0.0280317
-0.0277208
-0.0276803
-0.0282073
-0.029578
-0.0319553
-0.0353647
-0.0397055
-0.0447768
-0.0503127
-0.0560239
-0.0616332
-0.0669014
-0.0716401
-0.0757136
-0.0790331
-0.0815492
-0.0832423
-0.0841162
-0.0841924
-0.0835071
-0.0821094
-0.0800599
-0.0774304
-0.0743017
-0.0707607
-0.0668957
-0.0627888
-0.0585065
-0.0540881
-0.0495353
-0.0448073
-0.0398341
-0.0345745
-0.0291541
-0.024064
-0.0202343
-0.0187943
-0.0198351
-0.0283787
-0.0279858
-0.0274134
-0.0268411
-0.0266645
-0.0272854
-0.0289622
-0.0317747
-0.035645
-0.0403776
-0.0457021
-0.0513175
-0.0569301
-0.0622799
-0.0671564
-0.0714017
-0.0749075
-0.0776078
-0.0794705
-0.0804898
-0.0806809
-0.0800758
-0.07872
-0.0766714
-0.0739981
-0.0707764
-0.0670871
-0.0630111
-0.0586216
-0.0539757
-0.0491036
-0.043998
-0.0386101
-0.0328619
-0.0267044
-0.0202687
-0.0141205
-0.00938733
-0.00738457
-0.00815727
-0.0283206
-0.027908
-0.0270354
-0.0258575
-0.0248994
-0.02471
-0.0256525
-0.0278588
-0.0312675
-0.0356797
-0.0408137
-0.0463533
-0.0519866
-0.057434
-0.062464
-0.0668985
-0.0706108
-0.0735189
-0.0755781
-0.0767731
-0.0771119
-0.0766208
-0.0753406
-0.0733238
-0.070632
-0.067333
-0.0634965
-0.059189
-0.0544671
-0.049368
-0.0438999
-0.0380311
-0.0316867
-0.0247611
-0.0171784
-0.00905638
-0.00103454
0.0054415
0.00860413
0.00852124
-0.0283017
-0.0278537
-0.0266072
-0.0247302
-0.0229197
-0.0218858
-0.0220933
-0.0237172
-0.0267012
-0.0308337
-0.0358151
-0.0413104
-0.0469891
-0.0525533
-0.057753
-0.0623925
-0.0663285
-0.0694648
-0.0717446
-0.0731431
-0.0736606
-0.0733164
-0.0721449
-0.0701908
-0.067506
-0.0641454
-0.0601619
-0.0556008
-0.0504918
-0.0448399
-0.0386141
-0.0317368
-0.0240799
-0.0154799
-0.00580238
0.00488437
0.0159142
0.0254748
0.0309607
0.0324289
-0.0284578
-0.0278997
-0.026144
-0.0234485
-0.0207293
-0.0188548
-0.018371
-0.0194759
-0.0221035
-0.02602
-0.0309022
-0.0363945
-0.0421486
-0.0478503
-0.0532344
-0.0580904
-0.0622612
-0.0656384
-0.0681544
-0.0697753
-0.0704931
-0.0703196
-0.0692808
-0.0674116
-0.0647511
-0.0613375
-0.0572015
-0.0523597
-0.0468045
-0.0404932
-0.0333346
-0.0251761
-0.0157983
-0.00493263
0.00766621
0.0220358
0.0375788
0.0522204
0.0621278
0.0667423
-0.0290642
-0.0281818
-0.0256787
-0.022014
-0.0183526
-0.0156885
-0.0146067
-0.0152969
-0.0176653
-0.0214477
-0.0262944
-0.0318292
-0.0376879
-0.0435432
-0.0491183
-0.0541912
-0.0585946
-0.0622097
-0.0649602
-0.0668035
-0.067724
-0.0677253
-0.0668241
-0.0650441
-0.0624097
-0.058939
-0.0546364
-0.0494824
-0.0434215
-0.0363472
-0.0280841
-0.0183696
-0.00684353
0.00693498
0.0234082
0.0428186
0.064782
0.0872836
0.105183
0.115764
-0.0307408
-0.0289892
-0.0253305
-0.0205027
-0.0158857
-0.0125238
-0.0109758
-0.0113824
-0.0136031
-0.0173367
-0.0222069
-0.0278196
-0.0337983
-0.0398066
-0.0455598
-0.0508288
-0.0554389
-0.0592643
-0.0622217
-0.0642618
-0.0653618
-0.0655176
-0.0647369
-0.0630314
-0.0604095
-0.0568678
-0.0523804
-0.0468866
-0.0402741
-0.0323584
-0.0228576
-0.0113652
0.00267243
0.0199509
0.0412393
0.0671717
0.0978288
0.131824
0.163582
0.185436
-0.0349512
-0.0309326
-0.0254181
-0.0191457
-0.0135432
-0.00957725
-0.00769271
-0.00793542
-0.0100998
-0.013844
-0.0187681
-0.0244643
-0.0305489
-0.0366813
-0.0425733
-0.0479925
-0.0527604
-0.0567472
-0.0598646
-0.0620583
-0.0632997
-0.0635778
-0.0628911
-0.0612399
-0.0586164
-0.0549947
-0.0503182
-0.0444827
-0.0373156
-0.0285487
-0.0177833
-0.00445048
0.0122332
0.0332913
0.0599746
0.0936164
0.135306
0.185204
0.240142
0.285389
-0.0451242
-0.0345785
-0.025812
-0.0177215
-0.0111889
-0.00679569
-0.00474406
-0.00494608
-0.00712821
-0.0109165
-0.0158976
-0.0216593
-0.0278179
-0.0340337
-0.0400195
-0.0455428
-0.0504238
-0.0545304
-0.057771
-0.0600872
-0.0614452
-0.0618278
-0.0612254
-0.0596276
-0.0570121
-0.0533335
-0.0485076
-0.0423928
-0.0347643
-0.0252821
-0.0134464
0.00145522
0.0204211
0.0448109
0.0764569
0.117725
0.171681
0.24195
0.33324
0.43481
-0.0738003
-0.0372658
-0.0231149
-0.0143558
-0.00797454
-0.00383998
-0.00201169
-0.00238098
-0.00468278
-0.00855748
-0.0136053
-0.0194254
-0.0256425
-0.0319226
-0.0379819
-0.043589
-0.0485638
-0.0527723
-0.0561205
-0.0585464
-0.0600125
-0.0604967
-0.0599839
-0.0584564
-0.055883
-0.0522062
-0.0473258
-0.0410787
-0.033211
-0.023343
-0.0109204
0.0048495
0.0250916
0.0513965
0.0860774
0.132626
0.197003
0.290312
0.439224
0.698971
