# vtk DataFile Version 2.0
u_velocity
ASCII
DATASET RECTILINEAR_GRID
DIMENSIONS 42 41 1
X_COORDINATES 42 double
0 0.0162584 0.0484728 0.0800925 0.111137 0.141626 0.171579 0.201014 0.229949 0.258404 0.286394 0.313939 0.341055 0.367758 0.394067 0.419997 0.445565 0.470786 0.495676 0.520251 0.544526 0.568516 0.592237 0.615703 0.638929 0.661929 0.684717 0.707309 0.729718 0.751958 0.774042 0.795986 0.817802 0.839504 0.861106 0.882621 0.904062 0.925444 0.946779 0.968081 0.989362 1 
Y_COORDINATES 41 double
0 0.025 0.05 0.075 0.1 0.125 0.15 0.175 0.2 0.225 0.25 0.275 0.3 0.325 0.35 0.375 0.4 0.425 0.45 0.475 0.5 0.525 0.55 0.575 0.6 0.625 0.65 0.675 0.7 0.725 0.75 0.775 0.8 0.825 0.85 0.875 0.9 0.925 0.95 0.975 1 
Z_COORDINATES 1 double
0.0

CELL_DATA 1640
SCALARS u_velocity double 1
LOOKUP_TABLE default
0
0.000401076
0.000741095
0.000735616
0.000357055
-0.000355732
-0.00136841
-0.00266207
-0.00422356
-0.00603262
-0.00805204
-0.0102221
-0.0124589
-0.0146572
-0.0166954
-0.0184441
-0.0197774
-0.0205833
-0.0207764
-0.0203072
-0.0191697
-0.0174048
-0.0150996
-0.0123812
-0.00940728
-0.0063517
-0.00338961
-0.000681518
0.00164014
0.00348083
0.00478864
0.0055538
0.0058036
0.00559453
0.0050039
0.00412393
0.0030611
0.00194277
0.000929566
0.000220696
0
0
0.000485096
0.000581055
-0.000178826
-0.00185328
-0.00438554
-0.00770961
-0.0117666
-0.0164876
-0.0217709
-0.0274664
-0.0333707
-0.0392318
-0.0447637
-0.0496664
-0.05365
-0.0564588
-0.0578933
-0.0578271
-0.0562179
-0.0531119
-0.0486422
-0.0430206
-0.0365237
-0.0294756
-0.0222254
-0.0151238
-0.00849859
-0.00263256
0.00225517
0.00602114
0.00860245
0.0100142
0.0103413
0.0097265
0.00836052
0.00647577
0.00434743
0.00229924
0.00070706
0
0
0.000119952
-0.000702605
-0.00283386
-0.00629487
-0.0110154
-0.0169101
-0.0238765
-0.0317703
-0.0403818
-0.0494265
-0.058551
-0.0673532
-0.0754121
-0.082321
-0.0877196
-0.0913196
-0.0929229
-0.0924307
-0.0898462
-0.0852712
-0.0788989
-0.0710035
-0.0619267
-0.0520611
-0.0418312
-0.0316703
-0.0219964
-0.0131869
-0.00555521
0.000667971
0.00534748
0.00844807
0.0100313
0.0102466
0.00931983
0.00754253
0.00526628
0.00290368
0.000942911
0
0
-0.000536484
-0.0027619
-0.0067409
-0.0123821
-0.0195839
-0.0282369
-0.0381868
-0.0491994
-0.0609449
-0.0730042
-0.0848941
-0.0961053
-0.106144
-0.11457
-0.121024
-0.125241
-0.127059
-0.126414
-0.123339
-0.117951
-0.110452
-0.101119
-0.0902978
-0.0783926
-0.065855
-0.0531634
-0.0408003
-0.0292243
-0.0188413
-0.00997738
-0.00285708
0.00240967
0.0058312
0.00752897
0.00772644
0.00673589
0.004948
0.00283039
0.000944696
0
0
-0.00139352
-0.00536348
-0.0115264
-0.0196185
-0.0294852
-0.0409826
-0.0538935
-0.067887
-0.0825178
-0.0972551
-0.111529
-0.12478
-0.136507
-0.146289
-0.153805
-0.158829
-0.161226
-0.160942
-0.157996
-0.152479
-0.144554
-0.134454
-0.122488
-0.109039
-0.0945602
-0.0795582
-0.0645745
-0.0501537
-0.0368078
-0.0249784
-0.0150032
-0.00709149
-0.00131213
0.00240599
0.00426314
0.00457283
0.00374674
0.00228735
0.000795651
0
0
-0.0023909
-0.00832605
-0.0168714
-0.0275512
-0.040142
-0.0544535
-0.0701984
-0.0869528
-0.104177
-0.121269
-0.137623
-0.152687
-0.165991
-0.177163
-0.185923
-0.192073
-0.195481
-0.196076
-0.193836
-0.188797
-0.181052
-0.170764
-0.158174
-0.143614
-0.127508
-0.110369
-0.0927861
-0.0753901
-0.0588144
-0.0436431
-0.0303614
-0.0193136
-0.0106774
-0.00445689
-0.000492615
0.00151836
0.0019995
0.00147699
0.000571739
0
0
-0.00347513
-0.0114825
-0.0224749
-0.0357451
-0.0509914
-0.067969
-0.08632
-0.105542
-0.125032
-0.144161
-0.162332
-0.179031
-0.193841
-0.206435
-0.216567
-0.224054
-0.228759
-0.230588
-0.229478
-0.225405
-0.218386
-0.208494
-0.195873
-0.180762
-0.163514
-0.144603
-0.124626
-0.10428
-0.0843191
-0.0654944
-0.0484803
-0.0338083
-0.0218157
-0.0126235
-0.00614048
-0.00208947
-4.15976e-05
0.000550555
0.000327208
0
0
-0.00458806
-0.0146622
-0.028038
-0.0437738
-0.0614856
-0.0808709
-0.101507
-0.122833
-0.144216
-0.165031
-0.184715
-0.202804
-0.218925
-0.232795
-0.244199
-0.252974
-0.258998
-0.262177
-0.26243
-0.25969
-0.253902
-0.245041
-0.233128
-0.218266
-0.200671
-0.180709
-0.158914
-0.135989
-0.112778
-0.0901985
-0.0691518
-0.0504205
-0.0345774
-0.0219298
-0.0125066
-0.0060861
-0.00224463
-0.000410442
9.09479e-05
0
0
-0.00566418
-0.0176881
-0.0332645
-0.0512249
-0.0711025
-0.0925371
-0.11505
-0.138043
-0.160875
-0.18294
-0.203715
-0.222775
-0.239791
-0.254524
-0.266805
-0.276525
-0.283612
-0.288008
-0.289652
-0.288461
-0.284333
-0.277146
-0.266785
-0.25318
-0.236352
-0.216471
-0.193907
-0.169271
-0.143408
-0.117358
-0.0922552
-0.0691888
-0.0490603
-0.0324665
-0.0196454
-0.010489
-0.00460495
-0.00139651
-0.000132785
0
0
-0.00663301
-0.0203829
-0.03787
-0.0577132
-0.0793623
-0.1024
-0.126303
-0.150446
-0.174191
-0.196953
-0.218236
-0.237653
-0.254922
-0.269864
-0.282389
-0.292477
-0.300142
-0.305405
-0.308256
-0.308638
-0.306425
-0.30143
-0.293413
-0.282122
-0.267345
-0.248986
-0.227145
-0.202202
-0.17487
-0.146192
-0.117473
-0.0901221
-0.0654525
-0.0444785
-0.0277788
-0.0154616
-0.00722378
-0.00245802
-0.000359645
0
0
-0.00742442
-0.0225792
-0.0415961
-0.0628974
-0.0858469
-0.109972
-0.134707
-0.159411
-0.183446
-0.20624
-0.227324
-0.246349
-0.263096
-0.277474
-0.289501
-0.299271
-0.306911
-0.312542
-0.316235
-0.317984
-0.317686
-0.315125
-0.309983
-0.301859
-0.290319
-0.274971
-0.25557
-0.232135
-0.205072
-0.175246
-0.143974
-0.112908
-0.0837973
-0.0581927
-0.0371797
-0.021239
-0.0102629
-0.00368143
-0.000617253
0
0
-0.00797507
-0.0241314
-0.0442251
-0.0664975
-0.090221
-0.114866
-0.139831
-0.164458
-0.18811
-0.210225
-0.230366
-0.248237
-0.263707
-0.276793
-0.287636
-0.296452
-0.303485
-0.308954
-0.313018
-0.315743
-0.317078
-0.316834
-0.314677
-0.31013
-0.302602
-0.291448
-0.276064
-0.256035
-0.231304
-0.202338
-0.170227
-0.136668
-0.103755
-0.073624
-0.0480315
-0.0280341
-0.0138882
-0.00516068
-0.000936163
0
0
-0.00823467
-0.0249267
-0.0455932
-0.0683104
-0.0922515
-0.116828
-0.141408
-0.16532
-0.18793
-0.208698
-0.227232
-0.243315
-0.256919
-0.268181
-0.27736
-0.284782
-0.290781
-0.295656
-0.29964
-0.302868
-0.305357
-0.306985
-0.30747
-0.306351
-0.302987
-0.296583
-0.286257
-0.271175
-0.250743
-0.224849
-0.194086
-0.159888
-0.124456
-0.0904214
-0.0603041
-0.0359526
-0.0182191
-0.00697225
-0.00134245
0
0
-0.00817114
-0.0248932
-0.0456003
-0.0682209
-0.0918208
-0.115753
-0.139362
-0.161974
-0.182971
-0.201854
-0.218298
-0.232186
-0.243602
-0.252794
-0.26012
-0.265978
-0.27076
-0.274808
-0.278393
-0.2817
-0.28481
-0.287686
-0.290141
-0.291813
-0.292125
-0.290273
-0.285246
-0.275913
-0.261191
-0.240315
-0.21317
-0.180592
-0.144518
-0.107806
-0.0736787
-0.0449369
-0.0232946
-0.00915997
-0.00185373
0
0
-0.00777394
-0.0240051
-0.0442147
-0.0662064
-0.0889321
-0.11169
-0.133812
-0.154641
-0.173596
-0.190244
-0.204349
-0.215902
-0.225092
-0.23226
-0.237825
-0.242221
-0.24585
-0.249057
-0.252116
-0.255227
-0.258515
-0.262017
-0.26566
-0.26922
-0.272274
-0.274143
-0.27386
-0.270182
-0.261703
-0.247087
-0.225433
-0.196729
-0.162241
-0.124624
-0.087536
-0.0547417
-0.0290588
-0.0117292
-0.00247827
0
0
-0.00705521
-0.0222838
-0.0414732
-0.0623342
-0.0837026
-0.104827
-0.125047
-0.143742
-0.160395
-0.174659
-0.186402
-0.195716
-0.202881
-0.208294
-0.212397
-0.21562
-0.21834
-0.220867
-0.223446
-0.226264
-0.229458
-0.233115
-0.237257
-0.241807
-0.24653
-0.250957
-0.254307
-0.255427
-0.252815
-0.244767
-0.2297
-0.206666
-0.175949
-0.13952
-0.101012
-0.0649423
-0.0353583
-0.0146461
-0.0032155
0
0
-0.00604869
-0.0197953
-0.0374757
-0.0567518
-0.076347
-0.0954696
-0.113483
-0.129831
-0.144081
-0.155987
-0.16552
-0.172859
-0.178341
-0.182386
-0.185423
-0.187846
-0.189978
-0.192076
-0.194333
-0.196902
-0.199907
-0.203454
-0.20763
-0.212471
-0.217922
-0.223748
-0.229432
-0.234063
-0.236265
-0.234228
-0.225922
-0.209576
-0.184367
-0.151197
-0.113121
-0.0749726
-0.041951
-0.0178395
-0.00405634
0
0
-0.00480665
-0.0166449
-0.0323759
-0.0496717
-0.0671539
-0.0839988
-0.0996117
-0.11352
-0.125394
-0.135089
-0.142667
-0.14837
-0.152559
-0.15564
-0.158004
-0.159983
-0.161838
-0.163761
-0.16589
-0.168332
-0.171184
-0.174547
-0.178532
-0.183251
-0.188779
-0.19509
-0.201942
-0.208741
-0.214397
-0.217235
-0.215076
-0.205575
-0.186899
-0.158686
-0.12293
-0.0841995
-0.0485272
-0.0212042
-0.00498319
0
0
-0.00339536
-0.0129688
-0.0263697
-0.0413543
-0.0564602
-0.0708387
-0.08395
-0.0954185
-0.105021
-0.112712
-0.118624
-0.123029
-0.12628
-0.128746
-0.130755
-0.132572
-0.134391
-0.136343
-0.138515
-0.140971
-0.143775
-0.147007
-0.150776
-0.155222
-0.160499
-0.166729
-0.173905
-0.18175
-0.189534
-0.195898
-0.198778
-0.195572
-0.183688
-0.161531
-0.129735
-0.0920243
-0.0547476
-0.0246107
-0.00597074
0
0
-0.0018896
-0.00892604
-0.0196835
-0.0320901
-0.0446267
-0.0564237
-0.0670005
-0.0760838
-0.0835563
-0.0894562
-0.093962
-0.0973513
-0.0999432
-0.102045
-0.103916
-0.105752
-0.107685
-0.109795
-0.11213
-0.114719
-0.117595
-0.120813
-0.124462
-0.128678
-0.133642
-0.139558
-0.146584
-0.154709
-0.163563
-0.172188
-0.178833
-0.180937
-0.175473
-0.159824
-0.133183
-0.0979872
-0.0602948
-0.027922
-0.00698851
0
0
-0.000367011
-0.00468849
-0.0125622
-0.0221858
-0.0320196
-0.0411757
-0.0492292
-0.056005
-0.0614835
-0.0657707
-0.0690702
-0.0716409
-0.0737496
-0.0756336
-0.0774794
-0.0794175
-0.0815284
-0.0838544
-0.0864133
-0.0892129
-0.0922647
-0.0955984
-0.0992771
-0.103413
-0.108178
-0.113801
-0.120528
-0.128536
-0.137762
-0.147652
-0.156879
-0.163154
-0.163335
-0.154095
-0.133297
-0.10184
-0.0649256
-0.0310148
-0.00800528
0
0
0.00109736
-0.000432733
-0.00525997
-0.0119529
-0.0189983
-0.0254924
-0.0310552
-0.0355986
-0.0391885
-0.0419837
-0.0441958
-0.0460504
-0.0477527
-0.0494673
-0.0513106
-0.0533556
-0.0556409
-0.058181
-0.0609769
-0.0640239
-0.0673214
-0.0708817
-0.0747439
-0.078989
-0.0837576
-0.0892613
-0.0957736
-0.103576
-0.112825
-0.123321
-0.13419
-0.143557
-0.148438
-0.145128
-0.130404
-0.103565
-0.0685087
-0.0338021
-0.00899475
0
0
0.00243571
0.00366789
0.00196741
-0.00170157
-0.00590997
-0.00974392
-0.0128527
-0.0152192
-0.0169806
-0.0183363
-0.0194962
-0.0206467
-0.0219306
-0.0234427
-0.0252362
-0.0273345
-0.0297423
-0.0324552
-0.0354648
-0.0387625
-0.0423433
-0.0462107
-0.0503855
-0.0549198
-0.0599157
-0.0655453
-0.0720619
-0.0797793
-0.0889861
-0.0997536
-0.111619
-0.123191
-0.131837
-0.13378
-0.125015
-0.103337
-0.0710376
-0.0362498
-0.00994128
0
0
0.00359115
0.00744988
0.00886838
0.00826286
0.00691119
0.00572421
0.00503933
0.00482275
0.00487977
0.00497856
0.00491344
0.0045349
0.00375634
0.00254436
0.000900686
-0.00115589
-0.00360297
-0.00642172
-0.00959913
-0.0131274
-0.0170027
-0.0212266
-0.0258095
-0.0307815
-0.0362089
-0.0422164
-0.0490105
-0.0568852
-0.0661799
-0.0771417
-0.0896458
-0.102775
-0.11437
-0.120837
-0.117706
-0.101456
-0.0726156
-0.0383842
-0.0108448
0
0
0.00451997
0.010765
0.0151998
0.0176403
0.0191402
0.0205832
0.0223055
0.0242422
0.0261549
0.0277832
0.028922
0.0294495
0.0293238
0.0285609
0.0272077
0.0253179
0.0229371
0.0200959
0.0168108
0.0130874
0.00892526
0.00432068
-0.000733549
-0.00625377
-0.012278
-0.0188867
-0.0262294
-0.0345481
-0.044171
-0.0554312
-0.0684475
-0.0827263
-0.0966284
-0.106936
-0.109012
-0.0982715
-0.0734218
-0.0402907
-0.0117247
0
0
0.00519241
0.0134846
0.0207307
0.0261352
0.0304562
0.034512
0.0386401
0.042762
0.0466074
0.0498887
0.0523934
0.0540136
0.0547361
0.0546123
0.0537231
0.0521503
0.0499595
0.0471929
0.0438713
0.039999
0.0355716
0.0305811
0.0250191
0.0188758
0.0121321
0.00474391
-0.00338314
-0.0124243
-0.0226556
-0.0344223
-0.0479911
-0.0632102
-0.0789569
-0.0925181
-0.0993574
-0.0941022
-0.0736663
-0.0421034
-0.0126233
0
0
0.00559169
0.0155012
0.0252445
0.0334561
0.0405365
0.0471875
0.0537359
0.0600991
0.0659846
0.0710776
0.0751479
0.0780854
0.0798879
0.0806257
0.0804021
0.0793198
0.0774614
0.0748811
0.071606
0.0676423
0.0629833
0.0576173
0.0515332
0.0447226
0.0371777
0.0288811
0.0197861
0.0097856
-0.00132199
-0.013841
-0.0281007
-0.0441983
-0.061483
-0.0778238
-0.089014
-0.0891839
-0.073543
-0.0439901
-0.0136108
0
0
0.00571081
0.0167283
0.028541
0.0393149
0.0490529
0.0582779
0.0672753
0.0759558
0.0840098
0.0910946
0.0969527
0.101455
0.104593
0.106439
0.107106
0.106709
0.105346
0.103081
0.0999515
0.095968
0.0911255
0.0854109
0.0788108
0.0713169
0.0629276
0.0536443
0.0434584
0.0323247
0.0201228
0.00662164
-0.00850333
-0.025507
-0.0441414
-0.0628894
-0.0780692
-0.0836165
-0.0731812
-0.0461329
-0.014795
0
0
0.00554653
0.0170937
0.0304341
0.0434268
0.0556691
0.0674377
0.0789251
0.0900159
0.100381
0.109647
0.117521
0.123844
0.128583
0.131796
0.133594
0.134097
0.13341
0.131611
0.128745
0.124833
0.119874
0.113858
0.106773
0.0986108
0.0893747
0.0790806
0.0677494
0.0553883
0.0419538
0.0273013
0.0111561
-0.0068149
-0.0266846
-0.0475448
-0.0664016
-0.0773161
-0.072592
-0.0487028
-0.0163382
0
0
0.00508893
0.016525
0.0307431
0.0455089
0.0600425
0.0743086
0.0883372
0.101946
0.114772
0.126408
0.136522
0.144913
0.15151
0.15635
0.159525
0.161151
0.161338
0.160172
0.157711
0.153985
0.149003
0.142762
0.135256
0.12648
0.116446
0.105183
0.0927347
0.0791517
0.0644548
0.0485831
0.0313328
0.0123525
-0.00866767
-0.0313918
-0.0536445
-0.0699567
-0.0715992
-0.0518192
-0.0184811
0
0
0.00430319
0.0149202
0.0292723
0.0452736
0.0618267
0.0785262
0.0951548
0.111404
0.126847
0.141036
0.153593
0.164274
0.172967
0.179672
0.184459
0.187432
0.188698
0.188349
0.186453
0.183054
0.178175
0.171825
0.164008
0.154733
0.144022
0.131921
0.118494
0.103824
0.0879782
0.0709626
0.0526418
0.0326799
0.0106062
-0.0137516
-0.0391259
-0.0608883
-0.0697368
-0.0554731
-0.0215625
0
0
0.00309711
0.0120963
0.0257703
0.0424135
0.0606773
0.0797341
0.0990283
0.11805
0.13627
0.15318
0.168359
0.181519
0.192505
0.201281
0.207889
0.212413
0.214956
0.215612
0.214461
0.21156
0.206951
0.200661
0.192717
0.183145
0.17199
0.159313
0.145199
0.129749
0.113057
0.0951633
0.0759754
0.0551774
0.0321959
0.00643709
-0.0217697
-0.0490158
-0.0660901
-0.0593805
-0.0260028
0
0
0.00126335
0.00770613
0.0198664
0.0365746
0.0562564
0.077606
0.0996419
0.121577
0.142728
0.16251
0.180455
0.196236
0.209663
0.220665
0.229257
0.235506
0.239507
0.241357
0.241147
0.238955
0.234848
0.228882
0.22111
0.211592
0.200394
0.1876
0.173305
0.157614
0.140616
0.122345
0.102708
0.0813809
0.0577155
0.0307958
6.41576e-05
-0.0326245
-0.0590552
-0.0627118
-0.0321854
0
0
-0.00161895
0.00111771
0.0109858
0.0273219
0.0482402
0.0718774
0.0967524
0.121737
0.145958
0.168732
0.189543
0.208034
0.22399
0.237316
0.248009
0.256124
0.261755
0.265007
0.265992
0.264814
0.261573
0.256362
0.249271
0.240391
0.229813
0.217635
0.203949
0.188838
0.172351
0.154469
0.135039
0.113676
0.0896475
0.0618007
0.0288364
-0.00913102
-0.0459927
-0.063636
-0.0401396
0
0
-0.00633339
-0.00871922
-0.00171937
0.0141236
0.0363375
0.062384
0.0902344
0.118396
0.145786
0.171623
0.195349
0.21659
0.235125
0.250854
0.263774
0.273944
0.281468
0.286475
0.2891
0.289482
0.287756
0.284051
0.278489
0.271182
0.262234
0.251735
0.239753
0.226321
0.211412
0.19491
0.176544
0.155803
0.13182
0.103245
0.0682425
0.0252735
-0.0227602
-0.0586108
-0.0489152
0
0
-0.0141771
-0.0232526
-0.0192296
-0.00348772
0.0204373
0.0492004
0.0802303
0.111705
0.142369
0.171365
0.198119
0.222264
0.243596
0.262035
0.277594
0.29035
0.300428
0.307975
0.313151
0.316117
0.317029
0.316031
0.313256
0.308817
0.302804
0.295279
0.28626
0.27571
0.263508
0.249411
0.232996
0.213571
0.19007
0.160909
0.123877
0.0761837
0.0169184
-0.04131
-0.0554973
0
0
-0.0267424
-0.0432312
-0.0409859
-0.023906
0.0028823
0.0351944
0.0700316
0.105363
0.139847
0.172604
0.203074
0.230917
0.255954
0.278124
0.297454
0.314029
0.327975
0.339441
0.348583
0.35556
0.360521
0.363603
0.364924
0.364579
0.362632
0.359107
0.353974
0.347127
0.338357
0.327302
0.313389
0.295734
0.273032
0.243392
0.204227
0.151976
0.082437
-0.000837792
-0.0527574
0
0
-0.0433149
-0.0617706
-0.054172
-0.0297487
0.00431209
0.0432932
0.0842029
0.125149
0.164928
0.202775
0.238211
0.270949
0.300844
0.327847
0.351984
0.373333
0.392006
0.408134
0.421861
0.433332
0.442686
0.450049
0.455533
0.459221
0.461166
0.461374
0.45979
0.456271
0.450555
0.442207
0.430549
0.414556
0.392731
0.36288
0.321979
0.265755
0.188349
0.0819323
-0.0242118
0
0
-0.0430218
-0.0277153
0.0132965
0.0623929
0.113249
0.163469
0.211989
0.258242
0.30188
0.342677
0.380492
0.415248
0.446924
0.475551
0.501198
0.523968
0.543989
0.561405
0.57637
0.58904
0.599566
0.608087
0.614726
0.619579
0.622709
0.624127
0.623782
0.621529
0.6171
0.610051
0.599696
0.585
0.564454
0.535808
0.495865
0.439609
0.36018
0.24319
0.073723
0
0
0.174587
0.313956
0.410679
0.481272
0.536173
0.581201
0.619587
0.65314
0.68289
0.709432
0.733125
0.754205
0.772848
0.789203
0.803414
0.815623
0.825978
0.834626
0.841714
0.847382
0.851761
0.854968
0.857101
0.858235
0.85841
0.857631
0.855845
0.852933
0.84868
0.84275
0.834627
0.823582
0.808511
0.787895
0.759207
0.718757
0.658309
0.563241
0.381242
0
