# vtk DataFile Version 2.0
v_velocity
ASCII
DATASET RECTILINEAR_GRID
DIMENSIONS 41 42 1
X_COORDINATES 41 double
0 0.0325168 0.0644289 0.0957562 0.126518 0.156734 0.186424 0.215604 0.244295 0.272513 0.300276 0.327602 0.354507 0.38101 0.407125 0.43287 0.45826 0.483312 0.50804 0.532462 0.556591 0.580442 0.604032 0.627374 0.650483 0.673374 0.696061 0.718557 0.740878 0.763037 0.785048 0.806924 0.82868 0.850328 0.871883 0.893358 0.914766 0.936121 0.957436 0.978725 1 
Y_COORDINATES 42 double
0 0.0125 0.0375 0.0625 0.0875 0.1125 0.1375 0.1625 0.1875 0.2125 0.2375 0.2625 0.2875 0.3125 0.3375 0.3625 0.3875 0.4125 0.4375 0.4625 0.4875 0.5125 0.5375 0.5625 0.5875 0.6125 0.6375 0.6625 0.6875 0.7125 0.7375 0.7625 0.7875 0.8125 0.8375 0.8625 0.8875 0.9125 0.9375 0.9625 0.9875 1 
Z_COORDINATES 1 double
0.0

CELL_DATA 1640
SCALARS v_velocity double 1
LOOKUP_TABLE default
0
0
0
0
0
0
0
0
0
0
0
0
0
0
0
0
0
0
0
0
0
0
0
0
0
0
0
0
0
0
0
0
0
0
0
0
0
0
0
0
-0.000308484
-0.000266372
4.3725e-06
0.000307652
0.00058974
0.000852734
0.00110833
0.00136064
0.00160275
0.00181843
0.00198532
0.00207845
0.00207368
0.00195108
0.0016982
0.00131271
0.000804286
0.000195223
-0.000480318
-0.00117858
-0.00184982
-0.00244307
-0.0029114
-0.0032173
-0.00333712
-0.00326415
-0.00300944
-0.00260034
-0.0020767
-0.00148543
-0.000874412
-0.000287059
0.000241435
0.000685031
0.00102442
0.00124114
0.00130921
0.00118837
0.000832458
0.000259335
-0.000681442
-0.000341546
0.000610777
0.00166846
0.00268486
0.0036518
0.00458412
0.00547438
0.0062835
0.00694707
0.00738703
0.00752448
0.00729202
0.00664438
0.00556651
0.00407835
0.00223587
0.000128301
-0.0021277
-0.00439666
-0.00653463
-0.00840085
-0.00986968
-0.0108421
-0.0112554
-0.0110899
-0.0103718
-0.0091705
-0.00759114
-0.00576286
-0.0038243
-0.00190939
-0.000136229
0.00139806
0.00261462
0.0034421
0.00380082
0.00359065
0.00270223
0.00109019
-0.000773666
0.000302847
0.00231157
0.00448118
0.00659051
0.00861543
0.0105525
0.0123528
0.0139129
0.0150916
0.0157349
0.0157033
0.0148941
0.0132582
0.0108089
0.00762306
0.00383586
-0.000369276
-0.00477348
-0.00913684
-0.0132137
-0.0167683
-0.0195912
-0.0215148
-0.0224279
-0.0222869
-0.0211222
-0.0190375
-0.0162013
-0.0128312
-0.00917199
-0.00547236
-0.00196457
0.00114831
0.00369357
0.00551759
0.00646559
0.00636169
0.00500485
0.00219818
-0.000361199
0.00204625
0.00548691
0.00906575
0.012549
0.0159018
0.0190769
0.0219489
0.024319
0.0259506
0.0266127
0.0261204
0.0243639
0.0213245
0.0170757
0.0117752
0.00564992
-0.00102082
-0.00792197
-0.0147189
-0.0210733
-0.0266592
-0.0311813
-0.034394
-0.0361208
-0.0362727
-0.0348611
-0.032003
-0.0279156
-0.022899
-0.017309
-0.0115245
-0.00591578
-0.000820801
0.00346368
0.00667433
0.00855865
0.00884538
0.00721931
0.00330827
0.000710185
0.00515632
0.0104051
0.0156421
0.0207125
0.0255833
0.0301381
0.0341424
0.0372813
0.0392211
0.0396715
0.0384335
0.0354257
0.030689
0.0243742
0.0167221
0.00804193
-0.00130841
-0.0109377
-0.0204345
-0.0293802
-0.0373633
-0.0439972
-0.0489428
-0.051934
-0.0528045
-0.0515122
-0.0481548
-0.0429728
-0.036335
-0.0287085
-0.0206161
-0.0125899
-0.00513316
0.00130168
0.00631268
0.00952575
0.0105571
0.00897107
0.00424323
0.00254839
0.00980593
0.0172245
0.0243214
0.0311297
0.0376344
0.0436273
0.0487418
0.0525414
0.0546115
0.0546337
0.0524302
0.0479757
0.0413839
0.0328811
0.0227775
0.0114434
-0.000707701
-0.0132304
-0.0256556
-0.0374979
-0.0482665
-0.0574809
-0.0646942
-0.0695244
-0.0716907
-0.0710518
-0.0676389
-0.0616739
-0.0535667
-0.0438867
-0.0333114
-0.0225631
-0.0123478
-0.00331333
0.00396432
0.00896248
0.0111699
0.0100342
0.00491507
0.00522019
0.0160789
0.0259967
0.035106
0.0437441
0.0519306
0.0593492
0.0654912
0.0698093
0.0718358
0.0712582
0.0679469
0.0619458
0.0534403
0.0427204
0.0301488
0.016139
0.00114082
-0.0143662
-0.0298754
-0.0448548
-0.0587508
-0.0709983
-0.0810408
-0.0883619
-0.0925301
-0.0932519
-0.0904274
-0.084194
-0.0749481
-0.0633301
-0.0501714
-0.0364122
-0.0230092
-0.0108605
-0.000766338
0.00656507
0.0104754
0.0102964
0.00529956
0.00874764
0.023971
0.036671
0.0478943
0.0583983
0.0682542
0.0770286
0.0840742
0.088754
0.0905785
0.0892674
0.0847541
0.0771537
0.066718
0.0537937
0.038789
0.0221514
0.0043544
-0.0141071
-0.0327148
-0.0509209
-0.0681419
-0.0837572
-0.0971189
-0.107578
-0.114528
-0.117473
-0.116104
-0.110381
-0.100594
-0.087382
-0.0716961
-0.0547079
-0.0376783
-0.0218304
-0.00826405
0.00206792
0.00832411
0.00970764
0.00540643
0.0131025
0.0333906
0.0491013
0.0624905
0.0748444
0.0863033
0.0963163
0.10411
0.108982
0.110448
0.108274
0.102464
0.0932058
0.0808214
0.0657197
0.0483597
0.0292234
0.00879865
-0.0124247
-0.0339479
-0.0552482
-0.075759
-0.0948536
-0.111837
-0.125956
-0.136436
-0.142547
-0.143698
-0.13956
-0.130182
-0.11607
-0.0982024
-0.0779526
-0.0569241
-0.0367561
-0.0189567
-0.00482041
0.004561
0.00822359
0.0052504
0.0182021
0.0441623
0.0630564
0.0786168
0.0927563
0.105703
0.116794
0.125148
0.130019
0.130943
0.127746
0.120506
0.109496
0.0951251
0.0778829
0.0582923
0.0368729
0.0141187
-0.00950565
-0.0335526
-0.057567
-0.0810531
-0.10344
-0.124052
-0.142094
-0.156668
-0.166818
-0.171634
-0.170397
-0.162754
-0.14889
-0.129632
-0.106441
-0.0812503
-0.0561971
-0.0333404
-0.0144643
-0.00102866
0.00575938
0.00482779
0.0239103
0.0560346
0.0782324
0.0959281
0.111744
0.126017
0.137986
0.146674
0.151313
0.151469
0.147035
0.138183
0.125294
0.108889
0.089562
0.0679119
0.0444977
0.0198111
-0.00572521
-0.0317399
-0.05788
-0.0837671
-0.108947
-0.13284
-0.154698
-0.173581
-0.188379
-0.197882
-0.20093
-0.196631
-0.184627
-0.165331
-0.140059
-0.110947
-0.0806593
-0.0519554
-0.027314
-0.00874791
0.00216098
0.00410247
0.0300418
0.0686915
0.0942677
0.114029
0.131372
0.146769
0.159374
0.168134
0.172268
0.171383
0.165461
0.154789
0.139886
0.121416
0.100091
0.076593
0.0515157
0.0253399
-0.00156468
-0.0289159
-0.0564809
-0.0840259
-0.111258
-0.137759
-0.162919
-0.185873
-0.205475
-0.220315
-0.228832
-0.229532
-0.221322
-0.203895
-0.178067
-0.145893
-0.110453
-0.0753079
-0.0438743
-0.0189843
-0.00280006
0.0030024
0.0363729
0.0817681
0.11076
0.132491
0.15118
0.167464
0.180433
0.188971
0.192299
0.190084
0.182417
0.169733
0.152719
0.132197
0.109005
0.0839006
0.0575019
0.0302691
0.00251365
-0.0255718
-0.0538721
-0.0823001
-0.110739
-0.13897
-0.166592
-0.192931
-0.21695
-0.237207
-0.251883
-0.258943
-0.256477
-0.243193
-0.218985
-0.185367
-0.145514
-0.103745
-0.0646348
-0.0321754
-0.00941138
0.00142491
0.0426551
0.0948682
0.127285
0.150874
0.170706
0.187617
0.200659
0.208675
0.210901
0.207088
0.197462
0.182637
0.163487
0.140997
0.116119
0.0896692
0.0622739
0.0343614
0.00618388
-0.0221458
-0.0506121
-0.0792527
-0.108108
-0.137161
-0.166252
-0.194971
-0.222536
-0.247661
-0.268493
-0.282654
-0.287499
-0.280629
-0.260643
-0.227947
-0.185243
-0.137309
-0.0899711
-0.0487537
-0.0179914
-0.000753369
0.048632
0.107584
0.143413
0.168746
0.189509
0.20678
0.219612
0.226825
0.227695
0.222078
0.210367
0.193371
0.172157
0.147859
0.121523
0.0939974
0.0658958
0.0376036
0.00931503
-0.0189223
-0.0471659
-0.0755414
-0.104207
-0.13331
-0.162916
-0.192911
-0.222851
-0.25178
-0.278059
-0.299255
-0.312245
-0.313613
-0.300471
-0.271577
-0.228418
-0.175605
-0.120038
-0.0690792
-0.0288552
-0.00366553
0.0540563
0.119514
0.158726
0.1857
0.207189
0.224568
0.236934
0.243115
0.242449
0.234922
0.22111
0.202026
0.178916
0.15304
0.125508
0.0971709
0.0686101
0.0401587
0.0119553
-0.0160028
-0.0438184
-0.0716658
-0.0997706
-0.128387
-0.157758
-0.188033
-0.219129
-0.250526
-0.281005
-0.308397
-0.329463
-0.340082
-0.335943
-0.313828
-0.273247
-0.217727
-0.154671
-0.0933721
-0.0422786
-0.007444
0.0587067
0.130283
0.172836
0.201365
0.223401
0.240671
0.252366
0.25736
0.255074
0.245643
0.229832
0.208846
0.184087
0.156912
0.128457
0.0995561
0.0707383
0.0422792
0.0142662
-0.0133412
-0.040669
-0.0679062
-0.0952988
-0.123149
-0.151805
-0.181613
-0.212813
-0.245339
-0.27852
-0.310712
-0.338954
-0.358866
-0.365054
-0.3523
-0.317573
-0.262276
-0.193329
-0.121652
-0.0584648
-0.0122105
0.0624022
0.139557
0.18539
0.215421
0.237865
0.254855
0.265743
0.26948
0.265594
0.254373
0.236765
0.214145
0.188038
0.159862
0.130753
0.101505
0.0725897
0.044223
0.0164456
-0.0108108
-0.0376797
-0.0643423
-0.0910307
-0.118044
-0.145767
-0.174659
-0.205198
-0.237723
-0.27214
-0.307488
-0.341421
-0.369785
-0.38662
-0.385023
-0.359198
-0.307504
-0.23509
-0.153698
-0.0775139
-0.0180662
0.0650127
0.147057
0.196084
0.227599
0.250364
0.266963
0.276975
0.279473
0.274102
0.261299
0.242173
0.218238
0.191106
0.162222
0.132704
0.103294
0.0744048
0.0461962
0.0186689
-0.00826562
-0.0347406
-0.0609174
-0.0869945
-0.113235
-0.140003
-0.167794
-0.197224
-0.228937
-0.263357
-0.30026
-0.33813
-0.373469
-0.400344
-0.410721
-0.396213
-0.351541
-0.27873
-0.189045
-0.0994036
-0.0250823
0.0664655
0.152569
0.204668
0.237682
0.260736
0.276897
0.286037
0.287388
0.280722
0.266611
0.246295
0.221387
0.193551
0.164234
0.134521
0.105102
0.0763336
0.0483298
0.0210587
-0.00558319
-0.0317254
-0.057507
-0.0830866
-0.108674
-0.134581
-0.161275
-0.189417
-0.219836
-0.253367
-0.290464
-0.330536
-0.371051
-0.406655
-0.42887
-0.427227
-0.392642
-0.322856
-0.227015
-0.123987
-0.0332943
0.0667476
0.155955
0.210952
0.245503
0.268872
0.284607
0.292937
0.293293
0.285576
0.270472
0.249314
0.223775
0.19554
0.166037
0.136313
0.10701
0.0784401
0.0506812
0.0236783
-0.00268249
-0.0285267
-0.0539741
-0.0791466
-0.1042
-0.129377
-0.155079
-0.181941
-0.210866
-0.242958
-0.279231
-0.319991
-0.36384
-0.406445
-0.439587
-0.451439
-0.429377
-0.366071
-0.266788
-0.151008
-0.0427011
0.065904
0.157153
0.214804
0.250942
0.274701
0.290075
0.297702
0.297252
0.288756
0.272989
0.251338
0.225499
0.197146
0.167679
0.138103
0.109024
0.0807206
0.0532493
0.0265404
0.000474584
-0.0250705
-0.0502009
-0.0750101
-0.0996074
-0.124169
-0.149014
-0.174704
-0.202128
-0.232523
-0.267308
-0.307571
-0.353076
-0.400808
-0.443426
-0.46858
-0.460719
-0.407111
-0.307495
-0.18014
-0.0532707
0.0640313
0.156188
0.216161
0.253924
0.278183
0.293303
0.300366
0.299314
0.290317
0.27421
0.252399
0.226568
0.198357
0.169126
0.139845
0.11109
0.0831235
0.0559919
0.0296212
0.00389136
-0.0213174
-0.0461023
-0.0705388
-0.0947021
-0.118713
-0.142811
-0.167462
-0.193484
-0.222136
-0.255078
-0.294011
-0.339779
-0.390824
-0.441173
-0.478784
-0.486034
-0.444923
-0.348297
-0.211036
-0.0649525
0.0612703
0.153165
0.215029
0.254416
0.279302
0.294303
0.300953
0.299502
0.290266
0.274121
0.252458
0.226919
0.199091
0.170287
0.141441
0.113115
0.0855656
0.0588416
0.0328739
0.00754694
-0.0172554
-0.0416259
-0.0656304
-0.0893232
-0.112785
-0.13619
-0.159912
-0.184664
-0.211649
-0.242628
-0.279721
-0.324691
-0.377434
-0.433672
-0.482429
-0.505009
-0.478686
-0.388446
-0.243376
-0.077696
0.0577952
0.148273
0.21149
0.252433
0.278061
0.293088
0.299477
0.297815
0.288572
0.272654
0.251416
0.226429
0.19921
0.171017
0.142755
0.114976
0.0879415
0.0617139
0.0362369
0.0114047
-0.0128929
-0.036746
-0.0602172
-0.0833514
-0.106206
-0.128908
-0.151753
-0.175347
-0.200793
-0.229839
-0.264847
-0.308283
-0.36138
-0.421718
-0.480013
-0.517551
-0.507777
-0.427305
-0.276923
-0.0914734
0.0538031
0.141777
0.205708
0.24804
0.274486
0.289673
0.29594
0.294223
0.285165
0.2697
0.249125
0.224924
0.198528
0.171135
0.143618
0.116524
0.0901278
0.0645108
0.0396373
0.0154167
-0.00825238
-0.0314571
-0.0542602
-0.0767054
-0.0988407
-0.120766
-0.142721
-0.165221
-0.18925
-0.216474
-0.24934
-0.290795
-0.343195
-0.405989
-0.472051
-0.523688
-0.531701
-0.464324
-0.311543
-0.106307
0.049504
0.134014
0.197932
0.241367
0.268627
0.284072
0.29033
0.288678
0.279951
0.265114
0.245401
0.222194
0.196828
0.170429
0.143835
0.11759
0.0919824
0.0671194
0.04299
0.0195235
-0.00336913
-0.0257703
-0.0477439
-0.0693376
-0.0906005
-0.111624
-0.132614
-0.15402
-0.176718
-0.202255
-0.233044
-0.272296
-0.323235
-0.387037
-0.459024
-0.52349
-0.550012
-0.498986
-0.347218
-0.1223
0.0451134
0.125383
0.188505
0.232611
0.260571
0.276304
0.282622
0.281114
0.272815
0.258734
0.240042
0.218011
0.193868
0.168662
0.143188
0.11798
0.0933433
0.0694089
0.0461938
0.0236508
0.00170648
-0.019714
-0.0406751
-0.0612305
-0.0814382
-0.101394
-0.121295
-0.141549
-0.162951
-0.18692
-0.21576
-0.252757
-0.301716
-0.365292
-0.441352
-0.517012
-0.562228
-0.53071
-0.38402
-0.139686
0.040849
0.116336
0.177859
0.222052
0.250442
0.266394
0.27278
0.27145
0.263632
0.25039
0.232837
0.212135
0.189398
0.165585
0.141442
0.117485
0.0940289
0.0712283
0.0491274
0.0277042
0.00690379
-0.0133388
-0.0330865
-0.0524003
-0.0713511
-0.09005
-0.108703
-0.127705
-0.147794
-0.170277
-0.197309
-0.232106
-0.27877
-0.341098
-0.4194
-0.504266
-0.567759
-0.55873
-0.422027
-0.158884
0.0369365
0.107377
0.166513
0.210052
0.238417
0.254381
0.260761
0.259592
0.252269
0.239912
0.223584
0.20434
0.183174
0.160953
0.138359
0.115884
0.0938422
0.072407
0.0516471
0.031565
0.0121252
-0.00672516
-0.0250465
-0.0429067
-0.0603927
-0.0776378
-0.0948695
-0.112491
-0.131213
-0.15225
-0.177596
-0.210295
-0.254496
-0.314742
-0.393495
-0.485217
-0.565836
-0.581929
-0.461177
-0.180601
0.033628
0.09906
0.155059
0.197048
0.224721
0.240319
0.246515
0.245433
0.238587
0.227136
0.212095
0.194415
0.174974
0.154534
0.13371
0.112956
0.092579
0.0727601
0.0535879
0.0350865
0.0172391
4.77122e-06
-0.0166741
-0.0328727
-0.0486956
-0.064302
-0.0799489
-0.0960599
-0.113336
-0.132923
-0.156659
-0.187356
-0.229005
-0.286492
-0.363955
-0.459804
-0.555477
-0.598659
-0.501
-0.205939
0.0312469
0.09201
0.144147
0.183522
0.209611
0.224272
0.229985
0.228857
0.222445
0.211909
0.198208
0.182188
0.16461
0.146133
0.127294
0.108501
0.0900414
0.0720966
0.0547668
0.0380921
0.0220703
0.00666994
-0.00816518
-0.0225184
-0.0365123
-0.0503323
-0.0642646
-0.0787555
-0.0945035
-0.112599
-0.134731
-0.163457
-0.202465
-0.256616
-0.331118
-0.427986
-0.535488
-0.606528
-0.540197
-0.236494
0.0302756
0.0869627
0.134443
0.169944
0.193326
0.206295
0.211106
0.209744
0.203705
0.194097
0.18179
0.167525
0.151944
0.135601
0.118951
0.102348
0.0860491
0.0702264
0.0549817
0.0403627
0.0263754
0.012993
0.000158176
-0.012221
-0.0242828
-0.0362332
-0.0483794
-0.0611809
-0.0753259
-0.0918467
-0.11229
-0.138949
-0.175136
-0.225394
-0.295342
-0.389813
-0.504546
-0.602239
-0.576046
-0.274315
0.0315203
0.0848188
0.126568
0.156668
0.176019
0.186391
0.189795
0.187973
0.182246
0.17359
0.162751
0.150344
0.136892
0.122844
0.108567
0.094357
0.0804303
0.0669381
0.0539737
0.0415829
0.0297725
0.0185158
0.00775282
-0.00261403
-0.0127312
-0.0228129
-0.0331704
-0.0442556
-0.0567253
-0.0715365
-0.0900855
-0.114401
-0.147388
-0.193096
-0.256967
-0.345476
-0.461393
-0.581546
-0.603639
-0.321482
0.0363896
0.0866879
0.120982
0.143792
0.15764
0.164458
0.165934
0.163434
0.157979
0.150324
0.141044
0.130607
0.119408
0.107786
0.0960219
0.0843431
0.0729211
0.0618769
0.0512864
0.0411868
0.0315813
0.0224424
0.0137107
0.00529078
-0.00295922
-0.0112438
-0.0198551
-0.0292104
-0.0399053
-0.052793
-0.0690967
-0.090567
-0.119691
-0.159955
-0.216219
-0.295298
-0.40516
-0.539498
-0.615025
-0.378961
0.0472894
0.0937977
0.117772
0.130999
0.137845
0.140238
0.13935
0.136008
0.130812
0.124214
0.116568
0.108172
0.0992851
0.0901343
0.0809137
0.0717826
0.0628642
0.0542471
0.0459878
0.0381137
0.0306258
0.0234993
0.0166828
0.0100932
0.00360753
-0.00295081
-0.00983288
-0.0173942
-0.0261389
-0.0367814
-0.0503372
-0.0682458
-0.0925516
-0.126133
-0.173107
-0.239604
-0.335779
-0.471203
-0.598364
-0.444175
0.0678499
0.106715
0.11598
0.117118
0.115681
0.113029
0.109504
0.10522
0.100261
0.0947171
0.0886917
0.0823012
0.0756674
0.0689108
0.0621434
0.0554623
0.0489466
0.0426556
0.0366285
0.030885
0.0254259
0.0202332
0.0152679
0.0104664
0.00573382
0.000933543
-0.00412851
-0.00972564
-0.016244
-0.0242252
-0.0344375
-0.0479583
-0.066335
-0.0917559
-0.127513
-0.178587
-0.254371
-0.373532
-0.537392
-0.506169
0.101152
0.121173
0.109916
0.0972697
0.0875003
0.0802048
0.074455
0.0695412
0.0650186
0.0606369
0.0562725
0.0518814
0.0474674
0.0430609
0.0387041
0.0344414
0.0303129
0.0263504
0.0225757
0.0189999
0.0156221
0.0124295
0.00939532
0.00647665
0.00360978
0.000704171
-0.00236824
-0.00578476
-0.00979535
-0.0147425
-0.0211157
-0.0295804
-0.0411307
-0.0571342
-0.0798975
-0.112931
-0.163752
-0.248718
-0.412743
-0.53462
0.134228
0.109182
0.0771874
0.0573697
0.0454238
0.0379164
0.0328859
0.0292376
0.0263572
0.0239
0.0216766
0.0195874
0.0175862
0.0156567
0.0137993
0.0120216
0.0103334
0.00874306
0.00725578
0.00587264
0.00458997
0.00339893
0.00228479
0.00122596
0.000191849
-0.00085908
-0.00198463
-0.0032615
-0.00479848
-0.00673566
-0.0092822
-0.0126928
-0.0174039
-0.0239105
-0.0333973
-0.0472366
-0.0707658
-0.111502
-0.21373
-0.447989
0
0
0
0
0
0
0
0
0
0
0
0
0
0
0
0
0
0
0
0
0
0
0
0
0
0
0
0
0
0
0
0
0
0
0
0
0
0
0
0
