# vtk DataFile Version 2.0
pressure
ASCII
DATASET RECTILINEAR_GRID
DIMENSIONS 51 51 1
X_COORDINATES 51 double
0 0.02 0.04 0.06 0.08 0.1 0.12 0.14 0.16 0.18 0.2 0.22 0.24 0.26 0.28 0.3 0.32 0.34 0.36 0.38 0.4 0.42 0.44 0.46 0.48 0.5 0.52 0.54 0.56 0.58 0.6 0.62 0.64 0.66 0.68 0.7 0.72 0.74 0.76 0.78 0.8 0.82 0.84 0.86 0.88 0.9 0.92 0.94 0.96 0.98 1 
Y_COORDINATES 51 double
0 0.02 0.04 0.06 0.08 0.1 0.12 0.14 0.16 0.18 0.2 0.22 0.24 0.26 0.28 0.3 0.32 0.34 0.36 0.38 0.4 0.42 0.44 0.46 0.48 0.5 0.52 0.54 0.56 0.58 0.6 0.62 0.64 0.66 0.68 0.7 0.72 0.74 0.76 0.78 0.8 0.82 0.84 0.86 0.88 0.9 0.92 0.94 0.96 0.98 1 
Z_COORDINATES 1 double
0.0

CELL_DATA 2500
SCALARS pressure double 1
LOOKUP_TABLE default
0
-2.22658e-05
-9.75022e-05
-0.000222643
-0.000385226
-0.000574374
-0.000782248
-0.00100366
-0.00123509
-0.00147373
-0.00171659
-0.00196003
-0.0021994
-0.0024289
-0.00264169
-0.00283004
-0.00298567
-0.00310017
-0.00316557
-0.003175
-0.00312339
-0.00300824
-0.00283031
-0.00259427
-0.00230899
-0.0019877
-0.00164765
-0.00130939
-0.000995685
-0.000729912
-0.000534344
-0.000428236
-0.000426048
-0.000535979
-0.000759032
-0.00108874
-0.00151164
-0.00200842
-0.00255557
-0.00312744
-0.00369815
-0.00424343
-0.00474183
-0.00517549
-0.00553036
-0.00579624
-0.0059673
-0.0060441
-0.00603915
-0.00598816
2.2303e-05
-1.11583e-06
-6.9747e-05
-0.000181646
-0.000326592
-0.000496088
-0.00068388
-0.000885646
-0.0010983
-0.00131925
-0.00154578
-0.00177456
-0.00200142
-0.00222119
-0.00242772
-0.00261403
-0.00277255
-0.00289551
-0.00297539
-0.00300552
-0.00298079
-0.00289831
-0.00275819
-0.00256407
-0.00232358
-0.00204849
-0.00175445
-0.00146039
-0.00118742
-0.000957434
-0.000791376
-0.000707396
-0.000719116
-0.000834201
-0.00105344
-0.00137052
-0.00177246
-0.00224085
-0.00275346
-0.00328622
-0.00381521
-0.00431828
-0.00477634
-0.00517396
-0.00549959
-0.00574545
-0.00590755
-0.00598631
-0.00598825
-0.00593713
0.000100142
6.53646e-05
-6.22999e-06
-0.000112624
-0.000245939
-0.000400132
-0.000570924
-0.000755403
-0.000951462
-0.00115722
-0.00137056
-0.00158874
-0.00180818
-0.00202433
-0.00223167
-0.00242377
-0.00259348
-0.00273324
-0.00283548
-0.0028932
-0.00290067
-0.00285409
-0.00275243
-0.00259804
-0.00239721
-0.00216038
-0.00190198
-0.00163992
-0.00139455
-0.00118722
-0.0010386
-0.000966748
-0.000985328
-0.00110212
-0.00131802
-0.00162681
-0.00201562
-0.00246615
-0.00295648
-0.00346309
-0.00396295
-0.00443524
-0.00486262
-0.00523179
-0.00553351
-0.00576216
-0.00591501
-0.00599147
-0.00599204
-0.00593284
0.000232467
0.000176447
9.25109e-05
-1.63926e-05
-0.000144992
-0.000289815
-0.000448829
-0.000620943
-0.000805475
-0.00100168
-0.00120835
-0.00142356
-0.00164442
-0.00186697
-0.00208614
-0.00229573
-0.00248855
-0.00265668
-0.00279188
-0.00288616
-0.00293248
-0.0029256
-0.00286291
-0.00274527
-0.00257759
-0.00236919
-0.00213377
-0.00188886
-0.00165488
-0.00145361
-0.00130647
-0.00123249
-0.00124632
-0.00135667
-0.0015651
-0.00186573
-0.00224566
-0.00268627
-0.00316514
-0.00365832
-0.00414258
-0.00459741
-0.00500628
-0.0053573
-0.00564295
-0.00585932
-0.00600466
-0.00607775
-0.00607577
-0.00601177
0.000405322
0.000319931
0.000216368
9.88608e-05
-3.05437e-05
-0.000171337
-0.000324053
-0.000489722
-0.000669384
-0.000863686
-0.00107257
-0.00129504
-0.00152896
-0.00177087
-0.0020159
-0.00225774
-0.00248868
-0.00269985
-0.0028817
-0.00302458
-0.00311958
-0.0031595
-0.00313979
-0.00305954
-0.00292223
-0.00273612
-0.00251436
-0.00227449
-0.00203746
-0.00182614
-0.00166347
-0.00157027
-0.00156316
-0.00165266
-0.00184186
-0.00212587
-0.00249218
-0.00292192
-0.00339195
-0.0038773
-0.0043538
-0.00480028
-0.00520014
-0.00554198
-0.00581933
-0.0060295
-0.00617174
-0.00624505
-0.00624579
-0.00618599
0.000601334
0.000480837
0.000352615
0.000222137
8.74851e-05
-5.43113e-05
-0.000206688
-0.000373038
-0.000556306
-0.000758694
-0.000981409
-0.00122445
-0.00148638
-0.00176412
-0.00205272
-0.00234532
-0.00263318
-0.0029059
-0.00315199
-0.00335954
-0.0035172
-0.0036153
-0.00364695
-0.00360913
-0.00350361
-0.00333743
-0.00312311
-0.00287819
-0.00262437
-0.00238595
-0.00218795
-0.00205384
-0.00200315
-0.00204942
-0.00219845
-0.0024475
-0.00278539
-0.00319365
-0.00364866
-0.00412431
-0.00459493
-0.00503791
-0.00543557
-0.00577603
-0.00605296
-0.00626427
-0.00641002
-0.00648994
-0.00650096
-0.00645466
0.000800892
0.000641654
0.000485675
0.000339243
0.000195623
4.77977e-05
-0.00011091
-0.000286444
-0.000483778
-0.000706742
-0.000957857
-0.00123811
-0.00154666
-0.00188057
-0.0022345
-0.00260061
-0.00296857
-0.00332589
-0.00365854
-0.00395175
-0.0041912
-0.00436418
-0.00446094
-0.00447586
-0.00440847
-0.00426413
-0.00405429
-0.00379621
-0.00351218
-0.00322804
-0.00297134
-0.00276892
-0.0026444
-0.00261571
-0.00269302
-0.00287742
-0.00316065
-0.0035259
-0.00394986
-0.00440555
-0.00486556
-0.00530508
-0.00570435
-0.00604982
-0.00633414
-0.00655488
-0.0067123
-0.00680671
-0.00683603
-0.0068112
0.000982314
0.000782435
0.000597115
0.000432703
0.000276728
0.000117541
-5.50926e-05
-0.000249828
-0.000473739
-0.000732329
-0.00102942
-0.00136691
-0.00174442
-0.00215888
-0.0026042
-0.00307109
-0.00354714
-0.00401722
-0.00446416
-0.00486979
-0.00521618
-0.005487
-0.00566894
-0.00575306
-0.00573588
-0.00562031
-0.00541596
-0.0051392
-0.00481242
-0.00446286
-0.00412076
-0.00381703
-0.00358049
-0.00343517
-0.00339761
-0.00347504
-0.00366434
-0.00395239
-0.0043177
-0.00473324
-0.00516991
-0.00560016
-0.006001
-0.00635581
-0.00665471
-0.00689356
-0.00707169
-0.00718926
-0.00724468
-0.00724781
0.00112193
0.00088098
0.000665851
0.000481974
0.000310218
0.000133756
-6.14923e-05
-0.000287018
-0.000552061
-0.000863802
-0.00122734
-0.00164538
-0.00211781
-0.00264115
-0.00320819
-0.00380776
-0.00442487
-0.00504121
-0.00563595
-0.00618692
-0.00667191
-0.00707025
-0.00736424
-0.0075407
-0.00759221
-0.00751813
-0.00732529
-0.00702814
-0.00664844
-0.00621426
-0.00575844
-0.0053163
-0.00492292
-0.00461003
-0.00440292
-0.0043177
-0.00435945
-0.00452162
-0.00478696
-0.00512999
-0.0055206
-0.00592814
-0.00632527
-0.00669057
-0.00700976
-0.00727505
-0.00748321
-0.00763284
-0.0077218
-0.00775821
0.00119441
0.000913243
0.000668642
0.000463993
0.000272687
7.22455e-05
-0.000155478
-0.00042493
-0.000747556
-0.00113224
-0.00158529
-0.00211015
-0.00270674
-0.00337091
-0.00409395
-0.00486238
-0.0056582
-0.00645939
-0.00724091
-0.00797593
-0.00863728
-0.00919911
-0.00963844
-0.00993686
-0.0100819
-0.0100683
-0.00989883
-0.00958494
-0.00914661
-0.00861185
-0.00801544
-0.00739703
-0.00679846
-0.00626055
-0.00581955
-0.00550355
-0.0053295
-0.00530129
-0.0054095
-0.00563296
-0.00594211
-0.00630346
-0.00668426
-0.00705646
-0.00739892
-0.00769775
-0.00794485
-0.00813536
-0.00826502
-0.00833938
0.00117341
0.00085405
0.000580864
0.00035405
0.000138871
-9.31333e-05
-0.000364345
-0.00069224
-0.00109053
-0.00156982
-0.00213761
-0.00279793
-0.00355056
-0.0043904
-0.00530687
-0.0062838
-0.00729966
-0.00832824
-0.00933966
-0.0103018
-0.0111817
-0.0119475
-0.0125702
-0.0130251
-0.0132938
-0.0133653
-0.0132374
-0.012917
-0.0124211
-0.0117764
-0.0110183
-0.0101901
-0.00933984
-0.00851816
-0.00777387
-0.00714991
-0.00667908
-0.00638044
-0.00625729
-0.00629708
-0.00647382
-0.00675243
-0.00709436
-0.00746293
-0.00782732
-0.00816443
-0.0084583
-0.00869808
-0.00887544
-0.0089923
0.00103259
0.000678095
0.000377587
0.000126955
-0.000117053
-0.000389059
-0.000715753
-0.0011177
-0.00161094
-0.00220781
-0.00291697
-0.00374294
-0.00468515
-0.00573723
-0.00688638
-0.00811328
-0.00939238
-0.0106926
-0.0119787
-0.0132123
-0.0143543
-0.015366
-0.0162115
-0.0168595
-0.0172848
-0.0174701
-0.017407
-0.0170972
-0.0165535
-0.0157993
-0.0148691
-0.0138079
-0.0126687
-0.011511
-0.0103966
-0.0093853
-0.0085292
-0.0078677
-0.00742281
-0.00719671
-0.00717201
-0.0073152
-0.0075826
-0.00792741
-0.00830609
-0.00868246
-0.00902902
-0.00932575
-0.00955776
-0.00972207
0.000746819
0.000361189
3.48725e-05
-0.000241549
-0.000519937
-0.000841063
-0.00123592
-0.00172818
-0.00233624
-0.0030742
-0.00395186
-0.00497404
-0.00613962
-0.00744059
-0.00886152
-0.0103794
-0.0119639
-0.0135786
-0.015182
-0.0167291
-0.0181736
-0.0194698
-0.0205747
-0.0214499
-0.0220635
-0.0223918
-0.02242
-0.022144
-0.0215708
-0.0207195
-0.0196215
-0.0183206
-0.0168722
-0.0153423
-0.0138041
-0.0123341
-0.011006
-0.009884
-0.00901531
-0.00842454
-0.00811043
-0.00804675
-0.00818763
-0.00847589
-0.00885243
-0.0092637
-0.00966603
-0.0100262
-0.0103199
-0.0105373
0.000293562
-0.000118359
-0.000468774
-0.000773234
-0.00109197
-0.00147173
-0.00194766
-0.00254654
-0.00328913
-0.00419128
-0.00526381
-0.00651171
-0.00793292
-0.0095174
-0.0112465
-0.0130927
-0.0150205
-0.0169871
-0.018944
-0.020839
-0.0226184
-0.0242293
-0.0256218
-0.0267511
-0.027579
-0.0280759
-0.0282212
-0.028005
-0.0274282
-0.0265042
-0.0252589
-0.0237323
-0.0219783
-0.0200651
-0.0180737
-0.0160946
-0.0142225
-0.0125488
-0.0111517
-0.0100867
-0.00937828
-0.00901672
-0.00896013
-0.00914325
-0.00948966
-0.0099241
-0.0103813
-0.0108099
-0.0111722
-0.0114494
-0.000345657
-0.000778303
-0.00115092
-0.0014858
-0.00185101
-0.00229886
-0.00286847
-0.0035896
-0.00448534
-0.00557319
-0.00686487
-0.00836518
-0.0100707
-0.0119689
-0.0140369
-0.0162422
-0.0185429
-0.0208892
-0.0232249
-0.0254902
-0.0276241
-0.0295668
-0.0312623
-0.0326603
-0.033718
-0.034401
-0.0346844
-0.0345529
-0.0340021
-0.0330387
-0.0316818
-0.0299646
-0.0279353
-0.0256593
-0.023219
-0.0207137
-0.0182548
-0.0159599
-0.0139411
-0.0122922
-0.0110746
-0.010307
-0.00996226
-0.00997322
-0.0102471
-0.0106833
-0.0111891
-0.0116887
-0.0121265
-0.012471
-0.00118393
-0.00163112
-0.00202379
-0.0023914
-0.00280899
-0.00333386
-0.00400877
-0.0048663
-0.00593169
-0.00722398
-0.00875543
-0.0105303
-0.0125432
-0.0147781
-0.0172075
-0.0197927
-0.0224844
-0.0252251
-0.0279505
-0.0305932
-0.033085
-0.0353602
-0.0373579
-0.0390242
-0.0403134
-0.0411884
-0.0416216
-0.0415944
-0.0410978
-0.0401325
-0.03871
-0.0368545
-0.034605
-0.0320183
-0.0291717
-0.0261648
-0.0231183
-0.02017
-0.0174645
-0.0151377
-0.0132977
-0.0120061
-0.0112652
-0.0110178
-0.0111599
-0.0115644
-0.0121053
-0.0126754
-0.0131947
-0.0136149
-0.0022278
-0.00268286
-0.00309314
-0.00349542
-0.00397064
-0.00458035
-0.00537054
-0.00637625
-0.00762469
-0.00913608
-0.0109229
-0.0129881
-0.0153238
-0.0179096
-0.0207121
-0.0236855
-0.0267726
-0.0299073
-0.0330171
-0.036027
-0.0388627
-0.0414538
-0.0437363
-0.0456546
-0.0471622
-0.0482219
-0.0488054
-0.0488931
-0.048473
-0.0475411
-0.0461019
-0.0441699
-0.0417724
-0.0389534
-0.0357779
-0.032337
-0.0287503
-0.0251657
-0.0217526
-0.0186873
-0.0161304
-0.0141994
-0.0129442
-0.0123349
-0.0122682
-0.0125934
-0.0131469
-0.0137825
-0.0143884
-0.0148928
-0.00347648
-0.00393235
-0.00435735
-0.00479558
-0.00533258
-0.00603332
-0.00694638
-0.00810892
-0.00954971
-0.0112897
-0.013341
-0.0157048
-0.0183696
-0.0213097
-0.024485
-0.0278417
-0.0313138
-0.0348265
-0.0382992
-0.0416501
-0.0447998
-0.0476748
-0.05021
-0.0523502
-0.0540501
-0.0552748
-0.0559977
-0.0562001
-0.0558694
-0.0549989
-0.0535874
-0.0516405
-0.0491734
-0.0462147
-0.0428123
-0.0390404
-0.0350065
-0.0308553
-0.0267684
-0.0229534
-0.0196217
-0.0169555
-0.0150701
-0.0139847
-0.0136156
-0.0137984
-0.0143314
-0.0150218
-0.0157171
-0.0163142
-0.0049214
-0.00537075
-0.00580705
-0.00628155
-0.00688296
-0.00767871
-0.0087193
-0.0100435
-0.011681
-0.0136532
-0.015971
-0.0186329
-0.0216231
-0.0249099
-0.0284454
-0.0321671
-0.0360001
-0.0398608
-0.0436612
-0.0473137
-0.0507352
-0.0538508
-0.0565961
-0.0589182
-0.0607753
-0.0621361
-0.0629781
-0.0632851
-0.0630462
-0.062254
-0.060904
-0.058995
-0.0565312
-0.0535259
-0.0500077
-0.0460286
-0.0416739
-0.0370721
-0.0324007
-0.0278828
-0.0237707
-0.0203112
-0.0176978
-0.0160223
-0.0152458
-0.0152084
-0.0156756
-0.0164029
-0.0171874
-0.0178847
-0.00654625
-0.00698166
-0.0074252
-0.00793504
-0.00860159
-0.0094937
-0.010663
-0.0121493
-0.0139827
-0.016184
-0.0187625
-0.0217134
-0.0250156
-0.0286305
-0.0325022
-0.0365591
-0.0407173
-0.0448853
-0.0489682
-0.0528741
-0.0565178
-0.0598247
-0.0627326
-0.0651923
-0.067167
-0.0686305
-0.0695653
-0.0699595
-0.0698054
-0.0690969
-0.0678287
-0.0659954
-0.0635933
-0.0606224
-0.0570928
-0.0530323
-0.0484986
-0.0435924
-0.038471
-0.0333536
-0.0285151
-0.0242566
-0.0208534
-0.0184887
-0.0171974
-0.0168504
-0.0171946
-0.0179327
-0.018802
-0.0196055
-0.00832756
-0.00874159
-0.00918764
-0.00973042
-0.0104607
-0.0114475
-0.0127431
-0.0143872
-0.0164099
-0.0188308
-0.0216568
-0.0248791
-0.0284707
-0.0323858
-0.0365602
-0.0409133
-0.0453531
-0.0497805
-0.0540955
-0.0582031
-0.0620174
-0.0654655
-0.0684887
-0.0710426
-0.0730961
-0.0746287
-0.0756284
-0.0760886
-0.0760056
-0.0753763
-0.0741966
-0.0724601
-0.0701582
-0.0672819
-0.0638259
-0.0597957
-0.0552198
-0.050165
-0.0447548
-0.0391855
-0.0337314
-0.0287276
-0.0245226
-0.0214006
-0.019497
-0.0187459
-0.0188992
-0.0196131
-0.020558
-0.0214715
-0.0102356
-0.010621
-0.0110641
-0.0116359
-0.012426
-0.0135029
-0.0149183
-0.0167114
-0.0189114
-0.0215361
-0.0245894
-0.0280579
-0.0319087
-0.0360887
-0.0405253
-0.04513
-0.0498031
-0.0544395
-0.0589352
-0.0631936
-0.0671296
-0.0706728
-0.0737688
-0.0763786
-0.0784766
-0.0800482
-0.0810868
-0.0815912
-0.0815622
-0.0810007
-0.0799053
-0.078271
-0.076088
-0.0733426
-0.0700188
-0.0661048
-0.0616024
-0.0565434
-0.0510104
-0.0451608
-0.039245
-0.0336058
-0.0286442
-0.0247414
-0.0221513
-0.0209058
-0.0207937
-0.0214403
-0.022446
-0.0234701
-0.0122356
-0.0125856
-0.0130198
-0.0136149
-0.0144585
-0.0156177
-0.0171427
-0.0190715
-0.0214316
-0.0242387
-0.0274931
-0.0311767
-0.0352508
-0.039655
-0.0443094
-0.0491182
-0.0539754
-0.0587713
-0.0633994
-0.0677625
-0.0717772
-0.0753765
-0.0785105
-0.0811451
-0.0832603
-0.0848466
-0.0859027
-0.0864318
-0.0864395
-0.0859306
-0.0849078
-0.0833691
-0.0813067
-0.0787058
-0.0755457
-0.0718028
-0.0674586
-0.0625134
-0.0570076
-0.0510507
-0.04485
-0.0387283
-0.0331099
-0.0284549
-0.0251404
-0.0233249
-0.0228722
-0.0234017
-0.0244478
-0.0255798
-0.0142898
-0.0145981
-0.0150167
-0.0156279
-0.0165165
-0.0177471
-0.0193679
-0.021415
-0.0239137
-0.0268769
-0.0303015
-0.0341647
-0.0384221
-0.0430071
-0.0478333
-0.0527989
-0.057793
-0.0627028
-0.0674203
-0.0718489
-0.0759075
-0.0795326
-0.0826784
-0.0853155
-0.0874284
-0.0890123
-0.0900697
-0.090608
-0.0906366
-0.0901647
-0.0891989
-0.0877416
-0.0857887
-0.0833283
-0.0803393
-0.0767931
-0.0726579
-0.0679095
-0.0625507
-0.0566411
-0.0503327
-0.0439047
-0.0377726
-0.0324458
-0.0284132
-0.0259773
-0.0251151
-0.0254744
-0.0265354
-0.0277694
-0.0163587
-0.0166197
-0.0170159
-0.0176347
-0.0185574
-0.0198457
-0.0215452
-0.0236896
-0.0263016
-0.0293911
-0.0329515
-0.0369557
-0.0413545
-0.0460759
-0.0510286
-0.056106
-0.061194
-0.0661776
-0.0709486
-0.0754117
-0.079488
-0.0831173
-0.0862575
-0.0888831
-0.090982
-0.0925527
-0.093601
-0.0941374
-0.0941745
-0.093725
-0.0927997
-0.0914057
-0.0895441
-0.0872078
-0.0843795
-0.0810309
-0.0771244
-0.0726199
-0.0674907
-0.0617506
-0.055493
-0.048937
-0.0424599
-0.0365845
-0.0318862
-0.028813
-0.0274864
-0.0276229
-0.0286697
-0.029996
-0.0184031
-0.0186124
-0.0189791
-0.0195957
-0.0205397
-0.0218695
-0.0236279
-0.0258456
-0.0285426
-0.0317258
-0.0353853
-0.0394905
-0.0439883
-0.0488027
-0.0538387
-0.0589868
-0.0641306
-0.0691544
-0.0739504
-0.0784247
-0.0825008
-0.086121
-0.0892461
-0.0918533
-0.093933
-0.0954859
-0.0965199
-0.0970477
-0.0970841
-0.0966449
-0.0957447
-0.0943951
-0.092603
-0.0903677
-0.087678
-0.0845103
-0.0808275
-0.0765822
-0.0717278
-0.0662411
-0.0601606
-0.0536379
-0.0469898
-0.0407176
-0.0354471
-0.0317566
-0.0299317
-0.0297978
-0.0307992
-0.0322055
-0.0203861
-0.0205402
-0.0208707
-0.0214745
-0.0224251
-0.0237781
-0.025573
-0.0278376
-0.030589
-0.0338314
-0.0375521
-0.041718
-0.046273
-0.051139
-0.0562183
-0.0614002
-0.0665674
-0.0716043
-0.0764038
-0.0808734
-0.0849384
-0.088543
-0.0916499
-0.0942378
-0.0962983
-0.0978335
-0.0988522
-0.0993683
-0.0993983
-0.0989602
-0.0980717
-0.096749
-0.0950044
-0.0928442
-0.090265
-0.0872506
-0.0837692
-0.0797734
-0.0752064
-0.070019
-0.0642031
-0.0578446
-0.0511872
-0.0446807
-0.0389617
-0.0347095
-0.0323772
-0.0319347
-0.0328597
-0.0343315
-0.0222741
-0.0223711
-0.0226591
-0.0232387
-0.0241803
-0.0255361
-0.0273431
-0.0296262
-0.0323998
-0.0356657
-0.0394094
-0.0435959
-0.048168
-0.0530463
-0.0581328
-0.0633163
-0.0684798
-0.0735082
-0.0782957
-0.0827507
-0.0867996
-0.0903876
-0.0934781
-0.0960501
-0.0980956
-0.0996165
-0.100622
-0.101127
-0.101147
-0.100704
-0.0998164
-0.0985052
-0.0967877
-0.0946771
-0.0921783
-0.0892843
-0.0859717
-0.0821986
-0.0779061
-0.0730301
-0.0675278
-0.061427
-0.0548951
-0.0483102
-0.0422824
-0.0375536
-0.0347309
-0.0339544
-0.0347744
-0.0362961
-0.0240386
-0.0240779
-0.0243178
-0.024862
-0.0257777
-0.0271147
-0.0289075
-0.0311789
-0.0339411
-0.0371942
-0.0409225
-0.0450908
-0.0496416
-0.0544961
-0.059557
-0.0647141
-0.0698514
-0.074855
-0.0796198
-0.0840549
-0.0880871
-0.0916615
-0.0947408
-0.0973035
-0.0993407
-0.100854
-0.101851
-0.102346
-0.102357
-0.101904
-0.10101
-0.0996971
-0.097989
-0.0959046
-0.0934572
-0.0906492
-0.0874678
-0.08388
-0.0798314
-0.0752524
-0.0700779
-0.0642891
-0.0579826
-0.0514545
-0.0452586
-0.0401573
-0.0368851
-0.0357637
-0.0364541
-0.0380104
-0.0256568
-0.0256395
-0.0258268
-0.0263244
-0.0271967
-0.0284919
-0.030243
-0.0324711
-0.0351872
-0.0383907
-0.0420659
-0.046178
-0.0506712
-0.0554684
-0.0604743
-0.0655807
-0.0706733
-0.0756395
-0.0803747
-0.0847882
-0.0888061
-0.0923723
-0.0954481
-0.0980102
-0.100048
-0.101561
-0.102555
-0.103045
-0.103048
-0.102584
-0.101677
-0.100353
-0.0986397
-0.096561
-0.0941382
-0.0913833
-0.0882943
-0.0848494
-0.0810029
-0.0766874
-0.0718262
-0.0663677
-0.060348
-0.0539811
-0.0477443
-0.0423822
-0.0387194
-0.0372564
-0.0377982
-0.0393746
-0.0271122
-0.027041
-0.0271725
-0.027613
-0.0284243
-0.0296538
-0.031334
-0.033486
-0.0361205
-0.0392372
-0.0428217
-0.0468411
-0.0512423
-0.0559513
-0.0608758
-0.0659104
-0.0709429
-0.0758619
-0.0805633
-0.0849558
-0.0889637
-0.0925291
-0.0956106
-0.0981819
-0.10023
-0.101751
-0.102751
-0.103242
-0.103239
-0.102763
-0.101841
-0.100499
-0.0987676
-0.0966772
-0.0942555
-0.0915233
-0.0884893
-0.0851433
-0.0814511
-0.0773525
-0.0727686
-0.0676274
-0.0619181
-0.0557799
-0.0496049
-0.0440884
-0.0401042
-0.038315
-0.0386949
-0.0402789
-0.0283952
-0.0282743
-0.0283485
-0.0287221
-0.0294548
-0.0305939
-0.032173
-0.0342146
-0.0367308
-0.0397233
-0.04318
-0.0470714
-0.0513481
-0.0559402
-0.0607595
-0.0657036
-0.070663
-0.0755275
-0.0801928
-0.0845662
-0.0885699
-0.0921427
-0.0952397
-0.097831
-0.0998998
-0.10144
-0.102454
-0.102951
-0.102947
-0.102462
-0.101523
-0.100157
-0.098399
-0.0962826
-0.0938417
-0.0911049
-0.0880907
-0.0848004
-0.0812121
-0.0772761
-0.0729176
-0.0680551
-0.0626452
-0.0567645
-0.0507208
-0.0451394
-0.040904
-0.0388119
-0.0390215
-0.0406028
-0.0295024
-0.0293378
-0.0293545
-0.0296527
-0.0302896
-0.0313131
-0.0327597
-0.0346552
-0.0370154
-0.0398457
-0.0431379
-0.046867
-0.0509885
-0.0554374
-0.0601298
-0.0649673
-0.0698427
-0.0746468
-0.0792749
-0.0836323
-0.087638
-0.091227
-0.0943498
-0.0969721
-0.0990729
-0.100642
-0.101679
-0.102191
-0.102192
-0.101701
-0.100745
-0.0993534
-0.0975616
-0.0954077
-0.0929302
-0.0901646
-0.0871379
-0.0838618
-0.0803264
-0.0764937
-0.0722975
-0.067655
-0.0625029
-0.05687
-0.0509885
-0.0454045
-0.0409791
-0.0386097
-0.0386434
-0.0402142
-0.0304366
-0.0302358
-0.0301968
-0.0304124
-0.0309366
-0.0318187
-0.0331001
-0.0348124
-0.0369778
-0.0396074
-0.0426987
-0.0462325
-0.0501698
-0.0544512
-0.0589977
-0.0637146
-0.0684969
-0.0732364
-0.0778272
-0.0821722
-0.0861867
-0.0898007
-0.0929598
-0.0956245
-0.0977688
-0.0993783
-0.100449
-0.100984
-0.100997
-0.100506
-0.0995352
-0.0981168
-0.0962871
-0.0940868
-0.0915584
-0.0887426
-0.0856734
-0.0823718
-0.0788383
-0.0750468
-0.0709414
-0.0664439
-0.0614815
-0.0560499
-0.0503197
-0.0447595
-0.0401855
-0.0375599
-0.0374122
-0.038966
-0.0312064
-0.0309782
-0.0308869
-0.0310139
-0.0314089
-0.0321234
-0.0332055
-0.0346961
-0.0366265
-0.0390164
-0.0418709
-0.0451777
-0.0489041
-0.0529964
-0.0573805
-0.0619651
-0.0666475
-0.0713195
-0.0758741
-0.0802109
-0.0842411
-0.0878892
-0.0910953
-0.0938139
-0.0960135
-0.0976751
-0.0987901
-0.0993597
-0.0993932
-0.0989076
-0.0979275
-0.096484
-0.0946145
-0.0923615
-0.0897701
-0.086885
-0.0837455
-0.0803798
-0.0767972
-0.072982
-0.068889
-0.0644476
-0.0595831
-0.0542715
-0.0486379
-0.0430845
-0.0383735
-0.0354997
-0.0351609
-0.0366915
-0.0318249
-0.0315799
-0.0314412
-0.0314746
-0.031724
-0.0322435
-0.0330909
-0.0343195
-0.0359738
-0.0380848
-0.0406675
-0.0437175
-0.047209
-0.0510937
-0.055302
-0.0597457
-0.0643236
-0.0689273
-0.073448
-0.0777818
-0.0818349
-0.0855265
-0.0887901
-0.0915743
-0.0938417
-0.0955678
-0.0967396
-0.0973544
-0.0974189
-0.0969482
-0.0959652
-0.0945006
-0.0925919
-0.0902822
-0.0876181
-0.0846466
-0.0814104
-0.0779424
-0.0742587
-0.0703516
-0.0661854
-0.0616978
-0.0568173
-0.0515104
-0.0458733
-0.0402594
-0.0353819
-0.0322463
-0.0316971
-0.0331962
-0.0323098
-0.0320601
-0.0318801
-0.0318153
-0.0319018
-0.0321977
-0.0327729
-0.0336979
-0.0350341
-0.0368275
-0.039105
-0.0418713
-0.0451073
-0.0487699
-0.0527931
-0.0570909
-0.061563
-0.0661001
-0.0705909
-0.0749279
-0.079012
-0.0827565
-0.0860886
-0.0889503
-0.091298
-0.0931017
-0.0943434
-0.0950164
-0.095124
-0.0946789
-0.0937021
-0.092223
-0.0902782
-0.0879103
-0.0851659
-0.0820923
-0.0787336
-0.0751248
-0.0712855
-0.0672135
-0.0628799
-0.0582296
-0.0531964
-0.0477447
-0.0419562
-0.0361574
-0.031031
-0.0275864
-0.0267918
-0.0282456
-0.0326821
-0.0324418
-0.0322277
-0.0320593
-0.0319637
-0.0320044
-0.0322678
-0.0328461
-0.0338223
-0.0352611
-0.037203
-0.0396626
-0.0426275
-0.0460586
-0.0498924
-0.054044
-0.0584127
-0.0628878
-0.0673551
-0.0717029
-0.075827
-0.0796345
-0.0830462
-0.0859975
-0.0884386
-0.0903335
-0.0916592
-0.0924045
-0.0925691
-0.0921625
-0.0912033
-0.0897188
-0.0877435
-0.0853181
-0.0824875
-0.0792973
-0.0757902
-0.0720004
-0.0679476
-0.0636311
-0.0590249
-0.0540788
-0.048731
-0.042948
-0.0368088
-0.0306351
-0.0251101
-0.0212618
-0.0201626
-0.0215462
-0.0329671
-0.0327527
-0.0325118
-0.0322315
-0.0319303
-0.0316802
-0.0315893
-0.031777
-0.0323528
-0.0334029
-0.0349836
-0.0371195
-0.0398039
-0.0430006
-0.0466467
-0.0506572
-0.0549298
-0.0593513
-0.0638043
-0.0681725
-0.0723466
-0.0762278
-0.0797306
-0.0827839
-0.0853315
-0.0873317
-0.0887561
-0.089589
-0.0898258
-0.0894724
-0.0885444
-0.0870657
-0.0850677
-0.0825876
-0.0796664
-0.0763456
-0.0726635
-0.0686499
-0.0643204
-0.0596711
-0.054674
-0.0492787
-0.0434253
-0.037083
-0.0303358
-0.0235209
-0.0173623
-0.0129474
-0.0114479
-0.0127158
-0.0331949
-0.033026
-0.0327644
-0.0323586
-0.0318207
-0.0312377
-0.0307464
-0.0304996
-0.0306376
-0.0312709
-0.0324721
-0.0342753
-0.0366781
-0.0396453
-0.0431128
-0.0469935
-0.0511823
-0.0555629
-0.0600136
-0.0644141
-0.0686496
-0.0726159
-0.0762214
-0.079389
-0.0820563
-0.0841759
-0.0857141
-0.0866502
-0.0869752
-0.0866911
-0.0858091
-0.0843489
-0.0823374
-0.0798064
-0.0767909
-0.0733255
-0.0694403
-0.0651568
-0.0604815
-0.055401
-0.0498789
-0.0438576
-0.0372731
-0.0300952
-0.0224157
-0.0146028
-0.00746511
-0.0022215
-0.000168668
-0.00123737
-0.0334042
-0.0333045
-0.0330243
-0.0324683
-0.0316508
-0.0306838
-0.0297422
-0.0290186
-0.0286876
-0.0288846
-0.0296982
-0.0311702
-0.0333005
-0.0360521
-0.0393581
-0.0431271
-0.0472501
-0.0516064
-0.0560703
-0.0605167
-0.0648263
-0.0688896
-0.0726094
-0.075903
-0.0787025
-0.0809549
-0.0826212
-0.0836758
-0.0841049
-0.0839057
-0.0830845
-0.0816557
-0.07964
-0.077062
-0.0739481
-0.0703229
-0.0662048
-0.0616016
-0.0565048
-0.0508843
-0.0446862
-0.0378359
-0.0302562
-0.0219102
-0.0128956
-0.00361878
0.00498797
0.0114718
0.0143285
0.0136139
-0.0336513
-0.0336476
-0.0333411
-0.032592
-0.0314335
-0.0300196
-0.0285743
-0.0273356
-0.0265136
-0.0262675
-0.0266988
-0.0278542
-0.0297325
-0.0322928
-0.0354626
-0.0391447
-0.0432248
-0.0475774
-0.0520723
-0.0565801
-0.060977
-0.0651488
-0.0689938
-0.0724239
-0.0753664
-0.0777628
-0.0795695
-0.0807555
-0.0813022
-0.0812014
-0.0804537
-0.0790671
-0.0770544
-0.0744315
-0.0712134
-0.0674115
-0.0630284
-0.0580527
-0.0524535
-0.046175
-0.0391343
-0.0312267
-0.0223468
-0.0124383
-0.00159529
0.00974255
0.0204976
0.0288622
0.0329495
0.0328792
-0.0340302
-0.0341477
-0.0337852
-0.0327682
-0.0311809
-0.0292424
-0.0272377
-0.0254532
-0.0241317
-0.0234517
-0.0235224
-0.0243905
-0.0260501
-0.0284533
-0.0315199
-0.0351456
-0.0392099
-0.0435819
-0.048127
-0.0527116
-0.0572083
-0.0614988
-0.0654773
-0.0690515
-0.072144
-0.0746919
-0.0766466
-0.0779723
-0.078645
-0.078651
-0.0779846
-0.0766461
-0.0746397
-0.0719701
-0.0686393
-0.0646418
-0.05996
-0.0545574
-0.0483727
-0.0413134
-0.0332537
-0.0240411
-0.013521
-0.00159494
0.0116678
0.0258163
0.0396419
0.0508772
0.0569508
0.0580699
-0.0347155
-0.0349609
-0.0344652
-0.0330526
-0.0309115
-0.0283535
-0.0257337
-0.0233837
-0.0215716
-0.0204855
-0.0202348
-0.0208599
-0.0223459
-0.0246348
-0.0276371
-0.0312405
-0.0353175
-0.0397322
-0.0443455
-0.0490204
-0.0536262
-0.0580415
-0.0621571
-0.0658772
-0.0691206
-0.0718203
-0.0739232
-0.075389
-0.0761885
-0.0763019
-0.075717
-0.074426
-0.0724231
-0.0697007
-0.0662453
-0.0620319
-0.0570182
-0.0511367
-0.0442871
-0.0363283
-0.0270757
-0.0163068
-0.00378932
0.0106533
0.0270169
0.0448887
0.0630013
0.0786112
0.0880361
0.0913648
-0.0360572
-0.0363686
-0.0355623
-0.03354
-0.0306683
-0.0273762
-0.0240868
-0.021165
-0.0188889
-0.0174429
-0.0169255
-0.0173639
-0.0187293
-0.0209514
-0.02393
-0.0275443
-0.0316603
-0.0361369
-0.0408314
-0.0456042
-0.0503217
-0.0548605
-0.0591087
-0.0629679
-0.0663539
-0.0691962
-0.071438
-0.0730345
-0.0739518
-0.0741645
-0.0736531
-0.0724018
-0.070394
-0.067609
-0.0640159
-0.0595678
-0.0541941
-0.0477907
-0.0402103
-0.0312524
-0.0206567
-0.00810675
0.00674304
0.0241991
0.0443928
0.0670415
0.0909759
0.113167
0.128401
0.135842
-0.0387822
-0.0388901
-0.0373872
-0.0343992
-0.0305482
-0.0263807
-0.0223662
-0.0188765
-0.0161762
-0.0144279
-0.0137069
-0.0140189
-0.0153173
-0.0175174
-0.0205077
-0.0241592
-0.0283319
-0.0328806
-0.0376598
-0.0425278
-0.0473496
-0.0520003
-0.0563665
-0.060348
-0.0638583
-0.0668245
-0.0691864
-0.0708959
-0.0719143
-0.0722109
-0.0717596
-0.070536
-0.068513
-0.0656556
-0.0619151
-0.0572211
-0.0514719
-0.0445236
-0.0361766
-0.0261621
-0.014131
0.000349087
0.0177753
0.0386493
0.0633454
0.0918721
0.12343
0.155248
0.180616
0.195774
-0.0444392
-0.0434574
-0.0404233
-0.0358747
-0.0306882
-0.0254651
-0.0206628
-0.0166139
-0.0135359
-0.0115468
-0.0106846
-0.0109261
-0.0122032
-0.0144156
-0.0174413
-0.0211437
-0.0253782
-0.0299967
-0.0348521
-0.0398017
-0.0447103
-0.0494522
-0.0539137
-0.0579937
-0.0616042
-0.0646705
-0.0671301
-0.0689317
-0.0700327
-0.0703974
-0.0699936
-0.0687884
-0.0667443
-0.0638126
-0.0599266
-0.0549924
-0.0488777
-0.0413983
-0.0323017
-0.0212489
-0.00779666
0.00861628
0.0286686
0.0531238
0.0827375
0.118061
0.159098
0.204339
0.247095
0.277225
-0.0564381
-0.0514947
-0.0450631
-0.0379316
-0.0309112
-0.0244417
-0.0188298
-0.0142811
-0.010914
-0.00877409
-0.007849
-0.00808179
-0.00938228
-0.0116364
-0.0147135
-0.0184722
-0.0227655
-0.0274445
-0.032362
-0.0373759
-0.0423515
-0.0471639
-0.0516995
-0.0558569
-0.0595477
-0.0626958
-0.0652369
-0.0671168
-0.0682898
-0.0687157
-0.0683563
-0.0671716
-0.0651144
-0.0621238
-0.058117
-0.0529793
-0.0465515
-0.0386141
-0.0288682
-0.0169129
-0.00221955
0.0158961
0.0383002
0.0660581
0.100435
0.142844
0.194753
0.257363
0.32851
0.389839
-0.0827765
-0.0637232
-0.0495754
-0.03838
-0.0292994
-0.0218442
-0.0158114
-0.0111328
-0.00778029
-0.00572117
-0.00490184
-0.00524428
-0.00664851
-0.00899672
-0.0121579
-0.0159919
-0.0203539
-0.0250973
-0.0300774
-0.035154
-0.0401945
-0.045075
-0.0496827
-0.0539165
-0.0576874
-0.0609184
-0.0635437
-0.0655069
-0.0667594
-0.0672573
-0.066958
-0.0658158
-0.0637762
-0.0607693
-0.0567009
-0.0514417
-0.044814
-0.0365742
-0.0263926
-0.0138266
0.00171138
0.0209949
0.0450401
0.0751852
0.113233
0.161683
0.224279
0.306865
0.419574
0.551524
-0.153387
-0.0775763
-0.0474063
-0.0328835
-0.0235765
-0.0166159
-0.0111782
-0.00703439
-0.0041236
-0.00241762
-0.001877
-0.00243915
-0.00401792
-0.00650714
-0.00978515
-0.0137194
-0.0181708
-0.0229973
-0.0280578
-0.0332147
-0.038337
-0.0433022
-0.0479978
-0.0523228
-0.0561878
-0.0595148
-0.0622368
-0.064296
-0.0656419
-0.0662284
-0.0660105
-0.0649396
-0.0629579
-0.0599914
-0.055941
-0.0506715
-0.0439981
-0.0356685
-0.0253419
-0.012561
0.0032833
0.0230017
0.0476821
0.0788222
0.118604
0.170497
0.240912
0.34329
0.514199
0.827021
