# vtk DataFile Version 2.0
u_velocity
ASCII
DATASET RECTILINEAR_GRID
DIMENSIONS 52 51 1
X_COORDINATES 52 double
0 0.01 0.03 0.05 0.07 0.09 0.11 0.13 0.15 0.17 0.19 0.21 0.23 0.25 0.27 0.29 0.31 0.33 0.35 0.37 0.39 0.41 0.43 0.45 0.47 0.49 0.51 0.53 0.55 0.57 0.59 0.61 0.63 0.65 0.67 0.69 0.71 0.73 0.75 0.77 0.79 0.81 0.83 0.85 0.87 0.89 0.91 0.93 0.95 0.97 0.99 1 
Y_COORDINATES 51 double
0 0.02 0.04 0.06 0.08 0.1 0.12 0.14 0.16 0.18 0.2 0.22 0.24 0.26 0.28 0.3 0.32 0.34 0.36 0.38 0.4 0.42 0.44 0.46 0.48 0.5 0.52 0.54 0.56 0.58 0.6 0.62 0.64 0.66 0.68 0.7 0.72 0.74 0.76 0.78 0.8 0.82 0.84 0.86 0.88 0.9 0.92 0.94 0.96 0.98 1 
Z_COORDINATES 1 double
0.0

CELL_DATA 2550
SCALARS u_velocity double 1
LOOKUP_TABLE default
0
0.000125259
0.000305568
0.000424562
0.000431133
0.000312734
7.43688e-05
-0.000273648
-0.000721683
-0.00126293
-0.00189336
-0.0026106
-0.00341244
-0.00429522
-0.00525254
-0.00627419
-0.00734531
-0.00844596
-0.00955097
-0.0106302
-0.011649
-0.0125693
-0.0133514
-0.0139554
-0.0143435
-0.0144831
-0.0143488
-0.0139252
-0.0132093
-0.0122119
-0.0109583
-0.00948855
-0.00785556
-0.00612277
-0.00436042
-0.0026411
-0.00103489
0.000395435
0.00159851
0.00253746
0.00319155
0.0035564
0.00364284
0.00347518
0.00308946
0.00253287
0.00186565
0.00116613
0.00053816
0.00011218
0
0
0.00018254
0.000376292
0.000385094
0.000117579
-0.000455514
-0.00133114
-0.00249353
-0.00392507
-0.00561078
-0.00753867
-0.00969762
-0.0120744
-0.0146504
-0.0173989
-0.020283
-0.023254
-0.0262515
-0.0292032
-0.0320267
-0.0346318
-0.0369237
-0.0388074
-0.0401918
-0.0409958
-0.0411528
-0.0406165
-0.0393647
-0.0374037
-0.0347697
-0.0315303
-0.0277822
-0.0236487
-0.0192742
-0.0148166
-0.0104395
-0.00630228
-0.00255079
0.000691192
0.00332913
0.00530253
0.0065872
0.00719511
0.00717256
0.00659779
0.00557971
0.00425895
0.00281148
0.00145195
0.00042855
0
0
0.000109526
8.3403e-05
-0.000273643
-0.00105194
-0.00228016
-0.00395432
-0.00605673
-0.00856654
-0.0114638
-0.014729
-0.0183403
-0.0222697
-0.0264789
-0.030916
-0.0355138
-0.0401881
-0.0448389
-0.0493517
-0.0536008
-0.0574535
-0.0607754
-0.0634367
-0.0653183
-0.0663184
-0.0663587
-0.0653896
-0.0633952
-0.0603961
-0.0564512
-0.0516576
-0.0461488
-0.0400903
-0.0336742
-0.0271105
-0.0206176
-0.0144116
-0.00869453
-0.0036434
0.000599738
0.00393552
0.00631234
0.00772855
0.00823217
0.00791912
0.00693118
0.00545481
0.00372118
0.00200683
0.000635847
0
0
-4.45811e-05
-0.000450932
-0.00136348
-0.00284119
-0.00489484
-0.00751161
-0.0106698
-0.0143457
-0.0185153
-0.0231517
-0.0282211
-0.0336784
-0.0394629
-0.0454956
-0.0516778
-0.0578913
-0.0640005
-0.0698557
-0.0752981
-0.0801661
-0.0843011
-0.087555
-0.0897969
-0.090919
-0.0908424
-0.0895216
-0.0869485
-0.0831541
-0.0782105
-0.0722303
-0.065365
-0.0578017
-0.0497574
-0.0414721
-0.0331985
-0.0251918
-0.0176964
-0.0109335
-0.00508875
-0.000301508
0.00334302
0.00581891
0.00716135
0.0074659
0.00688613
0.00563083
0.0039621
0.00219638
0.000714723
0
0
-0.000249905
-0.00114951
-0.0027586
-0.00508124
-0.00809547
-0.0117713
-0.0160792
-0.0209912
-0.0264785
-0.0325063
-0.0390278
-0.0459796
-0.053278
-0.060817
-0.0684684
-0.0760842
-0.0834999
-0.0905399
-0.0970238
-0.102773
-0.107619
-0.111405
-0.114
-0.115296
-0.115215
-0.113716
-0.110791
-0.106472
-0.100832
-0.0939845
-0.0860827
-0.0773193
-0.067922
-0.0581473
-0.0482722
-0.0385831
-0.0293623
-0.020874
-0.0133487
-0.00697027
-0.00186403
0.00191101
0.00436644
0.00558498
0.0057183
0.00498339
0.00365973
0.00209056
0.000694772
0
0
-0.000489964
-0.00196297
-0.00437069
-0.00764443
-0.0117178
-0.0165367
-0.0220598
-0.0282529
-0.0350814
-0.0425014
-0.0504527
-0.0588534
-0.0675979
-0.0765555
-0.0855733
-0.09448
-0.103091
-0.111214
-0.118659
-0.125242
-0.130789
-0.135148
-0.138187
-0.139798
-0.139904
-0.138457
-0.135443
-0.130882
-0.124835
-0.117402
-0.108725
-0.0989912
-0.0884272
-0.0772984
-0.0659002
-0.054548
-0.0435629
-0.0332552
-0.0239065
-0.0157524
-0.00896689
-0.00365128
0.00017314
0.00256701
0.00367112
0.00370217
0.00294878
0.00177108
0.000608541
0
0
-0.000754603
-0.00285633
-0.00613162
-0.0104262
-0.015621
-0.0216325
-0.0284046
-0.0358954
-0.0440628
-0.0528532
-0.062193
-0.071983
-0.0820979
-0.0923871
-0.102679
-0.112787
-0.122516
-0.131667
-0.140049
-0.147477
-0.153783
-0.158815
-0.162444
-0.164558
-0.165074
-0.16393
-0.161095
-0.156569
-0.150388
-0.142628
-0.13341
-0.122902
-0.111321
-0.0989341
-0.0860499
-0.0730111
-0.0601792
-0.0479163
-0.0365633
-0.0264184
-0.0177158
-0.0106103
-0.00516658
-0.00135475
0.000947861
0.00195176
0.00194915
0.00130995
0.000482643
0
0
-0.00103581
-0.00380029
-0.00798222
-0.0133333
-0.0196762
-0.0268954
-0.0349181
-0.0436927
-0.0531693
-0.0632843
-0.0739509
-0.0850552
-0.0964558
-0.107988
-0.119468
-0.130703
-0.141494
-0.151645
-0.160966
-0.169281
-0.176425
-0.182249
-0.18662
-0.189424
-0.190562
-0.189955
-0.187551
-0.183319
-0.177265
-0.169432
-0.159907
-0.14883
-0.136399
-0.122869
-0.108555
-0.0938205
-0.079068
-0.0647152
-0.0511718
-0.0388109
-0.0279425
-0.0187901
-0.0114752
-0.0060099
-0.0022978
-0.000140116
0.000754854
0.000762827
0.000336644
0
0
-0.00132564
-0.00476659
-0.00986586
-0.0162764
-0.0237605
-0.032169
-0.0414114
-0.0514261
-0.0621546
-0.0735233
-0.0854342
-0.0977608
-0.110351
-0.12303
-0.135612
-0.147901
-0.159702
-0.170824
-0.181087
-0.190318
-0.19836
-0.205064
-0.210295
-0.213929
-0.215856
-0.215979
-0.214219
-0.210518
-0.204844
-0.1972
-0.187632
-0.176241
-0.163186
-0.1487
-0.133086
-0.11672
-0.100035
-0.0835059
-0.0676175
-0.0528323
-0.0395537
-0.0280943
-0.0186518
-0.0112963
-0.00596877
-0.00248955
-0.000571076
0.000166966
0.000183324
0
0
-0.0016154
-0.00572591
-0.0117255
-0.0191674
-0.0277535
-0.0373009
-0.0477017
-0.0588836
-0.0707793
-0.0833062
-0.0963565
-0.109795
-0.123462
-0.13718
-0.150762
-0.164017
-0.176756
-0.188796
-0.199965
-0.210098
-0.219041
-0.226647
-0.23278
-0.237314
-0.240126
-0.241108
-0.24016
-0.237194
-0.232146
-0.224973
-0.215672
-0.20429
-0.190934
-0.175789
-0.159128
-0.141314
-0.122799
-0.104105
-0.0857917
-0.0684235
-0.0525174
-0.0384998
-0.0266708
-0.0171813
-0.0100274
-0.00505923
-0.00199817
-0.000458884
2.91205e-05
0
0
-0.00189553
-0.00664746
-0.0135031
-0.0219186
-0.0315372
-0.0421437
-0.0536126
-0.065861
-0.078813
-0.0923779
-0.10644
-0.120857
-0.135467
-0.150092
-0.164548
-0.17865
-0.192216
-0.205071
-0.217051
-0.227996
-0.23776
-0.246202
-0.25319
-0.258599
-0.262309
-0.264205
-0.264175
-0.262113
-0.25792
-0.251511
-0.242829
-0.231852
-0.218619
-0.203243
-0.185937
-0.167022
-0.14694
-0.126237
-0.105544
-0.0855264
-0.0668346
-0.0500373
-0.0355697
-0.0236957
-0.0144924
-0.00785665
-0.00352713
-0.00111333
-0.000125234
0
0
-0.00215576
-0.00749953
-0.0151405
-0.0244439
-0.0349977
-0.0465561
-0.0589763
-0.0721648
-0.0860373
-0.100495
-0.115417
-0.130657
-0.14605
-0.161421
-0.176588
-0.191373
-0.205601
-0.219103
-0.231722
-0.243308
-0.253723
-0.262839
-0.270538
-0.276707
-0.281238
-0.284022
-0.284949
-0.283902
-0.280758
-0.275396
-0.267699
-0.257575
-0.244974
-0.229917
-0.212522
-0.193033
-0.171838
-0.149475
-0.126617
-0.104026
-0.0824925
-0.0627557
-0.0454245
-0.0309168
-0.0194276
-0.0109271
-0.00518538
-0.00180976
-0.000283788
0
0
-0.00238563
-0.00825063
-0.0165812
-0.0266609
-0.0380276
-0.0504063
-0.0636373
-0.077616
-0.0922497
-0.107433
-0.123039
-0.138918
-0.154905
-0.170825
-0.186501
-0.201758
-0.216424
-0.23034
-0.243354
-0.25533
-0.266146
-0.275692
-0.283874
-0.290602
-0.295794
-0.29936
-0.301205
-0.301213
-0.299252
-0.295169
-0.2888
-0.279979
-0.268561
-0.254455
-0.237654
-0.218282
-0.196628
-0.17317
-0.148577
-0.123679
-0.0994024
-0.0766727
-0.0563118
-0.0389419
-0.0249243
-0.0143417
-0.00701965
-0.00257248
-0.000454102
0
0
-0.00257502
-0.00887086
-0.0177724
-0.028494
-0.040529
-0.0535751
-0.0674556
-0.0820542
-0.0972694
-0.112989
-0.12908
-0.14539
-0.161753
-0.177995
-0.193938
-0.209409
-0.224243
-0.238285
-0.251396
-0.263456
-0.274363
-0.284038
-0.292415
-0.299442
-0.305069
-0.30924
-0.311884
-0.312904
-0.312171
-0.309518
-0.304743
-0.297618
-0.287907
-0.275396
-0.259937
-0.241495
-0.220206
-0.196428
-0.170764
-0.144057
-0.117336
-0.0917169
-0.068263
-0.0478535
-0.0310768
-0.0181815
-0.00908641
-0.00343183
-0.000645753
0
0
-0.00271473
-0.00933344
-0.0186673
-0.0298765
-0.0424168
-0.0559599
-0.0703115
-0.0853428
-0.100943
-0.116991
-0.13335
-0.149863
-0.166362
-0.182669
-0.19861
-0.21401
-0.22871
-0.242563
-0.255445
-0.267256
-0.277925
-0.287403
-0.295665
-0.302698
-0.308496
-0.313043
-0.316302
-0.318208
-0.318649
-0.317462
-0.314428
-0.309276
-0.301693
-0.291353
-0.277956
-0.261289
-0.241292
-0.218135
-0.192279
-0.164503
-0.135878
-0.107677
-0.0812183
-0.0576836
-0.0379565
-0.0225204
-0.0114415
-0.00441912
-0.0008688
0
0
-0.00279711
-0.00961609
-0.0192271
-0.030754
-0.0436217
-0.0574777
-0.0721094
-0.0873738
-0.103149
-0.119307
-0.135704
-0.152178
-0.168558
-0.184665
-0.20032
-0.215355
-0.229614
-0.242964
-0.255298
-0.266542
-0.276657
-0.285631
-0.293482
-0.300239
-0.305939
-0.31061
-0.31426
-0.316857
-0.318324
-0.318519
-0.317228
-0.314163
-0.308963
-0.301211
-0.290474
-0.276353
-0.258569
-0.237052
-0.212038
-0.184149
-0.154405
-0.124169
-0.0949899
-0.0683812
-0.0455875
-0.0274086
-0.0141306
-0.00556203
-0.00113246
0
0
-0.0028165
-0.00970227
-0.0194231
-0.0310858
-0.0440928
-0.0580687
-0.0727813
-0.0880719
-0.103807
-0.11985
-0.13605
-0.152241
-0.168247
-0.183888
-0.198986
-0.213375
-0.22691
-0.239473
-0.250979
-0.261385
-0.270683
-0.278901
-0.286094
-0.292334
-0.2977
-0.302261
-0.306065
-0.309124
-0.311399
-0.312785
-0.313096
-0.312055
-0.309286
-0.304322
-0.296628
-0.285645
-0.270872
-0.251969
-0.228885
-0.201982
-0.172115
-0.140631
-0.109244
-0.0797903
-0.053928
-0.0328599
-0.0171818
-0.00688111
-0.00144419
0
0
-0.0027697
-0.00958219
-0.0192378
-0.0308476
-0.0437997
-0.0576979
-0.0722891
-0.0873978
-0.102878
-0.118583
-0.134356
-0.150028
-0.165418
-0.180347
-0.194641
-0.208141
-0.220715
-0.232265
-0.242731
-0.2521
-0.260397
-0.267684
-0.274052
-0.279608
-0.284463
-0.288723
-0.292472
-0.295761
-0.298593
-0.300908
-0.302564
-0.303323
-0.30283
-0.300613
-0.296082
-0.288564
-0.277367
-0.261884
-0.241739
-0.216952
-0.188093
-0.156356
-0.123503
-0.0916416
-0.0628597
-0.038843
-0.0206003
-0.00838763
-0.00180915
0
0
-0.00265617
-0.00925335
-0.018666
-0.0300315
-0.0427334
-0.0563566
-0.0706266
-0.0853496
-0.100366
-0.115521
-0.130652
-0.145586
-0.160145
-0.174151
-0.187437
-0.199857
-0.211296
-0.221678
-0.230973
-0.239192
-0.246393
-0.252668
-0.258133
-0.26292
-0.267167
-0.271003
-0.27454
-0.277859
-0.281004
-0.28396
-0.286639
-0.288859
-0.290321
-0.290589
-0.289074
-0.28505
-0.277691
-0.26616
-0.249759
-0.22812
-0.20142
-0.170554
-0.13718
-0.10356
-0.0721849
-0.0452779
-0.024366
-0.0100826
-0.00223007
0
0
-0.00247812
-0.00872085
-0.0177152
-0.0286474
-0.0409068
-0.0540625
-0.0678187
-0.0819623
-0.0963199
-0.110729
-0.125024
-0.139032
-0.152579
-0.165493
-0.177619
-0.18883
-0.19903
-0.208168
-0.216239
-0.223284
-0.229383
-0.23465
-0.23922
-0.24324
-0.246861
-0.250224
-0.253457
-0.256663
-0.259916
-0.263241
-0.266608
-0.269899
-0.272892
-0.275222
-0.276354
-0.275574
-0.271995
-0.26462
-0.252471
-0.234788
-0.211292
-0.182445
-0.149625
-0.115088
-0.0816346
-0.0520363
-0.028433
-0.0119562
-0.00270719
0
0
-0.00224046
-0.00799721
-0.0164052
-0.0267219
-0.0383538
-0.050859
-0.0639204
-0.0773057
-0.0908284
-0.10432
-0.117613
-0.130539
-0.142932
-0.154633
-0.165504
-0.175436
-0.184359
-0.192246
-0.199117
-0.205035
-0.210099
-0.214436
-0.21819
-0.221513
-0.224557
-0.227465
-0.230369
-0.233383
-0.236598
-0.240074
-0.243827
-0.247808
-0.251878
-0.255766
-0.259034
-0.261035
-0.260899
-0.257555
-0.249824
-0.2366
-0.217131
-0.191354
-0.160203
-0.125727
-0.0908843
-0.0589467
-0.0327303
-0.0139882
-0.00323833
0
0
-0.00195053
-0.0071018
-0.0147674
-0.0242975
-0.0351284
-0.0468126
-0.0590136
-0.0714804
-0.084014
-0.0964411
-0.108598
-0.120323
-0.131463
-0.141876
-0.151445
-0.160085
-0.167749
-0.174435
-0.180185
-0.185077
-0.189224
-0.192757
-0.19582
-0.198562
-0.201125
-0.203647
-0.206252
-0.209054
-0.212152
-0.215627
-0.219532
-0.223878
-0.228606
-0.233549
-0.238385
-0.242583
-0.245356
-0.245649
-0.242177
-0.233575
-0.218658
-0.196801
-0.168361
-0.134985
-0.0995808
-0.0658047
-0.0371655
-0.0161487
-0.00381888
0
0
-0.00161771
-0.00606008
-0.0128437
-0.0214311
-0.0313022
-0.0420105
-0.0532036
-0.0646124
-0.0760271
-0.0872718
-0.098188
-0.108627
-0.118453
-0.127544
-0.135807
-0.143182
-0.149647
-0.15522
-0.159961
-0.163961
-0.167334
-0.170212
-0.172732
-0.175029
-0.177233
-0.179466
-0.181839
-0.184457
-0.187418
-0.190811
-0.194714
-0.199184
-0.20423
-0.209786
-0.215651
-0.221435
-0.226487
-0.229841
-0.230211
-0.226078
-0.215912
-0.19855
-0.173701
-0.142432
-0.107374
-0.0723885
-0.0416294
-0.018399
-0.00444197
0
0
-0.00125293
-0.00490241
-0.0106845
-0.0181921
-0.0269618
-0.0365573
-0.0466142
-0.0568477
-0.0670381
-0.0770094
-0.0866113
-0.0957112
-0.104192
-0.111959
-0.118943
-0.125108
-0.130456
-0.135025
-0.138884
-0.14213
-0.144878
-0.14725
-0.149371
-0.15136
-0.153329
-0.155379
-0.157606
-0.160099
-0.162946
-0.166237
-0.170062
-0.174507
-0.179635
-0.185462
-0.191904
-0.198718
-0.205412
-0.211172
-0.214798
-0.214734
-0.209217
-0.196625
-0.176014
-0.147744
-0.113952
-0.0784774
-0.0460046
-0.0206945
-0.00509875
0
0
-0.000868142
-0.00366277
-0.00834763
-0.0146596
-0.0222063
-0.0305713
-0.039384
-0.0483465
-0.057231
-0.0658625
-0.0741016
-0.0818336
-0.0889653
-0.0954267
-0.101175
-0.1062
-0.110522
-0.114194
-0.117292
-0.119915
-0.12217
-0.124168
-0.126018
-0.127818
-0.129661
-0.131629
-0.133796
-0.136235
-0.13902
-0.142235
-0.145971
-0.150327
-0.155403
-0.161277
-0.167964
-0.175353
-0.183124
-0.190645
-0.196873
-0.200316
-0.199108
-0.191282
-0.175291
-0.150736
-0.119073
-0.0838726
-0.0501754
-0.0229878
-0.00577904
0
0
-0.000475742
-0.00237745
-0.00589548
-0.0109205
-0.0171443
-0.0241813
-0.0316617
-0.0392781
-0.0467962
-0.0540432
-0.0608915
-0.0672463
-0.0730388
-0.0782257
-0.0827902
-0.0867436
-0.0901245
-0.0929954
-0.0954375
-0.097544
-0.0994125
-0.101139
-0.102815
-0.104518
-0.106322
-0.108287
-0.11047
-0.112926
-0.115715
-0.118907
-0.122588
-0.12686
-0.131841
-0.137649
-0.144371
-0.152013
-0.160413
-0.169129
-0.177318
-0.183639
-0.186239
-0.182943
-0.171704
-0.151368
-0.122584
-0.0884156
-0.0540378
-0.0252334
-0.00647228
0
0
-8.80061e-05
-0.00108361
-0.00339356
-0.00706703
-0.0118912
-0.0175234
-0.0236027
-0.0298168
-0.0359264
-0.0417615
-0.0472068
-0.0521874
-0.0566594
-0.0606055
-0.0640337
-0.0669756
-0.0694841
-0.0716289
-0.0734912
-0.0751572
-0.0767123
-0.0782366
-0.0798016
-0.0814687
-0.0832898
-0.0853091
-0.0875661
-0.0901005
-0.0929575
-0.0961936
-0.0998829
-0.104122
-0.109033
-0.114753
-0.121419
-0.129123
-0.137835
-0.147298
-0.156888
-0.165465
-0.171297
-0.172133
-0.165558
-0.149732
-0.124429
-0.0920009
-0.0575102
-0.0273923
-0.00716871
0
0
0.000283393
0.000182
-0.000908312
-0.00319395
-0.00656671
-0.0107383
-0.0153663
-0.0201385
-0.0248128
-0.0292221
-0.0332627
-0.0368789
-0.0400508
-0.0427862
-0.0451158
-0.0470896
-0.0487723
-0.0502383
-0.0515663
-0.0528339
-0.0541135
-0.0554687
-0.0569534
-0.0586117
-0.0604788
-0.0625837
-0.064952
-0.0676104
-0.070591
-0.0739373
-0.0777106
-0.081996
-0.0869076
-0.0925883
-0.0991987
-0.106887
-0.115729
-0.125626
-0.136166
-0.146445
-0.154925
-0.159403
-0.157243
-0.146023
-0.124642
-0.0945813
-0.06054
-0.0294362
-0.00786066
0
0
0.000627791
0.00138422
0.00149466
0.000603013
-0.00129277
-0.00396969
-0.00711354
-0.0104189
-0.0136433
-0.0166224
-0.0192629
-0.0215266
-0.0234158
-0.0249616
-0.0262159
-0.0272448
-0.0281232
-0.0289285
-0.0297358
-0.0306138
-0.0316219
-0.0328084
-0.0342115
-0.0358598
-0.0377746
-0.0399726
-0.0424686
-0.045279
-0.0484258
-0.0519412
-0.0558734
-0.0602936
-0.0653025
-0.0710348
-0.0776562
-0.0853451
-0.094248
-0.104394
-0.115561
-0.127086
-0.137677
-0.145279
-0.147175
-0.140501
-0.123329
-0.0961651
-0.0631067
-0.0313514
-0.00854391
0
0
0.00093584
0.00249043
0.00375216
0.00422935
0.0038084
0.00263798
0.000993774
-0.000832725
-0.002602
-0.00415277
-0.00540033
-0.00632188
-0.00693949
-0.00730545
-0.00749089
-0.00757684
-0.00764692
-0.00778116
-0.00805129
-0.00851767
-0.00922791
-0.0102172
-0.0115099
-0.0131218
-0.0150631
-0.017341
-0.0199621
-0.0229357
-0.026276
-0.0300065
-0.034164
-0.0388056
-0.0440155
-0.0499123
-0.0566522
-0.0644211
-0.0734057
-0.0837267
-0.0953187
-0.107749
-0.119991
-0.130216
-0.135756
-0.133451
-0.120642
-0.0968048
-0.0652214
-0.0331409
-0.00921878
0
0
0.00119968
0.00347124
0.00580471
0.00759327
0.00861573
0.00894011
0.00879394
0.00844672
0.00813053
0.00800279
0.00814105
0.00855537
0.00920648
0.0100232
0.0109169
0.0117928
0.0125585
0.0131313
0.0134416
0.0134358
0.0130756
0.0123367
0.0112058
0.00967718
0.00774947
0.00542254
0.00269521
-0.000436782
-0.00398282
-0.00795982
-0.0123957
-0.0173347
-0.0228439
-0.029022
-0.036006
-0.0439722
-0.0531205
-0.0636279
-0.0755499
-0.0886537
-0.10218
-0.114578
-0.123336
-0.125152
-0.116752
-0.096582
-0.0669211
-0.0348244
-0.00989111
0
0
0.00141299
0.0043009
0.00759737
0.0106069
0.0130104
0.0147929
0.0161253
0.0172467
0.0183759
0.0196645
0.0211838
0.0229333
0.0248593
0.026874
0.0288728
0.0307475
0.0323972
0.0337348
0.0346913
0.0352169
0.0352801
0.0348646
0.0339652
0.0325837
0.0307251
0.0283941
0.0255934
0.0223214
0.0185719
0.014332
0.00958051
0.00428394
-0.00160921
-0.00817648
-0.0155305
-0.0238259
-0.0332549
-0.0440197
-0.0562584
-0.0699014
-0.0844405
-0.0986276
-0.110197
-0.115843
-0.111824
-0.0955886
-0.0682597
-0.0364375
-0.0105728
0
0
0.00157085
0.00495723
0.00908005
0.0131868
0.0168767
0.0200536
0.0228262
0.0253941
0.0279564
0.030655
0.0335543
0.0366451
0.0398612
0.0431006
0.0462437
0.0491697
0.0517679
0.0539454
0.0556311
0.0567763
0.0573529
0.0573492
0.0567652
0.0556079
0.0538862
0.0516081
0.0487784
0.0453972
0.0414597
0.0369554
0.0318678
0.0261716
0.0198291
0.0127828
0.00494609
-0.00380662
-0.0136451
-0.0247711
-0.0373698
-0.0514951
-0.0668603
-0.0825251
-0.0965341
-0.105707
-0.10599
-0.0939068
-0.0692969
-0.0380285
-0.0112825
0
0
0.00166947
0.00542107
0.010207
0.0152539
0.0201015
0.0245806
0.0287341
0.0327148
0.0366935
0.0407969
0.0450803
0.0495257
0.0540563
0.0585569
0.0628947
0.066936
0.0705594
0.0736642
0.0761746
0.0780397
0.0792313
0.0797391
0.0795655
0.0787196
0.0772126
0.0750543
0.0722505
0.0688018
0.0647042
0.0599484
0.0545209
0.048403
0.0415682
0.0339769
0.0255684
0.0162486
0.00587992
-0.00572029
-0.0187536
-0.0333583
-0.0494327
-0.0663316
-0.0824518
-0.0948556
-0.099334
-0.0915897
-0.0700843
-0.0396543
-0.0120454
0
0
0.00170561
0.00567492
0.0109351
0.0167318
0.0225739
0.0282323
0.0336855
0.0390324
0.0444064
0.0499116
0.0555891
0.0614105
0.0672883
0.0730957
0.0786867
0.0839151
0.0886481
0.0927752
0.096213
0.0989055
0.100821
0.101947
0.102286
0.101847
0.10064
0.0986769
0.095963
0.0924993
0.0882816
0.0833017
0.0775483
0.0710076
0.0636624
0.0554891
0.0464503
0.0364839
0.0254887
0.0133135
-0.00023633
-0.0153482
-0.0320654
-0.050013
-0.0679617
-0.0833135
-0.0918686
-0.0886418
-0.0706507
-0.0413748
-0.0128947
0
0
0.00167566
0.00570054
0.0112205
0.0175437
0.0241818
0.0308658
0.0375142
0.0441672
0.0509113
0.0578178
0.0649064
0.0721337
0.0794003
0.0865672
0.0934762
0.0999684
0.105899
0.111146
0.115616
0.119245
0.121996
0.123851
0.124809
0.124875
0.124061
0.122376
0.119824
0.116408
0.112123
0.106962
0.100915
0.0939734
0.0861279
0.0773686
0.0676792
0.0570271
0.0453477
0.0325274
0.0183943
0.00274019
-0.0145842
-0.0334406
-0.0529765
-0.0710133
-0.083524
-0.0849997
-0.0709847
-0.0432468
-0.0138728
0
0
0.00157415
0.00547484
0.0110125
0.0176056
0.0248075
0.032333
0.04005
0.0479366
0.0560218
0.0643324
0.0728566
0.0815292
0.0902347
0.0988208
0.107117
0.114951
0.122166
0.128628
0.134234
0.138908
0.142603
0.145296
0.146978
0.147653
0.147326
0.146007
0.1437
0.140404
0.136118
0.130835
0.124549
0.117255
0.108952
0.0996419
0.089327
0.0780006
0.0656316
0.0521438
0.0373958
0.0211793
0.00327261
-0.0163839
-0.0373016
-0.0577807
-0.0741288
-0.0805111
-0.0710157
-0.0453156
-0.0150356
0
0
0.0013912
0.00496306
0.0102441
0.0168163
0.0243179
0.0324751
0.0411159
0.0501535
0.0595494
0.069272
0.079265
0.089432
0.0996353
0.109706
0.119461
0.128715
0.137299
0.145067
0.151903
0.157721
0.162464
0.166098
0.168608
0.169991
0.170251
0.169391
0.167415
0.164326
0.160121
0.154797
0.148351
0.140786
0.132108
0.12233
0.11147
0.099543
0.0865445
0.072431
0.0570912
0.040327
0.0218714
0.00150549
-0.0206186
-0.0433175
-0.0633895
-0.0749091
-0.0705882
-0.0476044
-0.016459
0
0
0.00110806
0.00410747
0.00881556
0.0150408
0.0225521
0.0311137
0.0405237
0.0506275
0.0613069
0.0724568
0.083962
0.0956827
0.107451
0.119079
0.130365
0.141114
0.151145
0.1603
0.168451
0.175502
0.181384
0.186054
0.189488
0.191677
0.192618
0.192314
0.190769
0.187985
0.183963
0.178705
0.172216
0.164503
0.155584
0.145481
0.134226
0.121846
0.108358
0.0937406
0.0779038
0.0606608
0.0417155
0.0207253
-0.00245608
-0.0271749
-0.0508631
-0.06778
-0.0694295
-0.0500978
-0.0182508
0
0
0.000689302
0.00280895
0.00657029
0.012086
0.0193008
0.028038
0.0380692
0.0491644
0.061112
0.073717
0.0867895
0.100134
0.113543
0.126801
0.139692
0.152007
0.163553
0.174165
0.183703
0.192061
0.19916
0.204948
0.209393
0.212478
0.214199
0.214554
0.21355
0.211191
0.207485
0.202441
0.196071
0.188394
0.179435
0.169227
0.157808
0.145216
0.131473
0.116566
0.100414
0.0828301
0.0634952
0.0419704
0.0178556
-0.00871137
-0.035916
-0.0585174
-0.0671
-0.0527123
-0.0205662
0
0
6.88915e-05
0.000897124
0.00325861
0.00766765
0.0142829
0.0229909
0.0335267
0.0455688
0.0587947
0.0729022
0.0876115
0.102658
0.117788
0.132754
0.14732
0.161263
0.174384
0.186508
0.19749
0.207214
0.215594
0.222571
0.228107
0.23218
0.234784
0.235918
0.235592
0.233816
0.230606
0.225981
0.219965
0.212586
0.203878
0.19388
0.182633
0.170172
0.156513
0.141633
0.125441
0.107734
0.0881614
0.0662035
0.0412521
0.0129694
-0.0176656
-0.0462566
-0.0629172
-0.0552419
-0.02362
0
0
-0.000874204
-0.00191552
-0.00151159
0.001371
0.00711959
0.0156576
0.0266491
0.0396516
0.0542091
0.0698956
0.0863285
0.103166
0.120099
0.136846
0.15315
0.168778
0.183522
0.197204
0.209674
0.220815
0.230536
0.238775
0.24549
0.250661
0.254281
0.256355
0.256898
0.25593
0.253476
0.249568
0.244239
0.237526
0.22947
0.220109
0.209479
0.197599
0.184467
0.170031
0.154166
0.136631
0.117025
0.094751
0.0690292
0.0391089
0.00510613
-0.0297763
-0.0558338
-0.0572501
-0.0276797
0
0
-0.00235749
-0.00609845
-0.00833005
-0.00737995
-0.00267121
0.00567727
0.0171902
0.0312588
0.0472665
0.0646494
0.0829152
0.101641
0.120462
0.139064
0.157168
0.174533
0.19095
0.206241
0.220258
0.232885
0.244034
0.253645
0.26168
0.268121
0.272968
0.276233
0.277939
0.278115
0.276798
0.274028
0.269845
0.26429
0.257404
0.249215
0.239745
0.228987
0.216904
0.203398
0.18829
0.171276
0.151884
0.129424
0.102966
0.0714191
0.0340765
-0.00735653
-0.0442417
-0.0578648
-0.0329966
0
0
-0.00476134
-0.0123758
-0.0180074
-0.0192862
-0.015594
-0.00724794
0.0050307
0.0204077
0.0380811
0.0573425
0.0775927
0.0983336
0.119153
0.139706
0.159703
0.1789
0.19709
0.214102
0.229797
0.244068
0.256835
0.268043
0.277663
0.285685
0.292113
0.296969
0.300282
0.302088
0.30243
0.301349
0.298887
0.295082
0.289963
0.283543
0.275816
0.266744
0.256241
0.244154
0.230234
0.214095
0.19517
0.172657
0.145472
0.112245
0.0715547
0.0234253
-0.0256633
-0.0553944
-0.039597
0
0
-0.00872374
-0.021746
-0.0314305
-0.0348744
-0.0317608
-0.0228543
-0.00925824
0.0079105
0.0276518
0.0491224
0.0716336
0.0946312
0.11767
0.140392
0.162503
0.183766
0.203983
0.222997
0.240681
0.256939
0.271702
0.284926
0.296587
0.30668
0.315215
0.322216
0.327712
0.33174
0.33434
0.335549
0.3354
0.33392
0.33112
0.326991
0.321498
0.314563
0.306053
0.295755
0.283345
0.26835
0.250093
0.22764
0.199737
0.16476
0.120719
0.0659821
0.00372066
-0.0466306
-0.0467797
0
0
-0.0152354
-0.035217
-0.0487992
-0.0532896
-0.0493167
-0.0384348
-0.0222703
-0.00225714
0.0204225
0.0448258
0.0702139
0.0960111
0.121768
0.147133
0.171825
0.19562
0.21834
0.239843
0.260015
0.278773
0.296056
0.311826
0.326061
0.338758
0.349925
0.359579
0.367748
0.374459
0.379744
0.38363
0.38614
0.387283
0.387056
0.385427
0.382335
0.37767
0.371257
0.362831
0.352005
0.338225
0.320713
0.298399
0.269848
0.233176
0.185943
0.125131
0.0497787
-0.0255915
-0.0520043
0
0
-0.0255293
-0.0523859
-0.0667464
-0.0681594
-0.0592915
-0.0429182
-0.0212958
0.00386247
0.0312842
0.0600287
0.0893986
0.118872
0.148055
0.176644
0.204403
0.231144
0.256719
0.28101
0.303924
0.325389
0.345355
0.363786
0.380663
0.395981
0.409744
0.421966
0.432665
0.441867
0.449594
0.455867
0.460701
0.464099
0.466046
0.4665
0.465385
0.462572
0.457861
0.450957
0.44143
0.428675
0.411843
0.389764
0.360851
0.322967
0.27327
0.207773
0.121496
0.0187804
-0.0483495
0
0
-0.0393311
-0.0650547
-0.0679456
-0.0545681
-0.0312515
-0.00220175
0.0299994
0.0637816
0.0981723
0.13255
0.166501
0.19974
0.232059
0.263302
0.293345
0.322087
0.349446
0.375353
0.399752
0.422602
0.443869
0.463535
0.48159
0.498035
0.512881
0.526145
0.537851
0.548025
0.556695
0.563886
0.569616
0.573892
0.5767
0.578002
0.577721
0.575727
0.571818
0.565692
0.556918
0.544883
0.528732
0.50728
0.478893
0.441299
0.391336
0.324343
0.232816
0.106962
-0.0179912
0
0
-0.0393766
-0.0253515
0.0168319
0.0672476
0.117842
0.165932
0.210893
0.252817
0.292006
0.328776
0.363396
0.396073
0.426959
0.456155
0.483729
0.50972
0.534149
0.557027
0.578358
0.598145
0.616394
0.633114
0.648319
0.662031
0.674277
0.68509
0.694506
0.702565
0.709305
0.714761
0.718961
0.72192
0.723636
0.724077
0.723179
0.720826
0.716836
0.710938
0.702744
0.691711
0.677081
0.657809
0.632437
0.598878
0.554054
0.492968
0.407399
0.277381
0.087217
0
0
0.159112
0.30892
0.418788
0.498491
0.557947
0.603892
0.64067
0.671088
0.696978
0.719551
0.739612
0.7577
0.774172
0.789269
0.803151
0.815925
0.827661
0.83841
0.848208
0.857084
0.865065
0.872177
0.878447
0.883906
0.888587
0.892522
0.895748
0.898298
0.900205
0.901496
0.902193
0.902306
0.901832
0.900749
0.89901
0.896536
0.893208
0.888851
0.883222
0.875987
0.866692
0.854723
0.839213
0.818919
0.791785
0.754345
0.698465
0.607299
0.411788
0
