# vtk DataFile Version 2.0
v_velocity
ASCII
DATASET RECTILINEAR_GRID
DIMENSIONS 51 52 1
X_COORDINATES 51 double
0 0.02 0.04 0.06 0.08 0.1 0.12 0.14 0.16 0.18 0.2 0.22 0.24 0.26 0.28 0.3 0.32 0.34 0.36 0.38 0.4 0.42 0.44 0.46 0.48 0.5 0.52 0.54 0.56 0.58 0.6 0.62 0.64 0.66 0.68 0.7 0.72 0.74 0.76 0.78 0.8 0.82 0.84 0.86 0.88 0.9 0.92 0.94 0.96 0.98 1 
Y_COORDINATES 52 double
0 0.01 0.03 0.05 0.07 0.09 0.11 0.13 0.15 0.17 0.19 0.21 0.23 0.25 0.27 0.29 0.31 0.33 0.35 0.37 0.39 0.41 0.43 0.45 0.47 0.49 0.51 0.53 0.55 0.57 0.59 0.61 0.63 0.65 0.67 0.69 0.71 0.73 0.75 0.77 0.79 0.81 0.83 0.85 0.87 0.89 0.91 0.93 0.95 0.97 0.99 1 
Z_COORDINATES 1 double
0.0

CELL_DATA 2550
SCALARS v_velocity double 1
LOOKUP_TABLE default
0
0
0
0
0
0
0
0
0
0
0
0
0
0
0
0
0
0
0
0
0
0
0
0
0
0
0
0
0
0
0
0
0
0
0
0
0
0
0
0
0
0
0
0
0
0
0
0
0
0
-0.000125433
-0.000180309
-0.000118993
-6.57133e-06
0.000118399
0.000238365
0.000348016
0.000448035
0.000541245
0.000630429
0.000717247
0.000801833
0.000882779
0.000957329
0.00102165
0.00107112
0.00110065
0.00110502
0.0010792
0.00101878
0.000920379
0.000782094
0.000603926
0.000388152
0.000139583
-0.000134323
-0.000423558
-0.000715891
-0.000997451
-0.00125356
-0.00146976
-0.00163299
-0.00173279
-0.00176235
-0.00171932
-0.00160621
-0.00143032
-0.00120307
-0.00093895
-0.000654097
-0.000364842
-8.64423e-05
0.000167657
0.000385727
0.000556586
0.000667221
0.000699521
0.000627967
0.00042598
0.00011218
-0.000307973
-0.000374062
-0.000127795
0.000260945
0.000691492
0.00111399
0.0015104
0.00187957
0.00222696
0.00255831
0.0028762
0.00317859
0.00345877
0.00370585
0.00390572
0.00404219
0.00409812
0.00405669
0.00390269
0.00362388
0.00321234
0.00266573
0.00198839
0.00119213
0.000296625
-0.000670698
-0.00167532
-0.00267694
-0.00363138
-0.00449303
-0.00521784
-0.00576644
-0.00610735
-0.0062199
-0.00609641
-0.00574346
-0.00518181
-0.00444505
-0.00357689
-0.0026275
-0.00164951
-0.000694356
0.000190212
0.000960496
0.00157466
0.00198798
0.002147
0.00198749
0.00144938
0.00054073
-0.000417499
-0.000347939
0.00022925
0.00103924
0.00191971
0.00278815
0.00361282
0.00438938
0.00512419
0.0058235
0.00648754
0.007108
0.00766794
0.008143
0.00850346
0.00871654
0.00874894
0.00856949
0.00815175
0.00747653
0.00653428
0.00532705
0.00387
0.00219223
0.000336854
-0.00163976
-0.0036697
-0.00567604
-0.00757629
-0.00928662
-0.0107267
-0.0118249
-0.0125235
-0.0127836
-0.0125893
-0.0119495
-0.0108989
-0.00949619
-0.00782002
-0.00596328
-0.00402633
-0.00211056
-0.000313411
0.00127354
0.0025626
0.00346436
0.00388062
0.00370184
0.00282036
0.00117658
-0.000372917
5.84126e-05
0.0011418
0.00251695
0.00397336
0.00540492
0.00677098
0.00806532
0.00929379
0.0104599
0.011557
0.0125653
0.0134524
0.0141757
0.0146857
0.01493
0.0148581
0.0144247
0.0135942
0.0123445
0.0106693
0.00858102
0.00611189
0.0033143
0.000260229
-0.00296049
-0.00624286
-0.00947041
-0.0125199
-0.0152668
-0.017592
-0.0193882
-0.0205677
-0.021069
-0.0208628
-0.0199562
-0.0183943
-0.0162591
-0.0136648
-0.0107505
-0.00767086
-0.00458646
-0.00165585
0.000968991
0.00314238
0.00471966
0.00554935
0.00546757
0.00430202
0.0018913
-0.000123013
0.000958014
0.0027509
0.00483959
0.00698759
0.00908079
0.0110788
0.0129773
0.0147811
0.0164876
0.0180784
0.0195171
0.0207508
0.0217147
0.0223371
0.0225459
0.0222738
0.0214647
0.0200782
0.0180939
0.0155145
0.0123677
0.00870665
0.00460995
0.000179884
-0.00445993
-0.00916796
-0.013789
-0.0181597
-0.0221146
-0.0254938
-0.0281516
-0.029965
-0.0308437
-0.0307379
-0.0296453
-0.027615
-0.0247474
-0.0211901
-0.017129
-0.0127771
-0.0083615
-0.00411128
-0.000249548
0.00300906
0.00545456
0.00687301
0.00703673
0.00569781
0.00258607
0.000366951
0.00243102
0.00515862
0.00811332
0.011061
0.0138997
0.0166019
0.0191705
0.0216097
0.0239076
0.0260297
0.0279179
0.0294952
0.0306723
0.031355
0.0314525
0.0308845
0.0295882
0.0275233
0.0246762
0.0210622
0.0167267
0.0117451
0.00622133
0.000285837
-0.00590702
-0.0121825
-0.0183497
-0.0242068
-0.0295478
-0.0341703
-0.0378855
-0.040529
-0.0419726
-0.0421361
-0.0409975
-0.0386001
-0.0350552
-0.0305388
-0.0252831
-0.0195626
-0.0136771
-0.0079357
-0.00264342
0.00190495
0.00542351
0.00762641
0.00821443
0.00686035
0.00319461
0.00112155
0.00453275
0.00843391
0.0124079
0.0162557
0.0199112
0.0233741
0.0266612
0.0297771
0.0326981
0.0353694
0.0377079
0.0396101
0.0409615
0.0416471
0.0415606
0.0406131
0.0387397
0.0359046
0.0321042
0.0273681
0.0217594
0.0153735
0.00833601
0.000801144
-0.00705107
-0.0150175
-0.0228755
-0.0303876
-0.0373075
-0.0433885
-0.0483938
-0.0521096
-0.0543595
-0.0550202
-0.0540363
-0.051432
-0.0473181
-0.0418917
-0.0354281
-0.0282652
-0.0207826
-0.0133794
-0.00645525
-0.000397662
0.0044196
0.00762902
0.00885363
0.00768766
0.00367726
0.00215736
0.00729723
0.0126158
0.017759
0.0225986
0.0271304
0.0313967
0.0354359
0.0392537
0.0428131
0.046036
0.0488122
0.0510107
0.0524936
0.0531277
0.0527956
0.051404
0.0488903
0.0452261
0.0404187
0.0345118
0.0275835
0.0197452
0.0111396
0.00193876
-0.00765723
-0.0174224
-0.0271071
-0.0364415
-0.045141
-0.0529134
-0.0594704
-0.0645409
-0.0678894
-0.0693345
-0.0687704
-0.0661845
-0.0616709
-0.0554351
-0.0477889
-0.0391336
-0.029935
-0.0206944
-0.0119205
-0.00410976
0.00226192
0.00673405
0.00884566
0.00811385
0.0040139
0.003483
0.0107382
0.0177151
0.0241696
0.0300827
0.0355388
0.0406392
0.0454506
0.0499821
0.0541818
0.0579469
0.0611388
0.0636006
0.0651732
0.0657093
0.0650843
0.0632048
0.0600129
0.0554886
0.0496504
0.0425533
0.0342875
0.0249761
0.014774
0.00386581
-0.00753399
-0.0191824
-0.0308086
-0.0421158
-0.0527849
-0.0624807
-0.0708619
-0.0775954
-0.0823756
-0.0849482
-0.0851369
-0.0828694
-0.0782001
-0.0713235
-0.0625742
-0.0524121
-0.0413944
-0.0301369
-0.0192761
-0.00943724
-0.0012173
0.00481557
0.00810762
0.00809749
0.00419722
0.0050984
0.0148487
0.0237147
0.0316116
0.0386688
0.0450862
0.0510399
0.0566325
0.0618778
0.0667088
0.0709972
0.0745771
0.0772674
0.0788914
0.0792912
0.0783392
0.0759439
0.0720538
0.0666576
0.0597833
0.0514955
0.0418937
0.0311099
0.0193071
0.00667863
-0.00655202
-0.0201311
-0.0337739
-0.0471646
-0.0599577
-0.0717811
-0.0822445
-0.0909516
-0.0975204
-0.101609
-0.10295
-0.101384
-0.096895
-0.0896364
-0.0799423
-0.0683183
-0.0554119
-0.0419659
-0.0287656
-0.0165911
-0.00618549
0.0017545
0.00656833
0.00760948
0.00422635
0.00699393
0.0196006
0.0305703
0.0400271
0.0482874
0.0556927
0.0625088
0.0688809
0.0748298
0.0802737
0.0850591
0.0889945
0.0918774
0.0935165
0.0937472
0.0924407
0.0895097
0.0849094
0.0786368
0.0707289
0.0612592
0.0503356
0.038098
0.0247162
0.0103889
-0.00465609
-0.020161
-0.0358362
-0.051358
-0.066366
-0.0804637
-0.0932211
-0.104185
-0.112896
-0.118916
-0.121865
-0.121466
-0.117598
-0.11033
-0.0999595
-0.0870102
-0.0722092
-0.0564335
-0.0406396
-0.0257944
-0.0128212
-0.00257501
0.00415453
0.00662139
0.00410111
0.00914969
0.0249444
0.0382113
0.0493304
0.0588413
0.0672511
0.0749291
0.0820694
0.0887023
0.0947318
0.0999809
0.104234
0.10727
0.108887
0.108915
0.107226
0.103737
0.0984117
0.0912553
0.0823149
0.0716745
0.0594521
0.0457967
0.0308849
0.0149195
-0.00187164
-0.019234
-0.0368835
-0.0545014
-0.0717286
-0.0881607
-0.103345
-0.116786
-0.127953
-0.136311
-0.141354
-0.142662
-0.13996
-0.133189
-0.12255
-0.108543
-0.0919459
-0.0737647
-0.0551473
-0.0372836
-0.0213217
-0.00831672
0.000778912
0.00509541
0.00381732
0.0115353
0.0308094
0.0465419
0.0594101
0.070208
0.0796297
0.08816
0.0960481
0.103336
0.109915
0.115587
0.120113
0.123257
0.124808
0.124591
0.122482
0.118404
0.112327
0.10427
0.0942912
0.0824901
0.0689987
0.053978
0.0376135
0.020111
0.00169514
-0.0173898
-0.0368754
-0.0564626
-0.0758112
-0.0945299
-0.112167
-0.128203
-0.142059
-0.153111
-0.160726
-0.164316
-0.163419
-0.157782
-0.147448
-0.13282
-0.114676
-0.0941256
-0.0725172
-0.0513012
-0.0319043
-0.0156388
-0.00366826
0.00297704
0.00336322
0.0141103
0.0371052
0.0554434
0.0701317
0.0822431
0.0926758
0.102041
0.110647
0.118551
0.125635
0.131678
0.136423
0.139621
0.141049
0.140534
0.137954
0.133238
0.126369
0.117381
0.106351
0.0933976
0.0786731
0.0623552
0.0446404
0.0257378
0.00586632
-0.0147457
-0.0358552
-0.0571959
-0.0784644
-0.0993048
-0.119291
-0.137914
-0.15457
-0.168571
-0.179168
-0.185604
-0.187197
-0.183446
-0.174155
-0.159541
-0.140295
-0.11758
-0.0929267
-0.0680779
-0.0447996
-0.0247339
-0.00932284
0.000190964
0.00271747
0.0168251
0.0437239
0.0647773
0.0813409
0.0947834
0.106219
0.116392
0.125678
0.134151
0.141683
0.148036
0.152937
0.156119
0.157357
0.156474
0.153354
0.147937
0.140222
0.130263
0.118162
0.104066
0.0881512
0.0706171
0.0516741
0.0315356
0.0104127
-0.0114859
-0.0339495
-0.0567551
-0.0796514
-0.102338
-0.124444
-0.145497
-0.16491
-0.181968
-0.195835
-0.205601
-0.210354
-0.209302
-0.201931
-0.188165
-0.168496
-0.144039
-0.116461
-0.087805
-0.0602357
-0.0358128
-0.0163452
-0.00335936
0.00184867
0.0196222
0.0505429
0.0743882
0.0928678
0.107651
0.120075
0.131024
0.140942
0.149926
0.157841
0.164433
0.169411
0.172499
0.173463
0.17213
0.168389
0.162196
0.153571
0.142597
0.129407
0.11418
0.0971259
0.0784672
0.0584311
0.0372357
0.0150842
-0.00783653
-0.0313518
-0.0552882
-0.0794566
-0.103629
-0.127509
-0.150697
-0.172662
-0.192705
-0.209956
-0.223385
-0.231871
-0.234315
-0.229821
-0.217909
-0.198732
-0.173218
-0.14307
-0.110599
-0.0784146
-0.0490908
-0.0249138
-0.00778892
0.000716205
0.0224387
0.0574287
0.084109
0.104531
0.120658
0.134051
0.145736
0.156233
0.165661
0.173884
0.180633
0.185602
0.188505
0.189104
0.187228
0.182779
0.175731
0.166134
0.154103
0.139813
0.123478
0.105344
0.0856602
0.0646715
0.0426013
0.019645
-0.00403251
-0.0282926
-0.053013
-0.0780707
-0.103318
-0.12855
-0.153466
-0.177625
-0.200399
-0.220938
-0.238158
-0.250774
-0.257399
-0.256724
-0.247775
-0.230216
-0.204606
-0.172524
-0.136461
-0.0994827
-0.0647688
-0.0352146
-0.0132258
-0.000727987
0.0252084
0.0642412
0.0937646
0.11614
0.13361
0.147949
0.160328
0.171342
0.181141
0.189589
0.196406
0.201274
0.203896
0.204033
0.201522
0.196279
0.188305
0.177683
0.16457
0.149181
0.131775
0.112631
0.092028
0.0702269
0.0474565
0.0239048
-0.000283505
-0.0250034
-0.0501806
-0.0757557
-0.101662
-0.127792
-0.153959
-0.179843
-0.20493
-0.228456
-0.249355
-0.266257
-0.277545
-0.28151
-0.276634
-0.261953
-0.237458
-0.204385
-0.165243
-0.123499
-0.0830116
-0.0474272
-0.0198043
-0.00253714
0.0278646
0.0708384
0.103177
0.127506
0.146312
0.161572
0.174598
0.186065
0.196157
0.204744
0.211537
0.216208
0.218455
0.218039
0.214808
0.208699
0.199744
0.188066
0.173864
0.157401
0.138977
0.118905
0.0974927
0.0750145
0.0517036
0.0277407
0.003253
-0.0216836
-0.0470358
-0.0728001
-0.0989827
-0.125572
-0.152497
-0.179576
-0.206445
-0.23248
-0.256715
-0.277788
-0.293945
-0.30315
-0.303334
-0.292819
-0.270832
-0.238005
-0.196618
-0.150406
-0.103924
-0.0617106
-0.0276568
-0.00476721
0.0303427
0.0770811
0.112172
0.138438
0.158571
0.174728
0.188354
0.200208
0.210515
0.219153
0.225832
0.230216
0.232001
0.230953
0.226935
0.219909
0.209944
0.197204
0.181936
0.164446
0.145076
0.124172
0.102063
0.0790351
0.0553241
0.0311037
0.00648577
-0.0184769
-0.0437834
-0.0694743
-0.0956164
-0.12228
-0.149504
-0.177246
-0.205312
-0.23326
-0.260294
-0.285163
-0.306094
-0.320832
-0.326831
-0.321666
-0.303652
-0.272542
-0.230072
-0.180005
-0.127527
-0.0781874
-0.0369058
-0.0074744
0.0325831
0.0828378
0.12058
0.148755
0.170203
0.187233
0.201415
0.213594
0.224038
0.232644
0.239125
0.243143
0.244393
0.242654
0.237806
0.229841
0.218867
0.205091
0.188807
0.170364
0.15014
0.128509
0.105817
0.0823581
0.0583677
0.0340119
0.00938978
-0.015463
-0.0405685
-0.0659984
-0.0918635
-0.118298
-0.145434
-0.173358
-0.202044
-0.231259
-0.26043
-0.288507
-0.313826
-0.334056
-0.3463
-0.347443
-0.334803
-0.307017
-0.264915
-0.211942
-0.153743
-0.0969295
-0.0476557
-0.0107127
0.0345337
0.0879891
0.128245
0.158285
0.181034
0.198917
0.213616
0.22606
0.236571
0.245071
0.251282
0.254868
0.255533
0.253068
0.247375
0.238481
0.226531
0.211777
0.194557
0.175257
0.154287
0.132042
0.10888
0.0850995
0.0609311
0.0365334
0.0119949
-0.012661
-0.0374705
-0.0625235
-0.0879582
-0.113952
-0.140706
-0.168415
-0.197209
-0.227061
-0.257657
-0.288214
-0.317297
-0.342658
-0.361217
-0.369301
-0.363243
-0.340393
-0.300319
-0.245718
-0.182382
-0.117946
-0.0599855
-0.0145316
0.0361514
0.0924315
0.135029
0.166872
0.190905
0.209626
0.224809
0.237469
0.247986
0.256316
0.262198
0.265307
0.265359
0.262159
0.255638
0.245855
0.232995
0.217351
0.199298
0.179256
0.15766
0.13492
0.1114
0.0873965
0.0631354
0.0387662
0.0143683
-0.0100428
-0.03451
-0.0591307
-0.0840546
-0.109482
-0.13566
-0.16286
-0.191343
-0.221276
-0.252605
-0.284861
-0.316927
-0.34679
-0.371384
-0.386663
-0.388091
-0.371662
-0.335377
-0.280704
-0.213142
-0.141177
-0.0739426
-0.0189736
0.0374043
0.096081
0.140811
0.17438
0.199675
0.219221
0.234866
0.247703
0.258177
0.266287
0.2718
0.274407
0.27384
0.269926
0.262622
0.252021
0.238343
0.221919
0.203157
0.182503
0.160408
0.137292
0.11352
0.0893857
0.0651042
0.0408167
0.0165951
-0.00755003
-0.0316629
-0.0558397
-0.0802293
-0.105038
-0.130531
-0.157034
-0.184901
-0.214463
-0.24591
-0.279102
-0.313301
-0.346855
-0.3769
-0.399254
-0.408703
-0.399932
-0.369169
-0.316179
-0.245614
-0.166487
-0.0895383
-0.0240723
0.0382724
0.0988756
0.145496
0.180692
0.207222
0.227586
0.243679
0.256665
0.267061
0.274919
0.280039
0.282139
0.280971
0.276387
0.268371
0.257045
0.242665
0.225591
0.206255
0.185125
0.162663
0.13929
0.11537
0.0911864
0.0669473
0.042784
0.0187619
-0.00511112
-0.028877
-0.0526249
-0.0764939
-0.100682
-0.125455
-0.15116
-0.178214
-0.207074
-0.238138
-0.271581
-0.307073
-0.343412
-0.378108
-0.40708
-0.424693
-0.424487
-0.400832
-0.35138
-0.279312
-0.193674
-0.106747
-0.0298514
0.0387482
0.100777
0.149014
0.185717
0.213446
0.234623
0.251159
0.264282
0.274579
0.282166
0.286887
0.288494
0.286764
0.281574
0.272935
0.260999
0.246046
0.228462
0.208698
0.187232
0.164531
0.141017
0.117045
0.0928903
0.0687507
0.044749
0.0209448
-0.00265495
-0.0260878
-0.0494326
-0.0728132
-0.0964094
-0.120474
-0.145352
-0.171492
-0.199432
-0.229739
-0.262865
-0.298883
-0.337091
-0.375508
-0.410377
-0.435933
-0.444822
-0.429616
-0.385549
-0.313689
-0.222479
-0.125508
-0.0363237
0.0388362
0.101773
0.151324
0.18939
0.21827
0.240255
0.257238
0.270496
0.280689
0.288001
0.292333
0.293475
0.291236
0.28552
0.276363
0.263941
0.248555
0.230607
0.21056
0.188898
0.166086
0.142542
0.11861
0.0945575
0.0705718
0.0467682
0.0232018
-0.000120481
-0.0232308
-0.0461966
-0.0691239
-0.09217
-0.115564
-0.139632
-0.164825
-0.191728
-0.221027
-0.253401
-0.289294
-0.328514
-0.369675
-0.409541
-0.442507
-0.460648
-0.454919
-0.417977
-0.34818
-0.252597
-0.145732
-0.0434924
0.0385528
0.101874
0.152414
0.191676
0.221643
0.244427
0.261866
0.275268
0.285363
0.29241
0.296373
0.297091
0.294408
0.288256
0.278693
0.265914
0.250237
0.232073
0.211888
0.190166
0.167366
0.143897
0.120095
0.0962158
0.0724389
0.048873
0.0255701
0.00253789
-0.0202502
-0.0428502
-0.0653507
-0.0878846
-0.110652
-0.133951
-0.158215
-0.18404
-0.212185
-0.243504
-0.278755
-0.318235
-0.361195
-0.405063
-0.444668
-0.471867
-0.4763
-0.448038
-0.382221
-0.283701
-0.167307
-0.051353
0.037925
0.101118
0.152304
0.192567
0.223538
0.247104
0.26501
0.278574
0.288587
0.295389
0.299014
0.299355
0.296297
0.289801
0.279947
0.266943
0.251116
0.232878
0.212695
0.191044
0.168374
0.145083
0.121498
0.097864
0.0743537
0.051071
0.0280661
0.00534835
-0.0171034
-0.0393349
-0.0614185
-0.0834644
-0.105643
-0.128219
-0.151594
-0.176351
-0.203282
-0.233357
-0.267589
-0.30671
-0.350604
-0.397461
-0.442772
-0.478542
-0.493473
-0.475201
-0.41528
-0.315456
-0.190115
-0.0598969
0.0369892
0.0995633
0.151042
0.19209
0.223959
0.248274
0.266654
0.2804
0.290357
0.29694
0.300261
0.300276
0.296915
0.290167
0.280133
0.267029
0.251186
0.233012
0.212965
0.19151
0.169084
0.146073
0.12279
0.099476
0.076295
0.0533489
0.0306873
0.00832191
-0.013763
-0.0356044
-0.0572609
-0.0788228
-0.100433
-0.122322
-0.144854
-0.168582
-0.194298
-0.223037
-0.255997
-0.294279
-0.338362
-0.387236
-0.437232
-0.480846
-0.506282
-0.499038
-0.446863
-0.347536
-0.214037
-0.0691157
0.0357895
0.0972917
0.148709
0.190302
0.222937
0.24795
0.2668
0.280747
0.290673
0.297068
0.300123
0.299862
0.296264
0.289351
0.279239
0.266153
0.25042
0.232439
0.212655
0.191516
0.169444
0.146812
0.123921
0.101005
0.0782228
0.0556758
0.0334146
0.0114539
-0.010217
-0.0316274
-0.052825
-0.0738839
-0.0949239
-0.116144
-0.13787
-0.160616
-0.185149
-0.212529
-0.244075
-0.281175
-0.324836
-0.374838
-0.428474
-0.479031
-0.514682
-0.519208
-0.476524
-0.379633
-0.23897
-0.0790068
0.0343765
0.0944038
0.145412
0.187292
0.220533
0.246167
0.265468
0.279626
0.289544
0.295779
0.298604
0.298112
0.294338
0.287336
0.27724
0.264279
0.24877
0.231102
0.211699
0.19099
0.169381
0.147227
0.124821
0.102386
0.0800814
0.0580067
0.0362154
0.0147258
-0.00646746
-0.0273876
-0.0480736
-0.0685873
-0.0890308
-0.109577
-0.130516
-0.152321
-0.17572
-0.201764
-0.231836
-0.267532
-0.310297
-0.360651
-0.416904
-0.473385
-0.518701
-0.535443
-0.503853
-0.411455
-0.264835
-0.0895797
0.0328056
0.0910174
0.141289
0.183185
0.216843
0.24299
0.262696
0.277058
0.286981
0.293081
0.295704
0.295022
0.291121
0.284097
0.274097
0.261353
0.246172
0.228924
0.210013
0.189845
0.168805
0.147231
0.125405
0.103543
0.0818031
0.0602848
0.0390451
0.018107
-0.0025299
-0.0228833
-0.0429859
-0.0628912
-0.0826883
-0.10253
-0.122679
-0.143568
-0.165882
-0.190638
-0.219237
-0.253407
-0.294931
-0.344986
-0.402895
-0.464212
-0.518418
-0.547526
-0.528463
-0.442723
-0.291581
-0.100862
0.0311362
0.0872658
0.136503
0.178139
0.211996
0.238511
0.258542
0.273077
0.283003
0.288977
0.291421
0.290576
0.286591
0.279596
0.269759
0.257311
0.242549
0.225819
0.207503
0.18798
0.167613
0.146723
0.125578
0.104389
0.0833101
0.0624431
0.0418489
0.0215557
0.00156778
-0.0181275
-0.0375585
-0.0567733
-0.0758534
-0.0949391
-0.11427
-0.134248
-0.155513
-0.179038
-0.206204
-0.238802
-0.278857
-0.328087
-0.386775
-0.451808
-0.51394
-0.555271
-0.549968
-0.473154
-0.31919
-0.112907
0.0294306
0.0832965
0.131243
0.172342
0.206154
0.232853
0.253089
0.26773
0.277629
0.283472
0.285744
0.284755
0.280713
0.273789
0.264168
0.252083
0.237816
0.221692
0.204065
0.185287
0.165698
0.145597
0.125239
0.104829
0.0845165
0.0644063
0.0445629
0.0250194
0.00578544
-0.0131476
-0.031805
-0.0502325
-0.0685082
-0.0867658
-0.105232
-0.124282
-0.144518
-0.166863
-0.192654
-0.223691
-0.26214
-0.310139
-0.368826
-0.436457
-0.505385
-0.558497
-0.567959
-0.502429
-0.34767
-0.125802
0.0277549
0.0792716
0.125723
0.166019
0.199515
0.226169
0.24644
0.261077
0.270885
0.276566
0.278655
0.277528
0.273446
0.266622
0.257259
0.245591
0.231885
0.216445
0.199594
0.181658
0.162947
0.143741
0.124282
0.104762
0.0853306
0.0660918
0.0471141
0.0284356
0.0100705
-0.00798636
-0.0257583
-0.0432908
-0.0606627
-0.0780064
-0.0955424
-0.11363
-0.132839
-0.154043
-0.178521
-0.208036
-0.244816
-0.291283
-0.34929
-0.41842
-0.492874
-0.557022
-0.581974
-0.530167
-0.377044
-0.139675
0.0261807
0.075371
0.120186
0.159426
0.192314
0.218643
0.238723
0.253191
0.262799
0.268255
0.270131
0.268855
0.264741
0.258036
0.248963
0.237757
0.22467
0.209983
0.193989
0.176984
0.159251
0.141049
0.1226
0.104088
0.0856567
0.067411
0.0494217
0.0317308
0.0143566
-0.00270346
-0.0194721
-0.0359968
-0.0523595
-0.0686964
-0.0852275
-0.102303
-0.12047
-0.140555
-0.163773
-0.19182
-0.226909
-0.271626
-0.328372
-0.397941
-0.476526
-0.550639
-0.59147
-0.555867
-0.407324
-0.154711
0.0247895
0.0717991
0.114905
0.152853
0.184812
0.210486
0.230083
0.244153
0.253404
0.258532
0.260138
0.258688
0.254538
0.247965
0.239209
0.228503
0.216086
0.202215
0.187153
0.171166
0.154509
0.137414
0.120089
0.102705
0.0853976
0.068271
0.051397
0.0348202
0.0185618
0.00262061
-0.0130269
-0.0284316
-0.0436813
-0.0589185
-0.0743677
-0.0903759
-0.107471
-0.126441
-0.148433
-0.175056
-0.208453
-0.25126
-0.306248
-0.375242
-0.456454
-0.53912
-0.595791
-0.578851
-0.438469
-0.17117
0.0236815
0.0687997
0.110196
0.146628
0.177301
0.201925
0.220673
0.234049
0.242724
0.247382
0.248633
0.246967
0.242769
0.236337
0.227923
0.217753
0.206056
0.19306
0.179002
0.164115
0.148626
0.132744
0.116655
0.100516
0.0844564
0.0685747
0.0529422
0.0376046
0.0225836
0.0078782
-0.00653753
-0.0207192
-0.0347618
-0.0488159
-0.063112
-0.0779965
-0.0939833
-0.111823
-0.132596
-0.157813
-0.189508
-0.23027
-0.283067
-0.350523
-0.432765
-0.522203
-0.594141
-0.598183
-0.470316
-0.18942
0.0229922
0.06668
0.106435
0.141112
0.170086
0.193187
0.210641
0.222954
0.230777
0.234777
0.23556
0.233623
0.22936
0.223079
0.215031
0.205439
0.194509
0.182449
0.169463
0.155757
0.141527
0.126956
0.11221
0.0974308
0.0827362
0.0682188
0.0539466
0.0399634
0.0262898
0.0129226
-0.000167613
-0.013042
-0.0258028
-0.0386081
-0.0516936
-0.0654046
-0.0802404
-0.0969162
-0.116444
-0.140229
-0.170173
-0.208745
-0.258952
-0.323956
-0.405561
-0.499602
-0.585559
-0.612571
-0.502462
-0.209987
0.0229233
0.0658518
0.104074
0.136703
0.163471
0.184479
0.200106
0.210912
0.217551
0.22067
0.220851
0.218576
0.21423
0.208113
0.200466
0.191495
0.181388
0.170325
0.158482
0.146033
0.133147
0.119979
0.106675
0.0933575
0.0801328
0.0670842
0.0542731
0.0417392
0.0294996
0.0175473
0.00584869
-0.00566275
-0.0170948
-0.0286103
-0.0404466
-0.0529433
-0.0665813
-0.0820368
-0.100252
-0.122522
-0.1506
-0.186787
-0.234001
-0.295673
-0.374926
-0.471011
-0.568898
-0.620246
-0.534084
-0.233607
0.0237975
0.0668931
0.10367
0.133821
0.157722
0.175941
0.189114
0.19791
0.202993
0.204983
0.204418
0.201739
0.197297
0.191365
0.184162
0.175868
0.166644
0.156643
0.146011
0.134893
0.123425
0.111741
0.0999593
0.0881867
0.0765129
0.0650098
0.0537303
0.0427074
0.0319529
0.0214556
0.0111778
0.00104972
-0.00903857
-0.0192496
-0.0298158
-0.041064
-0.0534491
-0.0676011
-0.0843864
-0.104987
-0.130994
-0.164514
-0.208279
-0.265753
-0.340923
-0.436128
-0.542841
-0.61883
-0.563655
-0.261286
0.026155
0.0706341
0.105901
0.132871
0.153013
0.167593
0.177601
0.183841
0.186986
0.1876
0.186152
0.183013
0.178476
0.172764
0.166057
0.158502
0.150227
0.141353
0.131995
0.122266
0.112276
0.10213
0.0919244
0.0817453
0.0716659
0.0617448
0.0520247
0.042531
0.0332698
0.0242263
0.0153609
0.00660388
-0.00215174
-0.0110616
-0.020345
-0.0303065
-0.0413654
-0.0540954
-0.0692784
-0.0879732
-0.111602
-0.142054
-0.181821
-0.234206
-0.30358
-0.394695
-0.505955
-0.605207
-0.588523
-0.294283
0.0309163
0.0782485
0.111533
0.13415
0.149321
0.159247
0.165323
0.168464
0.169312
0.168339
0.165902
0.162272
0.157656
0.152211
0.14606
0.139305
0.132037
0.124341
0.116299
0.107995
0.0995094
0.0909215
0.0823043
0.073724
0.0652371
0.0568889
0.0487121
0.0407246
0.0329285
0.0253072
0.0178223
0.0104087
0.00296792
-0.00464175
-0.0126182
-0.0212343
-0.0308623
-0.0420085
-0.055358
-0.0718344
-0.0926771
-0.119541
-0.154637
-0.200978
-0.26289
-0.346566
-0.456867
-0.575475
-0.60432
-0.33388
0.0396401
0.0912707
0.121218
0.137593
0.146208
0.15034
0.151726
0.151295
0.149571
0.146868
0.143391
0.139275
0.134617
0.12949
0.123949
0.118043
0.11182
0.105327
0.098615
0.0917365
0.0847461
0.0776978
0.0706436
0.063631
0.0567015
0.0498885
0.0432158
0.0366961
0.0303289
0.0240985
0.0179708
0.0118891
0.00576837
-0.000513202
-0.00712505
-0.0142995
-0.0223523
-0.0317103
-0.0429483
-0.0568391
-0.0744203
-0.0970873
-0.126734
-0.166002
-0.21885
-0.291829
-0.394605
-0.525124
-0.604171
-0.38066
0.0548755
0.111252
0.1348
0.142084
0.142235
0.139458
0.135562
0.131282
0.126891
0.122465
0.118003
0.113478
0.10886
0.104125
0.0992567
0.0942473
0.0890996
0.083825
0.0784427
0.0729786
0.0674628
0.0619282
0.056408
0.0509341
0.0455349
0.0402338
0.0350475
0.0299847
0.025044
0.0202121
0.0154613
0.0107455
0.00599617
0.00111525
-0.00403308
-0.00963427
-0.0159391
-0.0232846
-0.0321228
-0.0430591
-0.0569078
-0.0747729
-0.0981827
-0.12933
-0.171616
-0.231017
-0.319253
-0.449754
-0.577758
-0.432664
0.0804047
0.138109
0.14916
0.143497
0.133367
0.123085
0.11394
0.106124
0.0994695
0.0937205
0.0886328
0.084004
0.0796773
0.0755364
0.0714982
0.067506
0.0635243
0.059534
0.0555291
0.0515132
0.0474974
0.0434971
0.0395305
0.0356163
0.0317719
0.0280122
0.0243476
0.0207833
0.0173172
0.0139389
0.0106271
0.00734761
0.00404946
0.000660629
-0.00291805
-0.00682091
-0.0112282
-0.0163801
-0.0225966
-0.030304
-0.0400756
-0.0526939
-0.0692692
-0.0914466
-0.12192
-0.16552
-0.232976
-0.347039
-0.510628
-0.481013
0.119736
0.163832
0.152051
0.130119
0.11005
0.0940354
0.0817385
0.0723417
0.0650789
0.0593432
0.0546816
0.050765
0.0473579
0.0442936
0.0414555
0.0387639
0.0361655
0.033627
0.0311293
0.0286639
0.0262299
0.0238314
0.0214756
0.019171
0.0169261
0.0147481
0.0126418
0.010609
0.00864698
0.00674779
0.00489705
0.00307231
0.0012411
-0.000641652
-0.00263704
-0.00482667
-0.00731857
-0.0102549
-0.0138227
-0.0182688
-0.0239244
-0.0312415
-0.0408822
-0.0538527
-0.0719574
-0.0985264
-0.141449
-0.221185
-0.385675
-0.499005
0.159112
0.149807
0.109868
0.0797036
0.0594558
0.0459451
0.0367781
0.0304173
0.02589
0.0225733
0.0200616
0.0180874
0.0164724
0.0150972
0.0138819
0.0127732
0.0117364
0.010749
0.00979806
0.00887631
0.00798091
0.00711177
0.00627042
0.0054591
0.00468016
0.00393537
0.00322558
0.00255023
0.00190705
0.00129161
0.000696953
0.000112977
-0.000474241
-0.00108337
-0.00173906
-0.00247342
-0.00332813
-0.0043569
-0.00562929
-0.00723502
-0.00929457
-0.0119693
-0.0155102
-0.0202939
-0.0271336
-0.0374409
-0.0558791
-0.0911668
-0.195511
-0.411788
0
0
0
0
0
0
0
0
0
0
0
0
0
0
0
0
0
0
0
0
0
0
0
0
0
0
0
0
0
0
0
0
0
0
0
0
0
0
0
0
0
0
0
0
0
0
0
0
0
0
