# vtk DataFile Version 2.0
pressure
ASCII
DATASET RECTILINEAR_GRID
DIMENSIONS 41 41 1
X_COORDINATES 41 double
0 0.0325168 0.0644289 0.0957562 0.126518 0.156734 0.186424 0.215604 0.244295 0.272513 0.300276 0.327602 0.354507 0.38101 0.407125 0.43287 0.45826 0.483312 0.50804 0.532462 0.556591 0.580442 0.604032 0.627374 0.650483 0.673374 0.696061 0.718557 0.740878 0.763037 0.785048 0.806924 0.82868 0.850328 0.871883 0.893358 0.914766 0.936121 0.957436 0.978725 1 
Y_COORDINATES 41 double
0 0.025 0.05 0.075 0.1 0.125 0.15 0.175 0.2 0.225 0.25 0.275 0.3 0.325 0.35 0.375 0.4 0.425 0.45 0.475 0.5 0.525 0.55 0.575 0.6 0.625 0.65 0.675 0.7 0.725 0.75 0.775 0.8 0.825 0.85 0.875 0.9 0.925 0.95 0.975 1 
Z_COORDINATES 1 double
0.0

CELL_DATA 1600
SCALARS pressure double 1
LOOKUP_TABLE default
0
-5.13259e-05
-0.00019847
-0.00042595
-0.000710609
-0.00104039
-0.00141072
-0.00181743
-0.00225122
-0.00269493
-0.00312314
-0.00350365
-0.00380057
-0.00397896
-0.00401039
-0.00387887
-0.00358558
-0.00315178
-0.00261862
-0.00204391
-0.00149579
-0.00104415
-0.000750906
-0.000660835
-0.000794827
-0.00114689
-0.00168586
-0.00236144
-0.00311322
-0.00388044
-0.00461038
-0.00526382
-0.0058169
-0.00625992
-0.0065939
-0.00682636
-0.00696745
-0.00702826
-0.00702328
-0.00698035
1.34317e-05
-3.90521e-05
-0.000174482
-0.000380123
-0.000636114
-0.000933703
-0.00127098
-0.00164644
-0.00205413
-0.00248092
-0.00290551
-0.0032989
-0.00362646
-0.00385195
-0.00394324
-0.00387877
-0.00365358
-0.00328314
-0.00280427
-0.00227222
-0.00175452
-0.00132205
-0.00103875
-0.000951751
-0.00108381
-0.00142977
-0.00195804
-0.00261689
-0.00334433
-0.00407879
-0.00476837
-0.00537649
-0.00588328
-0.00628352
-0.00658238
-0.00679054
-0.00691984
-0.00698041
-0.00697954
-0.00693299
8.75607e-05
2.28353e-05
-0.000111376
-0.0003023
-0.000534358
-0.000804508
-0.001117
-0.00147669
-0.00188394
-0.00233115
-0.00280038
-0.00326238
-0.00367815
-0.00400374
-0.00419763
-0.00422911
-0.00408554
-0.00377696
-0.0033371
-0.00282062
-0.00229678
-0.00184038
-0.00152108
-0.00139268
-0.00148433
-0.00179571
-0.00229731
-0.00293635
-0.00364713
-0.00436325
-0.00502869
-0.00560498
-0.00607328
-0.0064319
-0.00669096
-0.0068661
-0.00697277
-0.0070217
-0.00701549
-0.00696239
0.000227425
0.000139594
-3.32715e-06
-0.000189268
-0.000409812
-0.000670852
-0.000986898
-0.00137333
-0.00183936
-0.00238211
-0.00298214
-0.00360218
-0.00419059
-0.00468925
-0.00504367
-0.00521267
-0.00517593
-0.00493829
-0.00453044
-0.00400619
-0.00343655
-0.00290105
-0.00247735
-0.00223007
-0.00220074
-0.00240089
-0.00281001
-0.00337955
-0.00404256
-0.00472698
-0.00536887
-0.0059224
-0.00636417
-0.00669158
-0.00691708
-0.00706049
-0.00714166
-0.00717427
-0.00716116
-0.00710831
0.000420962
0.00030243
0.000143403
-4.96564e-05
-0.000280445
-0.000567896
-0.000940885
-0.00142804
-0.00204662
-0.00279314
-0.00363808
-0.00452744
-0.00539066
-0.00615221
-0.00674335
-0.00711193
-0.00722917
-0.00709311
-0.00672911
-0.00618739
-0.0055381
-0.00486396
-0.00425096
-0.00377761
-0.00350412
-0.00346309
-0.00365399
-0.00404332
-0.00457128
-0.00516417
-0.00574948
-0.0062694
-0.00668915
-0.0069982
-0.00720543
-0.00733095
-0.00739723
-0.0074213
-0.00740908
-0.00736696
0.000645522
0.000493276
0.000311734
9.38086e-05
-0.00018232
-0.000553072
-0.00106464
-0.0017582
-0.00265351
-0.00373718
-0.00496024
-0.00624523
-0.00749913
-0.00862748
-0.00954667
-0.0101929
-0.0105277
-0.0105408
-0.0102494
-0.00969681
-0.00894833
-0.00808588
-0.00720082
-0.0063851
-0.00572088
-0.00526993
-0.00506435
-0.00510117
-0.00534308
-0.00572634
-0.00617498
-0.00661746
-0.00700068
-0.007297
-0.00750288
-0.00763158
-0.00770327
-0.00773565
-0.00773714
-0.00771505
0.000865897
0.000680231
0.000467806
0.000198444
-0.000173823
-0.000706685
-0.00146379
-0.00249363
-0.00380868
-0.00537492
-0.00711563
-0.00892486
-0.0106846
-0.0122805
-0.0136143
-0.0146115
-0.0152255
-0.015438
-0.0152582
-0.0147203
-0.0138805
-0.0128139
-0.0116101
-0.0103677
-0.0091867
-0.0081591
-0.00735794
-0.00682668
-0.00657159
-0.0065605
-0.00673012
-0.00700154
-0.00729969
-0.0075694
-0.0077824
-0.00793421
-0.00803436
-0.00809555
-0.00812506
-0.00812996
0.00103329
0.000815492
0.00055891
0.000200954
-0.000333371
-0.00112469
-0.00225035
-0.00375664
-0.00563639
-0.00782401
-0.0102071
-0.0126465
-0.0149972
-0.0171262
-0.018924
-0.0203107
-0.021237
-0.0216819
-0.0216494
-0.0211655
-0.0202749
-0.0190396
-0.0175377
-0.0158615
-0.0141157
-0.0124112
-0.010858
-0.0095523
-0.00856284
-0.00791756
-0.0075966
-0.00753671
-0.0076489
-0.00784371
-0.00805294
-0.00823828
-0.00838599
-0.00849499
-0.00856565
-0.00860273
0.00108702
0.000837069
0.000516443
2.29229e-05
-0.000750063
-0.00190452
-0.00352361
-0.00563841
-0.00820829
-0.0111245
-0.0142311
-0.0173519
-0.0203164
-0.0229782
-0.0252256
-0.0269827
-0.0282068
-0.028882
-0.0290133
-0.0286216
-0.027741
-0.0264173
-0.0247088
-0.0226885
-0.0204465
-0.0180912
-0.0157483
-0.0135538
-0.0116408
-0.0101181
-0.00904742
-0.00842452
-0.00817903
-0.0081969
-0.00835821
-0.00856956
-0.00877467
-0.00894565
-0.00906844
-0.00914269
0.000959675
0.000674676
0.000263872
-0.000418276
-0.00150928
-0.00312726
-0.00534939
-0.00817617
-0.0115187
-0.0152137
-0.0190557
-0.0228326
-0.0263553
-0.0294758
-0.032092
-0.0341438
-0.0356044
-0.0364701
-0.0367528
-0.0364733
-0.0356586
-0.0343398
-0.0325538
-0.030347
-0.02778
-0.0249356
-0.0219249
-0.0188912
-0.0160061
-0.0134528
-0.0113959
-0.0099394
-0.00909124
-0.00875654
-0.00877328
-0.00897378
-0.00923197
-0.00947289
-0.00965708
-0.00977497
0.000585171
0.000259159
-0.0002716
-0.00119539
-0.00267649
-0.00484013
-0.00774287
-0.0113382
-0.0154748
-0.019927
-0.0244399
-0.0287735
-0.0327339
-0.036186
-0.0390499
-0.0412899
-0.0429005
-0.0438941
-0.0442924
-0.0441199
-0.0434008
-0.0421569
-0.0404087
-0.0381779
-0.0354928
-0.0323979
-0.0289654
-0.0253087
-0.0215929
-0.0180345
-0.014882
-0.0123677
-0.0106401
-0.00970287
-0.00940605
-0.00951265
-0.00979803
-0.0101093
-0.0103633
-0.0105339
-9.14417e-05
-0.000466413
-0.00114635
-0.00235747
-0.0042833
-0.00704425
-0.0106606
-0.0150235
-0.0199098
-0.0250301
-0.0300885
-0.0348327
-0.0390807
-0.0427234
-0.0457116
-0.0480371
-0.0497157
-0.0507751
-0.051246
-0.0511575
-0.0505343
-0.0493947
-0.0477505
-0.0456081
-0.0429718
-0.0398507
-0.0362712
-0.0322944
-0.0280375
-0.0236937
-0.0195365
-0.0158934
-0.0130725
-0.0112544
-0.0104016
-0.0102669
-0.0105194
-0.0108898
-0.0112212
-0.011456
-0.0011045
-0.00153637
-0.00238937
-0.00391944
-0.00631913
-0.00969097
-0.0140045
-0.0190782
-0.0246143
-0.0302675
-0.0357169
-0.040716
-0.0451096
-0.0488231
-0.0518395
-0.0541757
-0.055865
-0.0569455
-0.057454
-0.0574227
-0.0568776
-0.0558374
-0.0543123
-0.0523039
-0.049805
-0.0468034
-0.0432899
-0.0392731
-0.0348047
-0.0300107
-0.0251228
-0.0204872
-0.0165245
-0.0136148
-0.0119339
-0.0113423
-0.0114526
-0.0118512
-0.0122638
-0.0125758
-0.00246083
-0.00295516
-0.00399553
-0.00585732
-0.00873058
-0.0126877
-0.0176373
-0.0233213
-0.0293735
-0.0354075
-0.0410963
-0.0462155
-0.0506456
-0.0543483
-0.057335
-0.0596419
-0.0613131
-0.0623918
-0.062917
-0.0629216
-0.0624327
-0.0614706
-0.0600481
-0.0581686
-0.0558253
-0.0529997
-0.049665
-0.0457944
-0.0413811
-0.0364714
-0.03121
-0.0258846
-0.020936
-0.0168876
-0.0141652
-0.0128661
-0.0126684
-0.0130331
-0.0135218
-0.0139228
-0.00413656
-0.00469456
-0.00592436
-0.00811008
-0.0114279
-0.0159109
-0.0214021
-0.0275712
-0.0339961
-0.0402676
-0.0460696
-0.0512102
-0.0556079
-0.0592566
-0.0621894
-0.0644544
-0.0661003
-0.0671711
-0.0677046
-0.0677326
-0.0672821
-0.0663749
-0.0650273
-0.0632485
-0.0610377
-0.0583817
-0.0552523
-0.0516088
-0.0474083
-0.0426308
-0.0373256
-0.0316741
-0.026048
-0.021009
-0.0171791
-0.0149588
-0.0142479
-0.014478
-0.0150222
-0.0155198
-0.00607873
-0.00669591
-0.00810424
-0.0105869
-0.0142965
-0.0192215
-0.025142
-0.0316651
-0.0383295
-0.0447203
-0.0505439
-0.0556448
-0.0599761
-0.0635565
-0.0664335
-0.0686603
-0.0702858
-0.0713516
-0.0718925
-0.0719381
-0.0715143
-0.0706439
-0.0693463
-0.0676363
-0.0655218
-0.0629995
-0.060051
-0.0566385
-0.0527071
-0.0481978
-0.0430829
-0.0374297
-0.0314866
-0.02575
-0.0209257
-0.0176864
-0.016266
-0.0162255
-0.0167837
-0.0173783
-0.0082108
-0.00887655
-0.0104405
-0.0131775
-0.0172096
-0.0224803
-0.0287136
-0.0354689
-0.0422618
-0.0486847
-0.0544724
-0.0595033
-0.0637585
-0.067274
-0.0701043
-0.0723034
-0.0739175
-0.0749841
-0.0755346
-0.0755957
-0.0751922
-0.0743468
-0.0730811
-0.0714147
-0.069363
-0.0669339
-0.0641226
-0.0609048
-0.0572318
-0.0530323
-0.0482325
-0.0428072
-0.0368697
-0.0307836
-0.0252193
-0.0210163
-0.0187608
-0.0183014
-0.0188106
-0.0194924
-0.010441
-0.011139
-0.0128261
-0.0157643
-0.0200411
-0.0255583
-0.0319954
-0.038879
-0.0457159
-0.0521135
-0.0578351
-0.0627874
-0.0669716
-0.0704335
-0.07323
-0.0754127
-0.0770237
-0.0780964
-0.0786586
-0.0787346
-0.0783476
-0.0775203
-0.0762755
-0.0746357
-0.0726223
-0.0702527
-0.0675357
-0.0644642
-0.0610061
-0.057098
-0.05265
-0.0475781
-0.0418814
-0.0357681
-0.0297848
-0.0248075
-0.0217043
-0.0207025
-0.0210842
-0.0218329
-0.012672
-0.0133809
-0.0151517
-0.0182325
-0.0226745
-0.0283442
-0.0348897
-0.041819
-0.0486405
-0.0549799
-0.060625
-0.0655034
-0.0696288
-0.0730512
-0.0758263
-0.0780021
-0.0796162
-0.0806983
-0.081273
-0.0813629
-0.0809899
-0.0801762
-0.0789452
-0.0773215
-0.0753303
-0.0729963
-0.0703396
-0.0673696
-0.0640747
-0.0604109
-0.0562949
-0.0516177
-0.0462995
-0.0404069
-0.03432
-0.0288381
-0.0249893
-0.0233824
-0.0235563
-0.0243422
-0.0148097
-0.0155046
-0.0173158
-0.0204787
-0.0250097
-0.0307474
-0.0373214
-0.044234
-0.0510018
-0.057268
-0.062839
-0.0676556
-0.0717371
-0.075134
-0.0778986
-0.0800748
-0.0816961
-0.0827891
-0.083376
-0.0834779
-0.0831158
-0.0823118
-0.0810895
-0.0794746
-0.077495
-0.0751801
-0.0725589
-0.0696547
-0.0664757
-0.0630017
-0.0591697
-0.0548722
-0.0499877
-0.0444751
-0.0385456
-0.0328483
-0.0284416
-0.0262439
-0.0261454
-0.0269339
-0.0167712
-0.0174253
-0.0192317
-0.0224171
-0.0269664
-0.0326983
-0.0392358
-0.0460855
-0.0527764
-0.0589663
-0.0644732
-0.0692436
-0.0732974
-0.076682
-0.0794457
-0.0816283
-0.0832599
-0.0843643
-0.0849622
-0.0850735
-0.0847187
-0.0839199
-0.0827008
-0.0810879
-0.079111
-0.0768027
-0.0741986
-0.0713327
-0.0682304
-0.0648951
-0.0612904
-0.0573272
-0.052873
-0.0478187
-0.0422321
-0.0365814
-0.0318472
-0.0291443
-0.0287398
-0.0294973
-0.0184901
-0.0190763
-0.0208327
-0.0239832
-0.0284861
-0.0341477
-0.0405951
-0.0473473
-0.0539478
-0.0600649
-0.0655214
-0.0702629
-0.0743053
-0.0776909
-0.0804634
-0.0826584
-0.0843033
-0.0854198
-0.0860275
-0.0861453
-0.0857936
-0.0849943
-0.0837716
-0.0821528
-0.0801688
-0.0778553
-0.0752522
-0.0724021
-0.0693444
-0.0661034
-0.0626703
-0.0589831
-0.0549207
-0.0503414
-0.0452073
-0.0398104
-0.0349825
-0.0319117
-0.0312056
-0.0319053
-0.0199198
-0.020413
-0.0220754
-0.0251356
-0.0295318
-0.0350655
-0.0413761
-0.0480025
-0.0545033
-0.0605537
-0.0659748
-0.0707055
-0.0747537
-0.0781544
-0.0809461
-0.0831608
-0.0848233
-0.0859539
-0.0865708
-0.0866926
-0.0863393
-0.085533
-0.0842984
-0.0826635
-0.0806609
-0.0783284
-0.0757098
-0.0728545
-0.069813
-0.0666276
-0.0633149
-0.0598433
-0.0561157
-0.0519859
-0.0473501
-0.042351
-0.0376384
-0.0343647
-0.0333979
-0.0340254
-0.0210347
-0.021414
-0.0229408
-0.0258564
-0.0300881
-0.0354389
-0.041569
-0.0480421
-0.0544338
-0.0604228
-0.065823
-0.070561
-0.0746329
-0.0780647
-0.0808885
-0.0831325
-0.0848193
-0.0859676
-0.0865948
-0.0867189
-0.0863597
-0.0855393
-0.0842832
-0.0826202
-0.0805846
-0.0782165
-0.0755635
-0.0726806
-0.0696278
-0.0664623
-0.0632232
-0.0599084
-0.0564513
-0.05272
-0.0485796
-0.0440617
-0.0396341
-0.0363297
-0.0351742
-0.0357308
-0.0218298
-0.0220808
-0.0234338
-0.0261507
-0.0301596
-0.0352722
-0.0411757
-0.047465
-0.0537341
-0.0596633
-0.0650545
-0.0698176
-0.0739326
-0.0774138
-0.0802856
-0.0825718
-0.0842925
-0.085465
-0.0861056
-0.0862318
-0.0858631
-0.0850219
-0.0837339
-0.0820295
-0.0799444
-0.0775214
-0.074812
-0.0718766
-0.0687835
-0.0656028
-0.0623928
-0.0591785
-0.0559251
-0.0525266
-0.048844
-0.0448386
-0.0408199
-0.037651
-0.0364034
-0.0369084
-0.0223185
-0.0224354
-0.0235813
-0.0260453
-0.0297698
-0.0345846
-0.0402104
-0.0462782
-0.052404
-0.0582687
-0.0636591
-0.0684636
-0.072642
-0.0761935
-0.0791329
-0.0814781
-0.0832461
-0.0844525
-0.0851124
-0.0852428
-0.0848627
-0.0839947
-0.082665
-0.0809052
-0.0787529
-0.076254
-0.0734637
-0.0704482
-0.0672835
-0.064051
-0.0608259
-0.0576568
-0.0545396
-0.0513994
-0.0481119
-0.0446062
-0.0410733
-0.0381904
-0.0369681
-0.0374594
-0.0225302
-0.0225169
-0.0234288
-0.0255854
-0.0289594
-0.03341
-0.0386986
-0.0444983
-0.0504505
-0.0562377
-0.0616298
-0.0664894
-0.0707518
-0.074397
-0.0774271
-0.0798523
-0.0816853
-0.0829392
-0.083628
-0.0837676
-0.0833767
-0.0824779
-0.081098
-0.0792697
-0.077033
-0.0744365
-0.0715399
-0.0684149
-0.0651453
-0.0618227
-0.0585369
-0.0553573
-0.052307
-0.0493432
-0.046368
-0.0433092
-0.0402888
-0.0378161
-0.0367532
-0.0372862
-0.0225056
-0.0223757
-0.0230355
-0.0248311
-0.0277831
-0.031795
-0.0366778
-0.0421524
-0.0478903
-0.0535778
-0.0589668
-0.0638912
-0.0682571
-0.0720208
-0.0751679
-0.0776982
-0.0796183
-0.0809379
-0.0816691
-0.0818267
-0.0814291
-0.0804986
-0.0790629
-0.0771558
-0.0748194
-0.0721056
-0.0690783
-0.0658149
-0.0624064
-0.0589541
-0.0555604
-0.0523121
-0.0492559
-0.0463783
-0.0436124
-0.0409069
-0.0383657
-0.0363826
-0.0356182
-0.0362594
-0.0222928
-0.0220679
-0.0224674
-0.023852
-0.026306
-0.0297967
-0.0341963
-0.0392798
-0.0447531
-0.0503094
-0.0556826
-0.060676
-0.0651622
-0.0690693
-0.0723617
-0.0750256
-0.0770591
-0.078467
-0.0792587
-0.0794478
-0.079052
-0.0780937
-0.0766011
-0.0746095
-0.0721629
-0.0693163
-0.0661377
-0.0627099
-0.0591306
-0.0555094
-0.0519594
-0.048581
-0.04544
-0.042547
-0.0398642
-0.0373714
-0.0351984
-0.0337037
-0.0333516
-0.0341594
-0.0219411
-0.0216482
-0.0217902
-0.0227198
-0.024598
-0.0274793
-0.0313122
-0.0359329
-0.0410851
-0.0464712
-0.0518089
-0.0568692
-0.0614884
-0.0655617
-0.069028
-0.0718558
-0.0740321
-0.075555
-0.0764303
-0.0766696
-0.0762898
-0.0753135
-0.0737695
-0.0716944
-0.0691343
-0.0661468
-0.0628035
-0.0591919
-0.055415
-0.0515888
-0.0478339
-0.0442605
-0.0409474
-0.0379223
-0.0351679
-0.0326916
-0.0306729
-0.0295285
-0.029612
-0.030592
-0.0214974
-0.0211651
-0.0210611
-0.0214998
-0.0227271
-0.0249098
-0.0280918
-0.0321778
-0.0369516
-0.0421262
-0.0474039
-0.0525236
-0.057283
-0.0615412
-0.0652079
-0.0682301
-0.0705803
-0.0722481
-0.0732341
-0.0735475
-0.0732043
-0.072227
-0.0706453
-0.068497
-0.0658299
-0.0627041
-0.0591936
-0.0553889
-0.0513961
-0.0473344
-0.0433278
-0.0394906
-0.0359074
-0.0326135
-0.0295987
-0.0268783
-0.0246731
-0.0235331
-0.0238747
-0.0248968
-0.0210022
-0.0206572
-0.0203226
-0.0202422
-0.0207507
-0.0221524
-0.024607
-0.0280952
-0.0324408
-0.0373666
-0.0425599
-0.047728
-0.0526299
-0.0570867
-0.0609759
-0.06422
-0.0667746
-0.0686181
-0.0697451
-0.0701613
-0.0698816
-0.0689283
-0.067332
-0.0651318
-0.0623768
-0.0591284
-0.055462
-0.0514683
-0.047253
-0.0429336
-0.0386312
-0.0344568
-0.0304913
-0.0267657
-0.0232592
-0.0199631
-0.0170897
-0.0153371
-0.0154147
-0.0160937
-0.0204886
-0.0201517
-0.0195963
-0.0189729
-0.0187075
-0.0192634
-0.0209339
-0.0237809
-0.0276661
-0.0323184
-0.0374093
-0.0426155
-0.0476585
-0.0523217
-0.0564493
-0.0599378
-0.0627236
-0.0647726
-0.0660717
-0.0666226
-0.0664385
-0.0655418
-0.0639638
-0.0617445
-0.058934
-0.0555939
-0.0517982
-0.0476347
-0.0432034
-0.0386132
-0.0339736
-0.0293816
-0.024902
-0.0205463
-0.0162614
-0.011976
-0.00781188
-0.0045322
-0.00334603
-0.00291709
-0.0199849
-0.0196654
-0.0188816
-0.0176884
-0.0166125
-0.0162888
-0.0171532
-0.0193488
-0.022769
-0.027144
-0.0321273
-0.0373664
-0.0425481
-0.0474201
-0.0517949
-0.0555427
-0.0585802
-0.06086
-0.0623602
-0.0630782
-0.0630251
-0.0622233
-0.0607045
-0.0585094
-0.0556882
-0.0523004
-0.0484162
-0.0441154
-0.0394858
-0.0346187
-0.0296007
-0.0245001
-0.019348
-0.014114
-0.00868477
-0.00288695
0.00333683
0.00933304
0.0133284
0.0160844
-0.0195255
-0.0192099
-0.0181582
-0.0163589
-0.0144597
-0.0132683
-0.0133551
-0.0149344
-0.0179221
-0.022043
-0.026931
-0.0322064
-0.0375253
-0.0426042
-0.0472269
-0.0512397
-0.0545405
-0.0570685
-0.0587934
-0.0597076
-0.0598202
-0.0591529
-0.0577378
-0.0556153
-0.052834
-0.0494496
-0.0455242
-0.0411246
-0.0363188
-0.0311704
-0.0257285
-0.020014
-0.0139974
-0.00757146
-0.000518905
0.00748327
0.0167395
0.0269035
0.0358137
0.0425937
-0.0191842
-0.018809
-0.0174024
-0.014947
-0.0122417
-0.0102506
-0.00964975
-0.0107013
-0.0133299
-0.0172487
-0.0220718
-0.027396
-0.0328521
-0.0381315
-0.0429947
-0.0472674
-0.0508314
-0.0536139
-0.0555766
-0.0567069
-0.0570117
-0.0565117
-0.055238
-0.0532299
-0.0505326
-0.0471952
-0.0432686
-0.0388013
-0.0338347
-0.0283937
-0.0224748
-0.0160255
-0.00891876
-0.00091261
0.00838685
0.0195406
0.0331585
0.0493339
0.0659533
0.0791554
-0.0191621
-0.0185537
-0.016634
-0.0134547
-0.00999052
-0.00732442
-0.00618548
-0.00684771
-0.00922687
-0.0130198
-0.0178227
-0.0232139
-0.0288063
-0.0342733
-0.039358
-0.0438707
-0.0476806
-0.0507048
-0.0528983
-0.054244
-0.054746
-0.0544233
-0.0533056
-0.0514294
-0.0488354
-0.0455641
-0.0416531
-0.0371289
-0.0320014
-0.0262457
-0.0197908
-0.0124775
-0.00403724
0.00599762
0.0183031
0.0338667
0.0537343
0.0785766
0.106901
0.130935
-0.0200248
-0.018752
-0.016045
-0.0120256
-0.00785338
-0.00466541
-0.00317062
-0.00360758
-0.00586258
-0.00961173
-0.0144366
-0.0199044
-0.0256177
-0.0312396
-0.0365031
-0.0412089
-0.0452175
-0.0484392
-0.0508237
-0.0523502
-0.0530204
-0.0528509
-0.0518699
-0.0501101
-0.0476076
-0.0443927
-0.0404904
-0.0359007
-0.0306023
-0.0245067
-0.0174691
-0.00917972
0.000802349
0.0132976
0.0293685
0.0507852
0.0793114
0.11694
0.163139
0.209221
-0.0233227
-0.0201372
-0.0161526
-0.0110589
-0.00617202
-0.00256896
-0.000850121
-0.00117304
-0.00337751
-0.00711672
-0.0119623
-0.0174772
-0.0232613
-0.0289747
-0.0343466
-0.0391729
-0.0433098
-0.046663
-0.0491788
-0.0508332
-0.0516258
-0.0515708
-0.0506944
-0.0490247
-0.0465941
-0.0434215
-0.0395208
-0.0348636
-0.0294002
-0.0229713
-0.0153613
-0.00608501
0.00547351
0.0205814
0.0407404
0.0689464
0.1081
0.163997
0.237606
0.336997
-0.0354448
-0.0215468
-0.0151899
-0.00956097
-0.00455186
-0.000944304
0.000754812
0.000420172
-0.0017822
-0.005511
-0.0103465
-0.0158596
-0.0216552
-0.0273961
-0.0328111
-0.0376945
-0.0418997
-0.0453295
-0.0479271
-0.049666
-0.0505433
-0.0505712
-0.049773
-0.0481745
-0.0458021
-0.0426694
-0.0387768
-0.0340817
-0.028502
-0.0218421
-0.0138083
-0.00382117
0.00892703
0.0259728
0.0493446
0.0831094
0.132308
0.209802
0.329928
0.575107
