# vtk DataFile Version 2.0
u_velocity
ASCII
DATASET RECTILINEAR_GRID
DIMENSIONS 42 41 1
X_COORDINATES 42 double
0 0.0162584 0.0484728 0.0800925 0.111137 0.141626 0.171579 0.201014 0.229949 0.258404 0.286394 0.313939 0.341055 0.367758 0.394067 0.419997 0.445565 0.470786 0.495676 0.520251 0.544526 0.568516 0.592237 0.615703 0.638929 0.661929 0.684717 0.707309 0.729718 0.751958 0.774042 0.795986 0.817802 0.839504 0.861106 0.882621 0.904062 0.925444 0.946779 0.968081 0.989362 1 
Y_COORDINATES 41 double
0 0.025 0.05 0.075 0.1 0.125 0.15 0.175 0.2 0.225 0.25 0.275 0.3 0.325 0.35 0.375 0.4 0.425 0.45 0.475 0.5 0.525 0.55 0.575 0.6 0.625 0.65 0.675 0.7 0.725 0.75 0.775 0.8 0.825 0.85 0.875 0.9 0.925 0.95 0.975 1 
Z_COORDINATES 1 double
0.0

CELL_DATA 1640
SCALARS u_velocity double 1
LOOKUP_TABLE default
0
0.000674666
0.00156547
0.00209507
0.00210204
0.00159914
0.000620512
-0.000833645
-0.00279151
-0.00527929
-0.00829046
-0.0117647
-0.0155777
-0.0195404
-0.0234086
-0.026901
-0.0297254
-0.0316093
-0.0323312
-0.0317494
-0.0298237
-0.026627
-0.0223458
-0.0172664
-0.0117494
-0.00619206
-0.00098469
0.00353386
0.007114
0.00961915
0.0110308
0.0114344
0.0109909
0.00990011
0.00836786
0.00658235
0.00470883
0.00290556
0.00135858
0.000311562
0
0
0.00113012
0.00230415
0.00250426
0.00139544
-0.00107479
-0.00489581
-0.0100721
-0.0166031
-0.0244208
-0.0333337
-0.0429997
-0.0529352
-0.0625547
-0.0712323
-0.0783697
-0.0834576
-0.0861197
-0.0861382
-0.0834626
-0.0782054
-0.0706315
-0.06114
-0.0502414
-0.0385283
-0.0266387
-0.0152117
-0.00483779
0.00399082
0.0109242
0.0157832
0.0185668
0.0194348
0.0186702
0.016631
0.0137045
0.0102793
0.00674462
0.00351642
0.00107438
0
0
0.000911682
0.00126598
2.27224e-05
-0.00319807
-0.00851366
-0.0159524
-0.0254911
-0.0370037
-0.0501867
-0.06452
-0.0792902
-0.0936686
-0.106817
-0.117987
-0.126585
-0.132201
-0.134604
-0.133726
-0.129642
-0.122545
-0.112741
-0.100637
-0.0867367
-0.0716311
-0.0559789
-0.0404793
-0.0258291
-0.0126706
-0.00153555
0.00720507
0.0133735
0.0169937
0.0182726
0.0175617
0.0153082
0.0120134
0.00820981
0.00446826
0.00144441
0
0
0.000183739
-0.00112969
-0.00469523
-0.0108329
-0.0196889
-0.0312899
-0.0455057
-0.0619713
-0.080042
-0.0988331
-0.11734
-0.13459
-0.149762
-0.162241
-0.171625
-0.177683
-0.180317
-0.179524
-0.17538
-0.168028
-0.157685
-0.144648
-0.129317
-0.112198
-0.0939088
-0.0751651
-0.0567447
-0.0394332
-0.0239531
-0.0108899
-0.000631316
0.00666671
0.0110807
0.0128906
0.0125334
0.0105539
0.00756926
0.00426023
0.00140769
0
0
-0.000957735
-0.00459757
-0.0111364
-0.0207542
-0.0335751
-0.0495475
-0.0683342
-0.0892505
-0.111309
-0.133378
-0.154379
-0.173432
-0.189911
-0.203415
-0.213712
-0.220681
-0.224268
-0.224459
-0.22127
-0.214747
-0.204978
-0.192115
-0.176402
-0.158206
-0.138045
-0.116596
-0.0946828
-0.0732254
-0.0531605
-0.0353359
-0.0204067
-0.00875982
-0.000486252
0.00459817
0.00689952
0.006984
0.00552718
0.00328796
0.00111672
0
0
-0.00244649
-0.00888818
-0.0188057
-0.0321841
-0.0490668
-0.0692372
-0.0920781
-0.116588
-0.14155
-0.16578
-0.188311
-0.208466
-0.22582
-0.240133
-0.251285
-0.259226
-0.263941
-0.265425
-0.263664
-0.258631
-0.250296
-0.238645
-0.223721
-0.205672
-0.184807
-0.161647
-0.136954
-0.11171
-0.0870531
-0.0641442
-0.0440081
-0.0273801
-0.0146138
-0.00567383
-0.000200041
0.00239855
0.0028592
0.00200985
0.00074278
0
0
-0.00420252
-0.0137186
-0.0271575
-0.0442764
-0.0649805
-0.0888216
-0.11489
-0.141948
-0.168703
-0.194057
-0.217218
-0.237688
-0.255195
-0.269631
-0.280999
-0.289365
-0.294815
-0.297413
-0.297172
-0.294039
-0.287893
-0.278558
-0.265848
-0.24962
-0.229857
-0.206765
-0.180851
-0.152984
-0.124377
-0.09648
-0.0707739
-0.0485194
-0.0305325
-0.0170805
-0.00792499
-0.0024609
0.000130664
0.000769749
0.000411593
0
0
-0.00610957
-0.0187482
-0.0355877
-0.05614
-0.0801266
-0.106839
-0.135118
-0.163596
-0.19101
-0.21639
-0.239098
-0.258782
-0.275323
-0.288785
-0.29935
-0.307258
-0.312739
-0.31597
-0.317034
-0.315897
-0.312398
-0.306254
-0.297081
-0.284444
-0.267945
-0.247337
-0.222666
-0.194416
-0.163596
-0.131738
-0.100721
-0.0724591
-0.0484984
-0.0297069
-0.0161832
-0.00740022
-0.00245636
-0.000293334
0.000174525
0
0
-0.00801478
-0.0235937
-0.0434715
-0.0669061
-0.0934078
-0.122018
-0.151393
-0.180121
-0.207009
-0.231211
-0.252231
-0.269886
-0.284263
-0.295649
-0.304434
-0.311033
-0.315819
-0.319075
-0.320965
-0.321511
-0.32058
-0.31787
-0.312909
-0.305075
-0.29365
-0.277925
-0.257362
-0.231803
-0.201691
-0.168227
-0.133364
-0.0995561
-0.0692527
-0.0442998
-0.0255303
-0.0127531
-0.00506864
-0.00124904
1.06085e-05
0
0
-0.00974396
-0.0278661
-0.050221
-0.0758054
-0.103911
-0.133364
-0.162703
-0.190522
-0.215722
-0.23759
-0.255813
-0.270439
-0.281808
-0.290432
-0.296878
-0.301684
-0.305303
-0.308076
-0.310223
-0.31183
-0.312838
-0.313024
-0.311966
-0.309032
-0.303376
-0.293985
-0.279808
-0.259963
-0.234046
-0.202456
-0.166652
-0.129151
-0.0931342
-0.0616599
-0.0367959
-0.0191608
-0.00811421
-0.00230697
-0.000148003
0
0
-0.0111249
-0.0312144
-0.0553423
-0.0822357
-0.110977
-0.140228
-0.168469
-0.194348
-0.21689
-0.235571
-0.250325
-0.261479
-0.269617
-0.275426
-0.279569
-0.282615
-0.285015
-0.287097
-0.289084
-0.2911
-0.293166
-0.295181
-0.296883
-0.297799
-0.297187
-0.294013
-0.286981
-0.27467
-0.255819
-0.229745
-0.196834
-0.15892
-0.11927
-0.0819437
-0.0505851
-0.0272469
-0.0120433
-0.00371119
-0.000380151
0
0
-0.0120111
-0.0333629
-0.0584789
-0.0858065
-0.114244
-0.142348
-0.168604
-0.191768
-0.211045
-0.226168
-0.237362
-0.245222
-0.250517
-0.254017
-0.256383
-0.25813
-0.259629
-0.261137
-0.262832
-0.264829
-0.267198
-0.269951
-0.273003
-0.276121
-0.278836
-0.28035
-0.279476
-0.274637
-0.264028
-0.24598
-0.219543
-0.185183
-0.145313
-0.104197
-0.0668715
-0.0373365
-0.0171753
-0.00565036
-0.000746664
0
0
-0.0123007
-0.0341357
-0.0594348
-0.0863564
-0.113652
-0.13984
-0.163482
-0.183498
-0.19934
-0.211028
-0.219074
-0.224273
-0.227485
-0.229464
-0.230791
-0.231863
-0.232937
-0.23417
-0.235666
-0.237507
-0.239768
-0.242522
-0.245816
-0.24963
-0.253796
-0.257886
-0.261073
-0.262023
-0.258869
-0.249397
-0.23153
-0.204129
-0.167954
-0.126334
-0.0848109
-0.0493124
-0.0236183
-0.00822123
-0.00128082
0
0
-0.011947
-0.0334659
-0.0581751
-0.0839402
-0.109409
-0.133136
-0.153823
-0.17061
-0.183222
-0.191963
-0.197561
-0.200918
-0.202883
-0.204119
-0.205075
-0.206017
-0.207083
-0.208339
-0.209819
-0.21156
-0.213616
-0.216071
-0.219032
-0.222608
-0.226859
-0.231696
-0.236736
-0.241114
-0.243318
-0.241148
-0.231953
-0.21329
-0.184027
-0.145618
-0.102794
-0.0625787
-0.0312605
-0.0114363
-0.00199516
0
0
-0.0109607
-0.0313905
-0.0548082
-0.0787913
-0.101929
-0.122878
-0.140534
-0.154286
-0.164122
-0.170572
-0.174485
-0.176768
-0.178181
-0.179251
-0.180291
-0.181444
-0.182759
-0.184232
-0.185851
-0.187615
-0.189549
-0.191717
-0.194226
-0.197227
-0.200894
-0.205367
-0.210629
-0.216323
-0.221497
-0.22439
-0.222385
-0.212365
-0.191654
-0.159523
-0.118767
-0.0760893
-0.0397727
-0.0152361
-0.00288965
0
0
-0.00940447
-0.0280346
-0.049554
-0.0712685
-0.0917455
-0.109798
-0.124546
-0.135623
-0.143237
-0.148053
-0.150944
-0.152738
-0.154059
-0.155296
-0.156637
-0.15814
-0.159793
-0.16156
-0.163404
-0.165301
-0.167251
-0.169288
-0.171485
-0.173975
-0.17695
-0.180647
-0.185278
-0.190886
-0.197086
-0.202755
-0.205751
-0.202932
-0.190738
-0.166573
-0.130813
-0.0884967
-0.0486085
-0.0194843
-0.00395169
0
0
-0.00738217
-0.0235897
-0.0427071
-0.0618001
-0.0794373
-0.0946192
-0.106699
-0.115524
-0.121449
-0.125183
-0.127537
-0.129208
-0.130677
-0.132203
-0.133887
-0.135732
-0.137703
-0.139753
-0.14184
-0.143934
-0.14602
-0.148102
-0.150214
-0.152439
-0.154929
-0.157918
-0.161707
-0.166574
-0.172584
-0.179246
-0.185114
-0.187493
-0.182616
-0.166656
-0.137742
-0.0984774
-0.0570495
-0.023962
-0.00515104
0
0
-0.00502605
-0.0182912
-0.0346021
-0.0508354
-0.0655661
-0.0779914
-0.0876842
-0.0946573
-0.0993355
-0.102389
-0.104508
-0.10624
-0.107927
-0.109732
-0.111697
-0.113806
-0.116019
-0.118296
-0.120603
-0.122914
-0.125207
-0.127469
-0.129698
-0.131928
-0.134245
-0.136827
-0.139954
-0.143997
-0.149287
-0.155844
-0.162932
-0.168565
-0.169294
-0.160744
-0.139333
-0.105111
-0.0643401
-0.0283852
-0.00643728
0
0
-0.00248347
-0.0123973
-0.0255853
-0.038809
-0.0506398
-0.0604586
-0.0680309
-0.0734799
-0.0772314
-0.079857
-0.0818953
-0.0837401
-0.0856178
-0.0876232
-0.0897715
-0.092043
-0.0944096
-0.0968466
-0.0993336
-0.101852
-0.104382
-0.1069
-0.109385
-0.111829
-0.11426
-0.116778
-0.119593
-0.123052
-0.127594
-0.13357
-0.140836
-0.148179
-0.152796
-0.150342
-0.136169
-0.108085
-0.0698796
-0.0324487
-0.00774243
0
0
9.49361e-05
-0.0061733
-0.0159954
-0.0261209
-0.0350966
-0.0424561
-0.0481222
-0.0522803
-0.0553048
-0.0576315
-0.0596347
-0.061567
-0.0635624
-0.0656719
-0.0679023
-0.0702445
-0.072688
-0.0752254
-0.0778505
-0.0805543
-0.0833214
-0.0861278
-0.0889419
-0.091732
-0.0944831
-0.0972268
-0.100087
-0.103329
-0.10738
-0.112744
-0.119698
-0.127723
-0.134798
-0.137019
-0.129274
-0.107643
-0.0733678
-0.0358842
-0.00899014
0
0
0.00256535
0.000119759
-0.00615401
-0.0131292
-0.0193055
-0.0243246
-0.0282302
-0.0312325
-0.0336226
-0.035684
-0.0376291
-0.0395849
-0.0416123
-0.0437352
-0.0459631
-0.0483032
-0.0507643
-0.0533555
-0.0560833
-0.058948
-0.0619401
-0.0650386
-0.0682106
-0.0714144
-0.0746101
-0.0777816
-0.0809768
-0.0843643
-0.0882911
-0.0932776
-0.0998376
-0.107994
-0.116501
-0.122131
-0.11979
-0.104385
-0.0748302
-0.03852
-0.0101108
0
0
0.00479899
0.00623261
0.00363721
-0.000153281
-0.00357846
-0.00633519
-0.00855241
-0.0104429
-0.0122017
-0.0139607
-0.0157815
-0.0176797
-0.0196562
-0.0217163
-0.0238763
-0.0261603
-0.0285953
-0.0312053
-0.0340077
-0.0370106
-0.0402109
-0.0435927
-0.0471266
-0.0507707
-0.0544759
-0.0581994
-0.0619354
-0.0657659
-0.069933
-0.0748898
-0.0812325
-0.0893449
-0.0986546
-0.106705
-0.108762
-0.0990598
-0.0745447
-0.0403192
-0.0110556
0
0
0.00668906
0.0119325
0.0130941
0.0125169
0.0118128
0.0112849
0.0107526
0.0100104
0.00895404
0.00758962
0.00599064
0.00424048
0.00239235
0.000458044
-0.00158364
-0.00377133
-0.00614735
-0.0087486
-0.0116021
-0.014723
-0.0181144
-0.0217664
-0.0256561
-0.0297471
-0.0339916
-0.0383378
-0.0427487
-0.0472428
-0.0519625
-0.057254
-0.0636862
-0.0718365
-0.0816543
-0.0914395
-0.0970337
-0.0924088
-0.0729347
-0.0413802
-0.0118063
0
0
0.00815651
0.0170067
0.0219453
0.0246077
0.0266171
0.028326
0.0295352
0.0300462
0.0298271
0.0289979
0.0277476
0.0262485
0.0246065
0.0228551
0.0209742
0.018916
0.0166265
0.0140581
0.0111751
0.00795533
0.00438943
0.000480394
-0.00375674
-0.00829451
-0.0130931
-0.018103
-0.0232755
-0.02859
-0.0341094
-0.0400669
-0.046939
-0.0553608
-0.0656409
-0.0767538
-0.085224
-0.085078
-0.0704748
-0.0419102
-0.0123831
0
0
0.00915476
0.0212673
0.0299272
0.0358489
0.0405853
0.0445739
0.0476293
0.0495556
0.0503652
0.0502598
0.0495203
0.0483975
0.0470516
0.0455451
0.0438684
0.0419724
0.0397965
0.037285
0.0343942
0.0310949
0.0273707
0.0232168
0.0186392
0.0136543
0.00829029
0.00258684
-0.00340886
-0.00965757
-0.0161677
-0.023072
-0.030727
-0.0397283
-0.0505923
-0.0628506
-0.0737429
-0.0775809
-0.0676277
-0.0421944
-0.0128581
0
0
0.00967235
0.0245565
0.0367819
0.0459611
0.0534532
0.0597906
0.0648327
0.0683817
0.0704622
0.0713195
0.0712977
0.0707129
0.0697797
0.0685988
0.0671817
0.0654881
0.0634574
0.0610294
0.0581544
0.0547956
0.0509291
0.046541
0.0416267
0.0361906
0.0302465
0.0238203
0.0169493
0.00967621
0.00202503
-0.00605827
-0.0148072
-0.0247173
-0.0363871
-0.0497757
-0.0628221
-0.0702895
-0.0648086
-0.0425729
-0.013373
0
0
0.00973236
0.0267541
0.0422587
0.0546478
0.0649279
0.0736998
0.0808918
0.0863036
0.0899409
0.0920513
0.0930078
0.0931732
0.0928133
0.092073
0.0909962
0.0895623
0.0877193
0.0854082
0.0825758
0.0791791
0.0751854
0.0705713
0.0653205
0.0594235
0.0528789
0.045696
0.0378978
0.0295208
0.0206045
0.0111514
0.00103905
-0.0100973
-0.0228421
-0.0374577
-0.0525406
-0.0634334
-0.0623606
-0.0434241
-0.014165
0
0
0.00938678
0.0277857
0.0461214
0.0615921
0.074678
0.0859767
0.0954923
0.103026
0.108539
0.11224
0.114493
0.115683
0.116115
0.115981
0.115365
0.114277
0.112685
0.110536
0.10778
0.104369
0.100264
0.0954289
0.0898369
0.0834637
0.0762916
0.0683125
0.0595326
0.0499772
0.0396901
0.0287117
0.0170128
0.00436757
-0.00972724
-0.0257273
-0.0428351
-0.057088
-0.0605239
-0.0451419
-0.0155923
0
0
0.00870528
0.0276285
0.0481606
0.0664614
0.0823294
0.0962416
0.108255
0.118173
0.125898
0.131563
0.135484
0.138036
0.139546
0.140247
0.140267
0.139656
0.138407
0.136488
0.133855
0.130459
0.126258
0.121206
0.115265
0.108396
0.100565
0.0917475
0.0819319
0.0711308
0.0593863
0.046764
0.0333087
0.0189274
0.00323845
-0.0143149
-0.0334895
-0.05114
-0.059376
-0.048083
-0.018146
0
0
0.00775896
0.0263094
0.0482078
0.06892
0.0874698
0.104061
0.118738
0.131297
0.141567
0.149585
0.15558
0.159885
0.162823
0.164655
0.165549
0.165597
0.164829
0.163238
0.160794
0.157457
0.153182
0.147921
0.141624
0.13424
0.125721
0.116027
0.105132
0.0930361
0.0797788
0.0654431
0.0501315
0.0338679
0.0164096
-0.00282771
-0.0241013
-0.0452231
-0.0587242
-0.0524493
-0.0224106
0
0
0.00659976
0.0238864
0.0461437
0.0686475
0.0896627
0.108957
0.126448
0.141884
0.155015
0.165761
0.174245
0.18072
0.185482
0.188795
0.190861
0.191808
0.191706
0.190581
0.188424
0.185212
0.180904
0.175452
0.168802
0.160896
0.151676
0.141088
0.129099
0.1157
0.100931
0.0848898
0.067723
0.0495485
0.0302584
0.00929662
-0.0140289
-0.0386282
-0.0579432
-0.0580763
-0.0289232
0
0
0.00523145
0.0203982
0.0418824
0.0653569
0.0884737
0.110428
0.130856
0.149383
0.165654
0.179467
0.190821
0.199873
0.206862
0.212036
0.215609
0.217741
0.218538
0.218059
0.216327
0.213337
0.209064
0.203468
0.196497
0.188092
0.178191
0.166741
0.153704
0.139074
0.122897
0.105286
0.0864175
0.0664739
0.0454558
0.0228706
-0.00231638
-0.0302034
-0.055778
-0.0641156
-0.037888
0
0
0.00355903
0.0157671
0.0353107
0.058794
0.0835044
0.107988
0.131435
0.153232
0.172876
0.190032
0.204574
0.216553
0.226134
0.233529
0.238948
0.242568
0.244525
0.24491
0.243777
0.241148
0.237021
0.23137
0.224157
0.215334
0.20485
0.19266
0.178739
0.163096
0.145792
0.126952
0.106765
0.0854371
0.0630249
0.0391057
0.0124239
-0.0182584
-0.0501671
-0.068668
-0.048759
0
0
0.00129491
0.00964023
0.0261618
0.0487001
0.0744265
0.101231
0.127722
0.152918
0.176105
0.196799
0.214751
0.229909
0.24236
0.252269
0.259826
0.265215
0.268588
0.270067
0.269735
0.267646
0.263826
0.258277
0.250988
0.241938
0.231104
0.218473
0.204047
0.187866
0.170005
0.150596
0.129807
0.107812
0.0846413
0.0599064
0.0322464
-0.000441414
-0.0381454
-0.0684786
-0.0598
0
0
-0.00219677
0.00118088
0.0138335
0.0347231
0.0609857
0.0898866
0.11938
0.148028
0.174839
0.199163
0.220629
0.239092
0.254568
0.267172
0.27707
0.28444
0.289447
0.292236
0.292925
0.291602
0.288335
0.283171
0.276145
0.267285
0.256617
0.244176
0.230008
0.214182
0.19678
0.177915
0.157679
0.136155
0.113224
0.0884547
0.060397
0.02658
-0.0157837
-0.0587782
-0.0677543
0
0
-0.00810826
-0.0111157
-0.00275306
0.0163503
0.0430337
0.0739291
0.106356
0.138408
0.1688
0.196703
0.221636
0.243372
0.261866
0.277196
0.28951
0.298984
0.305805
0.31015
0.312178
0.312032
0.309835
0.305695
0.299707
0.291961
0.282538
0.271522
0.258987
0.245019
0.229663
0.212983
0.194923
0.175428
0.154078
0.130327
0.102414
0.0680337
0.022172
-0.0330848
-0.0675426
0
0
-0.0183147
-0.0293185
-0.0250977
-0.00717823
0.0203708
0.0534298
0.0887484
0.124035
0.15777
0.188996
0.217157
0.24199
0.263431
0.281552
0.296507
0.308496
0.317735
0.324439
0.328813
0.331048
0.331312
0.329763
0.326536
0.321761
0.315538
0.307978
0.299131
0.289079
0.277772
0.265228
0.251153
0.235397
0.21705
0.195496
0.168142
0.133149
0.0837717
0.0177437
-0.0511979
0
0
-0.0344413
-0.0535725
-0.052222
-0.0343233
-0.00530422
0.0300916
0.0683152
0.106906
0.144237
0.179289
0.211467
0.240478
0.266236
0.288796
0.308294
0.32492
0.338881
0.350391
0.359652
0.366859
0.372182
0.375787
0.377803
0.378369
0.377565
0.375509
0.372198
0.367722
0.361903
0.354778
0.345763
0.334754
0.320183
0.30157
0.274901
0.23886
0.183875
0.108566
-0.0034212
0
0
-0.0477247
-0.0546667
-0.036794
-0.00617455
0.0315086
0.0729839
0.116009
0.158959
0.200667
0.240324
0.277406
0.311605
0.342782
0.370917
0.396078
0.418386
0.437997
0.455084
0.469822
0.48239
0.492953
0.501673
0.508689
0.514142
0.518124
0.520751
0.522031
0.522035
0.520584
0.517654
0.512625
0.505242
0.493788
0.47744
0.451632
0.41437
0.353255
0.267495
0.114805
0
0
0.128601
0.233669
0.310691
0.370394
0.419791
0.462881
0.501801
0.537598
0.570718
0.601304
0.629374
0.654916
0.67794
0.698491
0.716658
0.732557
0.746335
0.758144
0.768154
0.776518
0.783403
0.788939
0.793286
0.796524
0.798812
0.800137
0.800673
0.800213
0.798985
0.796338
0.792641
0.786186
0.777704
0.762835
0.743296
0.707439
0.659757
0.56199
0.425401
0
