# vtk DataFile Version 2.0
v_velocity
ASCII
DATASET RECTILINEAR_GRID
DIMENSIONS 41 42 1
X_COORDINATES 41 double
0 0.0325168 0.0644289 0.0957562 0.126518 0.156734 0.186424 0.215604 0.244295 0.272513 0.300276 0.327602 0.354507 0.38101 0.407125 0.43287 0.45826 0.483312 0.50804 0.532462 0.556591 0.580442 0.604032 0.627374 0.650483 0.673374 0.696061 0.718557 0.740878 0.763037 0.785048 0.806924 0.82868 0.850328 0.871883 0.893358 0.914766 0.936121 0.957436 0.978725 1 
Y_COORDINATES 42 double
0 0.0125 0.0375 0.0625 0.0875 0.1125 0.1375 0.1625 0.1875 0.2125 0.2375 0.2625 0.2875 0.3125 0.3375 0.3625 0.3875 0.4125 0.4375 0.4625 0.4875 0.5125 0.5375 0.5625 0.5875 0.6125 0.6375 0.6625 0.6875 0.7125 0.7375 0.7625 0.7875 0.8125 0.8375 0.8625 0.8875 0.9125 0.9375 0.9625 0.9875 1 
Z_COORDINATES 1 double
0.0

CELL_DATA 1640
SCALARS v_velocity double 1
LOOKUP_TABLE default
0
0
0
0
0
0
0
0
0
0
0
0
0
0
0
0
0
0
0
0
0
0
0
0
0
0
0
0
0
0
0
0
0
0
0
0
0
0
0
0
-0.000518709
-0.000697857
-0.000422632
-5.66464e-06
0.000416081
0.000824065
0.00124583
0.00170604
0.00220407
0.00271147
0.00317855
0.00354291
0.00373809
0.00370295
0.00339137
0.00278103
0.00188001
0.00072984
-0.000595569
-0.00199528
-0.00335055
-0.00453719
-0.00544008
-0.00596841
-0.00606944
-0.00573837
-0.00502136
-0.00400989
-0.00282636
-0.00160335
-0.000461293
0.000509724
0.0012596
0.00177714
0.0020786
0.00218784
0.00211106
0.00181443
0.00122956
0.000366109
-0.00138758
-0.0016176
-0.000582327
0.000895462
0.00245988
0.00404159
0.00568054
0.00739694
0.00913026
0.0107373
0.0120218
0.0127747
0.0128123
0.0120099
0.0103223
0.0077907
0.00453661
0.000748611
-0.00333465
-0.00744218
-0.011289
-0.0145962
-0.0171128
-0.0186398
-0.0190546
-0.0183306
-0.0165496
-0.0138982
-0.0106487
-0.0071223
-0.00364234
-0.000487672
0.00214252
0.00414222
0.00548551
0.00618775
0.00624902
0.00560072
0.00409735
0.00162859
-0.00208851
-0.00189516
0.000409827
0.00351296
0.00685785
0.0103054
0.0138527
0.0174288
0.0208099
0.023644
0.0255348
0.0261347
0.0252156
0.0227029
0.0186716
0.0133199
0.00693471
-0.000138195
-0.00751612
-0.0147954
-0.0215652
-0.0274238
-0.0319999
-0.0349814
-0.036149
-0.0354108
-0.03283
-0.0286362
-0.0232116
-0.01705
-0.0106916
-0.0046477
0.000665557
0.0049668
0.00810892
0.0100353
0.0107018
0.0099891
0.00764839
0.00332589
-0.00222978
-0.00086621
0.00325521
0.00850098
0.0141851
0.0200742
0.0260318
0.0317764
0.0368197
0.0405648
0.0424668
0.042163
0.0395268
0.0346496
0.0277841
0.0192847
0.0095626
-0.00093951
-0.0117582
-0.0224125
-0.032407
-0.0412396
-0.04842
-0.0535012
-0.0561232
-0.0560658
-0.0533002
-0.0480256
-0.0406766
-0.0318874
-0.0224149
-0.0130341
-0.00443179
0.00286761
0.00852483
0.0123469
0.0141959
0.0138702
0.0109983
0.00498004
-0.00149344
0.00198524
0.00847337
0.0163172
0.0247927
0.0335239
0.042127
0.0500023
0.0563629
0.0604374
0.0616799
0.0598666
0.0550714
0.0475767
0.0377834
0.0261467
0.0131419
-0.000746337
-0.0150225
-0.0291707
-0.0426461
-0.0548718
-0.0652494
-0.0731857
-0.0781419
-0.0797018
-0.0776521
-0.0720587
-0.0633142
-0.0521328
-0.0394759
-0.0264178
-0.0139862
-0.00302943
0.00584572
0.0122483
0.0159014
0.0164965
0.013548
0.00629226
0.000387508
0.00703168
0.0163878
0.0271897
0.038761
0.0505086
0.0616956
0.0713594
0.0784786
0.0822552
0.0822932
0.0785939
0.0714418
0.0612787
0.0486128
0.0339657
0.0178477
0.000753837
-0.0168255
-0.0343851
-0.0513825
-0.0672193
-0.0812336
-0.092712
-0.10093
-0.105223
-0.105093
-0.100332
-0.0911329
-0.078153
-0.0624872
-0.0455255
-0.0287289
-0.0133982
-0.000526582
0.00921369
0.0153621
0.0174927
0.015036
0.00716509
0.00361855
0.0144866
0.0271124
0.041102
0.055891
0.0705843
0.0840292
0.0949374
0.102183
0.105085
0.103483
0.0976142
0.0879566
0.0750981
0.0596518
0.0422036
0.0232865
0.00338005
-0.0170721
-0.037631
-0.0578251
-0.0771118
-0.0948465
-0.110268
-0.122513
-0.13067
-0.133891
-0.131544
-0.123408
-0.109839
-0.0918638
-0.0710987
-0.0495004
-0.0290002
-0.011185
0.00283287
0.0123282
0.0167431
0.0154566
0.00764874
0.00831579
0.0243877
0.0405508
0.0578046
0.0757367
0.093078
0.108256
0.119753
0.12647
0.127939
0.124258
0.115904
0.10356
0.0879847
0.0699117
0.0499896
0.0287567
0.00664652
-0.0159832
-0.0388091
-0.0614919
-0.0836231
-0.104672
-0.123939
-0.140532
-0.15338
-0.161307
-0.163186
-0.158178
-0.146025
-0.127309
-0.103575
-0.0771705
-0.050795
-0.0269286
-0.00742365
0.00654047
0.0142062
0.0149072
0.00785382
0.0144778
0.0365923
0.0564138
0.0768496
0.0976635
0.11717
0.133423
0.144785
0.150292
0.149733
0.143488
0.132308
0.117123
0.0988838
0.0784425
0.0564878
0.0335331
0.00993812
-0.0140492
-0.0382434
-0.0624676
-0.086495
-0.109985
-0.132414
-0.15301
-0.170708
-0.184158
-0.191813
-0.192151
-0.184034
-0.16715
-0.142425
-0.112165
-0.079736
-0.0487791
-0.0223445
-0.0024556
0.00972625
0.0134279
0.00786629
0.0219693
0.0507892
0.0742536
0.0976418
0.120917
0.141971
0.158558
0.169026
0.172617
0.169425
0.16016
0.145899
0.127848
0.107139
0.0847021
0.06122
0.0371444
0.0127418
-0.0118517
-0.0365784
-0.0614102
-0.0862989
-0.111117
-0.135587
-0.159187
-0.181057
-0.199913
-0.214039
-0.221392
-0.219914
-0.208067
-0.185518
-0.153758
-0.116241
-0.0777244
-0.0429383
-0.0153877
0.00291506
0.0108925
0.00769237
0.0305225
0.0665273
0.0935083
0.119498
0.144697
0.166602
0.182753
0.191576
0.192588
0.186247
0.173658
0.156263
0.135525
0.112699
0.0887249
0.0642198
0.0395391
0.014847
-0.00981728
-0.0344898
-0.059245
-0.0841635
-0.109294
-0.134597
-0.159855
-0.184554
-0.207728
-0.227828
-0.24266
-0.24953
-0.245676
-0.229086
-0.199546
-0.159532
-0.11423
-0.070192
-0.0331864
-0.00685748
0.00698077
0.00724567
0.0397571
0.0832543
0.113552
0.141706
0.168226
0.190267
0.205248
0.21176
0.209668
0.199864
0.1839
0.163566
0.140519
0.116049
0.0910227
0.0659398
0.041035
0.0163722
-0.00808307
-0.0324205
-0.0567613
-0.0812466
-0.106025
-0.131224
-0.156891
-0.182885
-0.2087
-0.233248
-0.254629
-0.270029
-0.275889
-0.26857
-0.245589
-0.20722
-0.157683
-0.104682
-0.0567888
-0.0203749
0.00122213
0.00636828
0.0492143
0.10036
0.133741
0.163585
0.190809
0.212319
0.225503
0.229202
0.223702
0.21039
0.191261
0.168397
0.143549
0.117944
0.0923106
0.0669958
0.0421064
0.0176188
-0.00655132
-0.0305131
-0.054391
-0.0783284
-0.102497
-0.127098
-0.152341
-0.178378
-0.205158
-0.232184
-0.258188
-0.280787
-0.296307
-0.300057
-0.287364
-0.255493
-0.206021
-0.146136
-0.0868686
-0.0384338
-0.0069283
0.00486321
0.0583995
0.117218
0.153459
0.184524
0.211881
0.232299
0.243226
0.24383
0.234876
0.21826
0.196382
0.171517
0.145402
0.119127
0.093239
0.0679236
0.0431707
0.018888
-0.00503623
-0.0287098
-0.0522358
-0.0757267
-0.0993255
-0.123228
-0.147698
-0.173048
-0.199557
-0.227281
-0.255701
-0.283251
-0.306815
-0.321504
-0.321157
-0.300041
-0.255874
-0.193098
-0.123532
-0.0616852
-0.0180155
0.00251874
0.0668265
0.133223
0.172147
0.204015
0.231025
0.24994
0.258352
0.255812
0.243591
0.224068
0.199962
0.173638
0.146734
0.120152
0.0942483
0.0690598
0.0444823
0.0203773
-0.00337881
-0.0268822
-0.0502084
-0.0734294
-0.0966385
-0.119982
-0.143693
-0.168119
-0.193709
-0.220904
-0.249863
-0.279965
-0.309106
-0.333018
-0.345074
-0.337307
-0.303321
-0.242936
-0.166048
-0.0904636
-0.0325144
-0.000876826
0.074057
0.147817
0.189321
0.221662
0.247967
0.265141
0.270987
0.265464
0.250337
0.228404
0.202607
0.175305
0.147981
0.121336
0.0955505
0.0705397
0.0461324
0.0221636
-0.00149174
-0.0249167
-0.0481637
-0.0712712
-0.094285
-0.117288
-0.140444
-0.164046
-0.188562
-0.214623
-0.242867
-0.273527
-0.305682
-0.336258
-0.359156
-0.365335
-0.34495
-0.292353
-0.212744
-0.124623
-0.0507551
-0.00552037
0.0797326
0.160515
0.204577
0.237179
0.262559
0.277925
0.281336
0.273154
0.255586
0.231766
0.204761
0.176858
0.149366
0.122797
0.0971854
0.0723571
0.0480994
0.0242357
0.000644622
-0.0227469
-0.0459774
-0.0690651
-0.0920229
-0.114881
-0.137724
-0.160752
-0.184352
-0.209171
-0.236087
-0.26596
-0.298977
-0.333524
-0.364787
-0.383847
-0.378609
-0.338205
-0.261244
-0.16343
-0.0728456
-0.0115733
0.0835968
0.170906
0.217593
0.250371
0.274747
0.288388
0.28964
0.279231
0.259731
0.234516
0.2067
0.178467
0.150957
0.124525
0.0990943
0.0744336
0.0503076
0.0265374
0.0030066
-0.0203524
-0.0435737
-0.0666687
-0.0896349
-0.112469
-0.135193
-0.157907
-0.180876
-0.204644
-0.230119
-0.258511
-0.290877
-0.327051
-0.363946
-0.393763
-0.403534
-0.378169
-0.308973
-0.205601
-0.09862
-0.0191376
0.0855062
0.178673
0.228118
0.261118
0.284536
0.296656
0.296128
0.283979
0.263055
0.23688
0.208565
0.180181
0.152728
0.126444
0.10118
0.0766702
0.0526693
0.0290011
0.00555254
-0.017743
-0.0409222
-0.0640001
-0.0869735
-0.109825
-0.132538
-0.155133
-0.177748
-0.20077
-0.224994
-0.251725
-0.282573
-0.318612
-0.358614
-0.39661
-0.420034
-0.410964
-0.3537
-0.249503
-0.127634
-0.0282355
0.0854332
0.183584
0.235956
0.269347
0.291962
0.302853
0.300982
0.287602
0.265734
0.238975
0.210397
0.181977
0.154611
0.128464
0.103346
0.0789763
0.0551078
0.0315663
0.00823982
-0.0149416
-0.0380219
-0.061026
-0.0839595
-0.106807
-0.129533
-0.152109
-0.17457
-0.197138
-0.220423
-0.245632
-0.274626
-0.30939
-0.350443
-0.394034
-0.429051
-0.436224
-0.393825
-0.293467
-0.159216
-0.0387997
0.0834609
0.185499
0.240962
0.275015
0.297072
0.30708
0.304328
0.290218
0.267852
0.240831
0.212177
0.183794
0.156523
0.130496
0.10551
0.0812805
0.0575638
0.034186
0.0110323
-0.0119736
-0.0348858
-0.0577422
-0.0805622
-0.103341
-0.126043
-0.148614
-0.171019
-0.193344
-0.215992
-0.239969
-0.26713
-0.300018
-0.34062
-0.387504
-0.431775
-0.454214
-0.428424
-0.336054
-0.192579
-0.0506806
0.0797713
0.184376
0.243034
0.278096
0.299906
0.309401
0.306228
0.291866
0.26941
0.242415
0.213843
0.185558
0.158388
0.132468
0.107607
0.0835295
0.0599938
0.0368246
0.0139011
-0.00886227
-0.0315315
-0.0541582
-0.0767773
-0.0993984
-0.121997
-0.144511
-0.166868
-0.189054
-0.211291
-0.234338
-0.259882
-0.290696
-0.329869
-0.378168
-0.42938
-0.465544
-0.457124
-0.376197
-0.226944
-0.0636718
0.0746285
0.180269
0.242107
0.278565
0.300488
0.309846
0.306684
0.292512
0.270346
0.243644
0.215306
0.187184
0.160131
0.13432
0.10959
0.0856835
0.0623649
0.0394544
0.0168222
-0.00562866
-0.0279768
-0.0502878
-0.0726114
-0.0949727
-0.117361
-0.139722
-0.161966
-0.18402
-0.205966
-0.228328
-0.252531
-0.28133
-0.318531
-0.366819
-0.422867
-0.470945
-0.479922
-0.413206
-0.261674
-0.0775451
0.0683575
0.173335
0.238166
0.276401
0.298826
0.308407
0.305648
0.292067
0.27054
0.244391
0.216449
0.188577
0.16168
0.135997
0.111416
0.0877101
0.0646497
0.042051
0.0197735
-0.00229263
-0.0242393
-0.0461451
-0.0680733
-0.0900637
-0.11212
-0.134201
-0.156218
-0.178068
-0.199739
-0.221562
-0.244678
-0.271652
-0.306659
-0.35393
-0.413007
-0.471116
-0.497018
-0.446709
-0.296349
-0.0920963
0.061319
0.163846
0.231255
0.271589
0.294907
0.305048
0.30303
0.290389
0.269823
0.244485
0.217126
0.18962
0.162949
0.137439
0.113045
0.0895769
0.066821
0.0445901
0.0227328
0.00112578
-0.0203358
-0.0417429
-0.0631705
-0.0846709
-0.106262
-0.127916
-0.149555
-0.171069
-0.192394
-0.21372
-0.235929
-0.261309
-0.294113
-0.339712
-0.400327
-0.466634
-0.50867
-0.476539
-0.3308
-0.107205
0.0538826
0.152186
0.221499
0.264129
0.288709
0.299712
0.29871
0.287296
0.267979
0.243713
0.217146
0.190164
0.16383
0.138569
0.114421
0.0912445
0.0688476
0.0470447
0.025676
0.00460574
-0.0162831
-0.0370924
-0.0579073
-0.07879
-0.0997702
-0.120834
-0.141919
-0.162923
-0.183762
-0.204539
-0.225931
-0.249921
-0.280637
-0.324184
-0.385139
-0.457913
-0.515086
-0.502619
-0.365091
-0.12292
0.0464
0.138851
0.209126
0.25406
0.280203
0.292325
0.292549
0.28258
0.264757
0.241813
0.216271
0.19001
0.164169
0.139278
0.115466
0.0926564
0.0706868
0.0493811
0.0285755
0.00812512
-0.0120973
-0.0322024
-0.0522835
-0.0724105
-0.0926226
-0.112919
-0.133253
-0.153541
-0.173703
-0.193802
-0.214375
-0.237124
-0.265919
-0.307232
-0.36758
-0.445193
-0.516342
-0.524829
-0.399451
-0.139565
0.0391831
0.124437
0.194493
0.241488
0.269376
0.282811
0.284396
0.276016
0.259873
0.23848
0.214209
0.188905
0.163762
0.139406
0.116064
0.0937272
0.0722762
0.0515529
0.0313969
0.0116592
-0.00779372
-0.0270788
-0.0462943
-0.0655158
-0.0847896
-0.104126
-0.123496
-0.142838
-0.162096
-0.181332
-0.201006
-0.222593
-0.249642
-0.288675
-0.347664
-0.428549
-0.51232
-0.54287
-0.434153
-0.157887
0.0324902
0.109613
0.178108
0.226615
0.256247
0.271096
0.274104
0.267373
0.253029
0.233379
0.210622
0.186534
0.162337
0.138735
0.116044
0.0943294
0.0735222
0.0534928
0.034093
0.015177
-0.00338959
-0.0217256
-0.0399312
-0.0580847
-0.0762373
-0.0944091
-0.112588
-0.130741
-0.148846
-0.166996
-0.185629
-0.206067
-0.231525
-0.268316
-0.325342
-0.407937
-0.502678
-0.556116
-0.469309
-0.17921
0.0265249
0.0950804
0.160633
0.209782
0.2409
0.257125
0.261529
0.25643
0.24393
0.22616
0.205136
0.182534
0.159565
0.136982
0.115176
0.0942822
0.0742886
0.0551017
0.0365949
0.0186341
0.00109093
-0.0161499
-0.0331867
-0.0500967
-0.0669338
-0.0837265
-0.100481
-0.117193
-0.133889
-0.150713
-0.168131
-0.187378
-0.211364
-0.246004
-0.300576
-0.383272
-0.486872
-0.563475
-0.504585
-0.205544
0.0214508
0.081538
0.142871
0.191494
0.223512
0.240878
0.246544
0.242979
0.232297
0.216483
0.197375
0.176518
0.155073
0.13381
0.11317
0.0933496
0.07439
0.0562399
0.0388023
0.0219627
0.00560638
-0.0103724
-0.0260647
-0.0415438
-0.0568636
-0.0720597
-0.0871566
-0.102186
-0.117226
-0.132494
-0.148513
-0.166493
-0.189087
-0.221692
-0.273422
-0.354545
-0.464261
-0.563319
-0.53882
-0.239531
0.0174287
0.0696564
0.125726
0.172416
0.204386
0.222392
0.229043
0.226836
0.217881
0.204045
0.186987
0.168106
0.14848
0.128857
0.1097
0.0912504
0.0735947
0.056724
0.0405753
0.0250604
0.0100849
-0.00444154
-0.0185982
-0.0324508
-0.0460512
-0.0594421
-0.0726682
-0.0857993
-0.0989752
-0.112491
-0.12695
-0.143575
-0.164815
-0.195497
-0.244101
-0.32198
-0.434321
-0.55354
-0.569621
-0.284053
0.0146924
0.0600926
0.110129
0.153332
0.183942
0.201775
0.208955
0.207842
0.200478
0.188596
0.173683
0.156976
0.139442
0.121778
0.104438
0.0876859
0.0716422
0.0563348
0.0417348
0.0277837
0.0144113
0.00154707
-0.0108732
-0.0229059
-0.0346007
-0.0460092
-0.057198
-0.0682788
-0.079452
-0.0910927
-0.103881
-0.119067
-0.138933
-0.167755
-0.213039
-0.28615
-0.396966
-0.531841
-0.593001
-0.341348
0.0136968
0.0535548
0.0969448
0.135015
0.162656
0.179204
0.18626
0.185886
0.179936
0.169962
0.157259
0.142892
0.127697
0.112292
0.0970994
0.0823806
0.0682757
0.0548399
0.0420741
0.029948
0.018416
0.00742764
-0.00306662
-0.0131155
-0.0227687
-0.0320896
-0.0411676
-0.0501547
-0.0593013
-0.0690481
-0.0801225
-0.0937922
-0.112175
-0.139067
-0.180839
-0.247978
-0.352826
-0.496264
-0.603192
-0.411618
0.0153857
0.0509088
0.0868477
0.118038
0.140927
0.154867
0.160992
0.160923
0.156183
0.148059
0.13762
0.125736
0.113098
0.100226
0.0874878
0.0751246
0.0632787
0.0520198
0.0413695
0.0313184
0.0218405
0.0129001
0.00445854
-0.00353024
-0.0111175
-0.0183804
-0.025423
-0.0324292
-0.0396683
-0.0476208
-0.056997
-0.0690584
-0.0856938
-0.110339
-0.148175
-0.208487
-0.303231
-0.445837
-0.592651
-0.491235
0.0216196
0.0532648
0.080174
0.102513
0.11885
0.128852
0.133211
0.132993
0.129257
0.122933
0.114809
0.10554
0.0956519
0.0855502
0.0755309
0.0657958
0.0564716
0.0476274
0.039293
0.0314695
0.0241437
0.0172876
0.0108718
0.00484925
-0.000825576
-0.00624187
-0.0114929
-0.0167839
-0.0223434
-0.0286759
-0.0363579
-0.0466564
-0.0610384
-0.0827923
-0.11568
-0.168339
-0.249542
-0.381027
-0.552186
-0.570603
0.0357006
0.0618852
0.0768058
0.0879503
0.0960571
0.101014
0.102952
0.102245
0.0993693
0.0948155
0.0890446
0.0824662
0.0754265
0.0682033
0.0610082
0.0539909
0.0472519
0.0408494
0.0348152
0.0291545
0.023867
0.0189289
0.0143285
0.0100148
0.00597056
0.00208962
-0.00166138
-0.00552531
-0.00958709
-0.0144278
-0.0202732
-0.0285516
-0.0398503
-0.0577936
-0.0838365
-0.127476
-0.191736
-0.303584
-0.471225
-0.630764
0.0621802
0.0768727
0.075728
0.0734043
0.0720475
0.0712086
0.0702049
0.0686184
0.0662947
0.0632524
0.0596057
0.0555101
0.0511281
0.0466077
0.0420736
0.0376205
0.0333196
0.0292133
0.0253346
0.0216874
0.0182876
0.0151089
0.0121695
0.00940233
0.00684801
0.00435532
0.00201816
-0.000511492
-0.00302268
-0.00633452
-0.00997105
-0.0159014
-0.0230237
-0.0362057
-0.0527898
-0.0853874
-0.127367
-0.215256
-0.339713
-0.634785
0.0988725
0.0823111
0.0614652
0.0485202
0.0408696
0.036284
0.033344
0.0311929
0.0293432
0.0275419
0.0256804
0.023733
0.0217187
0.0196737
0.0176408
0.015655
0.0137493
0.0119394
0.0102468
0.00866554
0.00721648
0.00586705
0.00465577
0.00350347
0.00249878
0.00146023
0.000595711
-0.000515466
-0.00138582
-0.00300675
-0.00422403
-0.00741786
-0.00979596
-0.0172443
-0.0227463
-0.0418737
-0.0558201
-0.114669
-0.160402
-0.49988
0
0
0
0
0
0
0
0
0
0
0
0
0
0
0
0
0
0
0
0
0
0
0
0
0
0
0
0
0
0
0
0
0
0
0
0
0
0
0
0
