# vtk DataFile Version 2.0
pressure
ASCII
DATASET RECTILINEAR_GRID
DIMENSIONS 41 41 1
X_COORDINATES 41 double
0 0.0325168 0.0644289 0.0957562 0.126518 0.156734 0.186424 0.215604 0.244295 0.272513 0.300276 0.327602 0.354507 0.38101 0.407125 0.43287 0.45826 0.483312 0.50804 0.532462 0.556591 0.580442 0.604032 0.627374 0.650483 0.673374 0.696061 0.718557 0.740878 0.763037 0.785048 0.806924 0.82868 0.850328 0.871883 0.893358 0.914766 0.936121 0.957436 0.978725 1 
Y_COORDINATES 41 double
0 0.025 0.05 0.075 0.1 0.125 0.15 0.175 0.2 0.225 0.25 0.275 0.3 0.325 0.35 0.375 0.4 0.425 0.45 0.475 0.5 0.525 0.55 0.575 0.6 0.625 0.65 0.675 0.7 0.725 0.75 0.775 0.8 0.825 0.85 0.875 0.9 0.925 0.95 0.975 1 
Z_COORDINATES 1 double
0.0

CELL_DATA 1600
SCALARS pressure double 1
LOOKUP_TABLE default
0
-0.000103934
-0.000307752
-0.00057689
-0.000881077
-0.00120382
-0.00153461
-0.00186325
-0.00217725
-0.0024614
-0.0026987
-0.00287192
-0.00296562
-0.00296821
-0.00287401
-0.00268489
-0.00241133
-0.00207248
-0.00169531
-0.00131261
-0.000960132
-0.000673107
-0.000482638
-0.000412395
-0.00047611
-0.00067624
-0.00100396
-0.00144047
-0.00195936
-0.00252963
-0.00311881
-0.00369581
-0.00423303
-0.00470759
-0.00510179
-0.00540308
-0.00560416
-0.00570449
-0.00571486
-0.00566911
4.45813e-05
-5.55798e-05
-0.000235873
-0.000472976
-0.000743561
-0.00103457
-0.00133717
-0.00164246
-0.00193947
-0.00221476
-0.00245306
-0.00263849
-0.00275623
-0.00279443
-0.00274619
-0.0026113
-0.00239747
-0.00212074
-0.0018049
-0.00147976
-0.00117852
-0.000934394
-0.000777037
-0.000729201
-0.000804157
-0.00100428
-0.00132104
-0.00173625
-0.00222456
-0.00275647
-0.00330155
-0.00383122
-0.00432085
-0.00475087
-0.00510708
-0.00538021
-0.00556542
-0.00566198
-0.00567363
-0.00562198
0.000160085
4.33112e-05
-0.000130391
-0.000345926
-0.000589876
-0.000855352
-0.00113721
-0.00142907
-0.00172194
-0.00200396
-0.00226076
-0.00247652
-0.0026354
-0.00272351
-0.00273101
-0.0026543
-0.0024976
-0.00227382
-0.00200428
-0.00171718
-0.00144505
-0.00122129
-0.00107637
-0.00103418
-0.00110919
-0.00130472
-0.00161276
-0.00201527
-0.00248672
-0.00299742
-0.00351707
-0.00401781
-0.00447651
-0.0048759
-0.00520462
-0.00545634
-0.00562826
-0.0057193
-0.00572786
-0.00566901
0.000335375
0.000185527
2.73771e-06
-0.000204025
-0.000433305
-0.000686203
-0.000962782
-0.00126006
-0.00157123
-0.00188537
-0.00218779
-0.00246087
-0.00268563
-0.002844
-0.00292147
-0.00290979
-0.00280918
-0.00262952
-0.00239037
-0.00211961
-0.00185073
-0.00161925
-0.00145855
-0.00139584
-0.00144877
-0.00162325
-0.00191293
-0.0023003
-0.00275932
-0.0032591
-0.00376789
-0.00425671
-0.00470209
-0.00508736
-0.00540265
-0.00564358
-0.00580909
-0.00589856
-0.00590895
-0.00585331
0.000542054
0.000348385
0.000145925
-6.33091e-05
-0.000291697
-0.00054946
-0.000842493
-0.00117154
-0.00153166
-0.00191202
-0.00229603
-0.00266228
-0.00298653
-0.00324453
-0.00341546
-0.00348526
-0.00344931
-0.00331411
-0.00309744
-0.00282712
-0.00253831
-0.0022698
-0.00205951
-0.00194006
-0.00193466
-0.00205437
-0.00229676
-0.00264669
-0.00307867
-0.00356079
-0.0040592
-0.00454247
-0.00498498
-0.00536877
-0.00568373
-0.0059261
-0.00609592
-0.00619366
-0.00621707
-0.00617861
0.00074631
0.000503195
0.000274113
5.16697e-05
-0.000192188
-0.000477288
-0.000815514
-0.00121104
-0.00166018
-0.0021509
-0.00266295
-0.00316908
-0.0036377
-0.00403651
-0.00433667
-0.00451682
-0.00456621
-0.00448675
-0.00429341
-0.00401325
-0.00368291
-0.00334488
-0.00304296
-0.00281731
-0.00269976
-0.00271
-0.00285329
-0.00312022
-0.00348851
-0.00392673
-0.00439923
-0.00487124
-0.00531327
-0.00570385
-0.00603029
-0.00628743
-0.00647496
-0.00659383
-0.00664288
-0.00663373
0.000909516
0.000615197
0.000354639
0.00010752
-0.000171328
-0.00051162
-0.000930885
-0.00143624
-0.00202419
-0.00268005
-0.00337804
-0.00408309
-0.00475425
-0.0053492
-0.00582919
-0.0061636
-0.00633353
-0.00633421
-0.00617587
-0.00588312
-0.00549292
-0.00505118
-0.00460831
-0.00421406
-0.00391216
-0.00373537
-0.00370181
-0.00381302
-0.00405454
-0.00439876
-0.00480984
-0.00524956
-0.00568292
-0.00608226
-0.00642924
-0.00671428
-0.00693414
-0.00708831
-0.00717543
-0.00720535
0.00098892
0.000644349
0.000348056
6.31507e-05
-0.00027384
-0.000702378
-0.00124531
-0.00191189
-0.00269772
-0.00358384
-0.00453717
-0.00551281
-0.00645848
-0.00731975
-0.00804572
-0.00859409
-0.00893524
-0.00905508
-0.00895646
-0.00865914
-0.00819839
-0.00762222
-0.00698738
-0.00635435
-0.00578159
-0.00531958
-0.00500535
-0.00485849
-0.00487932
-0.00504996
-0.00533827
-0.00570389
-0.00610522
-0.00650548
-0.00687664
-0.00720048
-0.00746693
-0.00767079
-0.00780797
-0.00788512
0.000939173
0.000546991
0.000210279
-0.000127874
-0.000549664
-0.00110419
-0.00181908
-0.00270503
-0.00375551
-0.00494578
-0.00623354
-0.00756216
-0.00886583
-0.0100757
-0.0111263
-0.0119612
-0.0125372
-0.0128286
-0.0128281
-0.012548
-0.0120192
-0.0112896
-0.0104202
-0.00948165
-0.00854818
-0.00769128
-0.00697279
-0.00643835
-0.00611237
-0.00599583
-0.00606755
-0.00628932
-0.00661353
-0.00699167
-0.00738128
-0.0077498
-0.00807493
-0.00834213
-0.00854105
-0.00867318
0.000714757
0.000278601
-0.000104355
-0.00051355
-0.00104983
-0.00177145
-0.00271051
-0.00387832
-0.00526505
-0.00683847
-0.00854518
-0.0103145
-0.0120648
-0.0137104
-0.0151688
-0.0163672
-0.0172475
-0.0177704
-0.017917
-0.0176901
-0.0171136
-0.0162316
-0.0151065
-0.0138154
-0.0124462
-0.0110916
-0.00984148
-0.00877452
-0.00794956
-0.00739857
-0.0071232
-0.0070963
-0.00726868
-0.00757938
-0.0079668
-0.00837714
-0.00876862
-0.00911114
-0.00938334
-0.00957891
0.000273243
-0.000202783
-0.000638989
-0.00113896
-0.00182113
-0.0027525
-0.00396904
-0.00548198
-0.00727671
-0.00931166
-0.0115199
-0.0138142
-0.0160943
-0.0182554
-0.0201963
-0.0218271
-0.0230747
-0.0238863
-0.0242317
-0.0241036
-0.0235173
-0.0225102
-0.0211407
-0.0194868
-0.017644
-0.0157212
-0.0138346
-0.0120987
-0.0106149
-0.00945928
-0.00867239
-0.00825338
-0.00816229
-0.00832989
-0.00867274
-0.0091085
-0.00956682
-0.00999372
-0.0103506
-0.0106196
-0.000421075
-0.00093255
-0.00142992
-0.00204114
-0.00290062
-0.00408315
-0.00562809
-0.00754532
-0.0098138
-0.0123801
-0.0151609
-0.0180493
-0.0209238
-0.0236587
-0.0261337
-0.0282427
-0.0298996
-0.0310412
-0.0316282
-0.0316451
-0.0310986
-0.0300174
-0.0284513
-0.026472
-0.0241733
-0.0216703
-0.0190967
-0.0165978
-0.0143194
-0.0123915
-0.0109103
-0.00992255
-0.00941686
-0.00932841
-0.00955501
-0.00998028
-0.0104951
-0.0110109
-0.0114634
-0.0118175
-0.00139348
-0.00193568
-0.00250211
-0.00324435
-0.00431011
-0.00578092
-0.0076983
-0.0100694
-0.0128642
-0.0160145
-0.019417
-0.0229421
-0.0264447
-0.0297775
-0.0328025
-0.0354004
-0.0374762
-0.038961
-0.0398117
-0.0400082
-0.0395513
-0.0384607
-0.0367751
-0.0345535
-0.0318779
-0.0288562
-0.0256246
-0.0223456
-0.0192005
-0.0163736
-0.0140288
-0.0122823
-0.011179
-0.0106825
-0.0106856
-0.0110386
-0.0115842
-0.0121866
-0.0127443
-0.0131966
-0.00265572
-0.00322328
-0.00386562
-0.00475587
-0.00605198
-0.00784025
-0.0101629
-0.0130221
-0.016376
-0.0201378
-0.0241812
-0.0283506
-0.0324766
-0.0363909
-0.0399406
-0.042998
-0.0454649
-0.0472733
-0.0483817
-0.0487711
-0.0484404
-0.0474032
-0.0456871
-0.043335
-0.0404095
-0.0369989
-0.0332243
-0.029245
-0.025258
-0.0214885
-0.0181671
-0.0154948
-0.0136017
-0.012515
-0.0121507
-0.0123381
-0.0128685
-0.0135449
-0.0142144
-0.0147786
-0.00420375
-0.00479033
-0.00551294
-0.00656361
-0.00810645
-0.0102304
-0.0129759
-0.0163376
-0.0202583
-0.0246297
-0.0292989
-0.0340832
-0.0387887
-0.0432291
-0.0472408
-0.0506932
-0.0534913
-0.0555735
-0.0569064
-0.0574771
-0.0572877
-0.0563499
-0.0546831
-0.0523152
-0.0492866
-0.0456581
-0.0415215
-0.0370114
-0.032314
-0.0276694
-0.0233564
-0.0196591
-0.0168133
-0.0149474
-0.0140434
-0.0139397
-0.014384
-0.0151082
-0.0158907
-0.0165797
-0.00601689
-0.0066147
-0.0074183
-0.00863521
-0.0104315
-0.0128955
-0.0160636
-0.0199197
-0.0243885
-0.029337
-0.0345844
-0.039921
-0.0451304
-0.0500121
-0.0543973
-0.0581578
-0.0612071
-0.063495
-0.0650001
-0.0657201
-0.0656641
-0.0648467
-0.0632839
-0.0609928
-0.0579948
-0.0543222
-0.0500305
-0.0452139
-0.0400234
-0.0346808
-0.02948
-0.0247651
-0.0208768
-0.0180733
-0.0164505
-0.0159043
-0.0161652
-0.0168936
-0.0177828
-0.0186067
-0.00805842
-0.0086579
-0.00953841
-0.0109195
-0.0129646
-0.0157582
-0.0193297
-0.0236496
-0.0286223
-0.0340889
-0.0398408
-0.0456431
-0.0512611
-0.0564846
-0.0611446
-0.06512
-0.0683361
-0.0707571
-0.0723754
-0.0732014
-0.0732539
-0.0725538
-0.0711185
-0.0689609
-0.0660895
-0.0625139
-0.0582553
-0.0533625
-0.0479348
-0.0421474
-0.0362696
-0.0306651
-0.025753
-0.021925
-0.0194305
-0.0182817
-0.0182399
-0.0189101
-0.0198889
-0.0208537
-0.0102777
-0.0108673
-0.0118153
-0.0133499
-0.0156272
-0.018725
-0.0226627
-0.0273956
-0.032807
-0.0387127
-0.0448785
-0.051048
-0.056973
-0.0624386
-0.0672793
-0.0713841
-0.0746919
-0.0771814
-0.0788588
-0.0797469
-0.079875
-0.079272
-0.0779608
-0.0759554
-0.0732598
-0.0698703
-0.0657824
-0.0610047
-0.0555818
-0.0496249
-0.043346
-0.0370814
-0.0312817
-0.0264453
-0.0229891
-0.021095
-0.02062
-0.0211522
-0.0221921
-0.0232976
-0.0126137
-0.0131802
-0.0141805
-0.0158489
-0.0183305
-0.0216931
-0.0259442
-0.0310233
-0.0367934
-0.0430474
-0.0495296
-0.0559672
-0.062103
-0.0677217
-0.0726642
-0.0768304
-0.0801721
-0.0826811
-0.0843757
-0.0852893
-0.0854606
-0.0849268
-0.0837183
-0.0818546
-0.0793423
-0.076174
-0.0723317
-0.067796
-0.0625645
-0.0566832
-0.0502881
-0.043649
-0.0371935
-0.0314752
-0.0270577
-0.0243229
-0.0232915
-0.0235947
-0.0246554
-0.0258943
-0.014999
-0.0155277
-0.0165601
-0.0183342
-0.0209817
-0.0245579
-0.0290576
-0.0344049
-0.0404453
-0.0469528
-0.0536556
-0.0602696
-0.0665333
-0.0722337
-0.0772191
-0.0813995
-0.0847377
-0.0872354
-0.0889203
-0.0898336
-0.0900217
-0.0895291
-0.088394
-0.0866442
-0.0842934
-0.0813387
-0.0777602
-0.0735247
-0.0685982
-0.062972
-0.0567046
-0.0499778
-0.0431492
-0.0367653
-0.0314854
-0.0278859
-0.0262032
-0.0261853
-0.0272174
-0.0285754
-0.017365
-0.0178406
-0.0188803
-0.0207248
-0.0234907
-0.0272201
-0.0318949
-0.0374262
-0.0436456
-0.0503141
-0.057149
-0.0638605
-0.070186
-0.0759161
-0.0809059
-0.0850734
-0.088389
-0.0908612
-0.0925235
-0.0934223
-0.093609
-0.0931342
-0.0920432
-0.0903726
-0.088146
-0.0853705
-0.0820329
-0.0780991
-0.0735204
-0.068251
-0.0622845
-0.0557114
-0.0487915
-0.0420079
-0.0360476
-0.0316404
-0.029259
-0.0288391
-0.0297884
-0.031245
-0.0196464
-0.0200539
-0.0210728
-0.022946
-0.0257756
-0.0295908
-0.0343622
-0.039991
-0.0462998
-0.0530427
-0.059932
-0.0666761
-0.0730138
-0.0787395
-0.083713
-0.087857
-0.0911459
-0.0935916
-0.0952297
-0.0961092
-0.0962846
-0.0958105
-0.0947384
-0.0931131
-0.0909692
-0.0883259
-0.0851825
-0.0815138
-0.0772705
-0.0723887
-0.0668165
-0.0605665
-0.053793
-0.0468781
-0.0404698
-0.0353847
-0.0323145
-0.0314352
-0.0322488
-0.0337793
-0.0217851
-0.0221112
-0.0230792
-0.0249348
-0.0277676
-0.0315964
-0.0363831
-0.0420232
-0.0483362
-0.0550748
-0.0619518
-0.0686771
-0.0749921
-0.0806937
-0.0856436
-0.0897657
-0.0930346
-0.0954616
-0.0970822
-0.0979452
-0.098106
-0.0976219
-0.0965493
-0.0949403
-0.0928395
-0.0902795
-0.0872743
-0.0838134
-0.0798572
-0.0753396
-0.0701846
-0.0643473
-0.057888
-0.0510722
-0.0444578
-0.0388741
-0.0351812
-0.0338167
-0.0344486
-0.0360269
-0.0237342
-0.0239682
-0.0248549
-0.0266428
-0.0294139
-0.0331804
-0.0379001
-0.0434677
-0.049705
-0.0563689
-0.0631772
-0.0698436
-0.0761121
-0.0817803
-0.0867087
-0.0908185
-0.0940807
-0.0965031
-0.098118
-0.0989722
-0.0991205
-0.0986214
-0.0975349
-0.0959191
-0.093828
-0.0913063
-0.0883833
-0.0850653
-0.0813289
-0.0771171
-0.0723475
-0.0669413
-0.0608853
-0.0543341
-0.0477276
-0.0418421
-0.0376353
-0.035793
-0.0362086
-0.0378099
-0.0254599
-0.0255948
-0.0263707
-0.0280386
-0.0306792
-0.0343049
-0.0388751
-0.0442891
-0.0503764
-0.0569031
-0.0635948
-0.0701708
-0.0763771
-0.0820095
-0.0869242
-0.0910359
-0.0943087
-0.0967439
-0.0983684
-0.0992251
-0.099367
-0.0988526
-0.0977442
-0.0961051
-0.0939967
-0.0914747
-0.0885827
-0.085344
-0.0817532
-0.0777695
-0.073317
-0.0683028
-0.0626654
-0.0564676
-0.0500262
-0.0440198
-0.0394293
-0.0371444
-0.0373219
-0.0389252
-0.0269426
-0.026976
-0.0276138
-0.029108
-0.0315462
-0.0349501
-0.0392882
-0.0444704
-0.0503391
-0.0566727
-0.0632072
-0.0696679
-0.0758016
-0.0814
-0.0863118
-0.0904419
-0.0937446
-0.096212
-0.0978635
-0.0987368
-0.0988815
-0.0983556
-0.0972223
-0.0955488
-0.0934029
-0.0908493
-0.0879438
-0.0847254
-0.0812065
-0.0773648
-0.0731386
-0.0684361
-0.06317
-0.0573366
-0.0511436
-0.0451515
-0.0403022
-0.0376263
-0.0375546
-0.0391435
-0.0281768
-0.0281115
-0.0285871
-0.0298533
-0.0320141
-0.0351124
-0.0391358
-0.0440114
-0.0495981
-0.0556893
-0.0620323
-0.0683579
-0.0744123
-0.079981
-0.084902
-0.0890681
-0.0924208
-0.0949409
-0.0966386
-0.0975447
-0.0977047
-0.0971746
-0.0960181
-0.0943047
-0.092107
-0.089497
-0.0865405
-0.0832892
-0.0797716
-0.0759832
-0.0718798
-0.0673794
-0.0623869
-0.0568573
-0.0509137
-0.0450022
-0.0399862
-0.0369696
-0.0366424
-0.0382047
-0.0291708
-0.0290146
-0.0293073
-0.0302905
-0.0320958
-0.0348022
-0.0384285
-0.042926
-0.0481733
-0.0539798
-0.0601033
-0.0662791
-0.0722508
-0.0777956
-0.0827389
-0.0869589
-0.0903821
-0.0929763
-0.0947408
-0.0956984
-0.0958893
-0.0953664
-0.0941928
-0.0924391
-0.0901812
-0.087496
-0.0844566
-0.0811245
-0.0775409
-0.0737166
-0.0696237
-0.0651946
-0.0603371
-0.054986
-0.0492078
-0.0433561
-0.038205
-0.0348757
-0.0342816
-0.0358063
-0.0299447
-0.0297102
-0.0298018
-0.0304458
-0.0318142
-0.0340405
-0.0371883
-0.041241
-0.046099
-0.0515865
-0.05747
-0.0634868
-0.0693763
-0.0749052
-0.0798847
-0.0841765
-0.0876913
-0.0903819
-0.0922355
-0.0932658
-0.0935064
-0.0930063
-0.0918266
-0.0900377
-0.0877166
-0.0849428
-0.0817937
-0.0783368
-0.0746216
-0.07067
-0.0664673
-0.0619592
-0.0570621
-0.0517045
-0.0459218
-0.0400072
-0.0346637
-0.0310011
-0.0301099
-0.0315811
-0.0305293
-0.0302327
-0.0301054
-0.0303507
-0.0311974
-0.0328541
-0.0354455
-0.038994
-0.0434227
-0.0485676
-0.0542001
-0.0600566
-0.0658692
-0.0713931
-0.076424
-0.0808065
-0.0844341
-0.0872443
-0.0892111
-0.090338
-0.0906509
-0.0901938
-0.0890242
-0.0872106
-0.0848287
-0.0819579
-0.078676
-0.0750521
-0.0711391
-0.066964
-0.0625199
-0.0577616
-0.0526134
-0.0470047
-0.0409582
-0.0347412
-0.0290283
-0.0249292
-0.0236718
-0.0250558
-0.0309658
-0.0306248
-0.0302561
-0.0300364
-0.0302725
-0.0312721
-0.0332364
-0.0362331
-0.0402061
-0.0449986
-0.0503815
-0.0560856
-0.0618337
-0.0673677
-0.0724675
-0.0769605
-0.080723
-0.0836767
-0.0857823
-0.087032
-0.0874434
-0.0870537
-0.0859156
-0.084093
-0.081658
-0.0786861
-0.0752509
-0.0714182
-0.0672375
-0.0627342
-0.057901
-0.0526943
-0.0470408
-0.0408708
-0.0342041
-0.0273101
-0.0208922
-0.0161226
-0.014359
-0.0155809
-0.0313071
-0.0309364
-0.0302915
-0.0295277
-0.0290606
-0.0293218
-0.0306024
-0.0330172
-0.0365268
-0.0409744
-0.0461237
-0.051695
-0.0573991
-0.0629635
-0.0681526
-0.0727771
-0.0766971
-0.0798188
-0.0820895
-0.0834901
-0.0840286
-0.0837343
-0.0826527
-0.0808413
-0.0783645
-0.07529
-0.0716823
-0.0675971
-0.0630732
-0.0581247
-0.0527337
-0.0468465
-0.0403816
-0.0332627
-0.0255068
-0.0174008
-0.00973392
-0.00385476
-0.00131531
-0.00221031
-0.0316262
-0.0312278
-0.0302457
-0.0288382
-0.0275728
-0.0270281
-0.0275908
-0.0294191
-0.0324814
-0.0366123
-0.0415605
-0.0470314
-0.0527206
-0.0583413
-0.0636429
-0.068421
-0.0725207
-0.0758341
-0.0782955
-0.0798743
-0.0805683
-0.0803977
-0.0793988
-0.0776192
-0.075113
-0.0719346
-0.068134
-0.0637492
-0.0587989
-0.0532746
-0.0471331
-0.0402942
-0.0326503
-0.0241029
-0.0146554
-0.00460935
0.0051252
0.0128753
0.0167063
0.016489
-0.0320365
-0.0315776
-0.0301487
-0.0279686
-0.0258114
-0.024417
-0.0242609
-0.0255309
-0.0281908
-0.0320555
-0.0368523
-0.0422666
-0.0479778
-0.0536848
-0.0591235
-0.0640763
-0.0683754
-0.0719003
-0.0745733
-0.0763527
-0.0772257
-0.0772018
-0.0763066
-0.0745754
-0.0720476
-0.0687605
-0.0647428
-0.0600068
-0.0545402
-0.0482974
-0.0411911
-0.0330915
-0.0238376
-0.0132807
-0.00138475
0.0115596
0.0245355
0.0354175
0.0415306
0.0427128
-0.0327427
-0.0321044
-0.0300342
-0.0269138
-0.0237804
-0.0215284
-0.0206953
-0.0214739
-0.023806
-0.0274767
-0.0321853
-0.0375952
-0.0433689
-0.0491922
-0.0547895
-0.0599326
-0.0644428
-0.0681893
-0.0710838
-0.0730739
-0.0741364
-0.0742697
-0.0734869
-0.0718091
-0.0692582
-0.06585
-0.0615859
-0.0564441
-0.0503691
-0.0432613
-0.0349669
-0.0252756
-0.0139343
-0.000697386
0.0145609
0.031619
0.0494435
0.0654594
0.0757496
0.0797673
-0.0341608
-0.0330193
-0.0299676
-0.0256909
-0.0215139
-0.0184398
-0.0170172
-0.0174081
-0.0195119
-0.0230742
-0.0277632
-0.0332199
-0.0390914
-0.0450521
-0.0508179
-0.0561525
-0.0608695
-0.0648296
-0.0679358
-0.0701268
-0.0713694
-0.071651
-0.0709719
-0.0693377
-0.0667506
-0.0632016
-0.0586596
-0.0530607
-0.0462947
-0.0381908
-0.0285043
-0.0169094
-0.00301123
0.0136027
0.0332389
0.0558603
0.0806124
0.104772
0.122796
0.132457
-0.0371978
-0.0347389
-0.0301199
-0.0244036
-0.0191267
-0.0152993
-0.0134047
-0.0135292
-0.0155093
-0.0190441
-0.0237702
-0.0293084
-0.0352932
-0.0413914
-0.0473134
-0.0528183
-0.0577146
-0.0618575
-0.0651438
-0.0675046
-0.0688985
-0.0693024
-0.0687043
-0.0670937
-0.0644522
-0.0607437
-0.0559013
-0.0498135
-0.0423068
-0.0331269
-0.0219178
-0.0082073
0.00859342
0.0291511
0.054099
0.0838039
0.117943
0.154424
0.186638
0.207636
-0.0438947
-0.0380121
-0.0307899
-0.023227
-0.0167768
-0.0122728
-0.0100266
-0.00999743
-0.0119392
-0.0155016
-0.0202927
-0.0259178
-0.0320039
-0.0382144
-0.0442582
-0.0498931
-0.0549255
-0.0592078
-0.0626325
-0.0651253
-0.0666372
-0.0671364
-0.0665986
-0.0649981
-0.0622962
-0.0584299
-0.0532966
-0.0467373
-0.038515
-0.0282902
-0.0155917
0.000211878
0.0199361
0.0445811
0.0752871
0.113186
0.15913
0.213024
0.270419
0.315796
-0.058788
-0.0431405
-0.0312847
-0.0214462
-0.0139645
-0.00905277
-0.00669285
-0.0066797
-0.00868938
-0.0123363
-0.0172147
-0.0229262
-0.0290985
-0.035398
-0.0415359
-0.0472717
-0.0524123
-0.0568086
-0.0603502
-0.0629583
-0.0645779
-0.0651691
-0.0646976
-0.0631243
-0.0603937
-0.0564205
-0.0510734
-0.0441553
-0.0353794
-0.024339
-0.0104708
0.00698964
0.0290641
0.0570969
0.092853
0.13862
0.197482
0.273481
0.371886
0.47627
-0.098202
-0.046947
-0.0276768
-0.0170106
-0.00982237
-0.00532717
-0.00332026
-0.00357641
-0.00578641
-0.00958422
-0.0145811
-0.0203924
-0.0266565
-0.0330467
-0.0392795
-0.0451169
-0.0503663
-0.0548779
-0.0585388
-0.0612671
-0.0630033
-0.0637021
-0.0633229
-0.0618188
-0.0591249
-0.055144
-0.04973
-0.0426673
-0.0336449
-0.022225
-0.00780029
0.0104608
0.0336977
0.0634905
0.10213
0.153163
0.222891
0.32359
0.486463
0.757533
