# vtk DataFile Version 2.0
u_velocity
ASCII
DATASET RECTILINEAR_GRID
DIMENSIONS 42 41 1
X_COORDINATES 42 double
0 0.0162584 0.0484728 0.0800925 0.111137 0.141626 0.171579 0.201014 0.229949 0.258404 0.286394 0.313939 0.341055 0.367758 0.394067 0.419997 0.445565 0.470786 0.495676 0.520251 0.544526 0.568516 0.592237 0.615703 0.638929 0.661929 0.684717 0.707309 0.729718 0.751958 0.774042 0.795986 0.817802 0.839504 0.861106 0.882621 0.904062 0.925444 0.946779 0.968081 0.989362 1 
Y_COORDINATES 41 double
0 0.025 0.05 0.075 0.1 0.125 0.15 0.175 0.2 0.225 0.25 0.275 0.3 0.325 0.35 0.375 0.4 0.425 0.45 0.475 0.5 0.525 0.55 0.575 0.6 0.625 0.65 0.675 0.7 0.725 0.75 0.775 0.8 0.825 0.85 0.875 0.9 0.925 0.95 0.975 1 
Z_COORDINATES 1 double
0.0

CELL_DATA 1640
SCALARS u_velocity double 1
LOOKUP_TABLE default
0
0.000324343
0.000524452
0.000384767
-8.90883e-05
-0.000842957
-0.00183297
-0.00303231
-0.00442138
-0.00597659
-0.00766258
-0.00942854
-0.0112078
-0.0129203
-0.0144767
-0.0157846
-0.016756
-0.0173144
-0.0174031
-0.0169907
-0.0160764
-0.0146917
-0.0128997
-0.010791
-0.00847763
-0.00608353
-0.00373514
-0.00155099
0.000367241
0.00194167
0.00312226
0.00388781
0.0042442
0.0042209
0.00386696
0.00324847
0.00244905
0.00157497
0.000763575
0.000185461
0
0
0.000325216
0.00017398
-0.000793959
-0.00256878
-0.00505207
-0.00814999
-0.011786
-0.0158844
-0.0203512
-0.0250612
-0.0298545
-0.0345399
-0.0389053
-0.0427312
-0.045807
-0.0479472
-0.0490069
-0.0488939
-0.0475769
-0.0450903
-0.0415323
-0.0370608
-0.0318828
-0.026242
-0.0204027
-0.0146327
-0.00918608
-0.00428656
-0.000114604
0.00320221
0.0055941
0.00704946
0.00761163
0.00737388
0.00647467
0.00509552
0.00346226
0.001848
0.000572635
0
0
-4.63418e-05
-0.00108745
-0.00334894
-0.00676648
-0.0112084
-0.0165478
-0.0226634
-0.0294172
-0.0366335
-0.0440897
-0.0515188
-0.0586213
-0.0650845
-0.0706044
-0.0749077
-0.0777712
-0.0790364
-0.0786194
-0.0765154
-0.0727987
-0.0676176
-0.061187
-0.0537773
-0.0457001
-0.0372927
-0.0288997
-0.020854
-0.0134588
-0.00696989
-0.00158196
0.00258085
0.00546985
0.00711183
0.00760549
0.00711621
0.005871
0.00415527
0.00231319
0.000756265
0
0
-0.000640065
-0.00294307
-0.00685579
-0.0121968
-0.0187885
-0.026474
-0.0350892
-0.0444319
-0.0542436
-0.0642085
-0.0739666
-0.0831364
-0.091341
-0.0982347
-0.103524
-0.106986
-0.108472
-0.107918
-0.10534
-0.100832
-0.0945617
-0.0867627
-0.0777263
-0.0677913
-0.0573306
-0.0467345
-0.0363927
-0.0266731
-0.0179012
-0.0103415
-0.00418196
0.000475725
0.00362072
0.00533183
0.00577254
0.00518437
0.00388125
0.0022491
0.000757862
0
0
-0.00137482
-0.00519044
-0.0110026
-0.0184615
-0.0273272
-0.0374095
-0.0485019
-0.0603398
-0.0725888
-0.0848551
-0.0967105
-0.107724
-0.117491
-0.125658
-0.131939
-0.136123
-0.138074
-0.137735
-0.135119
-0.130312
-0.123465
-0.114796
-0.104587
-0.0931754
-0.0809495
-0.068332
-0.0557628
-0.0436765
-0.0324763
-0.0225094
-0.0140437
-0.00725167
-0.00220021
0.00115121
0.00294632
0.00342418
0.00291111
0.0018172
0.000642745
0
0
-0.00220039
-0.00768221
-0.0155371
-0.0252129
-0.0363956
-0.0488582
-0.0623522
-0.0765572
-0.0910768
-0.105462
-0.119246
-0.131982
-0.143266
-0.152757
-0.160186
-0.165352
-0.16812
-0.168418
-0.166234
-0.161616
-0.154674
-0.145582
-0.134587
-0.122004
-0.108217
-0.0936705
-0.0788507
-0.0642631
-0.0504017
-0.0377153
-0.0265756
-0.0172497
-0.00988303
-0.00449244
-0.00096888
0.000912745
0.0014816
0.00116111
0.00046513
0
0
-0.00307619
-0.0102917
-0.0202327
-0.032129
-0.0455865
-0.06034
-0.0761022
-0.0925071
-0.109115
-0.125447
-0.141027
-0.155415
-0.168225
-0.17914
-0.187902
-0.194313
-0.198227
-0.199545
-0.198214
-0.194231
-0.187647
-0.178576
-0.167203
-0.153796
-0.138711
-0.122391
-0.105353
-0.0881697
-0.0714341
-0.055717
-0.0415224
-0.0292455
-0.0191427
-0.0113151
-0.0057082
-0.00212376
-0.000237265
0.000383259
0.000261673
0
0
-0.00396135
-0.012896
-0.0248724
-0.0389008
-0.0545071
-0.0713889
-0.0892255
-0.107617
-0.126101
-0.14419
-0.161419
-0.177367
-0.191676
-0.204046
-0.21423
-0.222032
-0.227291
-0.229887
-0.229728
-0.226761
-0.220972
-0.212399
-0.201147
-0.187405
-0.171461
-0.153718
-0.134689
-0.114991
-0.0953072
-0.0763432
-0.0587648
-0.0431371
-0.029873
-0.0191996
-0.0111493
-0.00557095
-0.00215445
-0.00046039
5.20709e-05
0
0
-0.00481152
-0.0153703
-0.0292429
-0.0452297
-0.0627798
-0.0815557
-0.101209
-0.12132
-0.141415
-0.161016
-0.179677
-0.197001
-0.212652
-0.226349
-0.237862
-0.247001
-0.253612
-0.257568
-0.258761
-0.257099
-0.252513
-0.244958
-0.234439
-0.221031
-0.204909
-0.186379
-0.165892
-0.144057
-0.121615
-0.0993954
-0.0782457
-0.0589444
-0.0421192
-0.0281841
-0.0173095
-0.00942679
-0.0042581
-0.00135879
-0.000159226
0
0
-0.00557942
-0.0175894
-0.0331379
-0.0508319
-0.0700478
-0.0904148
-0.111563
-0.133058
-0.154428
-0.175208
-0.194968
-0.213335
-0.229995
-0.24469
-0.257218
-0.267421
-0.275176
-0.280382
-0.282941
-0.282751
-0.2797
-0.273672
-0.26456
-0.2523
-0.23691
-0.218531
-0.197479
-0.174272
-0.149637
-0.124485
-0.0998335
-0.0767056
-0.0560063
-0.0384152
-0.0243169
-0.0137837
-0.0066042
-0.00233901
-0.000380305
0
0
-0.00621753
-0.0194329
-0.0363646
-0.0554468
-0.0759856
-0.097577
-0.119831
-0.142305
-0.16453
-0.186049
-0.206449
-0.225375
-0.242536
-0.257713
-0.270751
-0.281551
-0.290054
-0.296213
-0.299976
-0.30126
-0.299937
-0.295839
-0.28876
-0.278491
-0.264862
-0.247798
-0.227395
-0.203981
-0.178164
-0.150838
-0.123137
-0.0963201
-0.071618
-0.0500623
-0.0323528
-0.0187914
-0.00929392
-0.00345434
-0.000627871
0
0
-0.00668171
-0.0207924
-0.0387527
-0.0588476
-0.0803123
-0.102706
-0.12562
-0.148602
-0.171183
-0.192913
-0.213387
-0.232272
-0.249312
-0.264338
-0.277268
-0.288084
-0.296813
-0.303492
-0.308135
-0.310708
-0.311106
-0.309137
-0.304532
-0.296956
-0.286056
-0.271516
-0.253151
-0.231
-0.205422
-0.177157
-0.147334
-0.11738
-0.0888524
-0.0632071
-0.0415739
-0.0246063
-0.0124433
-0.00476908
-0.000922531
0
0
-0.00693503
-0.0215783
-0.0401644
-0.0608531
-0.0828058
-0.105541
-0.128626
-0.151599
-0.173989
-0.195348
-0.215286
-0.233494
-0.249765
-0.263999
-0.276198
-0.28644
-0.294848
-0.301551
-0.306646
-0.31017
-0.312064
-0.312161
-0.31017
-0.305685
-0.298208
-0.287208
-0.272199
-0.252867
-0.229201
-0.20163
-0.171096
-0.139048
-0.107294
-0.0777339
-0.0520314
-0.0313377
-0.0161516
-0.00634315
-0.00128426
0
0
-0.00695134
-0.0217269
-0.0405021
-0.0613378
-0.0833169
-0.10591
-0.128659
-0.151094
-0.17274
-0.193157
-0.211974
-0.228923
-0.243858
-0.256756
-0.26771
-0.27689
-0.28451
-0.290784
-0.295891
-0.299941
-0.302945
-0.30479
-0.305219
-0.30382
-0.300029
-0.293162
-0.282481
-0.267313
-0.247212
-0.222145
-0.192674
-0.160048
-0.126151
-0.0932526
-0.0636052
-0.0390022
-0.0204748
-0.00821989
-0.00172903
0
0
-0.00671797
-0.0212051
-0.0397152
-0.0602402
-0.0817795
-0.10375
-0.125669
-0.14706
-0.167452
-0.186422
-0.203635
-0.218875
-0.232066
-0.243266
-0.252649
-0.260464
-0.266994
-0.272519
-0.27728
-0.281448
-0.285107
-0.288217
-0.290599
-0.291898
-0.291572
-0.288887
-0.282951
-0.272803
-0.25757
-0.236689
-0.210163
-0.178795
-0.144283
-0.109078
-0.0759687
-0.0474953
-0.0254087
-0.0104184
-0.00226701
0
0
-0.00623733
-0.0200134
-0.0378036
-0.0575658
-0.0782144
-0.0991081
-0.119743
-0.139643
-0.158355
-0.175491
-0.190763
-0.20402
-0.215259
-0.224613
-0.23232
-0.238683
-0.244026
-0.248662
-0.252864
-0.256847
-0.260747
-0.264602
-0.268327
-0.271675
-0.2742
-0.275226
-0.273837
-0.268914
-0.259255
-0.243787
-0.221872
-0.193654
-0.160345
-0.124275
-0.0885911
-0.0565807
-0.0308804
-0.0129303
-0.00290192
0
0
-0.00552714
-0.0181864
-0.0348176
-0.053387
-0.0727267
-0.0921365
-0.111096
-0.129143
-0.145861
-0.160909
-0.174064
-0.185245
-0.194519
-0.202077
-0.2082
-0.213215
-0.217457
-0.221239
-0.224836
-0.228475
-0.232325
-0.236482
-0.240953
-0.245615
-0.25017
-0.254085
-0.25654
-0.256414
-0.252338
-0.242849
-0.226698
-0.203262
-0.173004
-0.137783
-0.100781
-0.0659001
-0.0367483
-0.0157186
-0.00363099
0
0
-0.00461934
-0.015791
-0.0308551
-0.0478371
-0.0654967
-0.0830765
-0.100048
-0.115977
-0.130498
-0.143338
-0.154343
-0.163506
-0.170949
-0.176905
-0.181671
-0.185572
-0.188923
-0.192012
-0.195091
-0.198372
-0.202028
-0.206191
-0.210939
-0.216265
-0.222027
-0.227881
-0.233196
-0.236988
-0.237895
-0.234257
-0.22435
-0.206808
-0.181198
-0.148579
-0.111775
-0.0750048
-0.0428108
-0.0187198
-0.00444496
0
0
-0.00355769
-0.0129224
-0.0260557
-0.0411018
-0.0567654
-0.0722374
-0.0869879
-0.100626
-0.112851
-0.123467
-0.132397
-0.139694
-0.145528
-0.150147
-0.153844
-0.156915
-0.159639
-0.162259
-0.164984
-0.167994
-0.171446
-0.17548
-0.180218
-0.185739
-0.192041
-0.19897
-0.206128
-0.21276
-0.217667
-0.219192
-0.215346
-0.204169
-0.184325
-0.155861
-0.120846
-0.0834094
-0.0488253
-0.021848
-0.0053286
0
0
-0.00239461
-0.00969839
-0.020593
-0.0334078
-0.0468188
-0.0599725
-0.0723448
-0.0835961
-0.0935034
-0.101951
-0.108936
-0.114564
-0.119031
-0.122584
-0.12549
-0.128004
-0.130351
-0.132723
-0.135279
-0.138156
-0.141482
-0.145386
-0.150004
-0.155466
-0.161873
-0.169234
-0.177375
-0.185811
-0.19361
-0.199287
-0.200818
-0.195866
-0.182329
-0.15918
-0.127427
-0.0906597
-0.0545366
-0.0250044
-0.00626199
0
0
-0.0011873
-0.00625313
-0.0146665
-0.0250117
-0.0359714
-0.046658
-0.056557
-0.065385
-0.0729997
-0.079367
-0.0845507
-0.0886976
-0.0920122
-0.0947249
-0.0970633
-0.0992312
-0.101399
-0.103702
-0.10625
-0.109137
-0.112456
-0.116313
-0.120835
-0.126173
-0.132486
-0.139899
-0.148424
-0.157837
-0.167511
-0.176252
-0.182193
-0.182872
-0.175641
-0.158485
-0.13119
-0.0964001
-0.0597132
-0.0280903
-0.00722324
0
0
6.10491e-06
-0.00272987
-0.00849247
-0.0161894
-0.0245531
-0.032676
-0.0400538
-0.0464586
-0.0518271
-0.056203
-0.0597077
-0.0625167
-0.064832
-0.0668556
-0.0687693
-0.0707228
-0.0728312
-0.0751799
-0.0778334
-0.0808473
-0.0842811
-0.0882121
-0.092747
-0.0980303
-0.104241
-0.111569
-0.120157
-0.129996
-0.140756
-0.151584
-0.160907
-0.166363
-0.165021
-0.154073
-0.132074
-0.10042
-0.0641807
-0.0310234
-0.00819225
0
0
0.00113018
0.000725593
-0.00229656
-0.00722795
-0.0128998
-0.0184031
-0.0232439
-0.0272435
-0.0304116
-0.032862
-0.0347659
-0.0363181
-0.0377105
-0.0391119
-0.0406569
-0.042443
-0.0445359
-0.0469769
-0.0497937
-0.0530101
-0.0566574
-0.0607855
-0.0654749
-0.0708477
-0.0770739
-0.0843639
-0.0929338
-0.102924
-0.114255
-0.126411
-0.13819
-0.147499
-0.151375
-0.146478
-0.130248
-0.102669
-0.0678447
-0.0337519
-0.00915516
0
0
0.0021352
0.00397108
0.0036931
0.00158134
-0.001347
-0.004206
-0.0065122
-0.00812793
-0.00912565
-0.00968142
-0.0100085
-0.0103164
-0.0107843
-0.0115486
-0.0127001
-0.0142904
-0.0163424
-0.0188616
-0.0218464
-0.0252967
-0.0292217
-0.0336485
-0.0386312
-0.044263
-0.0506868
-0.0581
-0.0667402
-0.076834
-0.0884827
-0.101466
-0.114964
-0.127263
-0.135587
-0.136333
-0.126036
-0.103232
-0.0706972
-0.0362658
-0.0101087
0
0
0.00297921
0.00687296
0.00925145
0.00994662
0.00977209
0.00955983
0.0097778
0.0105317
0.0116974
0.0130454
0.014325
0.0153137
0.0158419
0.0158006
0.0151351
0.0138317
0.011902
0.00936884
0.00625612
0.00258155
-0.00164819
-0.00644231
-0.0118324
-0.0178819
-0.0246984
-0.0324454
-0.041344
-0.0516489
-0.0635709
-0.0771158
-0.0918178
-0.10639
-0.118403
-0.124252
-0.119824
-0.102281
-0.0728027
-0.0386003
-0.0110638
0
0
0.00362878
0.00930957
0.0141606
0.0175782
0.0201269
0.0225469
0.0252785
0.028401
0.0317487
0.0350471
0.0380111
0.0404024
0.0420554
0.0428791
0.0428451
0.041968
0.0402853
0.0378415
0.0346772
0.030823
0.0262971
0.0211034
0.0152284
0.00863529
0.0012527
-0.00703887
-0.0164196
-0.0271277
-0.0394184
-0.0534477
-0.0690427
-0.0853426
-0.100368
-0.110738
-0.111972
-0.100017
-0.07427
-0.0408323
-0.0120483
0
0
0.00405838
0.0111722
0.0182121
0.0241897
0.0293878
0.0344117
0.0396515
0.0451581
0.0507315
0.0560585
0.060821
0.0647613
0.0677089
0.06958
0.0703611
0.0700845
0.0688056
0.0665843
0.0634737
0.0595144
0.0547333
0.049144
0.0427476
0.0355293
0.0274514
0.01844
0.00836829
-0.00295639
-0.0157817
-0.0303419
-0.0466818
-0.0643273
-0.081801
-0.0961267
-0.102743
-0.0965992
-0.0752119
-0.0430695
-0.0131099
0
0
0.00424752
0.0123627
0.021206
0.0294973
0.0372244
0.0448106
0.0525614
0.0604863
0.0683517
0.0758096
0.0825096
0.08817
0.0926066
0.0957317
0.0975348
0.098056
0.0973602
0.0955173
0.0925897
0.0886258
0.0836603
0.0777154
0.0708041
0.0629301
0.0540852
0.0442384
0.033319
0.0211952
0.00766196
-0.00753332
-0.0245769
-0.0433182
-0.0627875
-0.0805519
-0.0922412
-0.0920844
-0.0756973
-0.045434
-0.0143194
0
0
0.004175
0.012785
0.0229453
0.0332176
0.0433034
0.0533973
0.0636723
0.0740696
0.0843139
0.0940221
0.102812
0.110374
0.116502
0.121096
0.124138
0.125665
0.125745
0.124453
0.121857
0.118014
0.112964
0.10674
0.0993664
0.0908634
0.0812485
0.0705291
0.0586873
0.0456554
0.0312892
0.0153593
-0.00239451
-0.022071
-0.0431782
-0.0639175
-0.0803684
-0.0863667
-0.0756964
-0.0480386
-0.0157785
0
0
0.00380823
0.0123282
0.0232226
0.0350611
0.0472882
0.0598234
0.0726481
0.0855932
0.0983223
0.110412
0.121447
0.131088
0.139105
0.145376
0.149868
0.152609
0.153662
0.153103
0.151004
0.147429
0.142428
0.136043
0.128312
0.119273
0.108968
0.0974372
0.0847078
0.0707702
0.0555432
0.0388418
0.0203815
-0.000112486
-0.0225689
-0.045868
-0.0667741
-0.0791104
-0.0750138
-0.0509541
-0.0176349
0
0
0.00308386
0.010835
0.0217937
0.0347195
0.0488368
0.0637431
0.0791584
0.094749
0.110086
0.124695
0.138126
0.150012
0.160095
0.168231
0.174366
0.178515
0.180733
0.181093
0.179671
0.176537
0.171753
0.165377
0.157462
0.148067
0.137257
0.1251
0.111659
0.0969674
0.0809946
0.0636003
0.044502
0.0233104
-0.000249957
-0.0257347
-0.050792
-0.0696688
-0.0731986
-0.0541551
-0.0201035
0
0
0.00187309
0.00804844
0.0183351
0.0318456
0.047602
0.0648234
0.0828924
0.101248
0.119332
0.136601
0.152567
0.166839
0.179137
0.189293
0.197237
0.202967
0.206529
0.207994
0.207443
0.204957
0.200614
0.194491
0.186663
0.177212
0.166224
0.153789
0.13999
0.124885
0.108466
0.0906198
0.0710651
0.0493381
0.0248958
-0.00244111
-0.0313455
-0.0569707
-0.0694108
-0.0574227
-0.0234859
0
0
-7.92232e-05
0.00352981
0.0123819
0.0260252
0.0432317
0.0627613
0.0835811
0.104842
0.125818
0.145882
0.164506
0.181277
0.195901
0.208197
0.218081
0.225542
0.230622
0.233394
0.233949
0.232385
0.228801
0.223298
0.215978
0.206943
0.196298
0.184142
0.170559
0.155602
0.139255
0.121391
0.10171
0.0796831
0.0545679
0.0256572
-0.0067994
-0.0393522
-0.0622099
-0.0601537
-0.028151
0
0
-0.00325441
-0.00345231
0.00326043
0.0167564
0.0353799
0.0573119
0.0810309
0.105355
0.129367
0.152344
0.173723
0.193079
0.210116
0.224653
0.236607
0.245969
0.252787
0.257148
0.259158
0.258937
0.25661
0.252303
0.246139
0.238234
0.228697
0.217618
0.205061
0.191041
0.175496
0.158243
0.138918
0.116912
0.0913213
0.0610295
0.0252747
-0.0143042
-0.049214
-0.0609917
-0.0343907
0
0
-0.00849801
-0.0140086
-0.00990998
0.00350385
0.0237849
0.0483768
0.0752199
0.102792
0.129989
0.156006
0.180255
0.202318
0.221917
0.238889
0.253168
0.264765
0.273744
0.280208
0.284285
0.286115
0.28584
0.283599
0.279523
0.273725
0.266298
0.257304
0.246759
0.234616
0.220733
0.204832
0.186445
0.164838
0.138949
0.107353
0.0684599
0.0219053
-0.0265569
-0.0571275
-0.041984
0
0
-0.0171087
-0.0294145
-0.0277561
-0.0137135
0.00893471
0.036751
0.0671511
0.0983241
0.129028
0.15841
0.185887
0.211067
0.233706
0.253673
0.27093
0.285505
0.297481
0.306971
0.314109
0.31904
0.321905
0.322837
0.321952
0.319344
0.315074
0.309157
0.301553
0.292139
0.28068
0.266787
0.249855
0.228995
0.202953
0.170028
0.12804
0.0747964
0.0119548
-0.0430089
-0.0491493
0
0
-0.030403
-0.0493739
-0.0478519
-0.030709
-0.00365094
0.0289728
0.0641826
0.100016
0.135195
0.168883
0.200537
0.229811
0.2565
0.280503
0.301801
0.320432
0.336478
0.350047
0.361265
0.370261
0.377162
0.382082
0.385116
0.386332
0.385759
0.383374
0.379088
0.372714
0.363941
0.352278
0.336999
0.317051
0.290969
0.256761
0.211796
0.152577
0.0761608
-0.00792552
-0.0501527
0
0
-0.0464529
-0.0635948
-0.0521109
-0.0236339
0.0137632
0.055266
0.0980536
0.14045
0.18144
0.220394
0.256923
0.290791
0.32187
0.350109
0.375517
0.398148
0.418085
0.435438
0.450325
0.462872
0.473197
0.481411
0.487601
0.491829
0.494112
0.494415
0.492628
0.488535
0.481785
0.471837
0.457892
0.438801
0.412952
0.37809
0.331162
0.267845
0.181822
0.068816
-0.0291948
0
0
-0.0399514
-0.014363
0.0366653
0.0933778
0.149408
0.202836
0.25312
0.300134
0.343874
0.384368
0.421655
0.455778
0.486795
0.51478
0.539824
0.562035
0.581538
0.598468
0.612968
0.625178
0.635234
0.643259
0.649352
0.653584
0.655983
0.65652
0.655091
0.651492
0.645382
0.636245
0.623318
0.605507
0.581262
0.548349
0.503569
0.441943
0.356013
0.228479
0.0588463
0
0
0.192689
0.344949
0.44822
0.521597
0.577136
0.621537
0.658537
0.690264
0.717962
0.742378
0.763977
0.783065
0.79986
0.814535
0.827241
0.838116
0.847295
0.854912
0.861094
0.865961
0.869624
0.872178
0.873696
0.874226
0.873784
0.87234
0.869812
0.866046
0.860799
0.853713
0.844275
0.83177
0.81517
0.793022
0.762952
0.721165
0.659129
0.560599
0.362645
0
