# vtk DataFile Version 2.0
pressure
ASCII
DATASET RECTILINEAR_GRID
DIMENSIONS 41 41 1
X_COORDINATES 41 double
0 0.0325168 0.0644289 0.0957562 0.126518 0.156734 0.186424 0.215604 0.244295 0.272513 0.300276 0.327602 0.354507 0.38101 0.407125 0.43287 0.45826 0.483312 0.50804 0.532462 0.556591 0.580442 0.604032 0.627374 0.650483 0.673374 0.696061 0.718557 0.740878 0.763037 0.785048 0.806924 0.82868 0.850328 0.871883 0.893358 0.914766 0.936121 0.957436 0.978725 1 
Y_COORDINATES 41 double
0 0.025 0.05 0.075 0.1 0.125 0.15 0.175 0.2 0.225 0.25 0.275 0.3 0.325 0.35 0.375 0.4 0.425 0.45 0.475 0.5 0.525 0.55 0.575 0.6 0.625 0.65 0.675 0.7 0.725 0.75 0.775 0.8 0.825 0.85 0.875 0.9 0.925 0.95 0.975 1 
Z_COORDINATES 1 double
0.0

CELL_DATA 1600
SCALARS pressure double 1
LOOKUP_TABLE default
0
-6.55745e-05
-0.000230552
-0.000476082
-0.000778042
-0.00112253
-0.00150141
-0.00190653
-0.00232563
-0.00274054
-0.00312721
-0.0034574
-0.00370147
-0.00383229
-0.00382952
-0.00368395
-0.00340075
-0.00300127
-0.0025224
-0.00201375
-0.00153242
-0.00113626
-0.000876474
-0.00079068
-0.000897864
-0.00119603
-0.00166313
-0.00226109
-0.00294202
-0.00365529
-0.00435406
-0.00500005
-0.00556604
-0.00603595
-0.0064031
-0.00666756
-0.00683356
-0.00690879
-0.00690752
-0.0068612
2.15203e-05
-4.4068e-05
-0.000194022
-0.000414489
-0.000685734
-0.000997269
-0.00134348
-0.00171868
-0.0021135
-0.00251303
-0.00289646
-0.00323799
-0.00350902
-0.00368161
-0.00373281
-0.00364935
-0.00343162
-0.00309613
-0.00267569
-0.00221695
-0.00177542
-0.00140859
-0.00116821
-0.00109291
-0.0012026
-0.00149585
-0.00195059
-0.00252842
-0.00318117
-0.00385857
-0.00451515
-0.00511515
-0.00563471
-0.00606161
-0.00639297
-0.0066321
-0.00678531
-0.00685961
-0.00686186
-0.00681094
0.00010793
2.90654e-05
-0.000117467
-0.00032061
-0.000566826
-0.000851361
-0.00117378
-0.00153331
-0.00192529
-0.00233872
-0.00275515
-0.00314879
-0.00348827
-0.00374045
-0.00387568
-0.00387357
-0.00372814
-0.00345099
-0.00307194
-0.00263673
-0.00220191
-0.00182779
-0.00157016
-0.00147221
-0.00155812
-0.00182949
-0.00226551
-0.00282702
-0.0034636
-0.00412208
-0.00475465
-0.00532467
-0.00580937
-0.00619942
-0.00649597
-0.00670657
-0.00684067
-0.00690561
-0.00690322
-0.00684502
0.000259748
0.00015546
1.23209e-06
-0.000195092
-0.000428887
-0.00070359
-0.00102664
-0.00140467
-0.00183898
-0.00232186
-0.00283424
-0.00334546
-0.00381585
-0.00420209
-0.00446425
-0.00457291
-0.00451507
-0.00429756
-0.00394773
-0.00351115
-0.00304659
-0.0026189
-0.00229055
-0.00211293
-0.00211884
-0.00231758
-0.00269371
-0.00321016
-0.00381513
-0.00445144
-0.00506602
-0.00561757
-0.00608056
-0.0064454
-0.00671529
-0.00690123
-0.00701618
-0.00706967
-0.00706317
-0.00700599
0.000458942
0.000320741
0.000150596
-5.07388e-05
-0.000291403
-0.000585616
-0.00095099
-0.00140307
-0.0019488
-0.00258087
-0.00327461
-0.00398873
-0.00467012
-0.00526163
-0.00571085
-0.00597805
-0.00604212
-0.0059039
-0.0055868
-0.00513474
-0.00460767
-0.00407496
-0.00360722
-0.00326742
-0.00310231
-0.00313566
-0.00336476
-0.00376132
-0.00427697
-0.0048525
-0.00542879
-0.00595663
-0.00640322
-0.00675399
-0.00701019
-0.00718343
-0.00728891
-0.00733885
-0.00733709
-0.00729296
0.00067752
0.000501446
0.000308805
8.7054e-05
-0.000188947
-0.000546683
-0.00101554
-0.00161987
-0.00236957
-0.00325276
-0.0042332
-0.00525361
-0.00624358
-0.00712968
-0.00784529
-0.00833871
-0.00857882
-0.00855815
-0.00829346
-0.00782422
-0.00720892
-0.00651966
-0.00583493
-0.00523129
-0.00477421
-0.00450963
-0.00445746
-0.00460883
-0.00492827
-0.00536101
-0.00584413
-0.00631878
-0.0067401
-0.00708244
-0.00733897
-0.00751684
-0.00762995
-0.00769127
-0.00770682
-0.00768617
0.000876914
0.000662431
0.000440127
0.000176785
-0.000173661
-0.000654043
-0.00130597
-0.00216043
-0.00322544
-0.00447827
-0.00586518
-0.00730842
-0.00871723
-0.00999974
-0.0110734
-0.0118731
-0.012356
-0.0125047
-0.012327
-0.0118551
-0.0111424
-0.0102602
-0.00929156
-0.00832502
-0.0074462
-0.00672863
-0.00622464
-0.00595812
-0.00592114
-0.00607633
-0.00636528
-0.00672157
-0.0070847
-0.00741065
-0.0076761
-0.00787602
-0.00801677
-0.00810773
-0.00815421
-0.00816495
0.00100809
0.000756326
0.000494373
0.000161208
-0.000313253
-0.000988428
-0.00191701
-0.0031324
-0.00463429
-0.00638226
-0.00829932
-0.0102829
-0.0122187
-0.0139945
-0.0155112
-0.0166902
-0.0174784
-0.0178488
-0.0178007
-0.0173573
-0.0165642
-0.0154861
-0.0142044
-0.0128128
-0.0114119
-0.0101016
-0.00897111
-0.00808876
-0.00749167
-0.00717995
-0.00711747
-0.00724097
-0.00747579
-0.00775312
-0.00802251
-0.00825565
-0.00844206
-0.00858059
-0.008671
-0.00871929
0.00101379
0.00072578
0.000409981
-2.81527e-05
-0.000684407
-0.00163476
-0.00294002
-0.00462992
-0.00668819
-0.00904923
-0.0116064
-0.0142275
-0.0167719
-0.0191065
-0.0211175
-0.0227172
-0.0238463
-0.0244734
-0.0245922
-0.0242185
-0.0233881
-0.0221547
-0.0205896
-0.0187806
-0.0168309
-0.0148554
-0.0129741
-0.0113017
-0.00993343
-0.0089295
-0.00830377
-0.00802062
-0.00800504
-0.00816357
-0.00840817
-0.00867261
-0.00891611
-0.00911702
-0.00926306
-0.00935476
0.000832994
0.000508466
0.000120294
-0.000462929
-0.00136259
-0.00266954
-0.00444785
-0.00671582
-0.00943226
-0.0124979
-0.0157693
-0.0190801
-0.0222627
-0.0251658
-0.027667
-0.0296771
-0.0311392
-0.0320246
-0.0323275
-0.0320601
-0.0312496
-0.0299366
-0.0281756
-0.0260374
-0.0236115
-0.0210087
-0.0183606
-0.0158146
-0.0135212
-0.0116146
-0.0101877
-0.00927038
-0.00882034
-0.00873653
-0.00889068
-0.009163
-0.00946404
-0.00973723
-0.00994934
-0.0100915
0.000407427
4.43647e-05
-0.000437742
-0.00120762
-0.00241013
-0.00414743
-0.00648006
-0.00940556
-0.0128478
-0.0166645
-0.0206694
-0.0246601
-0.0284445
-0.0318611
-0.0347882
-0.0371452
-0.0388867
-0.0399946
-0.0404699
-0.0403265
-0.0395865
-0.0382788
-0.0364398
-0.0341166
-0.0313726
-0.0282944
-0.0249991
-0.0216381
-0.0183939
-0.0154651
-0.0130371
-0.0112421
-0.0101209
-0.0096083
-0.00955458
-0.00977872
-0.0101212
-0.0104701
-0.0107577
-0.0109596
-0.000310923
-0.000715863
-0.00131399
-0.00230892
-0.00386478
-0.00608957
-0.00903184
-0.012658
-0.0168467
-0.0214051
-0.0261008
-0.0306981
-0.0349888
-0.0388113
-0.0420563
-0.0446608
-0.0465983
-0.0478664
-0.0484777
-0.0484515
-0.0478094
-0.0465731
-0.0447644
-0.0424079
-0.039537
-0.0362028
-0.0324863
-0.0285108
-0.0244522
-0.020538
-0.0170277
-0.0141686
-0.0121316
-0.0109522
-0.0105124
-0.0105869
-0.0109302
-0.0113486
-0.01172
-0.011993
-0.00135263
-0.00180296
-0.00253657
-0.00378697
-0.00573141
-0.00847667
-0.01205
-0.0163765
-0.0212813
-0.026517
-0.0318074
-0.0368916
-0.0415568
-0.0456536
-0.0490938
-0.0518387
-0.0538835
-0.0552433
-0.0559429
-0.0560091
-0.055466
-0.0543331
-0.0526239
-0.050348
-0.0475143
-0.0441394
-0.0402601
-0.0359508
-0.031344
-0.0266474
-0.022146
-0.0181736
-0.0150447
-0.012956
-0.0119023
-0.0116714
-0.0119403
-0.0124074
-0.0128676
-0.0132245
-0.00272527
-0.00322319
-0.00410594
-0.00563008
-0.00797843
-0.0112486
-0.0154375
-0.0204211
-0.0259665
-0.0317734
-0.0375294
-0.0429606
-0.0478623
-0.052107
-0.0556333
-0.0584281
-0.0605075
-0.061902
-0.0626466
-0.0627745
-0.0623137
-0.0612847
-0.0596993
-0.0575607
-0.0548645
-0.0516034
-0.0477767
-0.0434067
-0.0385634
-0.0333947
-0.0281522
-0.0231946
-0.0189427
-0.0157726
-0.0138702
-0.0131322
-0.0132089
-0.0136819
-0.0142292
-0.014682
-0.00441063
-0.00495545
-0.00599265
-0.00779407
-0.0105397
-0.0143101
-0.0190651
-0.0246272
-0.0307063
-0.0369562
-0.0430402
-0.0486844
-0.0537025
-0.0579946
-0.0615273
-0.0643108
-0.0663779
-0.0677703
-0.0685296
-0.0686931
-0.0682918
-0.0673487
-0.0658782
-0.0638843
-0.0613599
-0.0582879
-0.0546451
-0.0504142
-0.0456049
-0.0402883
-0.0346392
-0.028972
-0.0237396
-0.0194568
-0.0165326
-0.0150724
-0.0147993
-0.0152071
-0.0158285
-0.0163862
-0.00636516
-0.00695214
-0.00813925
-0.010206
-0.0133211
-0.0175419
-0.0227868
-0.0288256
-0.0353171
-0.0418799
-0.048166
-0.0539122
-0.0589574
-0.06323
-0.0667222
-0.0694626
-0.0714954
-0.0728685
-0.0736265
-0.0738082
-0.073446
-0.0725657
-0.0711854
-0.0693142
-0.0669499
-0.0640769
-0.060666
-0.056679
-0.0520829
-0.0468789
-0.0411493
-0.0351157
-0.029183
-0.0239208
-0.0199265
-0.0175716
-0.0167715
-0.0170136
-0.0176804
-0.0183458
-0.00852359
-0.00914328
-0.0104657
-0.0127714
-0.0162105
-0.0208124
-0.0264546
-0.0328588
-0.0396424
-0.0464013
-0.0527872
-0.0585551
-0.0635705
-0.0677881
-0.0712202
-0.073908
-0.0759024
-0.0772533
-0.078005
-0.0781959
-0.0778585
-0.0770201
-0.0757027
-0.0739219
-0.0716837
-0.0689813
-0.0657915
-0.0620732
-0.0577727
-0.052843
-0.0472844
-0.0412087
-0.034916
-0.0289386
-0.0239752
-0.0206504
-0.0191649
-0.0191201
-0.019786
-0.0205541
-0.010805
-0.0114432
-0.0128772
-0.0153836
-0.0190882
-0.0239907
-0.0299308
-0.0365908
-0.0435583
-0.0504178
-0.0568291
-0.0625681
-0.067525
-0.0716755
-0.0750464
-0.0776864
-0.0796485
-0.0809819
-0.0817289
-0.0819259
-0.0816043
-0.0807923
-0.0795149
-0.0777933
-0.0756428
-0.0730682
-0.0700588
-0.0665831
-0.0625862
-0.0579987
-0.0527633
-0.0468937
-0.0405626
-0.0341952
-0.0284885
-0.0242441
-0.0219759
-0.0215224
-0.0221263
-0.0229827
-0.0131205
-0.0137588
-0.0152731
-0.0179332
-0.021837
-0.026955
-0.0330954
-0.0399112
-0.0469723
-0.0538607
-0.0602489
-0.0659329
-0.0708229
-0.0749099
-0.0782293
-0.0808328
-0.0827731
-0.0840967
-0.0848431
-0.0850459
-0.0847351
-0.0839389
-0.0826843
-0.0809973
-0.0789007
-0.0764111
-0.0735329
-0.0702504
-0.0665213
-0.0622745
-0.0574244
-0.0519132
-0.0457951
-0.0393541
-0.0331981
-0.0281988
-0.0251411
-0.0241829
-0.0246559
-0.0255775
-0.0153807
-0.0159976
-0.0175555
-0.0203169
-0.0243505
-0.0295998
-0.0358495
-0.0427349
-0.0498179
-0.0566853
-0.0630231
-0.0686438
-0.073472
-0.0775077
-0.0807902
-0.0833711
-0.0853007
-0.0866224
-0.0873723
-0.0875815
-0.0872785
-0.0864908
-0.0852468
-0.0835757
-0.0815067
-0.0790664
-0.0762733
-0.0731301
-0.0696135
-0.0656662
-0.0611977
-0.0561105
-0.050367
-0.0441104
-0.0378066
-0.0322924
-0.0285323
-0.0270227
-0.0272998
-0.0282571
-0.0175034
-0.0180757
-0.0196371
-0.0224445
-0.0265383
-0.0318392
-0.0381167
-0.0449989
-0.0520492
-0.0588629
-0.0651381
-0.0706991
-0.0754784
-0.0794796
-0.0827416
-0.0853138
-0.0872432
-0.0885696
-0.0893264
-0.0895423
-0.0892442
-0.0884593
-0.0872165
-0.0855474
-0.0834859
-0.0810666
-0.0783204
-0.0752672
-0.0719051
-0.0681981
-0.0640686
-0.0594062
-0.0541154
-0.0482213
-0.0420314
-0.0362689
-0.0319678
-0.0299205
-0.0299523
-0.0309138
-0.0194188
-0.0199235
-0.0214468
-0.0242438
-0.02833
-0.033608
-0.0398408
-0.0466593
-0.053635
-0.0603742
-0.0665845
-0.0720963
-0.0768438
-0.080829
-0.0840875
-0.0866647
-0.0886035
-0.0899407
-0.0907068
-0.090929
-0.0906328
-0.0898451
-0.0885952
-0.0869165
-0.0848463
-0.0824255
-0.079695
-0.0766899
-0.0734287
-0.0699
-0.0660482
-0.0617707
-0.056945
-0.0515119
-0.045632
-0.0398723
-0.0352334
-0.0327196
-0.0324818
-0.0334189
-0.0210742
-0.0214901
-0.0229339
-0.025664
-0.0296767
-0.0348623
-0.0409851
-0.0476873
-0.054555
-0.061206
-0.0673543
-0.0728306
-0.0775652
-0.081554
-0.0848264
-0.0874223
-0.0893804
-0.0907341
-0.0915121
-0.0917397
-0.091442
-0.0906455
-0.0893801
-0.0876806
-0.085587
-0.0831452
-0.0804042
-0.0774118
-0.0742049
-0.0707957
-0.0671551
-0.063201
-0.0588081
-0.053867
-0.048421
-0.0428705
-0.0381064
-0.035241
-0.0347386
-0.0356302
-0.0224357
-0.0227457
-0.0240701
-0.0266769
-0.0305513
-0.0355779
-0.0415297
-0.0480679
-0.0547976
-0.0613491
-0.0674396
-0.0728949
-0.077636
-0.0816487
-0.0849532
-0.0875826
-0.0895708
-0.0909481
-0.091741
-0.091974
-0.0916714
-0.0908598
-0.0895699
-0.0878377
-0.085706
-0.0832245
-0.0804492
-0.0774383
-0.0742444
-0.0709015
-0.0674072
-0.0637058
-0.0596862
-0.0552181
-0.0502627
-0.0450695
-0.0403751
-0.0372985
-0.0365646
-0.0374007
-0.023489
-0.0236814
-0.02485
-0.0272771
-0.0309481
-0.0357497
-0.0414707
-0.0477975
-0.054359
-0.0607985
-0.0668339
-0.0722814
-0.077048
-0.0811052
-0.0844614
-0.087141
-0.0891723
-0.0905821
-0.0913951
-0.0916345
-0.0913245
-0.0904921
-0.0891685
-0.0873913
-0.0852059
-0.0826658
-0.0798328
-0.0767741
-0.0735556
-0.0702303
-0.0668207
-0.0632995
-0.0595787
-0.0555296
-0.0510655
-0.0463157
-0.0418502
-0.0387107
-0.0378021
-0.0385863
-0.0242379
-0.0243083
-0.0252889
-0.0274805
-0.030881
-0.0353897
-0.0408181
-0.0468839
-0.0532436
-0.0595547
-0.0655335
-0.0709836
-0.0757934
-0.079916
-0.0833451
-0.0860941
-0.0881845
-0.0896389
-0.0904797
-0.0907292
-0.0904113
-0.0895533
-0.0881875
-0.0863532
-0.0840984
-0.0814802
-0.0785661
-0.0754308
-0.0721519
-0.0687985
-0.0654152
-0.0620017
-0.0584976
-0.0547898
-0.0507725
-0.0464927
-0.0423679
-0.0393066
-0.0382989
-0.0390492
-0.0247022
-0.0246541
-0.0254208
-0.0273214
-0.0303815
-0.0345253
-0.0395954
-0.0453463
-0.0514652
-0.0576255
-0.0635413
-0.0690002
-0.0738686
-0.0780774
-0.0816018
-0.0844422
-0.0866109
-0.0881256
-0.0890056
-0.0892721
-0.0889486
-0.088063
-0.0866487
-0.0847467
-0.0824077
-0.0796927
-0.076674
-0.0734339
-0.0700594
-0.0666336
-0.0632198
-0.0598419
-0.056467
-0.0530053
-0.0493536
-0.0455135
-0.0417853
-0.0389219
-0.0379039
-0.0386523
-0.0249143
-0.0247587
-0.0252931
-0.0268493
-0.0294955
-0.0331971
-0.0378383
-0.0432151
-0.0490489
-0.0550301
-0.0608704
-0.0663395
-0.0712787
-0.0755933
-0.0792364
-0.082192
-0.0844617
-0.0860561
-0.086991
-0.0872857
-0.0869633
-0.086052
-0.0845863
-0.0826094
-0.0801744
-0.077346
-0.0742015
-0.0708292
-0.0673249
-0.0637827
-0.0602815
-0.0568655
-0.0535267
-0.0502006
-0.0467994
-0.043312
-0.0399693
-0.0373849
-0.0364505
-0.0372403
-0.0249147
-0.0246693
-0.024961
-0.0261224
-0.0282786
-0.031456
-0.0355928
-0.0405326
-0.0460329
-0.051802
-0.0575489
-0.0630249
-0.0680435
-0.0724812
-0.076266
-0.0793623
-0.0817582
-0.0834558
-0.0844656
-0.0848046
-0.084495
-0.0835652
-0.082051
-0.0799973
-0.0774596
-0.0745062
-0.0712183
-0.0676898
-0.0640229
-0.0603208
-0.0566738
-0.053142
-0.0497375
-0.0464185
-0.0431179
-0.0398344
-0.0367815
-0.0344897
-0.0337208
-0.0345955
-0.0247485
-0.0244355
-0.0244818
-0.0252022
-0.0267911
-0.0293588
-0.0329136
-0.0373527
-0.0424707
-0.047993
-0.0536261
-0.0591016
-0.0642043
-0.0687798
-0.0727278
-0.0759905
-0.0785396
-0.0803666
-0.0814757
-0.0818802
-0.0816011
-0.0806668
-0.0791139
-0.076989
-0.0743497
-0.0712669
-0.0678251
-0.0641215
-0.060263
-0.0563579
-0.052504
-0.0487714
-0.045186
-0.0417228
-0.038332
-0.0350309
-0.032061
-0.0299601
-0.0293862
-0.0303618
-0.0244612
-0.0241046
-0.0239073
-0.0241446
-0.025091
-0.0269645
-0.0298623
-0.0337415
-0.0384331
-0.0436776
-0.049177
-0.0546435
-0.0598324
-0.064557
-0.0686872
-0.0721405
-0.0748701
-0.0768547
-0.0780907
-0.0785869
-0.0783623
-0.0774448
-0.0758717
-0.0736906
-0.0709607
-0.0677543
-0.0641571
-0.0602677
-0.0561936
-0.0520439
-0.0479178
-0.0438888
-0.0399883
-0.0361982
-0.0324752
-0.028848
-0.0256083
-0.0234088
-0.0229255
-0.023931
-0.0240964
-0.023719
-0.0232788
-0.0229929
-0.0232262
-0.0243289
-0.0265048
-0.0297771
-0.0340103
-0.0389556
-0.0443079
-0.0497589
-0.055035
-0.0599173
-0.0642454
-0.0679107
-0.0708465
-0.0730173
-0.07441
-0.075028
-0.0748877
-0.0740161
-0.0724503
-0.0702386
-0.0674405
-0.064128
-0.0603857
-0.0563093
-0.0520019
-0.0475674
-0.0430986
-0.0386629
-0.0342864
-0.0299443
-0.0255821
-0.0212152
-0.0171714
-0.0143046
-0.0135373
-0.0143075
-0.0236962
-0.0233143
-0.0226217
-0.0217699
-0.0212286
-0.0215009
-0.0229113
-0.0255515
-0.0293145
-0.0339557
-0.0391589
-0.0445942
-0.04996
-0.0550069
-0.0595449
-0.0634397
-0.0666042
-0.0689877
-0.070567
-0.0713394
-0.0713176
-0.0705273
-0.0690051
-0.0667986
-0.0639661
-0.0605771
-0.056711
-0.0524559
-0.0479042
-0.0431454
-0.0382558
-0.0332843
-0.0282358
-0.0230605
-0.0176674
-0.0120215
-0.00642853
-0.00195787
-7.74311e-05
-5.49667e-07
-0.0233065
-0.0229215
-0.021944
-0.0204745
-0.019111
-0.0185227
-0.0191582
-0.0211739
-0.0244831
-0.0288376
-0.0339055
-0.0393344
-0.0447962
-0.0500138
-0.05477
-0.0589068
-0.0623173
-0.064936
-0.0667294
-0.067688
-0.0678207
-0.0671511
-0.0657142
-0.0635558
-0.060731
-0.0573032
-0.0533427
-0.0489238
-0.0441198
-0.0389959
-0.0335982
-0.0279391
-0.0219805
-0.015619
-0.00869374
-0.00107276
0.00704704
0.0144817
0.0189522
0.0209993
-0.0229954
-0.0225744
-0.0212396
-0.0190862
-0.0168731
-0.0154359
-0.0153348
-0.0167763
-0.0196825
-0.0237933
-0.0287573
-0.0341994
-0.039768
-0.0451617
-0.0501405
-0.0545255
-0.0581923
-0.0610618
-0.0630905
-0.0642624
-0.0645823
-0.0640704
-0.0627594
-0.0606914
-0.0579157
-0.0544867
-0.0504607
-0.045892
-0.0408264
-0.0352923
-0.0292886
-0.0227678
-0.0156155
-0.00763208
0.00146448
0.011959
0.023853
0.0360531
0.0454024
0.0511961
-0.0229016
-0.0223347
-0.0205064
-0.0175854
-0.0145231
-0.0123007
-0.0115566
-0.0125215
-0.0151108
-0.0190455
-0.0239526
-0.0294362
-0.0351249
-0.0406982
-0.0458979
-0.0505283
-0.0544508
-0.0575745
-0.0598473
-0.0612467
-0.0617728
-0.0614423
-0.060284
-0.0583348
-0.0556362
-0.0522305
-0.0481563
-0.0434422
-0.038098
-0.032103
-0.0253888
-0.0178171
-0.00915242
0.00096538
0.0130205
0.0275401
0.0448096
0.0640629
0.0815903
0.0938106
-0.0233611
-0.0223597
-0.0198003
-0.0160033
-0.0121196
-0.00922654
-0.00798457
-0.00861136
-0.0109979
-0.0148405
-0.0197453
-0.0252995
-0.031117
-0.036864
-0.0422692
-0.0471253
-0.0512827
-0.0546418
-0.057143
-0.0587583
-0.0594833
-0.0593307
-0.0583248
-0.0564962
-0.0538774
-0.050497
-0.0463734
-0.0415051
-0.0358592
-0.0293528
-0.0218299
-0.0130263
-0.00253181
0.0102591
0.0261514
0.0460834
0.0707877
0.100065
0.130551
0.153912
-0.0252347
-0.0230713
-0.0193799
-0.0145402
-0.00985723
-0.00642183
-0.0048414
-0.0052752
-0.00757047
-0.0113949
-0.0163363
-0.0219704
-0.027903
-0.0337927
-0.0393615
-0.0443951
-0.0487373
-0.0522825
-0.054966
-0.0567555
-0.0576428
-0.0576366
-0.0567566
-0.0550271
-0.0524711
-0.0491029
-0.0449193
-0.0398863
-0.0339237
-0.0268766
-0.018487
-0.00833414
0.00421078
0.0200886
0.0405609
0.0672612
0.101779
0.145092
0.195714
0.241491
-0.030719
-0.025204
-0.0196113
-0.0134396
-0.00795649
-0.00409256
-0.0023017
-0.00264307
-0.00490884
-0.00873968
-0.0137117
-0.0193963
-0.0253973
-0.0313725
-0.0370419
-0.0421883
-0.0466524
-0.0503248
-0.0531374
-0.0550544
-0.0560641
-0.0561717
-0.055392
-0.0537431
-0.0512389
-0.0478797
-0.0436421
-0.0384605
-0.0322096
-0.0246644
-0.0154673
-0.00404043
0.0104664
0.0293652
0.0544547
0.0883946
0.134328
0.196508
0.277719
0.377483
-0.0482916
-0.0269598
-0.0180224
-0.0112885
-0.00578201
-0.00200339
-0.000299305
-0.000702439
-0.00300483
-0.00685577
-0.0118416
-0.0175426
-0.0235691
-0.0295823
-0.0353036
-0.0405153
-0.0450561
-0.0488141
-0.0517183
-0.05373
-0.0548343
-0.0550333
-0.0543379
-0.0527614
-0.0503107
-0.0469764
-0.0427206
-0.0374571
-0.0310289
-0.0231665
-0.013443
-0.00118232
0.014625
0.0355444
0.0638527
0.103245
0.159279
0.243231
0.374555
0.624069
