# vtk DataFile Version 2.0
u_velocity
ASCII
DATASET RECTILINEAR_GRID
DIMENSIONS 42 41 1
X_COORDINATES 42 double
0 0.0162584 0.0484728 0.0800925 0.111137 0.141626 0.171579 0.201014 0.229949 0.258404 0.286394 0.313939 0.341055 0.367758 0.394067 0.419997 0.445565 0.470786 0.495676 0.520251 0.544526 0.568516 0.592237 0.615703 0.638929 0.661929 0.684717 0.707309 0.729718 0.751958 0.774042 0.795986 0.817802 0.839504 0.861106 0.882621 0.904062 0.925444 0.946779 0.968081 0.989362 1 
Y_COORDINATES 41 double
0 0.025 0.05 0.075 0.1 0.125 0.15 0.175 0.2 0.225 0.25 0.275 0.3 0.325 0.35 0.375 0.4 0.425 0.45 0.475 0.5 0.525 0.55 0.575 0.6 0.625 0.65 0.675 0.7 0.725 0.75 0.775 0.8 0.825 0.85 0.875 0.9 0.925 0.95 0.975 1 
Z_COORDINATES 1 double
0.0

CELL_DATA 1640
SCALARS u_velocity double 1
LOOKUP_TABLE default
0
0.000548265
0.001178
0.00145576
0.0012822
0.00067415
-0.000341162
-0.00175546
-0.0035727
-0.00579009
-0.00837963
-0.0112755
-0.0143683
-0.0175069
-0.0205057
-0.0231583
-0.0252558
-0.0266074
-0.0270614
-0.0265239
-0.0249732
-0.0224673
-0.0191431
-0.0152067
-0.0109158
-0.00655451
-0.00240432
0.00128474
0.00431898
0.00657743
0.00801726
0.00866794
0.00861616
0.00798556
0.00691678
0.00555309
0.00403698
0.00252079
0.00118937
0.000276314
0
0
0.000820728
0.00146946
0.00119988
-0.000195081
-0.00272958
-0.00637603
-0.0111062
-0.0168754
-0.0235863
-0.0310576
-0.0390103
-0.0470741
-0.0548118
-0.0617583
-0.0674633
-0.0715341
-0.0736701
-0.0736872
-0.0715302
-0.0672754
-0.0611249
-0.0533928
-0.0444853
-0.0348753
-0.0250701
-0.0155765
-0.00686292
0.000676971
0.00675398
0.0112028
0.0139873
0.0151905
0.0149931
0.0136449
0.0114384
0.00869338
0.00575664
0.00301694
0.000922943
0
0
0.00051358
0.000265381
-0.00144492
-0.00482963
-0.00993099
-0.0167298
-0.0251582
-0.0350689
-0.0461959
-0.0581348
-0.0703545
-0.0822402
-0.0931539
-0.102498
-0.109767
-0.114583
-0.116706
-0.116037
-0.112612
-0.106586
-0.0982223
-0.0878843
-0.0760189
-0.0631424
-0.0498194
-0.0366342
-0.0241574
-0.0129063
-0.00330648
0.00434059
0.00987911
0.013304
0.0147506
0.0144713
0.0128077
0.0101656
0.00700152
0.00382696
0.00123757
0
0
-0.000208852
-0.00204107
-0.00588802
-0.0118742
-0.0200415
-0.0303566
-0.0426729
-0.0566865
-0.071914
-0.087712
-0.103337
-0.118032
-0.131102
-0.141977
-0.150234
-0.155595
-0.157914
-0.157155
-0.153378
-0.146729
-0.137436
-0.125811
-0.112253
-0.0972432
-0.0813433
-0.0651717
-0.049375
-0.0345849
-0.0213695
-0.0101846
-0.00133486
0.00504843
0.00900965
0.0107529
0.0106147
0.0090338
0.00652881
0.00369346
0.00122375
0
0
-0.00124702
-0.00517614
-0.0116629
-0.0206717
-0.0322093
-0.0461903
-0.0623428
-0.0801698
-0.0989697
-0.117914
-0.136156
-0.152932
-0.167621
-0.179769
-0.189068
-0.195327
-0.198444
-0.198385
-0.19517
-0.188874
-0.179635
-0.167664
-0.153262
-0.136834
-0.118899
-0.100082
-0.081091
-0.0626765
-0.0455701
-0.0304159
-0.0177067
-0.00773777
-0.000587616
0.00387279
0.00595136
0.00609778
0.00487085
0.00292146
0.00100094
0
0
-0.00253061
-0.00890985
-0.0183419
-0.0305826
-0.0455714
-0.0631293
-0.0828249
-0.103967
-0.125689
-0.147075
-0.167295
-0.185675
-0.201721
-0.215095
-0.225575
-0.233022
-0.237347
-0.238497
-0.236447
-0.231195
-0.222774
-0.211271
-0.196851
-0.17979
-0.160498
-0.139542
-0.117643
-0.0956446
-0.0744501
-0.0549332
-0.0378379
-0.0236915
-0.0127533
-0.00500728
-0.000193808
0.0021393
0.00258552
0.00184229
0.00069284
0
0
-0.00398703
-0.0130061
-0.0254873
-0.0409527
-0.0592468
-0.0800652
-0.102808
-0.126625
-0.150563
-0.173714
-0.195331
-0.214858
-0.231913
-0.246247
-0.257711
-0.266219
-0.271722
-0.274186
-0.273572
-0.26983
-0.262903
-0.252741
-0.239336
-0.222764
-0.203241
-0.181166
-0.157165
-0.132089
-0.106969
-0.0829249
-0.0610221
-0.0421266
-0.0267881
-0.0151892
-0.00716705
-0.00228351
9.11473e-05
0.000707834
0.000390643
0
0
-0.00552571
-0.0172028
-0.0326403
-0.0511174
-0.0723644
-0.0959349
-0.121075
-0.146831
-0.172228
-0.196417
-0.218743
-0.238748
-0.256144
-0.270775
-0.28259
-0.291604
-0.297861
-0.301397
-0.30221
-0.300242
-0.29537
-0.287422
-0.276202
-0.261543
-0.243375
-0.22181
-0.197222
-0.170308
-0.142095
-0.113879
-0.087073
-0.0629914
-0.0426366
-0.02655
-0.01478
-0.006958
-0.00242667
-0.0003624
0.000137556
0
0
-0.00703657
-0.021217
-0.0393364
-0.0604328
-0.0841087
-0.109775
-0.136554
-0.163433
-0.189452
-0.213825
-0.235975
-0.255533
-0.272313
-0.286291
-0.297562
-0.306286
-0.31264
-0.316768
-0.31874
-0.318529
-0.315995
-0.310887
-0.302857
-0.291506
-0.276448
-0.257416
-0.234377
-0.207668
-0.178084
-0.146899
-0.115767
-0.0864839
-0.0606672
-0.0394439
-0.0232843
-0.0120239
-0.00502784
-0.00138767
-7.10829e-05
0
0
-0.00839804
-0.0247641
-0.0451362
-0.0683151
-0.0937681
-0.120774
-0.14836
-0.175483
-0.201209
-0.224808
-0.24578
-0.263863
-0.279015
-0.291383
-0.301233
-0.308887
-0.314655
-0.318792
-0.321452
-0.32267
-0.322341
-0.320203
-0.315844
-0.308712
-0.298165
-0.283559
-0.264383
-0.240432
-0.212002
-0.180031
-0.146131
-0.112431
-0.0812053
-0.0543932
-0.033183
-0.0178625
-0.0079533
-0.00249096
-0.000274699
0
0
-0.00949009
-0.0275827
-0.0496577
-0.0742801
-0.100778
-0.128315
-0.155848
-0.182323
-0.20684
-0.228731
-0.2476
-0.263335
-0.276076
-0.286152
-0.293994
-0.300053
-0.304741
-0.308386
-0.311212
-0.313321
-0.314673
-0.315071
-0.314139
-0.311307
-0.305821
-0.296783
-0.28326
-0.264464
-0.239996
-0.210127
-0.17601
-0.139722
-0.104001
-0.0716702
-0.0449397
-0.0249074
-0.0115101
-0.00383842
-0.000527021
0
0
-0.0102084
-0.0294586
-0.0526047
-0.0779747
-0.104757
-0.13202
-0.158676
-0.183684
-0.206193
-0.225633
-0.241757
-0.254637
-0.264608
-0.272161
-0.277845
-0.282184
-0.285624
-0.288519
-0.291118
-0.293565
-0.295894
-0.298007
-0.299648
-0.300359
-0.299447
-0.295968
-0.288765
-0.276598
-0.258372
-0.233493
-0.202254
-0.166146
-0.12788
-0.0909395
-0.0586968
-0.0334534
-0.015954
-0.00557889
-0.000876699
0
0
-0.0104762
-0.0302422
-0.0537863
-0.0791965
-0.105525
-0.131769
-0.156833
-0.179714
-0.199652
-0.216216
-0.229346
-0.23931
-0.246613
-0.251859
-0.255651
-0.258514
-0.260872
-0.263043
-0.265255
-0.26766
-0.270337
-0.273285
-0.276394
-0.279394
-0.28179
-0.282798
-0.281297
-0.275865
-0.264929
-0.24708
-0.221552
-0.188773
-0.150769
-0.111101
-0.0740996
-0.0435265
-0.021412
-0.00780658
-0.0013565
0
0
-0.0102531
-0.0298589
-0.0531245
-0.0778981
-0.103102
-0.127697
-0.150617
-0.170939
-0.188032
-0.201645
-0.21191
-0.219274
-0.224358
-0.227816
-0.230237
-0.232093
-0.233736
-0.235412
-0.237295
-0.239508
-0.242142
-0.245259
-0.24887
-0.252897
-0.257094
-0.260959
-0.263625
-0.263794
-0.259752
-0.249572
-0.231535
-0.204799
-0.170134
-0.1304
-0.0902577
-0.0548329
-0.027854
-0.0105515
-0.00198243
0
0
-0.00953774
-0.0283107
-0.0506509
-0.0741758
-0.0976885
-0.120151
-0.140568
-0.158136
-0.17239
-0.183263
-0.191065
-0.196367
-0.199843
-0.202134
-0.203764
-0.205118
-0.206453
-0.207931
-0.209657
-0.21171
-0.214164
-0.217103
-0.220609
-0.224742
-0.229478
-0.234616
-0.239647
-0.24361
-0.244987
-0.241732
-0.231537
-0.212432
-0.183695
-0.146799
-0.105849
-0.0667647
-0.035092
-0.0137838
-0.00275738
0
0
-0.00836697
-0.02567
-0.0464928
-0.0682441
-0.0896216
-0.109623
-0.127363
-0.142192
-0.153817
-0.162342
-0.168207
-0.172044
-0.174516
-0.1762
-0.177528
-0.178785
-0.180138
-0.18167
-0.183426
-0.185438
-0.187751
-0.190436
-0.193598
-0.197367
-0.201864
-0.207129
-0.212999
-0.218934
-0.223829
-0.225876
-0.222624
-0.211387
-0.190093
-0.15851
-0.119369
-0.0784588
-0.0427865
-0.0174162
-0.003673
0
0
-0.00681034
-0.0220687
-0.0408527
-0.060403
-0.0793243
-0.0966783
-0.11172
-0.123967
-0.13329
-0.139924
-0.144377
-0.14728
-0.149234
-0.150723
-0.152077
-0.153492
-0.155057
-0.156801
-0.158724
-0.160822
-0.163108
-0.165628
-0.168473
-0.171782
-0.17574
-0.180531
-0.186253
-0.192757
-0.199418
-0.204894
-0.206977
-0.202745
-0.189194
-0.164479
-0.12949
-0.0889331
-0.050472
-0.0213043
-0.00470849
0
0
-0.00496217
-0.0176836
-0.0339858
-0.0510034
-0.0672579
-0.0818919
-0.0943168
-0.104214
-0.111592
-0.116764
-0.120249
-0.12262
-0.124385
-0.125923
-0.127472
-0.129152
-0.131003
-0.13302
-0.135179
-0.137454
-0.139836
-0.14234
-0.145026
-0.148008
-0.151467
-0.15564
-0.160774
-0.167009
-0.174158
-0.181419
-0.187074
-0.188382
-0.181912
-0.16458
-0.13539
-0.0972931
-0.0576165
-0.0252552
-0.00582946
0
0
-0.00293237
-0.0127213
-0.0261779
-0.0404162
-0.0538824
-0.0658021
-0.0757441
-0.0835391
-0.0892946
-0.0933546
-0.0961932
-0.0982921
-0.100049
-0.101741
-0.103527
-0.105476
-0.107601
-0.109882
-0.112287
-0.114785
-0.117351
-0.119981
-0.122699
-0.125576
-0.128754
-0.132454
-0.136975
-0.142617
-0.149524
-0.157392
-0.165091
-0.170344
-0.169745
-0.159465
-0.136889
-0.102935
-0.0637185
-0.0290514
-0.00698989
0
0
-0.000837072
-0.00740455
-0.0177278
-0.0290101
-0.0396307
-0.0488861
-0.0564899
-0.0623996
-0.0667852
-0.069976
-0.0723675
-0.0743282
-0.0761425
-0.0779953
-0.0799852
-0.0821494
-0.0844883
-0.0869834
-0.0896082
-0.0923343
-0.0951353
-0.0979919
-0.100902
-0.103895
-0.107059
-0.110565
-0.114687
-0.119781
-0.126189
-0.133992
-0.142626
-0.15042
-0.154325
-0.150245
-0.134373
-0.105652
-0.0684105
-0.0324876
-0.0081378
0
0
0.00120996
-0.00196026
-0.0089346
-0.0171377
-0.024896
-0.0315531
-0.0369446
-0.0411295
-0.0443093
-0.0467688
-0.0488034
-0.050662
-0.0525205
-0.0544848
-0.0566075
-0.0589077
-0.0613856
-0.0640323
-0.0668331
-0.0697696
-0.0728196
-0.0759597
-0.0791714
-0.0824535
-0.0858439
-0.0894504
-0.0934855
-0.0982846
-0.104265
-0.111759
-0.120668
-0.129943
-0.137098
-0.138155
-0.12858
-0.105611
-0.0715274
-0.0354091
-0.00922333
0
0
0.00310474
0.00338932
-9.0125e-05
-0.00513059
-0.0100309
-0.0141516
-0.0174201
-0.0199728
-0.0220217
-0.0237909
-0.0254702
-0.0271914
-0.0290317
-0.0310292
-0.0332013
-0.0355567
-0.0381011
-0.0408384
-0.0437688
-0.0468867
-0.0501789
-0.0536248
-0.0572002
-0.0608851
-0.0646815
-0.0686405
-0.0729024
-0.0777361
-0.0835478
-0.0907919
-0.0997001
-0.109779
-0.119183
-0.12433
-0.120381
-0.103239
-0.0731149
-0.0377417
-0.0102077
0
0
0.00475918
0.00843385
0.00852404
0.00669983
0.00464614
0.00301588
0.00182488
0.000880548
-2.92194e-05
-0.00106636
-0.00232023
-0.0038165
-0.00554405
-0.00748249
-0.0096194
-0.0119558
-0.0145036
-0.0172792
-0.0202974
-0.0235661
-0.0270833
-0.0308364
-0.0348032
-0.0389571
-0.0432791
-0.0477792
-0.0525324
-0.0577268
-0.0637037
-0.0709363
-0.0798506
-0.0903911
-0.101341
-0.109682
-0.110614
-0.099089
-0.073388
-0.0395052
-0.0110715
0
0
0.00610566
0.0129806
0.0166374
0.0180564
0.0188394
0.0196752
0.0205595
0.0212621
0.0215721
0.0213799
0.0206808
0.0195401
0.0180453
0.0162693
0.0142525
0.0120033
0.00950676
0.00673668
0.00366609
0.000274333
-0.00344871
-0.00750085
-0.0118677
-0.0165254
-0.0214472
-0.0266189
-0.0320666
-0.0379025
-0.0443801
-0.0519215
-0.0610292
-0.0719512
-0.0840263
-0.094871
-0.0999832
-0.0937276
-0.0726653
-0.0408095
-0.0118206
0
0
0.00709999
0.0168594
0.0239904
0.0286489
0.0322624
0.0355619
0.0385573
0.0409979
0.042669
0.0434945
0.0435322
0.0429182
0.0418039
0.0403095
0.038505
0.0364123
0.0340189
0.0312938
0.0282015
0.0247105
0.0207991
0.0164575
0.0116889
0.0065084
0.00094011
-0.00499201
-0.0112833
-0.0179856
-0.025263
-0.0334489
-0.0430319
-0.0544353
-0.0674445
-0.0803153
-0.0890231
-0.0876593
-0.0713052
-0.0418393
-0.0124929
0
0
0.00772235
0.0199279
0.030335
0.0381869
0.0446251
0.0504048
0.0555769
0.0598869
0.0631082
0.0651753
0.0661799
0.0663059
0.0657538
0.0646859
0.0632034
0.0613476
0.0591152
0.0564769
0.053393
0.0498244
0.045739
0.041115
0.0359428
0.030225
0.0239763
0.0172198
0.00997493
0.00223258
-0.00609405
-0.0152361
-0.0256087
-0.0377006
-0.0516237
-0.0662292
-0.078086
-0.0812809
-0.0696552
-0.0428354
-0.0131678
0
0
0.00797577
0.022076
0.0354375
0.0463746
0.0556222
0.0639122
0.0713483
0.0776864
0.0826818
0.0862544
0.0884995
0.0896224
0.0898551
0.0893945
0.0883733
0.0868574
0.0848599
0.0823602
0.0793201
0.0756969
0.0714505
0.0665482
0.0609671
0.0546961
0.0477371
0.0401047
0.0318223
0.0229068
0.0133324
0.00296681
-0.00849932
-0.0215351
-0.0364626
-0.0526571
-0.0673505
-0.0748572
-0.0680132
-0.0440776
-0.0139823
0
0
0.00788167
0.0232291
0.0390833
0.0529095
0.0649259
0.075762
0.0855628
0.0941037
0.101117
0.106487
0.110282
0.112699
0.113983
0.114354
0.113973
0.112933
0.111271
0.108981
0.106032
0.102384
0.097992
0.0928148
0.0868178
0.0799761
0.0722775
0.0637255
0.0543401
0.0441519
0.0331798
0.0213786
0.00855569
-0.00568052
-0.0217601
-0.0394966
-0.0568241
-0.068498
-0.0665904
-0.0458676
-0.0151562
0
0
0.00747203
0.0233475
0.0410833
0.0574861
0.0721828
0.0855961
0.0978694
0.108794
0.118076
0.125546
0.131221
0.135264
0.137906
0.139377
0.139858
0.139472
0.138279
0.136297
0.133508
0.129879
0.125365
0.119922
0.113505
0.106078
0.0976161
0.088111
0.0775765
0.0660501
0.0535824
0.0401994
0.0258215
0.0101671
-0.00721951
-0.0265019
-0.0463339
-0.0621246
-0.0654616
-0.0484964
-0.017022
0
0
0.00677774
0.0224172
0.041276
0.0598026
0.0770173
0.0930206
0.107876
0.121365
0.13316
0.14303
0.150919
0.156931
0.161264
0.164138
0.165745
0.16623
0.165682
0.164139
0.161606
0.158062
0.153469
0.147782
0.140954
0.13294
0.123707
0.113238
0.10154
0.0886557
0.0746595
0.0596325
0.043594
0.0263813
0.00757173
-0.0132619
-0.0354936
-0.0554108
-0.0644795
-0.0521752
-0.0200398
0
0
0.00581049
0.0204245
0.0395208
0.0595679
0.0790429
0.0976148
0.115158
0.131387
0.145926
0.158473
0.16889
0.177207
0.183567
0.188163
0.191186
0.192794
0.193097
0.192161
0.190014
0.186651
0.182048
0.176167
0.168964
0.160392
0.150414
0.139012
0.126192
0.112005
0.0965412
0.079924
0.0622485
0.043459
0.0231974
0.000853512
-0.0236423
-0.0476904
-0.0631361
-0.0568901
-0.0247557
0
0
0.00453271
0.0173056
0.0356666
0.056503
0.0778792
0.0989509
0.119274
0.138413
0.155907
0.171375
0.184594
0.195512
0.204207
0.210833
0.215563
0.218557
0.219944
0.219812
0.218211
0.215161
0.210656
0.204671
0.197172
0.188122
0.177492
0.165268
0.151468
0.136152
0.119426
0.101439
0.0823315
0.0621213
0.0405162
0.0167936
-0.00974702
-0.0378299
-0.0603576
-0.0621427
-0.0316422
0
0
0.00280347
0.0128578
0.0294869
0.0503229
0.0731711
0.0966269
0.119802
0.142004
0.162637
0.181226
0.197464
0.211218
0.222501
0.231417
0.238114
0.242746
0.245449
0.246331
0.245465
0.242894
0.238639
0.232696
0.225055
0.2157
0.204621
0.191828
0.177356
0.161281
0.143719
0.124822
0.104735
0.0834968
0.0608477
0.0360028
0.00774968
-0.0240702
-0.0542483
-0.0665599
-0.0407566
0
0
0.000283478
0.00660363
0.0205724
0.0406952
0.0646054
0.0903122
0.116384
0.141777
0.165694
0.187547
0.206947
0.223692
0.237732
0.249124
0.257987
0.264462
0.268689
0.27079
0.270862
0.26898
0.265193
0.259537
0.252036
0.242713
0.231595
0.218725
0.204164
0.188
0.170346
0.151323
0.13103
0.109455
0.0863017
0.0607338
0.031189
-0.00382997
-0.0418259
-0.0674115
-0.0512183
0
0
-0.00371718
-0.00238147
0.00820457
0.0271834
0.0519176
0.0797956
0.108793
0.137453
0.164737
0.189924
0.212544
0.232336
0.2492
0.263157
0.2743
0.282762
0.288689
0.292222
0.29349
0.292606
0.289666
0.284754
0.277946
0.269313
0.258928
0.246867
0.233212
0.218047
0.201448
0.183471
0.164105
0.143209
0.120353
0.0946029
0.0641799
0.0266118
-0.0187775
-0.0601196
-0.0605833
0
0
-0.0104344
-0.0155976
-0.0087094
0.00922579
0.0349239
0.0650657
0.0970373
0.128976
0.159605
0.188074
0.213848
0.236626
0.256286
0.272833
0.286356
0.296998
0.304924
0.310308
0.313318
0.314113
0.312839
0.309631
0.304611
0.297892
0.289574
0.27975
0.268492
0.255851
0.241836
0.226393
0.209355
0.190387
0.168824
0.143533
0.112507
0.0727999
0.0208846
-0.0377511
-0.0641559
0
0
-0.021679
-0.0347509
-0.031227
-0.0136483
0.0135156
0.0461603
0.0811665
0.116363
0.150307
0.18207
0.211087
0.237054
0.259853
0.2795
0.296097
0.309801
0.320796
0.32928
0.335444
0.339473
0.341537
0.341791
0.340372
0.337401
0.332976
0.327173
0.32003
0.311545
0.301636
0.290139
0.276707
0.260801
0.241441
0.217211
0.185657
0.143612
0.0857729
0.00995589
-0.0537211
0
0
-0.0382534
-0.0574703
-0.0540472
-0.0340084
-0.00343931
0.0329744
0.0719415
0.111247
0.149437
0.185587
0.219133
0.249769
0.277367
0.301926
0.323527
0.342306
0.358428
0.372069
0.38341
0.392621
0.399864
0.405287
0.40902
0.411174
0.411834
0.411059
0.408858
0.40519
0.399909
0.392772
0.383284
0.370754
0.353879
0.330974
0.2989
0.25406
0.189875
0.0993681
-0.0132169
0
0
-0.0462725
-0.0446067
-0.0175148
0.0205967
0.0636897
0.108816
0.154215
0.1987
0.241443
0.28187
0.3196
0.354407
0.386186
0.414923
0.440675
0.463549
0.483684
0.501237
0.516375
0.529267
0.540076
0.548955
0.556045
0.561467
0.565317
0.567659
0.568505
0.567807
0.565404
0.561017
0.554098
0.543866
0.528887
0.507285
0.475497
0.42939
0.359962
0.260548
0.0978058
0
0
0.147743
0.26732
0.353049
0.417956
0.470364
0.514945
0.55425
0.589627
0.621763
0.650998
0.677502
0.701377
0.722709
0.741596
0.758153
0.772517
0.784836
0.795271
0.803982
0.811127
0.816859
0.821314
0.824619
0.826877
0.828173
0.828546
0.828015
0.826503
0.823903
0.819897
0.814141
0.805771
0.793986
0.776624
0.751975
0.714162
0.65893
0.563877
0.40773
0
