# vtk DataFile Version 2.0
v_velocity
ASCII
DATASET RECTILINEAR_GRID
DIMENSIONS 41 42 1
X_COORDINATES 41 double
0 0.0325168 0.0644289 0.0957562 0.126518 0.156734 0.186424 0.215604 0.244295 0.272513 0.300276 0.327602 0.354507 0.38101 0.407125 0.43287 0.45826 0.483312 0.50804 0.532462 0.556591 0.580442 0.604032 0.627374 0.650483 0.673374 0.696061 0.718557 0.740878 0.763037 0.785048 0.806924 0.82868 0.850328 0.871883 0.893358 0.914766 0.936121 0.957436 0.978725 1 
Y_COORDINATES 42 double
0 0.0125 0.0375 0.0625 0.0875 0.1125 0.1375 0.1625 0.1875 0.2125 0.2375 0.2625 0.2875 0.3125 0.3375 0.3625 0.3875 0.4125 0.4375 0.4625 0.4875 0.5125 0.5375 0.5625 0.5875 0.6125 0.6375 0.6625 0.6875 0.7125 0.7375 0.7625 0.7875 0.8125 0.8375 0.8625 0.8875 0.9125 0.9375 0.9625 0.9875 1 
Z_COORDINATES 1 double
0.0

CELL_DATA 1640
SCALARS v_velocity double 1
LOOKUP_TABLE default
0
0
0
0
0
0
0
0
0
0
0
0
0
0
0
0
0
0
0
0
0
0
0
0
0
0
0
0
0
0
0
0
0
0
0
0
0
0
0
0
-0.000421517
-0.000493335
-0.000221659
0.00014105
0.000503082
0.000854953
0.00121168
0.0015835
0.00196452
0.0023318
0.00264934
0.00287381
0.0029607
0.00287069
0.00257588
0.00206529
0.00134881
0.000458923
-0.000550252
-0.00160663
-0.0026265
-0.003523
-0.00421595
-0.00464196
-0.00476319
-0.00457339
-0.00409956
-0.00339846
-0.00254803
-0.00163538
-0.000743598
5.95069e-05
0.00072822
0.00123961
0.00158754
0.00177046
0.00177499
0.00156159
0.00107225
0.000324691
-0.00105252
-0.00100155
-6.52533e-06
0.00127472
0.00260005
0.00392548
0.00526422
0.00661061
0.00791005
0.0090595
0.00992517
0.0103664
0.0102599
0.00952047
0.00811581
0.00607351
0.00348049
0.000476214
-0.00275844
-0.006015
-0.00907307
-0.0117174
-0.013756
-0.0150383
-0.0154719
-0.015035
-0.0137828
-0.0118434
-0.00940424
-0.00668843
-0.00392563
-0.00132316
0.000956147
0.0028033
0.00415619
0.00497607
0.005213
0.00477492
0.00353132
0.00140922
-0.00144738
-0.000807116
0.00135834
0.00402542
0.00682077
0.00965048
0.0124851
0.0152465
0.0177681
0.01981
0.0211048
0.0214103
0.020555
0.0184655
0.0151749
0.010815
0.00559889
-0.000199362
-0.00626469
-0.0122591
-0.0178391
-0.0226735
-0.0264642
-0.0289683
-0.0300226
-0.0295646
-0.027648
-0.0244451
-0.0202349
-0.0153741
-0.010255
-0.00525885
-0.000714376
0.00312723
0.00609288
0.0080615
0.00891711
0.0084983
0.00657215
0.00286347
-0.00128681
0.00062825
0.00442831
0.00889033
0.0135781
0.0183364
0.023037
0.0274576
0.0312591
0.0340357
0.0354002
0.0350639
0.0328844
0.0288764
0.0231929
0.0160937
0.0079128
-0.000966715
-0.010131
-0.0191481
-0.0275794
-0.0349934
-0.0409859
-0.0452058
-0.0473876
-0.0473852
-0.0452025
-0.0410105
-0.0351448
-0.028078
-0.0203683
-0.0125941
-0.00528884
0.00110533
0.00625379
0.00990764
0.0118497
0.0118238
0.00947244
0.00430147
-0.000328056
0.00370633
0.00960494
0.0162116
0.023124
0.0301093
0.0368754
0.0429915
0.0479151
0.0510946
0.0520896
0.0506511
0.0467414
0.0405057
0.0322224
0.0222562
0.0110236
-0.00102661
-0.0134221
-0.0256707
-0.037263
-0.0476805
-0.0564113
-0.0629775
-0.066975
-0.0681213
-0.0663067
-0.0616353
-0.0544447
-0.0452903
-0.0348922
-0.0240497
-0.0135459
-0.00406795
0.00383403
0.00973666
0.013286
0.0141102
0.0117278
0.00547766
0.00161756
0.00870384
0.017132
0.0261595
0.0355253
0.0448941
0.0537492
0.0614144
0.0671593
0.0703526
0.0705881
0.0677291
0.0618779
0.0533085
0.0423998
0.0295884
0.0153397
0.000136754
-0.0155211
-0.0311128
-0.0460894
-0.0598711
-0.0718547
-0.081435
-0.0880448
-0.0912141
-0.0906424
-0.0862743
-0.0783568
-0.0674579
-0.0544286
-0.0403057
-0.0261775
-0.013052
-0.00176956
0.00701212
0.0127636
0.0149819
0.0130776
0.0062918
0.00468293
0.0157694
0.0270923
0.0387279
0.0506613
0.0624245
0.0732333
0.0821685
0.0883669
0.0911998
0.0903652
0.085873
0.0779656
0.0670306
0.0535321
0.0379655
0.0208315
0.00262748
-0.0161497
-0.0349895
-0.0533501
-0.0706406
-0.0862118
-0.0993622
-0.109368
-0.11554
-0.117314
-0.114361
-0.106697
-0.0947677
-0.0794589
-0.062019
-0.0438906
-0.0265046
-0.0111085
0.00130925
0.00998367
0.0142586
0.0134501
0.00675084
0.00893128
0.0249173
0.0394118
0.0537441
0.0682404
0.0822722
0.0947718
0.104612
0.110868
0.112981
0.110791
0.104462
0.0943751
0.0810367
0.0650052
0.046841
0.0270758
0.0062025
-0.0153171
-0.0370291
-0.0584565
-0.0790642
-0.0982289
-0.115221
-0.129209
-0.139303
-0.144638
-0.144506
-0.138528
-0.126815
-0.110093
-0.0896919
-0.0673965
-0.0451623
-0.0248105
-0.00782506
0.0046789
0.0118375
0.012863
0.00691248
0.0143412
0.0360263
0.0538715
0.0708889
0.0878292
0.103885
0.117714
0.128033
0.13392
0.134928
0.131056
0.122634
0.110204
0.0944181
0.0759494
0.0554311
0.0334173
0.0103754
-0.0132985
-0.0372478
-0.061112
-0.0844778
-0.106829
-0.127501
-0.145654
-0.160277
-0.17024
-0.174421
-0.171905
-0.162236
-0.14567
-0.123341
-0.09721
-0.0697775
-0.0436227
-0.0209746
-0.00351131
0.00756802
0.0113169
0.00682895
0.0207979
0.0488475
0.070129
0.0897261
0.108888
0.126626
0.141347
0.151667
0.156712
0.156178
0.150243
0.139436
0.124498
0.106257
0.0855145
0.0629671
0.0391742
0.0145571
-0.0105753
-0.0359853
-0.0614576
-0.0867431
-0.111498
-0.135217
-0.157173
-0.176372
-0.19155
-0.201247
-0.203981
-0.198549
-0.184411
-0.162067
-0.133269
-0.100875
-0.0683145
-0.0388655
-0.0151118
0.00116135
0.00871423
0.00650616
0.0280942
0.0630213
0.0877454
0.109736
0.130812
0.149814
0.164935
0.174738
0.178433
0.17589
0.167506
0.154056
0.136517
0.115903
0.0931298
0.0689336
0.0438521
0.0182421
-0.00768195
-0.0338007
-0.0600406
-0.0863213
-0.112496
-0.13828
-0.163165
-0.186332
-0.206577
-0.222299
-0.231586
-0.232476
-0.223399
-0.203766
-0.174521
-0.138373
-0.0994329
-0.0622586
-0.0307959
-0.00783664
0.00482551
0.00588686
0.0359428
0.0781019
0.106217
0.130354
0.152971
0.17277
0.187773
0.196529
0.198376
0.193395
0.182257
0.166024
0.145922
0.123134
0.0986497
0.0732051
0.0472856
0.0211689
-0.00502151
-0.031265
-0.0575997
-0.0840816
-0.110739
-0.137511
-0.164161
-0.190166
-0.214581
-0.235928
-0.252148
-0.260734
-0.259099
-0.245258
-0.218711
-0.181217
-0.136968
-0.0917372
-0.0512821
-0.0200054
-0.000696487
0.00485667
0.0439972
0.0935866
0.125005
0.151005
0.174754
0.194869
0.209246
0.216467
0.216039
0.208311
0.194269
0.175283
0.15281
0.128156
0.102332
0.0760244
0.0496385
0.0233638
-0.00275674
-0.0287735
-0.0547941
-0.0809573
-0.107409
-0.134265
-0.161543
-0.189056
-0.216249
-0.242011
-0.264486
-0.281007
-0.288272
-0.282926
-0.262599
-0.227225
-0.180043
-0.12744
-0.0771712
-0.0359629
-0.0082711
0.00326268
0.0518802
0.108946
0.143572
0.171138
0.195607
0.21558
0.228882
0.234175
0.231184
0.220568
0.203661
0.182125
0.157606
0.131467
0.104682
0.0778523
0.0512778
0.0250586
-0.000829451
-0.026481
-0.052033
-0.0776541
-0.103541
-0.129909
-0.156959
-0.184797
-0.213286
-0.241822
-0.269046
-0.29257
-0.308884
-0.313649
-0.302631
-0.273309
-0.226775
-0.168808
-0.108755
-0.0562567
-0.0183342
0.00093316
0.0592131
0.123653
0.1614
0.190257
0.215061
0.234495
0.246374
0.249484
0.243812
0.230359
0.210799
0.187052
0.160885
0.133659
0.106265
0.0791853
0.0526099
0.0265531
0.000937711
-0.0243541
-0.0494604
-0.0745401
-0.0997858
-0.125438
-0.151787
-0.179135
-0.207695
-0.237384
-0.267492
-0.296267
-0.320535
-0.335602
-0.335817
-0.316102
-0.274447
-0.214449
-0.145834
-0.0812485
-0.031283
-0.00230698
0.0656459
0.137208
0.178017
0.207933
0.232748
0.251337
0.261572
0.262405
0.254111
0.238036
0.216165
0.190617
0.163217
0.135271
0.107555
0.0804236
0.0539595
0.0281025
0.00273549
-0.0222694
-0.0470366
-0.0716948
-0.096399
-0.121361
-0.146875
-0.173333
-0.201172
-0.230736
-0.26197
-0.293943
-0.32425
-0.348515
-0.360408
-0.352733
-0.320013
-0.262223
-0.187595
-0.111005
-0.0474222
-0.00662304
0.0708819
0.149161
0.193007
0.223822
0.248403
0.26595
0.274459
0.273076
0.262371
0.24401
0.220239
0.193314
0.16506
0.136696
0.108871
0.0818162
0.0555215
0.0298661
0.00470401
-0.0200958
-0.0446404
-0.0690241
-0.0933527
-0.11778
-0.142553
-0.168053
-0.194813
-0.223452
-0.254454
-0.287724
-0.321869
-0.353379
-0.376056
-0.381398
-0.360745
-0.309585
-0.232621
-0.145215
-0.0669114
-0.0121559
0.074697
0.159127
0.206017
0.237652
0.261852
0.278273
0.285104
0.281701
0.268907
0.248668
0.223427
0.195517
0.166725
0.138169
0.110374
0.0834702
0.0573691
0.0319056
0.00691385
-0.0177384
-0.0421444
-0.0663698
-0.0904758
-0.114554
-0.138776
-0.163455
-0.189107
-0.216469
-0.246389
-0.279477
-0.315406
-0.351876
-0.383528
-0.4015
-0.394727
-0.354073
-0.27907
-0.183171
-0.089724
-0.019006
0.0769515
0.166796
0.216756
0.249223
0.272993
0.28831
0.293621
0.288493
0.274006
0.252323
0.226025
0.197467
0.168383
0.139788
0.112109
0.0853897
0.0594896
0.0342114
0.00937594
-0.0151507
-0.0394541
-0.0635825
-0.0875651
-0.111441
-0.135306
-0.159377
-0.184084
-0.21015
-0.238596
-0.27054
-0.306608
-0.34584
-0.384219
-0.413423
-0.421009
-0.393723
-0.32498
-0.223831
-0.115632
-0.0272196
0.0775951
0.171941
0.224994
0.258392
0.28178
0.296104
0.300136
0.293643
0.277892
0.255197
0.228212
0.199289
0.170094
0.141562
0.114041
0.0875207
0.0618236
0.0367339
0.012063
-0.0123261
-0.0365183
-0.0605551
-0.0844486
-0.108203
-0.13185
-0.155514
-0.179504
-0.204443
-0.231367
-0.261677
-0.296741
-0.336884
-0.379709
-0.418156
-0.439486
-0.427262
-0.368578
-0.265965
-0.144227
-0.0367822
0.0766648
0.174424
0.23056
0.265059
0.288199
0.301709
0.304755
0.297289
0.280709
0.257411
0.230074
0.201016
0.171847
0.143442
0.116102
0.0897855
0.0642965
0.0394095
0.0149302
-0.00928366
-0.0333215
-0.0572272
-0.0810088
-0.104652
-0.128147
-0.151539
-0.17502
-0.199068
-0.22462
-0.253165
-0.28656
-0.326225
-0.371446
-0.41693
-0.450633
-0.454084
-0.40848
-0.308327
-0.174978
-0.0476203
0.0742778
0.174202
0.233336
0.269155
0.292254
0.305179
0.307555
0.299514
0.282524
0.259004
0.23161
0.202615
0.173583
0.145355
0.118212
0.0921046
0.0668356
0.0421769
0.0179301
-0.00605324
-0.0298709
-0.0535753
-0.0771795
-0.100666
-0.124001
-0.147177
-0.170284
-0.193654
-0.218063
-0.244937
-0.27638
-0.314644
-0.360586
-0.410961
-0.455229
-0.474103
-0.443746
-0.349815
-0.207312
-0.0596152
0.0706188
0.171323
0.233264
0.270637
0.293953
0.306552
0.308575
0.300336
0.28333
0.259938
0.232757
0.204005
0.175213
0.14721
0.120287
0.0944052
0.0693782
0.044983
0.0210198
-0.0026666
-0.0261843
-0.0495978
-0.072931
-0.0961718
-0.119281
-0.142218
-0.165002
-0.187836
-0.21132
-0.236722
-0.266193
-0.302531
-0.347941
-0.401287
-0.454144
-0.487561
-0.473834
-0.389556
-0.240703
-0.0726251
0.0659245
0.165937
0.230346
0.269484
0.293305
0.305848
0.307818
0.299724
0.283056
0.260112
0.233397
0.205065
0.176623
0.14891
0.122245
0.0966198
0.0718696
0.0477834
0.0241632
0.000847589
-0.0222821
-0.0453034
-0.068254
-0.0911331
-0.113906
-0.136519
-0.158948
-0.1813
-0.204011
-0.228156
-0.255785
-0.28998
-0.333997
-0.388709
-0.448193
-0.494866
-0.498491
-0.426919
-0.274746
-0.0865152
0.0604658
0.158291
0.224655
0.265698
0.290315
0.30307
0.305251
0.297598
0.281575
0.259368
0.233362
0.205635
0.177674
0.150341
0.123997
0.0986803
0.0742581
0.0505383
0.0273288
0.0044646
-0.0181824
-0.0407022
-0.0631467
-0.0855288
-0.107824
-0.129982
-0.151956
-0.173793
-0.195801
-0.218859
-0.244833
-0.276877
-0.318973
-0.373781
-0.438056
-0.496459
-0.517637
-0.461479
-0.309209
-0.101195
0.0545286
0.14873
0.21635
0.259317
0.284989
0.298203
0.30082
0.293842
0.278721
0.257507
0.232443
0.205518
0.178195
0.151363
0.125437
0.100508
0.0764859
0.0532056
0.0304857
0.00816201
-0.0139003
-0.0358018
-0.057607
-0.0793431
-0.101
-0.122536
-0.143905
-0.165122
-0.186407
-0.208475
-0.23298
-0.262981
-0.302895
-0.356841
-0.424253
-0.492728
-0.531247
-0.492935
-0.344049
-0.116669
0.0483966
0.137683
0.205687
0.250429
0.277337
0.291223
0.294449
0.288319
0.274295
0.25429
0.230389
0.204475
0.177976
0.151804
0.126429
0.102
0.0784792
0.0557327
0.0335978
0.011916
-0.00944946
-0.0306064
-0.0516296
-0.0725591
-0.0933995
-0.114125
-0.134701
-0.155136
-0.175605
-0.196702
-0.219876
-0.248002
-0.285656
-0.338059
-0.407148
-0.483961
-0.539259
-0.521009
-0.379391
-0.133099
0.0423369
0.12566
0.193035
0.239192
0.267395
0.282098
0.286053
0.280877
0.268082
0.249455
0.226918
0.202228
0.176764
0.151449
0.126799
0.103024
0.080138
0.0580482
0.0366162
0.0156959
-0.00484597
-0.0251196
-0.0452066
-0.0651576
-0.0849916
-0.104701
-0.124272
-0.143725
-0.163226
-0.183298
-0.205222
-0.231642
-0.267087
-0.317487
-0.386976
-0.470329
-0.541492
-0.545314
-0.415457
-0.150909
0.0365922
0.113223
0.178882
0.225862
0.255236
0.270803
0.275538
0.271357
0.259858
0.242728
0.221726
0.198472
0.174272
0.150042
0.126331
0.103404
0.0813279
0.0600526
0.039471
0.0194562
-0.00011525
-0.0193506
-0.0383339
-0.0571231
-0.07575
-0.094227
-0.112565
-0.130815
-0.149159
-0.168097
-0.188792
-0.213654
-0.247009
-0.295123
-0.363889
-0.451889
-0.537586
-0.565212
-0.452419
-0.170911
0.0313812
0.100971
0.163832
0.210806
0.240993
0.257327
0.262811
0.259604
0.249408
0.233841
0.214508
0.192885
0.170185
0.147291
0.12477
0.102927
0.0818757
0.0616123
0.0420639
0.0231285
0.00469874
-0.0133239
-0.0310209
-0.048454
-0.0656662
-0.0826896
-0.0995653
-0.116384
-0.133369
-0.151029
-0.170463
-0.193874
-0.225288
-0.27096
-0.338008
-0.42863
-0.526969
-0.579643
-0.490157
-0.194459
0.0269139
0.0895227
0.148592
0.194514
0.22488
0.241689
0.247781
0.245462
0.236526
0.222542
0.204978
0.185158
0.164186
0.142891
0.121834
0.101344
0.0815731
0.0625582
0.0442624
0.0266128
0.00952294
-0.00709162
-0.0233055
-0.0391807
-0.0547694
-0.0701242
-0.0853196
-0.100494
-0.115922
-0.132155
-0.150264
-0.172283
-0.201889
-0.245045
-0.309491
-0.400548
-0.508887
-0.586969
-0.527894
-0.223549
0.023429
0.0795164
0.13394
0.17758
0.207194
0.223945
0.230369
0.228785
0.221027
0.208614
0.192884
0.175013
0.155983
0.136549
0.117241
0.0983951
0.080189
0.0626918
0.0459009
0.0297728
0.0142454
-0.000748697
-0.0152739
-0.0293906
-0.0431594
-0.0566539
-0.0699843
-0.0833386
-0.0970523
-0.111725
-0.128427
-0.149058
-0.176939
-0.217531
-0.278594
-0.367753
-0.482514
-0.584876
-0.563712
-0.260731
0.0212736
0.0716399
0.120669
0.160647
0.18829
0.204194
0.210515
0.209439
0.202747
0.191876
0.178028
0.162233
0.145339
0.128014
0.110738
0.0938344
0.0774913
0.0618007
0.0467876
0.0324357
0.0187061
0.00554893
-0.00709002
-0.0192697
-0.0310601
-0.042556
-0.0539023
-0.0653338
-0.077239
-0.0902621
-0.105472
-0.124653
-0.150784
-0.188715
-0.245703
-0.330595
-0.447185
-0.570436
-0.594014
-0.308623
0.0210557
0.0666886
0.109522
0.144293
0.168507
0.182547
0.188178
0.187312
0.181557
0.172197
0.160279
0.146674
0.132095
0.117108
0.102132
0.0874589
0.0732731
0.0596768
0.0467132
0.0343862
0.0226749
0.0115431
0.000943528
-0.00918366
-0.0189179
-0.028373
-0.037721
-0.0472301
-0.0573208
-0.0686562
-0.0822812
-0.0998599
-0.124046
-0.159061
-0.211308
-0.289701
-0.402704
-0.540427
-0.61303
-0.368809
0.0239135
0.0656422
0.101074
0.128869
0.148043
0.159072
0.163335
0.162339
0.157384
0.149517
0.139585
0.128284
0.116187
0.103747
0.0913114
0.0791268
0.0673584
0.0561047
0.0454148
0.0353024
0.0257566
0.0167488
0.00823542
0.000155501
-0.007576
-0.0150825
-0.0225464
-0.0302443
-0.0385941
-0.0482375
-0.0601502
-0.0758473
-0.0976525
-0.129195
-0.175891
-0.24583
-0.349567
-0.491937
-0.612486
-0.439999
0.0319359
0.069687
0.0955772
0.114294
0.126781
0.133691
0.135944
0.134509
0.130248
0.123881
0.116005
0.107119
0.0976415
0.0879075
0.078179
0.0686486
0.0594486
0.0506621
0.0423336
0.0344787
0.0270914
0.0201485
0.0136119
0.00742489
0.00150789
-0.00425616
-0.0100357
-0.0160864
-0.0227815
-0.0306975
-0.0406791
-0.054051
-0.0727516
-0.0998607
-0.139773
-0.199461
-0.28879
-0.423165
-0.581477
-0.515387
0.0486034
0.0799277
0.0927649
0.100008
0.104306
0.106202
0.105953
0.103839
0.100175
0.0952797
0.0894576
0.0829918
0.0761342
0.0690997
0.0620623
0.0551555
0.0484755
0.0420858
0.0360234
0.0303043
0.024928
0.0198795
0.0151313
0.0106389
0.00634029
0.00213868
-0.00209777
-0.00658218
-0.0116025
-0.0176387
-0.0253289
-0.035773
-0.050395
-0.0717581
-0.10304
-0.150361
-0.221079
-0.334241
-0.506699
-0.578514
0.0780139
0.0949822
0.0900333
0.0837224
0.0790143
0.0755398
0.0725683
0.0695896
0.06634
0.062728
0.0587667
0.0545258
0.0501004
0.0455899
0.0410859
0.0366651
0.0323872
0.0282946
0.0244146
0.0207606
0.017336
0.0141321
0.0111335
0.00830858
0.00561915
0.00299256
0.000349058
-0.00247442
-0.0056441
-0.00953292
-0.0144859
-0.0213748
-0.0309071
-0.0451924
-0.065701
-0.0979988
-0.145939
-0.228087
-0.374485
-0.594045
0.11359
0.0936772
0.0684133
0.0527496
0.0433604
0.0375406
0.0336738
0.0308262
0.0284713
0.0263253
0.0242482
0.0221839
0.0201232
0.0180801
0.0160783
0.0141426
0.0122943
0.0105491
0.00891747
0.00740331
0.00600703
0.00472175
0.00354025
0.00244275
0.0014146
0.000411607
-0.000590759
-0.00169341
-0.00293289
-0.00454963
-0.00657878
-0.00961734
-0.0136095
-0.0201374
-0.0286947
-0.044157
-0.0646599
-0.111486
-0.18337
-0.479115
0
0
0
0
0
0
0
0
0
0
0
0
0
0
0
0
0
0
0
0
0
0
0
0
0
0
0
0
0
0
0
0
0
0
0
0
0
0
0
0
