# vtk DataFile Version 2.0
pressure
ASCII
DATASET RECTILINEAR_GRID
DIMENSIONS 51 51 1
X_COORDINATES 51 double
0 0.02 0.04 0.06 0.08 0.1 0.12 0.14 0.16 0.18 0.2 0.22 0.24 0.26 0.28 0.3 0.32 0.34 0.36 0.38 0.4 0.42 0.44 0.46 0.48 0.5 0.52 0.54 0.56 0.58 0.6 0.62 0.64 0.66 0.68 0.7 0.72 0.74 0.76 0.78 0.8 0.82 0.84 0.86 0.88 0.9 0.92 0.94 0.96 0.98 1 
Y_COORDINATES 51 double
0 0.02 0.04 0.06 0.08 0.1 0.12 0.14 0.16 0.18 0.2 0.22 0.24 0.26 0.28 0.3 0.32 0.34 0.36 0.38 0.4 0.42 0.44 0.46 0.48 0.5 0.52 0.54 0.56 0.58 0.6 0.62 0.64 0.66 0.68 0.7 0.72 0.74 0.76 0.78 0.8 0.82 0.84 0.86 0.88 0.9 0.92 0.94 0.96 0.98 1 
Z_COORDINATES 1 double
0.0

CELL_DATA 2500
SCALARS pressure double 1
LOOKUP_TABLE default
0
1.56835e-06
9.77352e-07
-6.99473e-06
-2.57367e-05
-5.64821e-05
-0.000101003
-0.000162856
-0.000246786
-0.000356866
-0.00049389
-0.000654476
-0.000834292
-0.00103215
-0.00125336
-0.00152065
-0.00183678
-0.00213906
-0.00237269
-0.0025297
-0.00260932
-0.00260051
-0.00248151
-0.00222556
-0.0018117
-0.00123508
-0.000515705
0.000295771
0.00111622
0.00183445
0.00232378
0.00246475
0.00217569
0.00144447
0.000347809
-0.000955803
-0.00226573
-0.00339993
-0.00425018
-0.00480447
-0.00512366
-0.00528407
-0.00533451
-0.0053109
-0.00525665
-0.00520317
-0.00516046
-0.00512899
-0.00510824
-0.00509833
-9.89358e-07
1.25779e-06
1.71447e-06
-4.08477e-06
-1.94333e-05
-4.60147e-05
-8.67278e-05
-0.00014637
-0.000230417
-0.000342541
-0.000481195
-0.000638798
-0.000808343
-0.000987737
-0.00117359
-0.00140318
-0.0017251
-0.00208748
-0.00241463
-0.00267593
-0.00285336
-0.00292558
-0.0028675
-0.00265419
-0.00226879
-0.0017108
-0.00100321
-0.000197672
0.000623486
0.00135073
0.00185829
0.00202531
0.00176533
0.00105882
-2.49612e-05
-0.00133124
-0.00265644
-0.00380814
-0.00466103
-0.00518146
-0.00541366
-0.0054445
-0.00537134
-0.0052785
-0.0052102
-0.00516708
-0.00513703
-0.00511428
-0.00509797
-0.00508828
-3.48158e-06
2.04482e-06
5.88682e-06
4.00582e-06
-5.17956e-06
-2.30006e-05
-5.42445e-05
-0.000106873
-0.000188812
-0.000303025
-0.000442558
-0.000591182
-0.000737611
-0.000914272
-0.00117159
-0.0015254
-0.00198003
-0.0024844
-0.00296816
-0.00338596
-0.00370352
-0.00389271
-0.00392765
-0.00378741
-0.00346008
-0.00294855
-0.00227581
-0.00148968
-0.000665319
9.59895e-05
0.000674604
0.000949593
0.000825364
0.000264186
-0.000687211
-0.0018925
-0.00315483
-0.00427484
-0.0051112
-0.00561072
-0.0057983
-0.00575057
-0.0055741
-0.00537885
-0.00523591
-0.005156
-0.00511618
-0.0050948
-0.00508119
-0.00507102
-7.6997e-06
2.36071e-06
1.05332e-05
1.43914e-05
1.58073e-05
1.33858e-05
-1.32999e-06
-4.10265e-05
-0.000115747
-0.000224288
-0.000354401
-0.000513603
-0.000751595
-0.00110707
-0.00158812
-0.00218422
-0.00286569
-0.00357546
-0.00424931
-0.00483712
-0.00530119
-0.00561358
-0.00575252
-0.00570288
-0.00545773
-0.00502177
-0.00441481
-0.0036757
-0.00286521
-0.00206696
-0.00138393
-0.000927851
-0.000799175
-0.00105876
-0.00169848
-0.00262517
-0.00367349
-0.00465244
-0.00540797
-0.00586668
-0.00603599
-0.00597562
-0.00577367
-0.00552938
-0.0053238
-0.0051902
-0.00511854
-0.00508428
-0.00506779
-0.00505712
-1.42246e-05
2.93746e-07
1.26439e-05
2.50689e-05
4.34063e-05
6.36511e-05
7.13667e-05
4.93481e-05
-1.21701e-05
-0.000118973
-0.000306569
-0.000638424
-0.00114257
-0.00180789
-0.00261062
-0.0035093
-0.00445036
-0.00537465
-0.0062255
-0.00695947
-0.00754531
-0.00796189
-0.00819509
-0.00823685
-0.00808537
-0.00774657
-0.0072362
-0.00658228
-0.00582756
-0.00503138
-0.00426952
-0.00363011
-0.0032029
-0.00306055
-0.00323404
-0.00369126
-0.0043322
-0.00501109
-0.00558144
-0.00594468
-0.00607702
-0.00601839
-0.00583841
-0.00561118
-0.00540026
-0.00524336
-0.00514632
-0.00509511
-0.00507127
-0.00505931
-2.30826e-05
-5.92527e-06
1.00954e-05
3.52033e-05
7.70602e-05
0.000124945
0.000156656
0.000149854
7.75439e-05
-0.000125067
-0.000544834
-0.00120976
-0.00208691
-0.00312778
-0.00427267
-0.00545476
-0.00661353
-0.00769585
-0.00865964
-0.00947596
-0.0101262
-0.0106001
-0.0108925
-0.0110025
-0.0109331
-0.0106917
-0.0102911
-0.00975088
-0.0090982
-0.00836935
-0.00761028
-0.00687616
-0.00622827
-0.00572614
-0.00541434
-0.00530671
-0.00537605
-0.0055582
-0.00577035
-0.00593248
-0.00598658
-0.00592022
-0.00577112
-0.00559149
-0.00542043
-0.00528133
-0.00518378
-0.0051252
-0.00509559
-0.00508235
-3.27123e-05
-1.68123e-05
2.54878e-06
4.42173e-05
0.000112468
0.000185557
0.000229976
0.000200604
9.15507e-06
-0.000462804
-0.00126237
-0.00233994
-0.00361491
-0.00500221
-0.00641568
-0.00778527
-0.00906006
-0.0102041
-0.0111953
-0.0120216
-0.0126775
-0.0131624
-0.0134777
-0.0136274
-0.0136173
-0.0134554
-0.0131531
-0.0127248
-0.0121886
-0.0115657
-0.0108804
-0.0101595
-0.00943196
-0.00872808
-0.00807604
-0.00749679
-0.00699959
-0.00658419
-0.00625184
-0.00601099
-0.00585723
-0.00574607
-0.00562677
-0.00549931
-0.00538402
-0.0052881
-0.00521388
-0.00516322
-0.00513469
-0.00512195
-3.97967e-05
-3.00864e-05
-7.87462e-06
5.03034e-05
0.000138516
0.000218669
0.000231953
7.61932e-05
-0.000396672
-0.00127382
-0.00250753
-0.00398324
-0.005585
-0.00720541
-0.00876009
-0.0101971
-0.0114867
-0.0126147
-0.0135772
-0.0143746
-0.01501
-0.0154875
-0.0158115
-0.0159871
-0.0160204
-0.0159189
-0.0156922
-0.0153517
-0.0149108
-0.0143837
-0.0137842
-0.0131238
-0.0124108
-0.0116501
-0.0108443
-0.00999626
-0.00911146
-0.00820397
-0.00731047
-0.00650798
-0.00590581
-0.00557272
-0.00544253
-0.00537402
-0.00531531
-0.00526887
-0.00523047
-0.00520001
-0.00518025
-0.00517055
-3.99512e-05
-4.02902e-05
-1.77127e-05
4.84649e-05
0.00013486
0.000177358
6.86291e-05
-0.000356232
-0.00123612
-0.00255779
-0.00418413
-0.00596192
-0.00776115
-0.00948127
-0.0110637
-0.0124834
-0.0137328
-0.0148147
-0.0157354
-0.0165013
-0.0171185
-0.017592
-0.0179263
-0.018126
-0.0181962
-0.0181431
-0.0179739
-0.0176976
-0.017324
-0.0168633
-0.0163248
-0.0157146
-0.015034
-0.0142773
-0.0134317
-0.012481
-0.0114117
-0.0102234
-0.00894258
-0.00764491
-0.00647861
-0.00564579
-0.00527185
-0.00522542
-0.00523966
-0.00524063
-0.00523929
-0.00523417
-0.00522798
-0.00522302
-2.88377e-05
-4.09988e-05
-2.50977e-05
2.85148e-05
7.1549e-05
8.31942e-07
-0.000348337
-0.00115819
-0.00248363
-0.00419896
-0.00611264
-0.00806403
-0.00993613
-0.011658
-0.0132039
-0.0145718
-0.0157686
-0.0168053
-0.0176914
-0.0184345
-0.0190408
-0.019515
-0.0198613
-0.0200836
-0.0201861
-0.0201735
-0.0200513
-0.0198256
-0.0195032
-0.0190908
-0.0185942
-0.0180166
-0.0173574
-0.0166098
-0.0157594
-0.0147842
-0.0136582
-0.0123611
-0.0108945
-0.00930319
-0.00770178
-0.00629961
-0.00537244
-0.00507296
-0.00515188
-0.0052206
-0.00525221
-0.00527079
-0.00527871
-0.00527875
-4.05999e-06
-2.92059e-05
-3.36195e-05
-2.62427e-05
-8.68136e-05
-0.000364055
-0.00105691
-0.00229921
-0.0040278
-0.00603421
-0.00811412
-0.0101273
-0.0119884
-0.0136624
-0.0151498
-0.0164614
-0.0176102
-0.018609
-0.0194672
-0.0201924
-0.0207904
-0.0212657
-0.0216224
-0.0218638
-0.0219935
-0.0220148
-0.0219316
-0.0217479
-0.021468
-0.0210957
-0.0206339
-0.0200836
-0.0194427
-0.0187047
-0.0178572
-0.0168812
-0.0157511
-0.0144387
-0.0129238
-0.0112155
-0.00938066
-0.00757383
-0.00605772
-0.0051611
-0.00502289
-0.00520639
-0.0052799
-0.00531793
-0.00533717
-0.00534144
3.04904e-05
-1.08237e-05
-5.61849e-05
-0.000138959
-0.000372751
-0.000942064
-0.00203459
-0.00368793
-0.00573013
-0.00791517
-0.0100601
-0.0120612
-0.0138695
-0.0154802
-0.0169081
-0.0181683
-0.0192754
-0.0202416
-0.0210756
-0.0217853
-0.022376
-0.0228525
-0.0232183
-0.0234763
-0.0236293
-0.0236796
-0.0236295
-0.0234813
-0.0232373
-0.022899
-0.0224674
-0.0219419
-0.0213195
-0.0205943
-0.0197561
-0.0187896
-0.0176739
-0.016383
-0.0148895
-0.0131768
-0.0112647
-0.00924528
-0.00731754
-0.00579667
-0.00504724
-0.00512801
-0.0053295
-0.00538371
-0.00541067
-0.00541821
5.87357e-05
-5.3379e-06
-0.000117069
-0.000337119
-0.000807982
-0.00172468
-0.00321847
-0.00521543
-0.00746922
-0.00973789
-0.0118797
-0.0138303
-0.0155727
-0.0171207
-0.0184944
-0.019709
-0.0207793
-0.0217163
-0.0225289
-0.0232245
-0.0238086
-0.0242856
-0.0246588
-0.0249308
-0.0251036
-0.0251788
-0.0251577
-0.0250411
-0.0248294
-0.0245226
-0.0241197
-0.0236187
-0.023016
-0.0223059
-0.0214803
-0.0205277
-0.0194326
-0.0181744
-0.0167276
-0.015066
-0.0131769
-0.0110926
-0.00893668
-0.00696288
-0.00554559
-0.00506398
-0.00536313
-0.00546862
-0.00550694
-0.00551799
4.95811e-05
-4.62352e-05
-0.000249904
-0.000648122
-0.00139978
-0.00267925
-0.00453241
-0.00678582
-0.00915955
-0.0114442
-0.0135446
-0.0154307
-0.0171077
-0.0185989
-0.0199238
-0.0210975
-0.0221339
-0.0230438
-0.0238359
-0.0245175
-0.0250939
-0.0255695
-0.0259475
-0.0262303
-0.0264195
-0.026516
-0.0265202
-0.0264318
-0.02625
-0.0259735
-0.0256
-0.0251263
-0.0245477
-0.0238584
-0.023051
-0.0221162
-0.021043
-0.019817
-0.0184192
-0.0168249
-0.0150076
-0.0129577
-0.0107243
-0.0084751
-0.00653805
-0.00535378
-0.00525518
-0.00559452
-0.00563617
-0.00565105
-3.88423e-05
-0.000175106
-0.000490855
-0.00109341
-0.0021413
-0.00376157
-0.00590614
-0.00832895
-0.0107512
-0.0130097
-0.0150514
-0.0168714
-0.0184885
-0.0199283
-0.0212086
-0.0223442
-0.0233486
-0.0242321
-0.0250037
-0.0256705
-0.0262382
-0.0267109
-0.027092
-0.0273834
-0.0275865
-0.0277014
-0.0277279
-0.0276648
-0.0275105
-0.0272625
-0.0269177
-0.0264722
-0.0259209
-0.0252577
-0.0244752
-0.0235652
-0.0225185
-0.0213246
-0.0199708
-0.0184393
-0.0167045
-0.0147379
-0.0125343
-0.0101703
-0.00788253
-0.0061022
-0.00533729
-0.00570381
-0.00579047
-0.00582724
-0.000248508
-0.000430883
-0.000869081
-0.00168272
-0.00301361
-0.00492534
-0.00728357
-0.00980007
-0.0122205
-0.0144297
-0.0164074
-0.0181649
-0.0197276
-0.02112
-0.0223586
-0.0234579
-0.0244311
-0.0252887
-0.0260399
-0.0266919
-0.0272504
-0.0277197
-0.0281027
-0.0284013
-0.0286162
-0.0287473
-0.0287937
-0.0287536
-0.0286245
-0.0284035
-0.0280867
-0.0276695
-0.0271467
-0.026512
-0.0257584
-0.0248781
-0.0238628
-0.0227041
-0.0213926
-0.0199165
-0.018257
-0.0163849
-0.0142682
-0.0119123
-0.00944577
-0.00721425
-0.00577104
-0.00557855
-0.00601442
-0.0060564
-0.00060908
-0.000838601
-0.00139811
-0.00241031
-0.00398809
-0.00612696
-0.00862347
-0.0111738
-0.0135599
-0.015709
-0.0176229
-0.0193224
-0.020835
-0.0221829
-0.0233817
-0.0244459
-0.0253889
-0.0262214
-0.0269527
-0.0275902
-0.0281396
-0.0286049
-0.0289889
-0.0292932
-0.0295181
-0.0296632
-0.0297272
-0.0297078
-0.0296021
-0.0294064
-0.0291166
-0.0287277
-0.0282342
-0.0276298
-0.0269076
-0.0260601
-0.0250796
-0.0239587
-0.0226897
-0.0212647
-0.0196714
-0.0178877
-0.0158767
-0.0136029
-0.0111012
-0.00859882
-0.00661795
-0.00584168
-0.00642254
-0.00638966
-0.00112894
-0.00140199
-0.0020713
-0.00325449
-0.0050291
-0.00732717
-0.00989647
-0.0124369
-0.0147695
-0.0168545
-0.0187073
-0.020353
-0.0218184
-0.0231239
-0.0242845
-0.0253152
-0.0262292
-0.0270378
-0.0277502
-0.0283739
-0.0289144
-0.0293757
-0.02976
-0.0300689
-0.0303024
-0.0304599
-0.0305396
-0.0305389
-0.0304544
-0.0302823
-0.030018
-0.0296562
-0.0291915
-0.0286175
-0.0279277
-0.0271149
-0.0261717
-0.0250909
-0.0238656
-0.0224897
-0.020956
-0.0192505
-0.0173434
-0.0151862
-0.0127503
-0.0101426
-0.00777632
-0.00638744
-0.00647282
-0.00669304
-0.0017924
-0.00210195
-0.00286235
-0.00418022
-0.00609692
-0.00849134
-0.0110815
-0.0135827
-0.0158521
-0.017873
-0.0196678
-0.0212629
-0.0226837
-0.0239488
-0.0250732
-0.026072
-0.0269588
-0.027745
-0.0284399
-0.0290509
-0.0295832
-0.0300405
-0.0304249
-0.0307377
-0.0309788
-0.0311471
-0.0312408
-0.0312569
-0.0311918
-0.0310414
-0.0308008
-0.0304648
-0.0300276
-0.0294833
-0.0288254
-0.0280471
-0.0271415
-0.0261017
-0.0249212
-0.0235946
-0.0221169
-0.0204807
-0.0186676
-0.0166339
-0.0143202
-0.0117288
-0.00910447
-0.00708076
-0.0064705
-0.00722043
-0.00256299
-0.0029004
-0.00372994
-0.00514397
-0.00715096
-0.00958932
-0.0121626
-0.0146073
-0.0168101
-0.0187688
-0.0205091
-0.0220568
-0.0234353
-0.0246622
-0.0257526
-0.0267219
-0.0275837
-0.0283496
-0.0290288
-0.0296283
-0.0301532
-0.030607
-0.0309915
-0.0313077
-0.0315552
-0.0317331
-0.031839
-0.03187
-0.0318223
-0.0316916
-0.0314728
-0.0311607
-0.0307497
-0.0302336
-0.0296064
-0.0288615
-0.0279926
-0.0269932
-0.0258572
-0.0245795
-0.0231562
-0.0215839
-0.0198541
-0.0179378
-0.0157754
-0.0133161
-0.0106899
-0.0084534
-0.00757081
-0.00843481
-0.0033907
-0.00374747
-0.00462455
-0.00609918
-0.00815261
-0.0105952
-0.0131274
-0.0155074
-0.0176444
-0.0195447
-0.0212342
-0.0227375
-0.0240765
-0.025268
-0.0263272
-0.0272697
-0.0281092
-0.0288571
-0.0295225
-0.0301122
-0.0306309
-0.0310817
-0.0314664
-0.0317856
-0.0320389
-0.0322251
-0.0323418
-0.032386
-0.0323538
-0.0322406
-0.0320416
-0.0317513
-0.0313641
-0.0308742
-0.0302756
-0.0295623
-0.0287282
-0.0277675
-0.0266745
-0.0254443
-0.0240736
-0.022561
-0.0209052
-0.0190922
-0.0170788
-0.0147985
-0.0123049
-0.0100636
-0.0090545
-0.0095838
-0.00422072
-0.00458958
-0.00549545
-0.00700128
-0.0090675
-0.0114874
-0.0139654
-0.0162796
-0.0183549
-0.0202015
-0.0218444
-0.023307
-0.0246097
-0.0257691
-0.0268004
-0.0277193
-0.0285395
-0.0292721
-0.029926
-0.0305077
-0.0310214
-0.0314701
-0.0318553
-0.0321773
-0.0324359
-0.0326294
-0.0327555
-0.0328112
-0.0327925
-0.0326948
-0.0325132
-0.0322424
-0.0318767
-0.0314104
-0.0308379
-0.0301534
-0.0293514
-0.0284265
-0.0273738
-0.0261886
-0.024868
-0.023411
-0.0218201
-0.0200925
-0.0182033
-0.0160857
-0.0137212
-0.0114132
-0.0100175
-0.00999346
-0.00500146
-0.00537675
-0.00629658
-0.00781146
-0.00986709
-0.0122485
-0.014668
-0.0169203
-0.0189402
-0.0207389
-0.0223402
-0.0237663
-0.0250366
-0.0261677
-0.027175
-0.0280739
-0.028878
-0.0295982
-0.030243
-0.0308185
-0.0313288
-0.0317763
-0.0321624
-0.0324875
-0.0327507
-0.0329508
-0.0330852
-0.0331508
-0.0331437
-0.0330593
-0.0328928
-0.0326388
-0.0322918
-0.0318463
-0.0312969
-0.0306381
-0.0298648
-0.0289722
-0.027956
-0.0268121
-0.0255378
-0.024132
-0.0225984
-0.0209394
-0.0191441
-0.0171504
-0.0148764
-0.0124388
-0.0105237
-0.00982826
-0.00569082
-0.00606806
-0.00699065
-0.00849908
-0.0105294
-0.0128651
-0.0152281
-0.0174259
-0.0193984
-0.0211561
-0.0227215
-0.0241158
-0.0253583
-0.0264654
-0.0274528
-0.0283356
-0.0291271
-0.029838
-0.0304763
-0.0310477
-0.031556
-0.0320035
-0.0323912
-0.0327194
-0.0329873
-0.0331932
-0.0333349
-0.033409
-0.0334117
-0.0333385
-0.0331846
-0.0329447
-0.0326135
-0.0321856
-0.0316557
-0.0310188
-0.0302703
-0.0294058
-0.0284218
-0.0273147
-0.0260823
-0.0247231
-0.0232402
-0.0216377
-0.0199132
-0.0180131
-0.015815
-0.0132653
-0.010854
-0.00951807
-0.00626023
-0.00663496
-0.00755138
-0.0090427
-0.0110393
-0.0133278
-0.0156403
-0.017793
-0.0197274
-0.0214518
-0.0229877
-0.0243559
-0.0255756
-0.0266635
-0.0276353
-0.028506
-0.0292885
-0.0299932
-0.0306276
-0.0311971
-0.0317052
-0.0321539
-0.0325441
-0.0328758
-0.0331482
-0.0333597
-0.0335076
-0.033589
-0.0335998
-0.0335358
-0.033392
-0.0331634
-0.0328448
-0.0324309
-0.0319168
-0.0312977
-0.0305695
-0.0297283
-0.0287715
-0.0276962
-0.0265008
-0.0251835
-0.0237469
-0.0221946
-0.0205297
-0.0187102
-0.016603
-0.0140343
-0.0112949
-0.00945454
-0.00669631
-0.00706259
-0.00796405
-0.00942999
-0.0113879
-0.0136309
-0.0159009
-0.0180191
-0.0199254
-0.021625
-0.0231385
-0.0244866
-0.0256888
-0.0267624
-0.0277232
-0.028586
-0.0293632
-0.0300648
-0.030698
-0.0312679
-0.0317776
-0.0322288
-0.0326225
-0.0329584
-0.0332355
-0.0334521
-0.0336058
-0.0336932
-0.0337106
-0.0336537
-0.0335176
-0.0332974
-0.032988
-0.0325844
-0.0320819
-0.031476
-0.0307631
-0.0299401
-0.0290051
-0.0279558
-0.0267919
-0.0255119
-0.0241182
-0.0226139
-0.0210062
-0.0192674
-0.017279
-0.0148044
-0.0119576
-0.00980819
-0.00700014
-0.00734903
-0.00822466
-0.00965679
-0.0115718
-0.0137719
-0.0160078
-0.0181022
-0.0199908
-0.0216746
-0.0231732
-0.0245077
-0.0256981
-0.0267625
-0.0277169
-0.0285758
-0.0293514
-0.0300532
-0.030688
-0.0312606
-0.0317737
-0.0322292
-0.0326274
-0.0329682
-0.0332504
-0.0334721
-0.0336309
-0.0337234
-0.0337459
-0.0336941
-0.0335633
-0.0333485
-0.0330449
-0.0326476
-0.0321521
-0.0315545
-0.0308516
-0.0300408
-0.0291214
-0.0280922
-0.0269539
-0.0257061
-0.0243521
-0.0228954
-0.0213471
-0.0196946
-0.0178484
-0.0155599
-0.0128058
-0.0105409
-0.00718414
-0.00750267
-0.00833775
-0.00972553
-0.0115926
-0.0137513
-0.0159603
-0.0180412
-0.0199223
-0.0215997
-0.0230913
-0.0244188
-0.0256034
-0.0266637
-0.0276162
-0.0284754
-0.029253
-0.0299581
-0.0305973
-0.031175
-0.0316938
-0.032155
-0.0325592
-0.0329057
-0.0331935
-0.0334204
-0.0335839
-0.0336808
-0.033707
-0.0336585
-0.0335304
-0.033318
-0.0330165
-0.0326212
-0.032128
-0.0315332
-0.0308343
-0.0300295
-0.0291189
-0.0281027
-0.0269833
-0.0257618
-0.0244432
-0.0230326
-0.0215456
-0.0199835
-0.0182911
-0.0162406
-0.0137165
-0.011493
-0.00726647
-0.00753781
-0.00831341
-0.00964323
-0.011455
-0.0135718
-0.0157593
-0.0178355
-0.0197191
-0.0213993
-0.0228921
-0.0242197
-0.0254042
-0.0264655
-0.0274206
-0.028284
-0.0290671
-0.0297788
-0.0304253
-0.0310106
-0.0315372
-0.0320061
-0.0324176
-0.0327711
-0.0330651
-0.0332975
-0.0334656
-0.033566
-0.0335947
-0.0335475
-0.0334198
-0.0332067
-0.0329035
-0.0325058
-0.0320097
-0.0314119
-0.0307105
-0.0299046
-0.0289954
-0.0279844
-0.0268761
-0.0256734
-0.0243842
-0.0230158
-0.0215886
-0.0201161
-0.0185754
-0.0167761
-0.0145512
-0.0124735
-0.00726366
-0.00746912
-0.00816404
-0.00941992
-0.011167
-0.0132385
-0.0154071
-0.0174855
-0.0193806
-0.0210727
-0.0225747
-0.0239093
-0.0250996
-0.0261669
-0.027129
-0.0280004
-0.0287926
-0.0295141
-0.0301708
-0.0307663
-0.031303
-0.0317817
-0.0322023
-0.032564
-0.0328651
-0.0331035
-0.0332761
-0.0333794
-0.0334095
-0.0333619
-0.033232
-0.0330149
-0.0327062
-0.0323014
-0.0317969
-0.0311897
-0.0304789
-0.029664
-0.0287478
-0.0277332
-0.0266267
-0.0254339
-0.0241653
-0.0228318
-0.0214583
-0.0200686
-0.0186667
-0.0171044
-0.0151926
-0.0133161
-0.00718382
-0.0073071
-0.00790222
-0.00906802
-0.0107393
-0.0127594
-0.0149082
-0.0169927
-0.0189064
-0.0206187
-0.022138
-0.0234863
-0.0246883
-0.0257665
-0.0267397
-0.0276229
-0.0284277
-0.0291622
-0.0298321
-0.0304408
-0.0309901
-0.0314808
-0.0319124
-0.0322839
-0.0325933
-0.0328382
-0.0330154
-0.0331212
-0.0331515
-0.0331017
-0.0329672
-0.032743
-0.0324246
-0.0320077
-0.031489
-0.0308658
-0.030138
-0.0293057
-0.0283733
-0.0273451
-0.02623
-0.025036
-0.023777
-0.0224675
-0.0211367
-0.0198173
-0.0185338
-0.0171782
-0.015558
-0.0139006
-0.0070249
-0.00705804
-0.00754208
-0.00860404
-0.0101874
-0.0121463
-0.0142697
-0.0163601
-0.0182968
-0.0200362
-0.02158
-0.0229488
-0.0241682
-0.025262
-0.0262504
-0.0271492
-0.0279699
-0.0287208
-0.029407
-0.0300318
-0.0305967
-0.0311019
-0.0315468
-0.0319298
-0.0322489
-0.0325012
-0.0326833
-0.0327913
-0.0328209
-0.0327673
-0.0326256
-0.0323909
-0.0320587
-0.0316245
-0.0310855
-0.0304392
-0.0296862
-0.0288275
-0.0278687
-0.0268159
-0.0256802
-0.0244724
-0.0232094
-0.0219098
-0.020607
-0.0193411
-0.0181518
-0.0169659
-0.0155974
-0.0141527
-0.00678356
-0.00673327
-0.00710558
-0.00805273
-0.00953384
-0.0114168
-0.0135028
-0.0155932
-0.0175531
-0.0193238
-0.0208982
-0.0222938
-0.023536
-0.0246503
-0.0256581
-0.0265761
-0.0274164
-0.028187
-0.0288931
-0.0295374
-0.0301209
-0.0306435
-0.0311042
-0.031501
-0.0318314
-0.0320922
-0.0322798
-0.0323899
-0.0324179
-0.0323587
-0.0322075
-0.0319588
-0.0316084
-0.0311517
-0.0305861
-0.0299092
-0.0291224
-0.0282276
-0.0272317
-0.0261423
-0.0249729
-0.0237369
-0.0224544
-0.0211481
-0.0198553
-0.018623
-0.0175019
-0.0164485
-0.0152856
-0.014034
-0.00647504
-0.00636638
-0.00663224
-0.00745183
-0.00881042
-0.0105953
-0.0126243
-0.0147008
-0.0166779
-0.0184804
-0.0200894
-0.0215169
-0.0227873
-0.0239268
-0.0249583
-0.0258995
-0.0267631
-0.0275572
-0.0282869
-0.0289543
-0.02956
-0.0301034
-0.0305829
-0.030996
-0.0313398
-0.0316106
-0.0318045
-0.0319167
-0.0319425
-0.0318762
-0.0317131
-0.0314472
-0.0310744
-0.0305896
-0.0299909
-0.0292758
-0.0284464
-0.0275053
-0.0264607
-0.025322
-0.0241046
-0.0228246
-0.0215053
-0.0201736
-0.0188708
-0.0176509
-0.0165724
-0.0156168
-0.0146142
-0.0135315
-0.0061483
-0.00602158
-0.00618034
-0.00685115
-0.00805792
-0.00971369
-0.0116563
-0.013696
-0.0156763
-0.0175052
-0.0191493
-0.0206124
-0.0219158
-0.0230855
-0.0241453
-0.0251141
-0.0260054
-0.0268274
-0.0275849
-0.0282797
-0.0289118
-0.0294799
-0.0299816
-0.0304141
-0.0307737
-0.0310564
-0.0312577
-0.0313724
-0.0313955
-0.0313209
-0.0311435
-0.0308571
-0.0304575
-0.0299395
-0.0293011
-0.02854
-0.0276589
-0.0266611
-0.0255561
-0.0243546
-0.0230741
-0.0217335
-0.0203587
-0.0189815
-0.017647
-0.0164171
-0.0153563
-0.0144683
-0.0135855
-0.0126472
-0.00586403
-0.00575805
-0.00580489
-0.00630085
-0.00732048
-0.00880896
-0.0106274
-0.0125973
-0.014557
-0.0163988
-0.0180733
-0.0195728
-0.0209128
-0.0221176
-0.0232109
-0.0242126
-0.0251367
-0.0259917
-0.0267822
-0.0275095
-0.0281729
-0.0287702
-0.0292985
-0.0297539
-0.0301325
-0.0304293
-0.0306396
-0.0307575
-0.0307778
-0.0306937
-0.0305002
-0.0301904
-0.02976
-0.0292034
-0.028519
-0.0277043
-0.0267626
-0.0256977
-0.0245202
-0.0232423
-0.021883
-0.020464
-0.0190139
-0.0175699
-0.0161811
-0.0149192
-0.0138529
-0.0130066
-0.0122077
-0.0113923
-0.00564403
-0.00557189
-0.00552591
-0.00583576
-0.00663883
-0.00792073
-0.00957144
-0.0114293
-0.0133335
-0.0151646
-0.0168568
-0.0183888
-0.0197674
-0.0210121
-0.0221453
-0.0231866
-0.0241501
-0.0250448
-0.0258747
-0.0266407
-0.0273412
-0.0279732
-0.028533
-0.0290157
-0.0294169
-0.0297307
-0.029952
-0.0300742
-0.0300919
-0.0299977
-0.0297863
-0.0294503
-0.0289854
-0.0283854
-0.0276491
-0.0267735
-0.0257627
-0.0246206
-0.0233588
-0.0219908
-0.0205367
-0.0190213
-0.0174749
-0.015942
-0.0144753
-0.0131592
-0.0120652
-0.0112393
-0.0104933
-0.00978302
-0.00547114
-0.00542156
-0.00533621
-0.00547478
-0.00604745
-0.00709013
-0.00852829
-0.0102243
-0.0120267
-0.0138106
-0.0154971
-0.0170503
-0.0184651
-0.0197534
-0.0209334
-0.0220226
-0.0230345
-0.0239775
-0.0248552
-0.0256679
-0.026413
-0.0270865
-0.0276838
-0.0281992
-0.0286273
-0.0289616
-0.0291966
-0.0293248
-0.0293407
-0.0292361
-0.0290058
-0.0286414
-0.028139
-0.0274915
-0.026698
-0.0257552
-0.0246675
-0.0234389
-0.0220817
-0.0206102
-0.0190452
-0.0174146
-0.0157506
-0.0141058
-0.0125372
-0.0111454
-0.0100028
-0.00917941
-0.00845795
-0.00783861
-0.00533182
-0.00529505
-0.00521969
-0.00522663
-0.00557435
-0.00635792
-0.00754327
-0.0090235
-0.0106662
-0.0123521
-0.0139954
-0.0155479
-0.0169907
-0.0183245
-0.0195591
-0.0207073
-0.0217795
-0.0227826
-0.0237194
-0.0245888
-0.0253877
-0.026111
-0.0267531
-0.0273071
-0.0277675
-0.0281264
-0.0283783
-0.0285146
-0.0285302
-0.0284154
-0.0281657
-0.0277715
-0.0272292
-0.026531
-0.025676
-0.0246607
-0.0234894
-0.0221664
-0.0207034
-0.0191161
-0.0174243
-0.0156602
-0.0138565
-0.0120768
-0.0103815
-0.00889312
-0.00768107
-0.00684512
-0.00612054
-0.00558051
-0.00522334
-0.00519484
-0.0051386
-0.00508004
-0.00523723
-0.00576271
-0.00666539
-0.00787578
-0.00929213
-0.0108135
-0.0123591
-0.0138737
-0.0153256
-0.0167009
-0.0179971
-0.0192171
-0.0203655
-0.0214451
-0.0224563
-0.0233965
-0.0242616
-0.0250451
-0.0257412
-0.0263417
-0.0268407
-0.0272293
-0.0275022
-0.0276497
-0.0276668
-0.0275431
-0.0272744
-0.0268498
-0.0262666
-0.0255157
-0.0245967
-0.0235053
-0.0222457
-0.0208219
-0.0192445
-0.0175301
-0.0156968
-0.0137813
-0.0118161
-0.00987905
-0.00803246
-0.00642777
-0.00512479
-0.00426241
-0.00350348
-0.00303165
-0.00514549
-0.00511863
-0.00506968
-0.00500858
-0.00503984
-0.00533521
-0.00594424
-0.00683665
-0.00795377
-0.00923051
-0.0106062
-0.0120295
-0.0134593
-0.0148655
-0.0162279
-0.0175346
-0.0187786
-0.0199553
-0.0210609
-0.0220898
-0.0230367
-0.0238937
-0.0246549
-0.0253108
-0.025856
-0.0262802
-0.026579
-0.0267411
-0.0267628
-0.0266319
-0.0263455
-0.0258913
-0.0252673
-0.0244634
-0.0234794
-0.0223102
-0.0209592
-0.0194304
-0.0177317
-0.0158811
-0.0138932
-0.0118113
-0.00966423
-0.00755013
-0.00552767
-0.00378853
-0.00236957
-0.00146574
-0.000633028
-0.000214518
-0.00509901
-0.00507023
-0.00502475
-0.00498567
-0.00497427
-0.00509082
-0.00541699
-0.00595899
-0.00670622
-0.00764724
-0.00876288
-0.0100212
-0.01138
-0.0127939
-0.0142211
-0.0156279
-0.0169903
-0.0182904
-0.0195168
-0.0206583
-0.0217082
-0.0226562
-0.0234971
-0.0242199
-0.0248209
-0.0252881
-0.0256188
-0.0258001
-0.0258302
-0.0256952
-0.0253936
-0.0249119
-0.024249
-0.0233935
-0.0223456
-0.0210994
-0.0196566
-0.0180214
-0.0161975
-0.0142058
-0.0120537
-0.00979509
-0.00744987
-0.00514495
-0.0029237
-0.0010352
0.000531609
0.00149868
0.0024622
0.00285443
-0.00507529
-0.00504912
-0.00501924
-0.00500803
-0.00501083
-0.00502195
-0.00509656
-0.00527634
-0.00559871
-0.00611731
-0.00687599
-0.00788336
-0.00910867
-0.0104951
-0.0119771
-0.0134934
-0.0149957
-0.0164467
-0.0178231
-0.0191047
-0.0202823
-0.0213418
-0.0222798
-0.0230831
-0.023751
-0.0242696
-0.0246395
-0.0248455
-0.0248889
-0.0247536
-0.0244408
-0.0239348
-0.0232364
-0.0223327
-0.021224
-0.0199037
-0.0183712
-0.0166317
-0.0146824
-0.0125502
-0.0102301
-0.00779468
-0.00524259
-0.00274507
-0.000304794
0.00174369
0.00350408
0.00457285
0.00575464
0.00618017
-0.00505176
-0.00504626
-0.00505818
-0.00508244
-0.0051002
-0.00506562
-0.00495072
-0.00478742
-0.00465504
-0.00468024
-0.00498953
-0.00565389
-0.00667168
-0.00798222
-0.00949724
-0.0111232
-0.0127824
-0.0144104
-0.0159678
-0.0174201
-0.0187543
-0.0199498
-0.0210061
-0.0219066
-0.0226555
-0.023236
-0.0236541
-0.0238917
-0.0239547
-0.0238243
-0.0235055
-0.0229801
-0.0222512
-0.0213047
-0.0201401
-0.0187525
-0.0171352
-0.0153001
-0.0132306
-0.0109707
-0.00848877
-0.0058948
-0.00313932
-0.00046734
0.00220843
0.00442027
0.00643861
0.00768452
0.00922381
0.00982967
-0.00499675
-0.00505364
-0.00513833
-0.00519593
-0.00520151
-0.00512025
-0.00487657
-0.00443269
-0.0038675
-0.00337333
-0.00317499
-0.00342608
-0.00417066
-0.00535545
-0.00687363
-0.00859707
-0.0104174
-0.0122358
-0.0139957
-0.0156407
-0.0171554
-0.0185072
-0.0197015
-0.0207139
-0.0215579
-0.0222102
-0.0226864
-0.0229624
-0.0230527
-0.0229329
-0.0226147
-0.0220763
-0.0213236
-0.0203424
-0.0191295
-0.0176863
-0.0159935
-0.0140814
-0.0119049
-0.00954718
-0.00692197
-0.00421375
-0.00127304
0.00152652
0.00444558
0.00681874
0.0091741
0.0107481
0.0128597
0.0140462
-0.00486407
-0.0050445
-0.00522641
-0.00530094
-0.00526774
-0.00511563
-0.00475838
-0.00409615
-0.0031651
-0.00218842
-0.00148065
-0.00128678
-0.00171623
-0.00272985
-0.00421763
-0.00601329
-0.00798557
-0.00999176
-0.0119631
-0.013811
-0.0155224
-0.0170436
-0.0183916
-0.0195274
-0.020479
-0.021212
-0.0217558
-0.0220775
-0.0222027
-0.0221012
-0.0217908
-0.021249
-0.0204804
-0.0194788
-0.0182274
-0.0167504
-0.0149963
-0.0130421
-0.0107808
-0.00837997
-0.00564606
-0.00290033
0.000181661
0.00303251
0.00616621
0.00871748
0.0114552
0.0136691
0.0166552
0.0195977
-0.00456698
-0.00493506
-0.00524347
-0.00533202
-0.00525355
-0.00501302
-0.00452199
-0.00365935
-0.00243904
-0.00108261
3.21735e-05
0.000611458
0.000467749
-0.000368516
-0.00180656
-0.00363843
-0.00573552
-0.00789498
-0.010061
-0.0120888
-0.0139916
-0.0156697
-0.0171734
-0.0184263
-0.0194913
-0.0203027
-0.020922
-0.0212904
-0.02146
-0.0213816
-0.0210908
-0.0205555
-0.0197862
-0.0187811
-0.0175125
-0.0160291
-0.0142452
-0.0122909
-0.0099949
-0.00761116
-0.00484903
-0.00213722
0.00096013
0.00382294
0.00699515
0.00986602
0.0128647
0.0164256
0.0206602
0.0289116
-0.00394837
-0.00459054
-0.00510657
-0.00526723
-0.00517383
-0.00484656
-0.00420984
-0.00314523
-0.00169741
-6.22022e-05
0.00131584
0.00216921
0.00221657
0.00153378
0.000128889
-0.00169902
-0.00389558
-0.00615149
-0.00847906
-0.010639
-0.0127076
-0.0145099
-0.0161542
-0.0175048
-0.0186775
-0.0195572
-0.0202547
-0.0206662
-0.0208922
-0.0208373
-0.0205893
-0.0200633
-0.0193325
-0.0183269
-0.0171037
-0.0156139
-0.0138999
-0.0119359
-0.00976316
-0.00736318
-0.00482399
-0.0020596
0.000659594
0.00373898
0.00639493
0.0101097
0.0129533
0.0196849
0.0259021
0.0497538
-0.00308798
-0.0040138
-0.00477737
-0.0051038
-0.00506214
-0.00464878
-0.00387141
-0.00258476
-0.000984885
0.000838479
0.00228152
0.00328746
0.00332326
0.00274501
0.00129045
-0.000505336
-0.00278985
-0.00507205
-0.00751478
-0.00972705
-0.0119201
-0.0137718
-0.0155381
-0.016918
-0.018209
-0.0190901
-0.0199083
-0.02029
-0.0206498
-0.0205308
-0.0204444
-0.019815
-0.0192924
-0.0181355
-0.0171932
-0.0154904
-0.0141663
-0.0119071
-0.0102824
-0.00747189
-0.0056956
-0.0023415
-0.000622075
0.00340366
0.00502364
0.0107794
0.0136907
0.0276422
0.0398527
0.105036
-0.00414386
-0.00454519
-0.00507215
-0.00525982
-0.00516537
-0.00467033
-0.00385174
-0.00244106
-0.000801154
0.00111539
0.00256147
0.00359785
0.00365402
0.00307218
0.00167776
-0.00014721
-0.00236129
-0.00469754
-0.00708094
-0.00936296
-0.0115104
-0.0134344
-0.0151639
-0.016608
-0.0178664
-0.0187968
-0.0195845
-0.0199952
-0.0203268
-0.020211
-0.0201
-0.0194397
-0.0188977
-0.0176642
-0.0167072
-0.0148654
-0.0135253
-0.011041
-0.00937731
-0.00622068
-0.00432107
-0.000433981
0.00165808
0.00661123
0.00933945
0.0175089
0.0243594
0.0503018
0.0838001
0.256285
