# vtk DataFile Version 2.0
u_velocity
ASCII
DATASET RECTILINEAR_GRID
DIMENSIONS 52 51 1
X_COORDINATES 52 double
0 0.01 0.03 0.05 0.07 0.09 0.11 0.13 0.15 0.17 0.19 0.21 0.23 0.25 0.27 0.29 0.31 0.33 0.35 0.37 0.39 0.41 0.43 0.45 0.47 0.49 0.51 0.53 0.55 0.57 0.59 0.61 0.63 0.65 0.67 0.69 0.71 0.73 0.75 0.77 0.79 0.81 0.83 0.85 0.87 0.89 0.91 0.93 0.95 0.97 0.99 1 
Y_COORDINATES 51 double
0 0.02 0.04 0.06 0.08 0.1 0.12 0.14 0.16 0.18 0.2 0.22 0.24 0.26 0.28 0.3 0.32 0.34 0.36 0.38 0.4 0.42 0.44 0.46 0.48 0.5 0.52 0.54 0.56 0.58 0.6 0.62 0.64 0.66 0.68 0.7 0.72 0.74 0.76 0.78 0.8 0.82 0.84 0.86 0.88 0.9 0.92 0.94 0.96 0.98 1 
Z_COORDINATES 1 double
0.0

CELL_DATA 2550
SCALARS u_velocity double 1
LOOKUP_TABLE default
0
-0.000283166
-0.000201944
0.000311518
0.000908839
0.00134144
0.00162628
0.00195707
0.00254162
0.00345979
0.004584
0.00561449
0.0062204
0.0061352
0.0051501
0.00337435
0.000634592
-0.00454107
-0.0130646
-0.0241578
-0.0365882
-0.0491789
-0.0608448
-0.0706944
-0.0780106
-0.0822414
-0.0829817
-0.0799688
-0.0730933
-0.0624338
-0.0483007
-0.0312958
-0.0123514
0.00725844
0.0259793
0.0421201
0.0540841
0.060641
0.0611742
0.0558594
0.0457922
0.0331052
0.020735
0.0111912
0.00518407
0.00188131
0.000211138
-0.000511043
-0.000645342
-0.000383122
0
0
-9.85002e-05
0.000610294
0.00194411
0.00320766
0.0039656
0.0042307
0.00430155
0.00448317
0.00481148
0.00489987
0.00401382
0.00130722
-0.0040529
-0.0134012
-0.0282136
-0.0475954
-0.0686214
-0.0888271
-0.106971
-0.122529
-0.135103
-0.144533
-0.150735
-0.153686
-0.153393
-0.149865
-0.143133
-0.133235
-0.120267
-0.104398
-0.0859318
-0.0653534
-0.0433744
-0.0209404
0.000807791
0.0206444
0.0374084
0.0501324
0.0580656
0.0606055
0.057344
0.0486359
0.0364137
0.023872
0.0137373
0.00693297
0.00294036
0.00086952
4.75367e-05
0
0
0.000227567
0.00161941
0.00349034
0.00487867
0.00537056
0.00508363
0.00434327
0.00329663
0.0015445
-0.0019963
-0.00889628
-0.0210534
-0.0398457
-0.0636006
-0.0885953
-0.112628
-0.134355
-0.152959
-0.168366
-0.180667
-0.190057
-0.196736
-0.200842
-0.202472
-0.201643
-0.198326
-0.192439
-0.183874
-0.172521
-0.158311
-0.141274
-0.121609
-0.0997702
-0.0765091
-0.0528756
-0.0300963
-0.00934118
0.00855153
0.0231798
0.0343028
0.0413205
0.0432226
0.0396473
0.0319287
0.0226562
0.0142298
0.00785344
0.00358654
0.00102461
0
0
0.000581213
0.00260748
0.00464106
0.00550207
0.00497875
0.00339798
0.00101441
-0.00257153
-0.00882818
-0.0201117
-0.038544
-0.0636699
-0.0916017
-0.118636
-0.143201
-0.164663
-0.182826
-0.197777
-0.209761
-0.219088
-0.22606
-0.230933
-0.233895
-0.235068
-0.234498
-0.232166
-0.227977
-0.221762
-0.213283
-0.202248
-0.188348
-0.171344
-0.151178
-0.128142
-0.103025
-0.0771718
-0.0523333
-0.0302047
-0.0117774
0.00301428
0.0147251
0.0231997
0.0274397
0.0269908
0.0228094
0.0167816
0.0106987
0.00559789
0.00185658
0
0
0.00102538
0.00356777
0.00523557
0.00484592
0.00256856
-0.00110574
-0.00636192
-0.0148142
-0.0293027
-0.0517846
-0.0805059
-0.110623
-0.138438
-0.162869
-0.183609
-0.200636
-0.214303
-0.224924
-0.232956
-0.238815
-0.242901
-0.245553
-0.247029
-0.24753
-0.247166
-0.245985
-0.243939
-0.240887
-0.236556
-0.230533
-0.222243
-0.210988
-0.196035
-0.176815
-0.153212
-0.125908
-0.0966264
-0.0680295
-0.0429932
-0.02328
-0.00853592
0.00279859
0.0112299
0.0160128
0.0168328
0.0144846
0.0104056
0.00594759
0.00209352
0
0
0.00156749
0.00427294
0.00485095
0.00249446
-0.00218243
-0.00886618
-0.0188242
-0.034961
-0.0593194
-0.0898268
-0.121144
-0.149184
-0.172922
-0.192304
-0.207349
-0.218599
-0.226637
-0.232059
-0.23551
-0.237486
-0.238458
-0.238753
-0.238643
-0.238311
-0.237888
-0.237458
-0.237051
-0.236637
-0.236076
-0.235077
-0.233117
-0.229383
-0.222753
-0.211884
-0.195466
-0.172687
-0.143841
-0.1109
-0.0776168
-0.0485875
-0.0270005
-0.012455
-0.00218923
0.00512084
0.00913128
0.00983381
0.00803757
0.00493988
0.00177304
0
0
0.00210643
0.00430818
0.00299844
-0.00190593
-0.0095593
-0.0204047
-0.0368955
-0.0613447
-0.0921957
-0.124028
-0.152002
-0.174687
-0.192291
-0.20497
-0.21341
-0.218578
-0.221269
-0.222312
-0.222318
-0.221743
-0.220925
-0.22005
-0.219266
-0.218642
-0.218251
-0.218148
-0.218406
-0.219096
-0.220271
-0.221918
-0.223868
-0.225674
-0.226469
-0.224852
-0.218907
-0.206479
-0.185795
-0.156403
-0.120203
-0.0819759
-0.0484309
-0.0248499
-0.0109917
-0.00253212
0.00283592
0.00529884
0.00520824
0.00344822
0.00123085
0
0
0.00241042
0.00323807
-0.000617525
-0.00844185
-0.0196309
-0.0356337
-0.0588227
-0.0887011
-0.120405
-0.148316
-0.170068
-0.185994
-0.19663
-0.202744
-0.20567
-0.206476
-0.206048
-0.205084
-0.203948
-0.202895
-0.20201
-0.201327
-0.200845
-0.200548
-0.200443
-0.200544
-0.200907
-0.201611
-0.202777
-0.204545
-0.207048
-0.210319
-0.214147
-0.217851
-0.220031
-0.218436
-0.210151
-0.192298
-0.163327
-0.124643
-0.0818429
-0.0440318
-0.0191455
-0.00687544
-0.000764484
0.00233284
0.00311184
0.0022483
0.000796075
0
0
0.00216898
0.000795372
-0.00596756
-0.0168836
-0.0319772
-0.0530898
-0.0808339
-0.111646
-0.139618
-0.161044
-0.175857
-0.185147
-0.189846
-0.191416
-0.191274
-0.190278
-0.189099
-0.188041
-0.187205
-0.186635
-0.186278
-0.186113
-0.186102
-0.186231
-0.186498
-0.186911
-0.187497
-0.188296
-0.189373
-0.190819
-0.192762
-0.195362
-0.198767
-0.202996
-0.207685
-0.211729
-0.212915
-0.20788
-0.192735
-0.164636
-0.124137
-0.0774669
-0.0364581
-0.0119986
-0.00240445
0.0012294
0.00224943
0.0017391
0.000640034
0
0
0.00114465
-0.00298799
-0.0126972
-0.0266598
-0.0454608
-0.0702534
-0.0992353
-0.127129
-0.149001
-0.163582
-0.172231
-0.176339
-0.177284
-0.176702
-0.175564
-0.174364
-0.173404
-0.172686
-0.172204
-0.171924
-0.171807
-0.17185
-0.172039
-0.172384
-0.172889
-0.173573
-0.174451
-0.175551
-0.176902
-0.178539
-0.18051
-0.182877
-0.185729
-0.18918
-0.193313
-0.197989
-0.202457
-0.204815
-0.201632
-0.188312
-0.160777
-0.118612
-0.0687623
-0.0264278
-0.00517058
0.00109529
0.0024657
0.00194431
0.000778978
0
0
-0.000686335
-0.00777241
-0.0201973
-0.0368654
-0.0584519
-0.0846822
-0.111854
-0.134608
-0.149982
-0.158713
-0.16277
-0.163637
-0.162853
-0.161655
-0.160457
-0.159471
-0.158745
-0.15821
-0.157876
-0.157716
-0.157729
-0.157917
-0.158274
-0.158805
-0.159508
-0.160391
-0.161463
-0.162741
-0.164244
-0.166005
-0.168056
-0.17044
-0.1732
-0.176388
-0.180057
-0.184237
-0.188813
-0.193202
-0.195758
-0.193154
-0.180386
-0.15241
-0.108082
-0.0556925
-0.0150247
-0.000131963
0.00304018
0.00261366
0.00113349
0
0
-0.00311439
-0.0130096
-0.02771
-0.0464168
-0.06938
-0.0948255
-0.118184
-0.135161
-0.144882
-0.149307
-0.150452
-0.149724
-0.148449
-0.147267
-0.146249
-0.145476
-0.144911
-0.144527
-0.144343
-0.144339
-0.144523
-0.144884
-0.145421
-0.146138
-0.147034
-0.148114
-0.149382
-0.150839
-0.152485
-0.154322
-0.156356
-0.158605
-0.161105
-0.163917
-0.167128
-0.170825
-0.175048
-0.179647
-0.18399
-0.186405
-0.183485
-0.169895
-0.13997
-0.0925204
-0.0387144
-0.00470765
0.00285134
0.00328153
0.0015596
0
0
-0.0057839
-0.0180837
-0.0344646
-0.0543144
-0.077171
-0.100177
-0.118869
-0.130533
-0.135966
-0.137609
-0.137204
-0.135938
-0.134718
-0.133715
-0.132889
-0.132281
-0.131837
-0.131567
-0.131474
-0.131544
-0.131785
-0.132199
-0.132796
-0.133589
-0.134586
-0.135798
-0.137227
-0.138874
-0.140733
-0.142791
-0.145026
-0.147411
-0.149916
-0.152531
-0.155291
-0.158304
-0.16175
-0.165792
-0.170354
-0.174712
-0.176879
-0.172963
-0.1571
-0.123369
-0.0718485
-0.0194935
0.00063718
0.00358315
0.00195276
0
0
-0.00830925
-0.0224394
-0.0398172
-0.0598576
-0.0813792
-0.101028
-0.115097
-0.12247
-0.125007
-0.125082
-0.124036
-0.122766
-0.121751
-0.120917
-0.120234
-0.119718
-0.11933
-0.119094
-0.119007
-0.119078
-0.119325
-0.11976
-0.120401
-0.121256
-0.122331
-0.123629
-0.125147
-0.126883
-0.128834
-0.130992
-0.133347
-0.135878
-0.138551
-0.141316
-0.144117
-0.146931
-0.149822
-0.152995
-0.156743
-0.161144
-0.165429
-0.167114
-0.161384
-0.14154
-0.102016
-0.0465571
-0.00298158
0.00320634
0.00218869
0
0
-0.0103647
-0.025668
-0.0433463
-0.0627263
-0.0820903
-0.0981143
-0.108152
-0.112398
-0.113191
-0.11253
-0.111359
-0.110279
-0.109455
-0.108742
-0.108146
-0.10767
-0.107303
-0.107077
-0.107004
-0.107106
-0.107404
-0.107909
-0.108632
-0.109574
-0.110738
-0.11212
-0.113719
-0.115526
-0.117532
-0.119724
-0.122088
-0.124604
-0.127255
-0.130012
-0.132841
-0.135692
-0.138529
-0.14138
-0.144422
-0.147985
-0.15223
-0.156268
-0.156914
-0.148026
-0.121993
-0.074895
-0.0189284
0.000483078
0.00211366
0
0
-0.0117316
-0.0275416
-0.0448791
-0.0629435
-0.0797366
-0.0923301
-0.0991616
-0.101335
-0.101216
-0.100319
-0.0992613
-0.0984001
-0.0977144
-0.0970837
-0.0965413
-0.0960898
-0.0957461
-0.0955471
-0.095511
-0.0956629
-0.0960149
-0.0965728
-0.0973424
-0.0983259
-0.0995273
-0.100948
-0.102587
-0.104439
-0.106495
-0.108742
-0.11116
-0.113724
-0.116401
-0.119154
-0.121942
-0.124723
-0.127469
-0.130178
-0.132922
-0.135908
-0.139471
-0.143683
-0.147236
-0.145813
-0.131708
-0.0969465
-0.042675
0.00224922
0.0033895
0
0
-0.0123073
-0.0280034
-0.0444615
-0.0607779
-0.0749149
-0.0845299
-0.088998
-0.0899287
-0.0894334
-0.088565
-0.0877022
-0.0870255
-0.0864374
-0.0858718
-0.0853748
-0.0849574
-0.0846549
-0.0845018
-0.0845182
-0.084723
-0.0851229
-0.0857228
-0.0865286
-0.0875443
-0.0887738
-0.0902172
-0.0918719
-0.093731
-0.0957847
-0.0980202
-0.100423
-0.102976
-0.105656
-0.108436
-0.111269
-0.114099
-0.116857
-0.119491
-0.122014
-0.124574
-0.127506
-0.131193
-0.135443
-0.137927
-0.132574
-0.109977
-0.0641744
-0.00825687
-0.00108877
0
0
-0.0120886
-0.0271297
-0.0422938
-0.0566307
-0.0682467
-0.075433
-0.0782737
-0.0785504
-0.0779877
-0.0772643
-0.0766017
-0.0760689
-0.0755595
-0.075059
-0.0746169
-0.0742548
-0.0740151
-0.0739279
-0.074011
-0.0742781
-0.074734
-0.0753842
-0.076234
-0.0772868
-0.078545
-0.0800087
-0.0816753
-0.0835389
-0.0855894
-0.0878123
-0.0901894
-0.0926996
-0.0953205
-0.0980294
-0.100802
-0.103606
-0.106394
-0.109094
-0.111632
-0.114008
-0.116431
-0.119378
-0.123326
-0.127455
-0.127742
-0.115547
-0.0814921
-0.0280976
6.31674e-05
0
0
-0.011144
-0.0250831
-0.0386623
-0.0509447
-0.060295
-0.0655903
-0.0673808
-0.067384
-0.0669108
-0.066369
-0.0658846
-0.0654669
-0.0650345
-0.06461
-0.0642407
-0.0639569
-0.0638006
-0.0637959
-0.0639569
-0.0642927
-0.0648068
-0.0655032
-0.0663851
-0.0674549
-0.0687158
-0.0701698
-0.0718177
-0.0736568
-0.0756805
-0.0778777
-0.0802326
-0.0827249
-0.0853299
-0.0880184
-0.0907576
-0.0935126
-0.096247
-0.0989174
-0.101471
-0.103848
-0.106092
-0.108471
-0.111632
-0.115813
-0.119015
-0.114155
-0.0903846
-0.0417871
0.00803479
0
0
-0.00958385
-0.0220661
-0.0338787
-0.0441376
-0.0515201
-0.0553903
-0.056549
-0.0565024
-0.0561835
-0.0558212
-0.0554892
-0.0551722
-0.0548247
-0.0544906
-0.0542141
-0.054029
-0.0539722
-0.0540622
-0.0543085
-0.0547168
-0.0552891
-0.0560285
-0.0569376
-0.0580201
-0.0592811
-0.0607245
-0.0623522
-0.0641624
-0.0661491
-0.0683016
-0.0706051
-0.0730418
-0.0755913
-0.0782314
-0.0809372
-0.0836783
-0.0864163
-0.0890979
-0.0916645
-0.0940419
-0.0962297
-0.0983459
-0.100928
-0.104603
-0.10899
-0.109194
-0.0946488
-0.0544953
0.00109443
0
0
-0.00753643
-0.0182882
-0.0282398
-0.0365679
-0.0422727
-0.0450882
-0.0458943
-0.0459144
-0.0457666
-0.0455689
-0.0453687
-0.0451483
-0.0448966
-0.0446676
-0.0445009
-0.0444292
-0.0444824
-0.0446737
-0.0450087
-0.0454903
-0.0461197
-0.0468996
-0.047833
-0.0489253
-0.0501824
-0.0516096
-0.0532104
-0.0549859
-0.0569331
-0.0590446
-0.0613077
-0.0637044
-0.0662118
-0.068804
-0.071454
-0.0741356
-0.0768262
-0.0794918
-0.082093
-0.0845346
-0.0867567
-0.0887291
-0.0908477
-0.0938144
-0.0982808
-0.101539
-0.094808
-0.0649739
-0.0143212
0
0
-0.00513127
-0.0139428
-0.022002
-0.0285192
-0.0327988
-0.0348333
-0.0354613
-0.0356006
-0.0356182
-0.0355672
-0.0354847
-0.0353625
-0.0352164
-0.0351032
-0.0350575
-0.0351074
-0.0352755
-0.0355702
-0.0359937
-0.036547
-0.037231
-0.0380486
-0.0390037
-0.0401025
-0.0413513
-0.0427566
-0.0443237
-0.0460559
-0.0479529
-0.0500105
-0.0522194
-0.0545657
-0.0570307
-0.0595914
-0.0622211
-0.0648879
-0.0675635
-0.070208
-0.0728031
-0.0752768
-0.0775954
-0.0796395
-0.0816209
-0.0840607
-0.0881567
-0.0930272
-0.0922575
-0.0719261
-0.0269183
0
0
-0.00249126
-0.00919863
-0.0153749
-0.0202051
-0.0232626
-0.0247054
-0.0252518
-0.0255245
-0.0256954
-0.025778
-0.0258063
-0.0257855
-0.0257516
-0.0257603
-0.025841
-0.0260149
-0.026297
-0.0266918
-0.0271993
-0.0278198
-0.0285545
-0.0294068
-0.0303817
-0.0314859
-0.0327269
-0.0341127
-0.0356505
-0.0373459
-0.0392009
-0.0412133
-0.0433757
-0.045675
-0.0480933
-0.0506082
-0.0531967
-0.0558304
-0.0584915
-0.0611387
-0.0637601
-0.0662691
-0.0686445
-0.070731
-0.0726592
-0.0747098
-0.0781814
-0.0834345
-0.086668
-0.0745816
-0.0363239
0
0
0.000268869
-0.00419888
-0.00852132
-0.0117773
-0.0137629
-0.0147312
-0.0152427
-0.0156475
-0.0159607
-0.0161679
-0.0163037
-0.0163876
-0.0164684
-0.0165994
-0.0168044
-0.0170975
-0.0174875
-0.0179756
-0.0185608
-0.0192428
-0.0200234
-0.020907
-0.0218995
-0.0230084
-0.0242423
-0.02561
-0.0271198
-0.0287784
-0.0305903
-0.0325563
-0.0346727
-0.0369306
-0.0393157
-0.0418067
-0.0443814
-0.0470043
-0.0496595
-0.0522997
-0.0549358
-0.0574903
-0.0599768
-0.0622041
-0.0642379
-0.0661205
-0.0690369
-0.073933
-0.0792231
-0.0731791
-0.0416021
0
0
0.00303767
0.000930118
-0.00157036
-0.00334454
-0.00435817
-0.00491473
-0.00540107
-0.0059256
-0.00637387
-0.00670391
-0.00694908
-0.00714058
-0.00733498
-0.00758366
-0.00790653
-0.00831091
-0.00879964
-0.00937112
-0.0100238
-0.0107582
-0.0115773
-0.0124869
-0.013494
-0.0146069
-0.0158347
-0.017187
-0.0186731
-0.0203013
-0.0220779
-0.0240059
-0.0260835
-0.0283034
-0.0306542
-0.0331157
-0.0356733
-0.0382909
-0.040962
-0.0436271
-0.0463018
-0.0488881
-0.0514304
-0.0537328
-0.0558663
-0.0576708
-0.0601089
-0.0642859
-0.0704138
-0.0687938
-0.0436002
0
0
0.00569905
0.00606825
0.00537387
0.0050151
0.00491998
0.00476092
0.00431329
0.00368182
0.00310032
0.00264529
0.00228737
0.00198648
0.00168198
0.00132411
0.000895745
0.000394596
-0.000178205
-0.000819599
-0.00152845
-0.00230632
-0.0031573
-0.00408803
-0.00510647
-0.00622181
-0.00744391
-0.00878307
-0.0102495
-0.0118526
-0.0136004
-0.0154976
-0.0175454
-0.0197387
-0.0220711
-0.0245209
-0.0270794
-0.0297025
-0.0323942
-0.0350864
-0.0378177
-0.0404795
-0.0431443
-0.0455867
-0.0478928
-0.0497578
-0.0519295
-0.0553113
-0.0613075
-0.062457
-0.0430163
0
0
0.00812177
0.0110838
0.0122104
0.0132334
0.014047
0.0143079
0.0139359
0.013219
0.0125046
0.011916
0.0114368
0.0110234
0.0106137
0.0101574
0.00963742
0.00905399
0.00841113
0.0077132
0.0069611
0.00615208
0.00528043
0.00433786
0.00331487
0.00220119
0.000986225
-0.000340819
-0.00179073
-0.00337381
-0.00509896
-0.00697224
-0.0089974
-0.0111698
-0.0134887
-0.015931
-0.0184993
-0.021144
-0.0238828
-0.0266291
-0.029434
-0.0321617
-0.0349195
-0.0374669
-0.0399353
-0.0419079
-0.0439763
-0.0467502
-0.0523868
-0.0553837
-0.0409368
0
0
0.0101506
0.0158201
0.018834
0.0212444
0.0229977
0.0237415
0.023502
0.0227246
0.0218757
0.0211436
0.0205341
0.0200047
0.0194941
0.0189513
0.018357
0.0177116
0.0170191
0.0162834
0.015504
0.0146765
0.0137937
0.0128461
0.0118235
0.010715
0.00950927
0.00819483
0.00676004
0.00519376
0.00348578
0.00162931
-0.000383137
-0.00254611
-0.00486664
-0.00731698
-0.00991113
-0.0125892
-0.0153867
-0.0182036
-0.0211192
-0.0239731
-0.0269022
-0.0296267
-0.0323268
-0.0345095
-0.0366708
-0.0390334
-0.044133
-0.0481991
-0.038058
0
0
0.0116032
0.0200792
0.0251111
0.0289662
0.0317325
0.033054
0.0330325
0.0322396
0.0312614
0.0303717
0.0296164
0.0289637
0.0283548
0.0277363
0.0270831
0.026392
0.0256657
0.0249071
0.024115
0.0232836
0.0224041
0.0214656
0.0204561
0.0193632
0.0181742
0.0168767
0.0154584
0.0139079
0.0122135
0.0103691
0.00836251
0.00620242
0.00387177
0.00140464
-0.00122982
-0.00396028
-0.00684368
-0.0097561
-0.0128008
-0.0157839
-0.018884
-0.0217889
-0.0247415
-0.0271826
-0.0295914
-0.0318621
-0.0366813
-0.0415131
-0.0349959
0
0
0.0122791
0.0236228
0.030883
0.0363005
0.0401945
0.0422306
0.0425397
0.0417912
0.0406976
0.0396413
0.0387266
0.037941
0.0372329
0.0365477
0.0358533
0.0351397
0.0344049
0.0336479
0.0328646
0.0320472
0.0311851
0.0302661
0.0292773
0.0282055
0.0270374
0.0257602
0.0243606
0.0228271
0.0211448
0.0193099
0.0173029
0.0151377
0.0127843
0.0102866
0.00759458
0.004796
0.00180639
-0.00122832
-0.00444947
-0.00762797
-0.0109828
-0.0141501
-0.0174391
-0.0202328
-0.0230353
-0.0254113
-0.0300684
-0.0354179
-0.0320421
0
0
0.0119956
0.0261789
0.0359455
0.0431193
0.0482992
0.0512161
0.0520096
0.051405
0.0502313
0.0490016
0.0479072
0.0469736
0.0461611
0.0454134
0.0446885
0.0439661
0.0432374
0.0424972
0.0417388
0.0409526
0.0401265
0.0392465
0.0382981
0.037266
0.0361355
0.0348922
0.0335205
0.0320102
0.0303417
0.0285162
0.0265042
0.0243288
0.0219431
0.0194047
0.0166385
0.0137521
0.0106283
0.00744499
0.00402226
0.000632678
-0.00299762
-0.00645445
-0.0101251
-0.0133285
-0.0166518
-0.0194
-0.0242338
-0.0300799
-0.029398
0
0
0.0106524
0.0274907
0.0400747
0.049266
0.0559335
0.059939
0.061402
0.0610711
0.0598825
0.0584944
0.0572095
0.0561107
0.0551826
0.0543735
0.0536331
0.0529276
0.0522365
0.0515456
0.0508423
0.0501133
0.0493438
0.0485187
0.0476219
0.0466377
0.0455502
0.0443455
0.043005
0.0415217
0.0398687
0.0380542
0.0360347
0.0338452
0.0314173
0.0288268
0.0259685
0.0229759
0.0196918
0.0163282
0.0126526
0.00898614
0.00499614
0.00116593
-0.00297743
-0.00667952
-0.0106324
-0.0138822
-0.0190464
-0.025348
-0.0271018
0
0
0.00836132
0.0273635
0.0430119
0.0545416
0.0629388
0.068263
0.0706332
0.0707665
0.0696708
0.0681573
0.066674
0.0653912
0.0643312
0.0634512
0.0626926
0.0620077
0.0613628
0.0607343
0.0601034
0.0594526
0.0587646
0.0580214
0.0572051
0.0562982
0.0552813
0.0541413
0.0528528
0.0514144
0.0497873
0.0479909
0.0459636
0.0437582
0.0412793
0.0386273
0.0356591
0.0325411
0.0290672
0.0254946
0.0215333
0.0175651
0.0131822
0.00894196
0.00426953
9.26746e-06
-0.00468079
-0.00862389
-0.0144071
-0.0212191
-0.0251693
0
0
0.00558576
0.0257567
0.044495
0.0586854
0.0691031
0.0760174
0.0795561
0.08039
0.0795596
0.0780114
0.0763524
0.0748729
0.0736623
0.0727045
0.07194
0.0713051
0.0707468
0.070225
0.0697088
0.0691732
0.0685962
0.0679577
0.0672374
0.0664185
0.0654775
0.0644061
0.0631701
0.0617784
0.0601763
0.0583997
0.0563623
0.0541399
0.0516018
0.0488793
0.045783
0.042521
0.0388279
0.0350146
0.0307163
0.0263859
0.0215286
0.0167991
0.0115053
0.0066036
0.00108315
-0.00363338
-0.0101669
-0.0175007
-0.0235558
0
0
0.00319469
0.0227525
0.044214
0.0613471
0.0741163
0.0829274
0.087965
0.0898052
0.0894731
0.0880286
0.0862533
0.0845851
0.0832045
0.0821383
0.0813377
0.0807312
0.0802501
0.0798387
0.079453
0.0790585
0.0786263
0.0781318
0.0775494
0.0768631
0.0760405
0.0750805
0.0739335
0.0726227
0.07107
0.0693337
0.0672945
0.0650603
0.0624562
0.0596563
0.0564138
0.0529901
0.0490469
0.0449636
0.040289
0.0355672
0.0301953
0.0249403
0.0189643
0.0133634
0.00690961
0.00127663
-0.00624769
-0.014157
-0.0222294
0
0
0.00191668
0.0185372
0.0418182
0.0620511
0.0775741
0.0886484
0.0955277
0.0987426
0.0992453
0.0981472
0.0963847
0.094575
0.093035
0.0918689
0.0910554
0.0905173
0.0901656
0.0899207
0.0897192
0.0895123
0.0892612
0.0889384
0.0885105
0.0879676
0.087265
0.0864159
0.0853505
0.0841146
0.0826
0.0808974
0.0788454
0.0765945
0.073913
0.0710286
0.067621
0.0640192
0.0597947
0.0554133
0.0503143
0.0451521
0.0391902
0.0333402
0.0265884
0.0202086
0.0127209
0.00611014
-0.00253136
-0.0110229
-0.0211411
0
0
0.00136425
0.013457
0.0370335
0.060249
0.0789159
0.0927027
0.101862
0.10686
0.108586
0.108162
0.106641
0.104805
0.103124
0.101813
0.100914
0.100376
0.100106
0.100007
0.0999966
0.100007
0.0999819
0.0998886
0.0996768
0.0993446
0.0988258
0.0981532
0.0972264
0.0961224
0.0946902
0.0930642
0.0910253
0.088781
0.0860254
0.0830584
0.0794684
0.0756749
0.0711375
0.0664344
0.0608693
0.0552419
0.0486473
0.0421744
0.0345816
0.0273673
0.0187288
0.0110198
0.00103144
-0.00806538
-0.0202619
0
0
0.000727218
0.00851688
0.0300412
0.0554682
0.0775358
0.0944877
0.10638
0.113665
0.117112
0.1178
0.116861
0.115244
0.113593
0.112262
0.111377
0.110918
0.110798
0.110905
0.111134
0.111401
0.111628
0.111782
0.11179
0.111668
0.11132
0.110811
0.109998
0.109005
0.107624
0.106052
0.103993
0.101734
0.0988746
0.0958102
0.0920111
0.0880142
0.0831326
0.0780918
0.0720204
0.0659027
0.0586113
0.0514645
0.0429301
0.0348018
0.0248791
0.0160102
0.00452041
-0.00514807
-0.0195591
0
0
5.36046e-05
0.00489843
0.0218107
0.0475823
0.072781
0.0933303
0.10846
0.118499
0.124196
0.12654
0.126653
0.125566
0.124085
0.122736
0.121784
0.121303
0.121246
0.121508
0.121964
0.122517
0.12305
0.123532
0.123847
0.124034
0.123949
0.123702
0.123088
0.122296
0.121037
0.119592
0.117566
0.115348
0.112411
0.109281
0.105271
0.101077
0.0958262
0.0904458
0.0838354
0.0772257
0.0691957
0.0613649
0.0518095
0.042714
0.0313506
0.0212152
0.00796355
-0.00223003
-0.0190151
0
0
-0.00045709
0.00238349
0.0138406
0.037232
0.0643148
0.0884155
0.107259
0.120637
0.129138
0.133739
0.135541
0.13563
0.134904
0.134012
0.133341
0.133064
0.133195
0.133672
0.134367
0.135195
0.136002
0.136777
0.13735
0.137804
0.137924
0.137891
0.137411
0.136769
0.135564
0.134197
0.132132
0.129908
0.126826
0.123594
0.119315
0.114913
0.109258
0.103555
0.0963819
0.0893003
0.0804802
0.0719463
0.0612438
0.0511033
0.0380979
0.0266436
0.011408
0.000829674
-0.0186078
0
0
-0.000661798
0.000850389
0.00790234
0.0259701
0.0525118
0.0793145
0.101873
0.119007
0.130936
0.13841
0.142469
0.144176
0.144519
0.144273
0.143973
0.143925
0.144239
0.144926
0.145866
0.14701
0.14815
0.149313
0.150245
0.151093
0.151537
0.151856
0.151626
0.151267
0.150216
0.149045
0.147023
0.144899
0.141733
0.138493
0.13399
0.129466
0.123432
0.117479
0.109735
0.10223
0.0925661
0.083345
0.0713652
0.0601432
0.0452602
0.0324406
0.0148793
0.0041309
-0.0183174
0
0
-5.98374e-05
0.00139904
0.00549577
0.0167306
0.0387814
0.0660648
0.0917293
0.11269
0.12847
0.139613
0.146951
0.15146
0.154038
0.155481
0.156384
0.157169
0.158034
0.159119
0.160334
0.161739
0.163079
0.164485
0.165595
0.166681
0.167269
0.167798
0.167652
0.167454
0.166404
0.165332
0.163212
0.161114
0.157743
0.154456
0.149633
0.144991
0.138509
0.132352
0.123986
0.116129
0.105535
0.0956559
0.0821928
0.0698613
0.0527798
0.0386679
0.0184274
0.00791205
-0.0181004
0
0
0.00162149
0.00451589
0.00724887
0.0126384
0.0266354
0.0500076
0.0765163
0.100715
0.120365
0.135307
0.146192
0.153814
0.159048
0.162635
0.165201
0.167248
0.16903
0.170831
0.172568
0.174457
0.176167
0.177995
0.179421
0.180917
0.18178
0.1827
0.182768
0.182922
0.182001
0.181227
0.179132
0.177273
0.173813
0.170705
0.165666
0.161138
0.154281
0.148134
0.139138
0.131078
0.119406
0.108945
0.0937159
0.0803838
0.0607288
0.0456086
0.0221673
0.0124959
-0.01787
0
0
0.00411195
0.00876574
0.0109748
0.0128154
0.0191638
0.0347048
0.0578019
0.0829885
0.106206
0.125737
0.141401
0.153684
0.16312
0.170396
0.175984
0.180461
0.184033
0.187188
0.189791
0.192338
0.194365
0.196495
0.197965
0.199618
0.200397
0.201433
0.201346
0.201612
0.200476
0.19982
0.197444
0.195709
0.191884
0.188903
0.183387
0.178968
0.171454
0.165343
0.155383
0.147184
0.134042
0.123167
0.105744
0.0917847
0.069027
0.0536598
0.026365
0.0185245
-0.01741
0
0
0.00676811
0.0115256
0.0122109
0.0119103
0.0138909
0.0220333
0.0383137
0.0602658
0.0838412
0.106176
0.125811
0.142394
0.156161
0.167434
0.176607
0.184224
0.190379
0.195764
0.200048
0.2041
0.207145
0.210302
0.212353
0.214761
0.215845
0.217499
0.217533
0.21836
0.217201
0.217091
0.214554
0.213369
0.209223
0.206796
0.200749
0.196865
0.188516
0.182873
0.17162
0.163771
0.14868
0.13806
0.117834
0.104302
0.0777204
0.0638489
0.0317299
0.0271085
-0.016164
0
0
0.00783601
0.00946285
0.00697898
0.0049062
0.00512696
0.0093527
0.0199383
0.0374282
0.0597067
0.0838895
0.107747
0.129786
0.14919
0.166119
0.180185
0.192296
0.201943
0.210449
0.21687
0.22291
0.227031
0.231397
0.233781
0.236931
0.237854
0.240015
0.23955
0.2408
0.238887
0.239208
0.235684
0.234991
0.229599
0.227752
0.22013
0.216931
0.206564
0.201742
0.187887
0.181105
0.162699
0.153706
0.12937
0.118683
0.0871242
0.0781592
0.0399398
0.0402736
-0.0125334
0
0
0.0036882
-0.00114388
-0.00690244
-0.0103164
-0.0115991
-0.0103793
-0.00487151
0.00680535
0.0245617
0.0468145
0.0709774
0.0956639
0.118926
0.140428
0.159215
0.176091
0.189925
0.202632
0.212248
0.221758
0.22806
0.235259
0.238943
0.244467
0.245955
0.250207
0.249684
0.25289
0.250356
0.252617
0.24792
0.249255
0.242103
0.242474
0.232433
0.231776
0.218237
0.216502
0.198642
0.195892
0.172648
0.169326
0.139448
0.136926
0.0992955
0.100536
0.0553918
0.0613759
-0.00157242
0
0
-0.010988
-0.0240534
-0.0309591
-0.0343825
-0.0355293
-0.0336886
-0.0278069
-0.0157779
0.00197369
0.0254507
0.0517685
0.0794981
0.106268
0.132413
0.154555
0.176312
0.192566
0.209653
0.220504
0.233709
0.240106
0.25042
0.253208
0.261474
0.261226
0.268061
0.265073
0.270901
0.265229
0.270336
0.261845
0.266439
0.254829
0.259098
0.243919
0.248098
0.228762
0.233225
0.209032
0.214422
0.184657
0.192016
0.156195
0.1667
0.125064
0.137748
0.0910155
0.0958291
0.0327246
0
0
-0.0422592
-0.0700344
-0.0860501
-0.0950892
-0.100479
-0.101825
-0.0995458
-0.0901582
-0.0759946
-0.0533369
-0.0297486
0.000968263
0.0268076
0.0579782
0.0810788
0.108591
0.126791
0.149567
0.162708
0.18119
0.189932
0.205038
0.210166
0.222791
0.224933
0.235785
0.235345
0.244942
0.242125
0.250833
0.245698
0.253785
0.246299
0.253975
0.244082
0.251516
0.239235
0.246541
0.23213
0.239271
0.223523
0.229972
0.214641
0.218407
0.206334
0.20114
0.193596
0.160571
0.141631
0
0
0.024811
0.0483685
0.0696318
0.088598
0.106319
0.12176
0.136802
0.148868
0.162429
0.172709
0.187645
0.198356
0.216503
0.227971
0.248811
0.259921
0.282153
0.29161
0.314314
0.321239
0.344097
0.347997
0.371125
0.371705
0.395459
0.392453
0.417317
0.410396
0.436944
0.425662
0.454566
0.438325
0.470393
0.448409
0.484639
0.455898
0.497557
0.460758
0.509479
0.462944
0.520819
0.462324
0.53191
0.458096
0.541909
0.445217
0.542442
0.38969
0.475166
0
