# vtk DataFile Version 2.0
v_velocity
ASCII
DATASET RECTILINEAR_GRID
DIMENSIONS 51 52 1
X_COORDINATES 51 double
0 0.02 0.04 0.06 0.08 0.1 0.12 0.14 0.16 0.18 0.2 0.22 0.24 0.26 0.28 0.3 0.32 0.34 0.36 0.38 0.4 0.42 0.44 0.46 0.48 0.5 0.52 0.54 0.56 0.58 0.6 0.62 0.64 0.66 0.68 0.7 0.72 0.74 0.76 0.78 0.8 0.82 0.84 0.86 0.88 0.9 0.92 0.94 0.96 0.98 1 
Y_COORDINATES 52 double
0 0.01 0.03 0.05 0.07 0.09 0.11 0.13 0.15 0.17 0.19 0.21 0.23 0.25 0.27 0.29 0.31 0.33 0.35 0.37 0.39 0.41 0.43 0.45 0.47 0.49 0.51 0.53 0.55 0.57 0.59 0.61 0.63 0.65 0.67 0.69 0.71 0.73 0.75 0.77 0.79 0.81 0.83 0.85 0.87 0.89 0.91 0.93 0.95 0.97 0.99 1 
Z_COORDINATES 1 double
0.0

CELL_DATA 2550
SCALARS v_velocity double 1
LOOKUP_TABLE default
0
0
0
0
0
0
0
0
0
0
0
0
0
0
0
0
0
0
0
0
0
0
0
0
0
0
0
0
0
0
0
0
0
0
0
0
0
0
0
0
0
0
0
0
0
0
0
0
0
0
0.000283098
-8.12213e-05
-0.000513462
-0.000597321
-0.000432604
-0.000284842
-0.000330784
-0.000584557
-0.00091817
-0.00112421
-0.00103049
-0.000605909
8.52032e-05
0.000985104
0.00177575
0.00273975
0.00517566
0.00852356
0.0110932
0.0124304
0.0125906
0.0116659
0.00984963
0.00731615
0.00423082
0.000740267
-0.00301286
-0.00687552
-0.0106595
-0.0141331
-0.0170049
-0.0189444
-0.0196099
-0.0187208
-0.0161408
-0.0119641
-0.00655686
-0.000533212
0.00531483
0.0100671
0.0126871
0.0123702
0.00954378
0.0060071
0.00330276
0.00167017
0.000722181
0.000134299
-0.00026222
-0.000383121
0.000381598
-0.000790016
-0.00184728
-0.00186086
-0.00119055
-0.000549938
-0.000401634
-0.000766184
-0.00124648
-0.0012126
-0.000144439
0.00210069
0.00544532
0.0103334
0.0165881
0.0221216
0.0262017
0.0287292
0.029237
0.0279889
0.0251645
0.0210959
0.0160519
0.0102665
0.00393768
-0.00278736
-0.00974535
-0.0167727
-0.0236276
-0.0300027
-0.0354708
-0.0395228
-0.0415888
-0.0411549
-0.037889
-0.0318007
-0.0233208
-0.0132572
-0.00261833
0.00752719
0.0159486
0.0210784
0.0217659
0.0185488
0.0134374
0.00847451
0.00471479
0.00220514
0.000559763
-0.000335585
0.000154031
-0.00218186
-0.00371821
-0.00324919
-0.00168245
-0.000263008
0.000338728
0.000280458
0.000505649
0.0023282
0.00675554
0.0142578
0.0242375
0.0340883
0.0415828
0.0461538
0.047929
0.0473337
0.0446436
0.0402902
0.0345542
0.0277745
0.0201582
0.0118964
0.00310865
-0.00610392
-0.0156326
-0.0253375
-0.0349804
-0.0442129
-0.0525082
-0.0591869
-0.063428
-0.0644161
-0.0615225
-0.05458
-0.0440759
-0.0311499
-0.0172466
-0.00359575
0.00893087
0.0191762
0.0253412
0.0262675
0.0227099
0.0169009
0.0110912
0.00647204
0.0031217
0.000689021
-0.000427182
-0.00420812
-0.00575179
-0.0041102
-0.00115914
0.00131777
0.0027223
0.0038664
0.0067623
0.0136117
0.0251879
0.0393838
0.0521694
0.0611227
0.0661478
0.0676158
0.0660922
0.0622847
0.0566271
0.0496176
0.041526
0.0326478
0.0231198
0.0130691
0.00253887
-0.00843541
-0.0198223
-0.0315518
-0.0434595
-0.0552483
-0.0664077
-0.0761914
-0.0835939
-0.0874517
-0.0866402
-0.0804327
-0.0689144
-0.0532785
-0.035674
-0.0183874
-0.00277992
0.0107016
0.0211012
0.0267164
0.0268913
0.0229287
0.0171741
0.0115728
0.00686301
0.0025456
-0.00145256
-0.00675051
-0.00741959
-0.00372055
0.00111823
0.00499207
0.00797847
0.0123187
0.0212508
0.0360936
0.0539091
0.0695014
0.0799841
0.0855534
0.0868877
0.0846432
0.0797587
0.0729059
0.0646587
0.0554774
0.0456114
0.0352995
0.0245961
0.01357
0.00217487
-0.00961581
-0.0218685
-0.0346037
-0.0477906
-0.0612713
-0.0746979
-0.0874463
-0.0985472
-0.106672
-0.110243
-0.107736
-0.0981962
-0.0818754
-0.0607102
-0.0381006
-0.017524
-0.000632911
0.0126699
0.0219335
0.0260713
0.025277
0.021253
0.0160309
0.0107171
0.00463911
-0.00302005
-0.00945596
-0.0079976
-0.00136406
0.00579512
0.0116758
0.0179365
0.0284555
0.0456092
0.0666011
0.0852264
0.0975409
0.103723
0.104935
0.101932
0.0958937
0.0877967
0.0783274
0.0681103
0.0574528
0.0465835
0.0355949
0.0244862
0.0132376
0.00175197
-0.0100458
-0.022275
-0.0350181
-0.0483514
-0.0622701
-0.0766585
-0.09118
-0.105177
-0.117541
-0.126661
-0.130516
-0.127042
-0.114816
-0.0939937
-0.06713
-0.039111
-0.0151784
0.00240408
0.0146234
0.0220608
0.0245745
0.0230493
0.0191286
0.0138839
0.00641216
-0.00512648
-0.0116577
-0.00668787
0.00354032
0.0134485
0.0225212
0.0344273
0.0529046
0.0764602
0.0984331
0.113201
0.120226
0.121327
0.117613
0.110373
0.101062
0.0904873
0.0793708
0.0681163
0.0568779
0.0457654
0.0347197
0.0237021
0.0126129
0.00136105
-0.0101488
-0.0220164
-0.0343286
-0.0471757
-0.0606237
-0.0747088
-0.0893736
-0.104382
-0.119159
-0.132606
-0.142944
-0.147726
-0.144208
-0.130194
-0.105357
-0.072656
-0.0387594
-0.0114541
0.0061638
0.0166928
0.0221115
0.0231399
0.0208886
0.0161013
0.00764301
-0.0075369
-0.0124854
-0.00283228
0.0113646
0.0246375
0.038524
0.0576163
0.082783
0.108164
0.126345
0.134952
0.136152
0.131964
0.123727
0.113299
0.101868
0.090059
0.0784073
0.0669804
0.0558243
0.0448809
0.0340359
0.0232203
0.0123158
0.00125613
-0.0100473
-0.0216536
-0.0336249
-0.0460096
-0.0588553
-0.0722062
-0.0861027
-0.100553
-0.115455
-0.130426
-0.144538
-0.156011
-0.16206
-0.159165
-0.144041
-0.115456
-0.0765706
-0.0363403
-0.0061063
0.0105818
0.0190142
0.0223609
0.0217521
0.0175535
0.00843908
-0.00970588
-0.0111117
0.00393065
0.0222807
0.0397311
0.0596367
0.0853604
0.113595
0.136135
0.147771
0.149764
0.145443
0.136662
0.125297
0.113158
0.100873
0.0888794
0.0773489
0.0661451
0.0552541
0.0445238
0.0338711
0.0232091
0.0124452
0.00152266
-0.00963415
-0.0210673
-0.0328256
-0.0449328
-0.0574097
-0.0702629
-0.083503
-0.0971475
-0.111227
-0.125737
-0.140495
-0.154825
-0.167096
-0.174309
-0.17214
-0.155955
-0.123241
-0.0773492
-0.0305658
0.000987714
0.0153804
0.0213409
0.0222624
0.0186526
0.00907911
-0.0108505
-0.00697911
0.0136398
0.0362434
0.058532
0.0844292
0.114342
0.14149
0.158007
0.162352
0.158414
0.14955
0.137607
0.124715
0.11202
0.0996723
0.0879201
0.0766302
0.0656638
0.054974
0.0444064
0.0339141
0.0233977
0.0127902
0.00202845
-0.00895093
-0.0201886
-0.031726
-0.0435823
-0.0557718
-0.068292
-0.0811363
-0.0942958
-0.107775
-0.121604
-0.135819
-0.150357
-0.164738
-0.177492
-0.18546
-0.18349
-0.165406
-0.127199
-0.0729003
-0.0202695
0.0091145
0.0199704
0.0227838
0.0198179
0.00985809
-0.0101642
0.000106971
0.0260647
0.0529115
0.0801186
0.11066
0.141515
0.164243
0.173381
0.171082
0.162471
0.150417
0.136823
0.123516
0.110822
0.0986857
0.087194
0.0760953
0.0653305
0.0548133
0.0444198
0.0341021
0.0237548
0.0133212
0.00273137
-0.00806758
-0.0191167
-0.0304487
-0.0420784
-0.0540116
-0.0662406
-0.0787527
-0.0915352
-0.104587
-0.117935
-0.131639
-0.14578
-0.160349
-0.174936
-0.188064
-0.196259
-0.193382
-0.171527
-0.125289
-0.0609373
-0.00577827
0.0167983
0.0232104
0.0212981
0.0109916
-0.0070498
0.0100022
0.0407651
0.0716182
0.103082
0.136105
0.164873
0.18122
0.183102
0.175507
0.163616
0.14969
0.135548
0.122335
0.109803
0.0979134
0.0866287
0.075711
0.065147
0.0548094
0.044603
0.0344632
0.0242925
0.0140374
0.00362723
-0.00698663
-0.0178493
-0.0289919
-0.0404325
-0.0521744
-0.0642064
-0.0765038
-0.0890354
-0.101775
-0.114725
-0.127941
-0.141557
-0.15575
-0.170592
-0.185649
-0.199179
-0.206972
-0.201452
-0.172739
-0.114743
-0.0397851
0.00923932
0.0227802
0.02302
0.0125512
-0.0012659
0.0223019
0.057146
0.0914681
0.125938
0.159111
0.183565
0.192884
0.188536
0.17715
0.163211
0.148424
0.134328
0.121332
0.108977
0.0973047
0.0861852
0.0754411
0.0650538
0.0548788
0.0448448
0.0348764
0.02489
0.0148299
0.00462507
-0.00577487
-0.0164202
-0.027345
-0.0385739
-0.0501165
-0.0619707
-0.0741189
-0.0865303
-0.0991604
-0.111965
-0.124928
-0.138111
-0.151708
-0.16603
-0.181292
-0.197012
-0.210888
-0.217315
-0.206469
-0.166264
-0.09214
-0.0108913
0.0198342
0.0246504
0.0145039
0.00704335
0.0364321
0.0745238
0.111509
0.14746
0.17876
0.197634
0.200256
0.191073
0.177225
0.162166
0.147154
0.133313
0.120498
0.108294
0.0967884
0.0857975
0.0752047
0.0649672
0.0549495
0.045092
0.0353118
0.0255309
0.0156848
0.0057003
-0.00447763
-0.014902
-0.0256085
-0.0366234
-0.0479583
-0.059616
-0.0715878
-0.0838571
-0.0963956
-0.109163
-0.122114
-0.13522
-0.148535
-0.162283
-0.17689
-0.192727
-0.209203
-0.223045
-0.226313
-0.205788
-0.147599
-0.0544669
0.0136463
0.025668
0.0166926
0.0174081
0.0517354
0.0922021
0.130889
0.166824
0.194784
0.207672
0.204503
0.191866
0.176563
0.160994
0.146075
0.132489
0.119785
0.107698
0.0963122
0.0854305
0.0749794
0.0648934
0.0550516
0.0453901
0.0358172
0.0262537
0.0166272
0.00686366
-0.00309507
-0.0133038
-0.0238013
-0.0346172
-0.045766
-0.0572527
-0.0690709
-0.0812068
-0.093638
-0.106335
-0.119263
-0.132383
-0.145684
-0.15924
-0.173327
-0.188482
-0.205165
-0.222399
-0.235201
-0.23182
-0.194697
-0.110433
-0.00576522
0.0240375
0.0188063
0.0291397
0.0675453
0.10954
0.148953
0.183617
0.207377
0.214503
0.206677
0.191747
0.175666
0.159937
0.145213
0.131803
0.119155
0.107156
0.0958607
0.0850868
0.0747805
0.0648573
0.0552035
0.0457421
0.0363751
0.0270232
0.0176107
0.00806506
-0.00167461
-0.0116648
-0.0219491
-0.0325607
-0.0435193
-0.0548348
-0.0665072
-0.0785292
-0.0908849
-0.103548
-0.116481
-0.129638
-0.142975
-0.156497
-0.170341
-0.184918
-0.200954
-0.218846
-0.236625
-0.245925
-0.229459
-0.164705
-0.0506894
0.0228972
0.0221958
0.0414471
0.0832414
0.125998
0.165269
0.197754
0.216992
0.218971
0.207607
0.191251
0.174798
0.159074
0.144537
0.131215
0.118589
0.106659
0.0954433
0.0847842
0.0746275
0.0648736
0.0554083
0.046142
0.036975
0.027829
0.0186264
0.00929456
-0.000231198
-0.0100101
-0.02009
-0.030507
-0.0412838
-0.0524321
-0.0639546
-0.0758483
-0.0881058
-0.100714
-0.113652
-0.12688
-0.140341
-0.153973
-0.167781
-0.181986
-0.197267
-0.214596
-0.234141
-0.251278
-0.252056
-0.210508
-0.106607
0.0157291
0.021107
0.0535357
0.0982825
0.141162
0.179606
0.20937
0.224178
0.221812
0.207884
0.190688
0.174075
0.158412
0.144004
0.130706
0.118089
0.106216
0.0950812
0.0845446
0.0745402
0.0649567
0.0556754
0.046598
0.0376251
0.0286789
0.0196791
0.0105528
0.00123243
-0.00834345
-0.0182264
-0.0284565
-0.0390609
-0.050055
-0.0614444
-0.0732274
-0.0853969
-0.0979419
-0.110847
-0.124092
-0.137641
-0.151435
-0.165406
-0.179563
-0.19432
-0.210648
-0.230012
-0.250991
-0.26425
-0.244562
-0.160001
-0.0124316
0.0211702
0.0646797
0.112222
0.154741
0.191889
0.21872
0.229473
0.223603
0.207887
0.190215
0.173533
0.157927
0.143586
0.130273
0.117664
0.105847
0.0947974
0.0843882
0.0745355
0.0651178
0.0560112
0.0471121
0.0383215
0.0295608
0.020749
0.0118137
0.0026865
-0.00669558
-0.0163874
-0.0264328
-0.0368637
-0.0477001
-0.0589521
-0.0706224
-0.0827084
-0.0952027
-0.108092
-0.121358
-0.134971
-0.148881
-0.163028
-0.177319
-0.191942
-0.207487
-0.225831
-0.24779
-0.269111
-0.268332
-0.208599
-0.0622536
0.029205
0.0742636
0.124704
0.166554
0.202148
0.226103
0.233344
0.224761
0.207841
0.189896
0.173171
0.157595
0.143269
0.129926
0.11733
0.105571
0.0946123
0.0843314
0.0746255
0.0653641
0.0564195
0.0476844
0.0390609
0.0304698
0.0218315
0.0130747
0.00412993
-0.00506787
-0.0145771
-0.0244461
-0.0347112
-0.0453965
-0.0565154
-0.0680729
-0.0800683
-0.0924969
-0.105351
-0.11862
-0.132289
-0.146314
-0.160651
-0.175131
-0.189825
-0.204905
-0.222156
-0.243403
-0.268906
-0.282878
-0.248752
-0.117843
0.0302994
0.0818
0.135456
0.176505
0.210476
0.231808
0.236159
0.225567
0.207861
0.189749
0.172973
0.157395
0.143049
0.129674
0.117101
0.105404
0.0945407
0.0843846
0.0748168
0.0656991
0.0569011
0.0483139
0.0398408
0.0314032
0.0229237
0.0143318
0.00555713
-0.00346701
-0.0128017
-0.0224989
-0.0325997
-0.0431334
-0.0541187
-0.0655654
-0.0774761
-0.089847
-0.102669
-0.115929
-0.129624
-0.143713
-0.158209
-0.172909
-0.187853
-0.202786
-0.219189
-0.238937
-0.265648
-0.289609
-0.278586
-0.168496
0.0159782
0.0869313
0.144267
0.184564
0.216993
0.236087
0.238194
0.226195
0.208
0.189766
0.172922
0.157312
0.142927
0.129528
0.116988
0.105358
0.0945906
0.0845526
0.0751115
0.0661226
0.0574544
0.0489979
0.0406584
0.0323583
0.0240225
0.0155807
0.00696242
-0.00189994
-0.0110695
-0.0206018
-0.0305421
-0.0409245
-0.0517725
-0.0631004
-0.0749154
-0.0872172
-0.100003
-0.113254
-0.126979
-0.141118
-0.155736
-0.17059
-0.185809
-0.200805
-0.216749
-0.234841
-0.260777
-0.290379
-0.298918
-0.213504
-0.0109401
0.0894225
0.150974
0.190741
0.221823
0.239145
0.239636
0.226742
0.208273
0.189937
0.173005
0.157341
0.142906
0.129494
0.116996
0.105439
0.0947645
0.0848347
0.0755063
0.0666302
0.0580749
0.0497325
0.0415107
0.0333332
0.0251267
0.0168217
0.00834818
-0.000362089
-0.00937418
-0.0187468
-0.0285297
-0.0387622
-0.0494732
-0.0606821
-0.0724005
-0.0846288
-0.0973691
-0.110593
-0.124332
-0.138497
-0.153227
-0.168215
-0.183723
-0.198876
-0.214699
-0.231369
-0.255524
-0.287145
-0.311004
-0.251762
-0.047264
0.0891537
0.155442
0.195063
0.225079
0.24113
0.240605
0.227253
0.208677
0.19025
0.173212
0.157476
0.14299
0.129575
0.117127
0.105644
0.0950577
0.0852247
0.0759944
0.0672154
0.0587569
0.0505131
0.0423943
0.0343256
0.0262357
0.0180556
0.00971584
0.00114768
-0.0077155
-0.0169349
-0.0265637
-0.0366458
-0.0472153
-0.058297
-0.0699095
-0.082054
-0.0947462
-0.107938
-0.121692
-0.135861
-0.150672
-0.165729
-0.181495
-0.196842
-0.212816
-0.228453
-0.250628
-0.281855
-0.317048
-0.283339
-0.0888661
0.086116
0.15755
0.197564
0.226853
0.242144
0.241161
0.22774
0.209202
0.190699
0.173542
0.157722
0.143181
0.129769
0.117376
0.105967
0.095462
0.0857135
0.0765659
0.0678681
0.0594913
0.0513322
0.043304
0.0353327
0.0273486
0.0192834
0.0110681
0.00263374
-0.00608733
-0.0151583
-0.0246357
-0.0345681
-0.0449954
-0.0559462
-0.067448
-0.0794964
-0.0921286
-0.105266
-0.119027
-0.133186
-0.148086
-0.163186
-0.179193
-0.194709
-0.211012
-0.226015
-0.246451
-0.275727
-0.318668
-0.308532
-0.132466
0.080417
0.157181
0.198258
0.227212
0.242239
0.24132
0.228187
0.209833
0.19128
0.173997
0.158079
0.143482
0.130074
0.117734
0.106395
0.0959632
0.0862863
0.0772073
0.0685769
0.0602691
0.0521832
0.0442347
0.0363511
0.0284639
0.0205055
0.0124073
0.00410014
-0.00448416
-0.0134105
-0.0227386
-0.0325204
-0.042802
-0.0536139
-0.0649981
-0.076938
-0.0895055
-0.102575
-0.116334
-0.130454
-0.145424
-0.160522
-0.17675
-0.192403
-0.209147
-0.223843
-0.243069
-0.269731
-0.317519
-0.327973
-0.175483
0.0722952
0.154219
0.197131
0.226189
0.241426
0.241059
0.228559
0.21055
0.191995
0.174585
0.158559
0.143896
0.130484
0.11819
0.106915
0.0965466
0.0869291
0.0779052
0.069329
0.0610782
0.0530548
0.0451773
0.0373741
0.0295776
0.0217205
0.0137343
0.00555005
-0.00290108
-0.0116854
-0.0208653
-0.0304952
-0.0406296
-0.051295
-0.0625558
-0.0743697
-0.0868607
-0.099836
-0.113588
-0.12765
-0.142696
-0.157764
-0.174203
-0.189935
-0.207174
-0.221775
-0.240295
-0.264094
-0.314522
-0.34242
-0.216419
0.0621446
0.148549
0.194117
0.223778
0.239672
0.240316
0.228799
0.211328
0.192844
0.175317
0.159168
0.144425
0.130994
0.118733
0.107509
0.0971921
0.0876216
0.0786409
0.0701084
0.0619057
0.0539377
0.0461248
0.0383967
0.0306862
0.0229262
0.0150488
0.00698485
-0.00133481
-0.00997738
-0.0190088
-0.0284827
-0.0384666
-0.0489745
-0.0601054
-0.0717756
-0.0841827
-0.0970384
-0.110771
-0.124734
-0.139843
-0.154835
-0.171479
-0.187234
-0.204991
-0.219613
-0.237933
-0.258995
-0.310456
-0.352561
-0.254477
0.0505414
0.140073
0.189086
0.219923
0.236906
0.238994
0.22882
0.21212
0.193822
0.176207
0.159924
0.145078
0.131603
0.119351
0.108163
0.0978833
0.0883478
0.0793995
0.0709006
0.0627371
0.0548171
0.0470633
0.0394062
0.0317791
0.0241152
0.0163463
0.00840318
0.000215689
-0.00828295
-0.0171645
-0.0264761
-0.0363065
-0.0466438
-0.0576383
-0.0691411
-0.0814522
-0.094155
-0.107859
-0.121689
-0.136859
-0.151735
-0.168574
-0.184282
-0.20255
-0.217205
-0.235662
-0.254176
-0.305624
-0.359078
-0.289473
0.0382623
0.128729
0.181825
0.214506
0.233012
0.236958
0.228511
0.212869
0.194915
0.177263
0.160838
0.145863
0.132311
0.120037
0.108857
0.0985968
0.0890826
0.0801565
0.0716838
0.0635545
0.0556792
0.0479823
0.040395
0.0328509
0.0252832
0.0176235
0.00980282
0.00174918
-0.00660068
-0.0153296
-0.024469
-0.0341414
-0.0442904
-0.0551406
-0.0664491
-0.0786536
-0.0911654
-0.104824
-0.118468
-0.133681
-0.14838
-0.165406
-0.180993
-0.199756
-0.214402
-0.233286
-0.249519
-0.300274
-0.362454
-0.321515
0.0262667
0.114546
0.172059
0.207332
0.227832
0.234041
0.227718
0.213474
0.196089
0.178493
0.161933
0.146797
0.133124
0.120784
0.109582
0.0993192
0.0898113
0.0808967
0.0724422
0.0643407
0.0565054
0.0488623
0.0413435
0.0338829
0.0264137
0.0188668
0.0111745
0.00325949
-0.00493217
-0.013504
-0.0224571
-0.031966
-0.0419047
-0.0526022
-0.0636829
-0.0757672
-0.0880416
-0.101641
-0.115045
-0.130291
-0.144749
-0.16195
-0.177322
-0.196553
-0.211079
-0.230538
-0.244685
-0.294428
-0.363136
-0.350913
0.0156143
0.0977078
0.159475
0.198141
0.221165
0.230035
0.226255
0.213804
0.197278
0.179881
0.163218
0.147896
0.134052
0.121593
0.110322
0.100025
0.0905024
0.0815876
0.0731455
0.0650698
0.0572748
0.0496874
0.0422403
0.0348671
0.0275013
0.0200715
0.012515
0.00474271
-0.00327911
-0.0116896
-0.0204376
-0.0297765
-0.0394768
-0.0500118
-0.0608245
-0.0727746
-0.0847575
-0.0982772
-0.11137
-0.126625
-0.140759
-0.158119
-0.173179
-0.192851
-0.207126
-0.227288
-0.239521
-0.288127
-0.361382
-0.378015
0.00725299
0.0787056
0.143826
0.186611
0.212767
0.224711
0.223885
0.213671
0.198374
0.181395
0.164701
0.149178
0.135112
0.122473
0.111081
0.10071
0.0911473
0.0822161
0.0737764
0.0657205
0.0579628
0.0504306
0.0430566
0.035774
0.0285182
0.0212115
0.0138034
0.0061811
-0.00165194
-0.00989319
-0.0184103
-0.0275711
-0.0369979
-0.0473597
-0.0578563
-0.0696566
-0.0812836
-0.0947047
-0.107408
-0.122657
-0.136376
-0.153879
-0.168506
-0.188591
-0.202436
-0.223345
-0.233737
-0.281315
-0.357432
-0.403184
0.00166723
0.0585347
0.125088
0.172421
0.20235
0.217797
0.220346
0.212837
0.199204
0.182943
0.16636
0.150658
0.136322
0.123431
0.111845
0.101344
0.0917055
0.082738
0.0742927
0.0662561
0.0585398
0.0510691
0.0437769
0.0365929
0.0294592
0.0222829
0.0150394
0.00757283
-4.97979e-05
-0.00811663
-0.0163729
-0.0253487
-0.0344597
-0.0446373
-0.05476
-0.0663946
-0.0775905
-0.0908914
-0.10311
-0.118326
-0.131519
-0.14915
-0.163213
-0.183689
-0.196915
-0.218628
-0.227204
-0.273981
-0.351377
-0.42674
-0.00152745
0.0389768
0.103627
0.155288
0.18958
0.208986
0.215308
0.210997
0.199536
0.184387
0.168135
0.152326
0.137703
0.124498
0.112646
0.101951
0.0921866
0.0831494
0.0746783
0.0666506
0.058972
0.0515635
0.0443593
0.0372792
0.0302818
0.0232429
0.0161863
0.00888367
0.00150292
-0.00638033
-0.0143338
-0.0231145
-0.0318556
-0.0418374
-0.0515175
-0.0629709
-0.0736473
-0.0868081
-0.0984356
-0.113604
-0.126147
-0.143895
-0.157237
-0.178088
-0.190462
-0.212996
-0.21968
-0.266071
-0.343304
-0.448969
-0.00344413
0.0223563
0.0803456
0.135055
0.174058
0.197912
0.208429
0.207782
0.199033
0.185485
0.169898
0.154136
0.139243
0.125664
0.113459
0.102489
0.0925383
0.0833943
0.0748799
0.0668575
0.0592232
0.0518863
0.0447872
0.0378221
0.0309844
0.0240921
0.0172517
0.0101195
0.00301758
-0.00467779
-0.0122817
-0.0208637
-0.0291741
-0.038953
-0.0481099
-0.0593691
-0.0694227
-0.0824268
-0.0933367
-0.108442
-0.120185
-0.138045
-0.150485
-0.171708
-0.182974
-0.206385
-0.211038
-0.25758
-0.333186
-0.470111
-0.00480838
0.0102636
0.0567691
0.111839
0.155391
0.184125
0.19927
0.202784
0.197307
0.18591
0.171418
0.155972
0.140924
0.126975
0.114358
0.103028
0.0928085
0.0834926
0.0748906
0.066847
0.0592483
0.0519797
0.044999
0.0381542
0.0315031
0.0247647
0.0181786
0.0112234
0.00444985
-0.00305179
-0.0102429
-0.0186193
-0.0264185
-0.035986
-0.04452
-0.0555757
-0.0648853
-0.0777237
-0.0877716
-0.102815
-0.113591
-0.131572
-0.142892
-0.164494
-0.174335
-0.198676
-0.20105
-0.248483
-0.32099
-0.490372
-0.0055356
0.00247393
0.0352447
0.0864123
0.133323
0.167173
0.187378
0.195499
0.193861
0.185221
0.172357
0.157589
0.142575
0.128306
0.115244
0.103486
0.0929287
0.0833852
0.0746623
0.0665798
0.0590217
0.0518254
0.0449907
0.038276
0.0318514
0.025274
0.0189917
0.012216
0.00583064
-0.00147925
-0.0081844
-0.0163605
-0.0235586
-0.0329216
-0.0407209
-0.0515787
-0.0600037
-0.0726829
-0.0817002
-0.0966969
-0.1063
-0.124425
-0.134358
-0.156366
-0.164413
-0.189807
-0.18956
-0.238815
-0.306579
-0.509931
-0.00558921
-0.0023709
0.0183325
0.0606407
0.108124
0.146624
0.172248
0.18546
0.188164
0.182877
0.172244
0.158677
0.144055
0.129656
0.116195
0.103967
0.0929862
0.0831228
0.0742063
0.0660267
0.0584886
0.0513439
0.0446759
0.0380885
0.0319366
0.0255213
0.0196058
0.013008
0.00708944
-3.45768e-05
-0.00615768
-0.0141427
-0.0206218
-0.0297915
-0.0367106
-0.0473853
-0.0547526
-0.0673025
-0.0750898
-0.0900873
-0.0982695
-0.116594
-0.124802
-0.14727
-0.153049
-0.179671
-0.176308
-0.228621
-0.289794
-0.528947
-0.00513212
-0.00521148
0.00687537
0.0372492
0.0810415
0.122523
0.153405
0.172081
0.179663
0.178277
0.170442
0.158587
0.144781
0.130548
0.116866
0.104244
0.0928551
0.0826455
0.0735117
0.0651983
0.0576816
0.050569
0.0441031
0.0376347
0.0318163
0.0255544
0.0200852
0.01365
0.0082946
0.00133264
-0.00409247
-0.0119191
-0.0175396
-0.0265592
-0.0324318
-0.042983
-0.049098
-0.0615992
-0.0679172
-0.0830056
-0.0894494
-0.10806
-0.1141
-0.13713
-0.140044
-0.168217
-0.161073
-0.218043
-0.270356
-0.547554
-0.00447032
-0.00672367
-0.000176579
0.0191815
0.0544998
0.0957202
0.130847
0.154947
0.167734
0.170802
0.166384
0.15688
0.144438
0.130794
0.117166
0.104292
0.0925414
0.081958
0.072572
0.0640545
0.0565415
0.0494058
0.0431713
0.0367864
0.0313723
0.0252356
0.0203147
0.0140097
0.00934564
0.00250283
-0.0020697
-0.00979542
-0.0143733
-0.0233196
-0.0279288
-0.0384592
-0.043064
-0.0556457
-0.0601733
-0.0755012
-0.0797851
-0.0988391
-0.10212
-0.125908
-0.125161
-0.155398
-0.143511
-0.207294
-0.247908
-0.565872
-0.00441048
-0.00818254
-0.00427331
0.0079466
0.032449
0.0684368
0.105182
0.133986
0.151954
0.159659
0.159046
0.152371
0.14186
0.129351
0.116263
0.103506
0.0916769
0.0808728
0.0713572
0.06265
0.0552011
0.048
0.0420608
0.0357009
0.0307842
0.0247064
0.0204606
0.0142079
0.0103955
0.00357524
4.9902e-05
-0.00769772
-0.0110018
-0.0200328
-0.0231059
-0.0338165
-0.036583
-0.0494883
-0.0518072
-0.067644
-0.0691911
-0.0889603
-0.0886567
-0.113576
-0.108079
-0.141286
-0.123271
-0.196779
-0.221895
-0.583972
-0.00603197
-0.0110769
-0.0070063
0.00255707
0.018452
0.0450645
0.0786734
0.109788
0.132303
0.144718
0.148161
0.14475
0.136626
0.125763
0.113697
0.10146
0.0898948
0.0790718
0.0696199
0.0607612
0.053491
0.0461724
0.0406339
0.0342059
0.0299208
0.0237864
0.0203928
0.0140536
0.011317
0.00434889
0.00214441
-0.00583872
-0.00754102
-0.0169249
-0.0180676
-0.0292876
-0.0297268
-0.0433406
-0.0428114
-0.0595845
-0.0575192
-0.0784988
-0.0734278
-0.100244
-0.0884243
-0.126165
-0.0998296
-0.187108
-0.19153
-0.601842
-0.0101439
-0.0157307
-0.0092154
0.000716485
0.0121036
0.0295236
0.0555763
0.0846013
0.109086
0.125186
0.132497
0.132466
0.127189
0.118488
0.108109
0.0969834
0.086323
0.0759167
0.0670175
0.0582142
0.0514638
0.0440424
0.0391638
0.0325527
0.029142
0.0227503
0.02048
0.0137875
0.0124529
0.00500502
0.0045201
-0.00410403
-0.00371574
-0.0139439
-0.012551
-0.0248686
-0.0222135
-0.0372297
-0.0328515
-0.0513853
-0.044377
-0.0676233
-0.0560056
-0.0862845
-0.0656665
-0.110798
-0.0725348
-0.179267
-0.155595
-0.619252
-0.016912
-0.0204882
-0.00990065
0.00101703
0.010123
0.0213812
0.039296
0.0626492
0.0855105
0.102851
0.112862
0.115883
0.113423
0.107214
0.098936
0.089366
0.0801682
0.0705321
0.0627327
0.0541624
0.0484191
0.0408853
0.0371128
0.0301447
0.0280582
0.0210955
0.0204468
0.0129598
0.0136123
0.00511491
0.00705726
-0.00291887
0.000429431
-0.0115161
-0.0065046
-0.0209844
-0.0138642
-0.0315874
-0.0215975
-0.0435364
-0.0292867
-0.0570034
-0.0357796
-0.0727524
-0.0390846
-0.0969268
-0.0404159
-0.174646
-0.112323
-0.635416
-0.024748
-0.0221151
-0.00741677
0.0030898
0.00990223
0.0171555
0.0287104
0.0451593
0.0632321
0.0786681
0.089005
0.0938438
0.0940187
0.0902856
0.0848695
0.0772549
0.0705214
0.0620264
0.0563118
0.0481219
0.0442983
0.0365199
0.0347281
0.0269946
0.0271357
0.0189341
0.0209118
0.0117097
0.0155254
0.00479413
0.0105815
-0.00222563
0.00582105
-0.00966911
0.00111778
-0.0177856
-0.00349704
-0.026766
-0.00774235
-0.0367545
-0.0108806
-0.0480101
-0.0114438
-0.0620654
-0.00752568
-0.0879618
-0.00219647
-0.174979
-0.0595157
-0.64795
-0.0284362
-0.017283
-0.00165821
0.00650375
0.0111849
0.0159357
0.0232026
0.0334824
0.0454757
0.0564153
0.0648422
0.0691573
0.0707567
0.0687831
0.0660825
0.0603795
0.0566868
0.0493194
0.046696
0.0386116
0.0379966
0.0293209
0.0310445
0.02147
0.0256483
0.0146817
0.0214348
0.00850386
0.0180593
0.00253297
0.0152786
-0.00355999
0.0129721
-0.01004
0.0111587
-0.0171286
0.0100423
-0.0250305
0.0101178
-0.0340052
0.0123634
-0.0446877
0.0184345
-0.0595434
0.0301044
-0.0892023
0.0429477
-0.180963
0.00343264
-0.649522
-0.0174482
-0.00421766
0.00524753
0.00992714
0.0123317
0.014095
0.0173209
0.0214534
0.0277241
0.0329383
0.0385244
0.0414276
0.0439865
0.0426383
0.0439409
0.0386218
0.0404329
0.0322331
0.0358446
0.0254066
0.0315996
0.0190068
0.0282563
0.0132045
0.025896
0.0078464
0.0244237
0.00267554
0.0237312
-0.00257412
0.0237692
-0.00815367
0.024582
-0.0143088
0.0263377
-0.0213079
0.0293786
-0.0294933
0.0343102
-0.0393946
0.0421278
-0.0520463
0.0542553
-0.0700486
0.0717401
-0.101886
0.0896799
-0.185777
0.0665371
-0.616797
0.024811
0.0235575
0.0212633
0.0189662
0.0177215
0.0154408
0.0150419
0.0120658
0.0135605
0.0102806
0.0149361
0.0107108
0.0181471
0.0114677
0.0208403
0.0111097
0.0222324
0.0094571
0.022704
0.00692419
0.0228581
0.0039007
0.023128
0.00058007
0.0237537
-0.00300594
0.0248637
-0.00692115
0.026548
-0.0112822
0.0289046
-0.016241
0.032068
-0.0219841
0.0362298
-0.028741
0.0416592
-0.0367996
0.048721
-0.0465349
0.0578756
-0.0584953
0.069586
-0.0738144
0.0838131
-0.0966914
0.0972244
-0.152752
0.0854764
-0.475166
0
0
0
0
0
0
0
0
0
0
0
0
0
0
0
0
0
0
0
0
0
0
0
0
0
0
0
0
0
0
0
0
0
0
0
0
0
0
0
0
0
0
0
0
0
0
0
0
0
0
