# vtk DataFile Version 2.0
pressure
ASCII
DATASET RECTILINEAR_GRID
DIMENSIONS 41 41 1
X_COORDINATES 41 double
0 0.0325168 0.0644289 0.0957562 0.126518 0.156734 0.186424 0.215604 0.244295 0.272513 0.300276 0.327602 0.354507 0.38101 0.407125 0.43287 0.45826 0.483312 0.50804 0.532462 0.556591 0.580442 0.604032 0.627374 0.650483 0.673374 0.696061 0.718557 0.740878 0.763037 0.785048 0.806924 0.82868 0.850328 0.871883 0.893358 0.914766 0.936121 0.957436 0.978725 1 
Y_COORDINATES 41 double
0 0.025 0.05 0.075 0.1 0.125 0.15 0.175 0.2 0.225 0.25 0.275 0.3 0.325 0.35 0.375 0.4 0.425 0.45 0.475 0.5 0.525 0.55 0.575 0.6 0.625 0.65 0.675 0.7 0.725 0.75 0.775 0.8 0.825 0.85 0.875 0.9 0.925 0.95 0.975 1 
Z_COORDINATES 1 double
0.0

CELL_DATA 1600
SCALARS pressure double 1
LOOKUP_TABLE default
0
-5.77214e-05
-0.000213331
-0.000450058
-0.000744356
-0.00108321
-0.00146017
-0.00186904
-0.00229895
-0.00273208
-0.00314347
-0.00350263
-0.00377648
-0.00393369
-0.00394965
-0.0038116
-0.00352271
-0.00310432
-0.00259568
-0.00205079
-0.00153266
-0.00110553
-0.000826292
-0.00073645
-0.000856113
-0.00118138
-0.00168565
-0.0023246
-0.00304383
-0.0037873
-0.00450483
-0.00515735
-0.00571905
-0.00617695
-0.00652829
-0.00677701
-0.00693052
-0.00699839
-0.00699511
-0.00695037
1.70276e-05
-4.1371e-05
-0.000183758
-0.000397111
-0.000661681
-0.000967834
-0.00131175
-0.00168985
-0.00209439
-0.00251122
-0.00291906
-0.00329023
-0.00359282
-0.00379445
-0.00386738
-0.00379401
-0.00357201
-0.00321744
-0.00276526
-0.00226673
-0.0017837
-0.00138077
-0.00111612
-0.00103294
-0.00115277
-0.00147241
-0.00196502
-0.00258544
-0.00327834
-0.00398748
-0.0046638
-0.00527073
-0.00578615
-0.00620123
-0.00651715
-0.00674108
-0.00688234
-0.00694966
-0.00695024
-0.0069014
9.6894e-05
2.58123e-05
-0.000114266
-0.00031162
-0.000551703
-0.000830585
-0.00115014
-0.00151244
-0.00191529
-0.00234926
-0.00279593
-0.00322751
-0.00360856
-0.00390028
-0.00406682
-0.00408241
-0.00393759
-0.00364318
-0.0032311
-0.00275183
-0.00226873
-0.00184982
-0.00155824
-0.00144284
-0.0015305
-0.00182193
-0.00229191
-0.00289435
-0.00357093
-0.00426155
-0.00491389
-0.00549001
-0.00596881
-0.00634463
-0.00662318
-0.00681622
-0.00693649
-0.00699323
-0.00698878
-0.00693303
0.000242654
0.000147476
-7.22832e-07
-0.000192176
-0.000420371
-0.000689882
-0.00101166
-0.00139671
-0.00185025
-0.0023669
-0.00292724
-0.00349715
-0.00403073
-0.00447693
-0.00478812
-0.00492862
-0.00488148
-0.00465246
-0.00427073
-0.00378637
-0.00326478
-0.00277878
-0.00239897
-0.0021838
-0.00217068
-0.00237008
-0.00276392
-0.00330915
-0.00394612
-0.00460979
-0.00524129
-0.00579668
-0.00625119
-0.00659858
-0.00684675
-0.00701131
-0.00710899
-0.00715164
-0.00714158
-0.00708645
0.000439365
0.000312098
0.000148023
-4.95609e-05
-0.000286546
-0.000579333
-0.000951087
-0.0014239
-0.00200989
-0.00270371
-0.00347828
-0.00428586
-0.00506427
-0.0057466
-0.00627161
-0.00659276
-0.00668464
-0.00654655
-0.00620298
-0.00570143
-0.00510757
-0.00449821
-0.00395241
-0.00354157
-0.00331959
-0.00331479
-0.00352543
-0.00392027
-0.00444477
-0.00503203
-0.00561578
-0.00614213
-0.00657701
-0.00690776
-0.00713952
-0.00728839
-0.00737353
-0.00740986
-0.00740246
-0.00735919
0.000661666
0.000498861
0.000312385
9.19682e-05
-0.000185788
-0.000552535
-0.00104596
-0.00169889
-0.0025264
-0.00351615
-0.00462572
-0.00578754
-0.00691931
-0.00793621
-0.00876215
-0.00933846
-0.00962969
-0.00962647
-0.00934586
-0.00882953
-0.00814007
-0.00735541
-0.00656157
-0.00584383
-0.00527687
-0.00491503
-0.00478439
-0.0048787
-0.00516095
-0.00557117
-0.00603931
-0.0064997
-0.00690309
-0.00722273
-0.00745351
-0.00760588
-0.00769718
-0.0077431
-0.00775105
-0.00772947
0.000872444
0.000673985
0.000457293
0.000190009
-0.000173672
-0.000683633
-0.00139243
-0.00234015
-0.00353765
-0.00495719
-0.0065337
-0.00817495
-0.0097756
-0.0112313
-0.0124501
-0.0133609
-0.0139177
-0.0141021
-0.0139223
-0.0134115
-0.0126253
-0.0116379
-0.0105369
-0.00941737
-0.00837371
-0.0074899
-0.00682939
-0.00642595
-0.0062782
-0.00635035
-0.00658048
-0.00689511
-0.00722602
-0.00752351
-0.00776187
-0.0079365
-0.00805564
-0.00813062
-0.0081679
-0.00817543
0.00102244
0.000789541
0.000530906
0.000183905
-0.000323686
-0.00106148
-0.00209471
-0.00346403
-0.00516687
-0.00715104
-0.00932194
-0.0115579
-0.0137277
-0.0157067
-0.0173884
-0.0186917
-0.0195638
-0.0199798
-0.019941
-0.019472
-0.0186183
-0.0174442
-0.0160307
-0.0144725
-0.0128743
-0.0113437
-0.00998223
-0.0088735
-0.00807075
-0.00758719
-0.00739324
-0.00742402
-0.0075966
-0.00783148
-0.00806939
-0.00827716
-0.00844285
-0.00856547
-0.00864523
-0.00868749
0.00105234
0.000785471
0.000467742
-2.43951e-07
-0.000719224
-0.00177799
-0.00324927
-0.00516503
-0.00749844
-0.0101632
-0.0130277
-0.0159361
-0.0187299
-0.0212665
-0.0234301
-0.0251367
-0.0263341
-0.026998
-0.0271274
-0.0267409
-0.0258736
-0.0245757
-0.0229127
-0.020966
-0.0188342
-0.0166314
-0.0144836
-0.0125191
-0.0108544
-0.00957507
-0.00871764
-0.0082599
-0.0081266
-0.00821251
-0.00841335
-0.00864944
-0.00887234
-0.00905722
-0.00919084
-0.00927324
0.000897553
0.000595122
0.000195822
-0.000439966
-0.00144128
-0.00291281
-0.00492679
-0.00749497
-0.0105542
-0.0139737
-0.0175774
-0.0211727
-0.0245768
-0.027636
-0.0302351
-0.0322978
-0.0337818
-0.0346714
-0.03497
-0.0346948
-0.0338729
-0.0325401
-0.0307418
-0.0285363
-0.0259993
-0.023229
-0.0203495
-0.0175102
-0.0148769
-0.0126123
-0.0108472
-0.00964713
-0.00899141
-0.00877832
-0.00886079
-0.00909487
-0.00937292
-0.00962896
-0.00982633
-0.00995562
0.000495662
0.00015361
-0.000353091
-0.00120429
-0.00255428
-0.00451771
-0.00715572
-0.0104468
-0.0142788
-0.0184669
-0.0227866
-0.027011
-0.0309413
-0.0344247
-0.0373585
-0.0396844
-0.0413784
-0.0424393
-0.0428802
-0.0427213
-0.0419862
-0.0406998
-0.0388893
-0.0365876
-0.0338391
-0.0307085
-0.027291
-0.0237218
-0.0201799
-0.0168796
-0.0140444
-0.0118602
-0.0104201
-0.00968786
-0.00950854
-0.00967093
-0.00998291
-0.0103118
-0.0105819
-0.0107672
-0.000204939
-0.000592359
-0.00123236
-0.00234139
-0.00409334
-0.00660429
-0.00991217
-0.0139488
-0.0185423
-0.023448
-0.0283952
-0.0331317
-0.0374561
-0.0412298
-0.0443734
-0.0468537
-0.0486686
-0.0498338
-0.0503737
-0.050314
-0.0496785
-0.0484868
-0.0467544
-0.0444945
-0.041723
-0.038467
-0.0347775
-0.0307461
-0.0265218
-0.0223211
-0.0184201
-0.0151159
-0.0126535
-0.0111387
-0.0104858
-0.010452
-0.0107474
-0.0111403
-0.0114907
-0.0117436
-0.00123668
-0.00167535
-0.00247058
-0.00386888
-0.00605567
-0.00913846
-0.0131197
-0.0178733
-0.0231611
-0.02868
-0.0341217
-0.0392234
-0.0437957
-0.0477258
-0.0509638
-0.0535032
-0.0553631
-0.0565741
-0.0571697
-0.0571813
-0.0566349
-0.0555492
-0.0539352
-0.0517963
-0.0491305
-0.0459357
-0.042221
-0.0380236
-0.0334332
-0.0286185
-0.0238454
-0.0194667
-0.0158635
-0.0133308
-0.0119495
-0.0115332
-0.0117196
-0.0121504
-0.0125855
-0.0129187
-0.00260659
-0.00310055
-0.00406526
-0.00576871
-0.00839837
-0.0120428
-0.0166588
-0.0220557
-0.027929
-0.0339253
-0.0397132
-0.045035
-0.0497256
-0.0537044
-0.0569518
-0.0594856
-0.061341
-0.0625589
-0.0631788
-0.0632354
-0.0627567
-0.0617633
-0.0602669
-0.0582698
-0.055764
-0.0527332
-0.0491585
-0.0450315
-0.0403775
-0.0352896
-0.0299673
-0.0247432
-0.0200645
-0.0163983
-0.0140566
-0.013028
-0.0129636
-0.0133798
-0.0138961
-0.0143215
-0.00429332
-0.004843
-0.00598106
-0.00798775
-0.0110425
-0.0152062
-0.0203835
-0.0263185
-0.0326469
-0.0389784
-0.0449745
-0.0503956
-0.0551083
-0.0590649
-0.0622727
-0.0647675
-0.0665953
-0.0678021
-0.0684293
-0.0685123
-0.0680804
-0.0671563
-0.065755
-0.0638829
-0.0615353
-0.0586947
-0.0553319
-0.051412
-0.0469108
-0.0418456
-0.0363229
-0.0305922
-0.0250779
-0.0203394
-0.0169115
-0.0150499
-0.0145517
-0.0148672
-0.0154476
-0.0159734
-0.00624813
-0.00684903
-0.00815282
-0.0104432
-0.0138825
-0.0184974
-0.0241393
-0.030492
-0.0371435
-0.0436812
-0.0497735
-0.0552073
-0.0598824
-0.0637802
-0.0669288
-0.0693756
-0.0711718
-0.0723639
-0.0729926
-0.0730921
-0.0726915
-0.0718149
-0.0704813
-0.068703
-0.0664829
-0.0638111
-0.0606622
-0.0569942
-0.0527566
-0.0479112
-0.0424752
-0.0365867
-0.0305753
-0.0249907
-0.0205103
-0.0176742
-0.0165514
-0.0166477
-0.017257
-0.0178847
-0.00839951
-0.00904167
-0.0104924
-0.0130316
-0.0167972
-0.021779
-0.0277782
-0.0344285
-0.0412835
-0.0479231
-0.0540315
-0.059425
-0.0640333
-0.067861
-0.0709502
-0.0733542
-0.0751247
-0.0763066
-0.0769375
-0.0770495
-0.0766705
-0.0758253
-0.074536
-0.0728205
-0.0706904
-0.0681471
-0.0651767
-0.0617447
-0.0577959
-0.0532634
-0.0480994
-0.0423354
-0.036172
-0.0300638
-0.0247187
-0.020897
-0.0190024
-0.0187434
-0.0193267
-0.0200487
-0.0106605
-0.0113286
-0.0128978
-0.0156398
-0.0196625
-0.0249194
-0.0311691
-0.0380075
-0.0449679
-0.0516326
-0.0577068
-0.0630339
-0.0675681
-0.0713301
-0.0743697
-0.0767419
-0.0784965
-0.0796747
-0.080311
-0.0804345
-0.0800717
-0.0792474
-0.0779856
-0.0763087
-0.074236
-0.0717801
-0.0689413
-0.0657008
-0.0620135
-0.057808
-0.0530013
-0.0475454
-0.0415136
-0.0352186
-0.0292961
-0.0246147
-0.0218902
-0.0211506
-0.0216379
-0.0224365
-0.0129371
-0.0136112
-0.0152633
-0.0181545
-0.0223603
-0.0278011
-0.0342028
-0.0411364
-0.0481268
-0.0547658
-0.0607793
-0.0660333
-0.0704993
-0.0742078
-0.0772114
-0.0795641
-0.081312
-0.0824929
-0.0831374
-0.0832723
-0.0829225
-0.0821123
-0.0808669
-0.0792118
-0.077172
-0.0747697
-0.0720191
-0.068919
-0.0654428
-0.061531
-0.0570928
-0.0520333
-0.0463249
-0.0401312
-0.0339482
-0.0286347
-0.0251297
-0.0238273
-0.0241434
-0.024992
-0.0151372
-0.0157939
-0.0174885
-0.0204718
-0.0247867
-0.0303257
-0.0367928
-0.0437465
-0.0507128
-0.0572959
-0.0632395
-0.0684259
-0.0728369
-0.0765072
-0.079489
-0.0818332
-0.0835822
-0.0847701
-0.0854246
-0.0855703
-0.0852306
-0.0844296
-0.0831928
-0.0815478
-0.0795238
-0.0771501
-0.0744526
-0.0714468
-0.0681271
-0.0644552
-0.0603512
-0.055704
-0.0504204
-0.0445357
-0.0383806
-0.0327102
-0.028568
-0.0266854
-0.0267647
-0.0276309
-0.0171776
-0.0177917
-0.0194856
-0.0225031
-0.0268563
-0.0324157
-0.0388741
-0.0457889
-0.0526936
-0.0592054
-0.0650811
-0.0702124
-0.0745851
-0.0782334
-0.0812068
-0.0835523
-0.0853087
-0.0865067
-0.0871717
-0.0873267
-0.086994
-0.0861973
-0.0849625
-0.0833185
-0.0812972
-0.0789334
-0.076262
-0.0733126
-0.0701001
-0.06661
-0.0627849
-0.0585199
-0.05369
-0.0482373
-0.042335
-0.03658
-0.0320041
-0.0295923
-0.0293924
-0.0302434
-0.01899
-0.0195362
-0.0211859
-0.02418
-0.0285047
-0.0340146
-0.0404011
-0.04723
-0.0540471
-0.0604816
-0.0662979
-0.0713902
-0.0757427
-0.0793855
-0.0823637
-0.0847198
-0.0864892
-0.0876999
-0.0883755
-0.0885376
-0.088208
-0.0874101
-0.0861702
-0.084518
-0.0824877
-0.0801181
-0.077451
-0.0745276
-0.07138
-0.0680177
-0.0644101
-0.0604728
-0.0560762
-0.0511059
-0.0456067
-0.0399999
-0.0352159
-0.0323826
-0.0318929
-0.0327008
-0.0205246
-0.0209799
-0.0225422
-0.0254567
-0.0296894
-0.0350858
-0.0413448
-0.0480484
-0.0547583
-0.0611138
-0.0668818
-0.0719527
-0.0763039
-0.0799584
-0.082955
-0.0853317
-0.0871204
-0.0883469
-0.0890334
-0.0892006
-0.0888697
-0.0880643
-0.086811
-0.0851404
-0.0830888
-0.0806979
-0.0780152
-0.0750911
-0.0719724
-0.0686899
-0.0652402
-0.0615666
-0.0575533
-0.0530618
-0.0480454
-0.0427621
-0.0379858
-0.0348751
-0.0341188
-0.0348656
-0.0217521
-0.0220971
-0.0235312
-0.0263104
-0.0303897
-0.0356122
-0.0416916
-0.0482331
-0.0548177
-0.061093
-0.0668236
-0.0718907
-0.0762601
-0.0799445
-0.0829749
-0.0853838
-0.0872
-0.0884471
-0.0891461
-0.0893169
-0.0889807
-0.0881609
-0.0868847
-0.085184
-0.0830967
-0.0806676
-0.0779489
-0.0749988
-0.0718762
-0.0686304
-0.0652832
-0.0618075
-0.0581124
-0.0540593
-0.0495472
-0.0447009
-0.040117
-0.0368894
-0.0359197
-0.0366011
-0.022663
-0.0228849
-0.0241532
-0.0267418
-0.0306059
-0.0355938
-0.0414412
-0.0477826
-0.0542211
-0.060412
-0.066114
-0.0711937
-0.0756011
-0.0793351
-0.0824169
-0.0848727
-0.0867273
-0.0880024
-0.0887176
-0.0888923
-0.0885473
-0.0877064
-0.0863974
-0.0846534
-0.0825144
-0.0800282
-0.0772515
-0.0742493
-0.0710909
-0.0678412
-0.0645446
-0.0612026
-0.0577538
-0.054076
-0.0500451
-0.0456911
-0.0414419
-0.0382577
-0.0371527
-0.0377802
-0.0232667
-0.0233605
-0.0244301
-0.0267728
-0.0303575
-0.0350474
-0.0406067
-0.0467049
-0.0529708
-0.0590677
-0.0647452
-0.0698517
-0.0743166
-0.0781217
-0.0812753
-0.083796
-0.0857036
-0.0870174
-0.0877554
-0.0879364
-0.0875811
-0.0867136
-0.0853622
-0.0835617
-0.081354
-0.0787903
-0.0759318
-0.0728498
-0.069623
-0.0663298
-0.0630339
-0.0597628
-0.0564855
-0.0531052
-0.0494989
-0.0456407
-0.0418201
-0.0388277
-0.0376853
-0.0382873
-0.0235884
-0.0235577
-0.0244022
-0.0264441
-0.0296814
-0.0340043
-0.0392134
-0.0450183
-0.0510774
-0.057063
-0.0627145
-0.0678582
-0.0723992
-0.0762977
-0.0795465
-0.0821537
-0.0841329
-0.0855
-0.0862711
-0.0864643
-0.0860999
-0.0852023
-0.0838008
-0.0819315
-0.0796388
-0.0769772
-0.0740124
-0.0708221
-0.0674933
-0.0641164
-0.0607715
-0.0575088
-0.0543256
-0.0511543
-0.0478889
-0.0444828
-0.0411312
-0.0384554
-0.037389
-0.0380101
-0.0236653
-0.0235225
-0.0241237
-0.0258111
-0.0286285
-0.032509
-0.0372984
-0.0427522
-0.0485619
-0.0544108
-0.0600276
-0.0652143
-0.0698476
-0.0738624
-0.0772316
-0.0799502
-0.0820237
-0.0834629
-0.0842818
-0.084497
-0.0841287
-0.0832012
-0.081745
-0.0797978
-0.0774062
-0.0746281
-0.071534
-0.0682074
-0.064743
-0.0612416
-0.0577971
-0.0544786
-0.0513081
-0.0482464
-0.0452127
-0.0421673
-0.0392627
-0.0369866
-0.0361166
-0.0368137
-0.0235421
-0.0233068
-0.0236557
-0.0249387
-0.0272602
-0.030616
-0.0349095
-0.0399478
-0.0454585
-0.0511379
-0.0567044
-0.0619343
-0.0666728
-0.0708252
-0.074341
-0.0771985
-0.0793923
-0.080927
-0.0818129
-0.0820649
-0.0817025
-0.0807505
-0.0792402
-0.0772108
-0.0747114
-0.0718032
-0.0685607
-0.0650728
-0.0614411
-0.0577746
-0.0541784
-0.0507365
-0.0474902
-0.0444249
-0.041486
-0.0386565
-0.0360958
-0.0342296
-0.0336604
-0.0344878
-0.0232664
-0.0229631
-0.02306
-0.0238937
-0.0256423
-0.0283867
-0.0321039
-0.0366588
-0.0418174
-0.0472899
-0.052785
-0.0580529
-0.062905
-0.0672138
-0.0709017
-0.0739264
-0.0762693
-0.0779263
-0.0789029
-0.0792117
-0.0788712
-0.0779064
-0.0763494
-0.074241
-0.0716325
-0.0685878
-0.0651849
-0.061517
-0.0576906
-0.0538206
-0.0500194
-0.046381
-0.0429602
-0.0397595
-0.0367444
-0.0339226
-0.0314955
-0.0299229
-0.0296894
-0.0306631
-0.0228844
-0.0225396
-0.0223917
-0.0227376
-0.023838
-0.0258845
-0.028946
-0.0329519
-0.0377072
-0.0429356
-0.0483363
-0.0536332
-0.0586029
-0.0630831
-0.0669657
-0.0701854
-0.0727068
-0.0745155
-0.0756105
-0.0760012
-0.0757049
-0.0747465
-0.0731588
-0.070984
-0.0682752
-0.0650982
-0.0615334
-0.057676
-0.0536347
-0.0495264
-0.045466
-0.041551
-0.037842
-0.0343491
-0.0310447
-0.027947
-0.0253054
-0.0237088
-0.0236783
-0.0247025
-0.0224382
-0.0220766
-0.0216924
-0.0215173
-0.0219009
-0.02317
-0.0255052
-0.028907
-0.0332178
-0.0381719
-0.0434581
-0.0487741
-0.0538622
-0.0585242
-0.0626203
-0.0660595
-0.0687878
-0.0707781
-0.0720218
-0.0725241
-0.0723004
-0.0713753
-0.0697824
-0.0675648
-0.0647766
-0.0614846
-0.0577692
-0.0537248
-0.0494579
-0.0450818
-0.040707
-0.036426
-0.0322952
-0.0283193
-0.0244595
-0.0207144
-0.0173469
-0.0151264
-0.0148505
-0.0156004
-0.0219647
-0.0216053
-0.0209859
-0.0202572
-0.0198665
-0.0202965
-0.0218553
-0.0246186
-0.0284624
-0.0331269
-0.0382876
-0.0436163
-0.0488222
-0.0536726
-0.0579957
-0.0616741
-0.064634
-0.0668341
-0.0682572
-0.0689034
-0.0687858
-0.0679284
-0.066365
-0.0641394
-0.0613056
-0.0579295
-0.0540888
-0.0498726
-0.0453795
-0.0407115
-0.035965
-0.0312162
-0.0265033
-0.0218084
-0.0170577
-0.0121906
-0.00740927
-0.00362392
-0.00217138
-0.00194738
-0.0215001
-0.0211489
-0.0202753
-0.0189552
-0.0177489
-0.0173082
-0.018075
-0.0201986
-0.0235812
-0.0279623
-0.033001
-0.0383434
-0.0436681
-0.0487102
-0.0532682
-0.0571991
-0.0604093
-0.0628431
-0.0644741
-0.0652965
-0.0653211
-0.0645706
-0.0630788
-0.0608889
-0.0580539
-0.054636
-0.0507065
-0.0463442
-0.0416319
-0.036651
-0.0314711
-0.0261365
-0.0206469
-0.014937
-0.0088666
-0.00227139
0.0047991
0.0114422
0.0156172
0.0180113
-0.021093
-0.0207284
-0.0195469
-0.0175859
-0.015545
-0.0142459
-0.0142544
-0.0157809
-0.0187439
-0.0228745
-0.0278126
-0.0331795
-0.0386267
-0.0438615
-0.0486561
-0.052845
-0.0563161
-0.0590003
-0.0608616
-0.0618889
-0.0620897
-0.0614854
-0.0601086
-0.0580011
-0.0552124
-0.0517986
-0.0478203
-0.0433398
-0.0384167
-0.0331001
-0.027418
-0.0213611
-0.0148613
-0.00776655
0.000177623
0.00929155
0.0197582
0.0308936
0.0400252
0.0463541
-0.0208449
-0.020384
-0.018787
-0.0161205
-0.013255
-0.0111641
-0.0105062
-0.0115289
-0.0141519
-0.0180917
-0.0229676
-0.028379
-0.0339548
-0.0393803
-0.0444065
-0.0488493
-0.052581
-0.0555206
-0.0576237
-0.0588736
-0.0592745
-0.0588455
-0.0576173
-0.0556285
-0.0529235
-0.0495491
-0.0455517
-0.0409721
-0.0358388
-0.0301573
-0.0238962
-0.0169647
-0.00918571
-0.000259095
0.0102612
0.0229401
0.0382625
0.055943
0.0730875
0.0858961
-0.0210138
-0.0202355
-0.0180313
-0.0145745
-0.0109235
-0.00816102
-0.00698486
-0.00764262
-0.0100381
-0.0138675
-0.0187311
-0.0242108
-0.0299192
-0.0355258
-0.0407667
-0.0454435
-0.049417
-0.0525966
-0.0549307
-0.0563977
-0.0569981
-0.0567484
-0.0556764
-0.0538166
-0.0512066
-0.0478825
-0.0438741
-0.0391966
-0.0338418
-0.0277598
-0.020842
-0.0128816
-0.00354294
0.00771021
0.0216288
0.0391986
0.0613501
0.0883592
0.117862
0.141676
-0.0222904
-0.020641
-0.0175034
-0.013119
-0.0087208
-0.00542887
-0.00390632
-0.00435484
-0.00664219
-0.0104401
-0.0153327
-0.0208907
-0.0267174
-0.0324735
-0.0378865
-0.0427498
-0.0469162
-0.0502887
-0.0528107
-0.0544563
-0.055223
-0.0551246
-0.0541855
-0.0524356
-0.0499056
-0.0466197
-0.0425909
-0.0378055
-0.0322158
-0.0257054
-0.018076
-0.00896909
0.00215079
0.0161625
0.0342457
0.0581181
0.0895035
0.129882
0.178315
0.224315
-0.0265027
-0.0223449
-0.0176687
-0.0120977
-0.00694573
-0.00323126
-0.00148956
-0.00183284
-0.00407839
-0.00787317
-0.0127904
-0.0183964
-0.0242924
-0.030137
-0.0356545
-0.0406348
-0.0449265
-0.0484288
-0.0510813
-0.0528549
-0.0537445
-0.0537606
-0.0529248
-0.0512617
-0.0487954
-0.0455383
-0.041487
-0.0365991
-0.0307887
-0.0238704
-0.0155575
-0.00532707
0.00756177
0.0243925
0.0468434
0.0777417
0.120156
0.179059
0.256278
0.35581
-0.040935
-0.0238913
-0.0164331
-0.0103173
-0.00508606
-0.0014055
0.000288188
-8.76724e-05
-0.00234719
-0.00614413
-0.0110611
-0.0166726
-0.0225858
-0.0284619
-0.0340261
-0.0390667
-0.0434304
-0.0470131
-0.0497517
-0.0516144
-0.0525933
-0.0526964
-0.0519419
-0.0503508
-0.0479412
-0.0447174
-0.0406628
-0.0357166
-0.0297613
-0.0225697
-0.0137812
-0.00277391
0.0113692
0.0301958
0.0558834
0.0923051
0.144781
0.225302
0.350533
0.597515
