# vtk DataFile Version 2.0
u_velocity
ASCII
DATASET RECTILINEAR_GRID
DIMENSIONS 42 41 1
X_COORDINATES 42 double
0 0.0162584 0.0484728 0.0800925 0.111137 0.141626 0.171579 0.201014 0.229949 0.258404 0.286394 0.313939 0.341055 0.367758 0.394067 0.419997 0.445565 0.470786 0.495676 0.520251 0.544526 0.568516 0.592237 0.615703 0.638929 0.661929 0.684717 0.707309 0.729718 0.751958 0.774042 0.795986 0.817802 0.839504 0.861106 0.882621 0.904062 0.925444 0.946779 0.968081 0.989362 1 
Y_COORDINATES 41 double
0 0.025 0.05 0.075 0.1 0.125 0.15 0.175 0.2 0.225 0.25 0.275 0.3 0.325 0.35 0.375 0.4 0.425 0.45 0.475 0.5 0.525 0.55 0.575 0.6 0.625 0.65 0.675 0.7 0.725 0.75 0.775 0.8 0.825 0.85 0.875 0.9 0.925 0.95 0.975 1 
Z_COORDINATES 1 double
0.0

CELL_DATA 1640
SCALARS u_velocity double 1
LOOKUP_TABLE default
0
0.000614517
0.00138007
0.0017896
0.00171089
0.00115654
0.000155882
-0.00128692
-0.00318714
-0.00555543
-0.00837343
-0.011577
-0.015048
-0.0186154
-0.0220634
-0.0251477
-0.0276174
-0.0292406
-0.0298308
-0.0292703
-0.0275281
-0.02467
-0.0208575
-0.0163373
-0.0114184
-0.00644189
-0.00174386
0.00238075
0.00570939
0.0081119
0.0095559
0.0100972
0.00985816
0.00900005
0.00769624
0.0061135
0.0044073
0.00273495
0.00128425
0.000296315
0
0
0.000980823
0.00190029
0.00187313
0.000624453
-0.00188321
-0.00563287
-0.010612
-0.0167955
-0.0240982
-0.0323316
-0.0411839
-0.0502273
-0.0589502
-0.0668058
-0.0732678
-0.0778818
-0.0803059
-0.0803357
-0.0779161
-0.0731411
-0.0662453
-0.0575878
-0.0476304
-0.0369098
-0.0260026
-0.0154848
-0.00588856
0.00234167
0.00888525
0.0135693
0.0163746
0.0174222
0.0169437
0.0152434
0.0126622
0.00955644
0.00629727
0.00329093
0.00100591
0
0
0.000715929
0.000772923
-0.000701926
-0.00400967
-0.00923499
-0.016384
-0.0254092
-0.036171
-0.0483824
-0.0615811
-0.0751453
-0.0883529
-0.100463
-0.110796
-0.118796
-0.12406
-0.126349
-0.125578
-0.121801
-0.115193
-0.106045
-0.0947453
-0.0817755
-0.0676941
-0.0531179
-0.038693
-0.0250561
-0.0127891
-0.00237155
0.00586009
0.0117392
0.0152758
0.0166413
0.0161388
0.0141639
0.0111724
0.00766201
0.00417784
0.00135049
0
0
-1.53241e-05
-0.00159378
-0.00530862
-0.0113874
-0.0199293
-0.0309318
-0.0442543
-0.0595609
-0.0762887
-0.0936754
-0.110846
-0.12693
-0.141158
-0.152931
-0.161824
-0.16758
-0.170074
-0.16929
-0.165295
-0.158237
-0.148342
-0.135919
-0.121372
-0.1052
-0.0879983
-0.0704381
-0.053236
-0.0371034
-0.0226872
-0.0105088
-0.000914353
0.00595258
0.0101529
0.0119297
0.0116714
0.0098723
0.00710369
0.0040069
0.00132542
0
0
-0.00111383
-0.004917
-0.0114516
-0.0207949
-0.033018
-0.0480535
-0.0655965
-0.0850582
-0.105597
-0.126232
-0.145993
-0.164045
-0.179755
-0.192686
-0.202566
-0.209236
-0.212618
-0.212688
-0.209465
-0.203008
-0.193432
-0.180919
-0.165748
-0.14831
-0.129129
-0.108864
-0.0882869
-0.0682386
-0.0495556
-0.0329846
-0.0190996
-0.00824148
-0.000495181
0.00429617
0.00649085
0.00659937
0.00524259
0.00312986
0.00106728
0
0
-0.00250967
-0.00895353
-0.0186642
-0.0315171
-0.0475105
-0.0664499
-0.0878139
-0.11076
-0.134247
-0.157218
-0.17876
-0.198188
-0.215035
-0.229008
-0.239932
-0.247711
-0.252291
-0.25364
-0.251734
-0.246559
-0.238115
-0.226441
-0.211642
-0.193935
-0.17369
-0.151459
-0.127994
-0.104218
-0.0811568
-0.0598293
-0.0411186
-0.0256539
-0.0137406
-0.00535343
-0.000182608
0.0022948
0.00274743
0.00194269
0.000723912
0
0
-0.00412506
-0.013441
-0.026451
-0.0427996
-0.0623716
-0.0847967
-0.109325
-0.134917
-0.160442
-0.184886
-0.20747
-0.227656
-0.245111
-0.259653
-0.271203
-0.279748
-0.285304
-0.287884
-0.287474
-0.284021
-0.277434
-0.267598
-0.254414
-0.237852
-0.218017
-0.19522
-0.170043
-0.143361
-0.116311
-0.0901824
-0.0662505
-0.0455725
-0.0288256
-0.0162322
-0.00759263
-0.0023861
0.000113201
0.000744849
0.000404262
0
0
-0.00585562
-0.0180762
-0.0342782
-0.0538628
-0.0765691
-0.101829
-0.128691
-0.155993
-0.182606
-0.207608
-0.230342
-0.250392
-0.267545
-0.281749
-0.293066
-0.301623
-0.307563
-0.310995
-0.311963
-0.310419
-0.306219
-0.299128
-0.288847
-0.27507
-0.257558
-0.236249
-0.211365
-0.183516
-0.153745
-0.123487
-0.0943987
-0.0680915
-0.0458287
-0.0283041
-0.0155876
-0.00723312
-0.00246245
-0.000332465
0.00015629
0
0
-0.00756941
-0.0225249
-0.0415998
-0.0639485
-0.0891446
-0.116425
-0.14468
-0.172693
-0.199374
-0.22389
-0.245691
-0.264484
-0.28021
-0.292995
-0.303088
-0.310788
-0.316383
-0.320098
-0.322057
-0.322261
-0.320569
-0.316693
-0.310208
-0.300585
-0.287255
-0.269718
-0.247689
-0.221272
-0.191114
-0.15849
-0.125237
-0.0934987
-0.0653003
-0.0421096
-0.0245624
-0.0124773
-0.00508962
-0.00133207
-3.22483e-05
0
0
-0.00911849
-0.0264497
-0.0479011
-0.0723785
-0.0992816
-0.127672
-0.156331
-0.184023
-0.209711
-0.232654
-0.25242
-0.268887
-0.282196
-0.292683
-0.300784
-0.306952
-0.31159
-0.315015
-0.317425
-0.318887
-0.319317
-0.318462
-0.315888
-0.310976
-0.302952
-0.290956
-0.274184
-0.252085
-0.224618
-0.192493
-0.157302
-0.121418
-0.0875936
-0.0583154
-0.0351821
-0.0186279
-0.00809163
-0.00241974
-0.000214823
0
0
-0.0103568
-0.0295437
-0.0527427
-0.0786066
-0.106362
-0.134928
-0.163016
-0.189403
-0.213125
-0.233556
-0.25044
-0.26387
-0.274216
-0.282007
-0.287821
-0.292198
-0.295595
-0.298361
-0.300732
-0.302828
-0.304643
-0.306024
-0.30664
-0.305948
-0.303164
-0.297282
-0.287138
-0.271587
-0.24978
-0.221524
-0.187643
-0.150172
-0.112186
-0.077157
-0.0479884
-0.0262163
-0.0118488
-0.00380161
-0.000458123
0
0
-0.011159
-0.0315611
-0.0557962
-0.0822572
-0.110008
-0.137861
-0.164503
-0.188761
-0.209781
-0.227107
-0.24071
-0.250922
-0.258319
-0.263568
-0.26731
-0.270094
-0.272353
-0.274404
-0.276471
-0.278689
-0.281116
-0.283712
-0.286308
-0.288549
-0.289835
-0.289259
-0.285594
-0.277366
-0.263064
-0.24152
-0.212415
-0.1768
-0.137344
-0.0980183
-0.0630534
-0.0355576
-0.0166517
-0.00564841
-0.000817664
0
0
-0.0114355
-0.0323381
-0.0568662
-0.0831446
-0.110091
-0.136462
-0.160966
-0.182527
-0.200454
-0.214511
-0.224915
-0.232219
-0.237142
-0.240408
-0.242641
-0.24433
-0.245823
-0.247363
-0.249116
-0.251199
-0.253694
-0.256645
-0.26003
-0.263716
-0.267374
-0.270384
-0.271738
-0.269993
-0.263346
-0.249902
-0.228181
-0.197838
-0.160357
-0.119326
-0.0797941
-0.0466114
-0.0226195
-0.00805679
-0.00132704
0
0
-0.0111426
-0.031803
-0.0558945
-0.0812699
-0.106726
-0.131012
-0.152916
-0.171511
-0.186308
-0.197314
-0.204969
-0.209985
-0.213141
-0.215141
-0.216531
-0.217691
-0.218864
-0.220198
-0.22179
-0.223712
-0.226037
-0.228847
-0.232214
-0.236174
-0.240658
-0.245384
-0.249726
-0.252567
-0.252226
-0.246535
-0.233202
-0.210509
-0.178288
-0.138818
-0.0969748
-0.0589387
-0.029681
-0.0110476
-0.00200048
0
0
-0.0102849
-0.0299748
-0.0529504
-0.0767975
-0.100218
-0.12201
-0.141091
-0.15672
-0.168632
-0.177053
-0.18259
-0.186029
-0.188134
-0.189524
-0.190632
-0.191723
-0.192935
-0.194334
-0.19595
-0.197811
-0.199963
-0.202483
-0.205478
-0.209076
-0.213381
-0.218396
-0.223887
-0.229198
-0.233066
-0.233504
-0.22793
-0.213671
-0.188941
-0.154147
-0.112902
-0.0717213
-0.0375773
-0.0145747
-0.00283895
0
0
-0.00891216
-0.0269527
-0.048208
-0.0700159
-0.0910086
-0.110078
-0.126314
-0.139178
-0.148612
-0.155013
-0.159074
-0.161573
-0.163197
-0.164451
-0.165647
-0.166946
-0.168408
-0.170035
-0.171817
-0.173744
-0.175833
-0.178135
-0.180745
-0.183812
-0.187517
-0.192038
-0.197444
-0.203522
-0.209539
-0.213995
-0.2145
-0.207997
-0.191524
-0.163591
-0.125825
-0.0838576
-0.0458685
-0.0185257
-0.00383148
0
0
-0.00711165
-0.0228994
-0.0419178
-0.0612932
-0.0796059
-0.0958754
-0.109383
-0.11979
-0.127207
-0.132127
-0.135252
-0.137288
-0.138807
-0.140192
-0.14165
-0.143266
-0.145045
-0.146961
-0.148978
-0.151069
-0.153226
-0.155468
-0.15786
-0.160519
-0.163631
-0.167437
-0.172179
-0.177977
-0.184595
-0.191128
-0.195703
-0.195398
-0.186666
-0.166518
-0.134422
-0.094179
-0.0539667
-0.022719
-0.00495224
0
0
-0.00499736
-0.0180228
-0.0343775
-0.0510343
-0.0665296
-0.0800253
-0.0909986
-0.0992859
-0.10511
-0.108991
-0.11157
-0.113443
-0.115052
-0.116668
-0.118419
-0.12034
-0.122413
-0.124601
-0.126863
-0.129168
-0.131492
-0.133833
-0.136215
-0.13871
-0.141459
-0.144687
-0.148693
-0.153785
-0.160097
-0.167288
-0.174133
-0.178203
-0.175917
-0.163366
-0.138132
-0.101744
-0.0612278
-0.0269161
-0.0061587
0
0
-0.00269882
-0.0125573
-0.0259063
-0.0396468
-0.052271
-0.0630786
-0.0717304
-0.0782023
-0.0827738
-0.0859297
-0.0882072
-0.0900662
-0.0918257
-0.0936649
-0.0956571
-0.0978112
-0.100106
-0.102509
-0.10499
-0.107517
-0.110067
-0.112618
-0.115168
-0.117741
-0.120419
-0.123367
-0.12686
-0.131263
-0.136931
-0.143955
-0.151744
-0.158538
-0.161134
-0.155278
-0.137157
-0.106063
-0.0670904
-0.030856
-0.00739429
0
0
-0.000350327
-0.0067493
-0.0168261
-0.0275195
-0.0372713
-0.0454972
-0.0520182
-0.056912
-0.0604671
-0.0630889
-0.0651833
-0.0670712
-0.06896
-0.0709576
-0.0731036
-0.0754004
-0.0778345
-0.0803881
-0.0830424
-0.0857775
-0.0885705
-0.091396
-0.0942312
-0.0970671
-0.0999307
-0.102918
-0.106233
-0.110212
-0.115291
-0.121834
-0.129768
-0.13803
-0.144039
-0.143657
-0.132237
-0.107146
-0.0712049
-0.0343022
-0.00859546
0
0
0.00191861
-0.000844803
-0.00744995
-0.015011
-0.0219153
-0.0276591
-0.0321929
-0.0356636
-0.0383342
-0.0405057
-0.0424427
-0.044333
-0.0462871
-0.0483589
-0.050569
-0.0529233
-0.0554227
-0.0580661
-0.0608501
-0.0637659
-0.0667975
-0.0699205
-0.0731042
-0.0763193
-0.0795541
-0.0828436
-0.0863117
-0.0902189
-0.0949803
-0.101086
-0.108825
-0.117746
-0.125986
-0.129849
-0.124353
-0.105387
-0.0734906
-0.0370902
-0.00970227
0
0
0.00399122
0.00491868
0.00192305
-0.00244886
-0.00653682
-0.00987429
-0.0125065
-0.0146248
-0.0164486
-0.0181664
-0.0199045
-0.0217289
-0.0236662
-0.0257275
-0.0279222
-0.0302641
-0.0327694
-0.035454
-0.0383289
-0.0413972
-0.0446511
-0.0480715
-0.051628
-0.0552837
-0.059005
-0.0627838
-0.066675
-0.0708497
-0.0756469
-0.0815668
-0.0890997
-0.098272
-0.107915
-0.114965
-0.114499
-0.101395
-0.0741079
-0.0391604
-0.01067
0
0
0.00577002
0.0103183
0.0110084
0.00986495
0.00856856
0.00759355
0.00683637
0.00607757
0.00514469
0.00395512
0.00250772
0.000845578
-0.000984266
-0.00295538
-0.00506777
-0.00734175
-0.00980748
-0.0124955
-0.0154299
-0.0186246
-0.0220812
-0.0257881
-0.0297207
-0.0338433
-0.0381149
-0.0425035
-0.0470144
-0.051739
-0.0569193
-0.062992
-0.0705169
-0.07984
-0.0903946
-0.0998195
-0.103539
-0.0958392
-0.0733813
-0.0405682
-0.0114784
0
0
0.00718203
0.0151506
0.0195337
0.0216445
0.023128
0.0245045
0.0256492
0.026325
0.0263971
0.0258703
0.0248489
0.0234704
0.0218484
0.020046
0.0180761
0.0159162
0.0135268
0.0108659
0.00789812
0.00459954
0.000959151
-0.00302058
-0.00732394
-0.0119227
-0.0167786
-0.0218515
-0.0271178
-0.0326089
-0.0384736
-0.0450493
-0.0528691
-0.0624521
-0.0737026
-0.0849487
-0.0921463
-0.0893428
-0.071716
-0.0414706
-0.0121392
0
0
0.00818238
0.0192361
0.0272366
0.0326093
0.0368747
0.0406211
0.0437389
0.0459804
0.047231
0.0475557
0.047139
0.0461957
0.0449
0.0433538
0.041589
0.0395887
0.0373101
0.0347039
0.0317263
0.028344
0.0245366
0.0202963
0.015628
0.0105486
0.00508702
-0.000719577
-0.00683598
-0.013255
-0.0200494
-0.027449
-0.0359012
-0.0459777
-0.0579124
-0.0706556
-0.0807973
-0.0824254
-0.0695311
-0.0421027
-0.0127048
0
0
0.00875593
0.0224251
0.0338635
0.0424743
0.0495325
0.0556909
0.060886
0.0648671
0.0675194
0.0689348
0.0693477
0.0690305
0.0682102
0.0670298
0.0655481
0.0637621
0.061634
0.0591129
0.0561493
0.0527024
0.0487422
0.0442502
0.0392191
0.0336523
0.0275652
0.0209851
0.0139463
0.00647614
-0.0014428
-0.00994245
-0.0193556
-0.0302182
-0.0429612
-0.0570602
-0.0697832
-0.0754782
-0.067215
-0.0427566
-0.0132825
0
0
0.0089159
0.024603
0.0391718
0.0509429
0.0608031
0.0694312
0.07683
0.0827542
0.0870695
0.0898606
0.0913771
0.0919249
0.0917728
0.0911045
0.0900124
0.0885168
0.0865932
0.0841959
0.0812745
0.0777827
0.0736823
0.0689438
0.0635468
0.0574802
0.050744
0.043351
0.0353274
0.0267069
0.0175082
0.00768026
-0.0029893
-0.0149427
-0.0286953
-0.0441404
-0.0592304
-0.0687524
-0.0650945
-0.0437645
-0.0140562
0
0
0.00869872
0.0256966
0.0429365
0.0577055
0.0703573
0.0815196
0.0912599
0.0993467
0.105612
0.1101
0.113041
0.114745
0.115508
0.115547
0.114993
0.113897
0.112256
0.110038
0.107197
0.103684
0.0994564
0.0944738
0.0887032
0.082119
0.0747048
0.0664577
0.0573913
0.0475376
0.0369365
0.0255991
0.013426
9.9387e-05
-0.0148922
-0.0317541
-0.0491095
-0.0623448
-0.0634027
-0.0454802
-0.0153156
0
0
0.00815471
0.0256761
0.0449594
0.0624427
0.0778314
0.0915877
0.103811
0.114284
0.122795
0.129325
0.134048
0.137249
0.139227
0.140227
0.140411
0.139868
0.138623
0.136664
0.133957
0.130458
0.12612
0.120897
0.114744
0.107622
0.0994999
0.0903586
0.0801988
0.0690462
0.0569529
0.0439764
0.0301145
0.0151841
-0.00126046
-0.0196404
-0.0392251
-0.0561639
-0.0622246
-0.0482384
-0.0174805
0
0
0.00733458
0.0245499
0.0450778
0.0648362
0.082831
0.0992218
0.114066
0.127142
0.138191
0.147109
0.153989
0.159061
0.162603
0.164868
0.166046
0.166258
0.165565
0.163979
0.161487
0.158054
0.153635
0.148183
0.141644
0.133971
0.125118
0.115055
0.103769
0.0912811
0.0776512
0.062971
0.0473179
0.0306362
0.0125827
-0.00739607
-0.0291831
-0.049868
-0.0614011
-0.0522624
-0.0210926
0
0
0.0062706
0.0223417
0.0431646
0.0645822
0.0849446
0.103972
0.121564
0.137451
0.151309
0.162942
0.172346
0.17967
0.185147
0.189019
0.191489
0.192707
0.192765
0.191707
0.189542
0.186254
0.181807
0.176156
0.169248
0.161029
0.151447
0.140463
0.128059
0.114255
0.099117
0.0827642
0.0653337
0.0468762
0.0271622
0.00557513
-0.0183312
-0.0427713
-0.0603737
-0.0574817
-0.0267249
0
0
0.00494711
0.0190404
0.039105
0.0614003
0.0837654
0.105372
0.125822
0.144708
0.161618
0.176257
0.188512
0.198442
0.206215
0.212041
0.216123
0.218626
0.219671
0.219332
0.217645
0.214616
0.210226
0.204441
0.197216
0.188497
0.178236
0.166396
0.152961
0.137956
0.121462
0.103614
0.0845882
0.064507
0.0432381
0.0201544
-0.00567119
-0.0337253
-0.0579754
-0.0632331
-0.0347481
0
0
0.00324801
0.0145071
0.0327318
0.0550242
0.0789182
0.102979
0.126361
0.148413
0.168581
0.18646
0.201832
0.21466
0.225038
0.233132
0.239129
0.243198
0.245481
0.246077
0.24505
0.242433
0.23823
0.232427
0.224994
0.215896
0.205098
0.192579
0.17834
0.162424
0.144923
0.125982
0.105785
0.0844779
0.0619773
0.0376716
0.0102779
-0.0209896
-0.0522041
-0.0678627
-0.0449284
0
0
0.000862361
0.00832829
0.0237086
0.0451614
0.0700846
0.0964256
0.122773
0.148116
0.171699
0.192984
0.211652
0.227577
0.240782
0.251384
0.259542
0.265423
0.269178
0.270928
0.270765
0.26875
0.26492
0.25929
0.251865
0.24264
0.231616
0.218804
0.204236
0.187977
0.170128
0.150824
0.130214
0.108401
0.0852706
0.0602113
0.0317272
-0.00207272
-0.0400378
-0.0683146
-0.0559155
0
0
-0.00286902
-0.00037281
0.0113761
0.0314174
0.0570038
0.0854647
0.114767
0.143463
0.17054
0.19531
0.217352
0.236464
0.252606
0.265849
0.276326
0.284195
0.289614
0.292726
0.293654
0.292498
0.289338
0.284238
0.277251
0.268425
0.25781
0.245462
0.231446
0.215844
0.198744
0.180237
0.160381
0.13916
0.116324
0.0911878
0.0621248
0.0265779
-0.0172989
-0.0598128
-0.0647535
0
0
-0.00915628
-0.0130962
-0.00535122
0.0132604
0.0395255
0.0701054
0.102354
0.134387
0.164923
0.193121
0.21847
0.240708
0.25975
0.27564
0.288498
0.298487
0.305782
0.310562
0.31299
0.313218
0.31138
0.307599
0.301984
0.294637
0.285652
0.275118
0.263115
0.249714
0.234951
0.218838
0.201278
0.182084
0.160737
0.136389
0.107169
0.0703686
0.0216624
-0.0355572
-0.0664205
0
0
-0.0198496
-0.0317647
-0.0278233
-0.0100324
0.0173552
0.0502314
0.0854093
0.120655
0.154485
0.185953
0.214499
0.239839
0.261884
0.280679
0.296355
0.309094
0.319097
0.326574
0.331726
0.33474
0.33579
0.335033
0.332605
0.328635
0.323225
0.316468
0.308415
0.299105
0.288487
0.27648
0.26279
0.247062
0.228392
0.205727
0.176596
0.138379
0.0851412
0.0141572
-0.0527377
0
0
-0.0362209
-0.0554457
-0.0532159
-0.0344141
-0.00476206
0.0310299
0.0695362
0.108411
0.146109
0.181651
0.214456
0.24422
0.270838
0.294335
0.314822
0.332463
0.347445
0.359965
0.370215
0.378378
0.384623
0.389105
0.391956
0.3933
0.393226
0.391816
0.389085
0.385049
0.379569
0.372521
0.363409
0.351795
0.336317
0.315802
0.28679
0.246629
0.187453
0.104783
-0.00806482
0
0
-0.047137
-0.0502162
-0.0281594
0.00587982
0.0460386
0.0891895
0.133313
0.176989
0.219207
0.259265
0.296703
0.331249
0.362774
0.39126
0.416768
0.439409
0.459331
0.476698
0.491684
0.50446
0.515191
0.524036
0.531136
0.536621
0.54059
0.54313
0.544261
0.543988
0.54216
0.538607
0.532783
0.524129
0.511128
0.492351
0.463806
0.422321
0.357197
0.26502
0.107107
0
0
0.137446
0.249253
0.330382
0.392609
0.443529
0.48744
0.526658
0.562367
0.595122
0.625159
0.652566
0.677386
0.699666
0.719476
0.736917
0.752117
0.765225
0.776397
0.785798
0.793587
0.799923
0.804943
0.808788
0.811557
0.813363
0.814239
0.814257
0.813313
0.811421
0.808165
0.803466
0.796161
0.786032
0.770047
0.74787
0.711136
0.65948
0.563151
0.4174
0
