# vtk DataFile Version 2.0
v_velocity
ASCII
DATASET RECTILINEAR_GRID
DIMENSIONS 41 42 1
X_COORDINATES 41 double
0 0.0325168 0.0644289 0.0957562 0.126518 0.156734 0.186424 0.215604 0.244295 0.272513 0.300276 0.327602 0.354507 0.38101 0.407125 0.43287 0.45826 0.483312 0.50804 0.532462 0.556591 0.580442 0.604032 0.627374 0.650483 0.673374 0.696061 0.718557 0.740878 0.763037 0.785048 0.806924 0.82868 0.850328 0.871883 0.893358 0.914766 0.936121 0.957436 0.978725 1 
Y_COORDINATES 42 double
0 0.0125 0.0375 0.0625 0.0875 0.1125 0.1375 0.1625 0.1875 0.2125 0.2375 0.2625 0.2875 0.3125 0.3375 0.3625 0.3875 0.4125 0.4375 0.4625 0.4875 0.5125 0.5375 0.5625 0.5875 0.6125 0.6375 0.6625 0.6875 0.7125 0.7375 0.7625 0.7875 0.8125 0.8375 0.8625 0.8875 0.9125 0.9375 0.9625 0.9875 1 
Z_COORDINATES 1 double
0.0

CELL_DATA 1640
SCALARS v_velocity double 1
LOOKUP_TABLE default
0
0
0
0
0
0
0
0
0
0
0
0
0
0
0
0
0
0
0
0
0
0
0
0
0
0
0
0
0
0
0
0
0
0
0
0
0
0
0
0
-0.00047246
-0.000599735
-0.000326814
6.39666e-05
0.000458648
0.000842618
0.0012361
0.0016558
0.00209821
0.00253753
0.00293084
0.00322522
0.00336521
0.00330075
0.00299504
0.00243169
0.00161987
0.00059669
-0.000573795
-0.00180504
-0.00299577
-0.0040404
-0.00484128
-0.00532128
-0.00543509
-0.0051771
-0.00458358
-0.00372819
-0.00271056
-0.00164012
-0.000618585
0.000274681
0.000990955
0.00151219
0.00184255
0.00199246
0.0019578
0.0017015
0.00116017
0.000348194
-0.00122655
-0.00132005
-0.000305141
0.00107875
0.00253342
0.00400005
0.00550188
0.00704395
0.00856809
0.00995146
0.0110296
0.0116281
0.0115937
0.0108209
0.00927008
0.00697483
0.00403895
0.000626797
-0.00305075
-0.00675234
-0.0102235
-0.0132156
-0.0155058
-0.016919
-0.0173474
-0.0167674
-0.0152477
-0.0129463
-0.0100932
-0.00696031
-0.00382444
-0.000929145
0.00154346
0.00348428
0.00484742
0.00561931
0.00577326
0.00522758
0.00384357
0.00153021
-0.00177698
-0.0013647
0.000871827
0.00376691
0.0068567
0.0100199
0.0132341
0.0164215
0.0193869
0.0218364
0.0234393
0.0239002
0.0230171
0.0207127
0.0170383
0.0121583
0.0063237
-0.000152637
-0.00691819
-0.0135983
-0.0198122
-0.0251906
-0.0293968
-0.0321525
-0.0332667
-0.0326632
-0.0304021
-0.0266858
-0.0218464
-0.0163099
-0.0105431
-0.00499304
-3.35436e-05
0.00406716
0.00714647
0.00911269
0.00988284
0.00931409
0.00716387
0.00311714
-0.0017652
-0.000128126
0.00383636
0.00870709
0.013924
0.0192847
0.0246479
0.0297592
0.0342071
0.0374926
0.0391486
0.0388445
0.0364394
0.0319821
0.0256744
0.0178258
0.00881298
-0.000946128
-0.0110078
-0.0209108
-0.0301835
-0.0383557
-0.0449773
-0.0496476
-0.0520537
-0.052014
-0.0495184
-0.0447549
-0.0381111
-0.0301424
-0.0215075
-0.012884
-0.00488415
0.0020064
0.00744723
0.0112136
0.013124
0.0129462
0.0103128
0.00467462
-0.000908849
0.00285129
0.00905113
0.0163003
0.0240371
0.0319455
0.0396776
0.0467177
0.0524038
0.0560738
0.0572272
0.0556183
0.0512587
0.0443612
0.035268
0.0243933
0.0121884
-0.000875041
-0.0143078
-0.0276006
-0.040221
-0.0516161
-0.0612263
-0.0685126
-0.0730019
-0.0743455
-0.0723849
-0.0672096
-0.0591897
-0.0489639
-0.0373751
-0.0253614
-0.0138297
-0.00355072
0.0048923
0.0110868
0.0147124
0.0154242
0.012735
0.00592875
0.00102067
0.00789943
0.0168005
0.0267456
0.0372696
0.0478936
0.0579809
0.0667124
0.0732123
0.0767581
0.0769363
0.0736703
0.0671507
0.0577369
0.0458765
0.0320529
0.0167587
0.000488079
-0.0162586
-0.0329623
-0.0490709
-0.0639888
-0.0770763
-0.087668
-0.0951131
-0.098843
-0.0984607
-0.0938396
-0.0852081
-0.0731879
-0.0587575
-0.0431323
-0.0275873
-0.0132784
-0.0011273
0.00819381
0.0141825
0.0163681
0.0141663
0.00677941
0.00419215
0.0151975
0.0271829
0.040032
0.0534628
0.0667769
0.0789952
0.0890121
0.0958264
0.09877
0.0975973
0.0924265
0.0836167
0.0716579
0.0570926
0.0404666
0.022303
0.00309606
-0.0166781
-0.0365395
-0.0559756
-0.0744128
-0.0911961
-0.105585
-0.116777
-0.123965
-0.126439
-0.123724
-0.115727
-0.102865
-0.0861066
-0.0668938
-0.0469269
-0.0278845
-0.011185
0.00211375
0.0112566
0.0156272
0.0145663
0.00725445
0.00869415
0.0247711
0.0401125
0.0559481
0.0722494
0.0880474
0.102008
0.112802
0.119405
0.121284
0.118396
0.111057
0.0997979
0.085255
0.0680819
0.0488924
0.0282304
0.00656576
-0.0156877
-0.0381389
-0.0603775
-0.0819282
-0.102207
-0.12049
-0.135901
-0.147447
-0.154092
-0.154916
-0.149315
-0.137232
-0.119348
-0.0971241
-0.0726362
-0.0482099
-0.0259889
-0.00764237
0.00567165
0.013129
0.0139923
0.0074381
0.0145138
0.0364873
0.0553348
0.0741106
0.0930959
0.111019
0.126216
0.137212
0.143043
0.14336
0.138341
0.128519
0.114633
0.0974943
0.0778827
0.0564742
0.033814
0.0103212
-0.0136819
-0.0379275
-0.0621512
-0.086036
-0.109153
-0.1309
-0.15046
-0.166772
-0.178572
-0.184505
-0.18334
-0.174287
-0.157349
-0.133596
-0.1052
-0.075107
-0.0464164
-0.0217551
-0.00297698
0.00872188
0.0124658
0.00740021
0.0215244
0.0500645
0.0724536
0.0940031
0.115355
0.134926
0.150768
0.161342
0.165802
0.164019
0.156425
0.143819
0.127187
0.107533
0.0857497
0.0625472
0.0384429
0.0137832
-0.0112145
-0.0364123
-0.0617005
-0.0869421
-0.11191
-0.136214
-0.159223
-0.17999
-0.197211
-0.209257
-0.214328
-0.210775
-0.197565
-0.174831
-0.144261
-0.109065
-0.073347
-0.0410867
-0.0153116
0.00206943
0.00987652
0.00714777
0.0294871
0.0650956
0.0909669
0.115022
0.138319
0.15898
0.174832
0.184335
0.186818
0.182417
0.171872
0.156298
0.136946
0.114992
0.0913955
0.0668577
0.0418331
0.0165793
-0.00878748
-0.0342407
-0.0597982
-0.0854785
-0.11125
-0.136964
-0.162263
-0.186473
-0.208484
-0.226674
-0.238932
-0.242868
-0.236284
-0.21789
-0.188127
-0.149692
-0.107304
-0.0665116
-0.0321314
-0.00736895
0.00595011
0.00660944
0.0380665
0.0810787
0.110307
0.136527
0.161279
0.182434
0.197657
0.205473
0.205441
0.198019
0.184316
0.165787
0.143924
0.120016
0.0950292
0.0695993
0.044087
0.0186535
-0.00667224
-0.0319421
-0.0572544
-0.0827273
-0.10847
-0.134539
-0.160858
-0.187108
-0.212557
-0.23589
-0.255067
-0.267339
-0.269544
-0.258817
-0.233692
-0.195303
-0.148008
-0.0986204
-0.0542642
-0.0202745
0.000277145
0.00564862
0.0468585
0.0974538
0.129881
0.157883
0.183574
0.20464
0.21865
0.224261
0.221323
0.210678
0.193835
0.172574
0.148568
0.123142
0.0971984
0.0712616
0.0455772
0.0202105
-0.00487752
-0.0297838
-0.0546393
-0.0796006
-0.104844
-0.130551
-0.156863
-0.183791
-0.211053
-0.237844
-0.262566
-0.282609
-0.294365
-0.293685
-0.276976
-0.242892
-0.194029
-0.13737
-0.0823511
-0.0373548
-0.00762591
0.00408925
0.0554253
0.113639
0.149107
0.178505
0.204635
0.22509
0.237416
0.240464
0.234432
0.220588
0.200839
0.177234
0.151545
0.125057
0.0985478
0.0724035
0.0467478
0.0215599
-0.00324844
-0.0277925
-0.0522015
-0.0766234
-0.101238
-0.126267
-0.151966
-0.178582
-0.206228
-0.234662
-0.262951
-0.289073
-0.309603
-0.319762
-0.314185
-0.28867
-0.242741
-0.181788
-0.116603
-0.0592096
-0.0182503
0.00173853
0.0633326
0.129064
0.167442
0.197886
0.224013
0.24344
0.253764
0.254083
0.244985
0.228171
0.205905
0.180429
0.153531
0.126387
0.0996242
0.0734774
0.0479577
0.0229738
-0.00159435
-0.0258642
-0.0499455
-0.0739531
-0.0980301
-0.122375
-0.147265
-0.173056
-0.200126
-0.228712
-0.258588
-0.288575
-0.315972
-0.336149
-0.342742
-0.329026
-0.290756
-0.229878
-0.156575
-0.0861888
-0.0320322
-0.00159746
0.0701846
0.143197
0.184404
0.215609
0.241382
0.259498
0.267674
0.265293
0.253344
0.233935
0.20962
0.182751
0.155063
0.127587
0.100786
0.0747569
0.0494158
0.0246195
0.00022911
-0.0238672
-0.047756
-0.071514
-0.0952338
-0.119058
-0.143218
-0.168074
-0.194119
-0.221905
-0.251798
-0.283514
-0.315395
-0.343621
-0.361765
-0.361424
-0.334721
-0.278886
-0.201048
-0.118259
-0.0492883
-0.00609976
0.0756523
0.155566
0.199581
0.231355
0.256533
0.273198
0.279246
0.274361
0.259915
0.238365
0.212478
0.184643
0.156496
0.128913
0.102203
0.0763475
0.0511916
0.0265566
0.00229406
-0.0217008
-0.0454959
-0.0691373
-0.0926723
-0.11618
-0.139819
-0.163881
-0.188849
-0.215411
-0.244332
-0.276094
-0.310166
-0.343972
-0.371849
-0.384792
-0.372085
-0.325881
-0.248124
-0.154908
-0.0701525
-0.011919
0.0794944
0.16577
0.212633
0.244891
0.269353
0.284562
0.288647
0.281583
0.265075
0.241859
0.214838
0.186383
0.158013
0.13046
0.103904
0.0782388
0.05326
0.0287681
0.00461041
-0.0193131
-0.0430594
-0.0666568
-0.0901211
-0.113481
-0.136817
-0.160324
-0.184397
-0.209708
-0.23721
-0.267927
-0.302344
-0.339295
-0.374489
-0.399348
-0.401462
-0.368374
-0.295556
-0.195152
-0.0945288
-0.019156
0.0815694
0.173493
0.223286
0.256058
0.279798
0.293662
0.296059
0.287222
0.269126
0.244701
0.216922
0.18811
0.159673
0.132221
0.105838
0.0803599
0.0555499
0.0311979
0.00714952
-0.0166941
-0.0403874
-0.0639525
-0.0873905
-0.110697
-0.133892
-0.157075
-0.180516
-0.204776
-0.230816
-0.259949
-0.293443
-0.331488
-0.371491
-0.406141
-0.422556
-0.404685
-0.34118
-0.23765
-0.122081
-0.0278449
0.0818387
0.178506
0.231327
0.264749
0.287867
0.300589
0.301646
0.291486
0.272275
0.247062
0.218838
0.189864
0.161455
0.134133
0.107922
0.0826213
0.057979
0.0337795
0.00986679
-0.0138603
-0.03746
-0.060958
-0.0843539
-0.107629
-0.130765
-0.153783
-0.176832
-0.200319
-0.225086
-0.252518
-0.284375
-0.321993
-0.364552
-0.406584
-0.43585
-0.433986
-0.383256
-0.280933
-0.15227
-0.0379452
0.0803636
0.180671
0.236598
0.270893
0.293579
0.305426
0.30553
0.294511
0.274641
0.249018
0.22061
0.19162
0.163298
0.136116
0.110068
0.0849394
0.0604732
0.036452
0.0127167
-0.0108392
-0.0342825
-0.0576483
-0.0809441
-0.104151
-0.127232
-0.150158
-0.172978
-0.195943
-0.219714
-0.245583
-0.275532
-0.311742
-0.355037
-0.402102
-0.442248
-0.456135
-0.420596
-0.323626
-0.184432
-0.0493461
0.077295
0.179944
0.238989
0.274446
0.296961
0.308236
0.307785
0.296357
0.276257
0.250564
0.2222
0.193315
0.165126
0.138089
0.1122
0.0872452
0.0629734
0.039166
0.0156598
-0.00766027
-0.0308719
-0.0540234
-0.0771349
-0.100196
-0.123168
-0.145994
-0.168654
-0.191267
-0.214302
-0.238859
-0.266924
-0.301201
-0.343901
-0.393925
-0.442791
-0.471438
-0.45254
-0.364615
-0.21789
-0.0618842
0.0728588
0.176381
0.238438
0.275376
0.298034
0.309057
0.308434
0.297018
0.277084
0.251635
0.223525
0.19486
0.166852
0.139976
0.114251
0.0894843
0.065434
0.0418835
0.0186638
-0.00435022
-0.0272489
-0.0500949
-0.072923
-0.0957364
-0.118502
-0.141158
-0.163641
-0.185976
-0.208457
-0.231961
-0.258324
-0.290488
-0.331713
-0.382994
-0.438461
-0.480429
-0.478832
-0.403101
-0.252051
-0.0753722
0.0673371
0.170138
0.23494
0.27366
0.296806
0.307898
0.307453
0.296429
0.27702
0.25211
0.224459
0.196141
0.168382
0.141702
0.116164
0.091611
0.0678185
0.0445736
0.0217018
-0.000932559
-0.0234333
-0.0458772
-0.068314
-0.0907614
-0.113199
-0.135568
-0.157788
-0.179825
-0.201841
-0.224492
-0.249388
-0.279476
-0.318721
-0.369951
-0.430082
-0.483703
-0.499467
-0.438575
-0.286497
-0.0896367
0.0610462
0.161479
0.228556
0.269294
0.293277
0.304743
0.304782
0.294476
0.275912
0.251818
0.22484
0.197017
0.169604
0.143182
0.117878
0.0935806
0.0700924
0.0472083
0.02475
0.00257182
-0.0194426
-0.0413834
-0.0633141
-0.0852664
-0.107234
-0.129169
-0.150991
-0.172636
-0.194175
-0.216088
-0.239729
-0.267897
-0.304938
-0.355171
-0.418275
-0.481802
-0.514562
-0.470746
-0.32102
-0.104566
0.0543143
0.15077
0.219428
0.262296
0.287438
0.299558
0.300331
0.291007
0.273562
0.250543
0.224463
0.197312
0.170378
0.144312
0.119316
0.095339
0.0722161
0.0497571
0.0277838
0.00614322
-0.0152918
-0.0366229
-0.0579256
-0.0792442
-0.100586
-0.121918
-0.143169
-0.164269
-0.185241
-0.206434
-0.228971
-0.255414
-0.290223
-0.338818
-0.403464
-0.475152
-0.524236
-0.499432
-0.355633
-0.120174
0.0474595
0.138481
0.207801
0.25273
0.27928
0.292292
0.293993
0.285844
0.269739
0.24803
0.223075
0.196803
0.170521
0.144952
0.120377
0.0968117
0.0741358
0.0521807
0.0307745
0.00976102
-0.010994
-0.0316011
-0.0521452
-0.0726812
-0.0932293
-0.113771
-0.134253
-0.154614
-0.174863
-0.195271
-0.216778
-0.241678
-0.274341
-0.320905
-0.385897
-0.464032
-0.528518
-0.52445
-0.390521
-0.136691
0.0407716
0.125165
0.194043
0.240727
0.268812
0.282893
0.285648
0.278798
0.264188
0.243988
0.220385
0.195219
0.169802
0.144914
0.120915
0.097891
0.0757732
0.0544233
0.0336833
0.0134001
-0.00656265
-0.0263206
-0.0459648
-0.0655582
-0.085132
-0.104683
-0.124178
-0.143577
-0.162902
-0.182394
-0.202867
-0.226364
-0.257028
-0.301348
-0.365693
-0.448576
-0.52728
-0.545471
-0.425944
-0.154688
0.034502
0.111439
0.178655
0.226519
0.25608
0.271309
0.275176
0.269672
0.256647
0.238108
0.216064
0.192245
0.167936
0.143957
0.120735
0.0984261
0.0770157
0.0564038
0.0364543
0.0170253
-0.00201598
-0.0207848
-0.0393747
-0.0578536
-0.0762614
-0.0946094
-0.112887
-0.131086
-0.149258
-0.167655
-0.187026
-0.209207
-0.238038
-0.28003
-0.342893
-0.428796
-0.520185
-0.561875
-0.462065
-0.175229
0.0288629
0.0979521
0.162273
0.210461
0.241191
0.257507
0.262458
0.258278
0.246858
0.230078
0.20977
0.187532
0.164595
0.141789
0.119591
0.0982169
0.0777078
0.0580064
0.0390058
0.0205826
0.00261508
-0.0150061
-0.0323722
-0.0495523
-0.066593
-0.0835194
-0.100346
-0.1171
-0.133881
-0.150981
-0.169138
-0.190038
-0.21719
-0.256859
-0.31753
-0.40464
-0.506683
-0.572593
-0.498669
-0.200014
0.0240419
0.085362
0.145656
0.193055
0.224344
0.241485
0.247386
0.244435
0.23458
0.219603
0.201167
0.180726
0.159428
0.138083
0.117193
0.0970177
0.0776502
0.0590757
0.0412218
0.0239899
0.007276
-0.0090173
-0.0249738
-0.0406606
-0.0561281
-0.0714151
-0.0865616
-0.101638
-0.116802
-0.132407
-0.149218
-0.168828
-0.194424
-0.231821
-0.289699
-0.3761
-0.486076
-0.575985
-0.534788
-0.231418
0.0202384
0.0743213
0.129644
0.174936
0.20584
0.223291
0.229866
0.227978
0.219598
0.206421
0.189955
0.171499
0.152096
0.132506
0.113229
0.0945529
0.0766075
0.0594185
0.0429486
0.0271285
0.0118768
-0.00288686
-0.0172348
-0.0312288
-0.044922
-0.0583668
-0.0716316
-0.084833
-0.0981921
-0.112136
-0.127476
-0.145752
-0.169862
-0.205048
-0.259634
-0.343339
-0.457687
-0.569818
-0.568239
-0.27225
0.0177412
0.0655009
0.1151
0.15682
0.18607
0.20303
0.209835
0.208763
0.201729
0.190321
0.175891
0.15958
0.142306
0.124757
0.107406
0.0905457
0.0743299
0.0588161
0.0439995
0.0298402
0.0162818
0.00326333
-0.00927408
-0.0213862
-0.0331293
-0.0445708
-0.0558089
-0.0670065
-0.0784462
-0.0906228
-0.104395
-0.121267
-0.143878
-0.176858
-0.227744
-0.306826
-0.421145
-0.551453
-0.595172
-0.325044
0.0170782
0.059652
0.102826
0.139385
0.16545
0.180849
0.187262
0.186679
0.180836
0.171155
0.158813
0.144783
0.12985
0.114608
0.0994838
0.0847547
0.0705831
0.0570468
0.0441666
0.0319278
0.0202964
0.0092293
-0.00132111
-0.0114068
-0.0210892
-0.030452
-0.0396202
-0.0487963
-0.0583081
-0.0686975
-0.0808427
-0.0962001
-0.117167
-0.147794
-0.194584
-0.267355
-0.376699
-0.518288
-0.609733
-0.390749
0.019284
0.0576965
0.0934503
0.123098
0.14428
0.156884
0.162158
0.161674
0.156847
0.14885
0.138646
0.127025
0.114623
0.101931
0.0893099
0.0770068
0.0651756
0.0539005
0.0432166
0.0331254
0.0236086
0.0146343
0.00616221
-0.00185913
-0.00949592
-0.0168444
-0.024045
-0.0313217
-0.039015
-0.0476773
-0.0581511
-0.0718154
-0.0907955
-0.11864
-0.160751
-0.225844
-0.325333
-0.468424
-0.603931
-0.46684
0.0263236
0.060783
0.0872696
0.107972
0.122549
0.131133
0.134529
0.133761
0.129794
0.123459
0.115455
0.106363
0.0966595
0.0867191
0.0768236
0.067172
0.0578949
0.0490689
0.0407309
0.0328893
0.0255344
0.0186413
0.012176
0.00608898
0.000317535
-0.00523686
-0.0107059
-0.016312
-0.0223597
-0.0293758
-0.0380837
-0.0497582
-0.0661442
-0.0904007
-0.126734
-0.18287
-0.268314
-0.401312
-0.567686
-0.544889
0.0415847
0.0701173
0.0841242
0.0935139
0.0998896
0.10345
0.104391
0.103048
0.0998223
0.0951229
0.089338
0.0828176
0.0758641
0.0687269
0.0616009
0.0546296
0.047912
0.0415098
0.0354573
0.0297658
0.024434
0.0194443
0.0147754
0.0103839
0.00622607
0.00220959
-0.00175721
-0.00588462
-0.0103792
-0.0157384
-0.0224394
-0.0316846
-0.0445841
-0.0641125
-0.0928225
-0.138241
-0.205989
-0.318057
-0.489129
-0.60686
0.0694325
0.0851781
0.0823448
0.078234
0.0753564
0.0733108
0.0714018
0.0691737
0.0664233
0.0631184
0.0593259
0.0551611
0.050755
0.0462335
0.041706
0.0372599
0.0329608
0.0288527
0.0249646
0.0213077
0.0178886
0.0146949
0.0117216
0.00892968
0.00630733
0.00376333
0.00127756
-0.00136427
-0.00419625
-0.0077333
-0.0120266
-0.0183383
-0.02671
-0.0403191
-0.0590478
-0.0913416
-0.136712
-0.221095
-0.356606
-0.616337
0.105673
0.0875903
0.0647429
0.0505707
0.0421302
0.0369752
0.0335997
0.0311156
0.02902
0.027047
0.0250744
0.0230624
0.0210167
0.0189637
0.0169367
0.0149666
0.0130802
0.0112946
0.00962402
0.00807061
0.00664047
0.00532087
0.00411766
0.00299605
0.00197239
0.000964328
2.04084e-05
-0.00105778
-0.0021338
-0.00369791
-0.00537097
-0.00839384
-0.0116968
-0.0185405
-0.0258171
-0.0428971
-0.0604722
-0.112983
-0.171162
-0.490477
0
0
0
0
0
0
0
0
0
0
0
0
0
0
0
0
0
0
0
0
0
0
0
0
0
0
0
0
0
0
0
0
0
0
0
0
0
0
0
0
