# vtk DataFile Version 2.0
pressure
ASCII
DATASET RECTILINEAR_GRID
DIMENSIONS 41 41 1
X_COORDINATES 41 double
0 0.0325168 0.0644289 0.0957562 0.126518 0.156734 0.186424 0.215604 0.244295 0.272513 0.300276 0.327602 0.354507 0.38101 0.407125 0.43287 0.45826 0.483312 0.50804 0.532462 0.556591 0.580442 0.604032 0.627374 0.650483 0.673374 0.696061 0.718557 0.740878 0.763037 0.785048 0.806924 0.82868 0.850328 0.871883 0.893358 0.914766 0.936121 0.957436 0.978725 1 
Y_COORDINATES 41 double
0 0.025 0.05 0.075 0.1 0.125 0.15 0.175 0.2 0.225 0.25 0.275 0.3 0.325 0.35 0.375 0.4 0.425 0.45 0.475 0.5 0.525 0.55 0.575 0.6 0.625 0.65 0.675 0.7 0.725 0.75 0.775 0.8 0.825 0.85 0.875 0.9 0.925 0.95 0.975 1 
Z_COORDINATES 1 double
0.0

CELL_DATA 1600
SCALARS pressure double 1
LOOKUP_TABLE default
0
-0.000165317
-0.000439656
-0.000756653
-0.00106606
-0.00134266
-0.00157501
-0.00175733
-0.0018851
-0.00195336
-0.0019568
-0.00189064
-0.00175176
-0.00153988
-0.00125837
-0.000914868
-0.000521353
-9.39133e-05
0.00034797
0.00078249
0.00118687
0.00153893
0.00181864
0.00200964
0.00210045
0.00208536
0.00196481
0.00174536
0.00143919
0.00106322
0.000637997
0.000186442
-0.000267349
-0.000699269
-0.00108623
-0.00140723
-0.00164479
-0.00178747
-0.00183488
-0.00181167
7.95002e-05
-7.54827e-05
-0.000310894
-0.000581251
-0.000847913
-0.00109023
-0.0012978
-0.00146463
-0.00158586
-0.00165649
-0.00167135
-0.00162586
-0.00151694
-0.00134399
-0.00110963
-0.000820246
-0.000486129
-0.000121298
0.000257087
0.000629663
0.00097608
0.00127642
0.00151266
0.00167008
0.00173842
0.00171267
0.0015935
0.00138715
0.00110496
0.000762492
0.000378452
-2.65547e-05
-0.000431207
-0.000814578
-0.0011571
-0.00144143
-0.00165335
-0.00178293
-0.00182574
-0.00179795
0.000244025
6.71163e-05
-0.000157592
-0.0003993
-0.000634056
-0.000848853
-0.00103676
-0.00119311
-0.0013134
-0.00139259
-0.00142529
-0.00140647
-0.00133235
-0.00120127
-0.0010145
-0.000776738
-0.000496426
-0.000185627
0.000140405
0.000464051
0.000766461
0.00102891
0.00123428
0.0013684
0.00142131
0.00138808
0.00126922
0.00107066
0.000803183
0.000481581
0.000123461
-0.000252008
-0.000625355
-0.000977906
-0.00129266
-0.00155493
-0.00175263
-0.00187637
-0.00191881
-0.00189161
0.000468197
0.000245622
6.54979e-06
-0.000226268
-0.000443819
-0.000642342
-0.00082002
-0.000974702
-0.0011028
-0.00119922
-0.00125792
-0.00127275
-0.00123845
-0.00115158
-0.00101145
-0.000820714
-0.000585869
-0.000317264
-2.87865e-05
0.000262873
0.00053933
0.000781891
0.000973079
0.00109815
0.00114641
0.0011122
0.00099539
0.00080138
0.000540587
0.00022748
-0.000120675
-0.000485214
-0.000847431
-0.00118973
-0.00149647
-0.00175439
-0.00195261
-0.00208215
-0.0021349
-0.00212077
0.000712931
0.000430976
0.00016197
-7.62247e-05
-0.000289247
-0.000482957
-0.000661299
-0.000825058
-0.000971726
-0.00109601
-0.00119079
-0.0012482
-0.00126084
-0.00122286
-0.00113105
-0.000985708
-0.000791227
-0.000556341
-0.00029391
-2.0243e-05
0.000246002
0.000485276
0.00067879
0.000810202
0.000867128
0.00084231
0.000734291
0.000547511
0.000291823
-1.85091e-05
-0.000366179
-0.000732387
-0.00109835
-0.00144659
-0.00176181
-0.00203124
-0.00224458
-0.00239326
-0.00246958
-0.0024821
0.000940777
0.000592778
0.000284982
3.13056e-05
-0.000188091
-0.000388587
-0.000579772
-0.000765329
-0.000943625
-0.00110887
-0.00125239
-0.00136409
-0.00143378
-0.00145261
-0.00141435
-0.00131647
-0.00116101
-0.000954986
-0.000710286
-0.000443103
-0.000172813
7.95421e-05
0.000293055
0.000448839
0.000531796
0.000532039
0.000445821
0.000275822
3.07739e-05
-0.000275527
-0.000625673
-0.00100036
-0.00138008
-0.00174661
-0.00208405
-0.00237922
-0.00262161
-0.0028027
-0.00291513
-0.00296551
0.00111587
0.000699917
0.000348912
7.25782e-05
-0.000162921
-0.000381998
-0.000599513
-0.000821583
-0.00104709
-0.00126929
-0.00147749
-0.00165877
-0.0017996
-0.00188748
-0.00191256
-0.00186894
-0.0017558
-0.00157804
-0.00134633
-0.00107665
-0.000789253
-0.000507065
-0.00025379
-5.1795e-05
7.99413e-05
0.000127607
8.38298e-05
-5.17063e-05
-0.000272404
-0.000565623
-0.00091415
-0.00129805
-0.0016966
-0.00209003
-0.00246083
-0.00279433
-0.00307881
-0.0033049
-0.00346482
-0.00356237
0.00120355
0.000720949
0.000325188
2.07462e-05
-0.000239952
-0.000489915
-0.000748592
-0.00102404
-0.00131508
-0.00161356
-0.00190626
-0.00217688
-0.00240792
-0.00258259
-0.00268665
-0.00271009
-0.00264843
-0.00250371
-0.00228473
-0.0020068
-0.00169082
-0.00136174
-0.00104656
-0.000772057
-0.000562413
-0.000436984
-0.000408549
-0.000482206
-0.000655085
-0.00091693
-0.00125146
-0.00163831
-0.00205519
-0.00248001
-0.00289248
-0.00327518
-0.00361383
-0.00389693
-0.00411508
-0.00426831
0.00117037
0.000624699
0.00018432
-0.000152778
-0.000447793
-0.000741676
-0.00105791
-0.00140581
-0.00178372
-0.00218152
-0.00258302
-0.00296799
-0.00331433
-0.00360017
-0.00380603
-0.00391672
-0.00392305
-0.00382303
-0.00362249
-0.00333517
-0.00298193
-0.00258951
-0.00218847
-0.00181084
-0.00148739
-0.00124495
-0.00110399
-0.00107682
-0.0011666
-0.00136743
-0.00166534
-0.00204016
-0.00246795
-0.00292351
-0.00338254
-0.00382326
-0.00422714
-0.00457892
-0.00486614
-0.00508382
0.000984477
0.000381005
-0.000102836
-0.000476991
-0.000815819
-0.00116772
-0.00155952
-0.00200134
-0.00249052
-0.00301468
-0.00355416
-0.00408432
-0.00457779
-0.00500681
-0.00534556
-0.00557247
-0.00567216
-0.00563708
-0.00546856
-0.00517727
-0.00478293
-0.00431328
-0.00380231
-0.00328785
-0.00280858
-0.0024009
-0.00209568
-0.00191555
-0.00187294
-0.00196918
-0.00219486
-0.00253141
-0.00295359
-0.00343246
-0.00393834
-0.00444318
-0.00492212
-0.00535411
-0.0057218
-0.00601377
0.000616455
-3.81585e-05
-0.000563843
-0.000979619
-0.00137251
-0.00179763
-0.00228468
-0.00284413
-0.00347208
-0.00415354
-0.00486511
-0.00557726
-0.00625672
-0.00686892
-0.00738059
-0.00776228
-0.00799073
-0.00805095
-0.00793777
-0.00765688
-0.00722509
-0.00666979
-0.00602765
-0.00534228
-0.00466126
-0.0040325
-0.00350022
-0.0031011
-0.00286095
-0.00279241
-0.00289415
-0.00315167
-0.00353958
-0.00402505
-0.00457162
-0.0051428
-0.00570482
-0.00622828
-0.00668879
-0.00706652
4.04849e-05
-0.000657502
-0.00122311
-0.00168553
-0.00214344
-0.00265806
-0.00326144
-0.0039642
-0.00476099
-0.00563414
-0.00655627
-0.00749262
-0.00840339
-0.00924634
-0.00997948
-0.010564
-0.0109669
-0.0111636
-0.0111402
-0.0108952
-0.01044
-0.00979969
-0.00901208
-0.00812575
-0.00719732
-0.0062876
-0.00545689
-0.0047599
-0.00424074
-0.00392873
-0.00383569
-0.00395526
-0.00426444
-0.00472718
-0.00529922
-0.00593325
-0.00658352
-0.0072091
-0.00777575
-0.00825258
-0.000764402
-0.00149698
-0.00210046
-0.00261485
-0.00314933
-0.00377038
-0.00451207
-0.005385
-0.00638242
-0.00748394
-0.00865816
-0.00986478
-0.011057
-0.012184
-0.013194
-0.0140373
-0.0146693
-0.015054
-0.0151662
-0.0149946
-0.0145428
-0.0138309
-0.0128953
-0.0117877
-0.0105728
-0.00932439
-0.00812076
-0.00703822
-0.00614442
-0.00549182
-0.00511219
-0.0050135
-0.00517972
-0.00557388
-0.00614373
-0.00682894
-0.00756818
-0.00830506
-0.00899189
-0.00958312
-0.00181298
-0.00257055
-0.00320957
-0.00378138
-0.00440401
-0.00514844
-0.00605034
-0.00712033
-0.00835032
-0.00971737
-0.011186
-0.0127104
-0.014236
-0.015703
-0.0170487
-0.0182112
-0.019133
-0.0197645
-0.0200676
-0.0200185
-0.0196105
-0.0188557
-0.017786
-0.016453
-0.0149268
-0.013293
-0.0116477
-0.010091
-0.0087189
-0.0076137
-0.00683554
-0.0064153
-0.00635127
-0.00661037
-0.00713402
-0.00784732
-0.00866964
-0.00952425
-0.0103455
-0.0110681
-0.0031127
-0.00388486
-0.00455671
-0.00519093
-0.00591267
-0.00679636
-0.00787906
-0.00917131
-0.0106639
-0.0123316
-0.0141349
-0.016022
-0.0179309
-0.0197918
-0.0215305
-0.0230721
-0.0243449
-0.0252849
-0.0258393
-0.0259704
-0.0256586
-0.0249052
-0.0237342
-0.0221933
-0.0203537
-0.0183089
-0.0161705
-0.0140621
-0.0121107
-0.0104344
-0.00913086
-0.00826446
-0.00785849
-0.00789221
-0.00830527
-0.00900851
-0.00989857
-0.0108729
-0.0118418
-0.0127142
-0.00466273
-0.0054385
-0.00613971
-0.0068403
-0.00767039
-0.00870696
-0.00998798
-0.011524
-0.0133049
-0.015303
-0.0174752
-0.0197637
-0.0220985
-0.0243997
-0.0265812
-0.0285546
-0.0302338
-0.0315399
-0.0324048
-0.0327763
-0.0326206
-0.0319261
-0.0307054
-0.0289981
-0.0268714
-0.0244206
-0.0217677
-0.0190558
-0.016442
-0.0140838
-0.0121238
-0.010672
-0.00979043
-0.00948346
-0.00969804
-0.0103343
-0.011264
-0.0123532
-0.0134811
-0.014522
-0.00645351
-0.00722138
-0.00794751
-0.00871649
-0.00966141
-0.0108606
-0.0123526
-0.0141479
-0.0162354
-0.0185855
-0.0211511
-0.0238686
-0.0266598
-0.0294346
-0.0320948
-0.0345389
-0.0366667
-0.0383847
-0.0396106
-0.0402777
-0.0403382
-0.0397665
-0.0385622
-0.0367525
-0.034395
-0.0315801
-0.0284314
-0.0251044
-0.0217804
-0.0186549
-0.0159201
-0.0137421
-0.0122371
-0.0114519
-0.0113556
-0.0118459
-0.0127715
-0.0139613
-0.0152555
-0.0164833
-0.00846676
-0.00921496
-0.00996007
-0.0107968
-0.0118589
-0.013225
-0.0149338
-0.0169956
-0.0193983
-0.0221103
-0.0250807
-0.0282397
-0.0315012
-0.0347648
-0.0379208
-0.0408549
-0.0434539
-0.0456113
-0.0472321
-0.048237
-0.0485655
-0.0481789
-0.0470629
-0.0452302
-0.0427243
-0.0396229
-0.0360422
-0.0321386
-0.0281073
-0.0241742
-0.0205793
-0.0175513
-0.0152752
-0.0138603
-0.0133184
-0.0135611
-0.0144197
-0.0156838
-0.0171459
-0.0185772
-0.010676
-0.0113927
-0.0121492
-0.0130495
-0.0142258
-0.0157563
-0.0176791
-0.0200041
-0.0227185
-0.0257883
-0.0291588
-0.0327544
-0.0364806
-0.0402273
-0.0438738
-0.0472942
-0.0503638
-0.0529651
-0.054993
-0.0563581
-0.0569901
-0.0568396
-0.0558795
-0.0541079
-0.0515512
-0.048269
-0.0443605
-0.0399707
-0.0352941
-0.0305732
-0.0260865
-0.0221237
-0.0189484
-0.0167525
-0.0156163
-0.0154881
-0.0161967
-0.0174941
-0.0191179
-0.0207659
-0.0130479
-0.0137215
-0.0144799
-0.0154351
-0.0167164
-0.0184002
-0.020524
-0.0230973
-0.0261061
-0.0295144
-0.0332634
-0.0372715
-0.0414366
-0.0456393
-0.0497484
-0.053628
-0.0571437
-0.0601695
-0.0625927
-0.0643176
-0.0652672
-0.0653848
-0.0646338
-0.0629994
-0.0604907
-0.0571464
-0.0530416
-0.0482985
-0.0430951
-0.0376722
-0.0323291
-0.0274061
-0.0232454
-0.0201367
-0.0182555
-0.0176181
-0.0180741
-0.0193478
-0.021117
-0.0229905
-0.0155436
-0.0161633
-0.0169121
-0.0179089
-0.0192783
-0.0210951
-0.0233959
-0.0261897
-0.0294616
-0.0331733
-0.0372622
-0.0416412
-0.0462006
-0.0508123
-0.0553361
-0.0596273
-0.0635437
-0.0669532
-0.0697383
-0.0718
-0.0730586
-0.0734538
-0.0729434
-0.0715033
-0.0691281
-0.0658355
-0.0616737
-0.0567338
-0.0511636
-0.0451824
-0.0390881
-0.0332503
-0.0280792
-0.0239663
-0.0212055
-0.0199153
-0.0200001
-0.0211764
-0.0230634
-0.0251649
-0.0181213
-0.0186775
-0.0194033
-0.0204229
-0.0218558
-0.0237751
-0.0262172
-0.0291909
-0.0326806
-0.0366463
-0.0410217
-0.0457145
-0.0506081
-0.0555666
-0.060442
-0.0650821
-0.0693387
-0.0730754
-0.0761725
-0.0785303
-0.0800693
-0.0807295
-0.0804671
-0.079253
-0.0770718
-0.0739235
-0.0698305
-0.0648496
-0.0590895
-0.0527311
-0.0460475
-0.0394105
-0.0332746
-0.0281242
-0.0243831
-0.0223053
-0.0218914
-0.0228814
-0.0248464
-0.0271713
-0.0207383
-0.0212231
-0.021911
-0.0229291
-0.0243924
-0.0263731
-0.028909
-0.0320097
-0.0356598
-0.0398178
-0.0444145
-0.0493528
-0.0545101
-0.0597437
-0.0648987
-0.0698166
-0.0743449
-0.0783442
-0.0816943
-0.0842964
-0.0860736
-0.0869684
-0.0869393
-0.0859565
-0.0839991
-0.0810551
-0.0771257
-0.0722355
-0.0664509
-0.0599047
-0.0528247
-0.045557
-0.038569
-0.0324136
-0.027641
-0.0246641
-0.0236238
-0.0243268
-0.0263178
-0.0288533
-0.0233537
-0.0237619
-0.0243954
-0.0253825
-0.0268341
-0.0288247
-0.0313956
-0.0345594
-0.038302
-0.0425815
-0.0473264
-0.0524357
-0.0577813
-0.0632147
-0.0685751
-0.0736989
-0.0784298
-0.0826266
-0.0861689
-0.0889601
-0.0909265
-0.0920149
-0.092188
-0.0914184
-0.0896848
-0.0869687
-0.0832564
-0.0785466
-0.0728667
-0.0662987
-0.0590135
-0.0513074
-0.0436274
-0.0365601
-0.0307607
-0.0268089
-0.0250244
-0.0253323
-0.0272856
-0.0300111
-0.025931
-0.0262605
-0.0268226
-0.027743
-0.0291319
-0.0310702
-0.0336067
-0.0367602
-0.0405199
-0.0448447
-0.0496615
-0.0548659
-0.0603253
-0.0658858
-0.0713815
-0.0766442
-0.0815145
-0.0858493
-0.0895285
-0.0924568
-0.0945639
-0.0958012
-0.0961359
-0.0955453
-0.0940104
-0.0915114
-0.0880265
-0.0835364
-0.0780374
-0.0715649
-0.0642304
-0.0562664
-0.0480706
-0.0402249
-0.033454
-0.028492
-0.0258636
-0.0256656
-0.0275077
-0.030394
-0.0284406
-0.0286933
-0.029166
-0.0299782
-0.0312439
-0.033057
-0.0354802
-0.0385426
-0.0422395
-0.0465317
-0.0513453
-0.0565728
-0.0620773
-0.0677
-0.0732698
-0.0786147
-0.0835715
-0.0879954
-0.0917655
-0.0947872
-0.0969926
-0.0983362
-0.0987895
-0.0983345
-0.096956
-0.0946361
-0.0913502
-0.0870689
-0.0817668
-0.0754428
-0.068154
-0.0600659
-0.0515093
-0.0430273
-0.0353716
-0.0294005
-0.0258496
-0.0250359
-0.0266838
-0.0296942
-0.0308622
-0.0310447
-0.0314091
-0.0320645
-0.033136
-0.0347406
-0.0369631
-0.0398487
-0.0434015
-0.0475857
-0.0523266
-0.0575134
-0.0630045
-0.0686358
-0.0742315
-0.0796147
-0.0846187
-0.0890958
-0.0929233
-0.096006
-0.0982763
-0.0996902
-0.100222
-0.0998563
-0.098582
-0.0963839
-0.0932381
-0.089111
-0.0839645
-0.0777717
-0.0705474
-0.062396
-0.0535766
-0.0445709
-0.036118
-0.0291584
-0.0246238
-0.0230854
-0.0244471
-0.0275372
-0.0331876
-0.0333114
-0.0335466
-0.0339874
-0.034782
-0.0360839
-0.0380114
-0.0406321
-0.0439621
-0.0479693
-0.0525777
-0.0576718
-0.0631045
-0.0687057
-0.0742936
-0.0796862
-0.0847125
-0.0892208
-0.0930853
-0.0962086
-0.098521
-0.0999779
-0.100553
-0.100233
-0.0990067
-0.0968619
-0.0937757
-0.0897134
-0.084631
-0.0784861
-0.0712638
-0.0630207
-0.0539509
-0.0444669
-0.0352676
-0.0273322
-0.0217563
-0.0193806
-0.0203521
-0.0234686
-0.0354236
-0.0355055
-0.0355859
-0.0357415
-0.036162
-0.0370565
-0.0385895
-0.0408584
-0.0438933
-0.0476652
-0.0520944
-0.0570591
-0.0624043
-0.0679523
-0.0735144
-0.0789027
-0.0839405
-0.0884715
-0.0923651
-0.0955198
-0.0978619
-0.099343
-0.0999339
-0.0996183
-0.0983845
-0.0962185
-0.0930973
-0.0889853
-0.0838353
-0.0775968
-0.0702367
-0.0617788
-0.0523667
-0.0423506
-0.032378
-0.0234344
-0.0167395
-0.0133983
-0.0138572
-0.0169351
-0.0375977
-0.0376579
-0.0375478
-0.0373287
-0.0372603
-0.0376318
-0.0386691
-0.0405047
-0.0431833
-0.0466761
-0.0508963
-0.055712
-0.0609576
-0.0664459
-0.0719796
-0.0773638
-0.0824154
-0.086972
-0.0908974
-0.0940837
-0.0964514
-0.0979453
-0.0985301
-0.0981831
-0.096887
-0.0946228
-0.0913632
-0.087069
-0.0816891
-0.0751673
-0.0674604
-0.0585723
-0.0486135
-0.0378882
-0.026999
-0.0169249
-0.00897715
-0.00450471
-0.00429722
-0.00725349
-0.0397678
-0.0398253
-0.0394681
-0.0387558
-0.0380618
-0.0377855
-0.0382279
-0.0395601
-0.0418374
-0.045026
-0.0490267
-0.0536926
-0.0588439
-0.0642815
-0.0697981
-0.0751904
-0.0802682
-0.0848623
-0.0888294
-0.0920542
-0.0944486
-0.0959486
-0.0965092
-0.0960975
-0.094686
-0.0922454
-0.0887387
-0.0841177
-0.0783229
-0.0712906
-0.0629693
-0.0533514
-0.0425284
-0.030778
-0.0186774
-0.00720912
0.00223367
0.00807759
0.00915982
0.00644016
-0.0420413
-0.0421009
-0.0413999
-0.0400325
-0.0385493
-0.0374938
-0.0372514
-0.0380277
-0.0398807
-0.0427626
-0.0465541
-0.0510878
-0.0561663
-0.0615757
-0.0670973
-0.0725186
-0.0776416
-0.0822897
-0.0863119
-0.089584
-0.092008
-0.0935085
-0.0940276
-0.0935186
-0.0919388
-0.089243
-0.0853778
-0.0802783
-0.0738691
-0.0660721
-0.0568231
-0.0461031
-0.0339923
-0.0207558
-0.00696716
0.0063596
0.0177235
0.0253192
0.0275843
0.0252771
-0.0446144
-0.044636
-0.0434193
-0.0411699
-0.0387031
-0.036736
-0.0357365
-0.0359302
-0.0373625
-0.0399596
-0.0435728
-0.0480088
-0.0530485
-0.0584614
-0.0640163
-0.0694911
-0.0746799
-0.0793984
-0.0834873
-0.086813
-0.0892665
-0.0907589
-0.091217
-0.0905766
-0.0887754
-0.0857461
-0.0814116
-0.0756814
-0.0684541
-0.0596253
-0.0491068
-0.0368592
-0.022946
-0.00762062
0.00853784
0.0244556
0.0384639
0.0484536
0.0524027
0.0508111
-0.0478502
-0.0476788
-0.0456369
-0.0421846
-0.0385056
-0.0355021
-0.0336998
-0.0333161
-0.0343609
-0.0367186
-0.0402021
-0.0445864
-0.0496283
-0.0550793
-0.0606958
-0.0662461
-0.0715166
-0.0763157
-0.0804761
-0.0838547
-0.0863305
-0.0878002
-0.0881735
-0.0873655
-0.0852902
-0.0818532
-0.076946
-0.0704435
-0.0622057
-0.0520871
-0.0399571
-0.025735
-0.00944558
0.00869174
0.0281146
0.0476955
0.0655353
0.0790561
0.0855934
0.0853077
-0.052437
-0.0516444
-0.0482194
-0.0431084
-0.0379526
-0.0338033
-0.0311865
-0.0302648
-0.0309823
-0.0331645
-0.0365772
-0.0409599
-0.0460439
-0.0515633
-0.0572624
-0.0629011
-0.0682591
-0.0731386
-0.0773649
-0.0807857
-0.0832681
-0.0846943
-0.0849554
-0.0839442
-0.081548
-0.0776409
-0.0720775
-0.0646894
-0.0552862
-0.0436642
-0.0296266
-0.0130182
0.00621838
0.0279537
0.051718
0.0764221
0.0999639
0.119077
0.129994
0.132289
-0.0597023
-0.0572211
-0.0514053
-0.0439866
-0.0370485
-0.0316657
-0.0282592
-0.0268706
-0.0273426
-0.0294242
-0.0328274
-0.0372547
-0.0424129
-0.0480203
-0.0538113
-0.0595391
-0.0649787
-0.0699272
-0.074204
-0.0776486
-0.0801171
-0.0814772
-0.0816017
-0.0803608
-0.0776139
-0.0732019
-0.066939
-0.0586086
-0.047961
-0.0347194
-0.0185948
0.000684226
0.0233226
0.0493797
0.0786289
0.110258
0.142256
0.170643
0.189715
0.197535
-0.0722472
-0.0654545
-0.055407
-0.0447538
-0.0356924
-0.0290313
-0.0249145
-0.0231732
-0.0235079
-0.0255765
-0.0290341
-0.0335484
-0.0388054
-0.0445115
-0.0503946
-0.0562045
-0.0617135
-0.0667158
-0.0710266
-0.0744787
-0.0769187
-0.0782014
-0.0781825
-0.0767111
-0.0736206
-0.06872
-0.0617851
-0.0525512
-0.0407075
-0.0258962
-0.00771751
0.0142567
0.0404557
0.0712633
0.10693
0.147346
0.191363
0.235149
0.270401
0.290791
-0.0952245
-0.0774057
-0.0597351
-0.044637
-0.0332374
-0.0254558
-0.0208771
-0.0190133
-0.0193911
-0.0215759
-0.0251746
-0.0298305
-0.0352182
-0.0410397
-0.0470218
-0.052915
-0.0584923
-0.0635475
-0.0678936
-0.0713589
-0.0737827
-0.0750093
-0.0748809
-0.0732292
-0.0698668
-0.0645771
-0.0571048
-0.0471452
-0.0343349
-0.0182417
0.00164603
0.0259308
0.055322
0.0906587
0.132941
0.183335
0.242871
0.310628
0.378143
0.428511
-0.138799
-0.0915457
-0.0606473
-0.040623
-0.0277186
-0.0197384
-0.0154141
-0.0139263
-0.014679
-0.0171975
-0.02108
-0.0259731
-0.0315585
-0.0375458
-0.0436692
-0.049685
-0.0553701
-0.0605209
-0.0649504
-0.0684849
-0.0709595
-0.0722121
-0.0720764
-0.0703737
-0.066904
-0.0614359
-0.053696
-0.0433566
-0.0300215
-0.0132085
0.0076769
0.0333819
0.0648765
0.103479
0.151089
0.210622
0.286721
0.386095
0.512376
0.638766
-0.239993
-0.103869
-0.0533716
-0.0310675
-0.0190261
-0.0122734
-0.00900422
-0.00834059
-0.00972512
-0.0127318
-0.0169991
-0.0222036
-0.0280491
-0.0342609
-0.0405847
-0.0467847
-0.0526437
-0.0579611
-0.0625517
-0.0662419
-0.0688659
-0.0702595
-0.070254
-0.068668
-0.0652985
-0.0599113
-0.0522295
-0.0419209
-0.0285818
-0.0117143
0.00930821
0.0353014
0.0673814
0.107185
0.157336
0.222489
0.311859
0.445749
0.668194
1.01499
