# vtk DataFile Version 2.0
u_velocity
ASCII
DATASET RECTILINEAR_GRID
DIMENSIONS 42 41 1
X_COORDINATES 42 double
0 0.0162584 0.0484728 0.0800925 0.111137 0.141626 0.171579 0.201014 0.229949 0.258404 0.286394 0.313939 0.341055 0.367758 0.394067 0.419997 0.445565 0.470786 0.495676 0.520251 0.544526 0.568516 0.592237 0.615703 0.638929 0.661929 0.684717 0.707309 0.729718 0.751958 0.774042 0.795986 0.817802 0.839504 0.861106 0.882621 0.904062 0.925444 0.946779 0.968081 0.989362 1 
Y_COORDINATES 41 double
0 0.025 0.05 0.075 0.1 0.125 0.15 0.175 0.2 0.225 0.25 0.275 0.3 0.325 0.35 0.375 0.4 0.425 0.45 0.475 0.5 0.525 0.55 0.575 0.6 0.625 0.65 0.675 0.7 0.725 0.75 0.775 0.8 0.825 0.85 0.875 0.9 0.925 0.95 0.975 1 
Z_COORDINATES 1 double
0.0

CELL_DATA 1640
SCALARS u_velocity double 1
LOOKUP_TABLE default
0
0.000184603
0.000179593
-0.000127703
-0.000696787
-0.00145641
-0.00234444
-0.00331519
-0.00433572
-0.00537976
-0.00642271
-0.00743852
-0.00839845
-0.00927137
-0.010025
-0.0106278
-0.0110511
-0.0112714
-0.0112721
-0.0110455
-0.0105939
-0.00992986
-0.00907623
-0.00806516
-0.00693655
-0.0057359
-0.00451175
-0.00331296
-0.00218602
-0.00117258
-0.00030731
0.000383631
0.000883748
0.00118695
0.00129816
0.00123423
0.00102562
0.00071935
0.000383377
0.000109444
0
0
8.54338e-05
-0.000355152
-0.00148507
-0.00322359
-0.00542492
-0.0079497
-0.0106843
-0.0135377
-0.0164318
-0.0192927
-0.0220447
-0.0246088
-0.0269034
-0.0288481
-0.0303678
-0.0313975
-0.0318871
-0.0318054
-0.0311428
-0.0299137
-0.0281558
-0.0259301
-0.0233173
-0.0204149
-0.0173316
-0.0141826
-0.0110831
-0.00814301
-0.0054614
-0.00312176
-0.00118822
0.000297459
0.00131804
0.00188261
0.00202822
0.00182193
0.00136332
0.000786868
0.000263015
0
0
-0.000229419
-0.00138124
-0.00351884
-0.00650249
-0.0101333
-0.0142202
-0.0186002
-0.023135
-0.0277011
-0.0321796
-0.0364508
-0.0403929
-0.0438845
-0.0468095
-0.0490632
-0.0505588
-0.0512328
-0.0510495
-0.0500046
-0.0481262
-0.0454743
-0.042139
-0.038237
-0.0339059
-0.0292985
-0.0245755
-0.0198984
-0.015422
-0.0112869
-0.00761349
-0.00449647
-0.00200008
-0.000154886
0.0010448
0.00164282
0.00172259
0.00140825
0.00086592
0.000306752
0
0
-0.000638014
-0.00265963
-0.00593913
-0.0102426
-0.0153156
-0.0209255
-0.0268719
-0.03298
-0.0390887
-0.0450416
-0.0506819
-0.0558534
-0.0604037
-0.064191
-0.0670908
-0.0690029
-0.0698571
-0.0696176
-0.0682856
-0.0659002
-0.0625374
-0.0583075
-0.0533509
-0.047833
-0.041937
-0.0358563
-0.029787
-0.0239185
-0.0184258
-0.0134617
-0.00914942
-0.00557701
-0.00279283
-0.000802205
0.000434646
0.00100372
0.00103772
0.000717013
0.000273136
0
0
-0.00108492
-0.00405927
-0.00856189
-0.0142357
-0.0207612
-0.0278668
-0.0353223
-0.0429246
-0.0504835
-0.0578129
-0.0647272
-0.0710434
-0.0765863
-0.0811955
-0.0847329
-0.0870892
-0.0881894
-0.0879963
-0.0865129
-0.0837828
-0.0798893
-0.0749531
-0.0691281
-0.0625968
-0.0555634
-0.0482467
-0.0408708
-0.0336567
-0.0268122
-0.0205227
-0.0149431
-0.0101898
-0.00633498
-0.00340263
-0.00136568
-0.00014503
0.000390666
0.000425149
0.000196165
0
0
-0.00154362
-0.00550406
-0.0112646
-0.0183272
-0.0262994
-0.0348708
-0.043786
-0.0528206
-0.0617632
-0.0704059
-0.0785419
-0.0859691
-0.092496
-0.0979491
-0.10218
-0.10507
-0.106539
-0.106544
-0.105081
-0.102191
-0.0979539
-0.0924904
-0.0859581
-0.0785476
-0.0704772
-0.0619857
-0.0533233
-0.0447424
-0.036486
-0.0287772
-0.0218083
-0.0157315
-0.010651
-0.00661762
-0.00362491
-0.00160832
-0.000445112
4.45036e-05
9.61908e-05
0
0
-0.00199913
-0.00694392
-0.0139577
-0.0223946
-0.0317852
-0.0417806
-0.0521045
-0.0625169
-0.0727922
-0.082708
-0.092044
-0.100585
-0.10813
-0.114494
-0.11952
-0.123081
-0.125084
-0.125473
-0.124234
-0.12139
-0.11701
-0.111203
-0.104121
-0.0959524
-0.0869244
-0.0772912
-0.067328
-0.0573202
-0.0475509
-0.0382875
-0.0297691
-0.0221933
-0.0157066
-0.0103962
-0.00628516
-0.00333091
-0.00142536
-0.000397489
-1.70471e-05
0
0
-0.00244023
-0.00833958
-0.0165677
-0.0263322
-0.0370875
-0.0484484
-0.0601208
-0.0718549
-0.0834169
-0.094577
-0.105107
-0.114787
-0.123406
-0.130774
-0.136724
-0.141116
-0.143842
-0.144827
-0.144034
-0.141464
-0.137159
-0.13121
-0.123748
-0.114956
-0.105057
-0.094319
-0.0830381
-0.0715344
-0.0601357
-0.0491621
-0.0389097
-0.029634
-0.0215364
-0.0147525
-0.00934571
-0.00530358
-0.00253885
-0.000892725
-0.000140624
0
0
-0.00285626
-0.00965526
-0.0190276
-0.0300424
-0.0420824
-0.054729
-0.0676748
-0.0806645
-0.0934618
-0.105835
-0.117556
-0.1284
-0.138154
-0.146622
-0.153627
-0.159015
-0.162657
-0.164454
-0.164339
-0.162281
-0.15829
-0.152422
-0.144784
-0.135536
-0.124891
-0.113119
-0.100533
-0.0874876
-0.0743567
-0.0615207
-0.0493439
-0.0381538
-0.0282218
-0.0197475
-0.0128477
-0.00755099
-0.00379824
-0.0014464
-0.0002759
0
0
-0.00323597
-0.0108556
-0.0212727
-0.0334309
-0.0466482
-0.0604772
-0.0746005
-0.0887617
-0.102727
-0.116267
-0.129157
-0.141175
-0.152106
-0.16175
-0.16992
-0.176445
-0.181177
-0.183987
-0.184775
-0.183472
-0.180047
-0.174516
-0.166945
-0.157462
-0.146256
-0.133587
-0.119774
-0.105198
-0.090278
-0.0754596
-0.0611852
-0.047869
-0.0358706
-0.025472
-0.016861
-0.0101216
-0.00523287
-0.00207274
-0.000426988
0
0
-0.00356755
-0.0119051
-0.0232392
-0.0364052
-0.0506648
-0.0655464
-0.080726
-0.095949
-0.110987
-0.12562
-0.139627
-0.152791
-0.164901
-0.175752
-0.185149
-0.192908
-0.198858
-0.202845
-0.204734
-0.204416
-0.201817
-0.196902
-0.18969
-0.180258
-0.168758
-0.155419
-0.140552
-0.124549
-0.107866
-0.0910121
-0.0745135
-0.0588855
-0.0445955
-0.0320307
-0.0214722
-0.0130792
-0.00688316
-0.002792
-0.000599804
0
0
-0.00383895
-0.0127687
-0.0248654
-0.0388757
-0.0540148
-0.0697912
-0.0858762
-0.10202
-0.118001
-0.13361
-0.148635
-0.162866
-0.176097
-0.188121
-0.19874
-0.207758
-0.214989
-0.220256
-0.223395
-0.224262
-0.222736
-0.21873
-0.212205
-0.203177
-0.19174
-0.17807
-0.162445
-0.145244
-0.126944
-0.108104
-0.0893367
-0.0712671
-0.0544904
-0.0395248
-0.0267728
-0.0164948
-0.00879592
-0.00362818
-0.000801435
0
0
-0.00403869
-0.0134133
-0.026093
-0.0407582
-0.0565869
-0.0730711
-0.0898789
-0.106765
-0.123518
-0.139938
-0.155825
-0.170979
-0.185198
-0.198282
-0.210031
-0.220246
-0.228734
-0.235304
-0.239773
-0.241967
-0.241727
-0.238914
-0.233426
-0.225208
-0.214275
-0.200727
-0.184776
-0.166759
-0.14714
-0.126509
-0.105549
-0.0850014
-0.0656035
-0.0480323
-0.0328455
-0.0204385
-0.0110197
-0.00460698
-0.00103963
0
0
-0.00415664
-0.0138099
-0.0268709
-0.0419777
-0.0582807
-0.0752574
-0.0925727
-0.109985
-0.127293
-0.144307
-0.160839
-0.1767
-0.191698
-0.205641
-0.218336
-0.22959
-0.239213
-0.247013
-0.252801
-0.256387
-0.257583
-0.256207
-0.252096
-0.245117
-0.235189
-0.222314
-0.206605
-0.188314
-0.167853
-0.145801
-0.12289
-0.0999622
-0.0779072
-0.0575863
-0.0397499
-0.0249708
-0.0136003
-0.00575386
-0.00132233
0
0
-0.00418494
-0.0139355
-0.027158
-0.0424731
-0.0590126
-0.0762409
-0.0938181
-0.111505
-0.129107
-0.146447
-0.163348
-0.179634
-0.195125
-0.209644
-0.223012
-0.235052
-0.245589
-0.254446
-0.261442
-0.266387
-0.269082
-0.269315
-0.266869
-0.261535
-0.253134
-0.241546
-0.226753
-0.208879
-0.188233
-0.165332
-0.140907
-0.115874
-0.091268
-0.0681516
-0.0475065
-0.0301328
-0.0165756
-0.00709202
-0.00165725
0
0
-0.00411882
-0.0137756
-0.0269268
-0.0422018
-0.0587221
-0.07594
-0.0935079
-0.111186
-0.128787
-0.146141
-0.163085
-0.179457
-0.195095
-0.20984
-0.223534
-0.236028
-0.247172
-0.256819
-0.264812
-0.27098
-0.27513
-0.277038
-0.276454
-0.273104
-0.26671
-0.257026
-0.243878
-0.227223
-0.207208
-0.184225
-0.15894
-0.132287
-0.10542
-0.0796022
-0.0560806
-0.0359361
-0.0199704
-0.00864035
-0.00205138
0
0
-0.00395737
-0.0133257
-0.0261667
-0.0411441
-0.0573782
-0.0743088
-0.0915782
-0.108944
-0.12622
-0.143247
-0.159875
-0.175959
-0.191357
-0.205933
-0.21956
-0.232121
-0.243505
-0.253603
-0.262299
-0.269456
-0.274907
-0.27844
-0.279789
-0.27864
-0.274634
-0.267402
-0.256608
-0.242012
-0.22355
-0.201416
-0.176131
-0.148571
-0.119947
-0.0917039
-0.0653678
-0.0423536
-0.0237915
-0.0104113
-0.00251054
0
0
-0.00370401
-0.0125931
-0.0248865
-0.0393076
-0.0549841
-0.0713442
-0.0880172
-0.104754
-0.121371
-0.137717
-0.153657
-0.169065
-0.183822
-0.197822
-0.210973
-0.223197
-0.234426
-0.2446
-0.253651
-0.26149
-0.267992
-0.272977
-0.276193
-0.277309
-0.275917
-0.271547
-0.26371
-0.251961
-0.235991
-0.215732
-0.191472
-0.163931
-0.134286
-0.104105
-0.0751834
-0.0493113
-0.0280227
-0.0124089
-0.00303892
0
0
-0.0033668
-0.0115977
-0.0231163
-0.0367292
-0.0515813
-0.0670902
-0.0828707
-0.0986653
-0.114291
-0.129607
-0.144494
-0.158848
-0.17258
-0.185615
-0.1979
-0.209399
-0.220091
-0.229965
-0.239008
-0.247184
-0.254423
-0.260592
-0.265476
-0.268761
-0.270022
-0.268727
-0.264266
-0.256006
-0.24338
-0.22602
-0.203896
-0.177463
-0.147747
-0.116339
-0.0852585
-0.0566828
-0.0326216
-0.0146271
-0.00363869
0
0
-0.00295841
-0.0103727
-0.0209084
-0.0334773
-0.0472511
-0.0616401
-0.0762444
-0.0907975
-0.105118
-0.119076
-0.132572
-0.145529
-0.157889
-0.169615
-0.180691
-0.191125
-0.200943
-0.210182
-0.218878
-0.227052
-0.234688
-0.241714
-0.247967
-0.25318
-0.256946
-0.25872
-0.257817
-0.253457
-0.244842
-0.231285
-0.212388
-0.188233
-0.159561
-0.127851
-0.0952464
-0.0642893
-0.0375177
-0.0170492
-0.00430971
0
0
-0.00249585
-0.00896375
-0.0183373
-0.0296516
-0.0421154
-0.0551365
-0.0683025
-0.0813394
-0.0940694
-0.106377
-0.118186
-0.129451
-0.14015
-0.150283
-0.159876
-0.168978
-0.177655
-0.185987
-0.194055
-0.201927
-0.209641
-0.217183
-0.224455
-0.231251
-0.237222
-0.241849
-0.244434
-0.244111
-0.239902
-0.230832
-0.216112
-0.195379
-0.168951
-0.138031
-0.104739
-0.0719052
-0.0426138
-0.019647
-0.00504945
0
0
-0.00199997
-0.00742853
-0.015499
-0.025382
-0.0363341
-0.0477676
-0.0592624
-0.0705407
-0.0814321
-0.0918399
-0.101717
-0.111053
-0.119865
-0.128194
-0.136106
-0.143685
-0.151035
-0.158269
-0.165502
-0.17284
-0.180365
-0.188112
-0.196048
-0.204039
-0.21181
-0.218914
-0.224693
-0.228266
-0.228553
-0.224356
-0.214524
-0.198211
-0.175207
-0.146266
-0.113294
-0.0792695
-0.0477905
-0.0223835
-0.00585334
0
0
-0.00149484
-0.00583546
-0.0125089
-0.0208269
-0.0301027
-0.039763
-0.0493874
-0.0587013
-0.0675471
-0.0758527
-0.0836054
-0.0908338
-0.0975968
-0.103978
-0.11008
-0.116023
-0.121937
-0.127961
-0.134232
-0.14088
-0.148017
-0.155718
-0.164002
-0.172805
-0.181938
-0.191046
-0.199561
-0.206656
-0.211236
-0.211971
-0.207424
-0.196288
-0.177764
-0.151998
-0.12047
-0.0861035
-0.0529136
-0.0252148
-0.00671544
0
0
-0.00100722
-0.00426264
-0.00950091
-0.0161702
-0.0236483
-0.0313873
-0.038978
-0.0461583
-0.0527917
-0.0588372
-0.064321
-0.0693154
-0.0739238
-0.078271
-0.0824963
-0.0867482
-0.0911799
-0.0959453
-0.101194
-0.107068
-0.113692
-0.121165
-0.129547
-0.138828
-0.148902
-0.159519
-0.170224
-0.180305
-0.188735
-0.194159
-0.194962
-0.189455
-0.176247
-0.15477
-0.125858
-0.0921291
-0.0578439
-0.028095
-0.00762967
0
0
-0.000566381
-0.00279731
-0.00662586
-0.0116199
-0.0172258
-0.0229343
-0.0283624
-0.0332737
-0.0375631
-0.0412282
-0.0443395
-0.0470161
-0.0494067
-0.0516769
-0.0539998
-0.0565489
-0.0594942
-0.0629977
-0.067212
-0.0722783
-0.0783234
-0.0854549
-0.0937516
-0.103247
-0.113901
-0.125561
-0.137901
-0.150354
-0.162031
-0.171659
-0.177571
-0.177819
-0.170489
-0.154249
-0.129104
-0.097085
-0.0624467
-0.0309813
-0.00859158
0
0
-0.000204554
-0.00153676
-0.00405216
-0.00740662
-0.0111147
-0.014721
-0.017888
-0.0204224
-0.0222635
-0.0234565
-0.0241213
-0.0244258
-0.0245642
-0.0247411
-0.0251603
-0.0260168
-0.0274919
-0.0297507
-0.0329416
-0.0371972
-0.0426351
-0.0493574
-0.057448
-0.0669619
-0.0779074
-0.0902122
-0.103673
-0.117882
-0.132134
-0.145321
-0.155855
-0.161685
-0.160496
-0.150226
-0.12992
-0.100734
-0.066598
-0.0338393
-0.00960036
0
0
4.12442e-05
-0.000591688
-0.00196884
-0.00378484
-0.00561733
-0.00708263
-0.00791342
-0.00798155
-0.00728757
-0.00593435
-0.00409639
-0.00199167
0.000141539
0.00206231
0.00353977
0.00436156
0.00433873
0.0033074
0.00112786
-0.00231828
-0.007132
-0.0134005
-0.0211987
-0.0305871
-0.0416009
-0.0542278
-0.0683677
-0.0837667
-0.0999209
-0.11595
-0.13046
-0.141451
-0.146386
-0.142581
-0.128064
-0.102858
-0.0701852
-0.036646
-0.0106613
0
0
0.000125206
-9.38047e-05
-0.000592937
-0.00103715
-0.00105891
-0.000368924
0.0011985
0.00367796
0.00698757
0.0109547
0.0153453
0.0198908
0.0243115
0.0283344
0.0317059
0.0342007
0.0356257
0.0358216
0.0346603
0.0320406
0.0278821
0.0221188
0.0146931
0.0055526
-0.00534793
-0.0180344
-0.0324859
-0.0485831
-0.0660207
-0.0841754
-0.101931
-0.117493
-0.1283
-0.13122
-0.123305
-0.103233
-0.0730978
-0.0393923
-0.0117885
0
0
-1.50749e-05
-0.000209867
-0.000183105
0.000517437
0.00221072
0.00505974
0.00908781
0.014201
0.020212
0.0268651
0.0338615
0.0408831
0.047613
0.0537516
0.0590284
0.0632101
0.066104
0.0675578
0.067457
0.065719
0.0622855
0.057114
0.0501681
0.0414107
0.0307983
0.0182845
0.00383326
-0.0125446
-0.0307227
-0.0503379
-0.0706016
-0.0900492
-0.106296
-0.115996
-0.115359
-0.10159
-0.0752067
-0.0420813
-0.0130091
0
0
-0.000472623
-0.00116525
-0.00106078
0.000511432
0.00381503
0.00883794
0.0154078
0.0232602
0.0320752
0.0415
0.0511677
0.0607128
0.0697873
0.0780725
0.0852886
0.0912006
0.0956208
0.0984075
0.0994614
0.0987186
0.0961421
0.0917115
0.0854114
0.0772207
0.0671028
0.0550001
0.0408375
0.0245414
0.00608713
-0.0144029
-0.0364835
-0.059105
-0.0802467
-0.0966175
-0.103815
-0.0975499
-0.0763272
-0.0447231
-0.0143689
0
0
-0.00139494
-0.00327966
-0.00363811
-0.00148257
0.00335504
0.0106104
0.0198465
0.0305803
0.0423315
0.0546386
0.0670646
0.0792025
0.0906815
0.101174
0.110399
0.118128
0.124185
0.128442
0.130815
0.13126
0.129758
0.126305
0.120903
0.113542
0.104188
0.0927763
0.0791997
0.0633188
0.0449865
0.024116
0.000824962
-0.0242935
-0.0497337
-0.0725408
-0.0880283
-0.0905341
-0.0761583
-0.0473228
-0.0159444
0
0
-0.00302218
-0.00701405
-0.00844283
-0.00594657
0.000439511
0.010079
0.0221841
0.0360031
0.0508716
0.0662127
0.0815234
0.0963639
0.110353
0.123164
0.134527
0.14423
0.152111
0.158061
0.162015
0.16394
0.163833
0.161701
0.157552
0.151377
0.143139
0.132757
0.120094
0.104953
0.0870882
0.0662393
0.0422339
0.0152122
-0.0139337
-0.0428562
-0.0669998
-0.0796332
-0.0741808
-0.0498521
-0.0178639
0
0
-0.00574269
-0.0130139
-0.0161046
-0.0133453
-0.00519928
0.00714946
0.0224635
0.0396779
0.0579319
0.0765366
0.0949342
0.112666
0.129354
0.144688
0.158417
0.170352
0.180355
0.188333
0.194236
0.198046
0.199761
0.199392
0.196941
0.19239
0.185685
0.176719
0.165319
0.151235
0.134133
0.113614
0.0892647
0.060814
0.0285056
-0.00614686
-0.0392046
-0.0634071
-0.0694728
-0.0521765
-0.0203437
0
0
-0.0101601
-0.022093
-0.0271979
-0.0238478
-0.013338
0.00236637
0.02148
0.0425997
0.0646751
0.0869237
0.108753
0.129705
0.149419
0.167613
0.184068
0.19862
0.211154
0.221599
0.229914
0.236084
0.240108
0.241986
0.241704
0.239225
0.234465
0.227285
0.217468
0.204707
0.188593
0.168611
0.144156
0.114614
0.0796136
0.0396866
-0.00235873
-0.0395621
-0.0603575
-0.0538564
-0.0237311
0
0
-0.0171308
-0.0349843
-0.0416545
-0.0364748
-0.0222168
-0.00189983
0.0220734
0.0479744
0.0746009
0.101116
0.126926
0.151598
0.17481
0.196319
0.215946
0.233558
0.249065
0.262411
0.273565
0.28251
0.289237
0.293731
0.295958
0.295853
0.293302
0.288128
0.28007
0.268768
0.253744
0.234388
0.209947
0.179539
0.142267
0.0976546
0.0469172
-0.00442109
-0.0437089
-0.0536163
-0.0284803
0
0
-0.0276085
-0.051352
-0.0569893
-0.0467765
-0.0258739
0.00140147
0.0320514
0.0641208
0.0963575
0.127955
0.158384
0.187282
0.214399
0.239555
0.262621
0.283507
0.302156
0.318528
0.332604
0.344368
0.353804
0.360885
0.365561
0.367743
0.367292
0.364002
0.35758
0.347624
0.333606
0.314842
0.29047
0.259414
0.220376
0.171975
0.113573
0.047931
-0.0135955
-0.0479791
-0.0347545
0
0
-0.041633
-0.0665136
-0.0633939
-0.0411298
-0.00825638
0.029687
0.069451
0.109195
0.147886
0.184946
0.220042
0.252982
0.283648
0.311968
0.337897
0.361409
0.382493
0.401143
0.417361
0.431143
0.442481
0.451344
0.457679
0.461391
0.462332
0.460286
0.45495
0.44591
0.432619
0.41436
0.390211
0.358973
0.319083
0.268494
0.204809
0.126955
0.0412604
-0.0279
-0.0406
0
0
-0.0534369
-0.060775
-0.031021
0.0153896
0.0671341
0.11901
0.168817
0.215717
0.259466
0.300065
0.337605
0.372197
0.403944
0.432938
0.459255
0.482957
0.5041
0.522726
0.538873
0.552565
0.563811
0.572597
0.578882
0.582582
0.583565
0.581631
0.576499
0.567783
0.554969
0.537373
0.514091
0.483913
0.445172
0.395471
0.331234
0.247582
0.141887
0.0291649
-0.0352897
0
0
-0.0263013
0.0352764
0.118754
0.198203
0.268101
0.328705
0.38148
0.427862
0.468996
0.50574
0.538721
0.568394
0.595091
0.619053
0.640463
0.659457
0.676145
0.690609
0.702916
0.713115
0.721234
0.727281
0.731233
0.733034
0.732583
0.729725
0.724236
0.715808
0.704027
0.688337
0.667987
0.641933
0.608675
0.565908
0.509835
0.433714
0.325983
0.177083
0.0241538
0
0
0.24617
0.433706
0.551972
0.629039
0.682517
0.721997
0.752723
0.77765
0.798502
0.816324
0.831767
0.845252
0.857058
0.867376
0.876344
0.88406
0.8906
0.896023
0.900377
0.903695
0.906
0.907299
0.907585
0.906828
0.904975
0.901944
0.897616
0.891832
0.884374
0.874954
0.863172
0.848459
0.829946
0.8062
0.774625
0.730009
0.660687
0.538055
0.306707
0
