# vtk DataFile Version 2.0
v_velocity
ASCII
DATASET RECTILINEAR_GRID
DIMENSIONS 41 42 1
X_COORDINATES 41 double
0 0.0325168 0.0644289 0.0957562 0.126518 0.156734 0.186424 0.215604 0.244295 0.272513 0.300276 0.327602 0.354507 0.38101 0.407125 0.43287 0.45826 0.483312 0.50804 0.532462 0.556591 0.580442 0.604032 0.627374 0.650483 0.673374 0.696061 0.718557 0.740878 0.763037 0.785048 0.806924 0.82868 0.850328 0.871883 0.893358 0.914766 0.936121 0.957436 0.978725 1 
Y_COORDINATES 42 double
0 0.0125 0.0375 0.0625 0.0875 0.1125 0.1375 0.1625 0.1875 0.2125 0.2375 0.2625 0.2875 0.3125 0.3375 0.3625 0.3875 0.4125 0.4375 0.4625 0.4875 0.5125 0.5375 0.5625 0.5875 0.6125 0.6375 0.6625 0.6875 0.7125 0.7375 0.7625 0.7875 0.8125 0.8375 0.8625 0.8875 0.9125 0.9375 0.9625 0.9875 1 
Z_COORDINATES 1 double
0.0

CELL_DATA 1640
SCALARS v_velocity double 1
LOOKUP_TABLE default
0
0
0
0
0
0
0
0
0
0
0
0
0
0
0
0
0
0
0
0
0
0
0
0
0
0
0
0
0
0
0
0
0
0
0
0
0
0
0
0
-0.000142037
3.9247e-06
0.00024523
0.000462487
0.000628492
0.000747774
0.000831676
0.000889259
0.00092498
0.000939148
0.000929342
0.000891942
0.000823443
0.000721449
0.000585361
0.000416799
0.000219784
7.08124e-07
-0.000231917
-0.000467903
-0.000696004
-0.000904672
-0.00108288
-0.00122095
-0.00131129
-0.00134898
-0.00133219
-0.0012622
-0.00114339
-0.000982783
-0.000789599
-0.000574699
-0.000350138
-0.000128987
7.44172e-05
0.000243615
0.000358546
0.000394056
0.000321692
0.000128605
-0.000207722
0.000349081
0.00114693
0.00187536
0.00244981
0.00287379
0.00317449
0.00337562
0.00348908
0.0035153
0.00344712
0.00327438
0.00298801
0.00258312
0.00206108
0.00143066
0.000708373
-8.19378e-05
-0.000910143
-0.00174144
-0.00253844
-0.00326349
-0.0038812
-0.00436088
-0.00467865
-0.00481914
-0.00477658
-0.00455519
-0.00416884
-0.00364018
-0.00299923
-0.00228193
-0.00152872
-0.000783785
-9.50932e-05
0.00048451
0.000895436
0.00107017
0.000936876
0.000437669
-3.1337e-05
0.00125142
0.00285279
0.00430014
0.00545383
0.00631524
0.00692695
0.00732716
0.00753445
0.00754806
0.00735476
0.00693726
0.00628168
0.0053832
0.00424965
0.00290327
0.00138091
-0.000267202
-0.00197978
-0.00368772
-0.00531801
-0.0067981
-0.00806036
-0.00904637
-0.00971065
-0.0100237
-0.00997407
-0.00956898
-0.00883418
-0.00781244
-0.00656134
-0.0051506
-0.00365957
-0.00217521
-0.000791277
0.000391361
0.00126342
0.00170626
0.00159353
0.000798127
0.00045919
0.00283516
0.00546991
0.00779754
0.00965104
0.0110391
0.0120215
0.0126496
0.0129465
0.0129084
0.012515
0.0117425
0.0105741
0.00900875
0.00706556
0.00478597
0.00223335
-0.000509329
-0.00334334
-0.00615923
-0.00884272
-0.0112809
-0.0133689
-0.0150157
-0.01615
-0.0167244
-0.0167188
-0.0161419
-0.0150311
-0.0134507
-0.0114894
-0.00925576
-0.00687477
-0.00448398
-0.00223116
-0.000273182
0.00122361
0.00208241
0.0021148
0.00111908
0.00129331
0.00516527
0.00906312
0.0124086
0.01505
0.0170224
0.0184089
0.019274
0.0196434
0.0195083
0.0188408
0.0176113
0.0158028
0.0134211
0.0105006
0.00710609
0.00333126
-0.00070455
-0.0048619
-0.00898787
-0.0129236
-0.0165123
-0.0196076
-0.0220814
-0.0238314
-0.0247873
-0.0249154
-0.024222
-0.0227532
-0.0205944
-0.0178657
-0.014718
-0.0113263
-0.00788499
-0.00460246
-0.00169863
0.00059648
0.00204197
0.0023837
0.00134959
0.0024801
0.00826789
0.0136602
0.0181483
0.021646
0.02424
0.0260469
0.0271466
0.0275662
0.0272907
0.0262843
0.0245125
0.0219597
0.0186413
0.0146089
0.0099524
0.00479723
-0.000700227
-0.0063592
-0.0119824
-0.0173646
-0.0223025
-0.0266039
-0.0300982
-0.0326454
-0.0341447
-0.0345417
-0.0338329
-0.0320683
-0.0293501
-0.0258297
-0.021701
-0.0171933
-0.0125631
-0.00808642
-0.00405355
-0.000765266
0.00146771
0.002323
0.00146262
0.0040171
0.0121417
0.0192573
0.0250049
0.0294155
0.0326568
0.0348916
0.0362197
0.0366697
0.0362196
0.0348256
0.0324489
0.0290765
0.0247336
0.0194895
0.0134584
0.00679592
-0.000306412
-0.00762813
-0.0149284
-0.0219554
-0.0284565
-0.0341897
-0.0389347
-0.0425053
-0.0447602
-0.0456135
-0.045042
-0.0430903
-0.0398716
-0.0355645
-0.0304065
-0.0246842
-0.0187222
-0.0128722
-0.00750345
-0.00299607
0.00026214
0.00187623
0.00144259
0.00589323
0.0167632
0.0258236
0.0329404
0.0383142
0.0422232
0.0448918
0.0464445
0.0469131
0.0462689
0.0444598
0.0414428
0.0372071
0.0317869
0.0252672
0.017783
0.00951628
0.000689769
-0.00844014
-0.0175916
-0.0264668
-0.0347622
-0.0421812
-0.0484465
-0.0533155
-0.0565937
-0.0581497
-0.0579265
-0.0559506
-0.0523355
-0.0472808
-0.0410654
-0.0340354
-0.0265903
-0.0191666
-0.0122237
-0.0062327
-0.00166857
0.000993009
0.00127735
0.00808922
0.0220896
0.0333029
0.041892
0.0482757
0.0528725
0.0559829
0.0577633
0.058251
0.0574109
0.0551827
0.0515187
0.0464087
0.0398935
0.0320694
0.0230877
0.0131508
0.00250663
-0.00855785
-0.0197239
-0.0306497
-0.0409807
-0.0503618
-0.058452
-0.0649407
-0.0695666
-0.0721354
-0.0725382
-0.0707651
-0.0669148
-0.0611964
-0.0539242
-0.045505
-0.036419
-0.0271991
-0.0184091
-0.010626
-0.004427
-0.000381557
0.000953144
0.0105771
0.0280588
0.041616
0.0517728
0.0592113
0.0645173
0.0680828
0.0701029
0.0706234
0.0696038
0.0669755
0.0626851
0.0567206
0.0491255
0.0400026
0.0295129
0.0178725
0.00534745
-0.00775128
-0.0210739
-0.0342389
-0.0468425
-0.0584702
-0.0687114
-0.0771787
-0.0835284
-0.0874849
-0.0888645
-0.0875977
-0.0837456
-0.077509
-0.0692262
-0.0593608
-0.0484795
-0.0372237
-0.0262791
-0.0163492
-0.00813345
-0.00231423
0.0004514
0.01332
0.0345905
0.0506609
0.0624727
0.0710092
0.0770486
0.0810877
0.0833679
0.0839467
0.0827798
0.0797903
0.0749172
0.0681442
0.0595131
0.0491277
0.0371526
0.0238104
0.00937789
-0.00581767
-0.0214028
-0.0369633
-0.0520512
-0.0661953
-0.0789149
-0.0897384
-0.0982275
-0.104006
-0.106789
-0.106419
-0.102889
-0.0963635
-0.0871848
-0.0758631
-0.0630525
-0.0495153
-0.0360803
-0.0236027
-0.0129319
-0.00488863
-0.000253418
0.0162715
0.0415861
0.0603144
0.0738587
0.0835349
0.0903332
0.0948683
0.0974348
0.0981058
0.0968348
0.0935364
0.0881408
0.0806246
0.071024
0.059439
0.0460322
0.0310266
0.0147027
-0.00260382
-0.020505
-0.0385632
-0.0562963
-0.0731842
-0.0886807
-0.10223
-0.113291
-0.121369
-0.126055
-0.127065
-0.124287
-0.117811
-0.107949
-0.095237
-0.08041
-0.0643604
-0.0480827
-0.0326157
-0.018993
-0.0082082
-0.00119517
0.0193766
0.0489302
0.0704331
0.0857769
0.0966312
0.104214
0.109268
0.112149
0.112948
0.11162
0.108071
0.102221
0.094038
0.0835491
0.0708477
0.0560908
0.0394971
0.0213451
0.00197112
-0.0182319
-0.0388156
-0.059277
-0.0790618
-0.0975707
-0.114171
-0.128221
-0.139095
-0.146235
-0.149199
-0.147721
-0.141763
-0.131561
-0.117638
-0.10079
-0.0820401
-0.0625713
-0.0436421
-0.0265144
-0.0123975
-0.00241681
0.0225724
0.0564926
0.0808561
0.0980541
0.11012
0.118509
0.124103
0.127321
0.128282
0.126941
0.123196
0.116959
0.108186
0.0968965
0.0831752
0.0671722
0.0490999
0.0292311
0.00789629
-0.0145168
-0.0375624
-0.0607346
-0.0834649
-0.105121
-0.125014
-0.142408
-0.156552
-0.166722
-0.172284
-0.172767
-0.167945
-0.157909
-0.143107
-0.124358
-0.102804
-0.0798299
-0.0569534
-0.0357174
-0.0176016
-0.00397065
0.0257899
0.0641312
0.0914079
0.1105
0.123804
0.133017
0.139162
0.142733
0.143877
0.142555
0.138659
0.132091
0.1228
0.110795
0.0961565
0.0790274
0.0596151
0.0381852
0.0150578
-0.00939298
-0.0347381
-0.060488
-0.0860845
-0.110891
-0.134189
-0.155177
-0.172991
-0.186741
-0.195577
-0.198778
-0.195858
-0.186675
-0.171523
-0.151169
-0.126838
-0.100118
-0.0728246
-0.0468405
-0.0239839
-0.00591806
0.0289566
0.0716964
0.101903
0.122914
0.137473
0.147515
0.154213
0.158138
0.159471
0.158181
0.154161
0.147304
0.137551
0.12491
0.109455
0.0913289
0.0707366
0.0479375
0.02324
-0.00300216
-0.0303886
-0.0584652
-0.0867101
-0.114516
-0.141172
-0.165849
-0.187602
-0.205395
-0.218158
-0.224883
-0.224754
-0.217302
-0.20255
-0.181113
-0.154221
-0.123643
-0.0915153
-0.0601292
-0.0317217
-0.00832859
0.0319991
0.0790356
0.11215
0.135086
0.150904
0.161772
0.169008
0.173269
0.174777
0.173514
0.169374
0.162248
0.152076
0.138863
0.122688
0.103697
0.0820972
0.0581464
0.0321417
0.00441349
-0.0246753
-0.0547216
-0.0852646
-0.11576
-0.145547
-0.173818
-0.199598
-0.221744
-0.238987
-0.250022
-0.25365
-0.248972
-0.235606
-0.213869
-0.18488
-0.150518
-0.113246
-0.0758226
-0.0409998
-0.0112787
0.0348469
0.0859993
0.121961
0.146806
0.163875
0.175548
0.183292
0.187853
0.189499
0.188233
0.183957
0.176564
0.165997
0.152266
0.135459
0.115733
0.0933036
0.0684318
0.0414067
0.0125357
-0.0178599
-0.0494388
-0.0818202
-0.114552
-0.147067
-0.178633
-0.208307
-0.234903
-0.257006
-0.273032
-0.281374
-0.28062
-0.269841
-0.248874
-0.218548
-0.180731
-0.138168
-0.0941357
-0.0520034
-0.0148496
0.0374354
0.0924474
0.131153
0.157869
0.176163
0.188607
0.196812
0.201616
0.203343
0.202025
0.197577
0.189902
0.17895
0.164745
0.147388
0.127054
0.103974
0.0784147
0.0506635
0.0210076
-0.0102726
-0.0429014
-0.0765893
-0.110998
-0.14569
-0.18006
-0.213264
-0.244155
-0.27125
-0.29275
-0.306656
-0.310995
-0.304157
-0.285301
-0.254731
-0.214101
-0.166336
-0.115241
-0.0649076
-0.0191254
0.0397099
0.0982558
0.139561
0.168084
0.187559
0.200724
0.209324
0.214298
0.216031
0.214594
0.209924
0.201941
0.190609
0.175969
0.158144
0.137328
0.113771
0.0877545
0.0595653
0.0294765
-0.00226825
-0.0354562
-0.0698911
-0.10536
-0.141576
-0.178105
-0.214267
-0.249039
-0.28097
-0.308148
-0.328252
-0.338752
-0.337268
-0.322079
-0.292688
-0.250252
-0.197677
-0.139248
-0.0798681
-0.0241896
0.0416288
0.103323
0.147041
0.177279
0.197871
0.211688
0.220604
0.225658
0.227309
0.225676
0.220728
0.212408
0.200701
0.18567
0.16746
0.14629
0.122431
0.0961777
0.067824
0.0376327
0.00581764
-0.0274637
-0.0621021
-0.0980076
-0.135056
-0.173006
-0.211394
-0.249401
-0.285719
-0.318449
-0.345073
-0.362578
-0.367787
-0.357941
-0.331444
-0.288594
-0.231968
-0.166185
-0.0970107
-0.0301231
0.0431665
0.107576
0.153481
0.185311
0.206932
0.221316
0.230451
0.235485
0.236958
0.235048
0.229765
0.221083
0.209013
0.193643
0.175143
0.153753
0.129766
0.103491
0.0752285
0.0452356
0.0137042
-0.0192534
-0.053602
-0.0893633
-0.126568
-0.165178
-0.204973
-0.245399
-0.285395
-0.323217
-0.35631
-0.381323
-0.394352
-0.391509
-0.369828
-0.328327
-0.26882
-0.195985
-0.116423
-0.0370013
0.0443157
0.110976
0.158807
0.19207
0.214607
0.22945
0.238697
0.243601
0.244795
0.242527
0.236858
0.227799
0.215393
0.199752
0.181069
0.159605
0.135668
0.109581
0.0816481
0.0521241
0.0211844
-0.0110922
-0.0447291
-0.0798403
-0.116593
-0.155141
-0.195511
-0.237452
-0.280228
-0.322381
-0.361507
-0.394119
-0.415744
-0.421392
-0.406531
-0.36846
-0.307675
-0.228472
-0.138147
-0.0448925
0.0450901
0.113526
0.162987
0.19749
0.220794
0.235967
0.2452
0.249858
0.250672
0.247971
0.241875
0.23244
0.21974
0.203913
0.185172
0.163791
0.14009
0.114398
0.0870215
0.0582098
0.0281271
-0.00317178
-0.0357527
-0.0697997
-0.10559
-0.143442
-0.183614
-0.226161
-0.270718
-0.31622
-0.36059
-0.400447
-0.430996
-0.446303
-0.440189
-0.407847
-0.347812
-0.263364
-0.162181
-0.0538579
0.0455256
0.115274
0.166043
0.201549
0.225432
0.240774
0.249851
0.254137
0.254472
0.251271
0.244722
0.234927
0.221995
0.206087
0.187427
0.166301
0.143029
0.11794
0.0913357
0.063459
0.0344631
0.00438606
-0.0268666
-0.0595274
-0.0939543
-0.130593
-0.169901
-0.212214
-0.257543
-0.305285
-0.353834
-0.400161
-0.439462
-0.465138
-0.469462
-0.445238
-0.388363
-0.300269
-0.188474
-0.0639537
0.0456828
0.116318
0.16805
0.204275
0.2285
0.243811
0.252564
0.256346
0.256104
0.252345
0.24533
0.23521
0.222126
0.206256
0.187834
0.167145
0.144501
0.120224
0.0946023
0.0678682
0.0401627
0.0115104
-0.0182015
-0.049235
-0.0820003
-0.117034
-0.154942
-0.196299
-0.241464
-0.290307
-0.341795
-0.393462
-0.440835
-0.477049
-0.493101
-0.479321
-0.428326
-0.338691
-0.216939
-0.0752349
0.0456511
0.116814
0.169149
0.205751
0.230016
0.245045
0.253276
0.256405
0.255489
0.251127
0.243648
0.233254
0.220113
0.204417
0.1864
0.166335
0.144524
0.121266
0.0968335
0.0714388
0.0452081
0.0181536
-0.00984936
-0.0390785
-0.0699717
-0.103119
-0.139229
-0.179051
-0.223239
-0.272101
-0.325213
-0.380832
-0.435136
-0.481462
-0.510001
-0.508755
-0.466575
-0.378029
-0.247454
-0.0877627
0.0455549
0.116985
0.169547
0.206112
0.230034
0.244464
0.251933
0.254245
0.252557
0.247555
0.239631
0.22903
0.215943
0.200566
0.183126
0.163879
0.143102
0.121068
0.0980223
0.0741531
0.0495668
0.0242614
-0.00189629
-0.02919
-0.0580668
-0.0891391
-0.123169
-0.161022
-0.203565
-0.251481
-0.304922
-0.362949
-0.422656
-0.478076
-0.519215
-0.532194
-0.501854
-0.417561
-0.27987
-0.101615
0.0455665
0.117138
0.169526
0.205543
0.228633
0.242065
0.248482
0.249789
0.247231
0.241564
0.233231
0.222506
0.209595
0.19469
0.178002
0.159762
0.140214
0.119599
0.0981255
0.0759538
0.0531655
0.0297422
0.00554286
-0.019716
-0.0464766
-0.0753492
-0.10711
-0.142678
-0.183056
-0.229202
-0.281765
-0.340601
-0.403895
-0.466825
-0.519957
-0.548273
-0.532741
-0.456413
-0.314011
-0.116902
0.0459298
0.11768
0.169443
0.204265
0.2259
0.237835
0.242853
0.242947
0.239421
0.233077
0.224386
0.213637
0.201035
0.186759
0.170994
0.15394
0.135803
0.116781
0.0970467
0.0767235
0.055866
0.0344377
0.0122904
-0.0108552
-0.0354264
-0.0620123
-0.0913713
-0.124426
-0.162236
-0.205929
-0.256532
-0.314606
-0.37948
-0.447838
-0.511578
-0.555589
-0.557586
-0.493481
-0.349657
-0.133786
0.0470023
0.119157
0.169729
0.202513
0.221898
0.231726
0.23494
0.233594
0.22901
0.221995
0.213018
0.202359
0.190206
0.176715
0.162036
0.14633
0.129759
0.112478
0.0946166
0.0762625
0.0574408
0.0380967
0.0180762
-0.00289154
-0.0252111
-0.0494365
-0.076284
-0.106639
-0.141553
-0.182224
-0.229915
-0.285742
-0.350101
-0.421386
-0.493548
-0.552663
-0.574416
-0.527302
-0.386506
-0.152522
0.0493259
0.122284
0.170869
0.200484
0.216614
0.223609
0.22457
0.221552
0.215837
0.20818
0.19901
0.188569
0.177011
0.164451
0.151001
0.136776
0.121894
0.106462
0.0905698
0.0742673
0.057553
0.0403561
0.0225204
0.00378858
-0.0162142
-0.0379956
-0.0622116
-0.0896808
-0.121398
-0.158543
-0.202482
-0.25469
-0.316443
-0.387841
-0.465442
-0.53791
-0.580799
-0.555836
-0.424072
-0.173514
0.053741
0.12798
0.173335
0.198242
0.209874
0.21321
0.21145
0.206552
0.199665
0.191427
0.182178
0.172093
0.161269
0.149772
0.137668
0.125025
0.111912
0.0983966
0.0845263
0.0703205
0.0557546
0.0407472
0.0251456
0.00871195
-0.00889103
-0.0281153
-0.0495433
-0.0739057
-0.102103
-0.135237
-0.174656
-0.221997
-0.279133
-0.34765
-0.426958
-0.509647
-0.573698
-0.576123
-0.461454
-0.197419
0.0615524
0.137329
0.177409
0.195519
0.201179
0.199986
0.195074
0.188149
0.180107
0.171393
0.162207
0.152625
0.142672
0.132355
0.12169
0.110696
0.0994034
0.0878374
0.0760142
0.0639273
0.0515368
0.0387575
0.0254471
0.0113945
-0.00369286
-0.0202029
-0.0386338
-0.0596133
-0.0839234
-0.112541
-0.146709
-0.188049
-0.238714
-0.301342
-0.378011
-0.466202
-0.549353
-0.583748
-0.496832
-0.225305
0.0747232
0.151315
0.182732
0.19131
0.189382
0.182878
0.174536
0.165579
0.156517
0.147517
0.138594
0.129701
0.120775
0.111764
0.102631
0.0933553
0.0839279
0.0743447
0.0645964
0.0546593
0.044486
0.033995
0.0230617
0.0115082
-0.000906989
-0.0145008
-0.0296791
-0.0469548
-0.0669735
-0.0905566
-0.118777
-0.153107
-0.195672
-0.249599
-0.318945
-0.406251
-0.503359
-0.572127
-0.52635
-0.258772
0.0959496
0.169916
0.187231
0.18301
0.172088
0.159911
0.148277
0.137635
0.127957
0.119064
0.110756
0.102849
0.0951955
0.0876832
0.0802325
0.0727894
0.0653181
0.0577924
0.0501874
0.0424708
0.0345953
0.0264902
0.0180542
0.00914784
-0.00041493
-0.0108755
-0.0225419
-0.0358041
-0.0511579
-0.0692448
-0.0909251
-0.11742
-0.15059
-0.193463
-0.250955
-0.329596
-0.431331
-0.5318
-0.54188
-0.299611
0.127958
0.189407
0.184741
0.164916
0.144889
0.12796
0.11421
0.103003
0.0936773
0.0856934
0.0786469
0.0722424
0.0662678
0.0605729
0.0550536
0.0496383
0.0442782
0.0389374
0.0335856
0.0281907
0.0227124
0.0170966
0.0112694
0.00513252
-0.00144272
-0.00862117
-0.0166118
-0.0256793
-0.0361623
-0.0485068
-0.063327
-0.0815238
-0.104525
-0.134787
-0.176817
-0.23868
-0.33101
-0.450683
-0.526966
-0.347319
0.169043
0.195156
0.160997
0.127199
0.102077
0.0842773
0.0715382
0.0621359
0.0549175
0.0491349
0.0443024
0.0401012
0.0363199
0.0328171
0.0294982
0.0263
0.0231795
0.0201063
0.0170558
0.0140045
0.0109256
0.00778502
0.00453874
0.00112948
-0.002516
-0.0064901
-0.0109087
-0.0159178
-0.021705
-0.028521
-0.0367209
-0.0468453
-0.0597861
-0.0771431
-0.102036
-0.140994
-0.207273
-0.318474
-0.451274
-0.388787
0.189264
0.146916
0.0943795
0.0626317
0.044246
0.0332446
0.026324
0.0217205
0.0184745
0.0160478
0.0141284
0.0125297
0.0111368
0.00987809
0.00870793
0.00759711
0.0065266
0.00548323
0.0044568
0.00343776
0.00241552
0.00137707
0.000305888
-0.000818937
-0.00202355
-0.00334025
-0.00480881
-0.00647875
-0.00841374
-0.0107001
-0.0134642
-0.016907
-0.0213785
-0.027541
-0.0367582
-0.0521018
-0.0811546
-0.143832
-0.271683
-0.360405
0
0
0
0
0
0
0
0
0
0
0
0
0
0
0
0
0
0
0
0
0
0
0
0
0
0
0
0
0
0
0
0
0
0
0
0
0
0
0
0
