# vtk DataFile Version 2.0
pressure
ASCII
DATASET RECTILINEAR_GRID
DIMENSIONS 51 51 1
X_COORDINATES 51 double
0 0.02 0.04 0.06 0.08 0.1 0.12 0.14 0.16 0.18 0.2 0.22 0.24 0.26 0.28 0.3 0.32 0.34 0.36 0.38 0.4 0.42 0.44 0.46 0.48 0.5 0.52 0.54 0.56 0.58 0.6 0.62 0.64 0.66 0.68 0.7 0.72 0.74 0.76 0.78 0.8 0.82 0.84 0.86 0.88 0.9 0.92 0.94 0.96 0.98 1 
Y_COORDINATES 51 double
0 0.02 0.04 0.06 0.08 0.1 0.12 0.14 0.16 0.18 0.2 0.22 0.24 0.26 0.28 0.3 0.32 0.34 0.36 0.38 0.4 0.42 0.44 0.46 0.48 0.5 0.52 0.54 0.56 0.58 0.6 0.62 0.64 0.66 0.68 0.7 0.72 0.74 0.76 0.78 0.8 0.82 0.84 0.86 0.88 0.9 0.92 0.94 0.96 0.98 1 
Z_COORDINATES 1 double
0.0

CELL_DATA 2500
SCALARS pressure double 1
LOOKUP_TABLE default
0
5.77694e-06
1.07116e-06
-1.9615e-05
-5.43215e-05
-9.80832e-05
-0.000147681
-0.000203808
-0.000270716
-0.000354304
-0.000460137
-0.000592715
-0.000756116
-0.000954254
-0.00119004
-0.00146483
-0.00177289
-0.00209004
-0.00237468
-0.00258374
-0.00268377
-0.00265133
-0.00247047
-0.00213299
-0.00164235
-0.0010198
-0.000309856
0.000417022
0.00106689
0.00153164
0.00170593
0.0015105
0.000916701
-3.59559e-05
-0.00123927
-0.00253866
-0.00377386
-0.00482203
-0.00562258
-0.0061737
-0.00650943
-0.00667797
-0.00673181
-0.00672099
-0.00668365
-0.00664161
-0.00660424
-0.00657421
-0.00655189
-0.00653823
-5.52764e-06
9.61241e-07
-4.16161e-06
-2.5166e-05
-5.86563e-05
-9.92243e-05
-0.00014416
-0.000194924
-0.000256047
-0.000332927
-0.00042995
-0.000550446
-0.000698356
-0.000878779
-0.00109636
-0.00135758
-0.00166847
-0.00201559
-0.00235774
-0.00264261
-0.00282401
-0.0028674
-0.00274986
-0.00246052
-0.00200328
-0.00140133
-0.000701313
2.47636e-05
0.000681936
0.00116094
0.00135425
0.0011787
0.000600309
-0.000346555
-0.00155585
-0.00286926
-0.00411594
-0.00515804
-0.00592195
-0.00640289
-0.00664726
-0.00672767
-0.00671935
-0.00667945
-0.00663744
-0.00660225
-0.0065746
-0.00655333
-0.00653684
-0.00652417
-4.88229e-06
2.8981e-06
-4.22847e-06
-2.86174e-05
-6.28595e-05
-9.95812e-05
-0.00013671
-0.000177684
-0.000228615
-0.000294983
-0.000380187
-0.000487601
-0.000625661
-0.000813134
-0.00107412
-0.00142169
-0.00184924
-0.00232698
-0.00280428
-0.00322331
-0.0035321
-0.00369055
-0.00367204
-0.00346411
-0.0030704
-0.00251362
-0.00183866
-0.00111429
-0.000431545
0.0001029
0.000380402
0.000310839
-0.000152771
-0.000992639
-0.0021175
-0.00337588
-0.00459213
-0.00561378
-0.00634963
-0.00678262
-0.00695666
-0.00695118
-0.00685477
-0.00674051
-0.0066491
-0.00658974
-0.00655507
-0.00653494
-0.00652108
-0.00650783
6.30446e-06
1.33263e-05
5.50325e-07
-3.04497e-05
-6.63487e-05
-9.76892e-05
-0.000124015
-0.000151831
-0.000189695
-0.000244922
-0.000326097
-0.000452267
-0.000656914
-0.000973163
-0.00141554
-0.00197531
-0.00262297
-0.00331162
-0.00398299
-0.00457765
-0.00504381
-0.00534194
-0.00544613
-0.00534456
-0.00504037
-0.00455348
-0.00392273
-0.0032076
-0.00248795
-0.0018601
-0.00142735
-0.00128383
-0.00149274
-0.00206364
-0.00293775
-0.00399139
-0.00506261
-0.00599513
-0.00668146
-0.00708495
-0.00723339
-0.00719478
-0.00705165
-0.00687996
-0.00673205
-0.00662917
-0.00656822
-0.00653596
-0.0065182
-0.00650353
3.28865e-05
3.52608e-05
1.22896e-05
-2.75557e-05
-6.46197e-05
-8.91363e-05
-0.000104106
-0.000120331
-0.000152
-0.000219467
-0.000357847
-0.000614533
-0.00102804
-0.00161109
-0.00234997
-0.00320941
-0.00413874
-0.00507867
-0.00596799
-0.00675057
-0.00738028
-0.0078233
-0.00805843
-0.0080767
-0.00788135
-0.0074885
-0.00692846
-0.00624708
-0.00550656
-0.00478412
-0.00416738
-0.00374442
-0.00358823
-0.00373724
-0.0041777
-0.00483663
-0.00559338
-0.00631025
-0.00687233
-0.00721896
-0.00735153
-0.00731641
-0.00717836
-0.00700039
-0.00683187
-0.00670113
-0.00661488
-0.00656551
-0.0065395
-0.0065229
8.24387e-05
7.52034e-05
3.80291e-05
-1.13418e-05
-4.88235e-05
-6.77346e-05
-7.73138e-05
-9.7609e-05
-0.000162028
-0.000324205
-0.000648162
-0.00118001
-0.00193053
-0.00287812
-0.00397726
-0.00516762
-0.00638339
-0.00756058
-0.00864205
-0.00958091
-0.010342
-0.0109015
-0.0112465
-0.0113731
-0.0112863
-0.0109995
-0.0105349
-0.00992466
-0.00921096
-0.00844673
-0.00769419
-0.0070211
-0.0064931
-0.00616188
-0.00605151
-0.00614776
-0.00639698
-0.00671773
-0.00702163
-0.00723663
-0.00732657
-0.00729875
-0.00719031
-0.00704436
-0.00689616
-0.00676971
-0.00667671
-0.00661771
-0.00658525
-0.00656757
0.000165003
0.0001432
8.95657e-05
3.09112e-05
-8.81428e-06
-3.07172e-05
-5.66604e-05
-0.000129619
-0.000319569
-0.000709798
-0.0013597
-0.00228121
-0.00344369
-0.00478763
-0.00623832
-0.00771903
-0.00916009
-0.0105036
-0.0117048
-0.0127316
-0.0135631
-0.0141875
-0.0146006
-0.0148044
-0.0148061
-0.0146178
-0.0142566
-0.0137439
-0.013106
-0.0123739
-0.0115832
-0.0107733
-0.00998633
-0.0092629
-0.00863711
-0.00813073
-0.00775078
-0.00749193
-0.00733989
-0.00726857
-0.00723434
-0.00718901
-0.00711113
-0.00701113
-0.00690683
-0.00681126
-0.0067336
-0.00667909
-0.00664709
-0.00663072
0.000290986
0.000251487
0.000181246
0.000112084
6.10638e-05
1.20454e-05
-8.16315e-05
-0.000300519
-0.000746191
-0.00149714
-0.00257261
-0.00393465
-0.00550827
-0.0072015
-0.00892356
-0.0105971
-0.0121628
-0.0135789
-0.0148184
-0.0158654
-0.0167122
-0.0173567
-0.0178011
-0.018051
-0.0181151
-0.0180046
-0.0177331
-0.0173162
-0.0167706
-0.0161136
-0.0153619
-0.0145315
-0.0136382
-0.0126979
-0.0117288
-0.0107525
-0.00979765
-0.00890579
-0.00813663
-0.00755826
-0.00720902
-0.00705071
-0.00698253
-0.00692915
-0.00687506
-0.00682296
-0.00677601
-0.00673914
-0.0067156
-0.00670322
0.000467203
0.000410162
0.00032392
0.000237539
0.000152676
2.7962e-05
-0.000219878
-0.000705523
-0.00152986
-0.00272803
-0.0042602
-0.00603699
-0.00794824
-0.00988723
-0.0117671
-0.0135262
-0.0151253
-0.0165428
-0.0177684
-0.018799
-0.0196352
-0.0202804
-0.0207395
-0.0210191
-0.0211272
-0.0210737
-0.0208695
-0.0205268
-0.0200576
-0.0194728
-0.0187805
-0.0179846
-0.0170845
-0.0160757
-0.0149536
-0.0137191
-0.0123873
-0.010999
-0.00963473
-0.00842291
-0.00751597
-0.00700984
-0.00684324
-0.00682538
-0.00682363
-0.00681689
-0.00680664
-0.00679515
-0.00678568
-0.00677891
0.000691217
0.000619611
0.000515511
0.000395107
0.000235297
-3.95216e-05
-0.000548074
-0.00141226
-0.0026924
-0.00435692
-0.00630596
-0.00841137
-0.0105489
-0.0126198
-0.014558
-0.0163258
-0.0179059
-0.0192934
-0.0204893
-0.0214973
-0.0223218
-0.0229676
-0.0234397
-0.0237439
-0.023887
-0.0238768
-0.023722
-0.0234319
-0.0230156
-0.0224809
-0.0218329
-0.021072
-0.0201928
-0.0191828
-0.0180242
-0.0166988
-0.015197
-0.013533
-0.0117631
-0.0100067
-0.00845645
-0.00734187
-0.00680077
-0.0067127
-0.00676892
-0.00681011
-0.00683596
-0.00685136
-0.00685776
-0.00685678
0.000944951
0.000861875
0.000731839
0.000547776
0.000254452
-0.00025846
-0.00112581
-0.00243918
-0.00418989
-0.00627638
-0.00855352
-0.0108775
-0.0131338
-0.0152484
-0.0171828
-0.0189226
-0.0204673
-0.0218217
-0.0229922
-0.0239847
-0.0248041
-0.0254549
-0.0259414
-0.0262683
-0.026441
-0.0264654
-0.0263485
-0.026097
-0.0257177
-0.0252162
-0.0245959
-0.0238564
-0.0229926
-0.0219926
-0.0208374
-0.0195023
-0.0179618
-0.0162022
-0.0142408
-0.0121524
-0.0100952
-0.00832176
-0.00712718
-0.00666505
-0.0067048
-0.00681453
-0.0068765
-0.00691607
-0.00693683
-0.00694093
0.00119
0.00109536
0.000923118
0.000634923
0.000141845
-0.000689388
-0.00197905
-0.00375674
-0.00593567
-0.00835819
-0.0108579
-0.0132995
-0.015595
-0.0177012
-0.0196047
-0.021308
-0.0228196
-0.0241486
-0.0253025
-0.026287
-0.0271066
-0.027765
-0.0282658
-0.0286129
-0.0288105
-0.0288633
-0.0287763
-0.0285546
-0.028203
-0.0277252
-0.0271234
-0.0263971
-0.0255419
-0.0245488
-0.0234023
-0.0220805
-0.0205556
-0.0187998
-0.0167986
-0.0145761
-0.0122289
-0.00995824
-0.00807716
-0.00693406
-0.00665399
-0.00682091
-0.00693736
-0.00699913
-0.00703126
-0.0070397
0.00136832
0.00125725
0.00101998
0.000583863
-0.000167647
-0.00136957
-0.00309752
-0.00530292
-0.00782969
-0.0104875
-0.0131133
-0.0155973
-0.0178846
-0.0199594
-0.0218263
-0.023497
-0.0249835
-0.0262952
-0.0274392
-0.0284204
-0.0292427
-0.0299093
-0.0304234
-0.0307882
-0.031007
-0.0310834
-0.0310212
-0.0308238
-0.0304944
-0.0300353
-0.0294476
-0.0287305
-0.0278806
-0.0268914
-0.0257517
-0.024445
-0.0229483
-0.0212327
-0.0192695
-0.0170451
-0.0145933
-0.0120391
-0.0096378
-0.00776989
-0.00681921
-0.00679858
-0.00701986
-0.00710866
-0.00715133
-0.00716434
0.00141075
0.00127478
0.000948263
0.000327435
-0.000719475
-0.00230576
-0.00444208
-0.0070022
-0.00978076
-0.0125795
-0.0152566
-0.0177355
-0.0199916
-0.0220293
-0.023863
-0.0255078
-0.0269759
-0.0282757
-0.0294133
-0.0303931
-0.0312185
-0.0318926
-0.0324182
-0.032798
-0.0330349
-0.0331315
-0.0330905
-0.0329143
-0.0326046
-0.0321626
-0.0315883
-0.0308806
-0.0300363
-0.0290505
-0.0279155
-0.0266202
-0.0251484
-0.0234772
-0.0215768
-0.0194166
-0.0169846
-0.0143289
-0.0116156
-0.0091732
-0.00745983
-0.00685232
-0.00709058
-0.00724679
-0.00730684
-0.00732681
0.00125192
0.00108191
0.000646987
-0.000179459
-0.00152936
-0.0034754
-0.00595611
-0.00878054
-0.0117175
-0.0145803
-0.0172577
-0.0197055
-0.0219224
-0.0239244
-0.0257299
-0.027354
-0.0288075
-0.0300977
-0.03123
-0.0322084
-0.0330361
-0.0337162
-0.0342513
-0.0346437
-0.0348959
-0.0350099
-0.0349874
-0.03483
-0.0345384
-0.0341131
-0.0335533
-0.0328572
-0.0320219
-0.0310431
-0.0299148
-0.0286296
-0.0271769
-0.0255417
-0.0237011
-0.0216231
-0.0192735
-0.0166433
-0.0138048
-0.0109881
-0.00862373
-0.00724512
-0.0071083
-0.00742624
-0.00750748
-0.00753945
0.00084612
0.000635424
8.2859e-05
-0.00095001
-0.00258161
-0.00483351
-0.00757651
-0.010574
-0.0135896
-0.0164602
-0.0191067
-0.0215112
-0.0236876
-0.025657
-0.027438
-0.029044
-0.0304844
-0.0317655
-0.0328921
-0.0338683
-0.0346973
-0.035382
-0.0359249
-0.0363282
-0.0365937
-0.0367228
-0.0367167
-0.0365762
-0.0363015
-0.0358922
-0.0353473
-0.0346649
-0.0338418
-0.0328742
-0.0317572
-0.0304849
-0.0290505
-0.0274443
-0.0256518
-0.0236486
-0.0213979
-0.0188605
-0.0160356
-0.0130404
-0.0102077
-0.00810205
-0.00728293
-0.0076139
-0.00775223
-0.00781309
0.000178432
-7.52998e-05
-0.000743085
-0.00196428
-0.00383434
-0.0063218
-0.00924175
-0.0123314
-0.0153641
-0.018205
-0.0208032
-0.02316
-0.0252969
-0.027236
-0.0289942
-0.030583
-0.0320102
-0.0332816
-0.034402
-0.0353752
-0.0362047
-0.036893
-0.0374427
-0.0378554
-0.0381326
-0.0382752
-0.0382839
-0.0381588
-0.0378998
-0.0375061
-0.0369763
-0.0363085
-0.0354998
-0.0345466
-0.0334446
-0.0321892
-0.030775
-0.029196
-0.0274435
-0.025502
-0.0233426
-0.0209198
-0.0181896
-0.0151736
-0.0120749
-0.00938636
-0.00780973
-0.00772139
-0.00807695
-0.00816933
-0.000732352
-0.00102695
-0.00179734
-0.00317515
-0.00522828
-0.00787728
-0.0108966
-0.0140137
-0.01702
-0.0198083
-0.02235
-0.0246581
-0.0267568
-0.0286669
-0.0304026
-0.0319739
-0.0333874
-0.0346486
-0.0357622
-0.036732
-0.0375613
-0.0382527
-0.0388082
-0.0392294
-0.0395171
-0.0396719
-0.0396939
-0.0395831
-0.0393387
-0.0389597
-0.0384449
-0.0377921
-0.0369989
-0.0360622
-0.0349782
-0.0337429
-0.0323519
-0.0308009
-0.029085
-0.0271955
-0.0251139
-0.022802
-0.0202016
-0.01727
-0.0140856
-0.0110078
-0.00875138
-0.00804128
-0.00856833
-0.00864624
-0.00183859
-0.0021684
-0.00302205
-0.00451796
-0.00669637
-0.00943884
-0.012494
-0.0155913
-0.0185436
-0.0212671
-0.0237493
-0.0260093
-0.028071
-0.0299524
-0.0316656
-0.0332187
-0.0346181
-0.0358688
-0.0369753
-0.0379414
-0.0387704
-0.0394644
-0.0400253
-0.0404541
-0.0407514
-0.0409173
-0.0409517
-0.0408538
-0.040623
-0.040258
-0.0397574
-0.0391194
-0.0383419
-0.0374224
-0.0363578
-0.0351447
-0.0337795
-0.0322588
-0.0305794
-0.0287371
-0.026722
-0.0245087
-0.0220439
-0.0192547
-0.0161235
-0.012858
-0.0100839
-0.00871995
-0.00902617
-0.00919232
-0.00307352
-0.00343088
-0.0043457
-0.00592083
-0.0081717
-0.0109514
-0.0139953
-0.0170418
-0.0199246
-0.0225787
-0.0250018
-0.0272151
-0.0292407
-0.0310937
-0.0327842
-0.0343191
-0.0357042
-0.0369443
-0.0380439
-0.0390064
-0.039835
-0.0405314
-0.0410973
-0.0415332
-0.0418393
-0.0420155
-0.0420611
-0.0419752
-0.0417568
-0.0414047
-0.0409175
-0.0402937
-0.0395314
-0.0386289
-0.0375837
-0.0363935
-0.0350553
-0.0335666
-0.031925
-0.0301287
-0.028174
-0.0260473
-0.0237096
-0.0210855
-0.0180977
-0.0148111
-0.0116788
-0.00963366
-0.00940711
-0.00987439
-0.00436247
-0.00473908
-0.00569349
-0.00731315
-0.00959306
-0.0123679
-0.015369
-0.0183473
-0.0211548
-0.0237399
-0.0261062
-0.0282751
-0.0302659
-0.0320911
-0.0337592
-0.0352762
-0.0366473
-0.0378773
-0.0389702
-0.0399295
-0.0407577
-0.0414566
-0.0420271
-0.0424697
-0.042784
-0.0429695
-0.0430254
-0.0429504
-0.0427434
-0.042403
-0.0419281
-0.0413172
-0.0405691
-0.0396825
-0.0386561
-0.0374881
-0.0361768
-0.0347205
-0.0331176
-0.0313677
-0.0294707
-0.0274222
-0.0252
-0.0227428
-0.0199521
-0.0167908
-0.0135335
-0.0110186
-0.0102893
-0.0110189
-0.00563287
-0.00602053
-0.0069955
-0.00863166
-0.0109081
-0.0136498
-0.0165903
-0.0194937
-0.0222265
-0.0247465
-0.0270602
-0.0291876
-0.0311454
-0.0329441
-0.0345907
-0.0360906
-0.0374486
-0.0386691
-0.0397561
-0.0407127
-0.0415409
-0.0422423
-0.0428174
-0.0432661
-0.0435881
-0.0437822
-0.0438473
-0.0437821
-0.0435852
-0.0432553
-0.0427911
-0.0421917
-0.0414562
-0.040584
-0.0395745
-0.0384272
-0.0371414
-0.0357164
-0.0341518
-0.0324481
-0.0306075
-0.028632
-0.0265142
-0.0242145
-0.0216427
-0.0187106
-0.0155572
-0.0128931
-0.0118942
-0.0126512
-0.00682165
-0.00721243
-0.00819214
-0.00982385
-0.0120749
-0.0147668
-0.0176396
-0.0204692
-0.0231329
-0.0255942
-0.0278606
-0.0299503
-0.0318777
-0.0336518
-0.0352785
-0.0367627
-0.0381089
-0.0393212
-0.0404032
-0.0413576
-0.0421864
-0.0428904
-0.04347
-0.0439247
-0.0442536
-0.0444555
-0.044529
-0.0444723
-0.0442842
-0.0439631
-0.0435081
-0.0429183
-0.0421934
-0.0413334
-0.0403385
-0.0392093
-0.0379464
-0.0365504
-0.0350221
-0.033363
-0.031577
-0.0296701
-0.0276459
-0.0254872
-0.0231273
-0.0204644
-0.0175422
-0.0149172
-0.0137412
-0.0143174
-0.00787955
-0.00826541
-0.00923685
-0.0108493
-0.0130615
-0.0156964
-0.0185019
-0.0212642
-0.0238675
-0.0262783
-0.0285037
-0.0305604
-0.0324609
-0.0342131
-0.0358223
-0.0372928
-0.0386288
-0.0398343
-0.0409124
-0.0418656
-0.0426954
-0.0434025
-0.0439866
-0.044447
-0.0447824
-0.0449913
-0.045072
-0.0450227
-0.0448418
-0.0445278
-0.0440799
-0.0434976
-0.0427808
-0.0419303
-0.0409471
-0.0398328
-0.0385893
-0.0372185
-0.0357228
-0.034105
-0.03237
-0.0305264
-0.0285851
-0.0265466
-0.0243712
-0.0219634
-0.0192964
-0.0167591
-0.0153787
-0.015634
-0.00877284
-0.00914499
-0.0100968
-0.0116797
-0.0138458
-0.0164225
-0.0191664
-0.0218711
-0.0244248
-0.0267945
-0.0289863
-0.0310153
-0.0328931
-0.0346268
-0.0362212
-0.0376804
-0.0390084
-0.0402087
-0.0412844
-0.0422375
-0.0430691
-0.0437796
-0.0443683
-0.0448343
-0.0451758
-0.045391
-0.0454778
-0.0454345
-0.0452591
-0.0449503
-0.0445073
-0.0439299
-0.0432184
-0.0423742
-0.0413991
-0.0402957
-0.0390673
-0.0377171
-0.036249
-0.0346672
-0.0329777
-0.0311905
-0.0293206
-0.0273804
-0.0253535
-0.0231588
-0.0207173
-0.0182526
-0.0166269
-0.0164754
-0.00948281
-0.00983114
-0.0107524
-0.0122976
-0.0144139
-0.016935
-0.0196255
-0.0222843
-0.0248002
-0.027139
-0.0293052
-0.0313127
-0.0331726
-0.0348916
-0.0364746
-0.0379253
-0.0392475
-0.0404447
-0.0415195
-0.0424737
-0.0433081
-0.0440226
-0.0446162
-0.0450876
-0.0454347
-0.0456554
-0.0457474
-0.0457086
-0.045537
-0.0452313
-0.0447908
-0.0442153
-0.0435059
-0.0426644
-0.0416933
-0.0405964
-0.0393779
-0.0380427
-0.036596
-0.0350435
-0.0333924
-0.0316533
-0.0298431
-0.0279809
-0.0260677
-0.0240397
-0.0217821
-0.0193707
-0.0174867
-0.0169002
-0.0100037
-0.0103166
-0.0111955
-0.0126956
-0.0147599
-0.0172289
-0.0198752
-0.0225
-0.0249903
-0.0273088
-0.0294577
-0.0314503
-0.0332974
-0.0350062
-0.0365812
-0.0380265
-0.0393457
-0.040542
-0.0416177
-0.0425745
-0.0434127
-0.0441319
-0.0447309
-0.0452077
-0.0455602
-0.0457857
-0.0458818
-0.045846
-0.0456764
-0.0453715
-0.0449307
-0.0443543
-0.0436434
-0.0428004
-0.0418289
-0.0407333
-0.0395192
-0.0381925
-0.0367602
-0.0352293
-0.033608
-0.0319077
-0.0301456
-0.0283443
-0.0265164
-0.0246163
-0.0225115
-0.0201564
-0.0180506
-0.0170534
-0.0103396
-0.0106045
-0.0114281
-0.0128747
-0.0148843
-0.0173042
-0.0199143
-0.0225164
-0.0249928
-0.0273014
-0.0294417
-0.0314262
-0.0332661
-0.034969
-0.0365401
-0.0379833
-0.0393023
-0.0405
-0.0415787
-0.0425397
-0.043383
-0.0441079
-0.0447127
-0.0451953
-0.0455529
-0.0457826
-0.0458817
-0.0458476
-0.0456781
-0.0453717
-0.0449279
-0.0443471
-0.0436309
-0.0427822
-0.0418053
-0.0407055
-0.0394894
-0.0381644
-0.0367387
-0.0352207
-0.0336202
-0.0319487
-0.0302239
-0.0284695
-0.0267063
-0.0249065
-0.0229369
-0.0206639
-0.0184145
-0.0170734
-0.0105015
-0.010706
-0.0114604
-0.0128435
-0.0147938
-0.0171654
-0.019745
-0.0223335
-0.0248066
-0.0271153
-0.0292554
-0.0312386
-0.0330769
-0.0347787
-0.0363497
-0.0377943
-0.0391161
-0.040318
-0.0414021
-0.0423691
-0.0432191
-0.0439508
-0.0445623
-0.0450509
-0.0454136
-0.0456471
-0.0457484
-0.0457145
-0.0455433
-0.045233
-0.0447833
-0.0441947
-0.0434692
-0.0426102
-0.0416226
-0.0405126
-0.0392879
-0.037957
-0.0365296
-0.0350155
-0.0334257
-0.0317728
-0.0300746
-0.0283557
-0.0266428
-0.0249251
-0.0230827
-0.0209278
-0.018634
-0.0170414
-0.0105045
-0.0106386
-0.0113102
-0.012618
-0.0145016
-0.0168218
-0.0193727
-0.0219537
-0.0244317
-0.0267493
-0.0288973
-0.030886
-0.0327282
-0.0344335
-0.0360085
-0.0374582
-0.0387861
-0.039995
-0.0410869
-0.0420623
-0.0429208
-0.0436608
-0.04428
-0.0447754
-0.0451433
-0.0453804
-0.0454831
-0.0454483
-0.0452735
-0.0449571
-0.0444986
-0.0438987
-0.0431598
-0.0422857
-0.0412819
-0.0401554
-0.0389149
-0.0375701
-0.0361321
-0.0346121
-0.0330226
-0.0313775
-0.0296953
-0.0280018
-0.0263285
-0.0246805
-0.02296
-0.0209556
-0.018714
-0.01697
-0.0103671
-0.010426
-0.0110029
-0.0122215
-0.0140272
-0.0162883
-0.018807
-0.0213817
-0.0238698
-0.0262033
-0.0283661
-0.0303666
-0.032218
-0.0339314
-0.0355146
-0.0369729
-0.0383104
-0.0395297
-0.0406323
-0.0416187
-0.042488
-0.0432382
-0.0438666
-0.0443697
-0.0447435
-0.0449842
-0.0450879
-0.0450511
-0.0448713
-0.0445465
-0.0440764
-0.0434617
-0.0427052
-0.041811
-0.0407852
-0.0396356
-0.0383719
-0.0370048
-0.0355467
-0.0340104
-0.0324101
-0.0307612
-0.0290838
-0.0274053
-0.0257618
-0.0241732
-0.0225679
-0.0207344
-0.0186221
-0.0168192
-0.0101122
-0.0100992
-0.0105725
-0.0116862
-0.013398
-0.0155856
-0.0180617
-0.0206252
-0.0231239
-0.0254772
-0.0276604
-0.0296782
-0.0315439
-0.0332699
-0.0348653
-0.0363363
-0.0376871
-0.0389202
-0.0400371
-0.0410376
-0.0419205
-0.0426834
-0.043323
-0.0438353
-0.0442161
-0.0444608
-0.0445653
-0.0445259
-0.0443396
-0.0440046
-0.0435202
-0.0428874
-0.0421091
-0.0411899
-0.0401363
-0.0389568
-0.0376619
-0.0362635
-0.0347754
-0.0332118
-0.0315886
-0.0299233
-0.0282382
-0.0265632
-0.0249391
-0.023399
-0.0218981
-0.0202405
-0.0183074
-0.0165209
-0.00977048
-0.00969815
-0.0100623
-0.0110529
-0.0126487
-0.0147412
-0.0171561
-0.0196957
-0.022199
-0.0245717
-0.0267784
-0.0288179
-0.0307024
-0.0324454
-0.0340573
-0.0355451
-0.0369134
-0.0381647
-0.0392998
-0.0403183
-0.0412184
-0.041997
-0.0426505
-0.0431743
-0.0435635
-0.0438133
-0.0439191
-0.0438767
-0.0436831
-0.0433361
-0.042835
-0.042181
-0.041377
-0.0404277
-0.0393404
-0.038124
-0.0367899
-0.0353509
-0.033822
-0.0322191
-0.0305599
-0.0288643
-0.0271572
-0.0254723
-0.0238551
-0.0223507
-0.0209392
-0.0194492
-0.0177178
-0.0160022
-0.00938186
-0.00927143
-0.0095236
-0.0103698
-0.0118216
-0.0137893
-0.0161151
-0.0186086
-0.0211026
-0.0234886
-0.0257179
-0.0277816
-0.0296888
-0.0314531
-0.033086
-0.0345954
-0.035986
-0.0372603
-0.0384186
-0.0394599
-0.0403816
-0.0411801
-0.041851
-0.0423891
-0.0427892
-0.0430457
-0.0431537
-0.0431087
-0.0429073
-0.0425471
-0.0420275
-0.0413494
-0.0405158
-0.0395318
-0.0384049
-0.0371446
-0.0357628
-0.0342734
-0.0326924
-0.0310373
-0.0293278
-0.0275864
-0.0258413
-0.0241306
-0.0225052
-0.0210215
-0.0196809
-0.0183401
-0.0168102
-0.0151999
-0.00899079
-0.00886749
-0.00900801
-0.00968831
-0.0109635
-0.0127698
-0.0149698
-0.017385
-0.0198457
-0.0222307
-0.0244768
-0.0265641
-0.0284967
-0.0302865
-0.0319453
-0.0334816
-0.0349005
-0.0362038
-0.0373915
-0.0384615
-0.0394105
-0.040234
-0.0409269
-0.0414834
-0.0418975
-0.0421633
-0.0422753
-0.0422286
-0.0420196
-0.0416456
-0.0411059
-0.0404012
-0.0395347
-0.0385115
-0.0373394
-0.036028
-0.0345901
-0.0330401
-0.0313951
-0.029674
-0.0278986
-0.0260943
-0.024293
-0.0225385
-0.0208874
-0.0194072
-0.0181168
-0.0169011
-0.0155559
-0.0140684
-0.00863285
-0.00851785
-0.00855603
-0.00905496
-0.010122
-0.011727
-0.0137573
-0.0160517
-0.0184439
-0.0208036
-0.0230528
-0.0251586
-0.027117
-0.0289361
-0.0306264
-0.0321964
-0.0336506
-0.0349906
-0.0362153
-0.0373216
-0.038305
-0.0391603
-0.0398812
-0.0404612
-0.0408938
-0.0411723
-0.0412909
-0.0412444
-0.0410287
-0.0406409
-0.0400802
-0.0393472
-0.0384449
-0.0373784
-0.0361556
-0.0347864
-0.0332837
-0.0316627
-0.0299411
-0.0281394
-0.0262812
-0.0243954
-0.022518
-0.0206997
-0.0190033
-0.0175077
-0.0162458
-0.0151288
-0.0139408
-0.0125812
-0.00832266
-0.00822611
-0.00818738
-0.00850498
-0.00934132
-0.0107071
-0.01252
-0.0146423
-0.016919
-0.0192167
-0.0214451
-0.0235575
-0.0255387
-0.0273899
-0.0291182
-0.03073
-0.032229
-0.0336153
-0.0348868
-0.0360389
-0.0370659
-0.0379612
-0.0387177
-0.0393279
-0.0397845
-0.0400805
-0.0402094
-0.0401657
-0.0399451
-0.0395445
-0.0389627
-0.0382001
-0.0372597
-0.0361464
-0.034868
-0.0334344
-0.0318586
-0.030156
-0.028345
-0.0264473
-0.0244884
-0.0225012
-0.0205263
-0.0186225
-0.0168598
-0.0153294
-0.0140742
-0.0130298
-0.0119647
-0.0107291
-0.00805865
-0.00798093
-0.0079035
-0.00806004
-0.0086589
-0.00975621
-0.0113053
-0.0131982
-0.0153006
-0.0174853
-0.0196559
-0.0217531
-0.0237481
-0.025632
-0.0274048
-0.0290687
-0.0306243
-0.0320697
-0.0334006
-0.0346108
-0.0356929
-0.0366388
-0.0374404
-0.0380891
-0.038577
-0.0388964
-0.0390406
-0.0390036
-0.0387809
-0.0383691
-0.0377669
-0.0369744
-0.0359945
-0.0348316
-0.0334934
-0.0319894
-0.0303324
-0.0285379
-0.0266244
-0.0246151
-0.0225372
-0.0204281
-0.0183334
-0.0163218
-0.0144708
-0.0128859
-0.0116161
-0.0106197
-0.00963894
-0.00851712
-0.00783659
-0.00777525
-0.00769293
-0.00772799
-0.00810301
-0.00891783
-0.0101633
-0.0117673
-0.0136266
-0.0156329
-0.0176934
-0.0197404
-0.0217319
-0.0236451
-0.0254687
-0.0271967
-0.0288241
-0.0303447
-0.0317513
-0.033035
-0.0341866
-0.0351963
-0.0360547
-0.0367521
-0.0372801
-0.0376304
-0.037796
-0.0377706
-0.0375497
-0.0371294
-0.0365085
-0.0356867
-0.0346666
-0.0334522
-0.0320507
-0.030471
-0.0287256
-0.0268295
-0.0248012
-0.0226652
-0.02045
-0.0181987
-0.0159619
-0.0138205
-0.0118591
-0.0102009
-0.00889521
-0.00792386
-0.00698385
-0.00595996
-0.00765391
-0.0076058
-0.00753411
-0.00750086
-0.0076894
-0.00822844
-0.00914342
-0.0104021
-0.0119432
-0.0136921
-0.0155732
-0.0175196
-0.019478
-0.0214098
-0.0232879
-0.0250931
-0.0268104
-0.0284267
-0.0299295
-0.0313065
-0.0325457
-0.0336355
-0.034565
-0.0353238
-0.0359027
-0.036293
-0.0364877
-0.0364801
-0.0362659
-0.0358409
-0.0352041
-0.0343545
-0.0332948
-0.032028
-0.0305609
-0.0289017
-0.0270617
-0.0250558
-0.0229017
-0.0206254
-0.0182565
-0.0158448
-0.0134449
-0.0111533
-0.00905969
-0.00730988
-0.00594559
-0.00497666
-0.00402588
-0.00307623
-0.00750868
-0.0074691
-0.00740967
-0.00735827
-0.00741885
-0.00771252
-0.00828859
-0.00915462
-0.0103015
-0.0117046
-0.0133228
-0.0151024
-0.0169849
-0.0189154
-0.0208468
-0.0227412
-0.0245685
-0.0263042
-0.027928
-0.0294221
-0.0307709
-0.0319604
-0.0329783
-0.0338131
-0.0344556
-0.0348965
-0.0351293
-0.0351469
-0.0349456
-0.0345208
-0.0338718
-0.0329972
-0.0318993
-0.0305806
-0.0290471
-0.027306
-0.0253675
-0.0232461
-0.020958
-0.0185317
-0.0159963
-0.01341
-0.0108296
-0.0083707
-0.0061235
-0.00426389
-0.00281316
-0.00182034
-0.000792901
0.000120806
-0.00739862
-0.00736436
-0.00731783
-0.0072795
-0.00727768
-0.00737567
-0.00762479
-0.00806629
-0.0087498
-0.00971694
-0.0109796
-0.0125127
-0.0142622
-0.0161593
-0.0181347
-0.0201264
-0.0220832
-0.023964
-0.0257369
-0.0273756
-0.0288599
-0.0301722
-0.0312989
-0.0322273
-0.0329483
-0.0334524
-0.0337338
-0.0337854
-0.0336043
-0.0331858
-0.0325297
-0.0316339
-0.0305011
-0.0291328
-0.0275341
-0.0257117
-0.0236739
-0.0214357
-0.0190106
-0.0164308
-0.0137225
-0.0109555
-0.00818289
-0.00554544
-0.00312272
-0.00113344
0.000443854
0.00149885
0.0026945
0.0036411
-0.00731448
-0.00728869
-0.00726433
-0.00725454
-0.00723882
-0.0071974
-0.00714875
-0.00715465
-0.00732392
-0.00777659
-0.00859512
-0.00979965
-0.0113516
-0.0131739
-0.0151747
-0.0172643
-0.0193651
-0.0214142
-0.0233632
-0.0251748
-0.0268216
-0.0282812
-0.0295386
-0.0305793
-0.0313951
-0.031976
-0.0323178
-0.0324131
-0.0322607
-0.0318555
-0.0311984
-0.0302871
-0.0291242
-0.0277108
-0.0260511
-0.0241521
-0.0220189
-0.0196693
-0.0171113
-0.0143848
-0.011507
-0.00856543
-0.00559726
-0.00277905
-0.000156463
0.00198709
0.00375458
0.00493913
0.0064392
0.00755581
-0.00723206
-0.00722854
-0.0072473
-0.00727576
-0.00726052
-0.00712071
-0.00681449
-0.00639822
-0.00603128
-0.0059171
-0.00622211
-0.00702597
-0.00831759
-0.0100189
-0.012018
-0.0141964
-0.016447
-0.0186802
-0.020828
-0.0228372
-0.0246719
-0.0263027
-0.0277126
-0.0288848
-0.0298122
-0.0304841
-0.0308988
-0.0310484
-0.0309343
-0.0305509
-0.0299008
-0.0289815
-0.0277959
-0.0263459
-0.0246334
-0.0226684
-0.0204504
-0.0180047
-0.0153278
-0.012476
-0.00944456
-0.00635252
-0.00319556
-0.00020735
0.00264471
0.004977
0.0070351
0.0084797
0.0104966
0.0120838
-0.00711174
-0.00715916
-0.00724833
-0.00731738
-0.00728747
-0.00705472
-0.0065266
-0.00572814
-0.00484691
-0.00416241
-0.00392864
-0.00429382
-0.00528338
-0.00682579
-0.00879447
-0.0110437
-0.0134373
-0.0158567
-0.0182125
-0.0204324
-0.0224709
-0.0242886
-0.0258672
-0.027185
-0.0282379
-0.0290125
-0.0295114
-0.0297252
-0.0296589
-0.0293064
-0.0286725
-0.0277553
-0.026557
-0.0250833
-0.0233307
-0.0213184
-0.0190332
-0.0165192
-0.0137479
-0.01081
-0.00765386
-0.00445704
-0.00112937
0.00200257
0.00511738
0.00769436
0.0101827
0.0121503
0.0150253
0.0178044
-0.00690025
-0.00703945
-0.00722361
-0.0073242
-0.00725291
-0.00690652
-0.00617104
-0.00504121
-0.00371037
-0.00251071
-0.00177229
-0.00170905
-0.00238932
-0.0037533
-0.00566857
-0.00796563
-0.0104849
-0.0130775
-0.0156356
-0.0180637
-0.020309
-0.0223173
-0.0240716
-0.0255413
-0.0267279
-0.0276122
-0.0282038
-0.0284895
-0.0284801
-0.028168
-0.0275605
-0.0266581
-0.0254601
-0.0239811
-0.0222061
-0.0201741
-0.0178467
-0.015305
-0.0124741
-0.00950584
-0.00626854
-0.00302945
0.000430652
0.00367606
0.00706115
0.0099995
0.0130553
0.0160911
0.0203853
0.0262181
-0.00653135
-0.00680288
-0.00710616
-0.00723142
-0.00709879
-0.00661345
-0.00566589
-0.00424973
-0.00256461
-0.000967461
0.000164184
0.000572943
0.000151806
-0.00105129
-0.00290868
-0.0052309
-0.00784907
-0.0105818
-0.0133157
-0.015924
-0.018358
-0.0205379
-0.0224586
-0.0240691
-0.0253868
-0.0263762
-0.0270631
-0.0274211
-0.0274757
-0.0272094
-0.0266402
-0.0257638
-0.0245843
-0.0231181
-0.0213475
-0.0193223
-0.0169923
-0.0144588
-0.0116261
-0.00866885
-0.00543352
-0.00218214
0.00129412
0.00469175
0.00820729
0.0118053
0.0154429
0.0207266
0.0274268
0.0413026
-0.0059636
-0.00640965
-0.00687748
-0.00704963
-0.00685875
-0.00622368
-0.00506346
-0.00339969
-0.00145501
0.00041038
0.00179246
0.00242948
0.00217603
0.00109157
-0.000727796
-0.00305644
-0.00574962
-0.00857783
-0.0114503
-0.0141929
-0.0167822
-0.0190966
-0.0211604
-0.022885
-0.0243219
-0.0253983
-0.0261797
-0.0265983
-0.0267278
-0.026499
-0.0259929
-0.0251343
-0.0240156
-0.0225503
-0.0208508
-0.0188104
-0.0165798
-0.0140113
-0.0113322
-0.0083033
-0.00530945
-0.00189195
0.00123242
0.00507644
0.0082318
0.0132028
0.0173044
0.0274397
0.0386864
0.0737311
-0.00546576
-0.00608521
-0.00671416
-0.00695535
-0.00670868
-0.0059076
-0.00453112
-0.00264253
-0.000522696
0.00149207
0.00296436
0.00369438
0.00347434
0.00244128
0.000609219
-0.00171659
-0.00446761
-0.0073358
-0.0102999
-0.0131052
-0.0158025
-0.0181806
-0.0203554
-0.0221291
-0.023675
-0.0247772
-0.025668
-0.0260841
-0.026331
-0.0260673
-0.025698
-0.024767
-0.0238207
-0.022237
-0.0207675
-0.0185498
-0.0166369
-0.0138121
-0.0115781
-0.00817949
-0.00579905
-0.00182545
0.000525938
0.00534328
0.00788331
0.0152965
0.020757
0.0405813
0.0627327
0.149697
-0.00716579
-0.00686247
-0.00714891
-0.00720712
-0.00683524
-0.00591092
-0.00441596
-0.00240774
-0.000210986
0.00186392
0.00335895
0.00411456
0.00391499
0.00290366
0.00110432
-0.00121053
-0.00393286
-0.00681261
-0.00976262
-0.0126012
-0.0152972
-0.0177213
-0.0199013
-0.0217246
-0.0232767
-0.0244252
-0.0253203
-0.0257754
-0.0260239
-0.0257887
-0.025419
-0.0245027
-0.023554
-0.0219668
-0.0204915
-0.0182456
-0.0163162
-0.0134281
-0.0111447
-0.00762746
-0.00510186
-0.00089575
0.0018821
0.00730614
0.0112059
0.0211026
0.0319289
0.0664591
0.116864
0.329551
