# vtk DataFile Version 2.0
u_velocity
ASCII
DATASET RECTILINEAR_GRID
DIMENSIONS 52 51 1
X_COORDINATES 52 double
0 0.01 0.03 0.05 0.07 0.09 0.11 0.13 0.15 0.17 0.19 0.21 0.23 0.25 0.27 0.29 0.31 0.33 0.35 0.37 0.39 0.41 0.43 0.45 0.47 0.49 0.51 0.53 0.55 0.57 0.59 0.61 0.63 0.65 0.67 0.69 0.71 0.73 0.75 0.77 0.79 0.81 0.83 0.85 0.87 0.89 0.91 0.93 0.95 0.97 0.99 1 
Y_COORDINATES 51 double
0 0.02 0.04 0.06 0.08 0.1 0.12 0.14 0.16 0.18 0.2 0.22 0.24 0.26 0.28 0.3 0.32 0.34 0.36 0.38 0.4 0.42 0.44 0.46 0.48 0.5 0.52 0.54 0.56 0.58 0.6 0.62 0.64 0.66 0.68 0.7 0.72 0.74 0.76 0.78 0.8 0.82 0.84 0.86 0.88 0.9 0.92 0.94 0.96 0.98 1 
Z_COORDINATES 1 double
0.0

CELL_DATA 2550
SCALARS u_velocity double 1
LOOKUP_TABLE default
0
0.000215529
0.00102158
0.00210837
0.00308245
0.00373097
0.00407099
0.00425408
0.00443108
0.00465177
0.00483911
0.00483542
0.00446367
0.00354455
0.00188781
-0.00067466
-0.00431128
-0.009298
-0.0158877
-0.0240051
-0.0331655
-0.0426152
-0.0514999
-0.0589892
-0.0643536
-0.0670057
-0.0665236
-0.0626692
-0.05541
-0.0449472
-0.0317452
-0.0165545
-0.000408602
0.0154224
0.0295406
0.0405976
0.0475238
0.0497663
0.0474663
0.0415029
0.0333443
0.0246881
0.0169581
0.0109038
0.00658559
0.00368836
0.00182665
0.000681489
4.77251e-05
-0.000151018
0
0
0.000730652
0.00251461
0.0046613
0.0064826
0.00760911
0.00802908
0.00793073
0.00747831
0.00663393
0.00510969
0.0024461
-0.00188285
-0.00842226
-0.0177317
-0.0302017
-0.0455887
-0.0628325
-0.0804601
-0.0971068
-0.11176
-0.123747
-0.132652
-0.13824
-0.140394
-0.139079
-0.134317
-0.126184
-0.114818
-0.100443
-0.083395
-0.0641631
-0.043417
-0.0220221
-0.00102297
0.0184153
0.0351095
0.0479903
0.0562397
0.0594152
0.0575676
0.0513716
0.0421987
0.0319131
0.0222933
0.0144377
0.00862204
0.0045946
0.00196332
0.000460886
0
0
0.00111902
0.00352079
0.00609324
0.00797206
0.00878517
0.00854444
0.00738145
0.00527019
0.00185039
-0.00355949
-0.0118111
-0.0237444
-0.039822
-0.0595274
-0.0813156
-0.103391
-0.1243
-0.143042
-0.159036
-0.172026
-0.181962
-0.188892
-0.192897
-0.194042
-0.192358
-0.18784
-0.180458
-0.170181
-0.157011
-0.141022
-0.122419
-0.101588
-0.0791372
-0.0559062
-0.0329277
-0.0113252
0.00782682
0.0236301
0.0354157
0.0427223
0.0453168
0.0433885
0.0378054
0.0300762
0.0218891
0.0145364
0.00863382
0.0042496
0.00129673
0
0
0.00143883
0.00419396
0.00667076
0.00790028
0.00761476
0.0058759
0.00264779
-0.00251004
-0.0104988
-0.0224237
-0.0390815
-0.0602788
-0.0845116
-0.109639
-0.133851
-0.156003
-0.175501
-0.192115
-0.205832
-0.216758
-0.22505
-0.230865
-0.23433
-0.235525
-0.234473
-0.231139
-0.225431
-0.217212
-0.206313
-0.192574
-0.175896
-0.156323
-0.13413
-0.109919
-0.0846507
-0.0595952
-0.0361376
-0.0154879
0.00157869
0.0147469
0.0239112
0.0289544
0.0299125
0.0273432
0.0223942
0.016447
0.010642
0.00564848
0.00186221
0
0
0.00172446
0.00451744
0.00631091
0.00617382
0.00401253
-0.000144751
-0.00671059
-0.0167135
-0.0314124
-0.0514294
-0.0759546
-0.102852
-0.129742
-0.154922
-0.177471
-0.197008
-0.213484
-0.22703
-0.237875
-0.246286
-0.252536
-0.256876
-0.259514
-0.260601
-0.260219
-0.258367
-0.254955
-0.249792
-0.24258
-0.232924
-0.22037
-0.204479
-0.184957
-0.16183
-0.135635
-0.107549
-0.0793515
-0.0531083
-0.0305791
-0.0126241
0.000884918
0.0104421
0.0162795
0.018501
0.0175645
0.014396
0.0101059
0.00567036
0.00192651
0
0
0.00190954
0.00425585
0.00467186
0.00245087
-0.00235329
-0.00995023
-0.0212821
-0.0376509
-0.0596084
-0.0860228
-0.114386
-0.142125
-0.167538
-0.189782
-0.208555
-0.223913
-0.236115
-0.245536
-0.252594
-0.257708
-0.261262
-0.26359
-0.264963
-0.265584
-0.265588
-0.26503
-0.263878
-0.261985
-0.259063
-0.254651
-0.248101
-0.238589
-0.225214
-0.207173
-0.184049
-0.156168
-0.1249
-0.092716
-0.0627565
-0.0378003
-0.0190569
-0.00587095
0.00306786
0.0084923
0.0107131
0.0102277
0.00786563
0.00462339
0.00157273
0
0
0.00184592
0.00307434
0.00138268
-0.00358142
-0.0117665
-0.0237822
-0.0408158
-0.0634748
-0.0906255
-0.119588
-0.147547
-0.172656
-0.194038
-0.211423
-0.224958
-0.235056
-0.242268
-0.247183
-0.250358
-0.252279
-0.253341
-0.253856
-0.254058
-0.254126
-0.254188
-0.254334
-0.254606
-0.25498
-0.255327
-0.255356
-0.254541
-0.252053
-0.246741
-0.237196
-0.221977
-0.200023
-0.17122
-0.136977
-0.100503
-0.0663271
-0.0387175
-0.0194839
-0.00727342
0.000271431
0.00446077
0.00587863
0.00515441
0.00317954
0.00105931
0
0
0.00134797
0.000696716
-0.00374304
-0.0119763
-0.0241194
-0.0410273
-0.0633823
-0.0903113
-0.11919
-0.146959
-0.171487
-0.19179
-0.207611
-0.219196
-0.227139
-0.232183
-0.235086
-0.236522
-0.237028
-0.237004
-0.236726
-0.236377
-0.236079
-0.23592
-0.23597
-0.236304
-0.236997
-0.238122
-0.239727
-0.241786
-0.24412
-0.246287
-0.247447
-0.246261
-0.240894
-0.229231
-0.209396
-0.180568
-0.143939
-0.103375
-0.0650376
-0.0351081
-0.0161014
-0.00557608
4.66017e-05
0.0025971
0.002953
0.00195872
0.000637815
0
0
0.000260286
-0.00295937
-0.0105748
-0.0223617
-0.0386029
-0.0599135
-0.085828
-0.114052
-0.141397
-0.165355
-0.184722
-0.199239
-0.209238
-0.215483
-0.21891
-0.220424
-0.220784
-0.220544
-0.22007
-0.219575
-0.219165
-0.218889
-0.218761
-0.218795
-0.219007
-0.219435
-0.220136
-0.221192
-0.222707
-0.224792
-0.227529
-0.230897
-0.234638
-0.238073
-0.239891
-0.238026
-0.229791
-0.212429
-0.184191
-0.145777
-0.101603
-0.0596881
-0.0284907
-0.0109206
-0.00272214
0.000788728
0.00176174
0.00132632
0.00045417
0
0
-0.00146172
-0.00770495
-0.0186204
-0.0338739
-0.0537025
-0.0779975
-0.105051
-0.131808
-0.155386
-0.174209
-0.187931
-0.196939
-0.202109
-0.204549
-0.205286
-0.205134
-0.204646
-0.204138
-0.203761
-0.20356
-0.203528
-0.203642
-0.20388
-0.20423
-0.204697
-0.205299
-0.206073
-0.207071
-0.208366
-0.210053
-0.212249
-0.215075
-0.218608
-0.222767
-0.227103
-0.230504
-0.230909
-0.225268
-0.210026
-0.182416
-0.142476
-0.095168
-0.0507423
-0.0201487
-0.00552578
1.50097e-05
0.00157943
0.00136013
0.00053911
0
0
-0.00369998
-0.0130887
-0.0270858
-0.0452888
-0.0676097
-0.0930266
-0.118968
-0.142363
-0.161131
-0.174654
-0.183302
-0.188001
-0.189969
-0.190351
-0.190007
-0.18949
-0.189079
-0.188874
-0.188881
-0.189064
-0.189382
-0.189803
-0.190307
-0.190889
-0.191555
-0.192321
-0.193212
-0.194263
-0.195519
-0.197037
-0.198893
-0.201179
-0.204007
-0.207478
-0.211599
-0.216093
-0.220064
-0.221581
-0.217421
-0.203406
-0.175818
-0.134086
-0.0840123
-0.0387458
-0.011488
-0.00101977
0.00192367
0.00188486
0.000835689
0
0
-0.00618692
-0.0184946
-0.0350422
-0.0553289
-0.0787631
-0.103543
-0.126781
-0.145925
-0.159846
-0.168737
-0.17351
-0.17542
-0.175725
-0.175361
-0.174894
-0.174596
-0.174538
-0.174706
-0.175047
-0.175516
-0.176077
-0.17671
-0.177406
-0.178165
-0.178994
-0.179905
-0.180913
-0.182038
-0.183303
-0.184742
-0.186399
-0.188338
-0.190646
-0.193436
-0.196821
-0.200848
-0.205314
-0.209426
-0.211314
-0.20761
-0.193632
-0.16492
-0.120654
-0.0682826
-0.0249194
-0.00421124
0.00192298
0.00252852
0.00122606
0
0
-0.00857815
-0.0232895
-0.0416388
-0.0629781
-0.0861987
-0.109033
-0.128757
-0.143598
-0.1533
-0.158652
-0.160892
-0.161346
-0.161071
-0.160692
-0.160497
-0.160557
-0.160843
-0.161299
-0.161873
-0.162532
-0.163256
-0.164037
-0.164878
-0.165783
-0.16676
-0.167818
-0.168967
-0.170215
-0.171568
-0.173033
-0.174622
-0.176355
-0.178281
-0.180486
-0.183106
-0.186308
-0.190202
-0.194632
-0.198789
-0.200663
-0.196563
-0.181284
-0.149905
-0.102152
-0.0487152
-0.0117985
0.000492204
0.00281545
0.00156286
0
0
-0.010545
-0.0269592
-0.0462705
-0.0676591
-0.0896173
-0.109754
-0.125816
-0.136845
-0.143267
-0.146235
-0.147089
-0.147011
-0.146752
-0.14665
-0.1468
-0.147171
-0.147701
-0.148338
-0.149046
-0.149812
-0.15063
-0.151503
-0.15244
-0.153447
-0.154534
-0.155708
-0.156977
-0.158347
-0.159819
-0.161393
-0.16306
-0.164811
-0.166638
-0.16856
-0.170643
-0.173039
-0.175977
-0.179669
-0.184036
-0.188189
-0.18976
-0.184421
-0.16631
-0.130477
-0.0786498
-0.0274084
-0.00301571
0.00248062
0.0017629
0
0
-0.0118459
-0.0291874
-0.0486468
-0.0692455
-0.0892554
-0.106434
-0.119133
-0.127101
-0.131216
-0.132782
-0.133059
-0.132969
-0.132968
-0.133192
-0.133628
-0.134211
-0.134889
-0.135626
-0.136411
-0.137245
-0.138132
-0.139082
-0.140102
-0.1412
-0.142379
-0.143646
-0.145005
-0.146458
-0.148007
-0.149651
-0.151383
-0.153191
-0.155057
-0.15696
-0.158895
-0.160906
-0.163137
-0.165854
-0.169365
-0.173655
-0.177687
-0.178506
-0.170816
-0.148013
-0.105985
-0.0510526
-0.00924691
0.00111356
0.00173822
0
0
-0.0123574
-0.029868
-0.0487696
-0.0679636
-0.08568
-0.0999951
-0.10986
-0.115556
-0.118202
-0.119082
-0.119264
-0.11939
-0.119691
-0.120185
-0.12082
-0.121536
-0.122301
-0.123103
-0.123948
-0.124845
-0.125803
-0.126831
-0.127936
-0.129121
-0.130389
-0.131742
-0.133182
-0.134709
-0.136322
-0.138017
-0.139788
-0.141622
-0.143504
-0.145408
-0.147313
-0.14921
-0.151144
-0.153266
-0.15588
-0.159339
-0.163606
-0.167299
-0.166565
-0.154846
-0.125101
-0.0759258
-0.0227187
-0.00141846
0.00167302
0
0
-0.0120692
-0.0290693
-0.0468558
-0.064254
-0.0795948
-0.0913446
-0.098969
-0.103093
-0.104901
-0.105549
-0.10587
-0.106268
-0.106828
-0.107518
-0.108282
-0.109081
-0.109906
-0.110763
-0.111664
-0.112624
-0.113651
-0.114753
-0.115933
-0.117194
-0.118537
-0.119962
-0.121469
-0.123056
-0.124722
-0.126463
-0.128274
-0.130145
-0.132059
-0.13399
-0.135906
-0.137774
-0.139585
-0.141402
-0.143428
-0.146037
-0.149614
-0.153917
-0.156841
-0.153166
-0.135008
-0.096132
-0.0418675
-0.00309815
0.00184658
0
0
-0.0110563
-0.0269762
-0.0432443
-0.0586431
-0.0716981
-0.0812644
-0.0871984
-0.0903003
-0.0916983
-0.0923626
-0.0929023
-0.0935453
-0.0943002
-0.0951222
-0.0959691
-0.0968261
-0.0977006
-0.0986078
-0.0995652
-0.100586
-0.101678
-0.102849
-0.104099
-0.10543
-0.106841
-0.10833
-0.109895
-0.111533
-0.11324
-0.115012
-0.116845
-0.118732
-0.120663
-0.122622
-0.124581
-0.126499
-0.128329
-0.130054
-0.131757
-0.133718
-0.136427
-0.140261
-0.144499
-0.145704
-0.136775
-0.109058
-0.0603365
-0.00973531
-6.98237e-05
0
0
-0.00944599
-0.0238316
-0.0383159
-0.0516491
-0.0625992
-0.0703647
-0.0750632
-0.0775373
-0.0787835
-0.0795736
-0.0803284
-0.0811621
-0.082052
-0.0829598
-0.0838629
-0.0847649
-0.0856836
-0.086639
-0.0876491
-0.0887261
-0.089878
-0.0911087
-0.09242
-0.0938114
-0.0952815
-0.0968276
-0.0984463
-0.100134
-0.101885
-0.103694
-0.105555
-0.107461
-0.109403
-0.11137
-0.113345
-0.1153
-0.11719
-0.118965
-0.120609
-0.122241
-0.124241
-0.127218
-0.131398
-0.135048
-0.132646
-0.115098
-0.0755075
-0.023055
-0.00151866
0
0
-0.00738756
-0.0198911
-0.0324356
-0.0437259
-0.0527835
-0.0590847
-0.0628936
-0.0649999
-0.0662312
-0.0671732
-0.068104
-0.0690722
-0.0700496
-0.0710122
-0.0719546
-0.0728931
-0.0738505
-0.0748485
-0.0759042
-0.0770288
-0.0782293
-0.0795092
-0.0808697
-0.0823102
-0.0838287
-0.0854221
-0.0870867
-0.0888174
-0.0906088
-0.0924549
-0.0943494
-0.0962854
-0.0982554
-0.10025
-0.102256
-0.104249
-0.106196
-0.108042
-0.109737
-0.111291
-0.112911
-0.115126
-0.118602
-0.122959
-0.124568
-0.115085
-0.0849346
-0.035111
0.00116994
0
0
-0.00503137
-0.0153936
-0.025921
-0.0352399
-0.04261
-0.0477177
-0.0508812
-0.0527765
-0.054051
-0.055129
-0.056187
-0.0572414
-0.0582711
-0.0592665
-0.0602359
-0.0612023
-0.0621904
-0.0632218
-0.0643125
-0.065473
-0.06671
-0.0680269
-0.0694251
-0.070904
-0.0724619
-0.0740957
-0.0758012
-0.077573
-0.0794052
-0.0812911
-0.0832233
-0.0851945
-0.0871976
-0.0892252
-0.091269
-0.093315
-0.0953368
-0.0972864
-0.0990962
-0.10071
-0.102199
-0.103928
-0.106645
-0.110791
-0.114495
-0.110931
-0.0894182
-0.0447929
0.00164147
0
0
-0.00251687
-0.0105471
-0.0190293
-0.0264678
-0.0323268
-0.036443
-0.0391218
-0.0408907
-0.0422204
-0.0434013
-0.0445405
-0.0456425
-0.0466978
-0.0477094
-0.0486942
-0.0496783
-0.0506866
-0.0517397
-0.0528526
-0.0540357
-0.0552956
-0.0566362
-0.0580594
-0.0595652
-0.061152
-0.0628172
-0.0645567
-0.0663655
-0.0682378
-0.0701669
-0.0721456
-0.0741661
-0.0762207
-0.0783012
-0.0803996
-0.0825055
-0.084603
-0.0866586
-0.0886147
-0.0903873
-0.0919442
-0.0934598
-0.0955701
-0.099124
-0.10366
-0.1042
-0.0902708
-0.0527844
-0.00403518
0
0
3.15637e-05
-0.00552641
-0.0119596
-0.0176079
-0.0220939
-0.0253576
-0.0276478
-0.0293274
-0.0307013
-0.031949
-0.0331312
-0.0342513
-0.0353118
-0.0363251
-0.0373136
-0.0383038
-0.0393195
-0.0403804
-0.0415011
-0.0426921
-0.0439605
-0.0453111
-0.0467463
-0.0482669
-0.0498723
-0.0515603
-0.0533274
-0.0551692
-0.0570799
-0.0590534
-0.0610825
-0.0631598
-0.065278
-0.0674294
-0.0696069
-0.0718014
-0.0740012
-0.07618
-0.0782938
-0.0802608
-0.0820084
-0.0835669
-0.0853753
-0.0883505
-0.0930229
-0.096315
-0.0888481
-0.0591055
-0.0122875
0
0
0.00250358
-0.000477578
-0.00486238
-0.00879677
-0.012007
-0.014503
-0.0164529
-0.0180515
-0.0194491
-0.0207316
-0.0219273
-0.023043
-0.0240921
-0.0250941
-0.0260737
-0.0270569
-0.0280661
-0.0291201
-0.0302334
-0.031417
-0.032679
-0.0340249
-0.0354585
-0.0369818
-0.0385948
-0.0402966
-0.0420846
-0.0439552
-0.0459034
-0.0479239
-0.05001
-0.0521548
-0.0543507
-0.0565898
-0.0588649
-0.0611677
-0.063491
-0.0658163
-0.0681132
-0.0703068
-0.0723103
-0.0740612
-0.0758182
-0.0783837
-0.0828556
-0.0878475
-0.0856692
-0.0635434
-0.0203316
0
0
0.0047989
0.0044726
0.00214665
-0.000127245
-0.00211945
-0.00388695
-0.00550899
-0.00701687
-0.00841595
-0.00970865
-0.0108969
-0.011992
-0.0130163
-0.0139948
-0.014953
-0.0159156
-0.0169036
-0.0179352
-0.0190251
-0.0201852
-0.0214248
-0.022751
-0.0241688
-0.0256816
-0.0272909
-0.0289969
-0.0307983
-0.0326926
-0.0346761
-0.0367443
-0.0388916
-0.041112
-0.0433988
-0.0457443
-0.0481418
-0.0505819
-0.0530584
-0.0555549
-0.0580541
-0.0604959
-0.0628055
-0.0648708
-0.0668025
-0.0691955
-0.0733772
-0.0792851
-0.0811448
-0.0659036
-0.0272307
0
0
0.00682284
0.00920648
0.00897244
0.00833437
0.00753994
0.00650088
0.00522199
0.00382618
0.00244646
0.00116078
-6.8003e-06
-0.00107011
-0.002059
-0.00300242
-0.00392662
-0.0048546
-0.0058064
-0.00679981
-0.00785016
-0.00897055
-0.0101718
-0.0114626
-0.0128498
-0.0143384
-0.0159319
-0.0176319
-0.019439
-0.021352
-0.0233688
-0.0254861
-0.0276996
-0.0300039
-0.0323935
-0.0348607
-0.0373997
-0.0400002
-0.0426586
-0.0453583
-0.0480904
-0.0508019
-0.0534361
-0.0558634
-0.0581049
-0.0605329
-0.0644561
-0.0707267
-0.0755105
-0.0662211
-0.0324725
0
0
0.00848315
0.0136059
0.0155266
0.0165335
0.0169518
0.0166755
0.0157798
0.0145278
0.0131868
0.0119182
0.0107771
0.0097515
0.00880588
0.00790728
0.00702885
0.00614871
0.00524779
0.00430837
0.0033142
0.00225061
0.00110481
-0.000134071
-0.00147498
-0.0029251
-0.00448988
-0.00617318
-0.0079773
-0.00990312
-0.0119502
-0.0141167
-0.0164002
-0.0187962
-0.0213007
-0.0239063
-0.0266084
-0.0293949
-0.0322633
-0.0351949
-0.0381886
-0.0411979
-0.0441874
-0.047023
-0.0496755
-0.0523171
-0.0560958
-0.062373
-0.0690805
-0.0646972
-0.0359962
0
0
0.00969041
0.0175455
0.0217162
0.0244148
0.0260947
0.0266475
0.0261987
0.0251338
0.0238518
0.0226052
0.0214904
0.0205037
0.0196062
0.0187611
0.0179398
0.017121
0.0162857
0.015416
0.0144944
0.0135043
0.0124307
0.0112602
0.00998145
0.00858464
0.00706185
0.00540678
0.00361472
0.00168258
-0.000391349
-0.00260708
-0.00496393
-0.00745855
-0.0100888
-0.0128468
-0.0157303
-0.018725
-0.0218312
-0.0250258
-0.0283127
-0.0316437
-0.0350032
-0.0382603
-0.0413733
-0.0443551
-0.048133
-0.0542587
-0.0621578
-0.0617142
-0.0379434
0
0
0.0103638
0.0208898
0.0274338
0.0319118
0.0349346
0.0364132
0.0365012
0.0356831
0.0344856
0.0332637
0.0321693
0.0312173
0.0303689
0.0295828
0.028828
0.028082
0.027326
0.0265412
0.0257087
0.0248096
0.0238261
0.0227418
0.0215422
0.0202146
0.018748
0.0171334
0.0153632
0.013432
0.0113354
0.00907162
0.00663883
0.00403948
0.00127322
-0.00165148
-0.00473492
-0.0079599
-0.0113295
-0.014815
-0.0184264
-0.0221115
-0.0258726
-0.0295788
-0.0331962
-0.0366204
-0.0405567
-0.0465015
-0.0550534
-0.0576976
-0.0386256
0
0
0.0104439
0.0234972
0.032552
0.0389373
0.0434164
0.0459473
0.0466902
0.0462006
0.0451253
0.0439336
0.0428511
0.0419249
0.0411226
0.0403996
0.0397202
0.0390595
0.038397
0.0377125
0.0369852
0.0361937
0.0353171
0.0343356
0.0332313
0.0319881
0.0305917
0.0290299
0.0272919
0.0253695
0.0232552
0.0209453
0.0184349
0.015726
0.012815
0.00971172
0.00641225
0.00293748
-0.000719974
-0.00452376
-0.00848966
-0.0125554
-0.0167402
-0.0209113
-0.0250597
-0.0289998
-0.033252
-0.0391098
-0.0480249
-0.0530801
-0.0383845
0
0
0.00991405
0.0252297
0.0369194
0.0453756
0.051455
0.055193
0.0567414
0.0566924
0.0557978
0.0546508
0.0535717
0.0526582
0.0518939
0.0512326
0.0506336
0.0500671
0.0495099
0.04894
0.0483339
0.0476673
0.0469157
0.0460554
0.0450644
0.0439226
0.0426119
0.0411163
0.0394217
0.0375168
0.0353906
0.0330375
0.0304492
0.0276272
0.024564
0.0212715
0.0177411
0.0139988
0.0100315
0.00588484
0.00153462
-0.00294441
-0.00758917
-0.0122574
-0.0169737
-0.0214968
-0.0262134
-0.0321251
-0.0412599
-0.0482101
-0.0375601
0
0
0.00882837
0.0259696
0.0403603
0.0510733
0.0589262
0.0640534
0.0665914
0.0671327
0.0665098
0.0654423
0.0643658
0.0634513
0.0627137
0.0621116
0.0615982
0.0611371
0.0606995
0.0602595
0.0597906
0.0592648
0.058654
0.0579304
0.0570677
0.0560417
0.05483
0.0534129
0.0517721
0.0498934
0.0477616
0.0453695
0.042704
0.0397672
0.0365466
0.0330571
0.0292838
0.0252593
0.0209626
0.0164509
0.0116898
0.00677106
0.00163749
-0.00355453
-0.00887302
-0.0140363
-0.0193566
-0.0255113
-0.0348747
-0.0433542
-0.0364262
0
0
0.0073402
0.025639
0.0426756
0.05583
0.0656549
0.0723795
0.0761278
0.0774549
0.0772386
0.0763175
0.0752596
0.0743344
0.073608
0.0730542
0.0726237
0.0722721
0.0719634
0.0716664
0.07135
0.0709822
0.0705304
0.0699621
0.0692462
0.0683535
0.067257
0.065933
0.0643583
0.0625161
0.0603862
0.0579604
0.0552202
0.0521692
0.0487881
0.0450964
0.0410709
0.0367529
0.0321106
0.0272155
0.0220183
0.0166309
0.0109708
0.00521599
-0.000751966
-0.00661591
-0.0126662
-0.0192468
-0.0289139
-0.0386733
-0.0351957
0
0
0.00571342
0.0242207
0.0436477
0.0593901
0.0714064
0.0799608
0.0851723
0.0875308
0.0879144
0.0872572
0.086267
0.085338
0.0846142
0.084102
0.083756
0.0835236
0.0833585
0.0832209
0.0830733
0.0828787
0.0825997
0.0821996
0.0816422
0.0808941
0.0799231
0.0787019
0.0772021
0.0754046
0.0732833
0.0708299
0.0680188
0.0648564
0.0613145
0.0574191
0.053136
0.0485178
0.0435179
0.0382257
0.0325716
0.0266934
0.0204754
0.014124
0.00745871
0.000835089
-0.00606627
-0.0132636
-0.0233778
-0.0342537
-0.0340079
0
0
0.00426154
0.0217746
0.0430544
0.0614411
0.0758747
0.086514
0.0934741
0.0971594
0.0984009
0.0981907
0.097369
0.096472
0.0957496
0.0952646
0.0949904
0.0948724
0.0948549
0.0948875
0.0949242
0.0949209
0.0948342
0.0946218
0.094242
0.0936568
0.0928281
0.0917254
0.0903139
0.0885734
0.0864704
0.0839984
0.0811226
0.0778546
0.0741547
0.0700585
0.0655165
0.0605966
0.0552317
0.0495344
0.0434062
0.037016
0.0302039
0.0232141
0.0157912
0.00834205
0.000474823
-0.00750626
-0.0182269
-0.0301119
-0.0329521
0
0
0.00315605
0.0184652
0.040716
0.0616331
0.0786871
0.0916796
0.100693
0.106044
0.108473
0.108976
0.108501
0.107733
0.107055
0.106614
0.106422
0.10643
0.106575
0.106795
0.107032
0.107234
0.10735
0.107334
0.107138
0.106721
0.106038
0.105058
0.103739
0.102061
0.0999808
0.0974968
0.094562
0.0911962
0.087344
0.0830545
0.0782571
0.0730404
0.0673092
0.0612054
0.0545911
0.0476747
0.0402365
0.0325706
0.0243269
0.0159833
0.00703188
-0.001896
-0.013409
-0.0262244
-0.0320714
0
0
0.00229252
0.0146112
0.0365914
0.0596347
0.0794186
0.0950251
0.106405
0.113786
0.117789
0.11936
0.119503
0.119034
0.118483
0.11811
0.117996
0.118122
0.118427
0.11884
0.119292
0.119719
0.120062
0.120265
0.120275
0.120048
0.119531
0.118692
0.117481
0.11588
0.113837
0.111355
0.108372
0.104922
0.100928
0.0964583
0.0914143
0.0859129
0.07982
0.073316
0.0662076
0.0587536
0.0506527
0.0422659
0.0331232
0.0238062
0.0136469
0.00363139
-0.00886001
-0.0225327
-0.0313838
0
0
0.00150957
0.0107612
0.0309263
0.0552413
0.0776463
0.0960584
0.110097
0.119876
0.125882
0.128959
0.13011
0.130247
0.130036
0.129868
0.129915
0.130207
0.130701
0.131326
0.132005
0.132665
0.133236
0.133658
0.13387
0.133827
0.133468
0.132765
0.131655
0.130131
0.128122
0.125646
0.122621
0.119098
0.114972
0.110339
0.105062
0.0992961
0.0928517
0.0859612
0.0783534
0.0703545
0.061552
0.0523994
0.0422695
0.0318937
0.0203881
0.0091513
-0.00452087
-0.0189581
-0.0308843
0
0
0.000822014
0.00746044
0.024359
0.0485218
0.0730361
0.0942781
0.111194
0.123696
0.132133
0.137206
0.139841
0.140979
0.141393
0.141608
0.141913
0.142418
0.143126
0.143982
0.144908
0.145825
0.146653
0.147325
0.147769
0.147939
0.147765
0.147224
0.146238
0.144814
0.142859
0.140414
0.137364
0.133794
0.129556
0.124789
0.119298
0.113296
0.106513
0.0992557
0.0911415
0.0825903
0.0730353
0.063062
0.0518339
0.0403024
0.0272937
0.0147258
-0.000334423
-0.0153971
-0.0305555
0
0
0.000292151
0.0048641
0.0178302
0.0400043
0.0655023
0.0892372
0.109091
0.124562
0.135814
0.143397
0.148113
0.150856
0.152434
0.153465
0.154344
0.155274
0.156324
0.15748
0.158682
0.15986
0.16093
0.161831
0.162478
0.162835
0.162815
0.162411
0.161524
0.160184
0.158267
0.155849
0.152771
0.149164
0.144821
0.139944
0.134254
0.128046
0.120935
0.113331
0.104694
0.0955786
0.085203
0.0743494
0.0618904
0.0491058
0.0344127
0.02043
0.00375
-0.0117169
-0.030362
0
0
3.17694e-06
0.00306443
0.0123542
0.030767
0.0554351
0.0807267
0.103227
0.121719
0.136056
0.146574
0.153901
0.158813
0.162091
0.164396
0.166213
0.167842
0.169432
0.17103
0.172613
0.174135
0.175515
0.176705
0.177607
0.178201
0.178377
0.178155
0.177402
0.176187
0.17434
0.17199
0.168912
0.165312
0.16089
0.155946
0.150074
0.143696
0.136254
0.12832
0.11912
0.109421
0.0981285
0.0863299
0.0724763
0.0583518
0.0417664
0.0263482
0.00778911
-0.0077316
-0.0302452
0
0
0.0001967
0.00254544
0.00886947
0.0224056
0.0438665
0.0689635
0.0932604
0.11451
0.132035
0.145892
0.156476
0.164367
0.170209
0.174615
0.178084
0.180981
0.183532
0.18586
0.187998
0.189958
0.191676
0.193146
0.194261
0.195043
0.195351
0.195256
0.194573
0.193439
0.191606
0.189296
0.186178
0.182575
0.178041
0.173033
0.166949
0.160406
0.152587
0.144319
0.134473
0.124164
0.11182
0.099028
0.0835901
0.0680966
0.0493877
0.0326324
0.0118705
-0.00316237
-0.0300973
0
0
0.00109546
0.00370167
0.00793069
0.0165223
0.0325541
0.0548339
0.0792049
0.102371
0.122772
0.139955
0.154017
0.165292
0.17425
0.181385
0.187154
0.191935
0.195997
0.199535
0.202628
0.20536
0.207686
0.209666
0.211175
0.212308
0.212868
0.213018
0.212484
0.211522
0.209755
0.207558
0.204422
0.200873
0.196224
0.191193
0.184855
0.178169
0.169888
0.161284
0.150659
0.13973
0.126155
0.11239
0.0951546
0.0784083
0.0573214
0.0395778
0.0161791
0.00244286
-0.0297123
0
0
0.00254512
0.00584967
0.0085895
0.0130476
0.0229227
0.0399084
0.061863
0.0854025
0.108085
0.128667
0.146677
0.16208
0.175043
0.185868
0.19488
0.202416
0.208734
0.214093
0.218601
0.222448
0.225595
0.228227
0.230174
0.231674
0.232433
0.232785
0.232294
0.231436
0.229599
0.227444
0.224138
0.220577
0.215642
0.210531
0.203747
0.196877
0.187916
0.17897
0.167328
0.155845
0.140801
0.126273
0.107011
0.0894734
0.0657226
0.0478391
0.0211554
0.00985732
-0.0286601
0
0
0.00386519
0.00690951
0.00775763
0.00896806
0.0137736
0.0248021
0.0421842
0.0637475
0.0869074
0.109733
0.131081
0.150364
0.167403
0.182214
0.194954
0.205866
0.215134
0.223055
0.229695
0.235367
0.239963
0.243854
0.246736
0.249094
0.25041
0.251345
0.251131
0.250671
0.248886
0.246998
0.243541
0.240144
0.234846
0.229805
0.222408
0.21551
0.205624
0.196554
0.183601
0.171945
0.15513
0.140539
0.118968
0.101849
0.0750439
0.0588227
0.0278662
0.02046
-0.02597
0
0
0.00365827
0.00385444
0.00141828
-0.000254237
0.00118487
0.00778273
0.0207868
0.0396203
0.062384
0.0869582
0.111588
0.135095
0.156707
0.176149
0.193227
0.208134
0.220857
0.231816
0.240911
0.248719
0.2549
0.260219
0.26401
0.267296
0.269018
0.270553
0.270366
0.270301
0.268236
0.266626
0.262611
0.259436
0.253295
0.248471
0.239913
0.233288
0.221879
0.213255
0.198382
0.187577
0.168434
0.155522
0.131155
0.117154
0.086656
0.0754593
0.0389252
0.0367868
-0.0192433
0
0
-0.000606635
-0.00675029
-0.0137187
-0.0182343
-0.019343
-0.0159282
-0.00667869
0.00878321
0.0294741
0.0536713
0.079503
0.105466
0.130411
0.153647
0.174712
0.193624
0.21008
0.224666
0.236839
0.24769
0.256195
0.263978
0.269373
0.27464
0.277326
0.280478
0.280685
0.281993
0.279804
0.27944
0.274804
0.272872
0.265619
0.262184
0.252015
0.247144
0.233628
0.227454
0.210006
0.202866
0.180732
0.173413
0.145605
0.139749
0.104978
0.103467
0.0609519
0.0636633
-0.00207077
0
0
-0.0128112
-0.0283267
-0.0395956
-0.0461646
-0.0482107
-0.0448993
-0.0353581
-0.0192262
0.00256612
0.0286502
0.0569565
0.0860593
0.114249
0.141201
0.165401
0.187879
0.206826
0.224445
0.238269
0.25154
0.260867
0.270555
0.276056
0.282889
0.285093
0.28967
0.288923
0.291718
0.288188
0.289582
0.283282
0.283608
0.274412
0.274014
0.261668
0.260965
0.245094
0.244672
0.224791
0.225515
0.201048
0.20409
0.174434
0.180818
0.145519
0.153739
0.112055
0.111189
0.0436009
0
0
-0.0379644
-0.0667526
-0.0842158
-0.0947152
-0.100007
-0.100023
-0.094191
-0.0816857
-0.0633104
-0.0394408
-0.01277
0.0166608
0.0453394
0.0747028
0.101073
0.127217
0.149357
0.171244
0.188804
0.206562
0.219919
0.23414
0.243878
0.255238
0.261897
0.271004
0.274996
0.282352
0.283951
0.289965
0.28933
0.294348
0.291552
0.295886
0.290966
0.294901
0.28793
0.291711
0.282914
0.286638
0.276601
0.279874
0.269812
0.270741
0.262322
0.254421
0.245909
0.207257
0.169192
0
0
0.0343403
0.0671606
0.0962989
0.122088
0.145028
0.165317
0.183631
0.200173
0.216378
0.232017
0.249031
0.26577
0.284754
0.302541
0.322867
0.340521
0.361032
0.377336
0.397179
0.411317
0.43013
0.441663
0.459468
0.468176
0.485237
0.490968
0.507695
0.510267
0.527176
0.526314
0.544032
0.539322
0.558616
0.54946
0.571293
0.556856
0.582469
0.561603
0.592619
0.56374
0.602255
0.56309
0.611648
0.558386
0.619152
0.542305
0.611822
0.469777
0.510386
0
