# vtk DataFile Version 2.0
v_velocity
ASCII
DATASET RECTILINEAR_GRID
DIMENSIONS 51 52 1
X_COORDINATES 51 double
0 0.02 0.04 0.06 0.08 0.1 0.12 0.14 0.16 0.18 0.2 0.22 0.24 0.26 0.28 0.3 0.32 0.34 0.36 0.38 0.4 0.42 0.44 0.46 0.48 0.5 0.52 0.54 0.56 0.58 0.6 0.62 0.64 0.66 0.68 0.7 0.72 0.74 0.76 0.78 0.8 0.82 0.84 0.86 0.88 0.9 0.92 0.94 0.96 0.98 1 
Y_COORDINATES 52 double
0 0.01 0.03 0.05 0.07 0.09 0.11 0.13 0.15 0.17 0.19 0.21 0.23 0.25 0.27 0.29 0.31 0.33 0.35 0.37 0.39 0.41 0.43 0.45 0.47 0.49 0.51 0.53 0.55 0.57 0.59 0.61 0.63 0.65 0.67 0.69 0.71 0.73 0.75 0.77 0.79 0.81 0.83 0.85 0.87 0.89 0.91 0.93 0.95 0.97 0.99 1 
Z_COORDINATES 1 double
0.0

CELL_DATA 2550
SCALARS v_velocity double 1
LOOKUP_TABLE default
0
0
0
0
0
0
0
0
0
0
0
0
0
0
0
0
0
0
0
0
0
0
0
0
0
0
0
0
0
0
0
0
0
0
0
0
0
0
0
0
0
0
0
0
0
0
0
0
0
0
-0.000215579
-0.000806052
-0.00108679
-0.000974079
-0.000648519
-0.000340022
-0.000183086
-0.000176998
-0.000220689
-0.000187345
3.69705e-06
0.000371745
0.000919125
0.00165674
0.00256247
0.00363662
0.00498672
0.00658973
0.00811739
0.00916041
0.00944969
0.00888467
0.00748935
0.0053644
0.00265209
-0.000482116
-0.00385441
-0.00725916
-0.0104629
-0.0132019
-0.0151907
-0.0161459
-0.015831
-0.0141182
-0.011057
-0.00692618
-0.00224248
0.00229991
0.00596341
0.00815863
0.00865622
0.00772998
0.00605429
0.00431823
0.00289723
0.00186171
0.00114516
0.000633764
0.000198743
-0.000151018
-0.000946231
-0.00259
-0.00323349
-0.00279538
-0.00177503
-0.000759983
-8.47399e-05
0.000275419
0.000623692
0.0013369
0.00266729
0.0047007
0.00745853
0.0109662
0.0150324
0.0190237
0.0222305
0.0242173
0.024764
0.0238134
0.0214366
0.01779
0.0130773
0.00751872
0.00133689
-0.00524422
-0.0119874
-0.0186247
-0.0248384
-0.0302498
-0.0344226
-0.0368921
-0.0372259
-0.0351173
-0.0304953
-0.0236204
-0.0151233
-0.00594955
0.00278792
0.0100062
0.0148522
0.0169029
0.0163399
0.013938
0.0107529
0.00767738
0.00517261
0.00326504
0.00170117
0.000309868
-0.00206525
-0.00499177
-0.00580594
-0.0046742
-0.00258814
-0.000519255
0.00107826
0.00238667
0.00404349
0.00674678
0.0109189
0.016634
0.0235362
0.0306715
0.0368206
0.0410988
0.0431396
0.0429592
0.0407582
0.0368041
0.031372
0.0247206
0.0170824
0.00866362
-0.000347435
-0.00976257
-0.0193692
-0.0289011
-0.0380091
-0.0462386
-0.0530252
-0.057723
-0.0596771
-0.0583482
-0.0534738
-0.0452229
-0.0342753
-0.0217528
-0.0089977
0.00269959
0.0122578
0.0188312
0.021923
0.0216671
0.01894
0.01503
0.0110752
0.00764926
0.00465405
0.0016066
-0.00350408
-0.0077469
-0.00828274
-0.00590372
-0.00230263
0.0012196
0.00430636
0.0075445
0.0120323
0.0186716
0.0275768
0.0378313
0.047769
0.0557992
0.0610327
0.0632503
0.0626377
0.0595733
0.0544751
0.0477305
0.0396637
0.0305353
0.0205474
0.00985845
-0.00139938
-0.0130965
-0.0250766
-0.0371208
-0.0489081
-0.0599775
-0.0697027
-0.0772966
-0.0818696
-0.0825598
-0.0787417
-0.0702785
-0.0577328
-0.0424026
-0.0260642
-0.0104686
0.0030935
0.013788
0.0209649
0.0242364
0.023889
0.0209772
0.0168803
0.0126428
0.00844032
0.00346881
-0.00522854
-0.0105399
-0.0100762
-0.00576663
-0.000141329
0.00537688
0.0108722
0.0175474
0.0267311
0.0386886
0.052102
0.0647289
0.0746584
0.0809794
0.0835822
0.082787
0.0791135
0.0731198
0.0653199
0.0561415
0.0459139
0.0348753
0.0231854
0.0109454
-0.00178225
-0.0149483
-0.028488
-0.0422837
-0.0561204
-0.0696334
-0.082257
-0.0931878
-0.101392
-0.105687
-0.104937
-0.0983645
-0.08593
-0.0686458
-0.0485934
-0.0284237
-0.0104155
0.00423086
0.0151275
0.0220149
0.0248255
0.0241457
0.0211704
0.0170783
0.0121842
0.00539532
-0.00713808
-0.0128862
-0.0104922
-0.00354564
0.00466283
0.0129738
0.022204
0.0339163
0.0486886
0.065103
0.0804653
0.0924675
0.100072
0.103223
0.102356
0.0981446
0.0913161
0.0825402
0.0723782
0.0612551
0.0494684
0.0372034
0.0245583
0.0115668
-0.00177863
-0.0155059
-0.0296405
-0.044177
-0.0590424
-0.0740447
-0.0888078
-0.102699
-0.114767
-0.123728
-0.128061
-0.126245
-0.117198
-0.100829
-0.078553
-0.0533798
-0.0291589
-0.00895507
0.00618869
0.0165904
0.0226047
0.0246311
0.0235325
0.0203205
0.0152348
0.00696805
-0.008984
-0.0141146
-0.00880056
0.00141846
0.0128479
0.0249895
0.0392377
0.0565753
0.0758393
0.0940652
0.108425
0.117576
0.121454
0.120608
0.11589
0.108243
0.0985273
0.0874553
0.0755535
0.0631757
0.0505308
0.0377179
0.0247611
0.0116344
-0.00171634
-0.0153603
-0.0293688
-0.043803
-0.0586948
-0.0740154
-0.0896233
-0.105187
-0.120079
-0.133274
-0.14328
-0.148199
-0.146001
-0.135072
-0.115028
-0.0875553
-0.0567685
-0.0281886
-0.00602184
0.00904556
0.0184154
0.0232132
0.0242567
0.0222954
0.0173551
0.00802735
-0.010332
-0.0134634
-0.00436081
0.00965173
0.024991
0.0418974
0.0615927
0.0835042
0.104718
0.121834
0.132953
0.137878
0.137276
0.132193
0.123833
0.113287
0.101431
0.0888909
0.0760596
0.0631519
0.0502527
0.0373694
0.0244634
0.0114746
-0.00166546
-0.0150265
-0.028676
-0.0426779
-0.05709
-0.0719566
-0.0872889
-0.10302
-0.118919
-0.13446
-0.148647
-0.159862
-0.165836
-0.1639
-0.151657
-0.128119
-0.0951064
-0.0581181
-0.0250286
-0.00147978
0.0127927
0.0206628
0.0239008
0.0232897
0.018676
0.00866517
-0.0105923
-0.0102437
0.00325462
0.0214386
0.0412322
0.063208
0.0875073
0.111728
0.132063
0.145792
0.152321
0.152396
0.147275
0.138437
0.12726
0.114801
0.10179
0.0886511
0.0755859
0.0626565
0.0498434
0.0370925
0.024336
0.0115079
-0.00145285
-0.0145986
-0.0279751
-0.0416217
-0.0555749
-0.0698716
-0.0845518
-0.0996522
-0.115178
-0.131025
-0.146829
-0.161726
-0.174071
-0.181262
-0.179895
-0.166532
-0.139281
-0.100033
-0.056226
-0.0190499
0.00459427
0.0171519
0.0229278
0.0237251
0.0195481
0.00911934
-0.00913054
-0.00400046
0.0141701
0.0366921
0.0610607
0.087503
0.114561
0.138484
0.155641
0.164616
0.166043
0.161403
0.152445
0.140877
0.127997
0.114649
0.101302
0.0881434
0.075209
0.0624549
0.0498115
0.0372064
0.0245738
0.0118584
-0.000985928
-0.0139962
-0.0272016
-0.040624
-0.0542799
-0.0681842
-0.0823558
-0.0968262
-0.111644
-0.126866
-0.142493
-0.158326
-0.173666
-0.186904
-0.195136
-0.194143
-0.179221
-0.147341
-0.100652
-0.0496435
-0.0100286
0.0116111
0.0213634
0.0239444
0.0203691
0.00965845
-0.00543057
0.00538825
0.0281672
0.0548952
0.0833816
0.11292
0.140503
0.161879
0.174409
0.178139
0.174691
0.166102
0.154412
0.141259
0.127654
0.114132
0.100891
0.0879387
0.075216
0.0626378
0.0501299
0.0376271
0.0250781
0.0124405
-0.00032003
-0.0132304
-0.0263105
-0.039573
-0.0530241
-0.0666658
-0.0805006
-0.0945401
-0.108816
-0.123395
-0.138372
-0.153832
-0.169695
-0.185387
-0.199296
-0.208158
-0.206808
-0.189073
-0.150726
-0.0949101
-0.0372864
0.00114288
0.0184199
0.0239832
0.0214183
0.0104941
0.00075635
0.0176959
0.0447147
0.0751819
0.106816
0.1377
0.163741
0.181023
0.18833
0.187029
0.179464
0.168012
0.154717
0.140895
0.127187
0.113834
0.100834
0.0881059
0.0755577
0.0631066
0.050691
0.0382598
0.025774
0.0131997
0.000509297
-0.0123196
-0.0253026
-0.0384486
-0.0517586
-0.0652268
-0.0788434
-0.0926012
-0.106508
-0.120605
-0.134986
-0.149805
-0.165229
-0.181274
-0.197408
-0.211863
-0.220786
-0.217784
-0.194992
-0.147281
-0.0806497
-0.0195653
0.0122857
0.0233777
0.0227208
0.0117202
0.0093345
0.0324073
0.0630641
0.0965212
0.130036
0.160534
0.183464
0.195864
0.198032
0.192381
0.181704
0.168466
0.154443
0.140515
0.126991
0.113895
0.101119
0.0885618
0.0761319
0.0637652
0.0514146
0.0390416
0.0266146
0.0141044
0.00148628
-0.0112612
-0.0241537
-0.037201
-0.0504054
-0.0637613
-0.077255
-0.0908678
-0.104583
-0.118401
-0.132366
-0.146603
-0.161335
-0.176845
-0.193251
-0.209988
-0.224887
-0.233064
-0.226371
-0.195034
-0.134087
-0.056482
-4.94506e-06
0.0210544
0.0239733
0.0132831
0.0198795
0.0488215
0.0823753
0.11791
0.151995
0.180671
0.199526
0.206894
0.204454
0.195349
0.182558
0.168388
0.154184
0.140414
0.127142
0.114266
0.101649
0.0891984
0.0768404
0.0645306
0.0522325
0.0399155
0.027551
0.0151117
0.00257282
-0.010087
-0.0228845
-0.0358313
-0.0489327
-0.0621876
-0.0755877
-0.0891175
-0.102755
-0.116479
-0.130282
-0.144207
-0.158398
-0.173152
-0.188884
-0.205835
-0.223316
-0.238402
-0.244481
-0.230866
-0.185915
-0.107723
-0.0243976
0.0155581
0.0246911
0.015046
0.0317253
0.0661631
0.101835
0.138509
0.172004
0.19785
0.212225
0.214861
0.208569
0.196915
0.182835
0.168298
0.154183
0.140637
0.127578
0.114849
0.102326
0.0899359
0.0776256
0.0653639
0.05312
0.0408656
0.0285712
0.0162088
0.00375245
-0.00881993
-0.021526
-0.0343781
-0.0473836
-0.060544
-0.0738556
-0.0873092
-0.10089
-0.114576
-0.128347
-0.142196
-0.156167
-0.170434
-0.185374
-0.201545
-0.219284
-0.237583
-0.252172
-0.253669
-0.227942
-0.162656
-0.0662034
0.00519763
0.0240664
0.0167842
0.0440828
0.0836736
0.120736
0.157703
0.189721
0.212165
0.22209
0.220557
0.211215
0.197795
0.183017
0.168425
0.154484
0.141132
0.128213
0.115565
0.103091
0.0907386
0.0784703
0.0662604
0.0540783
0.0418941
0.0296758
0.0173937
0.00502047
-0.00746661
-0.020086
-0.0328512
-0.0457708
-0.0588487
-0.0720848
-0.0854745
-0.0990084
-0.112671
-0.126442
-0.140298
-0.154234
-0.168312
-0.182761
-0.198085
-0.215017
-0.23389
-0.252906
-0.265388
-0.257687
-0.211832
-0.11941
-0.0161026
0.0209749
0.0184572
0.0561519
0.100674
0.138523
0.175101
0.205062
0.223914
0.229714
0.224681
0.213023
0.198443
0.183338
0.168823
0.155044
0.141822
0.128977
0.116364
0.103916
0.091595
0.0793718
0.0672197
0.0551055
0.042996
0.0308562
0.0186549
0.00636351
-0.00604163
-0.0185795
-0.0312641
-0.0441049
-0.0571073
-0.0702737
-0.0836037
-0.0970946
-0.11074
-0.124526
-0.138431
-0.152423
-0.166495
-0.180735
-0.195476
-0.211441
-0.229588
-0.249982
-0.269063
-0.275845
-0.250708
-0.173675
-0.054872
0.0160302
0.0203038
0.0672082
0.116594
0.154791
0.1905
0.218117
0.233481
0.235648
0.227783
0.214421
0.199107
0.183878
0.169466
0.155799
0.142644
0.129824
0.117221
0.104791
0.0925023
0.0803292
0.0682402
0.0561983
0.0441662
0.0321065
0.0199859
0.00777437
-0.00455254
-0.0170146
-0.0296263
-0.0423977
-0.0553348
-0.0684407
-0.0817167
-0.0951634
-0.108781
-0.122568
-0.136513
-0.150593
-0.164769
-0.179031
-0.193515
-0.208732
-0.225753
-0.245744
-0.267858
-0.284774
-0.278425
-0.222397
-0.105473
0.00636471
0.020234
0.0766542
0.130979
0.169275
0.203833
0.229067
0.241246
0.240347
0.230257
0.215667
0.199897
0.184633
0.1703
0.156688
0.143552
0.130727
0.118123
0.105709
0.0934577
0.0813393
0.0693171
0.0573501
0.0453969
0.0334178
0.0213773
0.00924443
-0.00300645
-0.0153958
-0.0279391
-0.0406468
-0.0535257
-0.0665796
-0.0798107
-0.0932211
-0.106814
-0.120593
-0.134559
-0.148703
-0.162994
-0.177387
-0.191884
-0.206732
-0.222776
-0.241564
-0.264208
-0.287175
-0.295974
-0.261987
-0.157926
-0.0151717
0.0187153
0.0840418
0.143483
0.18182
0.215123
0.238125
0.247547
0.244156
0.232364
0.216899
0.200839
0.185563
0.171268
0.157666
0.144514
0.131669
0.119062
0.106667
0.0944557
0.0823949
0.0704417
0.0585507
0.0466768
0.0347783
0.0228178
0.0107629
-0.00141296
-0.0137313
-0.0262084
-0.0388554
-0.0516796
-0.0646852
-0.0778747
-0.0912511
-0.104819
-0.118587
-0.132565
-0.146756
-0.161148
-0.175692
-0.19033
-0.205112
-0.220561
-0.238088
-0.259851
-0.285566
-0.305457
-0.292137
-0.207749
-0.0514526
0.0198852
0.0890731
0.153845
0.192347
0.224442
0.245495
0.252655
0.247319
0.234259
0.218173
0.201917
0.186621
0.172322
0.158695
0.14551
0.132639
0.120028
0.107655
0.0954871
0.0834856
0.0716023
0.0597877
0.0479937
0.0361764
0.0242967
0.0123209
0.00022083
-0.0120259
-0.0244365
-0.0370231
-0.0497937
-0.0627529
-0.0759035
-0.089248
-0.102792
-0.116543
-0.130519
-0.144735
-0.159198
-0.173882
-0.188716
-0.203623
-0.218832
-0.235371
-0.255705
-0.281863
-0.309021
-0.31365
-0.252375
-0.0978869
0.0215267
0.09159
0.161875
0.200829
0.23188
0.251354
0.256771
0.249998
0.236028
0.219503
0.203098
0.187761
0.173424
0.159751
0.146521
0.133623
0.121012
0.108663
0.0965402
0.0845985
0.0727853
0.0610476
0.0493344
0.0375996
0.0258025
0.0139077
0.00188598
-0.0102864
-0.0226277
-0.0351509
-0.0478646
-0.0607743
-0.0738829
-0.0871935
-0.100711
-0.114445
-0.128413
-0.142637
-0.157143
-0.171926
-0.186944
-0.202066
-0.217316
-0.233261
-0.252151
-0.277326
-0.308481
-0.327579
-0.289861
-0.146636
0.0174915
0.0915584
0.167433
0.207262
0.237529
0.25584
0.260035
0.252288
0.237708
0.220877
0.204346
0.188943
0.174544
0.160811
0.147535
0.134612
0.122002
0.109679
0.0976011
0.0857192
0.0739763
0.062316
0.0506849
0.0390348
0.0273231
0.0155131
0.00357396
-0.00851928
-0.0207859
-0.0332401
-0.0458912
-0.0587452
-0.0718055
-0.0850753
-0.0985596
-0.112268
-0.126218
-0.140437
-0.154964
-0.169812
-0.184977
-0.200318
-0.215758
-0.231452
-0.249176
-0.272654
-0.305189
-0.335046
-0.319604
-0.193454
0.00520404
0.0890549
0.170415
0.211647
0.241463
0.25905
0.262531
0.254238
0.239306
0.222274
0.205628
0.190138
0.17566
0.16186
0.148537
0.135592
0.122985
0.110688
0.0986552
0.0868326
0.0751599
0.063578
0.0520309
0.0404685
0.0288463
0.0171262
0.00527575
-0.00673128
-0.0189154
-0.0312918
-0.0438708
-0.056659
-0.0696607
-0.0828794
-0.0963205
-0.109993
-0.123916
-0.138114
-0.152639
-0.167515
-0.182783
-0.198315
-0.214007
-0.229695
-0.24661
-0.268182
-0.300197
-0.337224
-0.34173
-0.236666
-0.0151276
0.084256
0.170741
0.213973
0.243737
0.261042
0.264299
0.25586
0.240814
0.223673
0.206921
0.191327
0.176755
0.162885
0.149515
0.13655
0.123948
0.111676
0.0996867
0.0879225
0.0763201
0.0648176
0.0533571
0.0418863
0.0303591
0.0187355
0.00698174
-0.00492987
-0.0170211
-0.0293083
-0.0418026
-0.0545117
-0.0674404
-0.0805926
-0.0939749
-0.107595
-0.121476
-0.135637
-0.150142
-0.165016
-0.180341
-0.196005
-0.211941
-0.227764
-0.244217
-0.264
-0.294289
-0.335364
-0.356971
-0.275339
-0.0423583
0.0774331
0.168357
0.214207
0.244375
0.261836
0.265338
0.257139
0.24221
0.225053
0.208207
0.192494
0.177818
0.163874
0.150459
0.137474
0.124876
0.112628
0.10068
0.0889728
0.0774405
0.0660188
0.0546479
0.0432735
0.0318477
0.0203289
0.0086818
-0.00312283
-0.0151081
-0.0272915
-0.0396854
-0.0522982
-0.065136
-0.078203
-0.0915078
-0.105056
-0.118875
-0.132979
-0.147443
-0.162284
-0.17763
-0.193371
-0.209514
-0.225522
-0.241789
-0.260077
-0.288018
-0.33058
-0.36626
-0.309087
-0.0748308
0.06895
0.163234
0.212286
0.243368
0.261418
0.265614
0.258035
0.243462
0.226394
0.209475
0.193635
0.178844
0.164819
0.151357
0.138352
0.125756
0.113529
0.10162
0.089967
0.0785041
0.0671646
0.0558868
0.0446144
0.0332978
0.0218937
0.0103651
-0.0013187
-0.0131823
-0.0252444
-0.0375188
-0.0500148
-0.06274
-0.0756984
-0.0889022
-0.102354
-0.116089
-0.130111
-0.144511
-0.15929
-0.17462
-0.190382
-0.206679
-0.22287
-0.239148
-0.256298
-0.281741
-0.323873
-0.370643
-0.337788
-0.110827
0.0592596
0.155379
0.208116
0.24067
0.259738
0.265061
0.258484
0.244527
0.227676
0.210722
0.19475
0.179831
0.165717
0.152202
0.139174
0.126575
0.114364
0.102489
0.0908886
0.0794941
0.0682382
0.0570572
0.0458932
0.0346946
0.0234165
0.0120202
0.00047335
-0.0112501
-0.0231705
-0.0353031
-0.0476579
-0.0602454
-0.0730682
-0.0861442
-0.0994705
-0.113094
-0.127004
-0.141316
-0.156003
-0.171289
-0.187022
-0.203422
-0.219757
-0.236166
-0.252521
-0.275615
-0.315974
-0.371087
-0.361559
-0.14877
0.0488958
0.144853
0.201572
0.236192
0.256715
0.263582
0.258396
0.245345
0.228874
0.211944
0.195845
0.180783
0.166565
0.152988
0.139928
0.127321
0.11512
0.103274
0.0917211
0.0803932
0.0692217
0.0581415
0.0470928
0.0360223
0.0248831
0.0136348
0.00224349
-0.00931888
-0.0210739
-0.0330393
-0.0452251
-0.0576461
-0.0703019
-0.0832195
-0.096387
-0.109869
-0.123635
-0.137831
-0.152392
-0.167604
-0.183261
-0.199715
-0.216139
-0.232742
-0.248584
-0.269671
-0.307422
-0.368443
-0.380631
-0.187396
0.0384519
0.1318
0.192517
0.229806
0.252236
0.261052
0.257653
0.245834
0.229949
0.213135
0.196927
0.181709
0.167367
0.153711
0.140608
0.127982
0.115783
0.103959
0.0924484
0.0811847
0.0700984
0.059123
0.0481971
0.0372655
0.0262794
0.0151967
0.00398143
-0.00739643
-0.0189597
-0.0307293
-0.0427148
-0.0549371
-0.0673909
-0.0801162
-0.0930876
-0.106394
-0.119977
-0.134027
-0.148426
-0.163539
-0.179076
-0.195544
-0.211991
-0.228802
-0.244332
-0.263813
-0.298507
-0.363388
-0.395327
-0.225781
0.0285379
0.116484
0.180827
0.22135
0.246157
0.257314
0.256104
0.245883
0.230844
0.214282
0.198006
0.182623
0.168132
0.154373
0.141207
0.128548
0.11634
0.104528
0.0930544
0.0818513
0.07085
0.0599833
0.0491881
0.0384073
0.0275902
0.0166923
0.00567603
-0.00549145
-0.0168335
-0.0283763
-0.0401264
-0.0521151
-0.0643278
-0.0768237
-0.0895572
-0.102652
-0.11601
-0.12988
-0.144076
-0.15906
-0.174432
-0.190876
-0.207274
-0.224279
-0.239615
-0.257901
-0.289372
-0.356437
-0.405977
-0.263341
0.0197095
0.0993432
0.166436
0.210637
0.238304
0.252186
0.253566
0.245342
0.231467
0.21535
0.199083
0.183537
0.168869
0.154975
0.14172
0.129009
0.116777
0.104968
0.0935234
0.0823771
0.0714609
0.0607069
0.0500507
0.0394333
0.0288019
0.0181094
0.00731682
-0.00361271
-0.0147017
-0.0259842
-0.0374609
-0.0491783
-0.0611072
-0.0733342
-0.0857838
-0.0986274
-0.111713
-0.125369
-0.139314
-0.154141
-0.169298
-0.185684
-0.201956
-0.219115
-0.234295
-0.251746
-0.280008
-0.347958
-0.412905
-0.299767
0.0123693
0.0810444
0.1494
0.197483
0.228479
0.245462
0.249818
0.244015
0.231683
0.216271
0.20014
0.184462
0.169596
0.155529
0.142151
0.129361
0.117086
0.105266
0.0938398
0.0827448
0.0719127
0.0612752
0.0507666
0.040326
0.0298984
0.0194334
0.00889149
-0.00177047
-0.0125719
-0.0235584
-0.0347207
-0.0461273
-0.0577261
-0.0696425
-0.0817583
-0.0943095
-0.107071
-0.120474
-0.134117
-0.148753
-0.163638
-0.179929
-0.195988
-0.213251
-0.228245
-0.245166
-0.270341
-0.338199
-0.416382
-0.334963
0.00665586
0.0625371
0.129973
0.18174
0.216463
0.236907
0.244607
0.241657
0.231299
0.216928
0.201131
0.185391
0.170319
0.156041
0.142497
0.129593
0.117251
0.105403
0.0939874
0.0829394
0.0721916
0.0616753
0.051324
0.0410741
0.0308694
0.0206546
0.0103913
2.70344e-05
-0.0104505
-0.0211051
-0.0319096
-0.0429649
-0.0541841
-0.0657471
-0.0774752
-0.0896913
-0.102071
-0.115181
-0.128463
-0.142875
-0.15742
-0.173578
-0.189323
-0.206628
-0.221344
-0.237968
-0.260227
-0.327323
-0.416628
-0.36897
0.00239432
0.045024
0.108693
0.163354
0.202029
0.226268
0.237646
0.237971
0.230058
0.217138
0.201952
0.186288
0.171042
0.156526
0.142771
0.129711
0.117269
0.105371
0.0939508
0.0829427
0.0722782
0.0618878
0.0517038
0.0416593
0.031698
0.0217573
0.0118028
0.00176754
-0.00834757
-0.0186331
-0.0290338
-0.0396968
-0.0504842
-0.061651
-0.0729332
-0.0847714
-0.0967064
-0.109484
-0.122335
-0.136485
-0.150608
-0.166588
-0.1819
-0.199179
-0.213476
-0.229987
-0.249507
-0.315438
-0.413788
-0.401922
-0.000761737
0.0297148
0.0864424
0.142436
0.184975
0.213276
0.228633
0.23262
0.227629
0.216635
0.202428
0.187056
0.17172
0.156967
0.142963
0.129703
0.117123
0.105151
0.0937137
0.0827409
0.0721617
0.0619041
0.0518998
0.0420766
0.0323805
0.0227372
0.0131222
0.00344589
-0.0062677
-0.0161491
-0.0260991
-0.0363309
-0.046632
-0.0573614
-0.0681358
-0.0795546
-0.0909752
-0.10338
-0.11572
-0.129569
-0.14317
-0.158922
-0.173656
-0.190835
-0.204525
-0.221059
-0.237994
-0.302622
-0.407941
-0.433994
-0.00305425
0.0173962
0.0644622
0.119393
0.165191
0.197669
0.217253
0.225239
0.223626
0.215064
0.202285
0.187524
0.172271
0.157339
0.143077
0.129577
0.116819
0.104738
0.0932617
0.0823138
0.0718193
0.0617006
0.0518895
0.0423042
0.0328975
0.0235759
0.0143337
0.00504636
-0.00422407
-0.0136672
-0.0231169
-0.0328808
-0.0426378
-0.0528917
-0.0630919
-0.0740532
-0.0848824
-0.0968763
-0.108612
-0.122115
-0.135069
-0.150535
-0.164513
-0.181518
-0.194366
-0.211044
-0.225502
-0.28895
-0.39909
-0.465378
-0.00456383
0.00814456
0.0442971
0.0950781
0.142786
0.179257
0.203215
0.21546
0.21762
0.211987
0.201134
0.187388
0.172482
0.157507
0.14303
0.129285
0.116324
0.104113
0.0925826
0.0816541
0.0712485
0.0612782
0.0516774
0.0423478
0.0332563
0.0242791
0.0154433
0.00657083
-0.00221514
-0.0111917
-0.0200915
-0.0293577
-0.0385117
-0.0482594
-0.0578147
-0.0682871
-0.0784379
-0.0899858
-0.101004
-0.114116
-0.126266
-0.141383
-0.154384
-0.171142
-0.18286
-0.199807
-0.21183
-0.274512
-0.387164
-0.496262
-0.00538584
0.00150613
0.0273985
0.0709154
0.118272
0.158015
0.186299
0.202958
0.209183
0.206914
0.198499
0.18625
0.172068
0.157292
0.142725
0.12878
0.115616
0.103257
0.0916563
0.080737
0.0704213
0.0606061
0.0512337
0.0421772
0.0334306
0.0248203
0.0164288
0.00799536
-0.000260535
-0.00874643
-0.0170422
-0.0257873
-0.0342734
-0.0434927
-0.0523239
-0.0622844
-0.0716554
-0.0827285
-0.09289
-0.105565
-0.116711
-0.13141
-0.143155
-0.159611
-0.169851
-0.187239
-0.19677
-0.25945
-0.372005
-0.526818
-0.00567799
-0.00306582
0.0144324
0.0487413
0.0927739
0.13428
0.166445
0.187487
0.197931
0.199331
0.193783
0.183507
0.17049
0.156261
0.141847
0.127849
0.114566
0.102101
0.0904544
0.0795589
0.069351
0.0597054
0.0505864
0.0418202
0.0334508
0.0252242
0.0173157
0.00933595
0.001656
-0.00632797
-0.0139644
-0.0221808
-0.0299303
-0.0386157
-0.0466338
-0.0560757
-0.0645444
-0.0751251
-0.0842524
-0.0964497
-0.106336
-0.120556
-0.130696
-0.146826
-0.155158
-0.173257
-0.18009
-0.243983
-0.35336
-0.55718
-0.00568117
-0.00612707
0.0051426
0.0303285
0.0681058
0.108989
0.143945
0.168995
0.183594
0.188813
0.186456
0.178595
0.167212
0.153955
0.14003
0.126221
0.112976
0.100502
0.0888718
0.0780367
0.0679708
0.0585158
0.0496845
0.0412262
0.0332748
0.0254461
0.0180688
0.0105508
0.00350334
-0.00397784
-0.0108869
-0.0185809
-0.0255082
-0.0336715
-0.0407623
-0.0496968
-0.057103
-0.0671914
-0.0750517
-0.0867512
-0.0950428
-0.108757
-0.116843
-0.132702
-0.138573
-0.157838
-0.161531
-0.228462
-0.330847
-0.587425
-0.00587787
-0.00847581
-0.00118143
0.0167924
0.0466449
0.0838916
0.119648
0.147745
0.166069
0.174955
0.175872
0.170704
0.16137
0.14955
0.136561
0.123323
0.110426
0.0981734
0.0867338
0.0760775
0.0662528
0.0570458
0.0485689
0.0404438
0.032967
0.0255409
0.0187524
0.011685
0.00533584
-0.00166815
-0.00776797
-0.014978
-0.020975
-0.0286636
-0.0346775
-0.0431545
-0.0492837
-0.0589232
-0.0652056
-0.0764422
-0.0826987
-0.0959656
-0.101405
-0.117208
-0.119864
-0.141083
-0.140769
-0.213429
-0.303912
-0.617522
-0.00697333
-0.011082
-0.00541045
0.00820081
0.0306131
0.0616119
0.0952768
0.124578
0.145669
0.157772
0.16181
0.159429
0.152412
0.142415
0.130792
0.118542
0.106364
0.0946354
0.0836413
0.0733454
0.0639271
0.0550653
0.0470599
0.0393114
0.0324069
0.0253902
0.0192864
0.0126471
0.00710338
0.000528246
-0.00463152
-0.0114292
-0.016326
-0.0236323
-0.0283395
-0.0364688
-0.0410021
-0.05032
-0.0545802
-0.0655135
-0.069124
-0.0822
-0.0841696
-0.100462
-0.098777
-0.123339
-0.11737
-0.199693
-0.271757
-0.647234
-0.00951844
-0.0143866
-0.00815029
0.00374271
0.020738
0.0446261
0.0733223
0.101039
0.122987
0.13719
0.143801
0.144025
0.139449
0.13159
0.12178
0.111006
0.100046
0.089276
0.0791338
0.0694981
0.0607801
0.0524338
0.0451123
0.0378111
0.0316485
0.025038
0.0197774
0.0135052
0.00894016
0.00268343
-0.00132544
-0.007868
-0.0113913
-0.018521
-0.0215558
-0.0295987
-0.0320409
-0.0413737
-0.0429385
-0.0540308
-0.0540798
-0.0676723
-0.0649068
-0.0829247
-0.0750262
-0.105456
-0.0906865
-0.188395
-0.233239
-0.675894
-0.0133836
-0.0174309
-0.0089984
0.00253227
0.0159325
0.0335976
0.0559402
0.0794753
0.099827
0.114364
0.122453
0.124742
0.12241
0.11678
0.10904
0.100094
0.0907782
0.0813545
0.0724945
0.0638256
0.0561838
0.0485433
0.0422305
0.0354533
0.0303323
0.0241022
0.0199915
0.0139659
0.0107247
0.00457201
0.00213149
-0.00447119
-0.00609357
-0.0134798
-0.0141591
-0.0227008
-0.0221548
-0.0323036
-0.0299851
-0.042375
-0.0372646
-0.0530812
-0.0433364
-0.0658051
-0.0482214
-0.0892347
-0.05973
-0.180989
-0.186809
-0.701864
-0.0170419
-0.0176271
-0.00656223
0.00420479
0.0144934
0.0269997
0.0429362
0.0606418
0.0770632
0.0897894
0.0978235
0.101235
0.100798
0.0973375
0.0919624
0.0851866
0.0780555
0.0703949
0.0634001
0.0560176
0.0500024
0.043225
0.0384394
0.0321673
0.02861
0.0225671
0.0201791
0.0140307
0.0127898
0.00618156
0.00614703
-0.00129712
4.76607e-05
-0.00865512
-0.00560133
-0.016076
-0.0107457
-0.0236793
-0.0151122
-0.0315702
-0.0181218
-0.0401693
-0.0189694
-0.0518041
-0.0177231
-0.078038
-0.0231958
-0.17885
-0.130779
-0.721108
-0.0164353
-0.0114834
0.000406154
0.00872042
0.015602
0.023585
0.0336867
0.0451799
0.0563723
0.0655922
0.0719918
0.0752721
0.0758532
0.0741016
0.0708968
0.0662754
0.0615988
0.0558095
0.0512264
0.045167
0.0414974
0.0354425
0.0330435
0.0269009
0.025924
0.0194152
0.0199718
0.0127226
0.0149793
0.00654543
0.0107825
0.00063504
0.00730107
-0.00522033
0.00456714
-0.0112048
0.00277097
-0.017506
0.00233613
-0.0244306
0.00401233
-0.0328501
0.00883862
-0.0459479
0.0170477
-0.0765276
0.0193198
-0.181562
-0.0650449
-0.723178
-0.00362412
0.00403215
0.011675
0.0152895
0.0176481
0.0202736
0.0241454
0.029048
0.03458
0.0395081
0.0436855
0.0461692
0.0476631
0.0471505
0.046696
0.0437981
0.0426512
0.0381906
0.037403
0.0318959
0.0321697
0.0257546
0.0275424
0.0200684
0.0237199
0.0148377
0.0207194
0.00992721
0.0185095
0.00515179
0.0170826
0.000308718
0.0164971
-0.00482228
0.0169133
-0.0105018
0.0186422
-0.017085
0.0222179
-0.0251545
0.0284786
-0.0358921
0.0384953
-0.0523326
0.0523469
-0.0847477
0.0610041
-0.180696
0.00254344
-0.679577
0.0343403
0.0328203
0.0291383
0.0257888
0.02294
0.0202897
0.0183133
0.0165427
0.0162047
0.0156385
0.0170147
0.0167385
0.0189844
0.0177871
0.0203255
0.0176543
0.0205109
0.0163041
0.0198433
0.0141376
0.0188128
0.0115334
0.0178048
0.00870805
0.0170608
0.00573091
0.0167269
0.00257191
0.0169097
-0.000862024
0.0177182
-0.00471006
0.0192934
-0.00915577
0.0218327
-0.0144368
0.0256137
-0.0208663
0.0310154
-0.0288785
0.0385152
-0.0391648
0.0485572
-0.0532612
0.0607651
-0.0768461
0.0695161
-0.142044
0.0406088
-0.510386
0
0
0
0
0
0
0
0
0
0
0
0
0
0
0
0
0
0
0
0
0
0
0
0
0
0
0
0
0
0
0
0
0
0
0
0
0
0
0
0
0
0
0
0
0
0
0
0
0
0
