# vtk DataFile Version 2.0
pressure
ASCII
DATASET RECTILINEAR_GRID
DIMENSIONS 51 51 1
X_COORDINATES 51 double
0 0.02 0.04 0.06 0.08 0.1 0.12 0.14 0.16 0.18 0.2 0.22 0.24 0.26 0.28 0.3 0.32 0.34 0.36 0.38 0.4 0.42 0.44 0.46 0.48 0.5 0.52 0.54 0.56 0.58 0.6 0.62 0.64 0.66 0.68 0.7 0.72 0.74 0.76 0.78 0.8 0.82 0.84 0.86 0.88 0.9 0.92 0.94 0.96 0.98 1 
Y_COORDINATES 51 double
0 0.02 0.04 0.06 0.08 0.1 0.12 0.14 0.16 0.18 0.2 0.22 0.24 0.26 0.28 0.3 0.32 0.34 0.36 0.38 0.4 0.42 0.44 0.46 0.48 0.5 0.52 0.54 0.56 0.58 0.6 0.62 0.64 0.66 0.68 0.7 0.72 0.74 0.76 0.78 0.8 0.82 0.84 0.86 0.88 0.9 0.92 0.94 0.96 0.98 1 
Z_COORDINATES 1 double
0.0

CELL_DATA 2500
SCALARS pressure double 1
LOOKUP_TABLE default
0
8.76038e-06
-1.06045e-06
-3.66251e-05
-9.41173e-05
-0.000165973
-0.00024677
-0.000335965
-0.000437607
-0.000558358
-0.000705239
-0.000884215
-0.00109967
-0.00135401
-0.00164662
-0.00197231
-0.00231964
-0.00266875
-0.00299003
-0.00324614
-0.00339801
-0.00341165
-0.00326344
-0.00294371
-0.00245968
-0.00183805
-0.0011268
-0.000394971
0.00027116
0.000776495
0.00103054
0.000964458
0.000548345
-0.000196786
-0.00119791
-0.00234298
-0.00350558
-0.00457328
-0.0054687
-0.00615729
-0.00664226
-0.00695279
-0.0071305
-0.0072177
-0.00724954
-0.00725107
-0.0072378
-0.00721781
-0.00719519
-0.00717513
-8.79216e-06
6.67414e-07
-9.92747e-06
-4.57192e-05
-0.000101066
-0.000167986
-0.00024156
-0.00032196
-0.000413593
-0.000522923
-0.000656452
-0.0008198
-0.00101778
-0.00125441
-0.00153188
-0.00184881
-0.00219838
-0.0025653
-0.00292222
-0.00323001
-0.00344401
-0.00352293
-0.0034362
-0.00316902
-0.00272561
-0.00213163
-0.00143537
-0.000707071
-3.48735e-05
0.000483564
0.000754313
0.000704331
0.000299345
-0.000442721
-0.0014488
-0.00260223
-0.00376781
-0.00482302
-0.00568419
-0.00631847
-0.00673928
-0.00698985
-0.00712277
-0.007184
-0.00720584
-0.00720783
-0.00720056
-0.00718873
-0.00717309
-0.00715452
-3.34729e-06
6.69007e-06
-7.33881e-06
-4.78999e-05
-0.000104878
-0.000167959
-0.000232394
-0.000300032
-0.000377076
-0.000471134
-0.000589491
-0.000739428
-0.000929709
-0.00117126
-0.00147516
-0.00184702
-0.00228021
-0.00275222
-0.00322548
-0.00365181
-0.00398008
-0.0041644
-0.00417081
-0.00398186
-0.00359962
-0.00304771
-0.0023723
-0.00164155
-0.000942243
-0.000372508
-2.98203e-05
5.3442e-06
-0.000312139
-0.000976378
-0.00192373
-0.00304041
-0.00418564
-0.00522472
-0.00606051
-0.00665148
-0.00701065
-0.00718853
-0.00724931
-0.00725005
-0.00722931
-0.00720672
-0.00718886
-0.00717521
-0.00716081
-0.00714073
2.45057e-05
3.14971e-05
9.09342e-06
-4.09867e-05
-0.000102558
-0.00016248
-0.000216793
-0.000270214
-0.000332385
-0.000414669
-0.000529841
-0.000694435
-0.000930069
-0.00125919
-0.00169569
-0.00223689
-0.00286126
-0.00353075
-0.00419541
-0.00479957
-0.00528872
-0.00561599
-0.00574716
-0.00566408
-0.00536695
-0.00487582
-0.00423152
-0.00349555
-0.00274796
-0.00208215
-0.00159548
-0.00137537
-0.00148194
-0.0019309
-0.00268218
-0.003641
-0.00467496
-0.00564484
-0.00643918
-0.00699917
-0.00732407
-0.00745753
-0.00746413
-0.00740706
-0.00733347
-0.0072697
-0.00722465
-0.0071963
-0.00717573
-0.00715305
8.16609e-05
8.02736e-05
4.4037e-05
-1.91444e-05
-8.69156e-05
-0.000144693
-0.000191121
-0.000235768
-0.000294976
-0.000390293
-0.000549838
-0.000807854
-0.00119725
-0.00173783
-0.00242843
-0.00324623
-0.00415045
-0.00508785
-0.005999
-0.00682424
-0.00750919
-0.00800915
-0.00829219
-0.00834111
-0.00815465
-0.00774826
-0.00715481
-0.0064248
-0.00562562
-0.00483881
-0.00415429
-0.00366059
-0.00343103
-0.00350746
-0.00388584
-0.00450952
-0.00527614
-0.00605969
-0.00674266
-0.00724632
-0.00754595
-0.00766512
-0.00765549
-0.00757463
-0.00747068
-0.00737527
-0.00730319
-0.00725613
-0.00722609
-0.0072014
0.000176772
0.000161556
0.000107271
2.91411e-05
-4.61833e-05
-0.000105744
-0.000153976
-0.000209478
-0.000302505
-0.000474573
-0.000774756
-0.00124797
-0.00192048
-0.00279204
-0.00383668
-0.00500814
-0.00624704
-0.00748811
-0.00866666
-0.00972352
-0.0106086
-0.0112833
-0.0117211
-0.0119086
-0.0118446
-0.0115411
-0.0110226
-0.0103266
-0.0095037
-0.0086168
-0.00773884
-0.00694801
-0.0063196
-0.00591437
-0.00576534
-0.00586674
-0.00617015
-0.00659205
-0.00703303
-0.00740397
-0.00764979
-0.00775979
-0.00775898
-0.00768815
-0.0075869
-0.00748537
-0.00740194
-0.00734371
-0.00730727
-0.00728277
0.00031899
0.000285563
0.000211244
0.000117442
3.09591e-05
-4.14996e-05
-0.0001154
-0.000225861
-0.000425889
-0.000779948
-0.00134758
-0.00216433
-0.003232
-0.00452038
-0.00597501
-0.00752685
-0.00910182
-0.0106286
-0.0120438
-0.013295
-0.0143419
-0.0151558
-0.0157191
-0.0160245
-0.0160736
-0.0158765
-0.0154512
-0.0148237
-0.0140277
-0.0131048
-0.0121046
-0.0110834
-0.010102
-0.00922109
-0.00849354
-0.00795647
-0.00762342
-0.00748026
-0.00748596
-0.00757853
-0.00768835
-0.00775966
-0.00776946
-0.00772639
-0.00765285
-0.00757082
-0.00749718
-0.00744212
-0.00740709
-0.00738606
0.000514444
0.000460706
0.000366536
0.000255318
0.000147859
3.84336e-05
-0.00010681
-0.000347341
-0.000760552
-0.00142194
-0.00237984
-0.00364081
-0.00517073
-0.00690512
-0.00876231
-0.0106565
-0.0125078
-0.0142483
-0.0158246
-0.0171973
-0.0183395
-0.0192351
-0.0198762
-0.0202622
-0.0203981
-0.020294
-0.0199638
-0.0194254
-0.0186998
-0.0178109
-0.0167861
-0.0156561
-0.0144568
-0.0132288
-0.0120187
-0.010877
-0.00985672
-0.00900887
-0.00837523
-0.00797387
-0.00778057
-0.00772398
-0.00771636
-0.0077017
-0.00766769
-0.00762218
-0.00757617
-0.00753887
-0.00751412
-0.00749947
0.000761316
0.000688039
0.000574848
0.000440025
0.000291005
0.000102495
-0.000184557
-0.000655273
-0.00139988
-0.00248242
-0.00391811
-0.0056711
-0.00766674
-0.00980904
-0.0119982
-0.0141441
-0.0161735
-0.0180321
-0.0196828
-0.0211023
-0.0222778
-0.023204
-0.0238809
-0.0243129
-0.0245072
-0.0244737
-0.0242244
-0.0237723
-0.0231311
-0.022314
-0.0213334
-0.0202008
-0.018928
-0.0175296
-0.0160275
-0.0144561
-0.0128683
-0.0113409
-0.00997439
-0.00888004
-0.00814275
-0.00776662
-0.007649
-0.00764109
-0.00764851
-0.00764748
-0.00763982
-0.00763066
-0.00762282
-0.00761615
0.00104446
0.000954519
0.00082101
0.000648427
0.000423448
9.51934e-05
-0.000422041
-0.0012292
-0.00240752
-0.00398588
-0.00593098
-0.00815981
-0.0105617
-0.0130213
-0.0154361
-0.0177265
-0.0198367
-0.0217319
-0.0233929
-0.0248108
-0.0259836
-0.0269131
-0.0276037
-0.0280617
-0.0282948
-0.0283122
-0.028124
-0.0277406
-0.0271718
-0.0264262
-0.0255093
-0.0244229
-0.0231649
-0.0217307
-0.0201173
-0.0183308
-0.0163969
-0.0143747
-0.0123697
-0.0105379
-0.00906593
-0.0081041
-0.00766511
-0.00757899
-0.00761759
-0.00766421
-0.00769917
-0.00772274
-0.00773488
-0.00773644
0.00133125
0.00122758
0.00106746
0.000833203
0.000485047
-5.52982e-05
-0.000892931
-0.00212531
-0.00380042
-0.00589457
-0.00832062
-0.0109542
-0.0136627
-0.0163291
-0.0188645
-0.0212103
-0.023333
-0.0252171
-0.0268579
-0.0282564
-0.0294164
-0.0303431
-0.0310419
-0.031519
-0.0317815
-0.0318368
-0.0316934
-0.0313595
-0.0308432
-0.0301508
-0.0292858
-0.0282474
-0.0270293
-0.0256195
-0.0240011
-0.0221583
-0.0200854
-0.0178037
-0.0153823
-0.0129591
-0.0107501
-0.00901793
-0.00796782
-0.00758698
-0.00759529
-0.00769044
-0.00776981
-0.00782621
-0.00785821
-0.00786773
0.00157082
0.00145415
0.00125475
0.00092665
0.000401482
-0.000421977
-0.001653
-0.0033628
-0.00554701
-0.00812242
-0.0109539
-0.0138905
-0.0167968
-0.0195708
-0.0221475
-0.024493
-0.0265944
-0.0284505
-0.0300658
-0.0314461
-0.0325973
-0.0335247
-0.0342334
-0.0347286
-0.0350159
-0.0351012
-0.0349913
-0.0346929
-0.0342123
-0.0335549
-0.0327236
-0.031718
-0.0305325
-0.0291554
-0.0275677
-0.0257449
-0.023662
-0.0213061
-0.0186977
-0.0159205
-0.0131518
-0.0106731
-0.00882236
-0.00783631
-0.00761882
-0.00773696
-0.0078657
-0.00795461
-0.00800519
-0.00802286
0.00169848
0.00156614
0.00130957
0.000852242
9.95424e-05
-0.00106222
-0.00272748
-0.00492169
-0.00757867
-0.0105599
-0.0136966
-0.0168308
-0.0198409
-0.0226504
-0.0252212
-0.0275412
-0.0296122
-0.0314416
-0.0330379
-0.0344078
-0.0355572
-0.0364903
-0.0372113
-0.0377241
-0.0380331
-0.0381432
-0.0380594
-0.0377871
-0.0373313
-0.0366965
-0.0358854
-0.0348981
-0.0337314
-0.0323767
-0.0308188
-0.0290347
-0.0269945
-0.0246672
-0.0220352
-0.0191224
-0.0160344
-0.0129988
-0.0103746
-0.00857001
-0.00780553
-0.00781004
-0.00799389
-0.0081197
-0.00818985
-0.00821737
0.00164547
0.00149184
0.0011585
0.000540368
-0.000476814
-0.00200534
-0.00410713
-0.00675018
-0.00980752
-0.013098
-0.0164378
-0.0196786
-0.022724
-0.0255257
-0.0280692
-0.0303578
-0.032402
-0.0342126
-0.0357982
-0.037165
-0.0383176
-0.0392594
-0.0399933
-0.0405226
-0.0408507
-0.0409813
-0.0409187
-0.0406669
-0.0402299
-0.0396111
-0.0388126
-0.0378354
-0.0366776
-0.0353341
-0.0337948
-0.0320427
-0.0300524
-0.0277899
-0.0252188
-0.0223189
-0.0191226
-0.0157691
-0.0125562
-0.00993527
-0.00836597
-0.00795839
-0.00815242
-0.00832844
-0.00842495
-0.00846667
0.00135169
0.00117001
0.00074311
-5.6967e-05
-0.00135486
-0.00324766
-0.00575247
-0.00877714
-0.0121434
-0.0156442
-0.0190977
-0.022377
-0.0254145
-0.0281872
-0.0306976
-0.0329583
-0.0349828
-0.0367819
-0.0383629
-0.0397308
-0.0408888
-0.0418395
-0.0425854
-0.043129
-0.0434732
-0.0436213
-0.0435763
-0.0433416
-0.0429203
-0.0423147
-0.0415266
-0.0405568
-0.0394042
-0.038066
-0.0365363
-0.0348045
-0.0328531
-0.0306543
-0.0281697
-0.0253574
-0.022196
-0.0187353
-0.0151688
-0.0118933
-0.00946579
-0.00833771
-0.00833969
-0.00858756
-0.00872191
-0.00878519
0.000777916
0.000562486
3.18746e-05
-0.000956791
-0.00252876
-0.00475512
-0.00760278
-0.0109247
-0.0145054
-0.0181282
-0.0216258
-0.0248981
-0.0279042
-0.0306403
-0.0331194
-0.0353576
-0.0373682
-0.0391604
-0.0407397
-0.0421098
-0.043273
-0.0442315
-0.0449873
-0.0455427
-0.0459003
-0.0460627
-0.0460326
-0.0458126
-0.0454051
-0.044812
-0.0440343
-0.0430725
-0.0419261
-0.0405931
-0.0390702
-0.0373516
-0.0354267
-0.0332774
-0.0308729
-0.0281688
-0.0251158
-0.0216957
-0.0179925
-0.0142888
-0.0111187
-0.00913195
-0.00862186
-0.00890686
-0.00909228
-0.00918817
-8.61678e-05
-0.000338328
-0.000974121
-0.00214296
-0.00396219
-0.00647071
-0.00958652
-0.013118
-0.016827
-0.0205009
-0.0239935
-0.0272315
-0.0301954
-0.0328942
-0.0353455
-0.0375655
-0.0395656
-0.0413527
-0.0429308
-0.0443025
-0.0454696
-0.0464339
-0.0471974
-0.0477622
-0.0481306
-0.0483048
-0.0482872
-0.04808
-0.047685
-0.0471037
-0.046337
-0.045385
-0.0442472
-0.0429223
-0.041408
-0.0397013
-0.0377967
-0.035684
-0.0333432
-0.0307385
-0.0278156
-0.0245179
-0.0208405
-0.0169342
-0.0132255
-0.0104202
-0.00916408
-0.00928391
-0.00955356
-0.00969523
-0.00121995
-0.00150839
-0.0022423
-0.00357032
-0.00559579
-0.00832402
-0.0116301
-0.0152902
-0.0190567
-0.0227293
-0.0261854
-0.0293745
-0.0322929
-0.0349561
-0.0373828
-0.0395871
-0.0415777
-0.0433597
-0.0449358
-0.0463076
-0.0474769
-0.0484453
-0.0492146
-0.0497867
-0.0501637
-0.0503476
-0.0503405
-0.0501443
-0.0497605
-0.0491905
-0.0484349
-0.0474941
-0.0463674
-0.0450538
-0.0435519
-0.0418596
-0.0399744
-0.0378917
-0.0356008
-0.0330782
-0.0302782
-0.0271329
-0.0235813
-0.0196574
-0.0156391
-0.0121686
-0.0100962
-0.00976829
-0.0101472
-0.0103348
-0.00257569
-0.00289666
-0.00371489
-0.00517288
-0.00735654
-0.01024
-0.0136644
-0.0173852
-0.0211556
-0.0247917
-0.0281931
-0.0313272
-0.0342001
-0.0368299
-0.0392339
-0.0414233
-0.0434044
-0.0451804
-0.0467531
-0.0481238
-0.0492939
-0.0502648
-0.0510383
-0.0516161
-0.0520001
-0.052192
-0.0521936
-0.0520068
-0.0516329
-0.0510732
-0.0503286
-0.0493994
-0.0482854
-0.0469859
-0.0454996
-0.0438255
-0.0419622
-0.0399083
-0.0376597
-0.035204
-0.03251
-0.0295163
-0.026138
-0.0223252
-0.018206
-0.0142821
-0.0114603
-0.0105064
-0.0108923
-0.0111229
-0.00408625
-0.00443346
-0.00531809
-0.00687334
-0.00916667
-0.012146
-0.0156278
-0.0193573
-0.0230944
-0.0266728
-0.0300107
-0.0330887
-0.0359178
-0.0385163
-0.0408985
-0.0430731
-0.045044
-0.0468131
-0.0483814
-0.0497498
-0.0509196
-0.0518921
-0.0526687
-0.053251
-0.0536405
-0.0538389
-0.0538479
-0.0536689
-0.0533036
-0.0527532
-0.0520188
-0.0511011
-0.0500002
-0.0487159
-0.0472478
-0.0455949
-0.0437569
-0.0417338
-0.0395254
-0.0371276
-0.0345232
-0.0316669
-0.0284741
-0.0248476
-0.0207921
-0.016635
-0.013214
-0.0115699
-0.0117449
-0.0120564
-0.0056745
-0.00603994
-0.00697147
-0.00859189
-0.0109508
-0.0139759
-0.017468
-0.0211694
-0.0248502
-0.0283605
-0.0316329
-0.0346564
-0.0374443
-0.0400132
-0.0423745
-0.0445341
-0.0464943
-0.0482557
-0.049819
-0.0511846
-0.0523535
-0.0533269
-0.0541058
-0.0546917
-0.0550857
-0.0552895
-0.0553044
-0.0551321
-0.054774
-0.0542316
-0.0535062
-0.052599
-0.0515108
-0.0502421
-0.0487928
-0.047163
-0.0453529
-0.0433632
-0.041196
-0.0388525
-0.0363269
-0.0335915
-0.0305771
-0.0271713
-0.0232933
-0.0191008
-0.0152746
-0.0129694
-0.0127509
-0.0131885
-0.00726226
-0.00763687
-0.00859623
-0.0102531
-0.0126408
-0.0156729
-0.0191418
-0.0227921
-0.026405
-0.0298444
-0.0330536
-0.0360263
-0.0387761
-0.0413172
-0.0436584
-0.0458033
-0.0477526
-0.0495063
-0.0510644
-0.0524271
-0.053595
-0.0545689
-0.0553498
-0.0559385
-0.0563363
-0.0565444
-0.0565642
-0.0563971
-0.0560448
-0.055509
-0.0547913
-0.0538934
-0.0528166
-0.0515623
-0.0501315
-0.048525
-0.0467438
-0.0447895
-0.0426652
-0.0403755
-0.0379226
-0.0352948
-0.0324443
-0.0292671
-0.0256364
-0.021572
-0.0175629
-0.0147405
-0.0140784
-0.0146219
-0.00877747
-0.00915162
-0.0101213
-0.0117908
-0.0141788
-0.0171899
-0.0206142
-0.0242016
-0.0277438
-0.0311152
-0.0342662
-0.0371931
-0.0399084
-0.042424
-0.0447463
-0.0468772
-0.0488162
-0.0505627
-0.052116
-0.0534761
-0.0546432
-0.0556178
-0.0564003
-0.0569916
-0.0573925
-0.0576041
-0.0576277
-0.0574647
-0.0571168
-0.056586
-0.0558743
-0.0549837
-0.0539166
-0.052675
-0.051261
-0.0496764
-0.0479234
-0.0460046
-0.0439241
-0.0416885
-0.0393054
-0.0367757
-0.0340738
-0.0311174
-0.0277681
-0.0239517
-0.019974
-0.0168494
-0.0158064
-0.0163763
-0.0101592
-0.0105228
-0.0114872
-0.0131503
-0.0155179
-0.0184899
-0.0218582
-0.0253793
-0.0288538
-0.0321638
-0.0352638
-0.0381508
-0.0408358
-0.0433287
-0.0456341
-0.0477524
-0.0496824
-0.0514226
-0.0529721
-0.0543304
-0.0554973
-0.0564728
-0.0572573
-0.057851
-0.0582546
-0.058469
-0.0584954
-0.0583352
-0.0579903
-0.0574628
-0.056755
-0.0558697
-0.0548097
-0.0535782
-0.0521782
-0.0506129
-0.0488858
-0.0470006
-0.0449628
-0.0427805
-0.0404649
-0.0380265
-0.0354588
-0.0327071
-0.0296454
-0.0261482
-0.0223697
-0.0191539
-0.0178297
-0.0183383
-0.0113604
-0.0117029
-0.012648
-0.0142899
-0.016623
-0.0195453
-0.0228533
-0.0263105
-0.0297246
-0.0329822
-0.0360396
-0.0388933
-0.041553
-0.0440266
-0.0463176
-0.0484254
-0.0503481
-0.0520837
-0.0536309
-0.0549886
-0.0561562
-0.0571335
-0.0579202
-0.0585165
-0.0589226
-0.0591393
-0.0591677
-0.0590092
-0.0586657
-0.0581396
-0.0574335
-0.0565508
-0.055495
-0.0542701
-0.0528804
-0.0513305
-0.0496251
-0.0477698
-0.0457713
-0.0436394
-0.041388
-0.0390343
-0.0365874
-0.0340199
-0.0312316
-0.0280795
-0.0246048
-0.0214627
-0.0199532
-0.0203361
-0.0123485
-0.0126592
-0.0135721
-0.0151811
-0.0174701
-0.0203373
-0.0235852
-0.0269846
-0.0303478
-0.0335633
-0.0365873
-0.0394151
-0.0420547
-0.0445132
-0.0467929
-0.0488929
-0.0508106
-0.0525438
-0.0540904
-0.0554492
-0.056619
-0.057599
-0.0583888
-0.0589881
-0.0593968
-0.0596156
-0.0596452
-0.0594872
-0.0591436
-0.0586168
-0.05791
-0.0570268
-0.0559717
-0.0547494
-0.0533653
-0.0518255
-0.0501364
-0.0483051
-0.0463402
-0.0442531
-0.0420601
-0.0397832
-0.0374434
-0.0350371
-0.032495
-0.0296795
-0.0265551
-0.0235967
-0.0219871
-0.0222093
-0.0131056
-0.0133736
-0.0142419
-0.0158077
-0.0180456
-0.020855
-0.0240455
-0.0273945
-0.030717
-0.0339012
-0.0369014
-0.0397108
-0.0423362
-0.0447839
-0.0470561
-0.0491514
-0.0510671
-0.0528004
-0.0543489
-0.0557108
-0.0568846
-0.0578689
-0.0586629
-0.0592659
-0.0596776
-0.0598983
-0.0599286
-0.0597701
-0.0594248
-0.0588952
-0.0581848
-0.0572979
-0.0562393
-0.0550148
-0.053631
-0.0520951
-0.0504153
-0.0486004
-0.046661
-0.0446103
-0.0424671
-0.0402567
-0.038009
-0.0357397
-0.0334097
-0.0309001
-0.0281296
-0.0254171
-0.0237796
-0.0238303
-0.0136265
-0.0138417
-0.014653
-0.0161654
-0.0183462
-0.0210955
-0.0242312
-0.0275367
-0.0308282
-0.0339915
-0.0369772
-0.0397759
-0.0423932
-0.044835
-0.0471037
-0.0491979
-0.0511148
-0.0528513
-0.0544045
-0.0557721
-0.056952
-0.0579426
-0.0587424
-0.0593503
-0.0597656
-0.0599884
-0.0600192
-0.0598593
-0.0595106
-0.058976
-0.0582592
-0.0573647
-0.0562982
-0.0550662
-0.0536763
-0.0521371
-0.0504583
-0.0486506
-0.0467265
-0.0447015
-0.0425963
-0.0404394
-0.0382669
-0.0361093
-0.0339549
-0.0317091
-0.0292685
-0.0268273
-0.0252198
-0.0251037
-0.0139181
-0.0140721
-0.0148139
-0.0162618
-0.0183778
-0.0210635
-0.0241449
-0.0274116
-0.0306799
-0.0338312
-0.0368111
-0.0396066
-0.0422218
-0.0446628
-0.0469323
-0.0490294
-0.0509511
-0.0526942
-0.0542554
-0.0556317
-0.0568207
-0.0578199
-0.0586275
-0.0592419
-0.059662
-0.0598875
-0.0599187
-0.0597565
-0.0594031
-0.0588613
-0.0581349
-0.057229
-0.0561497
-0.0549043
-0.0535013
-0.0519506
-0.0502633
-0.0484521
-0.0465315
-0.044519
-0.0424375
-0.0403182
-0.038202
-0.0361306
-0.0341147
-0.0320866
-0.0299365
-0.0277658
-0.0262303
-0.0259603
-0.0139974
-0.0140851
-0.0147451
-0.0161151
-0.018156
-0.020771
-0.0237949
-0.0270237
-0.0302731
-0.0334191
-0.0364004
-0.0391995
-0.0418186
-0.0442639
-0.0465387
-0.0486427
-0.0505733
-0.0523269
-0.0538998
-0.0552885
-0.0564898
-0.0575008
-0.0583188
-0.0589418
-0.0593683
-0.0595975
-0.0596293
-0.0594645
-0.059105
-0.0585538
-0.0578148
-0.0568934
-0.055796
-0.0545308
-0.0531071
-0.051536
-0.04983
-0.0480034
-0.0460727
-0.0440576
-0.0419832
-0.0398833
-0.0378026
-0.0357914
-0.0338785
-0.0320217
-0.0301159
-0.0281971
-0.0267598
-0.0263509
-0.0138909
-0.0139118
-0.0144784
-0.0157543
-0.0177057
-0.0202381
-0.0231955
-0.0263815
-0.0296118
-0.0327555
-0.0357433
-0.0385517
-0.0411803
-0.0436349
-0.0459196
-0.048035
-0.0499788
-0.0517473
-0.0533362
-0.0547415
-0.0559592
-0.0569855
-0.0578172
-0.0584517
-0.0588867
-0.059121
-0.0591541
-0.0589866
-0.0586201
-0.0580574
-0.0573028
-0.0563617
-0.0552409
-0.0539492
-0.0524968
-0.0508956
-0.0491597
-0.0473047
-0.0453492
-0.0433148
-0.0412291
-0.0391285
-0.0370611
-0.0350838
-0.0332401
-0.031511
-0.0298018
-0.0281048
-0.0267772
-0.0262427
-0.0136334
-0.0135927
-0.0140557
-0.0152184
-0.0170604
-0.0194919
-0.0223671
-0.0254986
-0.028703
-0.0318426
-0.0348389
-0.0376606
-0.0403033
-0.042772
-0.0450714
-0.0472029
-0.0491647
-0.0509529
-0.0525629
-0.0539897
-0.0552284
-0.0562746
-0.0571241
-0.0577734
-0.0582198
-0.0584614
-0.0584971
-0.0583272
-0.057953
-0.0573773
-0.0566042
-0.0556392
-0.0544897
-0.0531647
-0.0516752
-0.050034
-0.0482562
-0.0463591
-0.0443629
-0.0422913
-0.0401745
-0.0380516
-0.0359741
-0.0340045
-0.0321983
-0.0305567
-0.0289981
-0.0274868
-0.0262679
-0.0256176
-0.013266
-0.013175
-0.0135266
-0.0145546
-0.0162617
-0.0185672
-0.0213365
-0.0243934
-0.0275574
-0.0306849
-0.033687
-0.0365232
-0.0391835
-0.0416708
-0.0439899
-0.0461427
-0.0481278
-0.0499415
-0.0515782
-0.0530323
-0.0542979
-0.0553693
-0.0562415
-0.05691
-0.0573714
-0.057623
-0.0576632
-0.0574919
-0.0571099
-0.0565199
-0.0557257
-0.0547331
-0.0535495
-0.0521844
-0.0506492
-0.0489577
-0.0471258
-0.0451722
-0.0431187
-0.0409912
-0.0388225
-0.0366546
-0.034543
-0.0325553
-0.0307569
-0.0291666
-0.0277163
-0.0263526
-0.0252316
-0.0244711
-0.0128326
-0.0127069
-0.0129438
-0.0138151
-0.0153575
-0.0175054
-0.0201371
-0.0230901
-0.02619
-0.0292891
-0.0322883
-0.0351366
-0.0378161
-0.040326
-0.0426699
-0.0448498
-0.0468646
-0.0487102
-0.0503806
-0.0518688
-0.0531679
-0.054271
-0.0551718
-0.055865
-0.0563459
-0.0566112
-0.0566587
-0.0564875
-0.0560983
-0.0554932
-0.0546759
-0.0536522
-0.0524296
-0.0510178
-0.0494285
-0.0476762
-0.0457777
-0.0437528
-0.0416249
-0.0394221
-0.03718
-0.0349441
-0.032774
-0.030743
-0.028925
-0.027354
-0.0259743
-0.0247208
-0.02368
-0.0228113
-0.012374
-0.0122308
-0.0123571
-0.0130533
-0.0143998
-0.0163532
-0.0188084
-0.0216188
-0.0246205
-0.0276652
-0.0306451
-0.0334976
-0.036195
-0.0387305
-0.0411045
-0.0433184
-0.0453704
-0.0472559
-0.0489681
-0.0504987
-0.0518394
-0.0529819
-0.0539186
-0.0546428
-0.055149
-0.0554327
-0.055491
-0.0553225
-0.0549272
-0.054307
-0.0534652
-0.0524075
-0.0511414
-0.0496766
-0.0480252
-0.0462019
-0.0442243
-0.0421133
-0.0398936
-0.0375959
-0.0352585
-0.0329315
-0.0306789
-0.0285802
-0.0267174
-0.0251378
-0.0237959
-0.0226179
-0.0216353
-0.0206577
-0.0119221
-0.0117768
-0.0118065
-0.0123184
-0.0134409
-0.0151613
-0.0173953
-0.020016
-0.0228745
-0.0258277
-0.0287619
-0.0316034
-0.0343131
-0.0368752
-0.039285
-0.0415408
-0.0436393
-0.0455746
-0.0473387
-0.0489218
-0.0503139
-0.0515051
-0.0524863
-0.0532494
-0.0537875
-0.0540954
-0.0541692
-0.0540068
-0.0536077
-0.0529731
-0.0521063
-0.0510124
-0.049699
-0.0481756
-0.0464544
-0.0445504
-0.0424815
-0.0402696
-0.037941
-0.0355288
-0.0330747
-0.0306336
-0.0282752
-0.026086
-0.0241556
-0.0225431
-0.0212111
-0.0200778
-0.019128
-0.0180392
-0.0114976
-0.011361
-0.0113186
-0.0116512
-0.0125307
-0.013982
-0.0159474
-0.018324
-0.0209841
-0.0237962
-0.0266466
-0.0294526
-0.0321627
-0.0347498
-0.0372004
-0.0395073
-0.0416637
-0.0436613
-0.0454899
-0.047138
-0.0485934
-0.0498445
-0.0508805
-0.0516917
-0.0522701
-0.0526092
-0.0527043
-0.0525525
-0.0521526
-0.0515055
-0.0506139
-0.0494828
-0.0481191
-0.0465324
-0.0447346
-0.0427407
-0.0405691
-0.0382423
-0.0357883
-0.0332426
-0.0306511
-0.028074
-0.0255878
-0.0232869
-0.0212685
-0.0196024
-0.0182563
-0.0171403
-0.0161949
-0.0149909
-0.0111119
-0.0109905
-0.0109057
-0.0110803
-0.0117126
-0.0128668
-0.0145172
-0.0165907
-0.0189877
-0.021597
-0.0243125
-0.027047
-0.0297375
-0.0323429
-0.0348379
-0.0372061
-0.0394342
-0.0415096
-0.0434185
-0.0451469
-0.0466802
-0.0480048
-0.049108
-0.0499785
-0.0506069
-0.0509856
-0.0511091
-0.0509735
-0.0505773
-0.0499205
-0.0490056
-0.047837
-0.0464213
-0.0447675
-0.0428874
-0.0407959
-0.0385113
-0.0360569
-0.0334623
-0.0307658
-0.0280176
-0.0252845
-0.0226501
-0.0202184
-0.0180937
-0.0163562
-0.0149748
-0.0138509
-0.0128758
-0.01155
-0.0107707
-0.0106674
-0.010567
-0.0106202
-0.0110197
-0.0118624
-0.0131573
-0.0148675
-0.0169298
-0.0192635
-0.0217799
-0.0243943
-0.0270347
-0.0296452
-0.0321852
-0.0346247
-0.0369403
-0.0391119
-0.0411207
-0.0429483
-0.0445775
-0.045992
-0.0471771
-0.04812
-0.04881
-0.0492383
-0.0493986
-0.0492862
-0.0488991
-0.0482367
-0.0473011
-0.0460961
-0.0446279
-0.0429049
-0.0409385
-0.0387431
-0.0363373
-0.033745
-0.030997
-0.0281351
-0.0252139
-0.0223074
-0.0195071
-0.0169277
-0.0146798
-0.0128543
-0.0114165
-0.0102594
-0.00921015
-0.00775011
-0.0104757
-0.0103908
-0.0102935
-0.0102699
-0.0104709
-0.0110055
-0.0119154
-0.0132054
-0.0148585
-0.0168359
-0.0190778
-0.0215112
-0.0240598
-0.0266537
-0.0292339
-0.0317529
-0.0341726
-0.0364616
-0.0385928
-0.0405423
-0.0422887
-0.0438126
-0.0450972
-0.0461281
-0.0468931
-0.0473827
-0.0475896
-0.0475088
-0.0471375
-0.046475
-0.0455227
-0.044284
-0.0427644
-0.040972
-0.0389175
-0.0366149
-0.0340827
-0.0313455
-0.0284356
-0.0253981
-0.0222919
-0.019199
-0.0162182
-0.0134762
-0.0110882
-0.00915679
-0.00763738
-0.00641682
-0.00523074
-0.00361059
-0.0102256
-0.0101577
-0.0100744
-0.0100165
-0.0100679
-0.0103174
-0.0108279
-0.0116494
-0.0128212
-0.0143591
-0.0162448
-0.0184269
-0.0208321
-0.0233783
-0.0259872
-0.0285898
-0.0311287
-0.0335567
-0.0358353
-0.0379321
-0.03982
-0.0414758
-0.0428801
-0.0440166
-0.0448722
-0.0454363
-0.0457013
-0.0456618
-0.0453147
-0.0446588
-0.0436954
-0.0424273
-0.0408599
-0.0390004
-0.0368592
-0.03445
-0.0317909
-0.0289076
-0.0258332
-0.0226167
-0.01932
-0.0160338
-0.0128617
-0.00994368
-0.00739546
-0.00533437
-0.00369663
-0.00236968
-0.000952271
0.000881432
-0.0100154
-0.00996393
-0.0099024
-0.00984196
-0.00979471
-0.00979649
-0.00991053
-0.0102294
-0.0108579
-0.0118791
-0.0133283
-0.0151866
-0.0173907
-0.0198509
-0.0224692
-0.0251532
-0.0278219
-0.0304084
-0.0328585
-0.0351287
-0.0371839
-0.0389958
-0.0405417
-0.0418033
-0.0427665
-0.0434201
-0.0437561
-0.0437689
-0.0434556
-0.0428149
-0.041848
-0.0405575
-0.0389485
-0.037028
-0.0348058
-0.0322959
-0.029516
-0.026493
-0.0232601
-0.0198707
-0.0163869
-0.0129086
-0.00953861
-0.00643191
-0.00369516
-0.00146757
0.000349049
0.00185319
0.00364945
0.00580689
-0.00983243
-0.00980148
-0.0097718
-0.00972788
-0.00961916
-0.00941236
-0.00914759
-0.00895018
-0.00899359
-0.00943819
-0.0103841
-0.0118541
-0.0138021
-0.0161351
-0.018738
-0.0214938
-0.024296
-0.0270544
-0.0296957
-0.0321621
-0.0344084
-0.0363996
-0.0381088
-0.0395153
-0.0406036
-0.041362
-0.0417828
-0.0418602
-0.0415919
-0.0409767
-0.0400161
-0.0387128
-0.0370721
-0.0351013
-0.0328097
-0.0302123
-0.0273258
-0.0241797
-0.0208052
-0.0172611
-0.0136047
-0.00994598
-0.00637573
-0.00306668
-9.82091e-05
0.00235661
0.00445589
0.00626492
0.00867657
0.0113866
-0.00965145
-0.00965255
-0.00966949
-0.00965053
-0.00949281
-0.00910286
-0.00848499
-0.00778201
-0.0072304
-0.00707079
-0.00747451
-0.00851286
-0.0101629
-0.012333
-0.0148942
-0.0177063
-0.0206371
-0.0235714
-0.0264149
-0.0290928
-0.0315481
-0.033737
-0.0356277
-0.037196
-0.0384254
-0.0393033
-0.0398223
-0.0399769
-0.0397657
-0.0391878
-0.0382458
-0.0369429
-0.0352847
-0.0332797
-0.0309368
-0.0282735
-0.0253041
-0.0220634
-0.0185762
-0.0149101
-0.0111073
-0.00729208
-0.00352235
5.00447e-06
0.00327067
0.00605285
0.00860836
0.010965
0.0143805
0.0181316
-0.00943376
-0.00948619
-0.00956586
-0.00956931
-0.00935044
-0.00877983
-0.00783407
-0.00666171
-0.0055474
-0.00480348
-0.0046706
-0.00527042
-0.00660677
-0.00859373
-0.0110923
-0.0139428
-0.0169892
-0.0200922
-0.0231362
-0.0260286
-0.0286992
-0.0310945
-0.0331768
-0.0349175
-0.036299
-0.0373071
-0.0379356
-0.0381786
-0.0380365
-0.0375088
-0.0365994
-0.035313
-0.0336554
-0.0316382
-0.0292683
-0.0265694
-0.0235495
-0.0202544
-0.0166937
-0.012952
-0.00903916
-0.00510224
-0.00113646
0.00263082
0.00628227
0.00955623
0.0128375
0.0162165
0.0212901
0.0271727
-0.00913685
-0.00926134
-0.00941386
-0.00942559
-0.0091184
-0.00835236
-0.00709916
-0.00551407
-0.00391295
-0.00265979
-0.00205095
-0.00225255
-0.00329531
-0.00510211
-0.00752913
-0.0104019
-0.0135455
-0.0167991
-0.0200286
-0.0231234
-0.0260016
-0.028598
-0.0308703
-0.0327836
-0.0343201
-0.0354625
-0.0362069
-0.036546
-0.0364831
-0.0360176
-0.0351556
-0.0339035
-0.0322676
-0.0302638
-0.0278961
-0.0251971
-0.0221655
-0.0188616
-0.0152739
-0.0115068
-0.00752845
-0.00350321
0.000643731
0.00469443
0.0088159
0.0128628
0.0172374
0.0225807
0.030445
0.0410153
-0.00874345
-0.00895113
-0.00917816
-0.00917827
-0.00875428
-0.00777588
-0.0062349
-0.0043061
-0.00232624
-0.000686697
0.000283686
0.000389663
-0.00042079
-0.00207948
-0.00444319
-0.00732781
-0.0105473
-0.0139231
-0.017309
-0.0205769
-0.0236377
-0.0264127
-0.0288583
-0.0309298
-0.0326129
-0.033883
-0.0347426
-0.0351783
-0.0352012
-0.0348051
-0.034005
-0.0328013
-0.0312101
-0.0292406
-0.0269083
-0.0242359
-0.021237
-0.0179527
-0.0143952
-0.0106224
-0.00664861
-0.0025202
0.00173171
0.0061921
0.0107659
0.0161013
0.0219932
0.0311708
0.0438417
0.0653202
-0.00834955
-0.00864145
-0.00894518
-0.00890977
-0.00833661
-0.00712625
-0.00531442
-0.00310962
-0.000864853
0.00102268
0.00221558
0.00251067
0.00184328
0.000278682
-0.00204689
-0.00494082
-0.00821768
-0.0116824
-0.0151878
-0.0185869
-0.0217926
-0.0247077
-0.0272964
-0.0294961
-0.0313064
-0.032683
-0.03365
-0.0341681
-0.0342809
-0.0339447
-0.0332231
-0.0320595
-0.030544
-0.0285968
-0.0263484
-0.0236787
-0.0207849
-0.017473
-0.0140533
-0.0101874
-0.0063826
-0.00199406
0.00211985
0.00730552
0.0120992
0.0196285
0.0275838
0.0441698
0.0653998
0.11293
-0.00843306
-0.00875986
-0.0091319
-0.00901167
-0.00822807
-0.00673867
-0.00464282
-0.00219251
0.000240542
0.00226772
0.00355904
0.00392887
0.00330902
0.00177776
-0.000542409
-0.00344419
-0.00675802
-0.0102686
-0.0138452
-0.0173148
-0.0206113
-0.0236049
-0.0262903
-0.0285627
-0.0304675
-0.0319025
-0.0329598
-0.0335174
-0.0337194
-0.0334008
-0.0327739
-0.0316027
-0.0301979
-0.0282125
-0.0261052
-0.0233569
-0.0206531
-0.0172025
-0.0140419
-0.00993517
-0.00646297
-0.00162262
0.00217678
0.00839706
0.0134609
0.0242091
0.0357401
0.0653551
0.10305
0.210195
-0.0115927
-0.00985934
-0.00966063
-0.00925509
-0.00827009
-0.00660992
-0.00436953
-0.00180777
0.00069905
0.00277286
0.00409409
0.00449143
0.00390022
0.0024001
0.000111244
-0.00276623
-0.00606054
-0.00956671
-0.0131433
-0.0166304
-0.0199434
-0.0229704
-0.0256813
-0.0279952
-0.0299276
-0.0314065
-0.0324889
-0.0330898
-0.0333119
-0.0330349
-0.0324226
-0.0312915
-0.029895
-0.0279491
-0.0258422
-0.0231329
-0.0204148
-0.0170003
-0.0137891
-0.00969942
-0.00607334
-0.00115459
0.00312602
0.00989695
0.0166385
0.0304043
0.0487782
0.0956715
0.167018
0.41125
