# vtk DataFile Version 2.0
pressure
ASCII
DATASET RECTILINEAR_GRID
DIMENSIONS 51 51 1
X_COORDINATES 51 double
0 0.02 0.04 0.06 0.08 0.1 0.12 0.14 0.16 0.18 0.2 0.22 0.24 0.26 0.28 0.3 0.32 0.34 0.36 0.38 0.4 0.42 0.44 0.46 0.48 0.5 0.52 0.54 0.56 0.58 0.6 0.62 0.64 0.66 0.68 0.7 0.72 0.74 0.76 0.78 0.8 0.82 0.84 0.86 0.88 0.9 0.92 0.94 0.96 0.98 1 
Y_COORDINATES 51 double
0 0.02 0.04 0.06 0.08 0.1 0.12 0.14 0.16 0.18 0.2 0.22 0.24 0.26 0.28 0.3 0.32 0.34 0.36 0.38 0.4 0.42 0.44 0.46 0.48 0.5 0.52 0.54 0.56 0.58 0.6 0.62 0.64 0.66 0.68 0.7 0.72 0.74 0.76 0.78 0.8 0.82 0.84 0.86 0.88 0.9 0.92 0.94 0.96 0.98 1 
Z_COORDINATES 1 double
0.0

CELL_DATA 2500
SCALARS pressure double 1
LOOKUP_TABLE default
0
3.91801e-06
-3.19822e-05
-0.000115749
-0.000242553
-0.00040484
-0.000596278
-0.00081325
-0.00105478
-0.00132154
-0.00161453
-0.00193375
-0.00227719
-0.00264004
-0.0030142
-0.00338804
-0.00374636
-0.00407075
-0.00434046
-0.00453374
-0.00462982
-0.0046113
-0.00446677
-0.00419341
-0.00379917
-0.00330406
-0.00274033
-0.00215114
-0.00158754
-0.00110401
-0.000752602
-0.000576697
-0.000605004
-0.000847127
-0.00129161
-0.00190714
-0.00264692
-0.00345547
-0.00427637
-0.00505954
-0.00576641
-0.00637241
-0.00686666
-0.00724949
-0.00752868
-0.0077155
-0.00782153
-0.00785791
-0.007839
-0.00779247
-4.08668e-06
-5.95383e-07
-3.57353e-05
-0.00011473
-0.000231959
-0.000380825
-0.000556131
-0.00075514
-0.000977445
-0.00122411
-0.0014965
-0.0017952
-0.00211904
-0.00246443
-0.00282481
-0.00319025
-0.0035472
-0.00387864
-0.00416467
-0.00438368
-0.00451422
-0.00453742
-0.00443974
-0.00421582
-0.00387091
-0.00342247
-0.00290063
-0.00234702
-0.00181185
-0.00134941
-0.00101213
-0.000844074
-0.000874634
-0.00111383
-0.00155014
-0.00215174
-0.0028711
-0.00365228
-0.0044392
-0.00518321
-0.0058483
-0.00641314
-0.00687011
-0.00722229
-0.0074794
-0.00765382
-0.00775751
-0.00780038
-0.00779085
-0.00774564
3.24768e-05
3.2229e-05
-5.85973e-06
-8.43422e-05
-0.000196089
-0.000334614
-0.00049557
-0.000677387
-0.000880944
-0.00110864
-0.00136327
-0.00164699
-0.00196042
-0.00230199
-0.00266715
-0.00304769
-0.00343116
-0.00380062
-0.00413513
-0.00441092
-0.0046035
-0.00469042
-0.0046545
-0.00448694
-0.00419011
-0.00377932
-0.00328336
-0.00274345
-0.0022104
-0.00174005
-0.00138728
-0.00119916
-0.00120826
-0.00142726
-0.00184619
-0.00243321
-0.00313925
-0.0039057
-0.00467365
-0.00539249
-0.00602588
-0.00655404
-0.00697241
-0.00728788
-0.00751386
-0.00766565
-0.00775664
-0.00779567
-0.00778531
-0.00773396
0.000120845
0.000110161
6.36322e-05
-1.90444e-05
-0.000129784
-0.000262199
-0.000412919
-0.000582031
-0.000772572
-0.000989459
-0.00123825
-0.00152405
-0.00185047
-0.00221861
-0.00262588
-0.00306477
-0.00352191
-0.00397779
-0.00440744
-0.0047822
-0.00507243
-0.00525082
-0.00529594
-0.00519555
-0.00494935
-0.00457074
-0.0040874
-0.00354028
-0.00298103
-0.00246766
-0.00205866
-0.00180606
-0.00174826
-0.00190388
-0.00226791
-0.00281144
-0.0034856
-0.00422928
-0.0049792
-0.0056798
-0.00629082
-0.0067907
-0.00717558
-0.00745508
-0.00764649
-0.00776895
-0.00783864
-0.00786502
-0.00784799
-0.00779181
0.000260311
0.000231779
0.000171323
8.04578e-05
-3.32125e-05
-0.000164317
-0.000311221
-0.000476521
-0.000666499
-0.000889901
-0.00115649
-0.00147557
-0.00185448
-0.00229681
-0.0028006
-0.00335666
-0.00394771
-0.00454863
-0.00512794
-0.00565042
-0.00608042
-0.00638548
-0.00653993
-0.00652797
-0.00634627
-0.00600559
-0.00553141
-0.00496322
-0.00435241
-0.00375843
-0.00324355
-0.00286604
-0.00267288
-0.00269269
-0.00293046
-0.00336553
-0.0039539
-0.00463503
-0.00534209
-0.00601326
-0.00660123
-0.00707861
-0.0074383
-0.00768953
-0.00785157
-0.00794679
-0.00799466
-0.00800695
-0.00798424
-0.00792948
0.000444587
0.000392186
0.000313793
0.000211728
9.10984e-05
-4.52385e-05
-0.000198598
-0.000375297
-0.000586179
-0.000845201
-0.00116752
-0.00156727
-0.00205509
-0.00263547
-0.00330438
-0.00404782
-0.00484164
-0.00565286
-0.00644216
-0.00716719
-0.00778618
-0.00826154
-0.00856313
-0.00867114
-0.00857828
-0.00829134
-0.00783188
-0.00723594
-0.00655257
-0.00584096
-0.00516606
-0.00459261
-0.00417805
-0.00396496
-0.00397421
-0.00420062
-0.00461249
-0.00515615
-0.00576511
-0.00637201
-0.00692036
-0.00737283
-0.00771411
-0.00794839
-0.00809315
-0.00817162
-0.00820561
-0.00820964
-0.0081868
-0.00814036
0.000661911
0.000581525
0.000482888
0.000367201
0.000234535
8.33838e-05
-9.20587e-05
-0.000303294
-0.000567137
-0.000903884
-0.00133454
-0.00187745
-0.00254466
-0.00333864
-0.00425004
-0.00525706
-0.00632653
-0.00741635
-0.00847885
-0.00946442
-0.0103252
-0.0110185
-0.0115095
-0.0117741
-0.0118004
-0.0115901
-0.0111594
-0.0105387
-0.0097724
-0.0089164
-0.00803567
-0.00719948
-0.00647537
-0.00592185
-0.0055806
-0.0054697
-0.00557952
-0.00587322
-0.00629273
-0.00676961
-0.0072383
-0.007648
-0.00796959
-0.00819616
-0.00833812
-0.00841545
-0.0084496
-0.00845654
-0.00844185
-0.00840972
0.000893833
0.000783257
0.000663331
0.000531294
0.00037932
0.000199514
-2.01103e-05
-0.000297766
-0.000657405
-0.00112609
-0.00172993
-0.00248941
-0.00341486
-0.00450321
-0.00573659
-0.00708302
-0.0084988
-0.00993192
-0.011326
-0.0126242
-0.0137729
-0.0147247
-0.0154411
-0.0158939
-0.0160674
-0.0159583
-0.0155767
-0.0149462
-0.0141036
-0.0130984
-0.0119909
-0.0108505
-0.00975059
-0.0087637
-0.00795346
-0.00736669
-0.00702568
-0.00692338
-0.00702351
-0.00726701
-0.00758425
-0.0079099
-0.0081955
-0.00841563
-0.00856646
-0.0086589
-0.00870971
-0.00873331
-0.00873606
-0.00872274
0.00111414
0.000972878
0.000831103
0.000678622
0.000496843
0.000269513
-2.31734e-05
-0.00040741
-0.000914819
-0.00157855
-0.00242773
-0.00348168
-0.0047452
-0.00620605
-0.0078349
-0.00958749
-0.0114082
-0.0132345
-0.0150011
-0.0166446
-0.0181068
-0.0193373
-0.0202958
-0.0209528
-0.02129
-0.021301
-0.0209905
-0.0203748
-0.0194818
-0.0183509
-0.0170333
-0.0155912
-0.0140967
-0.0126288
-0.0112679
-0.0100891
-0.00915195
-0.00849156
-0.00811063
-0.00797751
-0.00803218
-0.00820021
-0.00841085
-0.00861188
-0.00877574
-0.00889609
-0.0089789
-0.00903275
-0.00906175
-0.00907035
0.00128872
0.00111762
0.000953088
0.000773825
0.000547971
0.000249224
-0.000151344
-0.000688601
-0.00140138
-0.00232701
-0.00349431
-0.00491738
-0.0065913
-0.00849102
-0.0105729
-0.0127783
-0.0150385
-0.0172801
-0.0194299
-0.0214198
-0.0231896
-0.0246892
-0.0258798
-0.0267335
-0.027233
-0.0273707
-0.0271481
-0.0265752
-0.0256709
-0.0244628
-0.0229887
-0.0212977
-0.0194512
-0.0175233
-0.0155998
-0.013774
-0.0121395
-0.0107781
-0.00974658
-0.00906365
-0.00870309
-0.00859899
-0.00866359
-0.00881178
-0.00898054
-0.00913479
-0.00926112
-0.00935658
-0.00941935
-0.00945229
0.00137679
0.0011776
0.000988356
0.000773311
0.000485519
8.74512e-05
-0.000459687
-0.00119925
-0.0021757
-0.00342742
-0.00497879
-0.00683403
-0.00897425
-0.0113579
-0.0139243
-0.0165987
-0.019299
-0.021942
-0.0244493
-0.0267512
-0.0287896
-0.0305189
-0.0319052
-0.0329257
-0.0335668
-0.0338226
-0.0336937
-0.033186
-0.0323106
-0.0310842
-0.0295301
-0.0276801
-0.0255777
-0.0232812
-0.0208665
-0.0184288
-0.0160797
-0.0139398
-0.0121234
-0.0107178
-0.0097605
-0.00922621
-0.00903167
-0.00906256
-0.00920959
-0.00939363
-0.00956941
-0.00971469
-0.00981738
-0.00987723
0.00133353
0.00110843
0.000891153
0.000628879
0.000258693
-0.000268662
-0.00100181
-0.0019914
-0.00328482
-0.00491751
-0.00690462
-0.00923578
-0.0118738
-0.0147574
-0.0178067
-0.0209306
-0.0240351
-0.0270304
-0.0298367
-0.0323877
-0.0346316
-0.0365306
-0.0380593
-0.039202
-0.039951
-0.0403037
-0.040262
-0.0398297
-0.0390132
-0.0378204
-0.0362619
-0.034353
-0.0321166
-0.0295881
-0.0268213
-0.0238945
-0.0209156
-0.0180216
-0.01537
-0.0131179
-0.0113888
-0.010237
-0.00962464
-0.0094322
-0.00950342
-0.00969854
-0.00992269
-0.0101227
-0.0102706
-0.010361
0.00111394
0.000865232
0.000615306
0.00029275
-0.00018118
-0.000867198
-0.00182284
-0.00310387
-0.00475704
-0.00681021
-0.0092644
-0.01209
-0.015228
-0.0185951
-0.0220918
-0.0256127
-0.0290554
-0.0323284
-0.0353556
-0.0380786
-0.0404556
-0.0424592
-0.0440735
-0.0452912
-0.0461105
-0.0465333
-0.0465632
-0.0462043
-0.0454603
-0.0443338
-0.042827
-0.0409422
-0.0386844
-0.036066
-0.033113
-0.0298745
-0.0264335
-0.0229153
-0.0194909
-0.0163658
-0.0137487
-0.011801
-0.0105804
-0.0100118
-0.00991493
-0.0100807
-0.0103427
-0.0105993
-0.0107975
-0.0109236
0.000677468
0.000407408
0.000119435
-0.000276747
-0.000874557
-0.0017451
-0.00295306
-0.00455636
-0.00659694
-0.00909036
-0.0120189
-0.0153301
-0.0189405
-0.0227446
-0.0266257
-0.0304678
-0.0341655
-0.0376312
-0.0407975
-0.0436174
-0.0460609
-0.0481118
-0.0497636
-0.0510164
-0.0518737
-0.0523411
-0.0524242
-0.0521279
-0.0514551
-0.0504066
-0.04898
-0.0471701
-0.0449703
-0.0423747
-0.0393845
-0.0360164
-0.0323163
-0.0283749
-0.0243429
-0.0204361
-0.0169199
-0.0140607
-0.0120481
-0.0109151
-0.0105126
-0.0105776
-0.0108529
-0.0111639
-0.0114177
-0.0115863
-7.35601e-06
-0.000296509
-0.000627888
-0.00110978
-0.00184823
-0.00292294
-0.00440332
-0.00634593
-0.00878367
-0.0117155
-0.0151012
-0.0188631
-0.0228933
-0.0270661
-0.0312516
-0.035329
-0.039196
-0.0427737
-0.0460071
-0.0488621
-0.0513209
-0.0533776
-0.0550334
-0.056294
-0.0571668
-0.0576595
-0.0577793
-0.0575317
-0.0569201
-0.055945
-0.0546032
-0.0528871
-0.0507845
-0.0482796
-0.0453561
-0.042004
-0.0382318
-0.0340849
-0.0296683
-0.0251686
-0.0208607
-0.0170815
-0.0141533
-0.0122671
-0.0113828
-0.0112364
-0.0114795
-0.0118359
-0.0121505
-0.0123699
-0.000958908
-0.00126468
-0.00164383
-0.00222079
-0.00311142
-0.00440168
-0.00616282
-0.00844647
-0.0112726
-0.0146202
-0.0184244
-0.0225818
-0.0269622
-0.0314237
-0.0358289
-0.0400584
-0.044018
-0.0476412
-0.0508869
-0.053734
-0.0561754
-0.0582134
-0.0598549
-0.0611088
-0.0619845
-0.0624907
-0.062635
-0.0624234
-0.0618597
-0.0609454
-0.0596784
-0.0580518
-0.0560535
-0.0536646
-0.0508608
-0.0476156
-0.0439086
-0.0397421
-0.0351656
-0.0303086
-0.0254093
-0.0208195
-0.0169557
-0.0141777
-0.0126242
-0.0121175
-0.0122541
-0.0126358
-0.0130145
-0.0132935
-0.00217971
-0.0024991
-0.00292855
-0.00360599
-0.00465391
-0.00616176
-0.00819965
-0.010811
-0.0139999
-0.0177232
-0.021891
-0.026376
-0.0310293
-0.0356983
-0.0402443
-0.0445541
-0.0485455
-0.0521662
-0.0553884
-0.0582026
-0.0606103
-0.0626193
-0.0642398
-0.0654822
-0.0663562
-0.0668704
-0.0670319
-0.0668465
-0.0663187
-0.0654507
-0.0642424
-0.0626896
-0.0607831
-0.0585063
-0.0558346
-0.0527353
-0.0491714
-0.0451134
-0.0405602
-0.0355743
-0.0303251
-0.0251246
-0.020421
-0.0167066
-0.01433
-0.0132921
-0.013216
-0.0135862
-0.0140273
-0.0143743
-0.00365532
-0.00398453
-0.00446428
-0.00524305
-0.00644644
-0.00816458
-0.0104636
-0.0133763
-0.0168887
-0.0209353
-0.0254025
-0.0301424
-0.0349923
-0.0397947
-0.0444146
-0.048749
-0.0527293
-0.056317
-0.0594965
-0.0622672
-0.0646366
-0.0666158
-0.0682162
-0.0694482
-0.0703208
-0.0708415
-0.0710165
-0.0708511
-0.0703497
-0.0695156
-0.0683503
-0.0668528
-0.065018
-0.0628345
-0.0602822
-0.0573303
-0.0539372
-0.0500558
-0.0456481
-0.0407159
-0.0353482
-0.0297787
-0.0244223
-0.0198376
-0.0165604
-0.0148325
-0.0144106
-0.0147113
-0.0152055
-0.0156267
-0.00535494
-0.0056892
-0.00621642
-0.00709261
-0.00844308
-0.0103559
-0.0128909
-0.0160682
-0.019856
-0.0241668
-0.0288664
-0.0337907
-0.0387683
-0.0436419
-0.048284
-0.0526037
-0.0565461
-0.0600851
-0.0632147
-0.0659408
-0.0682746
-0.0702283
-0.0718132
-0.0730387
-0.0739123
-0.07444
-0.0746271
-0.0744779
-0.0739967
-0.0731871
-0.0720524
-0.070594
-0.0688111
-0.066698
-0.0642417
-0.0614182
-0.0581898
-0.054505
-0.0503056
-0.0455484
-0.0402485
-0.0345448
-0.0287703
-0.0234748
-0.0193187
-0.0167927
-0.0158844
-0.0160355
-0.0165629
-0.0170611
-0.00723367
-0.00756716
-0.00813616
-0.00910152
-0.010585
-0.0126702
-0.0154089
-0.0188081
-0.0228184
-0.0273331
-0.0322009
-0.0372462
-0.0422937
-0.0471902
-0.0518178
-0.0560982
-0.0599888
-0.0634737
-0.0665541
-0.0692399
-0.071544
-0.0734784
-0.0750533
-0.0762765
-0.0771538
-0.0776899
-0.0778885
-0.0777535
-0.0772886
-0.0764977
-0.0753848
-0.0739536
-0.0722067
-0.0701437
-0.0677588
-0.0650372
-0.0619501
-0.0584511
-0.0544766
-0.0499575
-0.0448521
-0.0392086
-0.0332527
-0.0274629
-0.0225429
-0.019189
-0.0176742
-0.0175797
-0.0181081
-0.0186816
-0.00923589
-0.00956183
-0.0101644
-0.011207
-0.0128052
-0.0150359
-0.0179419
-0.0215175
-0.0256972
-0.0303584
-0.0353368
-0.0404497
-0.0455219
-0.0504066
-0.0549963
-0.0592243
-0.0630584
-0.0664905
-0.0695265
-0.0721786
-0.0744597
-0.0763809
-0.0779507
-0.079175
-0.0800582
-0.0806035
-0.0808135
-0.0806914
-0.0802404
-0.0794644
-0.0783681
-0.0769564
-0.0752345
-0.0732062
-0.0708722
-0.0682267
-0.0652519
-0.0619124
-0.0581501
-0.0538871
-0.049046
-0.0436013
-0.0376693
-0.0316174
-0.026115
-0.021988
-0.0197945
-0.0193559
-0.0198418
-0.0204828
-0.0112994
-0.0116103
-0.0122362
-0.0133415
-0.0150332
-0.0173802
-0.0204159
-0.0241225
-0.0284215
-0.0331777
-0.0382177
-0.0433559
-0.0484196
-0.0532696
-0.0578084
-0.0619794
-0.0657584
-0.0691427
-0.0721412
-0.0747665
-0.0770308
-0.0789438
-0.0805121
-0.08174
-0.0826302
-0.0831849
-0.0834059
-0.0832955
-0.0828567
-0.0820934
-0.0810104
-0.0796136
-0.0779097
-0.0759057
-0.0736074
-0.071017
-0.0681275
-0.0649168
-0.061339
-0.0573206
-0.0527682
-0.0476056
-0.0418534
-0.0357536
-0.0298821
-0.0251077
-0.0222268
-0.0213616
-0.0217528
-0.0224479
-0.0133599
-0.013648
-0.0142854
-0.0154369
-0.0171995
-0.0196331
-0.0227615
-0.0265568
-0.0309299
-0.0357368
-0.0407991
-0.0459306
-0.0509633
-0.0557654
-0.0602483
-0.0643632
-0.068092
-0.0714354
-0.0744034
-0.0770084
-0.0792612
-0.0811698
-0.0827391
-0.0839718
-0.0848695
-0.0854332
-0.0856641
-0.0855642
-0.0851361
-0.0843837
-0.0833118
-0.0819269
-0.0802368
-0.0782504
-0.0759776
-0.0734266
-0.0706003
-0.0674896
-0.0640641
-0.0602628
-0.0559926
-0.051149
-0.0456798
-0.039707
-0.0336792
-0.0284294
-0.0249159
-0.0235736
-0.023816
-0.0245464
-0.0153551
-0.0156124
-0.0162488
-0.017429
-0.0192397
-0.0217309
-0.0249174
-0.028763
-0.033171
-0.0379923
-0.0430461
-0.0481483
-0.0531359
-0.0578842
-0.0623116
-0.0663753
-0.0700607
-0.0733706
-0.0763151
-0.0789055
-0.0811512
-0.0830583
-0.0846303
-0.0858685
-0.0867733
-0.0873451
-0.0875847
-0.0874937
-0.0870746
-0.0863311
-0.0852683
-0.083893
-0.0822135
-0.0802403
-0.0779859
-0.0754633
-0.0726831
-0.0696482
-0.066344
-0.0627266
-0.0587139
-0.0541924
-0.049062
-0.0433437
-0.0373482
-0.0318134
-0.0277736
-0.0259451
-0.0259907
-0.026734
-0.0172282
-0.0174473
-0.0180698
-0.0192609
-0.0210972
-0.0236187
-0.0268318
-0.0306938
-0.0351037
-0.0399099
-0.0449324
-0.04999
-0.0549251
-0.0596187
-0.0639947
-0.0680139
-0.071664
-0.074948
-0.0778755
-0.0804566
-0.0826988
-0.0846069
-0.0861828
-0.0874268
-0.0883384
-0.0889174
-0.0891642
-0.0890802
-0.0886679
-0.0879311
-0.0868749
-0.0855064
-0.0838345
-0.0818706
-0.0796291
-0.0771264
-0.0743795
-0.071401
-0.0681911
-0.0647242
-0.0609359
-0.0567179
-0.0519452
-0.0465624
-0.04075
-0.0351156
-0.0306889
-0.0284065
-0.0282209
-0.0289535
-0.018931
-0.0191054
-0.019701
-0.0208852
-0.0227254
-0.0252518
-0.0284632
-0.0323123
-0.0366963
-0.041464
-0.046438
-0.0514413
-0.0563209
-0.0609625
-0.0652933
-0.0692762
-0.0728992
-0.0761651
-0.0790821
-0.0816587
-0.0839011
-0.0858125
-0.0873937
-0.0886439
-0.089562
-0.0901473
-0.0903999
-0.090321
-0.0899131
-0.0891801
-0.0881273
-0.0867621
-0.0850939
-0.083135
-0.080901
-0.078411
-0.0756867
-0.0727489
-0.0696104
-0.0662635
-0.0626641
-0.058719
-0.0542965
-0.0492904
-0.0437704
-0.0381998
-0.0335394
-0.0308697
-0.0304376
-0.0311375
-0.0204258
-0.0205502
-0.0211065
-0.0222663
-0.0240892
-0.0265968
-0.0297809
-0.0335914
-0.0379259
-0.0426361
-0.0475487
-0.0524913
-0.0573153
-0.0619095
-0.0662025
-0.0701577
-0.0737625
-0.077018
-0.079931
-0.0825084
-0.0847548
-0.0866722
-0.0882604
-0.0895177
-0.0904426
-0.0910336
-0.0912908
-0.091215
-0.0908088
-0.0900763
-0.089023
-0.0876565
-0.085987
-0.0840274
-0.0817945
-0.0793097
-0.0765982
-0.0736874
-0.0706007
-0.0673467
-0.063902
-0.0601936
-0.056097
-0.0514779
-0.0463198
-0.0409455
-0.0362022
-0.0332362
-0.0325627
-0.0332121
-0.0216866
-0.0217573
-0.0222628
-0.0233805
-0.0251656
-0.0276318
-0.0307651
-0.0345138
-0.0387778
-0.043414
-0.0482545
-0.053132
-0.0579015
-0.0624534
-0.0667166
-0.0706532
-0.0742485
-0.0775018
-0.0804178
-0.0830016
-0.0852566
-0.0871836
-0.0887812
-0.0900473
-0.0909796
-0.0915764
-0.0918372
-0.0917627
-0.0913556
-0.0906198
-0.0895613
-0.0881881
-0.0865109
-0.0845434
-0.0823039
-0.0798153
-0.0771062
-0.0742091
-0.0711566
-0.0679711
-0.0646491
-0.0611402
-0.0573356
-0.0530917
-0.0483312
-0.0432519
-0.0385628
-0.0354045
-0.0345138
-0.0351009
-0.0226993
-0.0227145
-0.0231588
-0.0242173
-0.0259439
-0.0283465
-0.0314062
-0.035071
-0.039245
-0.0437916
-0.0485499
-0.0533579
-0.0580738
-0.0625884
-0.0668295
-0.0707563
-0.0743514
-0.0776111
-0.0805378
-0.0831347
-0.0854037
-0.0873446
-0.0889553
-0.0902328
-0.0911741
-0.0917773
-0.0920412
-0.0919666
-0.0915557
-0.0908127
-0.0897438
-0.0883575
-0.086665
-0.0846811
-0.0824252
-0.0799222
-0.0772035
-0.0743063
-0.0712706
-0.0681311
-0.064902
-0.0615558
-0.0580048
-0.0541097
-0.0497556
-0.0450378
-0.0405196
-0.0372776
-0.0362094
-0.0367305
-0.0234615
-0.0234215
-0.0237958
-0.0247782
-0.0264251
-0.0287414
-0.0317048
-0.0352635
-0.0393275
-0.0437682
-0.048433
-0.0531658
-0.0578275
-0.0623087
-0.0665344
-0.0704602
-0.0740644
-0.0773398
-0.0802858
-0.0829036
-0.0851935
-0.0871541
-0.0887825
-0.090075
-0.0910281
-0.091639
-0.0919064
-0.0918305
-0.0914134
-0.0906592
-0.0895744
-0.0881678
-0.0864513
-0.0844409
-0.0821572
-0.0796273
-0.0768851
-0.0739723
-0.0709354
-0.0678198
-0.0646555
-0.0614366
-0.0580989
-0.0545169
-0.0505581
-0.04624
-0.0419868
-0.0387676
-0.0375741
-0.0380341
-0.023981
-0.0238883
-0.024186
-0.0250761
-0.0266217
-0.0288279
-0.0316705
-0.0350997
-0.0390319
-0.0433484
-0.0479058
-0.052555
-0.0571594
-0.061609
-0.0658249
-0.0697576
-0.0733804
-0.0766815
-0.0796566
-0.0823044
-0.0846236
-0.0866112
-0.0882636
-0.0895762
-0.0905448
-0.0911659
-0.0914377
-0.09136
-0.0909345
-0.0901653
-0.0890588
-0.0876244
-0.0858746
-0.0838263
-0.081502
-0.0789306
-0.0761492
-0.0732033
-0.0701459
-0.0670315
-0.0639043
-0.0607784
-0.0576132
-0.0543032
-0.050714
-0.0468101
-0.0428934
-0.039798
-0.0385419
-0.0389547
-0.0242746
-0.0241339
-0.0243508
-0.0251338
-0.026556
-0.0286264
-0.0313218
-0.0345954
-0.0383713
-0.0425418
-0.0469744
-0.0515277
-0.0560684
-0.0604851
-0.0646947
-0.0686413
-0.0722921
-0.0756294
-0.0786447
-0.0813334
-0.0836918
-0.0857156
-0.0873998
-0.088739
-0.0897282
-0.0903633
-0.0906416
-0.0905623
-0.0901269
-0.0893392
-0.0882054
-0.0867354
-0.0849423
-0.0828443
-0.0804652
-0.0778364
-0.0749979
-0.0719998
-0.0689006
-0.0657635
-0.0626455
-0.0595784
-0.0565448
-0.0534623
-0.050206
-0.0467111
-0.0431809
-0.040303
-0.0390564
-0.0394455
-0.024366
-0.0241839
-0.0243189
-0.0249821
-0.0262587
-0.0281662
-0.0306851
-0.0337736
-0.0373648
-0.0413633
-0.045649
-0.0500894
-0.0545555
-0.0589346
-0.0631386
-0.0671048
-0.0707923
-0.074177
-0.0772447
-0.0799866
-0.0823961
-0.084467
-0.0861928
-0.087567
-0.0885836
-0.0892377
-0.0895257
-0.0894463
-0.0890002
-0.088191
-0.0870249
-0.0855118
-0.0836656
-0.0815054
-0.0790568
-0.0763536
-0.0734392
-0.0703677
-0.0672038
-0.0640187
-0.0608807
-0.0578378
-0.054894
-0.0519913
-0.0490226
-0.0459141
-0.0427995
-0.0402235
-0.0390681
-0.0394666
-0.0242834
-0.0240682
-0.0241236
-0.0246574
-0.0257675
-0.0274832
-0.0297933
-0.0326633
-0.036037
-0.0398328
-0.0439443
-0.0482497
-0.0526252
-0.0569577
-0.0611537
-0.0651427
-0.068875
-0.0723182
-0.0754513
-0.0782604
-0.0807349
-0.082866
-0.0846453
-0.0860647
-0.0871173
-0.087797
-0.0880995
-0.0880225
-0.0875662
-0.0867337
-0.0855309
-0.0839679
-0.0820591
-0.0798248
-0.0772921
-0.0744974
-0.0714873
-0.0683206
-0.0650677
-0.0618074
-0.0586187
-0.055564
-0.0526666
-0.0498923
-0.0471572
-0.0443954
-0.0417022
-0.0395001
-0.0385262
-0.0389766
-0.0240579
-0.0238191
-0.0238005
-0.0241993
-0.025124
-0.0266187
-0.0286847
-0.0312988
-0.0344176
-0.0379748
-0.0418796
-0.0460225
-0.0502863
-0.0545584
-0.0587403
-0.0627527
-0.0665362
-0.0700488
-0.0732611
-0.0761524
-0.0787076
-0.0809139
-0.0827605
-0.0842377
-0.0853368
-0.0860507
-0.086374
-0.0863037
-0.0858392
-0.0849829
-0.0837405
-0.0821221
-0.0801426
-0.0778231
-0.0751926
-0.0722898
-0.0691648
-0.0658808
-0.0625139
-0.0591504
-0.0558786
-0.0527738
-0.0498765
-0.0471744
-0.0446087
-0.0421344
-0.0398406
-0.0380632
-0.0373657
-0.0379171
-0.023721
-0.0234685
-0.0233847
-0.0236477
-0.0243716
-0.0256167
-0.0274014
-0.0297183
-0.0325403
-0.0358184
-0.0394791
-0.043427
-0.0475532
-0.0517465
-0.0559038
-0.0599372
-0.0637763
-0.067368
-0.0706731
-0.0736628
-0.0763154
-0.0786139
-0.0805439
-0.0820933
-0.0832516
-0.0840104
-0.0843631
-0.0843056
-0.0838367
-0.082958
-0.081675
-0.0799977
-0.0779412
-0.0755277
-0.0727877
-0.0697622
-0.0665045
-0.0630821
-0.0595767
-0.0560813
-0.0526926
-0.0494968
-0.046549
-0.043856
-0.0413833
-0.0391139
-0.0371599
-0.0358216
-0.035488
-0.0361892
-0.0233027
-0.0230467
-0.0229089
-0.0230399
-0.0235524
-0.0245215
-0.0259867
-0.0279622
-0.0304416
-0.0333962
-0.0367718
-0.0404884
-0.0444469
-0.0485389
-0.0526575
-0.0567059
-0.0606024
-0.0642813
-0.0676921
-0.0707962
-0.0735642
-0.0759731
-0.0780042
-0.0796422
-0.0808746
-0.0816911
-0.0820838
-0.0820477
-0.0815805
-0.0806834
-0.0793613
-0.0776242
-0.0754876
-0.0729743
-0.0701162
-0.0669565
-0.0635514
-0.0599723
-0.0563056
-0.0526501
-0.0491096
-0.0457789
-0.0427246
-0.0399688
-0.0374969
-0.0353212
-0.0335977
-0.0326521
-0.0327376
-0.0336207
-0.0228305
-0.0225808
-0.0224015
-0.0224088
-0.0227043
-0.0233744
-0.0244827
-0.026071
-0.0281597
-0.0307441
-0.0337911
-0.0372379
-0.0409963
-0.0449619
-0.0490246
-0.0530791
-0.0570318
-0.0608038
-0.0643317
-0.0675657
-0.0704668
-0.0730049
-0.075156
-0.0769008
-0.0782239
-0.079113
-0.0795587
-0.0795549
-0.0790984
-0.0781897
-0.0768334
-0.0750394
-0.0728234
-0.0702088
-0.0672288
-0.0639282
-0.0603656
-0.0566155
-0.0527678
-0.0489258
-0.0451981
-0.0416855
-0.038462
-0.0355599
-0.0329781
-0.0307506
-0.0290849
-0.0283929
-0.0288782
-0.0299295
-0.0223278
-0.0220937
-0.021886
-0.0217802
-0.0218576
-0.0222099
-0.0229263
-0.0240825
-0.025732
-0.0278992
-0.0305747
-0.0337139
-0.0372401
-0.0410534
-0.0450415
-0.0490911
-0.0530963
-0.0569647
-0.0606188
-0.0639961
-0.0670472
-0.0697331
-0.0720234
-0.0738939
-0.0753258
-0.0763042
-0.0768181
-0.0768601
-0.0764262
-0.0755162
-0.0741347
-0.0722911
-0.0700014
-0.0672897
-0.0641899
-0.0607479
-0.057024
-0.0530944
-0.049051
-0.0449989
-0.0410488
-0.0373034
-0.0338399
-0.0306942
-0.0278692
-0.0254055
-0.0235502
-0.0228456
-0.0235774
-0.0246916
-0.0218133
-0.0216038
-0.02138
-0.0211721
-0.0210325
-0.0210522
-0.0213459
-0.0220285
-0.0231936
-0.0248999
-0.0271647
-0.0299621
-0.0332273
-0.0368649
-0.0407606
-0.0447934
-0.0488458
-0.0528112
-0.0565979
-0.0601298
-0.0633454
-0.0661962
-0.068644
-0.0706591
-0.0722183
-0.073304
-0.0739032
-0.074007
-0.0736106
-0.0727135
-0.0713198
-0.0694391
-0.0670875
-0.0642894
-0.0610791
-0.0575031
-0.0536219
-0.0495116
-0.0452637
-0.0409818
-0.0367742
-0.0327409
-0.0289564
-0.0254527
-0.0222245
-0.0192979
-0.016925
-0.0157864
-0.016409
-0.0173318
-0.0213009
-0.0211251
-0.0208957
-0.0205936
-0.0202373
-0.019912
-0.0197576
-0.0199319
-0.0205747
-0.0217844
-0.0236072
-0.0260367
-0.0290192
-0.0324633
-0.0362526
-0.0402584
-0.0443521
-0.0484135
-0.0523363
-0.0560304
-0.0594221
-0.0624521
-0.0650738
-0.0672508
-0.0689555
-0.0701667
-0.0708692
-0.0710528
-0.0707118
-0.0698453
-0.0684573
-0.0665575
-0.0641621
-0.0612957
-0.0579924
-0.0542982
-0.0502723
-0.0459884
-0.0415337
-0.0370061
-0.032506
-0.0281243
-0.0239246
-0.0199261
-0.0161019
-0.0124383
-0.00914008
-0.00698086
-0.006877
-0.00714892
-0.0208001
-0.020668
-0.0204401
-0.020045
-0.0194666
-0.0187843
-0.0181624
-0.0178044
-0.0179002
-0.0185909
-0.0199538
-0.0220018
-0.024691
-0.027933
-0.0316081
-0.0355807
-0.0397112
-0.0438665
-0.0479263
-0.0517871
-0.0553624
-0.0585819
-0.0613903
-0.0637441
-0.0656104
-0.0669645
-0.0677885
-0.0680709
-0.0678052
-0.0669902
-0.0656299
-0.0637342
-0.0613194
-0.05841
-0.0550392
-0.0512512
-0.0471016
-0.0426587
-0.0380012
-0.0332153
-0.0283867
-0.0235882
-0.0188625
-0.0142038
-0.00954727
-0.0048142
-0.000103308
0.00381636
0.00555524
0.00663197
-0.020319
-0.0202416
-0.0200162
-0.0195181
-0.0187029
-0.0176486
-0.016547
-0.0156473
-0.0151899
-0.0153594
-0.0162636
-0.0179336
-0.0203339
-0.0233768
-0.0269394
-0.0308782
-0.0350438
-0.039291
-0.043487
-0.0475151
-0.0512769
-0.0546917
-0.057695
-0.0602362
-0.062277
-0.0637888
-0.0647513
-0.0651512
-0.0649816
-0.0642409
-0.0629334
-0.0610691
-0.0586644
-0.055743
-0.0523364
-0.0484852
-0.0442393
-0.0396574
-0.0348048
-0.0297495
-0.0245532
-0.0192599
-0.0138771
-0.00835577
-0.00257178
0.00364397
0.0103493
0.0169044
0.0214752
0.0248351
-0.0198741
-0.0198609
-0.0196276
-0.0190002
-0.0179199
-0.016475
-0.0148891
-0.0134565
-0.0124641
-0.0121357
-0.0126067
-0.0139235
-0.0160564
-0.0189175
-0.0223792
-0.0262907
-0.0304934
-0.0348315
-0.0391608
-0.0433534
-0.0473001
-0.0509102
-0.0541109
-0.0568448
-0.0590682
-0.0607486
-0.0618634
-0.0623977
-0.0623439
-0.0617003
-0.0604713
-0.0586671
-0.0563036
-0.0534031
-0.0499944
-0.0461126
-0.0417988
-0.0370988
-0.0320589
-0.0267213
-0.0211139
-0.015237
-0.00904286
-0.00241239
0.00487121
0.0131009
0.0225258
0.0327408
0.0416335
0.048445
-0.0195138
-0.0195634
-0.0192904
-0.0184842
-0.0170951
-0.0152371
-0.0131718
-0.0112352
-0.00975282
-0.00897885
-0.0090689
-0.0100801
-0.0119859
-0.0146965
-0.0180791
-0.0219764
-0.0262215
-0.03065
-0.0351082
-0.0394589
-0.0435836
-0.0473832
-0.0507773
-0.0537025
-0.0561102
-0.0579644
-0.0592399
-0.0599205
-0.0599978
-0.05947
-0.0583414
-0.0566219
-0.0543265
-0.0514754
-0.048093
-0.0442077
-0.0398493
-0.0350467
-0.0298228
-0.024186
-0.0181189
-0.0115601
-0.00437967
0.00365311
0.0128986
0.0238358
0.0369389
0.0520902
0.0671897
0.078991
-0.019375
-0.0194493
-0.0190635
-0.0179968
-0.0162362
-0.0139378
-0.0114065
-0.00901394
-0.00711176
-0.0059712
-0.00575757
-0.00653184
-0.00826708
-0.0108702
-0.0142038
-0.0181047
-0.0223997
-0.0269177
-0.031498
-0.0359958
-0.0402856
-0.0442615
-0.0478371
-0.0509435
-0.0535282
-0.0555518
-0.056987
-0.0578161
-0.05803
-0.0576265
-0.0566093
-0.0549876
-0.0527752
-0.049989
-0.0466488
-0.0427741
-0.0383825
-0.033483
-0.0280713
-0.0221137
-0.0155373
-0.00819388
0.000157615
0.00992331
0.0216744
0.0362011
0.0542761
0.0761246
0.100006
0.119349
-0.0198128
-0.0197679
-0.0191191
-0.0176599
-0.0154336
-0.0126532
-0.00966891
-0.00687822
-0.00464177
-0.00323074
-0.00280675
-0.00342612
-0.00505723
-0.00760254
-0.0109202
-0.014843
-0.0191934
-0.0237959
-0.0284851
-0.0331113
-0.0375438
-0.0416719
-0.0454045
-0.048669
-0.0514092
-0.0535833
-0.055162
-0.0561263
-0.0564662
-0.0561786
-0.055267
-0.0537392
-0.0516073
-0.0488847
-0.0455864
-0.0417218
-0.0372969
-0.0322968
-0.0266902
-0.0203897
-0.0132631
-0.0050407
0.00464824
0.0164797
0.0312965
0.0504372
0.0751124
0.106247
0.142663
0.175173
-0.0217032
-0.0210633
-0.0198612
-0.0177948
-0.014951
-0.0116089
-0.00816149
-0.00501502
-0.00251822
-0.000923065
-0.000373118
-0.000910856
-0.00249517
-0.00502242
-0.00834684
-0.0122985
-0.0166978
-0.0213672
-0.0261389
-0.0308607
-0.0353991
-0.0396405
-0.0434908
-0.0468747
-0.0497338
-0.0520242
-0.0537151
-0.0547864
-0.0552272
-0.0550335
-0.0542084
-0.0527579
-0.0506931
-0.0480224
-0.0447577
-0.0408963
-0.0364354
-0.0313307
-0.0255299
-0.0188766
-0.0111884
-0.00203311
0.00907903
0.023212
0.0414873
0.0661769
0.0990676
0.143146
0.197429
0.257403
-0.0272088
-0.0240827
-0.0216525
-0.0185618
-0.0148772
-0.0109013
-0.00700789
-0.0035644
-0.000878442
0.000833215
0.00145326
0.000956685
-0.000605033
-0.00312285
-0.00644875
-0.0104122
-0.0148338
-0.0195359
-0.0243509
-0.0291258
-0.033726
-0.0380366
-0.0419619
-0.0454247
-0.0483651
-0.0507376
-0.0525102
-0.0536616
-0.0541802
-0.0540608
-0.0533059
-0.0519196
-0.0499119
-0.0472868
-0.0440528
-0.0401963
-0.0357062
-0.0305116
-0.0245401
-0.0175712
-0.00937487
0.000637254
0.013068
0.0293855
0.0509891
0.0813724
0.123103
0.183962
0.263452
0.385686
-0.0459674
-0.0275398
-0.0212273
-0.0172236
-0.0133265
-0.00933517
-0.00548879
-0.00210914
0.000516365
0.00218043
0.00276897
0.0022561
0.00069003
-0.00182459
-0.00514429
-0.00910263
-0.0135235
-0.0182318
-0.023061
-0.027859
-0.0324909
-0.0368409
-0.0408123
-0.0443269
-0.0473231
-0.0497544
-0.0515876
-0.0528003
-0.0533799
-0.0533207
-0.0526238
-0.0512927
-0.0493348
-0.0467535
-0.043551
-0.0397123
-0.0352115
-0.0299738
-0.0238927
-0.016737
-0.00819826
0.00234322
0.0156713
0.0333689
0.0572906
0.0916146
0.140667
0.21862
0.337926
0.609545
