# vtk DataFile Version 2.0
u_velocity
ASCII
DATASET RECTILINEAR_GRID
DIMENSIONS 52 51 1
X_COORDINATES 52 double
0 0.01 0.03 0.05 0.07 0.09 0.11 0.13 0.15 0.17 0.19 0.21 0.23 0.25 0.27 0.29 0.31 0.33 0.35 0.37 0.39 0.41 0.43 0.45 0.47 0.49 0.51 0.53 0.55 0.57 0.59 0.61 0.63 0.65 0.67 0.69 0.71 0.73 0.75 0.77 0.79 0.81 0.83 0.85 0.87 0.89 0.91 0.93 0.95 0.97 0.99 1 
Y_COORDINATES 51 double
0 0.02 0.04 0.06 0.08 0.1 0.12 0.14 0.16 0.18 0.2 0.22 0.24 0.26 0.28 0.3 0.32 0.34 0.36 0.38 0.4 0.42 0.44 0.46 0.48 0.5 0.52 0.54 0.56 0.58 0.6 0.62 0.64 0.66 0.68 0.7 0.72 0.74 0.76 0.78 0.8 0.82 0.84 0.86 0.88 0.9 0.92 0.94 0.96 0.98 1 
Z_COORDINATES 1 double
0.0

CELL_DATA 2550
SCALARS u_velocity double 1
LOOKUP_TABLE default
0
0.000236213
0.000768289
0.00136256
0.00185489
0.00216178
0.00225548
0.00213769
0.00181861
0.00130331
0.000585477
-0.000352479
-0.00153509
-0.00298754
-0.00472925
-0.00676807
-0.00909534
-0.0116817
-0.0144739
-0.0173929
-0.0203341
-0.0231695
-0.025753
-0.0279279
-0.0295367
-0.0304336
-0.030497
-0.0296436
-0.0278406
-0.0251156
-0.0215624
-0.0173408
-0.0126701
-0.00781343
-0.00305562
0.00132444
0.00508358
0.00804092
0.0100964
0.0112371
0.0115304
0.0111047
0.010124
0.00876029
0.00717203
0.00549189
0.00382938
0.00229065
0.0010131
0.000191639
0
0
0.000539437
0.00152686
0.00251855
0.00321873
0.0034558
0.00314896
0.00227038
0.000811805
-0.00123863
-0.00390665
-0.00723004
-0.011248
-0.0159864
-0.0214425
-0.0275718
-0.0342791
-0.0414128
-0.0487653
-0.0560793
-0.0630593
-0.0693883
-0.0747472
-0.0788359
-0.0813922
-0.0822101
-0.0811535
-0.078168
-0.073288
-0.0666411
-0.0584485
-0.0490204
-0.0387451
-0.0280725
-0.0174886
-0.00748322
0.00148788
0.00904266
0.0149087
0.0189484
0.0211683
0.0217085
0.0208138
0.0187936
0.0159788
0.0126901
0.00922565
0.00587619
0.00296097
0.000859075
0
0
0.000612543
0.00159976
0.00241858
0.00272575
0.00231372
0.00106705
-0.00107596
-0.00415506
-0.00820865
-0.0132797
-0.019408
-0.0266117
-0.0348673
-0.0440898
-0.0541204
-0.0647225
-0.0755878
-0.0863516
-0.0966162
-0.105977
-0.114049
-0.120488
-0.125009
-0.127393
-0.127497
-0.125251
-0.120664
-0.113822
-0.104889
-0.0941081
-0.0818031
-0.0683741
-0.05429
-0.0400734
-0.026276
-0.0134452
-0.0020834
0.00739569
0.0147061
0.0197174
0.0224634
0.0231303
0.0220251
0.0195329
0.0160743
0.0120769
0.00797101
0.00421112
0.00132275
0
0
0.000497679
0.00111642
0.00130806
0.000735052
-0.000813226
-0.00346996
-0.00732472
-0.0124466
-0.0188943
-0.0267116
-0.0359098
-0.0464432
-0.0581878
-0.0709275
-0.0843549
-0.0980854
-0.111684
-0.124697
-0.13669
-0.147266
-0.156093
-0.1629
-0.167488
-0.169714
-0.169495
-0.166796
-0.161632
-0.154072
-0.144237
-0.132319
-0.118578
-0.103362
-0.0870976
-0.0702962
-0.053531
-0.03741
-0.0225343
-0.0094481
0.00141297
0.00976443
0.0154992
0.0186918
0.0195797
0.0185289
0.0159911
0.0124661
0.00848169
0.00460275
0.00148347
0
0
0.000235121
0.00017648
-0.000639534
-0.00249587
-0.00558123
-0.0100334
-0.0159602
-0.0234481
-0.0325564
-0.0432993
-0.0556201
-0.0693665
-0.0842794
-0.0999979
-0.116084
-0.132061
-0.147451
-0.161817
-0.174782
-0.186039
-0.195349
-0.202534
-0.207458
-0.210023
-0.210157
-0.207814
-0.20297
-0.195632
-0.185848
-0.173718
-0.159414
-0.143196
-0.125427
-0.106578
-0.0872268
-0.0680318
-0.0496932
-0.0328939
-0.0182326
-0.00616191
0.00305682
0.00937132
0.0129296
0.0140496
0.0131783
0.0108504
0.00765995
0.00425728
0.00138879
0
0
-0.000155656
-0.00115669
-0.00329668
-0.00675875
-0.0116897
-0.018221
-0.0264661
-0.0365082
-0.0483775
-0.062022
-0.0772803
-0.0938697
-0.111396
-0.129388
-0.147343
-0.164774
-0.181249
-0.196413
-0.209984
-0.22175
-0.231551
-0.239264
-0.244792
-0.248049
-0.248962
-0.247461
-0.243481
-0.236969
-0.227892
-0.216252
-0.20211
-0.185607
-0.166998
-0.14667
-0.125161
-0.10315
-0.0814253
-0.0608216
-0.0421337
-0.0260238
-0.012945
-0.00309973
0.00356026
0.00730121
0.0085592
0.00789202
0.00594261
0.00342395
0.00113367
0
0
-0.000664808
-0.00283313
-0.00654596
-0.0118483
-0.0188304
-0.027607
-0.0382808
-0.0509057
-0.0654497
-0.0817628
-0.0995614
-0.118439
-0.137905
-0.157439
-0.176546
-0.194793
-0.211833
-0.227397
-0.241286
-0.253355
-0.263499
-0.271637
-0.277706
-0.281647
-0.283403
-0.282903
-0.280066
-0.274797
-0.266992
-0.256551
-0.243404
-0.227538
-0.20904
-0.188143
-0.165264
-0.141027
-0.116259
-0.0919317
-0.0690682
-0.0486084
-0.0312795
-0.0175044
-0.00737459
-0.000685267
0.00299631
0.0042601
0.00379912
0.00237774
0.000819524
0
0
-0.00128042
-0.00479361
-0.0102513
-0.0175314
-0.0266578
-0.0377184
-0.0507855
-0.0658563
-0.0828094
-0.101382
-0.121175
-0.141692
-0.1624
-0.182786
-0.202406
-0.220898
-0.23799
-0.253481
-0.267232
-0.279156
-0.289203
-0.297351
-0.303594
-0.307928
-0.310337
-0.310785
-0.309198
-0.305463
-0.299425
-0.290896
-0.279669
-0.265555
-0.248427
-0.228284
-0.205318
-0.17998
-0.153017
-0.125459
-0.0985357
-0.0735188
-0.0515245
-0.0333306
-0.0192771
-0.00927696
-0.0029091
0.000465207
0.00160798
0.00134466
0.00052807
0
0
-0.00198133
-0.00695662
-0.0142443
-0.0235365
-0.0347852
-0.04804
-0.063323
-0.0805525
-0.0995037
-0.119805
-0.140968
-0.16245
-0.183717
-0.204294
-0.223794
-0.241915
-0.258442
-0.27323
-0.286204
-0.297344
-0.306677
-0.314262
-0.32017
-0.32447
-0.327209
-0.328399
-0.327998
-0.325903
-0.321941
-0.315863
-0.30736
-0.29608
-0.281673
-0.263856
-0.242507
-0.217762
-0.190117
-0.160487
-0.130183
-0.100776
-0.0738523
-0.0507175
-0.0321542
-0.0183398
-0.00893167
-0.00324534
-0.000422633
0.000455348
0.000306084
0
0
-0.00273453
-0.00921584
-0.0183255
-0.0295612
-0.0427993
-0.0580401
-0.0752388
-0.0942214
-0.11466
-0.136093
-0.157977
-0.179754
-0.200912
-0.22102
-0.239735
-0.256809
-0.27208
-0.285474
-0.296995
-0.306711
-0.31474
-0.321227
-0.326324
-0.33017
-0.332875
-0.334501
-0.335053
-0.334462
-0.33257
-0.329125
-0.323771
-0.316053
-0.305446
-0.291406
-0.273459
-0.251328
-0.225084
-0.195292
-0.163094
-0.130176
-0.0985464
-0.0701563
-0.0464742
-0.028197
-0.0152336
-0.00691737
-0.0022824
-0.000270465
0.000161484
0
0
-0.00349629
-0.0114458
-0.0222763
-0.0352911
-0.0502879
-0.0672076
-0.0859272
-0.106179
-0.127543
-0.149493
-0.171455
-0.192879
-0.213282
-0.232269
-0.249547
-0.264925
-0.278317
-0.289738
-0.299286
-0.307127
-0.313465
-0.318519
-0.322501
-0.325599
-0.327967
-0.32971
-0.330874
-0.331437
-0.331291
-0.330227
-0.327914
-0.323887
-0.317543
-0.308169
-0.294999
-0.277337
-0.254728
-0.227173
-0.195342
-0.160696
-0.125408
-0.0920162
-0.0628492
-0.0394456
-0.0222682
-0.0108418
-0.00413391
-0.000910221
6.93311e-05
0
0
-0.00421595
-0.0135128
-0.0258769
-0.0404239
-0.0568699
-0.0750881
-0.0948738
-0.115871
-0.13759
-0.159457
-0.180894
-0.201365
-0.22042
-0.237713
-0.25301
-0.266203
-0.277304
-0.286429
-0.293777
-0.299596
-0.304155
-0.307718
-0.310524
-0.312781
-0.314656
-0.316274
-0.317709
-0.318984
-0.320051
-0.320776
-0.320915
-0.320077
-0.317703
-0.313047
-0.305196
-0.293147
-0.27595
-0.252957
-0.224115
-0.190269
-0.153317
-0.116056
-0.0816278
-0.052669
-0.0305959
-0.0154405
-0.00624445
-0.00160176
-1.50734e-05
0
0
-0.00484127
-0.0152871
-0.0289248
-0.044693
-0.0622226
-0.0813149
-0.101686
-0.122906
-0.144431
-0.165669
-0.186044
-0.205052
-0.222286
-0.237465
-0.250444
-0.261216
-0.269904
-0.276726
-0.281964
-0.285923
-0.288903
-0.291175
-0.292975
-0.294496
-0.29589
-0.297276
-0.298737
-0.300322
-0.302039
-0.303836
-0.305577
-0.307005
-0.307695
-0.30701
-0.304065
-0.297744
-0.28678
-0.269954
-0.246419
-0.216119
-0.180191
-0.14114
-0.102541
-0.0681377
-0.0406691
-0.0211238
-0.00889724
-0.00249617
-0.000140258
0
0
-0.00532413
-0.0166554
-0.0312506
-0.0478854
-0.0661019
-0.085628
-0.10611
-0.12706
-0.147902
-0.168041
-0.186925
-0.204092
-0.219202
-0.232062
-0.242632
-0.251022
-0.257458
-0.262244
-0.265714
-0.268196
-0.269987
-0.271334
-0.272438
-0.273456
-0.274505
-0.275679
-0.277051
-0.278679
-0.280602
-0.282835
-0.285345
-0.288015
-0.290599
-0.292656
-0.29348
-0.292047
-0.287019
-0.276845
-0.260021
-0.235533
-0.203423
-0.165311
-0.124546
-0.0855968
-0.0526592
-0.0281692
-0.0123151
-0.00371736
-0.000345408
0
0
-0.00562566
-0.0175298
-0.0327295
-0.0498537
-0.0683522
-0.0878825
-0.108032
-0.128277
-0.148028
-0.166707
-0.183802
-0.198914
-0.21179
-0.222341
-0.230644
-0.236915
-0.241467
-0.244654
-0.24683
-0.248314
-0.249367
-0.250194
-0.250945
-0.251728
-0.252619
-0.253677
-0.254955
-0.256501
-0.258369
-0.26061
-0.263261
-0.266325
-0.269721
-0.273227
-0.276391
-0.278434
-0.278176
-0.274029
-0.264128
-0.246692
-0.220615
-0.18623
-0.145939
-0.104197
-0.0663643
-0.0366575
-0.0166216
-0.00534271
-0.000654674
0
0
-0.00571996
-0.0178539
-0.0332869
-0.0505199
-0.0689087
-0.088045
-0.107474
-0.126653
-0.145004
-0.161982
-0.177133
-0.190139
-0.200848
-0.209283
-0.215626
-0.22018
-0.22331
-0.225389
-0.226758
-0.227697
-0.228421
-0.229077
-0.229764
-0.23054
-0.231444
-0.232501
-0.233738
-0.235191
-0.236908
-0.23895
-0.241392
-0.244307
-0.247737
-0.251646
-0.255837
-0.25984
-0.262784
-0.263294
-0.259483
-0.249149
-0.230267
-0.201808
-0.164719
-0.122587
-0.0811886
-0.0464562
-0.0218382
-0.00740542
-0.0010794
0
0
-0.00559604
-0.0176047
-0.0328986
-0.0498734
-0.0677901
-0.086182
-0.104568
-0.122408
-0.139152
-0.154307
-0.167493
-0.178483
-0.187228
-0.193855
-0.19863
-0.201909
-0.204079
-0.205499
-0.206472
-0.207228
-0.207923
-0.208652
-0.209467
-0.210389
-0.211423
-0.212572
-0.213842
-0.215251
-0.216832
-0.218642
-0.220759
-0.223284
-0.226327
-0.229977
-0.23424
-0.238937
-0.243558
-0.247095
-0.247913
-0.243768
-0.232101
-0.210758
-0.179092
-0.139158
-0.0961843
-0.0572177
-0.027894
-0.00990591
-0.00162384
0
0
-0.00525792
-0.0167917
-0.0315873
-0.0479627
-0.0650861
-0.0824398
-0.0995333
-0.115847
-0.130875
-0.14419
-0.155495
-0.164657
-0.171722
-0.176897
-0.180505
-0.182924
-0.184528
-0.185642
-0.186516
-0.187324
-0.188171
-0.189106
-0.190146
-0.191284
-0.192509
-0.193805
-0.195167
-0.196597
-0.198115
-0.199758
-0.201591
-0.203711
-0.206245
-0.209343
-0.213139
-0.217677
-0.222776
-0.227845
-0.231665
-0.232253
-0.226933
-0.212832
-0.187908
-0.152415
-0.11018
-0.068384
-0.0346257
-0.0128175
-0.00228884
0
0
-0.00472324
-0.015453
-0.0294152
-0.0448846
-0.0609407
-0.0770224
-0.0926437
-0.107321
-0.120607
-0.132148
-0.14173
-0.149306
-0.155
-0.159073
-0.161872
-0.163768
-0.165102
-0.166149
-0.167104
-0.168089
-0.169164
-0.170347
-0.171631
-0.172996
-0.17442
-0.175884
-0.177373
-0.178883
-0.180417
-0.181997
-0.183663
-0.185489
-0.187587
-0.190113
-0.193258
-0.197201
-0.202012
-0.207476
-0.212847
-0.216589
-0.216251
-0.208686
-0.190858
-0.161319
-0.122011
-0.0792247
-0.0417701
-0.0160823
-0.0030712
0
0
-0.00402067
-0.0136495
-0.0264753
-0.0407708
-0.0555348
-0.0701685
-0.0842015
-0.0971984
-0.108778
-0.118663
-0.126716
-0.132964
-0.137581
-0.140856
-0.143134
-0.144756
-0.146014
-0.14713
-0.148249
-0.149447
-0.150755
-0.152168
-0.153668
-0.155231
-0.156834
-0.158457
-0.160087
-0.161713
-0.163331
-0.164945
-0.166576
-0.168264
-0.17009
-0.172184
-0.174735
-0.177979
-0.182139
-0.187288
-0.193113
-0.198602
-0.201755
-0.199535
-0.188374
-0.165462
-0.130771
-0.0889455
-0.0489664
-0.0196037
-0.00396074
0
0
-0.00318675
-0.0114591
-0.0228821
-0.0357757
-0.0490694
-0.0621306
-0.0745115
-0.0858327
-0.0957828
-0.104156
-0.110883
-0.116042
-0.119837
-0.122558
-0.124523
-0.126031
-0.127322
-0.128565
-0.129861
-0.131256
-0.132756
-0.134351
-0.136017
-0.137732
-0.139479
-0.141241
-0.143006
-0.144766
-0.14651
-0.148234
-0.149938
-0.151636
-0.153372
-0.155234
-0.157377
-0.16003
-0.163481
-0.167984
-0.173572
-0.179732
-0.185021
-0.186794
-0.181371
-0.165032
-0.135982
-0.0968456
-0.0557872
-0.0232463
-0.00493807
0
0
-0.00226256
-0.00897045
-0.0187632
-0.030065
-0.0417515
-0.0531586
-0.0638636
-0.0735459
-0.0819629
-0.088974
-0.094563
-0.0988392
-0.102014
-0.104357
-0.106147
-0.107632
-0.108999
-0.110373
-0.11182
-0.113364
-0.115002
-0.116719
-0.118496
-0.120317
-0.122169
-0.124044
-0.125932
-0.127828
-0.129721
-0.1316
-0.133453
-0.135275
-0.137077
-0.138904
-0.140859
-0.143133
-0.146006
-0.14982
-0.154837
-0.160961
-0.167315
-0.171802
-0.170973
-0.160638
-0.137611
-0.102455
-0.0618039
-0.0268459
-0.00597403
0
0
-0.00129059
-0.00627723
-0.0142523
-0.0238066
-0.0337837
-0.0434885
-0.0525213
-0.0606191
-0.0676037
-0.0733906
-0.078001
-0.0815579
-0.0842602
-0.0863431
-0.0880372
-0.0895361
-0.0909808
-0.0924582
-0.0940103
-0.0956483
-0.0973659
-0.0991505
-0.10099
-0.102874
-0.104799
-0.106761
-0.108757
-0.110783
-0.112831
-0.114888
-0.116936
-0.118956
-0.120936
-0.122885
-0.124858
-0.126985
-0.129504
-0.132762
-0.137146
-0.142862
-0.149535
-0.155675
-0.158288
-0.153107
-0.135975
-0.105591
-0.066667
-0.0302275
-0.00703069
0
0
-0.000312128
-0.00347383
-0.00948327
-0.0171647
-0.0253574
-0.0333356
-0.0407167
-0.0472898
-0.0529351
-0.0576134
-0.0613702
-0.0643263
-0.0666545
-0.0685459
-0.0701783
-0.0716946
-0.0731938
-0.0747336
-0.0763397
-0.0780176
-0.0797627
-0.0815684
-0.0834296
-0.085345
-0.0873158
-0.0893447
-0.0914335
-0.0935814
-0.0957825
-0.0980244
-0.100288
-0.102548
-0.104778
-0.106962
-0.109112
-0.111302
-0.113706
-0.116629
-0.120492
-0.12569
-0.132242
-0.139244
-0.144282
-0.14331
-0.13161
-0.106337
-0.0701643
-0.0332261
-0.00806465
0
0
0.000634852
-0.000651759
-0.0045871
-0.0102962
-0.0166495
-0.0228922
-0.0286499
-0.0337551
-0.0381383
-0.0417967
-0.0447881
-0.0472201
-0.0492302
-0.0509602
-0.052535
-0.0540502
-0.055569
-0.0571266
-0.0587385
-0.0604093
-0.0621392
-0.0639291
-0.0657818
-0.0677031
-0.0697002
-0.0717805
-0.0739496
-0.0762098
-0.078558
-0.0809842
-0.0834702
-0.0859897
-0.0885098
-0.0909985
-0.0934389
-0.0958566
-0.0983602
-0.101189
-0.104737
-0.109482
-0.115726
-0.123068
-0.129715
-0.132047
-0.125141
-0.104964
-0.0722392
-0.0357128
-0.009033
0
0
0.00151716
0.00210282
0.000310628
-0.00334964
-0.00782219
-0.0123289
-0.0164924
-0.0201775
-0.0233563
-0.0260542
-0.0283332
-0.0302807
-0.0319939
-0.0335639
-0.0350646
-0.0365484
-0.0380478
-0.0395805
-0.0411562
-0.0427811
-0.044462
-0.0462075
-0.0480283
-0.0499366
-0.0519448
-0.054064
-0.0563032
-0.0586673
-0.061156
-0.0637622
-0.0664704
-0.0692559
-0.0720851
-0.0749189
-0.0777226
-0.0804869
-0.0832642
-0.0862211
-0.0896881
-0.0941518
-0.100082
-0.107477
-0.115138
-0.11999
-0.117183
-0.101856
-0.0729718
-0.0376143
-0.00989923
0
0
0.00230736
0.00471082
0.00509048
0.0035346
0.000975202
-0.00179755
-0.00439232
-0.00669301
-0.00870411
-0.0104726
-0.0120601
-0.0135303
-0.0149392
-0.0163288
-0.0177248
-0.0191405
-0.0205813
-0.0220509
-0.0235549
-0.0251026
-0.0267076
-0.0283862
-0.0301564
-0.0320363
-0.0340429
-0.0361907
-0.0384912
-0.0409517
-0.0435746
-0.0463557
-0.049283
-0.0523353
-0.0554817
-0.0586822
-0.061894
-0.0650856
-0.068267
-0.0715383
-0.075153
-0.0795536
-0.085284
-0.0926306
-0.100916
-0.107659
-0.108289
-0.0974328
-0.0725404
-0.038922
-0.0106369
0
0
0.00298425
0.0071015
0.00963951
0.0102224
0.00960263
0.00856328
0.00751847
0.00657981
0.00572036
0.00487636
0.00398847
0.00301628
0.00194265
0.000771675
-0.00047842
-0.00178477
-0.00312856
-0.00450053
-0.00590281
-0.00734773
-0.00885491
-0.010448
-0.0121516
-0.0139895
-0.0159826
-0.0181488
-0.020502
-0.0230519
-0.025803
-0.0287543
-0.0318974
-0.0352157
-0.0386826
-0.0422616
-0.0459086
-0.0495815
-0.0532613
-0.056995
-0.0609593
-0.0655246
-0.0712371
-0.078565
-0.0872599
-0.095428
-0.0989156
-0.0921003
-0.0711806
-0.0396865
-0.0112316
0
0
0.00353312
0.00921348
0.0138514
0.0165839
0.0179252
0.0186228
0.0191176
0.0195318
0.0198266
0.0199255
0.0197708
0.0193419
0.0186557
0.0177572
0.0167044
0.0155533
0.0143457
0.0131038
0.0118299
0.01051
0.00911947
0.00762852
0.00600633
0.00422409
0.00225653
8.26659e-05
-0.00231402
-0.00494545
-0.00781874
-0.0109357
-0.0142918
-0.0178752
-0.0216651
-0.0256306
-0.0297314
-0.0339227
-0.0381695
-0.04248
-0.046964
-0.0519091
-0.0578156
-0.0652428
-0.0742708
-0.0835491
-0.0894195
-0.0862227
-0.0691501
-0.040006
-0.011683
0
0
0.00394557
0.0109958
0.017627
0.0224917
0.0258089
0.0282518
0.0302853
0.0320552
0.0335229
0.0346031
0.0352373
0.0354191
0.0351923
0.0346362
0.0338437
0.0329008
0.0318722
0.0307939
0.0296744
0.0285006
0.0272446
0.0258717
0.0243458
0.0226332
0.0207044
0.0185349
0.0161054
0.0134012
0.0104127
0.0071349
0.00356828
-0.00028028
-0.00439624
-0.00875594
-0.0133258
-0.0180641
-0.02293
-0.0279068
-0.0330508
-0.0385688
-0.0448864
-0.0525832
-0.0619697
-0.0721726
-0.0800631
-0.0801069
-0.0667045
-0.0400135
-0.0120082
0
0
0.00421931
0.0124091
0.0208755
0.02782
0.0331168
0.0373171
0.0408971
0.0440365
0.0467089
0.048825
0.050323
0.0512031
0.0515274
0.0514011
0.0509462
0.0502758
0.0494766
0.0486003
0.0476645
0.0466594
0.0455567
0.0443185
0.0429046
0.0412767
0.0394011
0.0372495
0.0347994
0.0320329
0.0289374
0.0255042
0.0217298
0.0176155
0.0131692
0.00840641
0.00335212
-0.00195921
-0.00748776
-0.0132036
-0.019124
-0.0253837
-0.0323215
-0.0404842
-0.0503258
-0.0613723
-0.0710271
-0.0739997
-0.064084
-0.0398666
-0.0122452
0
0
0.00435763
0.0134271
0.023517
0.0324451
0.0397064
0.0456768
0.0508188
0.0553502
0.0592692
0.0624886
0.064941
0.0666255
0.0676122
0.0680227
0.0680008
0.0676828
0.0671765
0.0665507
0.0658351
0.0650265
0.0640992
0.0630148
0.0617303
0.0602036
0.0583972
0.0562787
0.0538216
0.0510049
0.0478118
0.0442299
0.0402507
0.0358697
0.0310875
0.0259109
0.0203548
0.0144442
0.00821267
0.0016946
-0.00510129
-0.0122501
-0.0200015
-0.0288352
-0.0392741
-0.0511645
-0.0624232
-0.0680905
-0.0615057
-0.0397423
-0.0124596
0
0
0.0043688
0.0140378
0.0254861
0.0362481
0.0454295
0.053176
0.0599004
0.0658537
0.0710682
0.0754671
0.0789769
0.081588
0.0833678
0.0844436
0.084972
0.0851071
0.0849758
0.0846649
0.0842184
0.0836437
0.0829209
0.082014
0.0808795
0.079473
0.0777533
0.0756845
0.0732358
0.070382
0.0671021
0.0633789
0.0591982
0.0545491
0.0494242
0.0438207
0.037743
0.0312045
0.0242295
0.0168504
0.0090914
0.000924283
-0.00781676
-0.0175232
-0.028728
-0.0415219
-0.0543049
-0.0625141
-0.0591605
-0.0398343
-0.0127526
0
0
0.00426521
0.0142442
0.0267358
0.0391198
0.0501335
0.0596456
0.0679729
0.0753826
0.0819463
0.0876062
0.0922846
0.0959576
0.0986793
0.100571
0.101792
0.102506
0.102856
0.102946
0.102837
0.102548
0.10207
0.101373
0.100414
0.0991508
0.0975383
0.0955374
0.0931136
0.0902369
0.0868814
0.0830243
0.0786453
0.0737258
0.0682498
0.0622044
0.0555821
0.0483842
0.0406235
0.0323262
0.0235242
0.0142246
0.00433638
-0.00643362
-0.0185835
-0.0323804
-0.0466736
-0.0573514
-0.0572087
-0.0403508
-0.0132718
0
0
0.00406236
0.0140646
0.0272419
0.0409671
0.0536667
0.0649031
0.0748453
0.0837472
0.0917164
0.0987209
0.104683
0.109563
0.11339
0.116269
0.11835
0.119798
0.120765
0.12137
0.12169
0.121761
0.121585
0.121142
0.120395
0.119304
0.117823
0.115911
0.11353
0.110645
0.107225
0.103241
0.0986656
0.093472
0.0876346
0.0811295
0.0739371
0.0660455
0.0574552
0.0481836
0.038265
0.027732
0.0165588
0.00455203
-0.0087194
-0.0236406
-0.0394774
-0.0526234
-0.0557689
-0.0415086
-0.0142223
0
0
0.00377767
0.0135304
0.027006
0.0417207
0.055886
0.0687566
0.0803051
0.0907308
0.100162
0.108595
0.115958
0.122191
0.127298
0.131353
0.134486
0.136852
0.138603
0.139869
0.140741
0.141271
0.141477
0.141351
0.140867
0.139986
0.138668
0.13687
0.134552
0.131674
0.1282
0.124096
0.119324
0.113851
0.107639
0.100655
0.0928644
0.0842435
0.0747795
0.0644802
0.0533787
0.041527
0.0289539
0.0155621
0.00100806
-0.0151627
-0.0326033
-0.0482759
-0.0548964
-0.0435148
-0.0158724
0
0
0.00342891
0.0126828
0.0260544
0.0413412
0.0566664
0.0710126
0.0841215
0.0960892
0.107036
0.116979
0.125856
0.133592
0.140157
0.145588
0.149982
0.153474
0.156207
0.158313
0.159893
0.161014
0.161711
0.16199
0.161836
0.16122
0.160107
0.158455
0.156223
0.153369
0.149853
0.145632
0.140663
0.134902
0.128302
0.120817
0.112401
0.103016
0.0926381
0.0812646
0.0689269
0.0556916
0.0416333
0.0267431
0.0107752
-0.00675534
-0.025863
-0.0441544
-0.0545446
-0.0465287
-0.0185452
0
0
0.00303234
0.0115661
0.0244324
0.0398201
0.0559095
0.0714865
0.0860532
0.0995552
0.112063
0.123596
0.134098
0.143478
0.151676
0.158685
0.16456
0.169405
0.173342
0.176496
0.178972
0.180849
0.182177
0.182975
0.183244
0.182967
0.182115
0.180651
0.178537
0.175729
0.172182
0.16785
0.162682
0.156625
0.149622
0.141616
0.13255
0.122373
0.11105
0.0985713
0.0849661
0.0703136
0.0547264
0.0382729
0.0208063
0.00184163
-0.0189707
-0.0399696
-0.0545083
-0.0505939
-0.02258
0
0
0.00259976
0.0102179
0.02219
0.0371722
0.0535469
0.0700138
0.0858602
0.100846
0.114944
0.128142
0.140373
0.151535
0.161531
0.170313
0.177888
0.184316
0.189692
0.194123
0.19771
0.200536
0.202663
0.204125
0.204936
0.205093
0.204576
0.203359
0.201404
0.19867
0.195111
0.190676
0.18531
0.178951
0.171536
0.162996
0.153264
0.142282
0.130004
0.116417
0.10155
0.0854952
0.0683951
0.0503815
0.0313977
0.010982
-0.0115175
-0.0352567
-0.0543502
-0.0555351
-0.0282533
0
0
0.00213324
0.00865226
0.0193565
0.0334121
0.049531
0.0664552
0.0833172
0.099679
0.115367
0.130293
0.144356
0.157425
0.169374
0.180107
0.189584
0.197819
0.204866
0.210808
0.215731
0.219719
0.222835
0.225129
0.226626
0.227335
0.227251
0.226353
0.224614
0.221996
0.218452
0.213932
0.208377
0.201721
0.193894
0.184822
0.174432
0.162659
0.149454
0.134803
0.118742
0.101374
0.0828622
0.0633847
0.0429559
0.021151
-0.00293687
-0.0293357
-0.0533236
-0.0608258
-0.03565
0
0
0.00161437
0.00683156
0.0158975
0.028511
0.0438058
0.0606901
0.0782251
0.095789
0.113028
0.129728
0.145713
0.160808
0.174846
0.187687
0.199244
0.20948
0.21841
0.226081
0.232562
0.237923
0.24223
0.245536
0.247879
0.249278
0.24974
0.249256
0.247807
0.24536
0.241876
0.237304
0.231587
0.224657
0.216444
0.206872
0.195867
0.183367
0.169327
0.153739
0.136648
0.118164
0.0984644
0.077745
0.0560608
0.0330261
0.00754219
-0.0212754
-0.0503081
-0.0654486
-0.0445003
0
0
0.000983116
0.00461874
0.0116501
0.0223279
0.0362536
0.0525905
0.0704125
0.0889504
0.107655
0.126144
0.144127
0.161351
0.177595
0.192673
0.206451
0.218847
0.229831
0.239418
0.247648
0.254577
0.260262
0.264759
0.268109
0.270344
0.271479
0.271517
0.270449
0.268251
0.26489
0.260324
0.254498
0.247352
0.23882
0.228835
0.217331
0.204256
0.189579
0.173307
0.155493
0.136253
0.115753
0.0941776
0.0715742
0.0475824
0.0209779
-0.00985115
-0.0437776
-0.0677841
-0.0540183
0
0
9.90826e-05
0.001703
0.00623347
0.0145202
0.026619
0.0419726
0.0597217
0.0789912
0.0990432
0.119304
0.139327
0.158757
0.177296
0.194706
0.210805
0.225468
0.238629
0.250264
0.260388
0.269036
0.276256
0.282097
0.286603
0.289812
0.291748
0.292425
0.291843
0.289991
0.286848
0.282381
0.27655
0.269308
0.260606
0.250394
0.238628
0.225279
0.210337
0.193827
0.175807
0.156384
0.135683
0.113841
0.0908277
0.0662777
0.0388748
0.0065423
-0.0317914
-0.0655558
-0.0627853
0
0
-0.00132204
-0.00249945
-0.00105024
0.00445518
0.0144335
0.0285415
0.0459816
0.0657976
0.0870815
0.109066
0.131136
0.152804
0.173684
0.193473
0.21194
0.228922
0.244315
0.258068
0.270167
0.280629
0.289486
0.296782
0.302561
0.306861
0.309717
0.311153
0.311182
0.309809
0.30703
0.302833
0.297202
0.290114
0.281547
0.271485
0.259912
0.246832
0.232257
0.216226
0.198787
0.18002
0.159964
0.138671
0.115943
0.0913708
0.0634866
0.0301142
-0.0119441
-0.0558035
-0.068689
0
0
-0.00380325
-0.00894871
-0.0112831
-0.00882934
-0.0010146
0.0118653
0.0289924
0.0493163
0.0717778
0.0954365
0.119516
0.143397
0.166597
0.188744
0.209558
0.228838
0.246449
0.262313
0.276394
0.288692
0.299229
0.308041
0.315174
0.320673
0.324582
0.326941
0.327783
0.327138
0.325027
0.321469
0.316478
0.310068
0.302252
0.293049
0.282475
0.270562
0.25733
0.242826
0.227048
0.210041
0.191697
0.171972
0.150375
0.12645
0.0983455
0.0641754
0.0188845
-0.0347517
-0.0688164
0
0
-0.00822614
-0.0190096
-0.0258551
-0.026515
-0.0205916
-0.00857895
0.00853702
0.029555
0.0532678
0.0785912
0.104617
0.130619
0.156031
0.180418
0.20346
0.224924
0.244653
0.262552
0.278574
0.29271
0.304982
0.31543
0.324104
0.331065
0.336375
0.340094
0.342281
0.342992
0.342278
0.340188
0.336765
0.332056
0.326097
0.318936
0.310597
0.301134
0.290537
0.278859
0.266001
0.251989
0.236482
0.219411
0.1998
0.177266
0.149099
0.114068
0.0652432
0.00269732
-0.0589771
0
0
-0.0158987
-0.0340558
-0.0457115
-0.0491081
-0.0444591
-0.0327089
-0.0151459
0.00683538
0.0318996
0.0588667
0.0867513
0.114762
0.142284
0.168849
0.19411
0.21782
0.239816
0.259996
0.278313
0.294761
0.309363
0.322165
0.333226
0.342617
0.350409
0.356677
0.361491
0.364922
0.367032
0.367886
0.367534
0.366039
0.363433
0.35978
0.355081
0.349406
0.342681
0.334985
0.326068
0.316014
0.304147
0.290539
0.273477
0.252947
0.224706
0.18859
0.134689
0.0642492
-0.0320019
0
0
-0.0280742
-0.0527717
-0.0663789
-0.0692184
-0.0628639
-0.0490606
-0.0294414
-0.00546945
0.0215706
0.0505765
0.0806272
0.110973
0.14102
0.170305
0.198479
0.225288
0.250554
0.274162
0.296047
0.316185
0.334582
0.351267
0.366283
0.379686
0.391534
0.401893
0.410823
0.418391
0.424651
0.429668
0.433487
0.436172
0.437746
0.438283
0.437757
0.43626
0.433657
0.430074
0.42512
0.418981
0.410653
0.400429
0.385846
0.36736
0.338981
0.301666
0.240936
0.162767
0.0276234
0
0
-0.0404256
-0.0527226
-0.0450479
-0.0272617
-0.00410323
0.0223126
0.0509653
0.0812449
0.112676
0.144824
0.177274
0.209636
0.241556
0.272724
0.302875
0.331796
0.359317
0.385314
0.4097
0.432423
0.453459
0.47281
0.490493
0.506544
0.521006
0.533933
0.545382
0.555415
0.564094
0.571482
0.57764
0.58263
0.586501
0.58931
0.591081
0.591851
0.591579
0.590255
0.587675
0.583713
0.577758
0.569407
0.557006
0.539529
0.512505
0.473743
0.410396
0.321288
0.160446
0
0
0.104455
0.204282
0.282516
0.344034
0.39377
0.435264
0.470983
0.502649
0.53144
0.558138
0.583235
0.607013
0.629615
0.651087
0.671426
0.690598
0.708561
0.725279
0.740725
0.754887
0.767771
0.779396
0.789795
0.799011
0.807099
0.814114
0.820122
0.825181
0.829366
0.832723
0.835338
0.837232
0.83851
0.839135
0.839259
0.838714
0.837759
0.835927
0.833723
0.829984
0.825791
0.818319
0.81005
0.794069
0.776454
0.739269
0.698615
0.597651
0.482986
0
