# vtk DataFile Version 2.0
v_velocity
ASCII
DATASET RECTILINEAR_GRID
DIMENSIONS 51 52 1
X_COORDINATES 51 double
0 0.02 0.04 0.06 0.08 0.1 0.12 0.14 0.16 0.18 0.2 0.22 0.24 0.26 0.28 0.3 0.32 0.34 0.36 0.38 0.4 0.42 0.44 0.46 0.48 0.5 0.52 0.54 0.56 0.58 0.6 0.62 0.64 0.66 0.68 0.7 0.72 0.74 0.76 0.78 0.8 0.82 0.84 0.86 0.88 0.9 0.92 0.94 0.96 0.98 1 
Y_COORDINATES 52 double
0 0.01 0.03 0.05 0.07 0.09 0.11 0.13 0.15 0.17 0.19 0.21 0.23 0.25 0.27 0.29 0.31 0.33 0.35 0.37 0.39 0.41 0.43 0.45 0.47 0.49 0.51 0.53 0.55 0.57 0.59 0.61 0.63 0.65 0.67 0.69 0.71 0.73 0.75 0.77 0.79 0.81 0.83 0.85 0.87 0.89 0.91 0.93 0.95 0.97 0.99 1 
Z_COORDINATES 1 double
0.0

CELL_DATA 2550
SCALARS v_velocity double 1
LOOKUP_TABLE default
0
0
0
0
0
0
0
0
0
0
0
0
0
0
0
0
0
0
0
0
0
0
0
0
0
0
0
0
0
0
0
0
0
0
0
0
0
0
0
0
0
0
0
0
0
0
0
0
0
0
-0.000235961
-0.000532076
-0.000594272
-0.000492331
-0.000306883
-9.37037e-05
0.000117791
0.00031908
0.0005153
0.000717831
0.000937956
0.00118261
0.00145245
0.00174171
0.00203882
0.00232727
0.00258637
0.00279219
0.002919
0.00294116
0.00283542
0.00258354
0.00217488
0.00160885
0.000896823
6.34058e-05
-0.000853355
-0.00180297
-0.00272501
-0.00355327
-0.00422152
-0.0046707
-0.00485671
-0.00475781
-0.00438006
-0.00375914
-0.00295734
-0.00205547
-0.00114074
-0.000293273
0.000425662
0.000980749
0.0013637
0.00158826
0.00168014
0.00166251
0.00153873
0.00127755
0.000821462
0.000191639
-0.000775398
-0.0015195
-0.00158597
-0.00119251
-0.000543948
0.000213134
0.000996367
0.00177766
0.00256573
0.00338585
0.00426135
0.00520059
0.00619084
0.00719775
0.0081682
0.00903457
0.00972002
0.0101447
0.010233
0.00992116
0.00916439
0.00794251
0.00626352
0.00416518
0.00171468
-0.000993137
-0.00383889
-0.00668302
-0.00937188
-0.0117458
-0.0136497
-0.014946
-0.0155293
-0.0153417
-0.0143855
-0.0127302
-0.0105121
-0.00792148
-0.00518048
-0.00251322
-0.000114505
0.00187543
0.00338396
0.004403
0.00496884
0.005127
0.00488818
0.00419277
0.00292336
0.00105071
-0.00138794
-0.00250672
-0.00240479
-0.00149967
-0.000131921
0.00145981
0.00313937
0.00485676
0.00661932
0.00845695
0.0103896
0.0124044
0.0144464
0.0164202
0.0181988
0.0196367
0.0205853
0.0209086
0.0204976
0.0192819
0.0172362
0.0143817
0.0107842
0.00654951
0.00181831
-0.00323876
-0.00842556
-0.0135251
-0.0183052
-0.0225266
-0.0259547
-0.028375
-0.0296134
-0.0295583
-0.0281829
-0.025561
-0.0218739
-0.0174006
-0.0124909
-0.00752447
-0.0028605
0.00120852
0.00448911
0.00689521
0.00842751
0.00912437
0.00899405
0.00795266
0.00581173
0.00237346
-0.00188562
-0.00312546
-0.00259643
-0.000926662
0.00141636
0.00411654
0.00699413
0.00997859
0.013067
0.0162743
0.0195877
0.0229378
0.026191
0.02916
0.0316262
0.0333671
0.0341836
0.0339223
0.0324899
0.0298585
0.0260624
0.0211894
0.0153716
0.00877604
0.00159899
-0.00593787
-0.013589
-0.0210858
-0.0281394
-0.0344454
-0.0396949
-0.0435919
-0.0458773
-0.0463597
-0.0449481
-0.041682
-0.0367496
-0.0304868
-0.023352
-0.0158759
-0.0085953
-0.001984
0.00360118
0.00794598
0.0109653
0.0126494
0.0129784
0.0118316
0.00893101
0.00385693
-0.00212074
-0.00306682
-0.00178042
0.000929672
0.00450172
0.00856867
0.012921
0.0174664
0.0221753
0.0270173
0.0319085
0.0366843
0.0411038
0.0448785
0.0477126
0.0493436
0.0495741
0.0482884
0.0454546
0.0411154
0.035373
0.0283736
0.0202955
0.011341
0.00173376
-0.00828097
-0.018433
-0.0284237
-0.0379239
-0.0465754
-0.0539987
-0.0598096
-0.0636466
-0.0652085
-0.0642996
-0.0608771
-0.0550881
-0.0472861
-0.0380133
-0.0279467
-0.017814
-0.0082985
4.29283e-05
0.00682594
0.0118366
0.0149773
0.0161689
0.0152343
0.0117995
0.00524573
-0.00196508
-0.00206579
0.000359575
0.00439174
0.00943271
0.0150999
0.0211661
0.0275086
0.0340446
0.0406618
0.0471668
0.0532737
0.0586305
0.0628706
0.0656669
0.0667743
0.0660498
0.0634519
0.0590258
0.0528816
0.045174
0.0360869
0.0258227
0.0145987
0.00264675
-0.00978251
-0.0224131
-0.0349357
-0.047001
-0.0582149
-0.068141
-0.0763121
-0.082256
-0.0855362
-0.0858087
-0.0828882
-0.0768129
-0.0678898
-0.0567012
-0.0440565
-0.0308928
-0.0181438
-0.00661706
0.00308499
0.0105786
0.0156445
0.0181183
0.0177529
0.0140898
0.00637939
-0.00130028
0.000102533
0.00407241
0.00969407
0.0164148
0.0238765
0.03184
0.0401335
0.0485886
0.0569749
0.0649654
0.0721514
0.0780966
0.0824047
0.0847735
0.085022
0.0830894
0.0790155
0.0729147
0.0649509
0.0553176
0.0442251
0.0318916
0.0185406
0.00440203
-0.0102824
-0.0252498
-0.0402049
-0.0548063
-0.0686552
-0.081288
-0.0921782
-0.100754
-0.106433
-0.108688
-0.107125
-0.101581
-0.0922168
-0.0795647
-0.0645164
-0.0482217
-0.0319189
-0.0167469
-0.00360433
0.00689705
0.0143807
0.0185793
0.0191743
0.015648
0.00719892
-1.98552e-05
0.00361572
0.00953012
0.0169741
0.0255412
0.0349371
0.0449071
0.0552043
0.0655418
0.0755473
0.0847583
0.0926687
0.0988042
0.102791
0.104393
0.103515
0.100181
0.0945061
0.0866663
0.0768749
0.0653646
0.0523731
0.0381343
0.0228743
0.00681186
-0.00983479
-0.026837
-0.0439398
-0.0608439
-0.0771846
-0.0925148
-0.106292
-0.117881
-0.126577
-0.131654
-0.132463
-0.128544
-0.119775
-0.106488
-0.0895334
-0.0702159
-0.0501127
-0.0308004
-0.0136045
0.000529191
0.0110064
0.0174365
0.0194376
0.0164646
0.00772699
0.00196147
0.00859101
0.0168178
0.0262663
0.0367898
0.0481919
0.0601902
0.0724338
0.084493
0.0958482
0.105921
0.114151
0.120071
0.123369
0.123893
0.121636
0.116707
0.109294
0.0996401
0.0880152
0.0746981
0.0599578
0.0440424
0.0271742
0.00955132
-0.00864517
-0.0272378
-0.0460346
-0.0648068
-0.0832623
-0.101018
-0.117572
-0.132289
-0.144393
-0.153004
-0.157208
-0.156189
-0.149404
-0.136792
-0.118941
-0.0971395
-0.0732476
-0.0493636
-0.027419
-0.00887889
0.00532005
0.0146138
0.0185597
0.0166138
0.00803307
0.004696
0.0150723
0.0259275
0.037502
0.0500279
0.0634327
0.0773888
0.0914164
0.104932
0.117281
0.127805
0.135928
0.14123
0.143476
0.142608
0.13871
0.131979
0.122689
0.111161
0.0977312
0.0827271
0.0664449
0.0491395
0.0310205
0.0122558
-0.00701881
-0.0266856
-0.0466262
-0.0666982
-0.0867071
-0.106372
-0.12529
-0.142895
-0.158433
-0.170951
-0.179339
-0.182433
-0.179197
-0.16899
-0.151858
-0.128769
-0.101638
-0.0730457
-0.0456962
-0.0218423
-0.00299617
0.00997884
0.0165477
0.0161819
0.00819456
0.00819229
0.0230219
0.036758
0.0505168
0.0650247
0.0803523
0.0961084
0.111668
0.126297
0.139231
0.149767
0.157352
0.161632
0.162463
0.159886
0.154088
0.145371
0.134109
0.120709
0.105572
0.089065
0.0714985
0.0531212
0.0341192
0.0146238
-0.0052764
-0.0255216
-0.0460633
-0.0668439
-0.0877712
-0.108685
-0.129318
-0.149239
-0.167807
-0.18412
-0.197001
-0.205043
-0.206753
-0.20082
-0.186504
-0.164058
-0.13503
-0.102213
-0.0690998
-0.0390196
-0.0144226
0.00327099
0.013324
0.0152023
0.00826389
0.0124082
0.0323187
0.0491221
0.0650639
0.0814707
0.0985705
0.115894
0.132665
0.148015
0.161099
0.171204
0.177823
0.180687
0.179756
0.175183
0.167281
0.156471
0.143234
0.128057
0.111392
0.0936242
0.0750609
0.0559274
0.0363763
0.0164992
-0.00365902
-0.0240862
-0.0447889
-0.0657771
-0.0870453
-0.108547
-0.130155
-0.151613
-0.172463
-0.19197
-0.209051
-0.222239
-0.229746
-0.229662
-0.22035
-0.20101
-0.17229
-0.136641
-0.0980586
-0.0610927
-0.029578
-0.00592508
0.00868135
0.0136157
0.00824881
0.0172495
0.0427646
0.0627598
0.0808321
0.0990003
0.117663
0.136265
0.153885
0.16954
0.182336
0.191579
0.19683
0.197922
0.194935
0.188162
0.178054
0.165159
0.150056
0.133295
0.115351
0.096604
0.0773336
0.0577273
0.0378966
0.0178934
-0.00227328
-0.022625
-0.0432032
-0.06406
-0.0852484
-0.106806
-0.128727
-0.150923
-0.173149
-0.194915
-0.215372
-0.233203
-0.246572
-0.253197
-0.25065
-0.236939
-0.211341
-0.17524
-0.132462
-0.0885613
-0.0491234
-0.0181516
0.00228028
0.0112597
0.00810856
0.0225736
0.0540959
0.0773549
0.0974669
0.117217
0.137189
0.156747
0.174835
0.190382
0.202476
0.210463
0.213997
0.213032
0.207794
0.198732
0.186444
0.171595
0.154842
0.136765
0.117833
0.0983942
0.0786808
0.0588317
0.0389138
0.0189429
-0.00109912
-0.021253
-0.0415756
-0.0621365
-0.0830152
-0.104297
-0.126057
-0.148339
-0.171092
-0.194092
-0.216805
-0.238231
-0.256746
-0.27002
-0.275138
-0.269049
-0.249452
-0.216005
-0.171411
-0.121499
-0.0736134
-0.0340057
-0.00631748
0.0078878
0.00776315
0.0281993
0.066
0.0925546
0.114591
0.135715
0.156719
0.176897
0.19508
0.210134
0.221155
0.227558
0.229109
0.225907
0.218345
0.207035
0.192715
0.176146
0.158029
0.138942
0.119317
0.0994475
0.0795079
0.059583
0.0396964
0.0198338
-4.06862e-05
-0.0199758
-0.0400293
-0.0602686
-0.0807745
-0.101645
-0.122994
-0.144942
-0.167586
-0.190928
-0.214762
-0.238489
-0.260894
-0.27992
-0.292574
-0.295127
-0.283837
-0.256296
-0.213153
-0.159332
-0.10332
-0.0540416
-0.0175964
0.00319976
0.00710847
0.0339193
0.0781339
0.107988
0.131824
0.154104
0.175856
0.196326
0.214259
0.228485
0.238133
0.242709
0.242115
0.236616
0.22678
0.213379
0.197269
0.179276
0.160108
0.140311
0.120257
0.100171
0.0801643
0.0602695
0.0404728
0.0207371
0.00101631
-0.0187382
-0.0385761
-0.0585522
-0.0787323
-0.0992027
-0.120079
-0.141512
-0.163677
-0.186737
-0.210759
-0.235544
-0.260384
-0.283731
-0.302908
-0.314009
-0.312296
-0.293384
-0.255286
-0.20073
-0.138053
-0.0786596
-0.0320291
-0.00312626
0.00602908
0.0395153
0.0901426
0.123282
0.148799
0.172021
0.194247
0.214712
0.232099
0.245229
0.253288
0.255895
0.253105
0.245362
0.233407
0.218154
0.200549
0.181445
0.161528
0.141284
0.121012
0.100866
0.0808941
0.0610846
0.0413944
0.0217713
0.00216513
-0.0174682
-0.0371674
-0.0569706
-0.0769225
-0.0970858
-0.117555
-0.138469
-0.160026
-0.182474
-0.206062
-0.230924
-0.256847
-0.282913
-0.307054
-0.325675
-0.333639
-0.325051
-0.295219
-0.243704
-0.177019
-0.107983
-0.0500172
-0.0114083
0.00440524
0.0447732
0.101676
0.138077
0.165174
0.189144
0.211601
0.231806
0.248412
0.260257
0.266603
0.2672
0.262267
0.252427
0.238581
0.221762
0.202968
0.183049
0.162642
0.142158
0.12182
0.101712
0.0818296
0.0621241
0.0425329
0.0229954
0.00346162
-0.0161064
-0.035737
-0.055453
-0.0752793
-0.0952523
-0.115435
-0.135935
-0.156929
-0.178678
-0.201524
-0.225824
-0.251778
-0.279092
-0.306466
-0.330995
-0.34774
-0.349975
-0.330713
-0.285939
-0.218815
-0.141742
-0.0718253
-0.021937
0.00211639
0.0494964
0.112406
0.15204
0.180644
0.2052
0.227683
0.247427
0.263089
0.273543
0.278144
0.276781
0.269843
0.25812
0.242654
0.224561
0.204864
0.184383
0.163689
0.143113
0.122805
0.102787
0.0830128
0.063408
0.043898
0.0244195
0.00492521
-0.0146171
-0.0342276
-0.0539185
-0.0736996
-0.0935857
-0.113609
-0.133837
-0.154403
-0.175533
-0.197581
-0.221013
-0.246314
-0.273721
-0.302724
-0.331333
-0.355305
-0.367802
-0.360252
-0.325247
-0.261602
-0.179196
-0.0975131
-0.0349482
-0.000954804
0.0535171
0.122035
0.164865
0.194939
0.219964
0.242317
0.26146
0.276086
0.285123
0.288029
0.284835
0.276091
0.262738
0.24593
0.226839
0.206485
0.185642
0.164805
0.144232
0.124004
0.104094
0.0844258
0.0649081
0.0454611
0.0260225
0.00654882
-0.0129876
-0.0326018
-0.0523006
-0.0720849
-0.0919555
-0.111921
-0.132012
-0.152309
-0.172982
-0.194337
-0.216853
-0.241165
-0.267896
-0.297235
-0.328181
-0.357525
-0.378964
-0.383164
-0.359937
-0.303428
-0.219175
-0.126876
-0.0505912
-0.00491555
0.0567039
0.130307
0.176288
0.207833
0.233258
0.255378
0.273841
0.287408
0.295073
0.296402
0.291562
0.281249
0.266532
0.24865
0.228804
0.207993
0.186933
0.166048
0.145528
0.125398
0.105595
0.0860199
0.0665741
0.0471768
0.027769
0.00831085
-0.0112219
-0.0308425
-0.050556
-0.0703611
-0.0902519
-0.110222
-0.130275
-0.150447
-0.170839
-0.191683
-0.213403
-0.236662
-0.262308
-0.291074
-0.322891
-0.355752
-0.384386
-0.399504
-0.388986
-0.342564
-0.260234
-0.159417
-0.0688994
-0.00985362
0.0589664
0.137015
0.186081
0.219135
0.244944
0.266785
0.284546
0.29709
0.30349
0.303413
0.297151
0.285526
0.269707
0.250993
0.230595
0.209478
0.1883
0.167422
0.146975
0.126943
0.107234
0.087737
0.0683513
0.0489978
0.0296211
0.0101851
-0.00933304
-0.0289468
-0.048663
-0.0684823
-0.0883986
-0.1084
-0.128474
-0.14862
-0.168883
-0.18941
-0.210529
-0.232848
-0.257292
-0.28495
-0.316537
-0.351265
-0.385215
-0.409839
-0.412014
-0.37772
-0.300885
-0.194375
-0.0897713
-0.0158277
0.060257
0.142002
0.194056
0.228689
0.254922
0.27649
0.293579
0.305188
0.310475
0.3092
0.301762
0.289083
0.272409
0.253076
0.232289
0.210977
0.189744
0.168899
0.148527
0.12858
0.108951
0.0895216
0.0701904
0.0508823
0.0315457
0.0121468
-0.00733682
-0.0269205
-0.0466149
-0.0664255
-0.0863508
-0.10638
-0.126494
-0.146671
-0.166911
-0.187283
-0.208011
-0.22959
-0.252908
-0.279234
-0.309865
-0.345125
-0.382601
-0.41502
-0.429146
-0.408104
-0.339809
-0.230814
-0.112968
-0.0228583
0.0605691
0.145163
0.200066
0.23637
0.263114
0.284468
0.30096
0.311761
0.31612
0.313878
0.305518
0.292039
0.274738
0.254968
0.233921
0.212493
0.191244
0.170439
0.150133
0.130258
0.110696
0.0913272
0.0720517
0.0527977
0.0335165
0.0141756
-0.00524795
-0.0247726
-0.0444138
-0.0641836
-0.0840873
-0.10412
-0.124263
-0.144487
-0.164761
-0.185093
-0.205607
-0.226667
-0.249044
-0.274037
-0.303312
-0.338124
-0.377563
-0.415992
-0.440846
-0.433377
-0.375981
-0.267752
-0.13813
-0.030923
0.0599343
0.14645
0.204001
0.242079
0.269468
0.29071
0.306718
0.316866
0.320503
0.317536
0.30851
0.294471
0.276748
0.256698
0.235496
0.214008
0.192762
0.171996
0.151745
0.131929
0.112426
0.093117
0.0739045
0.054719
0.0355136
0.0162559
-0.00307884
-0.0225124
-0.0420657
-0.0617574
-0.0816012
-0.101601
-0.121743
-0.141998
-0.16232
-0.182676
-0.203103
-0.223838
-0.245497
-0.269292
-0.297068
-0.330782
-0.370915
-0.41366
-0.447753
-0.453554
-0.408706
-0.304279
-0.164809
-0.039956
0.0584171
0.145864
0.205793
0.24574
0.27394
0.295217
0.310881
0.320551
0.323682
0.320234
0.310789
0.296418
0.278461
0.258268
0.236997
0.215492
0.194262
0.173529
0.153321
0.133554
0.114107
0.0948625
0.0757253
0.0566273
0.0375217
0.0183752
-0.000839634
-0.0201483
-0.039577
-0.0591512
-0.078893
-0.0988151
-0.118914
-0.139164
-0.159516
-0.179911
-0.200326
-0.220881
-0.24203
-0.264828
-0.291138
-0.323386
-0.363254
-0.408808
-0.45056
-0.46888
-0.437591
-0.339636
-0.192524
-0.0498552
0.0561098
0.143461
0.205413
0.247296
0.2765
0.29799
0.313476
0.322852
0.325693
0.322003
0.312376
0.297889
0.27987
0.259657
0.238393
0.216908
0.195702
0.174999
0.154825
0.135102
0.115712
0.0965411
0.0774955
0.0585072
0.0395283
0.020523
0.00146086
-0.0176877
-0.0369541
-0.0563702
-0.0759657
-0.0957627
-0.115768
-0.135964
-0.156305
-0.17672
-0.197145
-0.21761
-0.238415
-0.260427
-0.285408
-0.31604
-0.354969
-0.402066
-0.449929
-0.479736
-0.462483
-0.373255
-0.22081
-0.0604921
0.0531255
0.139344
0.202875
0.246713
0.277119
0.299029
0.314521
0.32379
0.326553
0.322847
0.313264
0.298861
0.280943
0.260828
0.239643
0.218214
0.197046
0.176371
0.156227
0.136547
0.117219
0.0981342
0.0791991
0.0603451
0.0415214
0.0226892
0.00381409
-0.0151379
-0.0342029
-0.0534189
-0.0728226
-0.0924445
-0.112301
-0.132385
-0.152658
-0.173047
-0.193465
-0.213876
-0.234451
-0.255862
-0.279695
-0.308712
-0.346274
-0.393897
-0.446442
-0.486552
-0.483403
-0.404749
-0.249264
-0.0717237
0.0495924
0.133663
0.198237
0.24398
0.275778
0.298332
0.314026
0.323376
0.326258
0.322748
0.313419
0.29929
0.28163
0.261727
0.240696
0.219365
0.198254
0.177613
0.157501
0.137867
0.11861
0.0996251
0.0808213
0.0621273
0.043489
0.024863
0.00621077
-0.0125065
-0.0313296
-0.050302
-0.0694665
-0.0888611
-0.108511
-0.128419
-0.148557
-0.168855
-0.189218
-0.209565
-0.229967
-0.250917
-0.273789
-0.301285
-0.337246
-0.384619
-0.440571
-0.489749
-0.500476
-0.433893
-0.277587
-0.0834067
0.0456468
0.126613
0.191606
0.239115
0.272461
0.295889
0.311992
0.321606
0.32479
0.321668
0.312785
0.299108
0.281856
0.262283
0.241488
0.220308
0.199283
0.178691
0.15862
0.13904
0.119866
0.100998
0.0823472
0.0638399
0.0454178
0.0270325
0.00864031
-0.00980233
-0.0283411
-0.0470241
-0.0658999
-0.0850125
-0.104395
-0.12406
-0.143987
-0.164117
-0.184352
-0.204589
-0.224823
-0.245399
-0.267471
-0.293588
-0.32786
-0.374416
-0.432681
-0.489705
-0.513878
-0.460584
-0.305593
-0.0954149
0.0414275
0.118423
0.18314
0.232171
0.267164
0.291688
0.308412
0.318467
0.322118
0.319552
0.311287
0.298228
0.281532
0.262409
0.241943
0.220978
0.200082
0.179567
0.159556
0.140046
0.120969
0.102236
0.0837611
0.0654678
0.0472934
0.0291841
0.0110905
-0.0070359
-0.0252455
-0.043591
-0.0621254
-0.0808982
-0.0999487
-0.119297
-0.138933
-0.158806
-0.178824
-0.198873
-0.218902
-0.239139
-0.260533
-0.285425
-0.318018
-0.36337
-0.423026
-0.486732
-0.523794
-0.484801
-0.333214
-0.10766
0.0370699
0.109354
0.17305
0.223243
0.259903
0.285718
0.30327
0.313935
0.318199
0.316332
0.308834
0.296543
0.280545
0.261999
0.241965
0.221296
0.200588
0.180193
0.160272
0.140854
0.121896
0.103321
0.0850456
0.0669945
0.0490999
0.0313026
0.0135475
-0.00421914
-0.0220525
-0.0400091
-0.0581462
-0.0765172
-0.0951665
-0.11412
-0.133377
-0.152895
-0.172592
-0.192355
-0.212106
-0.231991
-0.252782
-0.276591
-0.307579
-0.351479
-0.411767
-0.481065
-0.530378
-0.506565
-0.360497
-0.12012
0.0327011
0.0996849
0.161602
0.212481
0.250721
0.277972
0.296546
0.307982
0.312984
0.311933
0.305324
0.293932
0.278766
0.260923
0.241437
0.221161
0.200719
0.180504
0.160718
0.141429
0.122619
0.104227
0.0861802
0.068401
0.0508195
0.0333714
0.0159961
-0.00136534
-0.0187725
-0.0362859
-0.0539655
-0.0718682
-0.0900415
-0.108517
-0.127299
-0.146357
-0.165617
-0.184976
-0.204347
-0.223823
-0.244041
-0.266885
-0.296375
-0.338685
-0.398984
-0.472856
-0.533732
-0.525891
-0.387579
-0.132872
0.0284359
0.0897059
0.14911
0.200097
0.239708
0.268459
0.288218
0.300572
0.306421
0.306273
0.300646
0.290259
0.276044
0.259031
0.240216
0.220447
0.200369
0.180414
0.160828
0.141718
0.123097
0.104925
0.0871384
0.0696646
0.0524321
0.0353723
0.01842
0.00151134
-0.0154171
-0.0324288
-0.0495865
-0.0669487
-0.0845655
-0.102471
-0.120677
-0.139159
-0.157856
-0.176678
-0.195545
-0.214524
-0.234153
-0.256115
-0.284225
-0.324888
-0.384691
-0.462178
-0.533875
-0.542749
-0.414658
-0.146144
0.0243735
0.0797036
0.135933
0.186372
0.227008
0.257223
0.278276
0.291671
0.298451
0.299269
0.294683
0.28538
0.272216
0.256152
0.238135
0.218999
0.199402
0.179809
0.160508
0.141647
0.123272
0.105368
0.0878846
0.0707564
0.0539131
0.0372842
0.0208011
0.00439621
-0.0119972
-0.0284449
-0.0450111
-0.0617551
-0.0787281
-0.0959663
-0.113484
-0.131267
-0.149266
-0.167407
-0.185627
-0.203991
-0.22298
-0.244108
-0.270953
-0.309967
-0.368854
-0.449032
-0.530729
-0.557009
-0.441944
-0.160366
0.0205958
0.0699508
0.122457
0.171657
0.212843
0.244353
0.266728
0.281245
0.28902
0.290836
0.287321
0.279146
0.267109
0.252097
0.235002
0.216633
0.19765
0.178543
0.159637
0.141117
0.123066
0.105494
0.0883691
0.071637
0.0552313
0.0390823
0.0231197
0.00727388
-0.00852371
-0.0243401
-0.0402397
-0.0562816
-0.0725166
-0.0889816
-0.105694
-0.122646
-0.139802
-0.157108
-0.174525
-0.192139
-0.210406
-0.230716
-0.256399
-0.293796
-0.351414
-0.433359
-0.524109
-0.568391
-0.469586
-0.176239
0.0171669
0.0606969
0.109086
0.15637
0.197517
0.230006
0.253619
0.269277
0.278074
0.280893
0.278444
0.271411
0.260545
0.246666
0.230608
0.213141
0.194916
0.176438
0.158057
0.139996
0.122369
0.105215
0.0885231
0.0722525
0.0563449
0.0407343
0.0253516
0.0101272
-0.00500747
-0.0201191
-0.0352708
-0.0505203
-0.0659166
-0.0814962
-0.0972782
-0.113262
-0.129424
-0.145734
-0.162188
-0.178904
-0.196348
-0.215826
-0.240431
-0.276266
-0.332306
-0.415068
-0.513718
-0.576407
-0.49757
-0.194784
0.0141346
0.0521631
0.0962196
0.140983
0.181428
0.214429
0.239052
0.255775
0.265566
0.269359
0.267942
0.26203
0.252347
0.239658
0.224732
0.208297
0.190979
0.173284
0.155581
0.138119
0.121042
0.104416
0.0882538
0.0725298
0.0571975
0.0421978
0.0274659
0.0129351
-0.00146109
-0.0157869
-0.0301027
-0.044463
-0.0589139
-0.0734901
-0.0882121
-0.103085
-0.118101
-0.133255
-0.148582
-0.164251
-0.180761
-0.199373
-0.222965
-0.257301
-0.311494
-0.394069
-0.49918
-0.580321
-0.525584
-0.217364
0.0115348
0.044545
0.0842475
0.126
0.165053
0.197962
0.223206
0.240789
0.251468
0.256162
0.255711
0.250868
0.24235
0.230876
0.217158
0.201868
0.185603
0.168853
0.151994
0.135292
0.118915
0.102954
0.0874423
0.0723732
0.0577139
0.0434156
0.0294209
0.0156688
0.00209764
-0.0113522
-0.0247362
-0.0381043
-0.0514982
-0.0649501
-0.078481
-0.0921026
-0.105823
-0.119667
-0.133716
-0.148196
-0.163661
-0.181359
-0.203981
-0.236886
-0.288994
-0.37033
-0.480086
-0.579136
-0.552866
-0.245617
0.00940159
0.0380259
0.0735433
0.111945
0.148934
0.181038
0.206344
0.224427
0.23578
0.241235
0.241649
0.237798
0.230402
0.220143
0.207681
0.193634
0.178555
0.162911
0.147071
0.131305
0.115798
0.100661
0.0859454
0.0716638
0.0577984
0.0443129
0.0311601
0.0182874
0.00564083
-0.00683233
-0.019181
-0.0314484
-0.0436712
-0.0558781
-0.0680909
-0.0803288
-0.0926184
-0.105017
-0.117655
-0.130827
-0.145149
-0.161882
-0.183552
-0.215081
-0.264906
-0.343931
-0.456098
-0.571634
-0.578041
-0.281267
0.00778722
0.0328088
0.0644773
0.0993311
0.13364
0.164154
0.188809
0.206864
0.218541
0.224536
0.225663
0.222703
0.216364
0.207301
0.196124
0.183397
0.169625
0.155239
0.14059
0.125944
0.111491
0.0973547
0.0836032
0.0702646
0.0573365
0.0447965
0.0326095
0.0207338
0.00912497
-0.00226052
-0.0134632
-0.0245188
-0.0354579
-0.046306
-0.0570867
-0.0678285
-0.0785782
-0.0894289
-0.100564
-0.112344
-0.12545
-0.141162
-0.161868
-0.192046
-0.239422
-0.315113
-0.427066
-0.556494
-0.59899
-0.325768
0.0068041
0.0291731
0.057446
0.0886533
0.119714
0.147817
0.170987
0.188326
0.199836
0.206046
0.207681
0.205479
0.20012
0.192223
0.182347
0.171002
0.15864
0.145652
0.13236
0.119016
0.105806
0.0928584
0.0802529
0.0680301
0.0562014
0.0447581
0.0336781
0.0229315
0.0124854
0.00230617
-0.00763726
-0.0173731
-0.0269261
-0.0363204
-0.0455826
-0.0547536
-0.0639018
-0.0731569
-0.0827498
-0.0931041
-0.104949
-0.119587
-0.139265
-0.168054
-0.212818
-0.284284
-0.393139
-0.532487
-0.612755
-0.379786
0.00670502
0.0275692
0.0529155
0.0803666
0.107615
0.132463
0.153238
0.169056
0.179785
0.185786
0.187657
0.186049
0.181581
0.174813
0.166248
0.156338
0.14548
0.134017
0.122236
0.110368
0.098586
0.0870177
0.0757463
0.0648212
0.0542651
0.0440814
0.0342601
0.0247832
0.0156288
0.00677314
-0.0018063
-0.0101317
-0.0182239
-0.0261082
-0.0338167
-0.0414046
-0.04896
-0.0566467
-0.0647294
-0.0736809
-0.084249
-0.0977443
-0.116252
-0.143504
-0.185415
-0.251952
-0.354805
-0.498723
-0.615526
-0.442571
0.00802706
0.0287466
0.0514663
0.0748612
0.0976367
0.118355
0.135797
0.14924
0.158501
0.163801
0.165587
0.164381
0.160701
0.155024
0.147781
0.139356
0.130086
0.120264
0.110137
0.0999061
0.0897285
0.0797216
0.0699679
0.0605205
0.0514091
0.0426461
0.0342313
0.0261561
0.0184076
0.0109695
0.00382546
-0.00304382
-0.00965749
-0.0160455
-0.0222441
-0.0283245
-0.0343845
-0.0406166
-0.0472899
-0.0549135
-0.0641937
-0.0764508
-0.0935241
-0.118932
-0.157531
-0.218579
-0.312747
-0.454863
-0.602641
-0.51126
0.0118303
0.0338921
0.0538007
0.0724074
0.089822
0.105476
0.11867
0.128916
0.136039
0.140143
0.141508
0.1405
0.137501
0.132877
0.126967
0.120076
0.112475
0.104401
0.0960561
0.0876083
0.0791916
0.0709088
0.0628351
0.0550216
0.0475002
0.0402873
0.0333888
0.0268015
0.0205186
0.0145275
0.00881655
0.00336558
-0.00184155
-0.00684253
-0.0116697
-0.0164117
-0.021152
-0.0261125
-0.0315126
-0.0379063
-0.0458494
-0.0567255
-0.0719272
-0.0950071
-0.129426
-0.184409
-0.267456
-0.401227
-0.568576
-0.580076
0.0200565
0.0446756
0.0606462
0.0730673
0.0838986
0.0934629
0.101554
0.107898
0.112326
0.114819
0.115482
0.114498
0.11209
0.10849
0.103926
0.0986122
0.0927458
0.0865021
0.0800341
0.0734713
0.0669195
0.0604617
0.0541605
0.0480603
0.0421907
0.0365682
0.0312017
0.0260905
0.0212331
0.0166175
0.0122394
0.00807425
0.00411757
0.000318304
-0.0033309
-0.00694793
-0.0105552
-0.0144344
-0.0186547
-0.0238941
-0.030343
-0.0396544
-0.0523161
-0.0724732
-0.101259
-0.149378
-0.218632
-0.338681
-0.506901
-0.639053
0.0359552
0.0628327
0.0723019
0.0764639
0.0792496
0.0817127
0.0839914
0.0859169
0.0872621
0.0878521
0.0875974
0.0864869
0.0845679
0.0819253
0.0786648
0.0749014
0.0707504
0.0663219
0.0617168
0.0570236
0.0523176
0.0476599
0.0430989
0.0386696
0.0343986
0.0303005
0.0263877
0.0226596
0.0191231
0.0157635
0.0125909
0.0095695
0.00672331
0.00397119
0.00136821
-0.00127234
-0.00383005
-0.00673871
-0.00973754
-0.013841
-0.0184757
-0.0260464
-0.035254
-0.0519428
-0.0730187
-0.113262
-0.164731
-0.268241
-0.41065
-0.671055
0.0640294
0.0875302
0.085909
0.0793034
0.0728951
0.0679094
0.0643723
0.0619449
0.060222
0.0588462
0.0575466
0.0561407
0.0545215
0.0526404
0.0504903
0.0480923
0.0454847
0.0427144
0.0398317
0.0368854
0.0339204
0.030975
0.0280825
0.025267
0.0225502
0.0199419
0.0174574
0.0150923
0.0128629
0.0107461
0.00877243
0.00688408
0.00514908
0.00343448
0.00189427
0.000224872
-0.0012272
-0.0031563
-0.00478278
-0.00770199
-0.0101479
-0.0158226
-0.0206705
-0.0334571
-0.0446403
-0.0759461
-0.104001
-0.190072
-0.275507
-0.643432
0.104455
0.0998272
0.0782343
0.0615172
0.0497367
0.0414936
0.0357195
0.0316654
0.0287908
0.0266983
0.0250967
0.0237785
0.0226013
0.0214728
0.0203387
0.0191717
0.0179634
0.0167177
0.0154458
0.0141625
0.012884
0.0116247
0.0103992
0.00921642
0.00808784
0.00701482
0.00600821
0.00505913
0.00418432
0.00335771
0.00261476
0.00189442
0.00127755
0.000625458
0.000123236
-0.00054472
-0.000955488
-0.0018317
-0.00220342
-0.0037396
-0.00419303
-0.007472
-0.00826915
-0.0159806
-0.0176154
-0.0371843
-0.0406548
-0.100963
-0.114665
-0.482986
0
0
0
0
0
0
0
0
0
0
0
0
0
0
0
0
0
0
0
0
0
0
0
0
0
0
0
0
0
0
0
0
0
0
0
0
0
0
0
0
0
0
0
0
0
0
0
0
0
0
